<?xml version="1.0" encoding="UTF-8" standalone="no"?>
<svg
   xmlns:dc="http://purl.org/dc/elements/1.1/"
   xmlns:cc="http://creativecommons.org/ns#"
   xmlns:rdf="http://www.w3.org/1999/02/22-rdf-syntax-ns#"
   xmlns:svg="http://www.w3.org/2000/svg"
   xmlns="http://www.w3.org/2000/svg"
   xmlns:xlink="http://www.w3.org/1999/xlink"
   version="1.0"
   height="32"
   width="32"
   id="svg2">
  <metadata
     id="metadata7">
    <rdf:RDF>
      <cc:Work
         rdf:about="">
        <dc:format>image/svg+xml</dc:format>
        <dc:type
           rdf:resource="http://purl.org/dc/dcmitype/StillImage" />
        <dc:title></dc:title>
      </cc:Work>
    </rdf:RDF>
  </metadata>
  <defs
     id="defs5" />
  <g
     transform="translate(0,-992)"
     style="display:none"
     id="layer2">
    <image
       y="0"
       x="0"
       id="image2523"
       height="1024"
       width="32"
       xlink:href="/home/elric/Desarrollo/hedgewars/hats/template.png" />
  </g>
  <g
     transform="translate(0,-992)"
     style="display:inline"
     id="layer1">
    <g
       transform="translate(0,96)"
       id="g3373" />
    <g
       id="g2491">
      <g
         id="g3402"
         transform="rotate(4.2765534,-13266.308,518.66382)">
        <path
           transform="rotate(-4.2765531,17.988761,22.65826)"
           id="path6884"
           d="m 3.6239223,23.355514 c 0.5771947,1.442096 1.4740369,2.16722 4.0292523,2.349874 1.5363354,0.109822 2.4900244,-4.633904 5.7604074,-5.816626 3.270383,-1.182721 7.118557,-1.252326 8.94867,-2.190102 1.830114,-0.937775 3.037853,-1.818111 2.916816,-3.447145 C 25.178623,12.899633 21.831922,11.599864 21.831922,11.599864 13.929956,9.8168898 1.8702748,18.974103 3.6239223,23.355514 Z"
           style="opacity:0.4;fill:#000000;fill-opacity:1;stroke:none" />
        <path
           transform="rotate(-4.2765531,17.988761,22.65826)"
           id="path25587"
           d="m 7.2058058,23.469668 c 0.2628336,0.783107 1.9937325,1.984612 2.3459709,2.75 0.3708504,0.80583 1.3345833,0.917129 2.0504753,0.393306 0.879932,-0.643852 1.047189,-1.398907 0.774049,-1.765165 -1.259633,-1.689064 -1.746839,-0.45073 -1.938801,-3.222811 0.238994,-1.248854 1.333254,-1.722568 0.951364,-2.919194 -1.302496,-4.081282 -5.1443409,1.899741 -4.1830582,4.763864 z"
           style="fill:#642800;fill-opacity:1;stroke:#281000;stroke-width:1.25;stroke-linecap:round;stroke-linejoin:round;stroke-miterlimit:4;stroke-dasharray:none;stroke-opacity:1" />
        <path
           style="display:inline;fill:#00dc00;fill-opacity:1;fill-rule:evenodd;stroke:none"
           d="m 18.038496,14.341499 c 3.37639,-1.331728 7.255202,0.465031 7.182998,-1.320727 -0.07034,-1.739709 0.211789,-2.824133 -2.404192,-3.4857538 C 20.234046,6.1071464 16.737549,4.2631614 11.973644,6.3619014 6.0666957,8.9642081 4.2795191,14.034579 3.6663937,16.498018 2.9323379,19.447335 1.8597468,23.449054 2.6437679,24.285171 3.2635532,25.868362 6.8331257,26.336782 7.7998197,23.951305 9.8714763,19.043384 13.176369,16.259237 18.038496,14.341499 Z"
           id="path4337-7" />
        <path
           id="path2904"
           d="m 23.843253,21.455191 c -2.080785,1.480589 -5.415057,3.210874 -7.1663,3.13022 2.035239,1.307979 4.691586,1.345471 8.015782,-0.78771 3.11084,-1.946423 2.199756,-4.333433 2.037705,-5.591938 -0.06917,1.423839 -0.894397,1.831452 -2.887187,3.249428 z"
           style="color:#000000;display:inline;overflow:visible;visibility:visible;fill:#642800;fill-opacity:1;fill-rule:nonzero;stroke:#281000;stroke-width:1.25;stroke-linecap:round;stroke-linejoin:round;stroke-miterlimit:4;stroke-dasharray:none;stroke-dashoffset:0;stroke-opacity:1;marker:none;enable-background:accumulate" />
        <path
           transform="rotate(-4.2765531,17.988761,22.65826)"
           id="path25589"
           d="m 22.48281,19.53467 c 0.562612,0.001 0.915646,-1.217682 2.36948,-1.119481 1.55925,0.105321 1.915265,1.978078 1.369481,3.306442 -0.666673,1.622591 -3.652412,0.51961 -3.652412,0.51961"
           style="fill:#f6a2ec;fill-opacity:1;stroke:#a0096d;stroke-width:1px;stroke-linecap:round;stroke-linejoin:round;stroke-opacity:1" />
        <path
           id="path25591"
           d="M 17.533543,13.337953 C 19.261965,12.470079 20.992559,12.263243 20.5541,10.16884 20.115642,8.074435 17.67129,6.3223264 15.090749,7.2456414 12.610235,8.1331669 10.842468,11.099695 11.797803,13.10787 c 0.955334,2.008175 4.007317,1.09796 5.73574,0.230083 z"
           style="fill:#ffffff;fill-opacity:1;stroke:none" />
        <path
           style="color:#000000;display:inline;overflow:visible;visibility:visible;fill:#00dc00;fill-opacity:1;fill-rule:evenodd;stroke:none;stroke-width:1.5;marker:none;enable-background:accumulate"
           d="m 11.689265,18.044561 c 1.705937,-0.639372 7.211166,-0.593002 10.463855,-2.280792 2.595621,-1.346844 1.975541,-1.61332 0.133898,-2.363141 0,0 -1.967801,-0.796584 -4.116787,-0.09036 -2.120181,0.696756 -5.576177,3.115124 -6.480966,4.734293 z"
           id="path4335-4" />
        <path
           id="path25687-5"
           d="m 17.33652,11.370327 c -4.765674,2.093195 -7.290453,2.631832 -9.3621079,7.539754 -0.8458572,2.087293 -4.8180356,3.676559 -4.1226315,-1.029386 -0.4705298,0.726847 -2.1097458,4.433172 -1.1887912,5.916545 0.6197852,1.583192 4.3085767,2.569512 5.2752707,0.184035 2.0716559,-4.90792 5.3877649,-7.685843 10.2498919,-9.603581 3.37639,-1.331728 7.24376,0.466047 7.171556,-1.319712 -0.02472,-0.611342 -0.4358,-0.966662 -0.560173,-1.552238 0.150403,1.734248 -5.20508,-1.127155 -7.463015,-0.135417 z"
           style="display:inline;fill:#00a000;fill-opacity:1;fill-rule:evenodd;stroke:none" />
        <path
           id="path6890"
           transform="rotate(-4.2765531,17.988761,22.65826)"
           d="m 18.6875,13.46875 c -2.16737,0.457853 -4.725147,2.229164 -4.936199,2.730393 -0.692418,1.644432 4.604435,1.156299 7.191561,0.46783 C 22.236415,16.322741 24.56099,15.592464 24.53125,14.875 24.48244,13.697593 20.976749,12.98515 18.6875,13.46875 Z m 0.808439,0.966529 c 1.313746,-0.355882 2.693588,-0.536501 3.479474,0.25 0.426916,0.427251 -1.61535,1.017164 -2.194163,1.189721 -1.297879,0.386927 -2.536938,0.361674 -3.885723,0.239277 -1.333541,-0.121014 1.853073,-1.47655 2.600412,-1.678998 z"
           style="fill:#00a000;fill-opacity:1;stroke:none" />
        <path
           id="path25685-0"
           d="m 18.189944,14.370905 c 3.37639,-1.331728 6.458658,0.313127 7.182998,-1.320726 0.42653,-0.962096 0.283411,-2.746612 -2.404192,-3.4857544 C 20.385494,6.1365528 16.50572,4.1958798 11.741815,6.2946198 5.8348686,8.8969265 4.2330889,13.608488 3.5302703,16.42358 2.762574,19.498536 1.6823145,22.316878 2.5538952,24.169797 c 0.7216321,1.534138 4.4195654,2.6404 5.3862594,0.254921 2.0716564,-4.907921 5.3876624,-8.136075 10.2497894,-10.053813 z"
           style="display:inline;fill:none;stroke:#005000;stroke-width:1.5;stroke-linecap:butt;stroke-linejoin:round;stroke-miterlimit:4;stroke-dasharray:none;stroke-opacity:1" />
        <path
           id="path6935"
           transform="rotate(-4.2765531,17.988761,22.65826)"
           d="m 19.03125,11.1875 c -0.362724,-0.007 -0.7093,0.02243 -1,0.125 -2.205883,0.778357 -3.788316,1.270158 -5.09375,2 1.157879,1.249056 3.716462,0.67575 5.28125,0.03125 1.352775,-0.557175 2.68109,-0.745993 3.125,-1.71875 -0.807781,-0.232029 -1.604506,-0.423817 -2.3125,-0.4375 z"
           style="fill:#b3b3b3;fill-opacity:1;stroke:none" />
        <path
           id="path6886"
           d="m 11.689265,18.044561 c 1.705937,-0.639372 7.211166,-0.593002 10.463855,-2.280792 2.595621,-1.346844 1.975541,-1.61332 0.133898,-2.363141 0,0 -1.967801,-0.796584 -4.116787,-0.09036 -2.120181,0.696756 -5.576177,3.115124 -6.480966,4.734293 z"
           style="color:#000000;display:inline;overflow:visible;visibility:visible;fill:none;stroke:#005000;stroke-width:1.5;stroke-linecap:butt;stroke-linejoin:round;stroke-miterlimit:4;stroke-dasharray:none;stroke-dashoffset:0;stroke-opacity:1;marker:none;enable-background:accumulate" />
        <path
           id="path25593"
           d="m 15.162107,8.7484387 c 0.60893,0.8012658 1.329511,2.3831763 1.671467,3.1013333"
           style="display:inline;fill:#800000;fill-opacity:1;stroke:#005000;stroke-width:1.20000005;stroke-linecap:round;stroke-linejoin:miter;stroke-miterlimit:4;stroke-dasharray:none;stroke-opacity:1" />
      </g>
    </g>
  </g>
  <g
     transform="translate(0,-992)"
     style="display:none"
     id="layer3">
    <g
       transform="translate(0,1)"
       id="g3322">
      <path
         style="display:inline;overflow:visible;visibility:visible;fill:#ffffff;fill-opacity:1;fill-rule:nonzero;stroke:none;stroke-width:0.80000001;marker:none;enable-background:accumulate"
         d="M 0.0044785,-0.99790095 H 32.009293 L 31.997573,1022.9989 H 0.0044775 V -0.99400095 Z"
         id="rect2443" />
      <path
         id="path3221"
         d="m 15.955933,29.60177 c 0,1.872831 -1.471493,2.530858 -3.576496,2.530858 -2.105003,0 -3.4341742,-0.425053 -3.4341742,-2.530858 0,-2.136724 1.3291712,-2.733595 3.4341742,-2.733595 2.105003,0 3.576496,0.831649 3.576496,2.733595 z"
         style="display:inline;overflow:visible;visibility:visible;fill:#000000;fill-opacity:1;fill-rule:nonzero;stroke:none;stroke-width:0.80000001;marker:none;enable-background:accumulate" />
      <use
         x="0"
         y="0"
         xlink:href="#path3221"
         id="use3223"
         transform="translate(0.04419417,33.017321)"
         width="32"
         height="1024" />
      <use
         x="0"
         y="0"
         xlink:href="#use3223"
         id="use3225"
         transform="translate(0.9722718,33.013048)"
         width="32"
         height="1024" />
      <use
         x="0"
         y="0"
         xlink:href="#use3225"
         id="use3227"
         transform="translate(-1.016466,30.980116)"
         width="32"
         height="1024" />
      <use
         x="0"
         y="0"
         xlink:href="#use3227"
         id="use3229"
         transform="translate(-0.1767767,30.980116)"
         width="32"
         height="1024" />
      <use
         x="0"
         y="0"
         xlink:href="#use3229"
         id="use3231"
         transform="translate(0.3093592,31.952388)"
         width="32"
         height="1024" />
      <use
         x="0"
         y="0"
         xlink:href="#use3231"
         id="use3233"
         transform="translate(-0.08838835,33.013048)"
         width="32"
         height="1024" />
      <use
         x="0"
         y="0"
         xlink:href="#use3233"
         id="use3235"
         transform="translate(0.9280776,33.189824)"
         width="32"
         height="1024" />
      <use
         x="0"
         y="0"
         xlink:href="#use3235"
         id="use3237"
         transform="translate(-1.016466,30.891727)"
         width="32"
         height="1024" />
      <use
         x="0"
         y="0"
         xlink:href="#use3237"
         id="use3239"
         transform="translate(0.08838835,30.803339)"
         width="32"
         height="1024" />
      <use
         x="0"
         y="0"
         xlink:href="#use3239"
         id="use3241"
         transform="translate(-0.08838835,32.08497)"
         width="32"
         height="1024" />
      <use
         x="0"
         y="0"
         xlink:href="#use3241"
         id="use3243"
         transform="translate(0,33.101436)"
         width="32"
         height="1024" />
      <use
         x="0"
         y="0"
         xlink:href="#use3243"
         id="use3245"
         transform="translate(1.016466,32.880465)"
         width="32"
         height="1024" />
      <use
         x="0"
         y="0"
         xlink:href="#use3245"
         id="use3247"
         transform="translate(-0.8838835,31.156892)"
         width="32"
         height="1024" />
      <use
         x="0"
         y="0"
         xlink:href="#use3247"
         id="use3249"
         transform="translate(0,30.847533)"
         width="32"
         height="1024" />
      <use
         x="0"
         y="0"
         xlink:href="#use3249"
         id="use3251"
         transform="translate(0,31.996582)"
         width="32"
         height="1024" />
      <use
         x="0"
         y="0"
         xlink:href="#use3251"
         id="use3253"
         transform="translate(-0.04419417,30.007844)"
         width="32"
         height="1024" />
      <use
         x="0"
         y="0"
         xlink:href="#use3253"
         id="use3255"
         transform="translate(-0.04419417,33.013048)"
         width="32"
         height="1024" />
      <use
         x="0"
         y="0"
         xlink:href="#use3255"
         id="use3257"
         transform="translate(0,33.013048)"
         width="32"
         height="1024" />
    </g>
  </g>
</svg>
