<?xml version="1.0" encoding="UTF-8" standalone="no"?>
<!-- Created with Inkscape (http://www.inkscape.org/) -->

<svg
   xmlns:dc="http://purl.org/dc/elements/1.1/"
   xmlns:cc="http://creativecommons.org/ns#"
   xmlns:rdf="http://www.w3.org/1999/02/22-rdf-syntax-ns#"
   xmlns:svg="http://www.w3.org/2000/svg"
   xmlns="http://www.w3.org/2000/svg"
   xmlns:xlink="http://www.w3.org/1999/xlink"
   xmlns:sodipodi="http://sodipodi.sourceforge.net/DTD/sodipodi-0.dtd"
   xmlns:inkscape="http://www.inkscape.org/namespaces/inkscape"
   width="32"
   height="1024"
   id="svg2"
   sodipodi:version="0.32"
   inkscape:version="0.92.4 5da689c313, 2019-01-14"
   sodipodi:docname="Plunger.svg"
   inkscape:output_extension="org.inkscape.output.svg.inkscape"
   inkscape:export-filename="Plunger.png"
   inkscape:export-xdpi="90"
   inkscape:export-ydpi="90"
   version="1.1">
  <title
     id="title35112">plunger</title>
  <defs
     id="defs4" />
  <sodipodi:namedview
     id="base"
     pagecolor="#ffffff"
     bordercolor="#666666"
     borderopacity="1.0"
     gridtolerance="10000"
     guidetolerance="10"
     objecttolerance="10"
     inkscape:pageopacity="0.0"
     inkscape:pageshadow="2"
     inkscape:zoom="14.91128"
     inkscape:cx="14.633911"
     inkscape:cy="1008.9797"
     inkscape:document-units="px"
     inkscape:current-layer="g4637"
     showgrid="false"
     inkscape:window-width="1280"
     inkscape:window-height="779"
     inkscape:window-x="0"
     inkscape:window-y="21"
     inkscape:window-maximized="0"
     inkscape:snap-nodes="false"
     inkscape:snap-global="true"
     inkscape:object-paths="false"
     inkscape:snap-bbox="true"
     inkscape:snap-page="true" />
  <metadata
     id="metadata7">
    <rdf:RDF>
      <cc:Work
         rdf:about="">
        <dc:format>image/svg+xml</dc:format>
        <dc:type
           rdf:resource="http://purl.org/dc/dcmitype/StillImage" />
        <dc:title>plunger</dc:title>
        <dc:creator>
          <cc:Agent>
            <dc:title>Roman V. Prikhodchenko (chujoii@gmail.com)</dc:title>
          </cc:Agent>
        </dc:creator>
        <dc:rights>
          <cc:Agent>
            <dc:title>Roman V. Prikhodchenko (chujoii@gmail.com)</dc:title>
          </cc:Agent>
        </dc:rights>
        <dc:subject>
          <rdf:Bag>
            <rdf:li>hedgewars hat plunger</rdf:li>
          </rdf:Bag>
        </dc:subject>
        <cc:license
           rdf:resource="http://creativecommons.org/licenses/by-sa/4.0/" />
      </cc:Work>
      <cc:License
         rdf:about="http://creativecommons.org/licenses/by-sa/4.0/">
        <cc:permits
           rdf:resource="http://creativecommons.org/ns#Reproduction" />
        <cc:permits
           rdf:resource="http://creativecommons.org/ns#Distribution" />
        <cc:requires
           rdf:resource="http://creativecommons.org/ns#Notice" />
        <cc:requires
           rdf:resource="http://creativecommons.org/ns#Attribution" />
        <cc:permits
           rdf:resource="http://creativecommons.org/ns#DerivativeWorks" />
        <cc:requires
           rdf:resource="http://creativecommons.org/ns#ShareAlike" />
      </cc:License>
    </rdf:RDF>
  </metadata>
  <g
     inkscape:label="Layer 1"
     inkscape:groupmode="layer"
     id="layer1"
     style="display:none"
     transform="translate(0,-28.362183)"
     sodipodi:insensitive="true">
    <path
       style="fill:none;stroke:#258ff0;stroke-width:0.5;stroke-linejoin:round;stroke-miterlimit:10.43299961;stroke-opacity:0;stroke-dasharray:none;stroke-dashoffset:0"
       d="m 355.21392,58.741246 3.5393,3.99458"
       id="path3833" />
    <path
       style="fill:#00ff14;fill-opacity:1;fill-rule:nonzero;stroke:#464646;stroke-width:0.5;stroke-linecap:butt;stroke-linejoin:round;stroke-miterlimit:4;stroke-opacity:1;stroke-dasharray:none;stroke-dashoffset:0"
       id="path3086"
       d="m -6.431788,112.02831 c 0.06964,0.35491 0.02699,-0.002 -0.0338,0.44752 -0.01127,0.0833 -4.32e-4,0.16812 -6.48e-4,0.25218 0.0037,0.0132 -0.183032,0.0659 -0.186759,0.0527 l 0,0 c -0.02797,-0.0703 -0.04036,-0.14907 -0.0839,-0.21097 -0.334516,-0.47554 -0.06414,0.11051 -0.241626,-0.31511 -0.016,-0.0387 0.530726,-0.26498 0.546729,-0.22632 z" />
    <path
       style="fill:#00ff14;fill-opacity:1;fill-rule:nonzero;stroke:#464646;stroke-width:0.5;stroke-linecap:butt;stroke-linejoin:round;stroke-miterlimit:4;stroke-opacity:1;stroke-dasharray:none;stroke-dashoffset:0"
       id="path3090"
       d="m -9.716695,81.439326 c 0.733161,-0.275885 1.561693,-0.27371 2.335584,-0.317386 0.769061,-0.02593 1.532627,-0.112922 2.294873,-0.212661 0.195255,-0.02555 0.389478,-0.06105 0.585801,-0.07636 0.192289,-0.01499 0.385627,-0.0096 0.57844,-0.01443 0.187969,-8.65e-4 0.375938,-0.0017 0.563907,-0.0026 0.033632,-0.0021 0.063438,0.473524 0.029806,0.475632 l 0,0 c -0.1876211,0.08474 -0.3752422,0.169488 -0.5628634,0.254231 -0.1992236,0.07469 -0.3930856,0.165641 -0.5976696,0.224066 -0.20252,0.05784 -0.411594,0.09082 -0.619647,0.123575 -0.783553,0.123372 -1.581564,0.127333 -2.372442,0.12034 -0.454067,-0.01065 -0.908808,-0.02001 -1.363036,-0.01933 -0.166562,2.51e-4 -0.472476,0.01323 -0.647552,0.0071 -0.07319,-0.0026 -0.145943,-0.01232 -0.218914,-0.01848 -0.03844,4.44e-4 -0.04473,-0.543226 -0.0063,-0.54367 z" />
    <path
       style="fill:#00ff14;fill-opacity:1;fill-rule:nonzero;stroke:#464646;stroke-width:0.5;stroke-linecap:butt;stroke-linejoin:round;stroke-miterlimit:4;stroke-opacity:1;stroke-dasharray:none;stroke-dashoffset:0"
       id="path3092"
       d="m -10.433872,48.527731 c 0.488798,-0.378729 1.114304,-0.433161 1.710207,-0.462485 0.876878,0.0063 1.752003,0.0149 2.628145,-0.02983 0.325374,-0.01895 0.648326,-0.06999 0.973677,-0.08923 0.154516,-0.0091 0.310604,-0.0308 0.464209,-0.01172 0.15228,0.01891 0.295478,0.08294 0.443216,0.124417 0.02662,-7.87e-4 0.03776,0.375692 0.01114,0.37648 l 0,0 c -0.151531,0.09742 -0.290202,0.218585 -0.454594,0.292254 -0.441563,0.197879 -1.053838,0.193506 -1.527015,0.23098 -0.429963,0.0083 -0.582809,0.01825 -1.009024,-9.05e-4 -0.536258,-0.02409 -1.0697,-0.09523 -1.606484,-0.109978 -0.247254,0.0037 -0.371095,-7.43e-4 -0.614105,0.02655 -0.292921,0.0329 -0.575577,0.116702 -0.863626,0.175295 -0.0369,0.01101 -0.192643,-0.510818 -0.155744,-0.521831 z" />
    <path
       style="fill:#00ff14;fill-opacity:1;fill-rule:nonzero;stroke:#464646;stroke-width:0.5;stroke-linecap:butt;stroke-linejoin:round;stroke-miterlimit:4;stroke-opacity:1;stroke-dasharray:none;stroke-dashoffset:0"
       id="path3094"
       d="m -9.390582,145.62156 c 0.604661,-0.18352 1.242397,-0.21462 1.868035,-0.27247 0.673854,-0.0452 1.34769,-0.0914 2.023326,-0.0897 0.360725,0.0198 0.733142,0.005 1.089237,0.0793 0.07945,0.0165 0.156315,0.0437 0.234472,0.0655 0.3684348,0.14653 0.171259,0.11491 0.5943616,0.0751 0.019299,0.002 -0.0023,0.27446 -0.021599,0.27293 l 0,0 c -0.4442116,0.008 -0.2301715,-0.0326 -0.6425596,0.11941 -0.08609,0.0174 -0.171197,0.0407 -0.258272,0.0523 -0.348314,0.0462 -0.708226,-0.001 -1.055901,0.0612 -0.671974,0.0708 -1.344709,0.1332 -2.018881,0.17945 -0.611005,0.0269 -1.226029,0.08 -1.836349,0.0164 -0.03955,-0.002 -0.01542,-0.56104 0.02413,-0.55933 z" />
    <path
       style="fill:#00ff14;fill-opacity:1;fill-rule:nonzero;stroke:#464646;stroke-width:0.5;stroke-linecap:butt;stroke-linejoin:round;stroke-miterlimit:4;stroke-opacity:1;stroke-dasharray:none;stroke-dashoffset:0"
       id="path3096"
       d="m -10.769221,176.51105 c 0.823313,-0.31045 1.713571,-0.37544 2.583435,-0.44441 0.824191,-0.0515 1.649951,-0.0524 2.47525,-0.0644 0.980274,-0.007 1.9536209,-0.14952 2.9323142,-0.18368 0.2564428,-0.009 0.5131906,-0.003 0.769786,-0.004 0.2531467,0.0302 0.5062934,0.0604 0.7594401,0.0906 0.045063,0.003 -9.091e-4,0.64054 -0.045972,0.63729 l 0,0 c -0.2622793,0.0632 -0.5245586,0.12633 -0.7868379,0.18949 -0.2625711,0.027 -0.5242382,0.0651 -0.7877132,0.081 -0.9785656,0.0592 -1.9561552,-0.0522 -2.9328432,-0.0899 -0.813036,-0.0143 -1.621877,0.0459 -2.428904,0.14552 -0.83759,0.0716 -1.680416,0.15331 -2.521585,0.11102 -0.03313,0.001 -0.0495,-0.46729 -0.01637,-0.46845 z" />
    <path
       style="fill:#00ff14;fill-opacity:1;fill-rule:nonzero;stroke:#464646;stroke-width:0.5;stroke-linecap:butt;stroke-linejoin:round;stroke-miterlimit:4;stroke-opacity:1;stroke-dasharray:none;stroke-dashoffset:0"
       id="path3098"
       d="m -10.554447,207.91849 c 0.711269,0.0189 1.421172,0.0802 2.1319,0.11765 0.565164,0.0227 1.130179,-7e-5 1.694413,-0.0317 0.502272,-0.026 1.005098,-0.006 1.507241,0.0116 0.369172,0.0229 0.740101,6.9e-4 1.109268,0.0192 0.08443,0.004 0.1703726,0.003 0.2526683,0.0219 0.080723,0.019 0.154129,0.0612 0.2311935,0.0918 0.072787,0.0324 0.1455734,0.0648 0.2183601,0.0972 0.013361,0.001 -0.00315,0.19011 -0.016515,0.18894 l 0,0 c -0.080368,0.0394 -0.1607356,0.0789 -0.2411034,0.11829 -0.085953,0.0362 -0.1677857,0.0845 -0.2578597,0.10868 -0.086551,0.0233 -0.1775238,0.0259 -0.2669128,0.0325 -0.379495,0.0277 -0.762367,-0.004 -1.141419,-0.02 -0.479363,-0.0328 -0.959714,-0.0817 -1.440543,-0.0478 -0.587401,0.0407 -1.170729,0.14755 -1.7615,0.13769 -0.742114,-0.011 -1.514011,-0.0614 -2.190208,-0.39608 -0.03181,-0.0121 0.139209,-0.46192 0.171017,-0.44983 z" />
    <path
       style="fill:#00ff14;fill-opacity:1;fill-rule:nonzero;stroke:#464646;stroke-width:0.5;stroke-linecap:butt;stroke-linejoin:round;stroke-miterlimit:4;stroke-opacity:1;stroke-dasharray:none;stroke-dashoffset:0"
       id="path3100"
       d="m -13.078396,242.02084 c 0.732491,-0.0853 1.473998,-0.03 2.208792,-0.003 0.866561,0.068 1.734472,0.0963 2.603389,0.0916 0.72888,0.005 1.458711,-0.0989 2.187722,-0.0481 0.139313,0.01 0.277404,0.0325 0.416106,0.0488 0.513404,0.0797 0.259296,0.052 0.762097,0.0852 0.02178,0.002 -0.004,0.30984 -0.02574,0.30802 l 0,0 c -0.514921,0.0849 -0.253838,0.0307 -0.782613,0.16576 -0.14267,0.0307 -0.284123,0.0677 -0.42801,0.0921 -0.734001,0.12433 -1.483692,0.10209 -2.224652,0.12477 -0.884423,0.003 -1.768394,-0.0185 -2.651381,-0.0708 -0.726178,-0.0637 -1.470955,-0.0947 -2.16949,-0.31855 -0.03362,-0.007 0.07016,-0.48275 0.103779,-0.47541 z" />
    <path
       style="fill:#00ff14;fill-opacity:1;fill-rule:nonzero;stroke:#464646;stroke-width:0.5;stroke-linecap:butt;stroke-linejoin:round;stroke-miterlimit:4;stroke-opacity:1;stroke-dasharray:none;stroke-dashoffset:0"
       id="path3102"
       d="m -8.800561,273.44566 c 0.326074,-0.21876 0.773052,-0.26241 1.086529,0.0131 0.06862,0.0603 0.116277,0.14093 0.174415,0.2114 0.0695,0.20578 0.139271,0.31475 0.08273,0.54019 -0.02499,0.0996 -0.09212,0.18374 -0.1338,0.27763 -0.03952,0.089 -0.0731,0.18059 -0.109648,0.27089 -1.44e-4,0.0154 -0.217959,0.0134 -0.217815,-0.002 l 0,0 c -0.0084,-0.0835 -0.0041,-0.16929 -0.02514,-0.25053 -0.01842,-0.071 -0.06839,-0.13045 -0.09176,-0.19996 -0.01277,-0.038 -0.03123,-0.19389 -0.03811,-0.24776 -0.0052,-0.0222 -0.0036,-0.0471 -0.01554,-0.0665 -0.08669,-0.14093 -0.431302,-0.0144 -0.557402,-0.009 -0.03803,0.0109 -0.192493,-0.52694 -0.15446,-0.53786 z" />
    <path
       style="fill:#00ff14;fill-opacity:1;fill-rule:nonzero;stroke:#464646;stroke-width:0.5;stroke-linecap:butt;stroke-linejoin:round;stroke-miterlimit:4;stroke-opacity:1;stroke-dasharray:none;stroke-dashoffset:0"
       id="path3104"
       d="m -12.020053,305.56567 c 0.366077,0.0244 0.72982,0.0808 1.096494,0.0976 0.316158,0.0145 0.394381,0.003 0.712056,-0.0117 0.768735,-0.053 1.524028,-0.2131 2.284912,-0.32659 0.828928,-0.1331 1.666379,-0.20278 2.50072,-0.29275 0.572105,-0.0967 1.149011,-0.0841 1.7256944,-0.0592 0.026172,-6.3e-4 0.035117,0.36948 0.00895,0.37012 l 0,0 c -0.5683444,0.22812 -1.1422904,0.43286 -1.7611874,0.4648 -0.824654,0.0913 -1.65118,0.16532 -2.473612,0.27628 -0.786192,0.12119 -1.571592,0.26925 -2.367678,0.30378 -0.654831,-0.006 -1.333464,-0.0391 -1.917947,-0.36815 -0.03212,-0.0136 0.159487,-0.46775 0.191603,-0.4542 z" />
    <path
       style="fill:#00ff14;fill-opacity:1;fill-rule:nonzero;stroke:#464646;stroke-width:0.5;stroke-linecap:butt;stroke-linejoin:round;stroke-miterlimit:4;stroke-opacity:1;stroke-dasharray:none;stroke-dashoffset:0"
       id="path3106"
       d="m -10.975856,335.04318 c 0.628354,-0.0827 1.266003,-0.0166 1.894492,0.0355 0.588053,0.0732 1.178821,0.0496 1.76867,0.0266 0.705754,-0.0553 1.407411,-0.1462 2.11307,-0.20165 0.450764,-0.009 0.957483,-0.0971 1.4004681,0.0279 0.059956,0.0169 0.1160036,0.0454 0.1740054,0.0682 0.1772966,0.15806 0.083519,0.0951 0.277154,0.19504 0.00849,0.002 -0.020471,0.12215 -0.028963,0.1201 l 0,0 c -0.2196871,0.0446 -0.1112753,0.006 -0.3224055,0.12379 -0.497716,0.14903 -1.02363,0.16483 -1.536459,0.22997 -0.713793,0.0776 -1.429937,0.14684 -2.148652,0.14933 -0.61056,0.0131 -1.221446,-0.002 -1.831635,-0.0248 -0.621211,-0.0386 -1.251271,-0.0798 -1.851819,-0.25381 -0.03508,-0.007 0.05699,-0.50263 0.09207,-0.49611 z" />
    <path
       style="fill:#00ff14;fill-opacity:1;fill-rule:nonzero;stroke:#464646;stroke-width:0.5;stroke-linecap:butt;stroke-linejoin:round;stroke-miterlimit:4;stroke-opacity:1;stroke-dasharray:none;stroke-dashoffset:0"
       id="path3108"
       d="m -12.993886,368.42727 c 0.08178,-0.0105 0.163103,-0.0256 0.245345,-0.0314 0.399236,-0.0284 0.802326,0.005 1.201117,0.022 0.60286,0.0261 0.402052,0.0181 1.020126,0.0347 1.090404,0.0349 2.179489,-0.051 3.266775,-0.12058 0.174604,-0.0138 0.349089,-0.0293 0.523812,-0.0416 0.176662,-0.0124 0.353203,-0.0315 0.530297,-0.0325 0.404164,-0.002 0.710255,0.0456 1.112064,0.0918 0.03367,0.002 0.0098,0.47785 -0.02385,0.47616 l 0,0 c -0.420309,0.12215 -0.704111,0.21869 -1.133865,0.29029 -0.175722,0.0293 -0.353929,0.041 -0.531125,0.0594 -0.175669,0.0182 -0.351624,0.0335 -0.527436,0.0503 -1.121575,0.11431 -2.249213,0.19709 -3.376301,0.10744 -0.803535,-0.0805 -1.613691,-0.18255 -2.384276,-0.4345 -0.03334,-0.005 0.04398,-0.4769 0.07732,-0.47143 z" />
    <path
       style="fill:#00ff14;fill-opacity:1;fill-rule:nonzero;stroke:#464646;stroke-width:0.5;stroke-linecap:butt;stroke-linejoin:round;stroke-miterlimit:4;stroke-opacity:1;stroke-dasharray:none;stroke-dashoffset:0"
       id="path3110"
       d="m -9.794599,400.0806 c 0.07997,-0.0157 0.159048,-0.0369 0.23991,-0.0471 0.642363,-0.0806 1.32868,-0.0491 1.975803,-0.0485 0.780554,0.007 1.555965,-0.0651 2.327996,-0.17223 0.441545,-0.0406 0.876646,-0.16565 1.3220785,-0.17053 1.8719329,-0.0205 -0.9223265,0.1157 1.0470917,0.004 0.031943,-5e-5 0.03262,0.45169 6.776e-4,0.45174 l 0,0 c -0.1810176,0.0448 -0.3620353,0.0897 -0.5430529,0.13455 -0.1697629,0.0607 -0.3355436,0.13402 -0.5092885,0.18219 -0.4343114,0.12042 -0.8914504,0.12793 -1.3341124,0.1974 -0.802402,0.0904 -1.608448,0.16787 -2.417043,0.14933 -0.727631,-0.0159 -1.470379,-0.0273 -2.177919,-0.21318 -0.03306,-0.005 0.0348,-0.47238 0.06786,-0.46758 z" />
    <path
       style="fill:#00ff14;fill-opacity:1;fill-rule:nonzero;stroke:#464646;stroke-width:0.5;stroke-linecap:butt;stroke-linejoin:round;stroke-miterlimit:4;stroke-opacity:1;stroke-dasharray:none;stroke-dashoffset:0"
       id="path3112"
       d="m -7.065058,429.65763 c 0.0521,0.0605 0.111555,0.11549 0.156304,0.18167 0.216546,0.32023 0.397053,0.73991 0.448565,1.1234 0.04064,0.30252 -0.0055,0.68934 -0.029,0.99037 0.0075,0.0251 -0.347053,0.13082 -0.354531,0.10575 l 0,0 c -0.141049,-0.25816 -0.301007,-0.50685 -0.42303,-0.77453 -0.08937,-0.19603 -0.185062,-0.53024 -0.253599,-0.73874 -0.03123,-0.095 -0.06797,-0.18819 -0.09716,-0.28384 -0.02147,-0.0703 -0.03649,-0.1425 -0.05473,-0.21375 -0.0276,-0.0429 0.579588,-0.43327 0.607189,-0.39033 z" />
    <path
       style="fill:#00ff14;fill-opacity:1;fill-rule:nonzero;stroke:#464646;stroke-width:0.5;stroke-linecap:butt;stroke-linejoin:round;stroke-miterlimit:4;stroke-opacity:1;stroke-dasharray:none;stroke-dashoffset:0"
       id="path3114"
       d="m -9.594309,464.83691 c 0.528672,-0.27587 1.131939,-0.31664 1.716988,-0.3335 0.698601,0.0177 1.396032,0.0408 2.095037,0.0358 0.433012,-0.01 0.867411,-0.046 1.300794,-0.0378 0.399252,0.008 0.5863832,0.0385 0.9861204,0.0838 0.030056,10e-4 0.010211,0.42646 -0.019845,0.42506 l 0,0 c -0.4086745,0.1205 -0.6067744,0.1944 -1.0252014,0.25855 -0.444689,0.0682 -0.899996,0.069 -1.348278,0.0576 -0.689465,-0.0189 -1.376141,-0.0864 -2.065965,-0.0944 -0.52413,0.01 -1.042258,0.0614 -1.562931,0.11892 -0.03635,0.005 -0.113067,-0.50862 -0.07672,-0.51405 z" />
    <path
       style="fill:#00ff14;fill-opacity:1;fill-rule:nonzero;stroke:#464646;stroke-width:0.5;stroke-linecap:butt;stroke-linejoin:round;stroke-miterlimit:4;stroke-opacity:1;stroke-dasharray:none;stroke-dashoffset:0"
       id="path3116"
       d="m -9.783353,496.86108 c 0.627426,-0.17993 1.286031,-0.21974 1.933526,-0.27654 0.73692,-0.051 1.475638,-0.0546 2.213943,-0.0571 0.986911,0.002 1.9693415,-0.10063 2.9551497,-0.13291 0.9304284,0.0195 0.4626316,0.001 1.4033644,0.056 0.041812,0.003 -3.234e-4,0.59428 -0.042135,0.5913 l 0,0 c -0.9601631,0.17849 -0.4813742,0.10008 -1.4362421,0.23601 -0.2218806,0.0143 -0.4434254,0.0355 -0.6656417,0.0429 -0.7715563,0.0259 -1.5415973,-0.0544 -2.3123413,-0.0681 -0.723505,-0.0172 -1.446527,0.001 -2.168035,0.0613 -0.635771,0.0269 -1.283816,0.0808 -1.912562,-0.0439 -0.02893,-0.002 0.002,-0.41126 0.03097,-0.40907 z" />
    <path
       style="fill:#00ff14;fill-opacity:1;fill-rule:nonzero;stroke:#464646;stroke-width:0.5;stroke-linecap:butt;stroke-linejoin:round;stroke-miterlimit:4;stroke-opacity:1;stroke-dasharray:none;stroke-dashoffset:0"
       id="path3118"
       d="m -11.902089,529.1797 c 0.787618,-0.28786 1.63231,-0.35796 2.46233,-0.41757 0.645913,-0.0367 1.292969,-0.007 1.938435,0.0239 0.592495,0.0222 1.185396,-0.0262 1.777445,-0.0483 0.366534,0.007 0.525239,-0.003 0.891676,0.0562 0.152983,0.0247 0.301291,0.0742 0.454291,0.0988 0.149571,0.0241 0.301362,0.0314 0.4520429,0.0471 0.02633,0.004 -0.02571,0.37604 -0.05204,0.37236 l 0,0 c -0.1531969,0.0109 -0.3073709,0.0124 -0.4595899,0.0328 -0.160261,0.0215 -0.316203,0.069 -0.476124,0.0929 -0.393474,0.0589 -0.516456,0.0491 -0.907602,0.0568 -0.588555,-0.0252 -1.175094,-0.0821 -1.763627,-0.0989 -0.636584,0.0154 -1.267653,0.0993 -1.901365,0.15619 -0.804276,0.0708 -1.614794,0.18038 -2.422757,0.12831 -0.0354,-4.8e-4 -0.02851,-0.50107 0.0069,-0.50059 z" />
    <path
       style="fill:#00ff14;fill-opacity:1;fill-rule:nonzero;stroke:#464646;stroke-width:0.5;stroke-linecap:butt;stroke-linejoin:round;stroke-miterlimit:4;stroke-opacity:1;stroke-dasharray:none;stroke-dashoffset:0"
       id="path3126"
       d="m -10.698329,559.45319 c 0.093,-0.0268 0.184715,-0.0585 0.279001,-0.0804 0.289704,-0.0671 0.650393,-0.11843 0.939412,-0.15653 0.680638,-0.0897 1.36516,-0.15083 2.04762,-0.22472 0.775352,-0.0658 1.551408,-0.19233 2.332431,-0.1373 0.24226,0.0171 0.480968,0.0678 0.721451,0.1017 0.04259,0.002 0.01706,0.60407 -0.02552,0.60226 l 0,0 c -0.244388,0.0821 -0.484315,0.179 -0.733163,0.24643 -0.772166,0.20926 -1.572024,0.26139 -2.365734,0.32077 -1.077026,0.047 -2.173625,0.11507 -3.240178,-0.0801 -0.04187,-0.003 0.0028,-0.59526 0.04468,-0.5921 z" />
    <path
       style="fill:#00ff14;fill-opacity:1;fill-rule:nonzero;stroke:#464646;stroke-width:0.5;stroke-linecap:butt;stroke-linejoin:round;stroke-miterlimit:4;stroke-opacity:1;stroke-dasharray:none;stroke-dashoffset:0"
       id="path3128"
       d="m -10.258194,561.49226 c 0.777837,-0.13062 1.573021,-0.12088 2.359605,-0.12982 0.935712,0.0315 1.913248,0.0258 2.826612,0.26089 0.193106,0.0497 0.378985,0.12415 0.568478,0.18622 0.195154,0.039 0.390309,0.0781 0.585464,0.11707 0.034507,0.007 -0.067832,0.49523 -0.102339,0.488 l 0,0 c -0.206016,1.9e-4 -0.412032,3.8e-4 -0.618048,5.7e-4 -0.209113,0.0175 -0.41753,0.0487 -0.62734,0.0525 -0.304415,0.005 -0.853671,-0.0554 -1.158899,-0.0855 -0.633374,-0.0624 -0.454088,-0.0535 -1.080571,-0.0884 -0.17282,-0.01 -0.345768,-0.0168 -0.518652,-0.0252 -0.781797,-0.0309 -1.590681,-0.0132 -2.342947,-0.25502 -0.03687,-0.008 0.07177,-0.52907 0.108637,-0.52139 z" />
    <path
       style="fill:#00ff14;fill-opacity:1;fill-rule:nonzero;stroke:#464646;stroke-width:0.5;stroke-linecap:butt;stroke-linejoin:round;stroke-miterlimit:4;stroke-opacity:1;stroke-dasharray:none;stroke-dashoffset:0"
       id="path3130"
       d="m -11.347408,593.55905 c 1.267949,-0.42968 2.61904,-0.56118 3.943796,-0.70193 0.787042,-0.0665 1.574636,-0.13381 2.364744,-0.14935 0.208236,-0.004 0.417208,-0.0167 0.624827,-1.8e-4 0.18235,0.0145 0.35954,0.0687 0.5408469,0.093 0.156766,0.021 0.3150443,0.0285 0.4725665,0.0428 0.02786,10e-4 0.00738,0.39545 -0.020478,0.394 l 0,0 c -0.1601644,0.0422 -0.3221808,0.078 -0.4804933,0.12668 -0.1863921,0.0573 -0.3641641,0.14216 -0.5528931,0.19128 -0.206802,0.0538 -0.419564,0.0817 -0.630369,0.11668 -0.786394,0.13061 -1.579608,0.21181 -2.372001,0.29534 -1.291727,0.10251 -2.597164,0.20076 -3.891028,0.0828 -0.03473,-3e-5 -0.03425,-0.49117 4.82e-4,-0.49114 z" />
    <path
       style="fill:#00ff14;fill-opacity:1;fill-rule:nonzero;stroke:#464646;stroke-width:0.5;stroke-linecap:butt;stroke-linejoin:round;stroke-miterlimit:4;stroke-opacity:1;stroke-dasharray:none;stroke-dashoffset:0"
       id="path3132"
       d="m -8.591302,623.56954 c 0.730235,0.0706 1.460199,0.10091 2.193821,0.0969 0.727863,-0.007 1.454848,-0.0466 2.181915,-0.0783 0.170601,-0.007 0.3409799,-0.0263 0.5117267,-0.024 0.1604303,0.002 0.3199125,0.025 0.4798687,0.0375 0.1509854,0.0216 0.3019708,0.0432 0.4529562,0.0648 0.026986,3.7e-4 0.021854,0.38201 -0.00513,0.38165 l 0,0 c -0.1547872,0.0627 -0.3095744,0.12539 -0.4643616,0.18808 -0.1666205,0.0514 -0.3297222,0.11607 -0.4998616,0.15428 -0.1752362,0.0394 -0.3549084,0.0558 -0.5331684,0.0777 -0.75037,0.0922 -1.507327,0.098 -2.261918,0.067 -0.764061,-0.0607 -1.576105,-0.11032 -2.256167,-0.49874 -0.03302,-0.0142 0.167301,-0.48115 0.200321,-0.46698 z" />
  </g>
  <g
     inkscape:groupmode="layer"
     id="layer2"
     inkscape:label="hat"
     style="display:inline"
     transform="translate(0,-28.362183)">
    <g
       id="g4637"
       transform="translate(0.56303159,0.4428848)"
       inkscape:tile-cx="13.81216"
       inkscape:tile-cy="12.97386"
       inkscape:tile-w="21.663898"
       inkscape:tile-h="23.476829"
       inkscape:tile-x0="2.9802104"
       inkscape:tile-y0="1.2354455">
      <rect
         ry="0.03128048"
         rx="0.093000002"
         transform="matrix(0.78749624,-0.61631945,0.61631945,0.78749624,0,0)"
         y="27.795992"
         x="-16.475124"
         height="7.8612404"
         width="2.3361232"
         id="rect4635"
         style="fill:#ff5301;fill-opacity:1;fill-rule:nonzero;stroke:#e19c06;stroke-width:1;stroke-linecap:butt;stroke-linejoin:round;stroke-miterlimit:4;stroke-opacity:1;stroke-dasharray:none;stroke-dashoffset:0" />
      <path
         id="path4633"
         style="fill:#ff5301;fill-opacity:1;stroke:#ca3014;stroke-width:1.51114857;stroke-linecap:butt;stroke-linejoin:round;stroke-miterlimit:4;stroke-opacity:1;stroke-dashoffset:0"
         d="m 6.7485879,25.249617 c 3.7188481,-2.834269 11.3230471,-3.622638 16.9844531,-1.760872 0.232675,0.07652 0.460011,0.156954 0.681624,0.241166 0.221612,0.08421 -3.913105,-1.55072 -7.238639,-1.206482 M 31.467254,5.0133986 C 29.376292,5.3469671 27.605506,4.5539313 27.512093,3.2421024 m 9.231659,3.66919 C 36.426381,6.4056081 35.703788,5.3454809 35.087289,4.696036 37.187317,1.6710307 35.958953,0.93434716 35.130222,0.63816668 34.301491,0.34198619 32.412858,-0.01726428 31.387802,0.09507685 30.362745,0.20741817 29.21815,-0.46817891 26.873845,3.7106493 25.798228,3.9754933 24.662651,4.5147849 23.403187,5.429114 22.143723,6.3434434 22.068959,6.0562234 19.549486,8.8772722 17.030012,11.698322 12.589675,17.973682 10.420729,20.897108 c -2.1689469,2.923425 -5.1505314,5.381607 -6.0965706,7.978327 -0.9460392,2.59672 2.7867091,0.482931 6.3609886,-0.334284 3.57428,-0.817215 11.215443,-0.617503 14.084488,0.391289 2.869045,1.008792 2.967552,4.209874 5.182573,1.393212 2.215022,-2.816661 1.367015,-4.360439 2.03029,-6.155402 0.663274,-1.794964 1.432415,-3.338216 2.364468,-5.294594 0.932052,-1.956379 1.638963,-3.892219 2.09327,-5.607039 0.454307,-1.714822 0.751721,-3.8224442 0.719368,-4.6594279 -0.03235,-0.8369838 -0.04306,-0.671712 -0.115033,-0.9528132 -0.07197,-0.2811002 0.01655,-0.2393981 -0.300819,-0.7450835 z"
         sodipodi:nodetypes="cssccsccsscssszzzzsssssc"
         transform="matrix(0.77658355,-0.46991952,0.65910854,0.16506001,-18.068063,50.470892)" />
      <path
         sodipodi:type="arc"
         style="opacity:0.62671234;fill:#ffffff;fill-opacity:1;stroke:none"
         id="path2870"
         sodipodi:cx="17.053944"
         sodipodi:cy="8.9022522"
         sodipodi:rx="2.2787807"
         sodipodi:ry="1.1869249"
         d="m 19.332724,8.9022522 a 2.2787807,1.1869249 0 1 1 -4.557561,0 2.2787807,1.1869249 0 1 1 4.557561,0 z"
         transform="matrix(1.4364673,0.49802342,-0.35131565,1.6840493,-4.574061,14.29349)" />
      <path
         style="opacity:0.33219174;fill:#000000;fill-opacity:1;fill-rule:nonzero;stroke:none"
         d="m 5.2492809,35.929056 c 0.1650704,-0.380834 0.9582016,-0.313959 0.538693,-0.964777 -0.4195086,-0.650817 -2.6041738,-2.476957 -1.7259379,-3.38452 0.8782358,-0.907562 2.6404508,3.265378 3.1865791,3.496558 0.5461282,0.231182 0.013903,2.095575 0.5877007,2.411301 0.5737977,0.315726 -0.5350447,1.875431 -0.5992243,4.021717 -0.06418,2.146286 2.4650022,4.217142 1.2618281,5.537063 -1.2031741,1.319921 2.3203074,2.354766 1.7458164,2.849195 C 9.6535959,50.404352 6.9011529,52.56627 6.4131588,53.122183 5.9251646,53.678095 3.5017118,51.366416 4.8978129,49.892709 6.2939141,48.419002 3.772187,45.348619 4.1084502,42.727947 4.4468952,40.090271 6.9302139,38.232225 6.3267323,38.046507 5.7232507,37.860789 5.0842105,36.30989 5.2492809,35.929056 z"
         id="rect3647"
         sodipodi:nodetypes="czzzzzzzzzzzz" />
    </g>
    <use
       x="0"
       y="0"
       inkscape:tiled-clone-of="#g4637"
       xlink:href="#g4637"
       id="use2888"
       transform="translate(0,32)"
       width="32"
       height="1024" />
    <use
       x="0"
       y="0"
       inkscape:tiled-clone-of="#g4637"
       xlink:href="#g4637"
       transform="translate(0,64.984681)"
       id="use2890"
       width="32"
       height="1024" />
    <use
       x="0"
       y="0"
       inkscape:tiled-clone-of="#g4637"
       xlink:href="#g4637"
       transform="translate(0,95.969358)"
       id="use2892"
       width="32"
       height="1024" />
    <use
       x="0"
       y="0"
       inkscape:tiled-clone-of="#g4637"
       xlink:href="#g4637"
       transform="translate(0,127.9582)"
       id="use2894"
       width="32"
       height="1024" />
    <use
       x="0"
       y="0"
       inkscape:tiled-clone-of="#g4637"
       xlink:href="#g4637"
       transform="translate(0,159.99447)"
       id="use2896"
       width="32"
       height="1024" />
    <use
       x="0"
       y="0"
       inkscape:tiled-clone-of="#g4637"
       xlink:href="#g4637"
       transform="translate(0,191.98332)"
       id="use2898"
       width="32"
       height="1024" />
    <use
       x="0"
       y="0"
       inkscape:tiled-clone-of="#g4637"
       xlink:href="#g4637"
       transform="translate(0,225.01541)"
       id="use2900"
       width="32"
       height="1024" />
    <use
       x="0"
       y="0"
       inkscape:tiled-clone-of="#g4637"
       xlink:href="#g4637"
       transform="translate(0,255.95267)"
       id="use2902"
       width="32"
       height="1024" />
    <use
       x="0"
       y="0"
       inkscape:tiled-clone-of="#g4637"
       xlink:href="#g4637"
       transform="translate(0,287.98894)"
       id="use2904"
       width="32"
       height="1024" />
    <use
       x="0"
       y="0"
       inkscape:tiled-clone-of="#g4637"
       xlink:href="#g4637"
       transform="translate(0,319.97779)"
       id="use2906"
       width="32"
       height="1024" />
    <use
       x="0"
       y="0"
       inkscape:tiled-clone-of="#g4637"
       xlink:href="#g4637"
       transform="translate(0,352.0057)"
       id="use2908"
       width="32"
       height="1024" />
    <use
       x="0"
       y="0"
       inkscape:tiled-clone-of="#g4637"
       xlink:href="#g4637"
       transform="translate(0,384.99874)"
       id="use2910"
       width="32"
       height="1024" />
    <use
       x="0"
       y="0"
       inkscape:tiled-clone-of="#g4637"
       xlink:href="#g4637"
       transform="translate(0,415.98341)"
       id="use2912"
       width="32"
       height="1024" />
    <use
       x="0"
       y="0"
       inkscape:tiled-clone-of="#g4637"
       xlink:href="#g4637"
       transform="translate(0,447.97226)"
       id="use2914"
       width="32"
       height="1024" />
    <use
       x="0"
       y="0"
       inkscape:tiled-clone-of="#g4637"
       xlink:href="#g4637"
       transform="translate(0,480.00017)"
       id="use2916"
       width="32"
       height="1024" />
    <use
       x="0"
       y="0"
       inkscape:tiled-clone-of="#g4637"
       xlink:href="#g4637"
       transform="translate(0,509.98902)"
       id="use2918"
       width="32"
       height="1024" />
    <use
       x="0"
       y="0"
       inkscape:tiled-clone-of="#g4637"
       xlink:href="#g4637"
       transform="translate(0,542.95578)"
       id="use2920"
       width="32"
       height="1024" />
    <use
       x="0"
       y="0"
       inkscape:tiled-clone-of="#g4637"
       xlink:href="#g4637"
       transform="translate(0,575.95837)"
       id="use2922"
       width="32"
       height="1024" />
  </g>
</svg>
