<?xml version="1.0" encoding="UTF-8" standalone="no"?>
<!-- Created with Inkscape (http://www.inkscape.org/) -->

<svg
   xmlns:dc="http://purl.org/dc/elements/1.1/"
   xmlns:cc="http://creativecommons.org/ns#"
   xmlns:rdf="http://www.w3.org/1999/02/22-rdf-syntax-ns#"
   xmlns:svg="http://www.w3.org/2000/svg"
   xmlns="http://www.w3.org/2000/svg"
   xmlns:xlink="http://www.w3.org/1999/xlink"
   xmlns:sodipodi="http://sodipodi.sourceforge.net/DTD/sodipodi-0.dtd"
   xmlns:inkscape="http://www.inkscape.org/namespaces/inkscape"
   width="32"
   height="1024"
   id="svg2"
   sodipodi:version="0.32"
   inkscape:version="0.92.4 5da689c313, 2019-01-14"
   sodipodi:docname="Sleepwalker.svg"
   inkscape:output_extension="org.inkscape.output.svg.inkscape"
   inkscape:export-filename="Sleepwalker.png"
   inkscape:export-xdpi="90"
   inkscape:export-ydpi="90"
   version="1.1">
  <title
     id="title53563">sleep walker</title>
  <defs
     id="defs4">
    <inkscape:path-effect
       effect="spiro"
       id="path-effect3152"
       is_visible="true" />
    <inkscape:path-effect
       effect="spiro"
       id="path-effect3148"
       is_visible="true" />
    <filter
       inkscape:collect="always"
       id="filter4140">
      <feGaussianBlur
         inkscape:collect="always"
         stdDeviation="0.23186517"
         id="feGaussianBlur4142" />
    </filter>
  </defs>
  <sodipodi:namedview
     id="base"
     pagecolor="#ffffff"
     bordercolor="#666666"
     borderopacity="1.0"
     gridtolerance="10000"
     guidetolerance="10"
     objecttolerance="10"
     inkscape:pageopacity="0.0"
     inkscape:pageshadow="2"
     inkscape:zoom="7.9925262"
     inkscape:cx="19.568446"
     inkscape:cy="651.05899"
     inkscape:document-units="px"
     inkscape:current-layer="layer1"
     showgrid="false"
     inkscape:window-width="1280"
     inkscape:window-height="779"
     inkscape:window-x="0"
     inkscape:window-y="21"
     inkscape:window-maximized="0"
     inkscape:snap-nodes="false"
     inkscape:snap-global="true"
     inkscape:object-paths="false"
     inkscape:snap-bbox="false"
     inkscape:snap-page="true" />
  <metadata
     id="metadata7">
    <rdf:RDF>
      <cc:Work
         rdf:about="">
        <dc:format>image/svg+xml</dc:format>
        <dc:type
           rdf:resource="http://purl.org/dc/dcmitype/StillImage" />
        <dc:title>sleep walker</dc:title>
        <dc:creator>
          <cc:Agent>
            <dc:title>Roman V. Prikhodchenko (chujoii@gmail.com)</dc:title>
          </cc:Agent>
        </dc:creator>
        <dc:rights>
          <cc:Agent>
            <dc:title>Roman V. Prikhodchenko (chujoii@gmail.com)</dc:title>
          </cc:Agent>
        </dc:rights>
        <dc:subject>
          <rdf:Bag>
            <rdf:li>hedgewars hat sleep walker</rdf:li>
          </rdf:Bag>
        </dc:subject>
        <cc:license
           rdf:resource="http://creativecommons.org/licenses/by-sa/4.0/" />
      </cc:Work>
      <cc:License
         rdf:about="http://creativecommons.org/licenses/by-sa/4.0/">
        <cc:permits
           rdf:resource="http://creativecommons.org/ns#Reproduction" />
        <cc:permits
           rdf:resource="http://creativecommons.org/ns#Distribution" />
        <cc:requires
           rdf:resource="http://creativecommons.org/ns#Notice" />
        <cc:requires
           rdf:resource="http://creativecommons.org/ns#Attribution" />
        <cc:permits
           rdf:resource="http://creativecommons.org/ns#DerivativeWorks" />
        <cc:requires
           rdf:resource="http://creativecommons.org/ns#ShareAlike" />
      </cc:License>
    </rdf:RDF>
  </metadata>
  <g
     inkscape:label="Layer 1"
     inkscape:groupmode="layer"
     id="layer1"
     style="display:none"
     transform="translate(0,-28.362183)"
     sodipodi:insensitive="true">
    <path
       style="fill:none;stroke:#258ff0;stroke-width:0.5;stroke-linejoin:round;stroke-miterlimit:10.43299961;stroke-opacity:0;stroke-dasharray:none;stroke-dashoffset:0"
       d="m 355.21392,58.741246 3.5393,3.99458"
       id="path3833" />
    <path
       style="fill:#00ff14;fill-opacity:1;fill-rule:nonzero;stroke:#464646;stroke-width:0.5;stroke-linecap:butt;stroke-linejoin:round;stroke-miterlimit:4;stroke-opacity:1;stroke-dasharray:none;stroke-dashoffset:0"
       id="path3086"
       d="m -6.431788,112.02831 c 0.06964,0.35491 0.02699,-0.002 -0.0338,0.44752 -0.01127,0.0833 -4.32e-4,0.16812 -6.48e-4,0.25218 0.0037,0.0132 -0.183032,0.0659 -0.186759,0.0527 l 0,0 c -0.02797,-0.0703 -0.04036,-0.14907 -0.0839,-0.21097 -0.334516,-0.47554 -0.06414,0.11051 -0.241626,-0.31511 -0.016,-0.0387 0.530726,-0.26498 0.546729,-0.22632 z" />
    <path
       style="fill:#00ff14;fill-opacity:1;fill-rule:nonzero;stroke:#464646;stroke-width:0.5;stroke-linecap:butt;stroke-linejoin:round;stroke-miterlimit:4;stroke-opacity:1;stroke-dasharray:none;stroke-dashoffset:0"
       id="path3090"
       d="m -9.716695,81.439326 c 0.733161,-0.275885 1.561693,-0.27371 2.335584,-0.317386 0.769061,-0.02593 1.532627,-0.112922 2.294873,-0.212661 0.195255,-0.02555 0.389478,-0.06105 0.585801,-0.07636 0.192289,-0.01499 0.385627,-0.0096 0.57844,-0.01443 0.187969,-8.65e-4 0.375938,-0.0017 0.563907,-0.0026 0.033632,-0.0021 0.063438,0.473524 0.029806,0.475632 l 0,0 c -0.1876211,0.08474 -0.3752422,0.169488 -0.5628634,0.254231 -0.1992236,0.07469 -0.3930856,0.165641 -0.5976696,0.224066 -0.20252,0.05784 -0.411594,0.09082 -0.619647,0.123575 -0.783553,0.123372 -1.581564,0.127333 -2.372442,0.12034 -0.454067,-0.01065 -0.908808,-0.02001 -1.363036,-0.01933 -0.166562,2.51e-4 -0.472476,0.01323 -0.647552,0.0071 -0.07319,-0.0026 -0.145943,-0.01232 -0.218914,-0.01848 -0.03844,4.44e-4 -0.04473,-0.543226 -0.0063,-0.54367 z" />
    <path
       style="fill:#00ff14;fill-opacity:1;fill-rule:nonzero;stroke:#464646;stroke-width:0.5;stroke-linecap:butt;stroke-linejoin:round;stroke-miterlimit:4;stroke-opacity:1;stroke-dasharray:none;stroke-dashoffset:0"
       id="path3092"
       d="m -10.433872,48.527731 c 0.488798,-0.378729 1.114304,-0.433161 1.710207,-0.462485 0.876878,0.0063 1.752003,0.0149 2.628145,-0.02983 0.325374,-0.01895 0.648326,-0.06999 0.973677,-0.08923 0.154516,-0.0091 0.310604,-0.0308 0.464209,-0.01172 0.15228,0.01891 0.295478,0.08294 0.443216,0.124417 0.02662,-7.87e-4 0.03776,0.375692 0.01114,0.37648 l 0,0 c -0.151531,0.09742 -0.290202,0.218585 -0.454594,0.292254 -0.441563,0.197879 -1.053838,0.193506 -1.527015,0.23098 -0.429963,0.0083 -0.582809,0.01825 -1.009024,-9.05e-4 -0.536258,-0.02409 -1.0697,-0.09523 -1.606484,-0.109978 -0.247254,0.0037 -0.371095,-7.43e-4 -0.614105,0.02655 -0.292921,0.0329 -0.575577,0.116702 -0.863626,0.175295 -0.0369,0.01101 -0.192643,-0.510818 -0.155744,-0.521831 z" />
    <path
       style="fill:#00ff14;fill-opacity:1;fill-rule:nonzero;stroke:#464646;stroke-width:0.5;stroke-linecap:butt;stroke-linejoin:round;stroke-miterlimit:4;stroke-opacity:1;stroke-dasharray:none;stroke-dashoffset:0"
       id="path3094"
       d="m -9.390582,145.62156 c 0.604661,-0.18352 1.242397,-0.21462 1.868035,-0.27247 0.673854,-0.0452 1.34769,-0.0914 2.023326,-0.0897 0.360725,0.0198 0.733142,0.005 1.089237,0.0793 0.07945,0.0165 0.156315,0.0437 0.234472,0.0655 0.3684348,0.14653 0.171259,0.11491 0.5943616,0.0751 0.019299,0.002 -0.0023,0.27446 -0.021599,0.27293 l 0,0 c -0.4442116,0.008 -0.2301715,-0.0326 -0.6425596,0.11941 -0.08609,0.0174 -0.171197,0.0407 -0.258272,0.0523 -0.348314,0.0462 -0.708226,-0.001 -1.055901,0.0612 -0.671974,0.0708 -1.344709,0.1332 -2.018881,0.17945 -0.611005,0.0269 -1.226029,0.08 -1.836349,0.0164 -0.03955,-0.002 -0.01542,-0.56104 0.02413,-0.55933 z" />
    <path
       style="fill:#00ff14;fill-opacity:1;fill-rule:nonzero;stroke:#464646;stroke-width:0.5;stroke-linecap:butt;stroke-linejoin:round;stroke-miterlimit:4;stroke-opacity:1;stroke-dasharray:none;stroke-dashoffset:0"
       id="path3096"
       d="m -10.769221,176.51105 c 0.823313,-0.31045 1.713571,-0.37544 2.583435,-0.44441 0.824191,-0.0515 1.649951,-0.0524 2.47525,-0.0644 0.980274,-0.007 1.9536209,-0.14952 2.9323142,-0.18368 0.2564428,-0.009 0.5131906,-0.003 0.769786,-0.004 0.2531467,0.0302 0.5062934,0.0604 0.7594401,0.0906 0.045063,0.003 -9.091e-4,0.64054 -0.045972,0.63729 l 0,0 c -0.2622793,0.0632 -0.5245586,0.12633 -0.7868379,0.18949 -0.2625711,0.027 -0.5242382,0.0651 -0.7877132,0.081 -0.9785656,0.0592 -1.9561552,-0.0522 -2.9328432,-0.0899 -0.813036,-0.0143 -1.621877,0.0459 -2.428904,0.14552 -0.83759,0.0716 -1.680416,0.15331 -2.521585,0.11102 -0.03313,0.001 -0.0495,-0.46729 -0.01637,-0.46845 z" />
    <path
       style="fill:#00ff14;fill-opacity:1;fill-rule:nonzero;stroke:#464646;stroke-width:0.5;stroke-linecap:butt;stroke-linejoin:round;stroke-miterlimit:4;stroke-opacity:1;stroke-dasharray:none;stroke-dashoffset:0"
       id="path3098"
       d="m -10.554447,207.91849 c 0.711269,0.0189 1.421172,0.0802 2.1319,0.11765 0.565164,0.0227 1.130179,-7e-5 1.694413,-0.0317 0.502272,-0.026 1.005098,-0.006 1.507241,0.0116 0.369172,0.0229 0.740101,6.9e-4 1.109268,0.0192 0.08443,0.004 0.1703726,0.003 0.2526683,0.0219 0.080723,0.019 0.154129,0.0612 0.2311935,0.0918 0.072787,0.0324 0.1455734,0.0648 0.2183601,0.0972 0.013361,0.001 -0.00315,0.19011 -0.016515,0.18894 l 0,0 c -0.080368,0.0394 -0.1607356,0.0789 -0.2411034,0.11829 -0.085953,0.0362 -0.1677857,0.0845 -0.2578597,0.10868 -0.086551,0.0233 -0.1775238,0.0259 -0.2669128,0.0325 -0.379495,0.0277 -0.762367,-0.004 -1.141419,-0.02 -0.479363,-0.0328 -0.959714,-0.0817 -1.440543,-0.0478 -0.587401,0.0407 -1.170729,0.14755 -1.7615,0.13769 -0.742114,-0.011 -1.514011,-0.0614 -2.190208,-0.39608 -0.03181,-0.0121 0.139209,-0.46192 0.171017,-0.44983 z" />
    <path
       style="fill:#00ff14;fill-opacity:1;fill-rule:nonzero;stroke:#464646;stroke-width:0.5;stroke-linecap:butt;stroke-linejoin:round;stroke-miterlimit:4;stroke-opacity:1;stroke-dasharray:none;stroke-dashoffset:0"
       id="path3100"
       d="m -13.078396,242.02084 c 0.732491,-0.0853 1.473998,-0.03 2.208792,-0.003 0.866561,0.068 1.734472,0.0963 2.603389,0.0916 0.72888,0.005 1.458711,-0.0989 2.187722,-0.0481 0.139313,0.01 0.277404,0.0325 0.416106,0.0488 0.513404,0.0797 0.259296,0.052 0.762097,0.0852 0.02178,0.002 -0.004,0.30984 -0.02574,0.30802 l 0,0 c -0.514921,0.0849 -0.253838,0.0307 -0.782613,0.16576 -0.14267,0.0307 -0.284123,0.0677 -0.42801,0.0921 -0.734001,0.12433 -1.483692,0.10209 -2.224652,0.12477 -0.884423,0.003 -1.768394,-0.0185 -2.651381,-0.0708 -0.726178,-0.0637 -1.470955,-0.0947 -2.16949,-0.31855 -0.03362,-0.007 0.07016,-0.48275 0.103779,-0.47541 z" />
    <path
       style="fill:#00ff14;fill-opacity:1;fill-rule:nonzero;stroke:#464646;stroke-width:0.5;stroke-linecap:butt;stroke-linejoin:round;stroke-miterlimit:4;stroke-opacity:1;stroke-dasharray:none;stroke-dashoffset:0"
       id="path3102"
       d="m -8.800561,273.44566 c 0.326074,-0.21876 0.773052,-0.26241 1.086529,0.0131 0.06862,0.0603 0.116277,0.14093 0.174415,0.2114 0.0695,0.20578 0.139271,0.31475 0.08273,0.54019 -0.02499,0.0996 -0.09212,0.18374 -0.1338,0.27763 -0.03952,0.089 -0.0731,0.18059 -0.109648,0.27089 -1.44e-4,0.0154 -0.217959,0.0134 -0.217815,-0.002 l 0,0 c -0.0084,-0.0835 -0.0041,-0.16929 -0.02514,-0.25053 -0.01842,-0.071 -0.06839,-0.13045 -0.09176,-0.19996 -0.01277,-0.038 -0.03123,-0.19389 -0.03811,-0.24776 -0.0052,-0.0222 -0.0036,-0.0471 -0.01554,-0.0665 -0.08669,-0.14093 -0.431302,-0.0144 -0.557402,-0.009 -0.03803,0.0109 -0.192493,-0.52694 -0.15446,-0.53786 z" />
    <path
       style="fill:#00ff14;fill-opacity:1;fill-rule:nonzero;stroke:#464646;stroke-width:0.5;stroke-linecap:butt;stroke-linejoin:round;stroke-miterlimit:4;stroke-opacity:1;stroke-dasharray:none;stroke-dashoffset:0"
       id="path3104"
       d="m -12.020053,305.56567 c 0.366077,0.0244 0.72982,0.0808 1.096494,0.0976 0.316158,0.0145 0.394381,0.003 0.712056,-0.0117 0.768735,-0.053 1.524028,-0.2131 2.284912,-0.32659 0.828928,-0.1331 1.666379,-0.20278 2.50072,-0.29275 0.572105,-0.0967 1.149011,-0.0841 1.7256944,-0.0592 0.026172,-6.3e-4 0.035117,0.36948 0.00895,0.37012 l 0,0 c -0.5683444,0.22812 -1.1422904,0.43286 -1.7611874,0.4648 -0.824654,0.0913 -1.65118,0.16532 -2.473612,0.27628 -0.786192,0.12119 -1.571592,0.26925 -2.367678,0.30378 -0.654831,-0.006 -1.333464,-0.0391 -1.917947,-0.36815 -0.03212,-0.0136 0.159487,-0.46775 0.191603,-0.4542 z" />
    <path
       style="fill:#00ff14;fill-opacity:1;fill-rule:nonzero;stroke:#464646;stroke-width:0.5;stroke-linecap:butt;stroke-linejoin:round;stroke-miterlimit:4;stroke-opacity:1;stroke-dasharray:none;stroke-dashoffset:0"
       id="path3106"
       d="m -10.975856,335.04318 c 0.628354,-0.0827 1.266003,-0.0166 1.894492,0.0355 0.588053,0.0732 1.178821,0.0496 1.76867,0.0266 0.705754,-0.0553 1.407411,-0.1462 2.11307,-0.20165 0.450764,-0.009 0.957483,-0.0971 1.4004681,0.0279 0.059956,0.0169 0.1160036,0.0454 0.1740054,0.0682 0.1772966,0.15806 0.083519,0.0951 0.277154,0.19504 0.00849,0.002 -0.020471,0.12215 -0.028963,0.1201 l 0,0 c -0.2196871,0.0446 -0.1112753,0.006 -0.3224055,0.12379 -0.497716,0.14903 -1.02363,0.16483 -1.536459,0.22997 -0.713793,0.0776 -1.429937,0.14684 -2.148652,0.14933 -0.61056,0.0131 -1.221446,-0.002 -1.831635,-0.0248 -0.621211,-0.0386 -1.251271,-0.0798 -1.851819,-0.25381 -0.03508,-0.007 0.05699,-0.50263 0.09207,-0.49611 z" />
    <path
       style="fill:#00ff14;fill-opacity:1;fill-rule:nonzero;stroke:#464646;stroke-width:0.5;stroke-linecap:butt;stroke-linejoin:round;stroke-miterlimit:4;stroke-opacity:1;stroke-dasharray:none;stroke-dashoffset:0"
       id="path3108"
       d="m -12.993886,368.42727 c 0.08178,-0.0105 0.163103,-0.0256 0.245345,-0.0314 0.399236,-0.0284 0.802326,0.005 1.201117,0.022 0.60286,0.0261 0.402052,0.0181 1.020126,0.0347 1.090404,0.0349 2.179489,-0.051 3.266775,-0.12058 0.174604,-0.0138 0.349089,-0.0293 0.523812,-0.0416 0.176662,-0.0124 0.353203,-0.0315 0.530297,-0.0325 0.404164,-0.002 0.710255,0.0456 1.112064,0.0918 0.03367,0.002 0.0098,0.47785 -0.02385,0.47616 l 0,0 c -0.420309,0.12215 -0.704111,0.21869 -1.133865,0.29029 -0.175722,0.0293 -0.353929,0.041 -0.531125,0.0594 -0.175669,0.0182 -0.351624,0.0335 -0.527436,0.0503 -1.121575,0.11431 -2.249213,0.19709 -3.376301,0.10744 -0.803535,-0.0805 -1.613691,-0.18255 -2.384276,-0.4345 -0.03334,-0.005 0.04398,-0.4769 0.07732,-0.47143 z" />
    <path
       style="fill:#00ff14;fill-opacity:1;fill-rule:nonzero;stroke:#464646;stroke-width:0.5;stroke-linecap:butt;stroke-linejoin:round;stroke-miterlimit:4;stroke-opacity:1;stroke-dasharray:none;stroke-dashoffset:0"
       id="path3110"
       d="m -9.794599,400.0806 c 0.07997,-0.0157 0.159048,-0.0369 0.23991,-0.0471 0.642363,-0.0806 1.32868,-0.0491 1.975803,-0.0485 0.780554,0.007 1.555965,-0.0651 2.327996,-0.17223 0.441545,-0.0406 0.876646,-0.16565 1.3220785,-0.17053 1.8719329,-0.0205 -0.9223265,0.1157 1.0470917,0.004 0.031943,-5e-5 0.03262,0.45169 6.776e-4,0.45174 l 0,0 c -0.1810176,0.0448 -0.3620353,0.0897 -0.5430529,0.13455 -0.1697629,0.0607 -0.3355436,0.13402 -0.5092885,0.18219 -0.4343114,0.12042 -0.8914504,0.12793 -1.3341124,0.1974 -0.802402,0.0904 -1.608448,0.16787 -2.417043,0.14933 -0.727631,-0.0159 -1.470379,-0.0273 -2.177919,-0.21318 -0.03306,-0.005 0.0348,-0.47238 0.06786,-0.46758 z" />
    <path
       style="fill:#00ff14;fill-opacity:1;fill-rule:nonzero;stroke:#464646;stroke-width:0.5;stroke-linecap:butt;stroke-linejoin:round;stroke-miterlimit:4;stroke-opacity:1;stroke-dasharray:none;stroke-dashoffset:0"
       id="path3112"
       d="m -7.065058,429.65763 c 0.0521,0.0605 0.111555,0.11549 0.156304,0.18167 0.216546,0.32023 0.397053,0.73991 0.448565,1.1234 0.04064,0.30252 -0.0055,0.68934 -0.029,0.99037 0.0075,0.0251 -0.347053,0.13082 -0.354531,0.10575 l 0,0 c -0.141049,-0.25816 -0.301007,-0.50685 -0.42303,-0.77453 -0.08937,-0.19603 -0.185062,-0.53024 -0.253599,-0.73874 -0.03123,-0.095 -0.06797,-0.18819 -0.09716,-0.28384 -0.02147,-0.0703 -0.03649,-0.1425 -0.05473,-0.21375 -0.0276,-0.0429 0.579588,-0.43327 0.607189,-0.39033 z" />
    <path
       style="fill:#00ff14;fill-opacity:1;fill-rule:nonzero;stroke:#464646;stroke-width:0.5;stroke-linecap:butt;stroke-linejoin:round;stroke-miterlimit:4;stroke-opacity:1;stroke-dasharray:none;stroke-dashoffset:0"
       id="path3114"
       d="m -9.594309,464.83691 c 0.528672,-0.27587 1.131939,-0.31664 1.716988,-0.3335 0.698601,0.0177 1.396032,0.0408 2.095037,0.0358 0.433012,-0.01 0.867411,-0.046 1.300794,-0.0378 0.399252,0.008 0.5863832,0.0385 0.9861204,0.0838 0.030056,10e-4 0.010211,0.42646 -0.019845,0.42506 l 0,0 c -0.4086745,0.1205 -0.6067744,0.1944 -1.0252014,0.25855 -0.444689,0.0682 -0.899996,0.069 -1.348278,0.0576 -0.689465,-0.0189 -1.376141,-0.0864 -2.065965,-0.0944 -0.52413,0.01 -1.042258,0.0614 -1.562931,0.11892 -0.03635,0.005 -0.113067,-0.50862 -0.07672,-0.51405 z" />
    <path
       style="fill:#00ff14;fill-opacity:1;fill-rule:nonzero;stroke:#464646;stroke-width:0.5;stroke-linecap:butt;stroke-linejoin:round;stroke-miterlimit:4;stroke-opacity:1;stroke-dasharray:none;stroke-dashoffset:0"
       id="path3116"
       d="m -9.783353,496.86108 c 0.627426,-0.17993 1.286031,-0.21974 1.933526,-0.27654 0.73692,-0.051 1.475638,-0.0546 2.213943,-0.0571 0.986911,0.002 1.9693415,-0.10063 2.9551497,-0.13291 0.9304284,0.0195 0.4626316,0.001 1.4033644,0.056 0.041812,0.003 -3.234e-4,0.59428 -0.042135,0.5913 l 0,0 c -0.9601631,0.17849 -0.4813742,0.10008 -1.4362421,0.23601 -0.2218806,0.0143 -0.4434254,0.0355 -0.6656417,0.0429 -0.7715563,0.0259 -1.5415973,-0.0544 -2.3123413,-0.0681 -0.723505,-0.0172 -1.446527,0.001 -2.168035,0.0613 -0.635771,0.0269 -1.283816,0.0808 -1.912562,-0.0439 -0.02893,-0.002 0.002,-0.41126 0.03097,-0.40907 z" />
    <path
       style="fill:#00ff14;fill-opacity:1;fill-rule:nonzero;stroke:#464646;stroke-width:0.5;stroke-linecap:butt;stroke-linejoin:round;stroke-miterlimit:4;stroke-opacity:1;stroke-dasharray:none;stroke-dashoffset:0"
       id="path3118"
       d="m -11.902089,529.1797 c 0.787618,-0.28786 1.63231,-0.35796 2.46233,-0.41757 0.645913,-0.0367 1.292969,-0.007 1.938435,0.0239 0.592495,0.0222 1.185396,-0.0262 1.777445,-0.0483 0.366534,0.007 0.525239,-0.003 0.891676,0.0562 0.152983,0.0247 0.301291,0.0742 0.454291,0.0988 0.149571,0.0241 0.301362,0.0314 0.4520429,0.0471 0.02633,0.004 -0.02571,0.37604 -0.05204,0.37236 l 0,0 c -0.1531969,0.0109 -0.3073709,0.0124 -0.4595899,0.0328 -0.160261,0.0215 -0.316203,0.069 -0.476124,0.0929 -0.393474,0.0589 -0.516456,0.0491 -0.907602,0.0568 -0.588555,-0.0252 -1.175094,-0.0821 -1.763627,-0.0989 -0.636584,0.0154 -1.267653,0.0993 -1.901365,0.15619 -0.804276,0.0708 -1.614794,0.18038 -2.422757,0.12831 -0.0354,-4.8e-4 -0.02851,-0.50107 0.0069,-0.50059 z" />
    <path
       style="fill:#00ff14;fill-opacity:1;fill-rule:nonzero;stroke:#464646;stroke-width:0.5;stroke-linecap:butt;stroke-linejoin:round;stroke-miterlimit:4;stroke-opacity:1;stroke-dasharray:none;stroke-dashoffset:0"
       id="path3126"
       d="m -10.698329,559.45319 c 0.093,-0.0268 0.184715,-0.0585 0.279001,-0.0804 0.289704,-0.0671 0.650393,-0.11843 0.939412,-0.15653 0.680638,-0.0897 1.36516,-0.15083 2.04762,-0.22472 0.775352,-0.0658 1.551408,-0.19233 2.332431,-0.1373 0.24226,0.0171 0.480968,0.0678 0.721451,0.1017 0.04259,0.002 0.01706,0.60407 -0.02552,0.60226 l 0,0 c -0.244388,0.0821 -0.484315,0.179 -0.733163,0.24643 -0.772166,0.20926 -1.572024,0.26139 -2.365734,0.32077 -1.077026,0.047 -2.173625,0.11507 -3.240178,-0.0801 -0.04187,-0.003 0.0028,-0.59526 0.04468,-0.5921 z" />
    <path
       style="fill:#00ff14;fill-opacity:1;fill-rule:nonzero;stroke:#464646;stroke-width:0.5;stroke-linecap:butt;stroke-linejoin:round;stroke-miterlimit:4;stroke-opacity:1;stroke-dasharray:none;stroke-dashoffset:0"
       id="path3128"
       d="m -10.258194,561.49226 c 0.777837,-0.13062 1.573021,-0.12088 2.359605,-0.12982 0.935712,0.0315 1.913248,0.0258 2.826612,0.26089 0.193106,0.0497 0.378985,0.12415 0.568478,0.18622 0.195154,0.039 0.390309,0.0781 0.585464,0.11707 0.034507,0.007 -0.067832,0.49523 -0.102339,0.488 l 0,0 c -0.206016,1.9e-4 -0.412032,3.8e-4 -0.618048,5.7e-4 -0.209113,0.0175 -0.41753,0.0487 -0.62734,0.0525 -0.304415,0.005 -0.853671,-0.0554 -1.158899,-0.0855 -0.633374,-0.0624 -0.454088,-0.0535 -1.080571,-0.0884 -0.17282,-0.01 -0.345768,-0.0168 -0.518652,-0.0252 -0.781797,-0.0309 -1.590681,-0.0132 -2.342947,-0.25502 -0.03687,-0.008 0.07177,-0.52907 0.108637,-0.52139 z" />
    <path
       style="fill:#00ff14;fill-opacity:1;fill-rule:nonzero;stroke:#464646;stroke-width:0.5;stroke-linecap:butt;stroke-linejoin:round;stroke-miterlimit:4;stroke-opacity:1;stroke-dasharray:none;stroke-dashoffset:0"
       id="path3130"
       d="m -11.347408,593.55905 c 1.267949,-0.42968 2.61904,-0.56118 3.943796,-0.70193 0.787042,-0.0665 1.574636,-0.13381 2.364744,-0.14935 0.208236,-0.004 0.417208,-0.0167 0.624827,-1.8e-4 0.18235,0.0145 0.35954,0.0687 0.5408469,0.093 0.156766,0.021 0.3150443,0.0285 0.4725665,0.0428 0.02786,10e-4 0.00738,0.39545 -0.020478,0.394 l 0,0 c -0.1601644,0.0422 -0.3221808,0.078 -0.4804933,0.12668 -0.1863921,0.0573 -0.3641641,0.14216 -0.5528931,0.19128 -0.206802,0.0538 -0.419564,0.0817 -0.630369,0.11668 -0.786394,0.13061 -1.579608,0.21181 -2.372001,0.29534 -1.291727,0.10251 -2.597164,0.20076 -3.891028,0.0828 -0.03473,-3e-5 -0.03425,-0.49117 4.82e-4,-0.49114 z" />
    <path
       style="fill:#00ff14;fill-opacity:1;fill-rule:nonzero;stroke:#464646;stroke-width:0.5;stroke-linecap:butt;stroke-linejoin:round;stroke-miterlimit:4;stroke-opacity:1;stroke-dasharray:none;stroke-dashoffset:0"
       id="path3132"
       d="m -8.591302,623.56954 c 0.730235,0.0706 1.460199,0.10091 2.193821,0.0969 0.727863,-0.007 1.454848,-0.0466 2.181915,-0.0783 0.170601,-0.007 0.3409799,-0.0263 0.5117267,-0.024 0.1604303,0.002 0.3199125,0.025 0.4798687,0.0375 0.1509854,0.0216 0.3019708,0.0432 0.4529562,0.0648 0.026986,3.7e-4 0.021854,0.38201 -0.00513,0.38165 l 0,0 c -0.1547872,0.0627 -0.3095744,0.12539 -0.4643616,0.18808 -0.1666205,0.0514 -0.3297222,0.11607 -0.4998616,0.15428 -0.1752362,0.0394 -0.3549084,0.0558 -0.5331684,0.0777 -0.75037,0.0922 -1.507327,0.098 -2.261918,0.067 -0.764061,-0.0607 -1.576105,-0.11032 -2.256167,-0.49874 -0.03302,-0.0142 0.167301,-0.48115 0.200321,-0.46698 z" />
  </g>
  <g
     inkscape:groupmode="layer"
     id="layer2"
     inkscape:label="hat"
     style="display:inline"
     transform="translate(0,-28.362183)"
     sodipodi:insensitive="true">
    <g
       id="g3926"
       inkscape:tile-cx="19.208056"
       inkscape:tile-cy="21.976933"
       inkscape:tile-w="16.625632"
       inkscape:tile-h="15.539236"
       inkscape:tile-x0="10.89524"
       inkscape:tile-y0="13.953539"
       transform="translate(0,0.0308)">
      <path
         sodipodi:nodetypes="czczc"
         id="path2933-4"
         d="m 18.759578,50.28572 c 0,0 2.83408,-1.416905 2.50386,-2.135662 -0.33021,-0.718757 -3.22291,0.44478 -3.22291,0.44478 0,0 2.88818,-1.496357 2.45892,-2.155749 -0.42926,-0.659391 -3.28071,0.626136 -3.28071,0.626136"
         style="fill:#700000;fill-opacity:0;stroke:#a10e71;stroke-width:1;stroke-opacity:1" />
      <use
         height="1052.3622"
         width="744.09448"
         transform="translate(4.2464729,-1.5943438)"
         id="use3729-01"
         xlink:href="#path2933-4"
         y="0"
         x="0" />
      <path
         transform="matrix(1.201662,0,0,1.0751837,-6.3604726,-560.32283)"
         d="m 28.195403,567.27802 a 6.9177656,6.7797933 0 1 1 -13.835531,0 6.9177656,6.7797933 0 1 1 13.835531,0 z"
         sodipodi:ry="6.7797933"
         sodipodi:rx="6.9177656"
         sodipodi:cy="567.27802"
         sodipodi:cx="21.277637"
         id="path3134"
         style="fill:#f49ee9;fill-opacity:1;fill-rule:nonzero;stroke:none;filter:url(#filter4140)"
         sodipodi:type="arc" />
      <path
         sodipodi:nodetypes="czzzsz"
         id="path3731"
         d="m 25.723288,51.020956 c 0.47017,0.731622 0.0417,1.751826 -3.00076,3.150972 -3.04247,1.399146 -0.5276,3.484057 -2.19277,3.672301 -1.66518,0.188244 -0.52752,-2.167715 -2.11644,-1.811138 -1.58891,0.356577 -4.59898,-1.265929 2.77847,-4.400385 1.64616,-0.699405 4.05106,-1.359364 4.5315,-0.61175 z"
         style="fill:#ffffff;fill-opacity:1;stroke:#a10e71;stroke-width:1.01510537;stroke-linecap:butt;stroke-linejoin:round;stroke-miterlimit:10;stroke-opacity:1;stroke-dashoffset:0" />
      <path
         inkscape:transform-center-x="-0.015941867"
         inkscape:transform-center-y="-0.46846867"
         inkscape:original-d="m 22.278376,46.997248 2.654511,-1.137684"
         inkscape:path-effect="#path-effect3152"
         id="path3150"
         d="m 22.278376,46.997248 2.654511,-1.137684"
         style="fill:#700000;fill-opacity:0;fill-rule:nonzero;stroke:#a10e71;display:inline" />
      <path
         sodipodi:nodetypes="cc"
         inkscape:original-d="m 18.005713,48.63101 2.651702,-1.255375"
         inkscape:path-effect="#path-effect3148"
         id="path3146"
         d="m 18.005713,48.63101 2.651702,-1.255375"
         style="fill:#ffffff;fill-opacity:1;fill-rule:nonzero;stroke:#a10e71;stroke-opacity:1;display:inline" />
    </g>
    <use
       x="0"
       y="0"
       inkscape:tiled-clone-of="#g3926"
       xlink:href="#g3926"
       id="use4092"
       transform="translate(0,32)"
       width="32"
       height="1024" />
    <g
       transform="translate(0,65.000882)"
       inkscape:tile-y0="13.953539"
       inkscape:tile-x0="10.89524"
       id="use4094">
      <path
         style="fill:#700000;fill-opacity:0;stroke:#a10e71;stroke-width:1;stroke-opacity:1"
         d="m 18.759578,50.28572 c 0,0 2.83408,-1.416905 2.50386,-2.135662 -0.33021,-0.718757 -3.22291,0.44478 -3.22291,0.44478 0,0 2.88818,-1.496357 2.45892,-2.155749 -0.42926,-0.659391 -3.28071,0.626136 -3.28071,0.626136"
         id="path4146"
         sodipodi:nodetypes="czczc" />
      <use
         x="0"
         y="0"
         xlink:href="#path2933-4"
         id="use4148"
         transform="translate(4.2464729,-1.5943438)"
         width="744.09448"
         height="1052.3622" />
      <path
         sodipodi:type="arc"
         style="fill:#f49ee9;fill-opacity:1;fill-rule:nonzero;stroke:none;filter:url(#filter4140)"
         id="path4150"
         sodipodi:cx="21.277637"
         sodipodi:cy="567.27802"
         sodipodi:rx="6.9177656"
         sodipodi:ry="6.7797933"
         d="m 28.195403,567.27802 a 6.9177656,6.7797933 0 1 1 -13.835531,0 6.9177656,6.7797933 0 1 1 13.835531,0 z"
         transform="matrix(1.201662,0,0,1.0751837,-6.3604726,-560.32283)" />
      <path
         style="fill:#ffffff;fill-opacity:1;stroke:#a10e71;stroke-width:1.01510537;stroke-linecap:butt;stroke-linejoin:round;stroke-miterlimit:10;stroke-opacity:1;stroke-dashoffset:0"
         d="m 25.723288,51.020956 c 0.47017,0.731622 0.0417,1.751826 -3.00076,3.150972 -3.04247,1.399146 -0.83322,2.292922 -2.49839,2.481166 -1.66518,0.188244 -0.2219,-0.97658 -1.81082,-0.620003 -1.58891,0.356577 -4.59898,-1.265929 2.77847,-4.400385 1.64616,-0.699405 4.05106,-1.359364 4.5315,-0.61175 z"
         id="path4152"
         sodipodi:nodetypes="czzzsz" />
      <path
         style="fill:#700000;fill-opacity:0;fill-rule:nonzero;stroke:#a10e71;display:inline"
         d="m 22.278376,46.997248 2.654511,-1.137684"
         id="path4154"
         inkscape:path-effect="#path-effect3152"
         inkscape:original-d="m 22.278376,46.997248 2.654511,-1.137684"
         inkscape:transform-center-y="-0.46846867"
         inkscape:transform-center-x="-0.015941867" />
      <path
         style="fill:#ffffff;fill-opacity:1;fill-rule:nonzero;stroke:#a10e71;stroke-opacity:1;display:inline"
         d="m 18.005713,48.63101 2.651702,-1.255375"
         id="path4156"
         inkscape:path-effect="#path-effect3148"
         inkscape:original-d="m 18.005713,48.63101 2.651702,-1.255375"
         sodipodi:nodetypes="cc" />
    </g>
    <use
       x="0"
       y="0"
       inkscape:tiled-clone-of="#g3926"
       xlink:href="#g3926"
       transform="translate(0,95.99976)"
       id="use4096"
       width="32"
       height="1024" />
    <use
       x="0"
       y="0"
       inkscape:tiled-clone-of="#g3926"
       xlink:href="#g3926"
       transform="translate(0,127.98424)"
       id="use4098"
       width="32"
       height="1024" />
    <use
       x="0"
       y="0"
       inkscape:tiled-clone-of="#g3926"
       xlink:href="#g3926"
       transform="translate(0,159.99953)"
       id="use4100"
       width="32"
       height="1024" />
    <use
       x="0"
       y="0"
       inkscape:tiled-clone-of="#g3926"
       xlink:href="#g3926"
       transform="translate(0,191.98401)"
       id="use4102"
       width="32"
       height="1024" />
    <g
       transform="translate(0,225.01569)"
       inkscape:tile-y0="13.953539"
       inkscape:tile-x0="10.89524"
       id="use4104">
      <path
         style="fill:#700000;fill-opacity:0;stroke:#a10e71;stroke-width:1;stroke-opacity:1"
         d="m 18.759578,50.28572 c 0,0 2.83408,-1.416905 2.50386,-2.135662 -0.33021,-0.718757 -3.22291,0.44478 -3.22291,0.44478 0,0 2.88818,-1.496357 2.45892,-2.155749 -0.42926,-0.659391 -3.28071,0.626136 -3.28071,0.626136"
         id="path4160"
         sodipodi:nodetypes="czczc" />
      <use
         x="0"
         y="0"
         xlink:href="#path2933-4"
         id="use4162"
         transform="translate(4.2464729,-1.5943438)"
         width="744.09448"
         height="1052.3622" />
      <path
         sodipodi:type="arc"
         style="fill:#f49ee9;fill-opacity:1;fill-rule:nonzero;stroke:none;filter:url(#filter4140)"
         id="path4164"
         sodipodi:cx="21.277637"
         sodipodi:cy="567.27802"
         sodipodi:rx="6.9177656"
         sodipodi:ry="6.7797933"
         d="m 28.195403,567.27802 a 6.9177656,6.7797933 0 1 1 -13.835531,0 6.9177656,6.7797933 0 1 1 13.835531,0 z"
         transform="matrix(1.201662,0,0,1.0751837,-6.3604726,-560.32283)" />
      <path
         style="fill:#ffffff;fill-opacity:1;stroke:#a10e71;stroke-width:1.01510537;stroke-linecap:butt;stroke-linejoin:round;stroke-miterlimit:10;stroke-opacity:1;stroke-dashoffset:0"
         d="m 25.723288,51.020956 c 0.47017,0.731622 0.0417,1.751826 -3.00076,3.150972 -3.04247,1.399146 -0.778365,2.324268 -2.443535,2.512512 -1.66518,0.188244 -0.276755,-1.007926 -1.865675,-0.651349 -1.58891,0.356577 -4.59898,-1.265929 2.77847,-4.400385 1.64616,-0.699405 4.05106,-1.359364 4.5315,-0.61175 z"
         id="path4166"
         sodipodi:nodetypes="czzzsz" />
      <path
         style="fill:#700000;fill-opacity:0;fill-rule:nonzero;stroke:#a10e71;display:inline"
         d="m 22.278376,46.997248 2.654511,-1.137684"
         id="path4168"
         inkscape:path-effect="#path-effect3152"
         inkscape:original-d="m 22.278376,46.997248 2.654511,-1.137684"
         inkscape:transform-center-y="-0.46846867"
         inkscape:transform-center-x="-0.015941867" />
      <path
         style="fill:#ffffff;fill-opacity:1;fill-rule:nonzero;stroke:#a10e71;stroke-opacity:1;display:inline"
         d="m 18.005713,48.63101 2.651702,-1.255375"
         id="path4170"
         inkscape:path-effect="#path-effect3148"
         inkscape:original-d="m 18.005713,48.63101 2.651702,-1.255375"
         sodipodi:nodetypes="cc" />
    </g>
    <use
       x="0"
       y="0"
       inkscape:tiled-clone-of="#g3926"
       xlink:href="#g3926"
       transform="translate(0,255.98777)"
       id="use4106"
       width="32"
       height="1024" />
    <use
       x="0"
       y="0"
       inkscape:tiled-clone-of="#g3926"
       xlink:href="#g3926"
       transform="translate(0,288.00305)"
       id="use4108"
       width="32"
       height="1024" />
    <use
       x="0"
       y="0"
       inkscape:tiled-clone-of="#g3926"
       xlink:href="#g3926"
       transform="translate(0,320.01834)"
       id="use4110"
       width="32"
       height="1024" />
    <use
       x="0"
       y="0"
       inkscape:tiled-clone-of="#g3926"
       xlink:href="#g3926"
       transform="translate(0,352.00482)"
       id="use4112"
       width="32"
       height="1024" />
    <g
       transform="matrix(0.99862953,0.05233596,-0.05233596,0.99862953,2.6224619,384.09721)"
       inkscape:tile-y0="13.953539"
       inkscape:tile-x0="10.89524"
       id="use4114">
      <path
         style="fill:#700000;fill-opacity:0;stroke:#a10e71;stroke-width:1;stroke-opacity:1"
         d="m 18.759578,50.28572 c 0,0 2.83408,-1.416905 2.50386,-2.135662 -0.33021,-0.718757 -3.22291,0.44478 -3.22291,0.44478 0,0 2.88818,-1.496357 2.45892,-2.155749 -0.42926,-0.659391 -3.28071,0.626136 -3.28071,0.626136"
         id="path4174"
         sodipodi:nodetypes="czczc" />
      <use
         x="0"
         y="0"
         xlink:href="#path2933-4"
         id="use4176"
         transform="translate(4.2464729,-1.5943438)"
         width="744.09448"
         height="1052.3622" />
      <path
         sodipodi:type="arc"
         style="fill:#f49ee9;fill-opacity:1;fill-rule:nonzero;stroke:none;filter:url(#filter4140)"
         id="path4178"
         sodipodi:cx="21.277637"
         sodipodi:cy="567.27802"
         sodipodi:rx="6.9177656"
         sodipodi:ry="6.7797933"
         d="m 28.195403,567.27802 a 6.9177656,6.7797933 0 1 1 -13.835531,0 6.9177656,6.7797933 0 1 1 13.835531,0 z"
         transform="matrix(1.201662,0,0,1.0751837,-6.3604726,-560.32283)" />
      <path
         style="fill:#ffffff;fill-opacity:1;stroke:#a10e71;stroke-width:1.01510537;stroke-linecap:butt;stroke-linejoin:round;stroke-miterlimit:10;stroke-opacity:1;stroke-dashoffset:0"
         d="m 25.723288,51.020956 c 0.47017,0.731622 0.0417,1.751826 -3.00076,3.150972 -3.04247,1.399146 -0.801874,2.355613 -2.467044,2.543857 -1.66518,0.188244 -0.253246,-1.039271 -1.842166,-0.682694 -1.58891,0.356577 -4.59898,-1.265929 2.77847,-4.400385 1.64616,-0.699405 4.05106,-1.359364 4.5315,-0.61175 z"
         id="path4180"
         sodipodi:nodetypes="czzzsz" />
      <path
         style="fill:#700000;fill-opacity:0;fill-rule:nonzero;stroke:#a10e71;display:inline"
         d="m 22.278376,46.997248 2.654511,-1.137684"
         id="path4182"
         inkscape:path-effect="#path-effect3152"
         inkscape:original-d="m 22.278376,46.997248 2.654511,-1.137684"
         inkscape:transform-center-y="-0.46846867"
         inkscape:transform-center-x="-0.015941867" />
      <path
         style="fill:#ffffff;fill-opacity:1;fill-rule:nonzero;stroke:#a10e71;stroke-opacity:1;display:inline"
         d="m 18.005713,48.63101 2.651702,-1.255375"
         id="path4184"
         inkscape:path-effect="#path-effect3148"
         inkscape:original-d="m 18.005713,48.63101 2.651702,-1.255375"
         sodipodi:nodetypes="cc" />
    </g>
    <g
       transform="matrix(0.99452189,0.10452847,-0.10452847,0.99452189,5.3371202,414.30056)"
       inkscape:tile-y0="13.953539"
       inkscape:tile-x0="10.89524"
       id="use4116">
      <path
         style="fill:#700000;fill-opacity:0;stroke:#a10e71;stroke-width:1;stroke-opacity:1"
         d="m 18.759578,50.28572 c 0,0 2.83408,-1.416905 2.50386,-2.135662 -0.33021,-0.718757 -3.22291,0.44478 -3.22291,0.44478 0,0 2.88818,-1.496357 2.45892,-2.155749 -0.42926,-0.659391 -3.28071,0.626136 -3.28071,0.626136"
         id="path4286"
         sodipodi:nodetypes="czczc" />
      <use
         x="0"
         y="0"
         xlink:href="#path2933-4"
         id="use4288"
         transform="translate(4.2464729,-1.5943438)"
         width="744.09448"
         height="1052.3622" />
      <path
         sodipodi:type="arc"
         style="fill:#f49ee9;fill-opacity:1;fill-rule:nonzero;stroke:none;filter:url(#filter4140)"
         id="path4290"
         sodipodi:cx="21.277637"
         sodipodi:cy="567.27802"
         sodipodi:rx="6.9177656"
         sodipodi:ry="6.7797933"
         d="m 28.195403,567.27802 a 6.9177656,6.7797933 0 1 1 -13.835531,0 6.9177656,6.7797933 0 1 1 13.835531,0 z"
         transform="matrix(1.201662,0,0,1.0751837,-6.3604726,-560.32283)" />
      <path
         style="fill:#ffffff;fill-opacity:1;stroke:#a10e71;stroke-width:1.01510537;stroke-linecap:butt;stroke-linejoin:round;stroke-miterlimit:10;stroke-opacity:1;stroke-dashoffset:0"
         d="m 25.723288,51.020956 c 0.47017,0.731622 0.0417,1.751826 -3.00076,3.150972 -3.04247,1.399146 -0.5276,3.484057 -2.19277,3.672301 -1.66518,0.188244 -0.52752,-2.167715 -2.11644,-1.811138 -1.58891,0.356577 -4.59898,-1.265929 2.77847,-4.400385 1.64616,-0.699405 4.05106,-1.359364 4.5315,-0.61175 z"
         id="path4292"
         sodipodi:nodetypes="czzzsz" />
      <path
         style="fill:#700000;fill-opacity:0;fill-rule:nonzero;stroke:#a10e71;stroke-width:1;display:inline"
         d="m 22.278376,46.997248 2.654511,-1.137684"
         id="path4294"
         inkscape:path-effect="#path-effect3152"
         inkscape:original-d="m 22.278376,46.997248 2.654511,-1.137684"
         inkscape:transform-center-y="-0.46846867"
         inkscape:transform-center-x="-0.015941867" />
      <path
         style="fill:#ffffff;fill-opacity:1;fill-rule:nonzero;stroke:#a10e71;stroke-width:1;stroke-opacity:1;display:inline"
         d="m 18.005713,48.63101 2.651702,-1.255375"
         id="path4296"
         inkscape:path-effect="#path-effect3148"
         inkscape:original-d="m 18.005713,48.63101 2.651702,-1.255375"
         sodipodi:nodetypes="cc" />
    </g>
    <g
       transform="matrix(0.98768833,0.15643447,-0.15643447,0.98768833,8.0677638,445.66045)"
       inkscape:tile-y0="13.953539"
       inkscape:tile-x0="10.89524"
       id="use4118">
      <path
         style="fill:#700000;fill-opacity:0;stroke:#a10e71;stroke-width:1;stroke-opacity:1"
         d="m 18.759578,50.28572 c 0,0 2.83408,-1.416905 2.50386,-2.135662 -0.33021,-0.718757 -3.22291,0.44478 -3.22291,0.44478 0,0 2.88818,-1.496357 2.45892,-2.155749 -0.42926,-0.659391 -3.28071,0.626136 -3.28071,0.626136"
         id="path4272"
         sodipodi:nodetypes="czczc" />
      <use
         x="0"
         y="0"
         xlink:href="#path2933-4"
         id="use4274"
         transform="translate(4.2464729,-1.5943438)"
         width="744.09448"
         height="1052.3622" />
      <path
         sodipodi:type="arc"
         style="fill:#f49ee9;fill-opacity:1;fill-rule:nonzero;stroke:none;filter:url(#filter4140)"
         id="path4276"
         sodipodi:cx="21.277637"
         sodipodi:cy="567.27802"
         sodipodi:rx="6.9177656"
         sodipodi:ry="6.7797933"
         d="m 28.195403,567.27802 a 6.9177656,6.7797933 0 1 1 -13.835531,0 6.9177656,6.7797933 0 1 1 13.835531,0 z"
         transform="matrix(1.201662,0,0,1.0751837,-6.3604726,-560.32283)" />
      <path
         style="fill:#ffffff;fill-opacity:1;stroke:#a10e71;stroke-width:1.01510537;stroke-linecap:butt;stroke-linejoin:round;stroke-miterlimit:10;stroke-opacity:1;stroke-dashoffset:0"
         d="m 25.723288,51.020956 c 0.47017,0.731622 0.0417,1.751826 -3.00076,3.150972 -3.04247,1.399146 -0.06838,3.609063 -2.053886,3.924941 -1.985505,0.315879 -0.666404,-2.420355 -2.255324,-2.063778 -1.58891,0.356577 -4.59898,-1.265929 2.77847,-4.400385 1.64616,-0.699405 4.05106,-1.359364 4.5315,-0.61175 z"
         id="path4278"
         sodipodi:nodetypes="czzzsz" />
      <path
         style="fill:#700000;fill-opacity:0;fill-rule:nonzero;stroke:#a10e71;stroke-width:1;display:inline"
         d="m 22.278376,46.997248 2.654511,-1.137684"
         id="path4280"
         inkscape:path-effect="#path-effect3152"
         inkscape:original-d="m 22.278376,46.997248 2.654511,-1.137684"
         inkscape:transform-center-y="-0.46846867"
         inkscape:transform-center-x="-0.015941867" />
      <path
         style="fill:#ffffff;fill-opacity:1;fill-rule:nonzero;stroke:#a10e71;stroke-width:1;stroke-opacity:1;display:inline"
         d="m 18.005713,48.63101 2.651702,-1.255375"
         id="path4282"
         inkscape:path-effect="#path-effect3148"
         inkscape:original-d="m 18.005713,48.63101 2.651702,-1.255375"
         sodipodi:nodetypes="cc" />
    </g>
    <g
       transform="matrix(0.97814759,0.2079117,-0.2079117,0.97814759,10.8291,477.13007)"
       inkscape:tile-y0="13.953539"
       inkscape:tile-x0="10.89524"
       id="use4120">
      <path
         style="fill:#700000;fill-opacity:0;stroke:#a10e71;stroke-width:1;stroke-opacity:1"
         d="m 18.759578,50.28572 c 0,0 2.83408,-1.416905 2.50386,-2.135662 -0.33021,-0.718757 -3.22291,0.44478 -3.22291,0.44478 0,0 2.88818,-1.496357 2.45892,-2.155749 -0.42926,-0.659391 -3.28071,0.626136 -3.28071,0.626136"
         id="path4230"
         sodipodi:nodetypes="czczc" />
      <use
         x="0"
         y="0"
         xlink:href="#path2933-4"
         id="use4232"
         transform="translate(4.2464729,-1.5943438)"
         width="744.09448"
         height="1052.3622" />
      <path
         sodipodi:type="arc"
         style="fill:#f49ee9;fill-opacity:1;fill-rule:nonzero;stroke:none;filter:url(#filter4140)"
         id="path4234"
         sodipodi:cx="21.277637"
         sodipodi:cy="567.27802"
         sodipodi:rx="6.9177656"
         sodipodi:ry="6.7797933"
         d="m 28.195403,567.27802 a 6.9177656,6.7797933 0 1 1 -13.835531,0 6.9177656,6.7797933 0 1 1 13.835531,0 z"
         transform="matrix(1.201662,0,0,1.0751837,-6.3604726,-560.32283)" />
      <path
         style="fill:#ffffff;fill-opacity:1;stroke:#a10e71;stroke-width:1.01510537;stroke-linecap:butt;stroke-linejoin:round;stroke-miterlimit:10;stroke-opacity:1;stroke-dashoffset:0"
         d="m 25.723288,51.020956 c 0.47017,0.731622 0.0417,1.751826 -3.00076,3.150972 -3.04247,1.399146 0.405329,3.906945 -1.969589,4.356977 -2.374918,0.450032 -0.750701,-2.852391 -2.339621,-2.495814 -1.58891,0.356577 -4.59898,-1.265929 2.77847,-4.400385 1.64616,-0.699405 4.05106,-1.359364 4.5315,-0.61175 z"
         id="path4236"
         sodipodi:nodetypes="czzzsz" />
      <path
         style="fill:#700000;fill-opacity:0;fill-rule:nonzero;stroke:#a10e71;stroke-width:1;display:inline"
         d="m 22.278376,46.997248 2.654511,-1.137684"
         id="path4238"
         inkscape:path-effect="#path-effect3152"
         inkscape:original-d="m 22.278376,46.997248 2.654511,-1.137684"
         inkscape:transform-center-y="-0.46846867"
         inkscape:transform-center-x="-0.015941867" />
      <path
         style="fill:#ffffff;fill-opacity:1;fill-rule:nonzero;stroke:#a10e71;stroke-width:1;stroke-opacity:1;display:inline"
         d="m 18.005713,48.63101 2.651702,-1.255375"
         id="path4240"
         inkscape:path-effect="#path-effect3148"
         inkscape:original-d="m 18.005713,48.63101 2.651702,-1.255375"
         sodipodi:nodetypes="cc" />
    </g>
    <g
       transform="matrix(0.96592582,0.25881905,-0.25881905,0.96592582,13.904143,507.76764)"
       inkscape:tile-y0="13.953539"
       inkscape:tile-x0="10.89524"
       id="use4122">
      <path
         sodipodi:type="arc"
         style="fill:#f49ee9;fill-opacity:1;fill-rule:nonzero;stroke:none;filter:url(#filter4140)"
         id="path4192"
         sodipodi:cx="21.277637"
         sodipodi:cy="567.27802"
         sodipodi:rx="6.9177656"
         sodipodi:ry="6.7797933"
         d="m 28.195403,567.27802 a 6.9177656,6.7797933 0 1 1 -13.835531,0 6.9177656,6.7797933 0 1 1 13.835531,0 z"
         transform="matrix(1.201662,0,0,1.0751837,-6.3604726,-560.32283)" />
      <path
         style="fill:#ffffff;fill-opacity:1;stroke:#a10e71;stroke-width:1.01510537;stroke-linecap:butt;stroke-linejoin:round;stroke-miterlimit:10;stroke-opacity:1;stroke-dashoffset:0"
         d="m 25.723288,51.020956 c 0.47017,0.731622 0.0417,1.751826 -3.00076,3.150972 -3.04247,1.399146 2.987261,4.456841 -1.20085,5.792669 -4.188111,1.335828 -1.51944,-4.288083 -3.10836,-3.931506 -1.58891,0.356577 -4.59898,-1.265929 2.77847,-4.400385 1.64616,-0.699405 4.05106,-1.359364 4.5315,-0.61175 z"
         id="path4194"
         sodipodi:nodetypes="czzzsz" />
      <path
         style="fill:#700000;fill-opacity:0;fill-rule:nonzero;stroke:#a10e71;stroke-width:1;display:inline"
         d="m 22.278376,46.997248 2.654511,-1.137684"
         id="path4196"
         inkscape:path-effect="#path-effect3152"
         inkscape:original-d="m 22.278376,46.997248 2.654511,-1.137684"
         inkscape:transform-center-y="-0.46846867"
         inkscape:transform-center-x="-0.015941867" />
      <path
         style="fill:#ffffff;fill-opacity:1;fill-rule:nonzero;stroke:#a10e71;stroke-width:1;stroke-opacity:1;display:inline"
         d="m 18.005713,48.63101 2.651702,-1.255375"
         id="path4198"
         inkscape:path-effect="#path-effect3148"
         inkscape:original-d="m 18.005713,48.63101 2.651702,-1.255375"
         sodipodi:nodetypes="cc" />
      <path
         style="fill:#700000;fill-opacity:0;stroke:#a10e71;stroke-width:1;stroke-opacity:1"
         d="m 18.759578,50.28572 c 0,0 2.83408,-1.416905 2.50386,-2.135662 -0.33021,-0.718757 -3.22291,0.44478 -3.22291,0.44478 0,0 2.88818,-1.496357 2.45892,-2.155749 -0.42926,-0.659391 -3.28071,0.626136 -3.28071,0.626136"
         id="path4188"
         sodipodi:nodetypes="czczc" />
      <use
         x="0"
         y="0"
         xlink:href="#path2933-4"
         id="use4190"
         transform="translate(4.2464729,-1.5943438)"
         width="744.09448"
         height="1052.3622" />
    </g>
    <g
       transform="matrix(0.99452189,0.10452847,-0.10452847,0.99452189,5.3371575,542.30338)"
       inkscape:tile-y0="13.953539"
       inkscape:tile-x0="10.89524"
       id="use4124">
      <path
         sodipodi:type="arc"
         style="fill:#f49ee9;fill-opacity:1;fill-rule:nonzero;stroke:none;filter:url(#filter4140)"
         id="path4206"
         sodipodi:cx="21.277637"
         sodipodi:cy="567.27802"
         sodipodi:rx="6.9177656"
         sodipodi:ry="6.7797933"
         d="m 28.195403,567.27802 a 6.9177656,6.7797933 0 1 1 -13.835531,0 6.9177656,6.7797933 0 1 1 13.835531,0 z"
         transform="matrix(1.201662,0,0,1.0751837,-6.3604726,-560.32283)" />
      <path
         style="fill:#ffffff;fill-opacity:1;stroke:#a10e71;stroke-width:1.01510537;stroke-linecap:butt;stroke-linejoin:round;stroke-miterlimit:10;stroke-opacity:1;stroke-dashoffset:0"
         d="m 25.723288,51.020956 c 0.47017,0.731622 0.0417,1.751826 -3.00076,3.150972 -3.04247,1.399146 -0.5276,3.484057 -2.19277,3.672301 -1.66518,0.188244 -0.52752,-2.167715 -2.11644,-1.811138 -1.58891,0.356577 -4.59898,-1.265929 2.77847,-4.400385 1.64616,-0.699405 4.05106,-1.359364 4.5315,-0.61175 z"
         id="path4208"
         sodipodi:nodetypes="czzzsz" />
      <path
         style="fill:#700000;fill-opacity:0;fill-rule:nonzero;stroke:#a10e71;stroke-width:1;display:inline"
         d="m 22.278376,46.997248 2.654511,-1.137684"
         id="path4210"
         inkscape:path-effect="#path-effect3152"
         inkscape:original-d="m 22.278376,46.997248 2.654511,-1.137684"
         inkscape:transform-center-y="-0.46846867"
         inkscape:transform-center-x="-0.015941867" />
      <path
         style="fill:#ffffff;fill-opacity:1;fill-rule:nonzero;stroke:#a10e71;stroke-width:1;stroke-opacity:1;display:inline"
         d="m 18.005713,48.63101 2.651702,-1.255375"
         id="path4212"
         inkscape:path-effect="#path-effect3148"
         inkscape:original-d="m 18.005713,48.63101 2.651702,-1.255375"
         sodipodi:nodetypes="cc" />
      <path
         style="fill:#700000;fill-opacity:0;stroke:#a10e71;stroke-width:1;stroke-opacity:1"
         d="m 18.759578,50.28572 c 0,0 2.83408,-1.416905 2.50386,-2.135662 -0.33021,-0.718757 -3.22291,0.44478 -3.22291,0.44478 0,0 2.88818,-1.496357 2.45892,-2.155749 -0.42926,-0.659391 -3.28071,0.626136 -3.28071,0.626136"
         id="path4202"
         sodipodi:nodetypes="czczc" />
      <use
         x="0"
         y="0"
         xlink:href="#path2933-4"
         id="use4204"
         transform="translate(4.2464729,-1.5943438)"
         width="744.09448"
         height="1052.3622" />
    </g>
    <g
       transform="matrix(0.99862953,0.05233596,-0.05233596,0.99862953,2.6452131,575.1155)"
       inkscape:tile-y0="13.953539"
       inkscape:tile-x0="10.89524"
       id="use4126">
      <path
         sodipodi:type="arc"
         style="fill:#f49ee9;fill-opacity:1;fill-rule:nonzero;stroke:none;filter:url(#filter4140)"
         id="path4220"
         sodipodi:cx="21.277637"
         sodipodi:cy="567.27802"
         sodipodi:rx="6.9177656"
         sodipodi:ry="6.7797933"
         d="m 28.195403,567.27802 a 6.9177656,6.7797933 0 1 1 -13.835531,0 6.9177656,6.7797933 0 1 1 13.835531,0 z"
         transform="matrix(1.201662,0,0,1.0751837,-6.3604726,-560.32283)" />
      <path
         style="fill:#ffffff;fill-opacity:1;stroke:#a10e71;stroke-width:1.01510537;stroke-linecap:butt;stroke-linejoin:round;stroke-miterlimit:10;stroke-opacity:1;stroke-dashoffset:0"
         d="m 25.723288,51.020956 c 0.47017,0.731622 0.0417,1.751826 -3.00076,3.150972 -3.04247,1.399146 -0.828443,2.304659 -2.493613,2.492903 -1.66518,0.188244 -0.226677,-0.988317 -1.815597,-0.63174 -1.58891,0.356577 -4.59898,-1.265929 2.77847,-4.400385 1.64616,-0.699405 4.05106,-1.359364 4.5315,-0.61175 z"
         id="path4222"
         sodipodi:nodetypes="czzzsz" />
      <path
         style="fill:#700000;fill-opacity:0;fill-rule:nonzero;stroke:#a10e71;display:inline"
         d="m 22.278376,46.997248 2.654511,-1.137684"
         id="path4224"
         inkscape:path-effect="#path-effect3152"
         inkscape:original-d="m 22.278376,46.997248 2.654511,-1.137684"
         inkscape:transform-center-y="-0.46846867"
         inkscape:transform-center-x="-0.015941867" />
      <path
         style="fill:#ffffff;fill-opacity:1;fill-rule:nonzero;stroke:#a10e71;stroke-opacity:1;display:inline"
         d="m 18.005713,48.63101 2.651702,-1.255375"
         id="path4226"
         inkscape:path-effect="#path-effect3148"
         inkscape:original-d="m 18.005713,48.63101 2.651702,-1.255375"
         sodipodi:nodetypes="cc" />
      <path
         style="fill:#700000;fill-opacity:0;stroke:#a10e71;stroke-width:1;stroke-opacity:1"
         d="m 18.759578,50.28572 c 0,0 2.83408,-1.416905 2.50386,-2.135662 -0.33021,-0.718757 -3.22291,0.44478 -3.22291,0.44478 0,0 2.88818,-1.496357 2.45892,-2.155749 -0.42926,-0.659391 -3.28071,0.626136 -3.28071,0.626136"
         id="path4216"
         sodipodi:nodetypes="czczc" />
      <use
         x="0"
         y="0"
         xlink:href="#path2933-4"
         id="use4218"
         transform="translate(4.2464729,-1.5943438)"
         width="744.09448"
         height="1052.3622" />
    </g>
    <path
       style="fill:#000000;fill-opacity:1;fill-rule:nonzero;stroke:none"
       id="path4324"
       d="m 38.706002,405.38678 c 0.232235,-0.25215 0.572849,-0.32823 0.902146,-0.34716 0.303328,-7.2e-4 0.603958,0.0426 0.907735,0.0346 0.382651,-0.0131 0.764692,-0.0155 1.147263,10e-4 0.533203,0.0427 1.068352,0.032 1.602373,0.0164 0.517485,-0.0153 1.034279,-0.0478 1.552002,-0.0571 0.373886,-0.0142 0.747502,0.015 1.121066,0.0245 0.22545,0.0346 0.491344,-0.0231 0.703411,0.0784 0.008,0.0106 0.02655,0.0187 0.02408,0.0317 -0.140539,0.74088 -0.118642,0.6995 -0.201088,0.32546 -0.004,-5.3e-4 0.0034,-0.0575 0.0074,-0.057 l 0,0 c 0.242594,-0.51767 0.02292,-0.13093 0.0697,0.3544 -0.220701,0.0939 -0.489143,0.0272 -0.720496,0.0464 -0.353335,-0.0107 -0.705524,0.009 -1.056395,0.0523 -0.535337,0.0735 -1.071505,0.14896 -1.612789,0.15798 -0.554178,-0.005 -1.103284,-0.0541 -1.65092,-0.13909 -0.369526,-0.043 -0.739773,-0.0677 -1.111471,-0.0838 -0.273206,-0.0319 -0.547094,-0.0694 -0.822615,-0.0677 -0.220501,0.0268 -0.423296,0.092 -0.631404,0.16673 -0.03805,0.0163 -0.268059,-0.52193 -0.230003,-0.53819 z"
       transform="translate(0,28.362183)" />
    <path
       style="fill:#000000;fill-opacity:1;fill-rule:nonzero;stroke:none"
       id="path4326"
       d="m 39.897146,432.17044 c 0.328079,-0.19077 0.704685,-0.27571 1.076633,-0.3299 0.460883,-0.0593 0.927683,-0.0311 1.391006,-0.0274 0.649491,-0.002 1.298116,0.0305 1.946849,0.0559 0.476088,0.0291 0.950857,0.069 1.42055,0.15368 0.02437,0.005 0.280734,0.051 0.286671,0.0814 0.0026,0.0132 -0.01443,0.0235 -0.01694,0.0367 -0.01589,0.0839 -0.02534,0.16895 -0.03801,0.25343 -0.0027,-4.7e-4 0.0039,-0.0383 0.0066,-0.0379 l 0,0 c 0.0067,0.0856 0.02398,0.17096 0.02005,0.2567 -0.0034,0.0739 -0.31752,0.10562 -0.360824,0.11318 -0.487205,0.0629 -0.977174,0.0935 -1.468618,0.0909 -0.653194,-0.0239 -1.306166,-0.0626 -1.951244,-0.17502 -0.406419,-0.0554 -0.815135,-0.10451 -1.222837,-0.0285 -0.346414,0.0694 -0.70312,0.15279 -1.057777,0.10996 -0.03911,0.002 -0.07124,-0.55083 -0.03213,-0.5531 z"
       transform="translate(0,28.362183)" />
    <path
       style="fill:#000000;fill-opacity:1;fill-rule:nonzero;stroke:none"
       id="path4328"
       d="m 40.544092,432.54642 c 0.227363,-0.0931 0.46129,-0.0632 0.686308,0.0165 0.152749,0.0458 0.280007,0.15306 0.432526,0.19769 0.102603,0.023 0.2025,0.0542 0.301396,0.0903 0.09301,0.0589 0.19878,0.0873 0.303978,0.11535 0.14347,0.0503 0.292542,0.0757 0.441441,0.10297 0.119084,0.0195 0.238974,0.0352 0.355608,0.0669 0.101096,0.0273 0.205655,0.0263 0.309255,0.0356 0.140279,0.0131 0.28142,0.0208 0.418025,0.0572 0.07949,0.0233 0.155571,0.0565 0.237679,0.0697 0.143891,-0.006 0.279086,0.0419 0.40922,0.0977 0.07779,0.0286 0.138877,0.0954 0.221462,0.10968 0.08391,0.0163 0.169967,0.0184 0.254022,0.0329 0.05395,0.0105 0.109998,0.005 0.163886,0.0145 0.08071,-0.008 0.158643,0.0119 0.237595,0.0236 0.06506,0.0245 0.129328,0.01 0.196058,0.0105 0.0997,-0.009 0.197518,0.0217 0.295809,0.0243 0.05676,0.003 0.109153,0.0197 0.163256,0.0329 0.06762,0.0488 0.0036,0.0422 -0.0365,0.14898 -0.01014,0.027 -0.008,0.0571 -0.01208,0.0857 0.0019,-3.5e-4 0.0068,0.0263 0.0049,0.0267 l 0,0 c -0.02849,0.0793 -0.08063,0.16625 -0.108103,0.2346 -0.01644,0.0163 -0.06835,0.007 -0.09599,0.0161 -0.105109,-0.004 -0.209978,5.6e-4 -0.313908,-0.0219 -0.08508,-0.0108 -0.167347,-0.0373 -0.252305,-0.0497 -0.03052,-0.01 -0.06386,-0.0184 -0.09547,-0.0173 -0.0902,0.0258 -0.187757,0.0247 -0.280255,0.0151 -0.103557,-0.0115 -0.203145,-0.0437 -0.303374,-0.071 -0.09619,-0.0292 -0.190172,-0.0658 -0.286538,-0.0948 -0.113223,-0.0402 -0.227178,-0.0782 -0.34074,-0.11731 -0.06298,-0.0214 -0.116739,-0.0401 -0.184499,-0.0288 -0.1495,0.004 -0.298119,-0.0174 -0.444418,-0.0469 -0.09081,-0.0222 -0.175032,-0.0689 -0.268793,-0.0682 -0.132073,0.005 -0.264546,-0.003 -0.395345,-0.0216 -0.183405,-0.0271 -0.361981,-0.0796 -0.530553,-0.15734 -0.09661,-0.049 -0.191427,-0.10316 -0.281427,-0.1616 -0.08532,-0.0441 -0.203786,-0.008 -0.289731,-0.0561 -0.147264,-0.0514 -0.281822,-0.11989 -0.419107,-0.19321 -0.173474,-0.0336 -0.354919,-0.0263 -0.522291,-0.0888 -0.03049,-0.002 -0.0015,-0.43329 0.029,-0.43124 z"
       transform="translate(0,28.362183)" />
    <path
       style="fill:#000000;fill-opacity:1;fill-rule:nonzero;stroke:none"
       id="path4330"
       d="m 38.452834,467.22681 c 0.421651,-0.10824 0.866064,-0.10707 1.299145,-0.11063 0.554908,0.01 1.108642,-0.0231 1.660191,-0.0813 0.722913,-0.0729 1.445209,-0.14909 2.172082,-0.16415 0.48448,-0.0125 0.966156,0.042 1.447719,0.0853 0.341548,0.0248 0.684089,0.0293 1.016608,0.11696 0.146409,0.0506 0.158609,0.18466 0.21772,0.30704 0.0049,8e-4 -0.0064,0.0696 -0.01131,0.0688 l 0,0 c -0.101124,0.11429 -0.165871,0.25061 -0.333198,0.27501 -0.336037,0.0293 -0.666407,-0.027 -1.00258,-0.0334 -0.471589,0.0139 -0.935339,0.10164 -1.404189,0.1491 -0.729525,0.0797 -1.462613,0.12657 -2.19689,0.10914 -0.56103,-0.0275 -1.122042,-0.0552 -1.683276,-0.0779 -0.424705,-0.0319 -0.868412,-0.0685 -1.259673,-0.24896 -0.02794,-0.005 0.04972,-0.40057 0.07766,-0.39507 z"
       transform="translate(0,28.362183)" />
    <path
       style="fill:#000000;fill-opacity:1;fill-rule:nonzero;stroke:none"
       id="path4332"
       d="m 39.472143,467.52043 c 0.392101,-0.031 0.781946,0.0796 1.156524,0.18389 0.367228,0.0955 0.73837,0.16958 1.11355,0.22508 0.36557,0.0488 0.730222,0.10583 1.096225,0.15321 0.401123,0.0596 0.800225,0.13091 1.20092,0.1932 0.32855,0.0747 0.662923,0.0937 0.997318,0.11792 0.319443,-8.3e-4 0.637898,0.0217 0.942171,0.12262 0.255557,0.12627 0.293412,0.22836 0.02261,0.51197 -0.02187,0.0229 -0.03443,-0.0532 -0.05164,-0.0797 -0.0045,-1.3e-4 -0.0027,-0.0643 0.0018,-0.0642 l 0,0 c 0.12667,-0.25722 -0.04662,0.0901 -0.09104,0.23228 -0.0191,0.0611 0.07864,0.0634 -0.07728,0.0719 -0.292521,-0.004 -0.585002,-0.0125 -0.876735,-0.0354 -0.354982,-0.0121 -0.707699,-0.0621 -1.061392,-0.0929 -0.408047,-0.0512 -0.814737,-0.11142 -1.21792,-0.19326 -0.350786,-0.0705 -0.701228,-0.14441 -1.057658,-0.1793 -0.409851,-0.0366 -0.818964,-0.0903 -1.216373,-0.20075 -0.363719,-0.0874 -0.733546,-0.19682 -1.046334,-0.40862 -0.03945,-0.0117 0.125803,-0.56961 0.165254,-0.55792 z"
       transform="translate(0,28.362183)" />
    <path
       style="fill:#000000;fill-opacity:1;fill-rule:nonzero;stroke:none"
       id="path4334"
       d="m 39.297797,467.90428 c 0.332265,-0.0192 0.628432,0.13453 0.895065,0.31598 0.187806,0.13508 0.326772,0.31974 0.50265,0.46757 0.1446,0.0589 0.300602,0.0841 0.452115,0.1213 0.24289,0.0815 0.482812,0.17036 0.7292,0.24142 0.245276,0.0837 0.489535,0.17039 0.716397,0.29688 0.06788,0.0457 0.130001,0.0955 0.180742,0.16013 0.0212,0.027 0.04018,0.0557 0.06032,0.0834 0.0039,0.005 0.01543,0.0219 0.01192,0.0162 -0.0093,-0.0151 -0.01954,-0.0296 -0.02931,-0.0445 0.04116,-0.0649 0.418627,0.0961 0.480543,0.11988 0.17688,0.0552 0.319849,0.16767 0.469825,0.27027 0.07695,0.10592 0.192815,0.13379 0.309363,0.17883 0.176195,0.0801 0.366918,0.14216 0.523346,0.25875 0.167725,0.11976 0.0714,0.0917 -0.109787,0.34487 -0.0018,-10e-4 0.01549,-0.0272 0.01733,-0.026 l 0,0 c -0.0701,0.13518 -0.06746,0.3267 -0.211415,0.30294 -0.22026,-0.0351 -0.424986,-0.13871 -0.612148,-0.25643 -0.107571,-0.0786 -0.239108,-0.18363 -0.310134,-0.27688 -0.132701,-0.0318 -0.27476,-0.0546 -0.400956,-0.11649 -0.209569,-0.0871 -0.419915,-0.17952 -0.575081,-0.3515 -0.02306,-0.0271 -0.04736,-0.0532 -0.06918,-0.0813 -0.0034,-0.004 -0.01007,-0.0194 -0.006,-0.0156 0.07201,0.0682 0.04753,0.0784 -0.03536,0.0587 -0.2419,-0.0626 -0.480712,-0.13571 -0.715153,-0.22243 -0.227062,-0.0945 -0.452633,-0.19197 -0.677221,-0.29219 -0.202631,-0.0753 -0.422157,-0.11377 -0.598745,-0.2472 -0.18296,-0.12252 -0.326382,-0.2915 -0.503074,-0.42201 -0.221217,-0.13747 -0.464889,-0.23879 -0.670072,-0.39957 -0.03431,-0.0124 0.140529,-0.49759 0.174839,-0.48522 z"
       transform="translate(0,28.362183)" />
    <path
       style="fill:#000000;fill-opacity:1;fill-rule:nonzero;stroke:none"
       id="path4336"
       d="m 38.719368,499.45596 c 0.469192,-0.29003 1.042327,-0.28157 1.575061,-0.27674 0.642415,0.0383 1.277749,0.14934 1.921716,0.16087 0.624295,0.0116 1.242959,-0.0817 1.860774,-0.15734 0.63595,-0.0851 1.275235,-0.0827 1.906092,0.0334 0.281083,0.0558 0.554707,0.14199 0.825854,0.23355 0.0872,0.0578 0.07744,0.16126 0.08904,0.2563 0.0043,-3e-4 0.0085,0.0601 0.0042,0.0605 l 0,0 c -0.04137,0.14664 -0.0601,0.24038 -0.2217,0.27557 -0.285579,0.0116 -0.5715,-0.0283 -0.857561,-0.0131 -0.595411,0.0155 -1.191089,0.0327 -1.78308,0.10619 -0.65223,0.0554 -1.306117,0.0953 -1.961111,0.0774 -0.647148,-0.0347 -1.291489,-0.087 -1.933799,-0.17662 -0.461598,-0.0504 -0.928415,-0.0597 -1.386081,-0.13634 -0.03137,0.003 -0.07082,-0.44087 -0.03945,-0.44366 z"
       transform="translate(0,28.362183)" />
    <path
       style="fill:#000000;fill-opacity:1;fill-rule:nonzero;stroke:none"
       id="path4338"
       d="m 39.65148,499.72191 c 0.491627,-0.11368 1.004595,0.009 1.485226,0.12379 0.480753,0.12016 0.959388,0.24775 1.441036,0.36468 0.414402,0.10192 0.836125,0.16279 1.256749,0.23026 0.477319,0.0542 0.954277,0.11037 1.427551,0.19374 0.288908,0.0356 0.565319,0.12 0.83688,0.22006 0.04772,0.0167 0.291076,0.1561 0.236765,0.23838 -0.05865,0.0888 -0.147511,0.15355 -0.221266,0.23033 -0.0046,10e-4 -0.02319,-0.0632 -0.01862,-0.0645 l 0,0 c -0.04379,0.061 -0.0959,0.11686 -0.131375,0.18306 -0.03524,0.0658 0.06267,0.0931 -0.09678,0.0804 -0.266958,-0.0273 -0.539503,0.0236 -0.806674,-0.0146 -0.491969,-0.0332 -0.979535,-0.10604 -1.462722,-0.20406 -0.429166,-0.0771 -0.853748,-0.17783 -1.281808,-0.26131 -0.494344,-0.094 -0.988472,-0.18671 -1.475585,-0.31428 -0.441232,-0.10686 -0.897062,-0.2091 -1.299925,-0.42417 -0.04114,-0.008 0.06941,-0.58961 0.110547,-0.58179 z"
       transform="translate(0,28.362183)" />
    <path
       style="fill:#000000;fill-opacity:1;fill-rule:nonzero;stroke:none"
       id="path4340"
       d="m 39.903403,499.97793 c 0.430864,0.21485 0.826122,0.49344 1.239537,0.73986 0.410193,0.24489 0.846957,0.43661 1.291387,0.60907 0.390585,0.13485 0.763755,0.31043 1.133192,0.49381 0.265438,0.12059 0.508276,0.27815 0.75287,0.43452 0.14659,0.11682 0.326551,0.16301 0.507201,0.19528 0.05908,0.0107 0.412528,0.0669 0.392249,0.17417 -0.02556,0.13518 -0.0862,0.2613 -0.129299,0.39195 -0.03057,-0.0132 -0.06114,-0.0265 -0.09172,-0.0397 -0.0077,-5.2e-4 -3.59e-4,-0.10954 0.0074,-0.10902 l 0,0 c 0.02439,-0.0171 0.04877,-0.0341 0.07316,-0.0512 -0.0175,0.12503 -0.02911,0.25102 -0.0525,0.37508 -0.0034,0.0181 -0.01162,0.0383 -0.02727,0.048 -0.106773,0.0658 -0.325598,-0.0202 -0.436284,-0.0295 -0.23388,-0.0715 -0.447944,-0.17854 -0.657858,-0.3016 -0.244158,-0.12459 -0.512456,-0.19688 -0.758186,-0.3192 -0.351955,-0.16192 -0.701353,-0.33019 -1.070053,-0.4517 -0.507965,-0.16804 -1.021439,-0.33245 -1.480715,-0.61416 -0.443832,-0.29028 -0.884564,-0.62346 -1.133842,-1.10479 -0.03117,-0.0312 0.40962,-0.47196 0.440788,-0.44079 z"
       transform="translate(0,28.362183)" />
    <path
       style="fill:#000000;fill-opacity:1;fill-rule:nonzero;stroke:none"
       id="path4342"
       d="m 39.483711,500.12194 c 0.300453,0.15663 0.475843,0.45156 0.587264,0.76074 0.06026,0.17064 0.08051,0.35011 0.148112,0.51801 0.113118,0.13333 0.212034,0.27875 0.325214,0.41249 0.138047,0.1843 0.285999,0.36443 0.453149,0.52316 0.147509,0.15613 0.296325,0.31129 0.429888,0.47977 0.100246,0.11924 0.192773,0.24211 0.30352,0.35198 0.161131,0.1316 0.313768,0.27389 0.478379,0.40089 0.157847,0.12708 0.277789,0.28345 0.386058,0.45247 0.02,0.0743 0.0781,0.12097 -0.0256,0.0474 0.03818,0.0297 -0.38223,0.56962 -0.420407,0.5399 l 0,0 c -0.05862,-0.0419 -0.10362,-0.0924 -0.156792,-0.13995 -0.09298,-0.10747 -0.233107,-0.17007 -0.333289,-0.27064 -0.173152,-0.16276 -0.367574,-0.30548 -0.507025,-0.50184 -0.09348,-0.1128 -0.169005,-0.23961 -0.268462,-0.34643 -0.169519,-0.14121 -0.330345,-0.29235 -0.484342,-0.45042 -0.168798,-0.20184 -0.343532,-0.39799 -0.481705,-0.62338 -0.104267,-0.18564 -0.245689,-0.35029 -0.32821,-0.54751 -0.07839,-0.16627 -0.109337,-0.34379 -0.173064,-0.51505 -0.11977,-0.21752 -0.266143,-0.41924 -0.367451,-0.64644 -0.03148,-0.0307 0.403281,-0.47591 0.434759,-0.44517 z"
       transform="translate(0,28.362183)" />
    <path
       style="fill:#000000;fill-opacity:1;fill-rule:nonzero;stroke:none"
       id="path4344"
       d="m 37.371193,529.57867 c 0.49989,-0.0465 1.006262,0.0278 1.504521,0.0734 0.624587,0.0575 1.246441,0.13576 1.867545,0.22234 0.567978,0.1056 1.136927,0.19751 1.710499,0.26671 0.83707,0.0561 1.676466,0.0387 2.514783,0.0563 0.592554,0.0117 1.18564,0.0621 1.757223,0.22298 0.146864,0.0649 0.294004,0.10395 0.451558,0.12193 0.10476,0.0473 0.108667,0.15286 0.129941,0.25371 0.0041,3.7e-4 -0.0012,0.0584 -0.0053,0.0581 l 0,0 c -0.04946,0.1183 -0.07798,0.22701 -0.214041,0.26185 -0.166145,0.003 -0.331613,-0.0407 -0.496806,0.004 -0.585266,0.0826 -1.172753,0.15755 -1.765075,0.1631 -0.879447,0.008 -1.758803,-0.043 -2.615072,-0.26103 -0.546538,-0.12177 -1.085287,-0.29602 -1.64602,-0.34048 -0.637245,-0.0506 -1.278757,-0.0595 -1.910404,-0.16777 -0.490677,-0.10231 -1.01569,-0.20406 -1.429158,-0.50448 -0.03043,-0.0103 0.115366,-0.44072 0.1458,-0.43041 z"
       transform="translate(0,28.362183)" />
    <path
       style="fill:#000000;fill-opacity:1;fill-rule:nonzero;stroke:none"
       id="path4346"
       d="m 38.529563,530.21057 c 0.05949,-0.002 0.119031,-0.01 0.178472,-0.006 0.560375,0.0303 1.183862,0.22674 1.724359,0.37123 0.816303,0.23355 1.626619,0.48675 2.43481,0.74685 0.669391,0.21333 1.344099,0.40773 2.026579,0.57444 0.562164,0.12111 1.115677,0.27464 1.66982,0.42702 0.380362,0.13484 0.78145,0.2015 1.160049,0.34006 0.156097,0.0694 0.189863,0.19241 0.229842,0.34351 0.0057,8.4e-4 -0.0062,0.0811 -0.0119,0.0802 l 0,0 c -0.113482,0.15399 -0.218251,0.2645 -0.424381,0.27153 -0.415354,-0.0245 -0.802717,-0.17733 -1.212572,-0.23984 -0.573656,-0.10446 -1.155763,-0.16295 -1.723212,-0.30185 -0.693371,-0.16966 -1.37888,-0.36922 -2.072601,-0.53781 -0.83667,-0.20723 -1.671916,-0.42528 -2.483755,-0.71731 -0.585031,-0.22749 -1.197502,-0.45341 -1.69208,-0.84975 -0.0355,-0.0139 0.161079,-0.51589 0.196575,-0.50199 z"
       transform="translate(0,28.362183)" />
    <path
       style="fill:#000000;fill-opacity:1;fill-rule:nonzero;stroke:none"
       id="path4348"
       d="m 37.708201,530.56069 c 0.433299,-0.23098 0.913552,-0.09 1.349569,0.0554 0.599253,0.25361 1.190138,0.52463 1.79714,0.75966 0.704415,0.26838 1.417212,0.51473 2.113185,0.80467 0.610188,0.24805 1.118215,0.5477 1.579778,1.01776 0.126957,0.13663 0.229102,0.29299 0.323554,0.45305 0.03851,0.0653 0.06762,0.14082 0.11189,0.20244 0.05257,-0.058 0.19951,-0.0112 0.268845,0.005 0.106154,0.0443 0.103879,0.16189 0.137856,0.25707 0.0026,-7e-5 0.0037,0.0373 0.001,0.0374 l 0,0 c -0.04252,0.11215 -0.05842,0.24107 -0.180773,0.29467 -0.250026,0.0757 -0.486451,0.05 -0.700891,-0.11037 -0.181134,-0.16178 -0.333262,-0.35249 -0.528473,-0.49887 -0.449696,-0.30915 -0.96022,-0.50348 -1.468174,-0.69582 -0.712055,-0.2661 -1.422282,-0.53805 -2.120879,-0.83804 -0.590142,-0.27096 -1.1629,-0.57012 -1.707033,-0.92586 -0.176273,-0.0928 -0.345835,-0.17336 -0.540736,-0.21992 -0.201627,-0.0482 -0.122056,-0.0116 -0.312832,-0.0614 -0.03868,-0.0101 -0.07595,-0.025 -0.113931,-0.0374 -0.03533,6.5e-4 -0.04447,-0.49901 -0.0091,-0.49965 z"
       transform="translate(0,28.362183)" />
    <path
       style="fill:#000000;fill-opacity:1;fill-rule:nonzero;stroke:none"
       id="path4350"
       d="m 38.780433,530.70259 c 0.355199,0.2725 0.667463,0.59772 1.005253,0.89227 0.412964,0.33396 0.854731,0.62951 1.290423,0.93242 0.340096,0.2414 0.664702,0.50364 1.002146,0.7487 0.317801,0.22984 0.644963,0.44587 0.975889,0.65618 0.210597,0.13374 0.438873,0.24413 0.607403,0.43229 0.170673,0.21405 0.190153,0.27322 -0.241869,0.4597 -0.04038,0.0174 -0.02015,-0.0856 -0.03022,-0.12844 -0.0042,-0.002 0.02167,-0.0613 0.02588,-0.0595 l 0,0 c 0.02077,-0.0319 0.09048,-0.12149 0.06231,-0.0958 -0.45945,0.41864 -0.309524,0.15802 -0.238488,0.38606 -0.188074,0.004 -0.49132,-0.1833 -0.661335,-0.2522 -0.3714,-0.20159 -0.725579,-0.43246 -1.053748,-0.69943 -0.310582,-0.2452 -0.617816,-0.49766 -0.968657,-0.68437 -0.509142,-0.29061 -1.034063,-0.56689 -1.456591,-0.98156 -0.348281,-0.35922 -0.70378,-0.75968 -0.818146,-1.26109 -0.02441,-0.0353 0.475337,-0.38055 0.499747,-0.34521 z"
       transform="translate(0,28.362183)" />
    <path
       style="fill:#000000;fill-opacity:1;fill-rule:nonzero;stroke:none"
       id="path4352"
       d="m 37.791482,530.78276 c 0.26963,0.34553 0.385449,0.78037 0.537364,1.18494 0.115128,0.3809 0.395071,0.64746 0.65396,0.93228 0.281578,0.29129 0.480295,0.63401 0.588617,1.02297 0.05774,0.27022 0.111104,0.53102 0.286098,0.75048 0.13723,0.15497 0.330764,0.25211 0.459689,0.41416 -0.173166,0.14687 0.06548,-0.0569 -0.404129,0.49493 -0.01962,0.023 -0.0038,-0.034 0.01604,-0.0702 0.03925,-0.0714 0.08484,-0.13925 0.125594,-0.20985 -0.0017,-9.3e-4 0.01147,-0.0246 0.01314,-0.0237 l 0,0 c 0.02991,-0.0322 0.0564,-0.0679 0.08973,-0.0965 0.428905,-0.36801 0.25971,0.58006 -0.174371,0.49264 -0.298825,-0.0853 -0.544477,-0.28855 -0.735492,-0.52962 -0.223319,-0.31802 -0.316359,-0.57493 -0.374711,-0.95734 -0.01413,-0.046 -0.05587,-0.18797 -0.0769,-0.23306 -0.09172,-0.19667 -0.260877,-0.3473 -0.398853,-0.50968 -0.317982,-0.34261 -0.62612,-0.69972 -0.814496,-1.13299 -0.164597,-0.42324 -0.306356,-0.87083 -0.28082,-1.33065 -0.01406,-0.0346 0.475472,-0.23345 0.489531,-0.19884 z"
       transform="translate(0,28.362183)" />
    <path
       style="fill:#000000;fill-opacity:1;fill-rule:nonzero;stroke:none"
       id="path4354"
       d="m 38.86095,559.00858 c 0.304158,-0.008 0.595001,0.086 0.886235,0.15896 0.315214,0.079 0.349058,0.083 0.675529,0.15237 0.878932,0.17438 1.775418,0.17306 2.667189,0.18752 0.796934,-10e-4 1.593829,-0.0115 2.390576,-0.0299 0.415506,0.0253 1.018517,-0.0941 1.339951,0.24198 0.04329,0.0453 0.06973,0.10407 0.104591,0.1561 0.0112,0.002 -0.01821,0.16053 -0.02941,0.15845 l 0,0 c -0.118494,0.11913 -0.17331,0.19337 -0.33433,0.26773 -0.359172,0.16587 -0.785534,0.1067 -1.164869,0.17073 -0.816755,0.0618 -1.6312,0.16243 -2.450502,0.18533 -0.976824,0.0173 -1.960256,-0.0537 -2.889534,-0.37994 -0.508567,-0.18848 -1.051634,-0.38068 -1.441831,-0.77353 -0.03506,-0.0174 0.211352,-0.5132 0.246408,-0.49578 z"
       transform="translate(0,28.362183)" />
    <path
       style="fill:#000000;fill-opacity:1;fill-rule:nonzero;stroke:none"
       id="path4356"
       d="m 39.91037,559.69316 c 0.385282,0.0617 0.744681,0.22192 1.11432,0.34114 0.433328,0.12801 0.864581,0.25477 1.274505,0.4471 0.297538,0.13801 0.558882,0.33892 0.849694,0.48935 0.30774,0.13418 0.620627,0.25534 0.928264,0.38997 0.176857,0.0925 0.350933,0.19245 0.547306,0.235 0.178951,0.0261 0.350696,0.0766 0.508967,0.165 0.125367,0.0645 0.255044,0.11916 0.382766,0.17916 0.10297,0.0434 0.206416,0.0847 0.309888,0.1267 0.02424,0.0115 0.151354,0.14161 0.130605,0.0675 0.09168,0.007 0.181173,0.0188 0.269819,0.0442 0.237189,0.0912 0.16144,0.12118 -0.05169,0.4744 -0.01109,0.0184 -0.01627,-0.0397 -0.0244,-0.0596 -0.0035,-9.3e-4 0.0097,-0.0502 0.01316,-0.0492 l 0,0 c 0.01723,-0.0157 0.05535,-0.0702 0.05169,-0.0472 -0.0222,0.13949 -0.07337,0.27281 -0.109341,0.40941 -0.01391,0.0528 -0.07175,0.015 -0.114417,0.0196 -0.129442,-0.0202 -0.250936,-0.0619 -0.364874,-0.1272 -0.02858,-0.021 -0.05575,-0.044 -0.08454,-0.0647 -0.0057,-0.004 -0.02446,-0.0143 -0.01852,-0.0105 0.01743,0.0113 0.113522,0.0425 0.03793,0.0484 -0.156805,-0.0262 -0.309019,-0.0679 -0.445521,-0.15349 -0.104635,-0.0602 -0.19853,-0.13593 -0.310644,-0.18222 -0.152471,-0.0247 -0.302146,-0.0615 -0.450301,-0.10479 -0.207653,-0.066 -0.413056,-0.14182 -0.626939,-0.18533 -0.369133,-0.10768 -0.73777,-0.22248 -1.055512,-0.44788 -0.236866,-0.15972 -0.457315,-0.34866 -0.732846,-0.43923 -0.435499,-0.1245 -0.882935,-0.20616 -1.307364,-0.36849 -0.358853,-0.15407 -0.720642,-0.32369 -1.011919,-0.58971 -0.04295,-0.0205 0.246956,-0.62795 0.289909,-0.60745 z"
       transform="translate(0,28.362183)" />
    <path
       style="fill:#000000;fill-opacity:1;fill-rule:nonzero;stroke:none"
       id="path4360"
       d="m 39.626163,593.56928 c 0.566581,-0.0363 1.130172,0.0812 1.690602,0.15213 0.539416,0.049 1.082409,0.046 1.623598,0.0437 0.561859,0.0196 1.12154,0.0763 1.680795,0.13148 0.55439,0.0608 1.101023,0.18569 1.656873,0.23064 0.458535,0.0449 0.914899,-0.0448 1.370116,-0.087 0.287246,-0.0283 0.588649,-0.0634 0.867177,0.0305 0.188342,0.5025 0.05424,1.25215 -0.294671,0.84871 -0.05352,-0.012 0.116304,-0.76895 0.169828,-0.75694 l 0,0 c -0.0088,-0.0223 -0.0227,-0.0433 -0.02626,-0.067 -0.0056,-0.0374 0.0085,-0.0391 0.03081,-0.0521 0.0081,0.31189 0.01629,0.62377 0.02443,0.93566 -0.13614,0.14526 -0.616988,0.16032 -0.799885,0.21035 -0.517405,0.0764 -1.039576,0.10261 -1.562415,0.0872 -0.575952,-0.042 -1.146466,-0.11338 -1.716011,-0.20963 -0.516436,-0.0851 -1.035679,-0.16385 -1.56005,-0.17236 -0.577294,-0.0231 -1.157505,0.0288 -1.732932,-0.0463 -0.574083,-0.0761 -1.17153,-0.18055 -1.66717,-0.49783 -0.05524,-0.0173 0.189929,-0.79851 0.245167,-0.78118 z"
       transform="translate(0,28.362183)" />
    <path
       style="fill:#000000;fill-opacity:1;fill-rule:nonzero;stroke:none"
       id="path4362"
       d="m 59.718136,404.57254 c 0.521068,-0.16062 1.067894,-0.12458 1.592223,-0.004 0.02624,0.007 0.364677,0.15635 0.357021,0.2032 -0.049,0.2999 -0.118344,0.84409 -0.294509,0.63921 -0.03302,-0.0384 -0.03953,-0.0933 -0.0593,-0.13987 -0.01173,-0.0443 -0.02345,-0.0887 -0.03518,-0.13299 -0.0049,-10e-4 0.0094,-0.0708 0.01436,-0.0697 l 0,0 c 0.02402,-0.041 0.04804,-0.082 0.07205,-0.12306 0.02266,-0.0451 0.04393,-0.0909 0.06798,-0.13528 0.0084,-0.0155 0.03141,-0.0616 0.0292,-0.0441 -0.02817,0.22264 -0.0723,0.44297 -0.107703,0.66457 -0.0019,0.0116 0.0059,0.0288 -0.0041,0.035 -0.07042,0.0441 -0.180083,-0.002 -0.24512,0.0454 -0.489938,0.0122 -0.988449,0.002 -1.46367,-0.12979 -0.05719,-0.005 0.01952,-0.81415 0.07671,-0.80873 z"
       transform="translate(0,28.362183)" />
    <path
       style="fill:#000000;fill-opacity:1;fill-rule:nonzero;stroke:none"
       id="path4364"
       d="m 62.21208,402.59838 c 0.522784,-0.20401 1.071649,-0.10334 1.579414,0.0915 0.245906,0.11573 0.59287,0.27162 0.69811,0.55374 0.02653,0.0711 0.03667,0.14734 0.05501,0.22101 -0.286084,0.37708 -0.270958,0.4762 -0.629489,0.33429 -0.01956,-0.008 0.03705,0.0232 0.05802,0.0248 0.07035,0.005 0.141081,-0.003 0.211622,-0.004 0.05995,-0.0491 0.110642,-0.1124 0.179863,-0.14719 0.06029,-0.0303 -0.04611,0.12742 -0.07866,0.18653 -0.126811,0.23028 -0.322223,0.40414 -0.51634,0.57674 -0.195704,0.15651 -0.427771,0.33506 -0.690312,0.31348 -5.82e-4,-0.25764 -0.04961,-0.51977 -0.0017,-0.77292 0.0099,-0.0525 0.102944,-0.0291 0.155352,-0.0395 0.296037,-0.0587 0.583448,-0.0455 0.882248,-0.024 0.365717,0.0439 0.734287,0.11481 1.064634,0.28218 0.363722,0.23154 0.445275,0.60991 0.443352,1.01369 -0.0081,0.4498 -0.130029,0.87681 -0.329275,1.27684 -0.223996,0.45365 -0.62799,0.7321 -1.064808,0.9524 -0.571927,0.25472 -1.189701,0.27301 -1.803809,0.24402 -0.353672,-0.0597 -0.731499,-0.0582 -0.877008,-0.45097 -0.0285,-0.0769 -0.02921,-0.16144 -0.04381,-0.24217 -0.0096,-0.006 0.07625,-0.14147 0.08583,-0.1354 l 0,0 c 0.05722,-0.0417 0.2877,-0.21427 0.350352,-0.23984 0.203278,-0.083 0.439323,-0.004 0.648622,-0.0394 0.48102,-1.6e-4 0.96618,-0.0241 1.4375,-0.12553 0.125299,-0.0349 0.158127,-0.0374 0.268034,-0.0899 0.108556,-0.0518 0.116337,-0.0943 -0.01323,0.066 -0.04004,0.0495 0.190114,-0.22144 0.110498,-0.15589 0.133721,-0.33276 0.205674,-0.68343 0.299954,-1.02852 0.02523,-0.0975 0.03342,-0.15443 0.07585,-0.24089 0.02492,-0.0508 0.108801,-0.008 0.03153,-0.0284 -0.288997,-0.0606 -0.584173,-0.0586 -0.877555,-0.0817 -0.06391,-0.006 -0.827151,-0.0845 -0.831959,-0.0981 -0.08431,-0.2401 -0.110831,-0.49672 -0.166246,-0.74509 -0.07366,-0.0756 0.361665,-0.37272 0.427095,-0.42565 0.388154,-0.32598 0.0055,-0.0249 0.07189,-0.027 0.102001,-0.003 0.437853,-0.42651 0.480449,-0.42402 0.277832,-0.0376 0.175082,-0.0599 0.354006,-0.002 0.0046,10e-4 -0.09634,-0.0279 -0.116566,-0.006 -0.106717,0.11375 -0.185311,0.25094 -0.277967,0.37642 0.01872,0.0573 0.03918,0.11399 0.05617,0.1718 0.0025,0.009 0.01078,0.0241 0.0022,0.0269 -0.07237,0.024 -0.414929,-0.13297 -0.492624,-0.1331 -0.398124,-0.0877 -0.79856,-0.15494 -1.196826,-0.24093 -0.05398,10e-4 -0.07339,-0.76209 -0.01941,-0.76347 z"
       transform="translate(0,28.362183)" />
    <path
       style="fill:#000000;fill-opacity:1;fill-rule:nonzero;stroke:none"
       id="path4366"
       d="m 66.246371,401.66999 c 0.143215,0.18457 0.12172,0.51041 0.336797,0.63361 0.141782,-0.0201 0.280237,-0.0979 0.408864,-0.16121 -0.02222,0.0934 0.07721,-0.06 0.05825,-0.0446 -0.178161,0.14509 -0.138144,0.18227 -0.119095,-0.0595 0.02788,-0.23646 0.03528,-0.46913 0.01536,-0.70598 -0.05806,-0.14139 -0.208635,-0.15205 -0.341182,-0.19071 -0.03859,-0.0128 -0.0778,-0.0239 -0.115759,-0.0385 -0.01334,-0.005 -0.322796,-0.14974 -0.260938,-0.12761 0.06359,0.0116 0.177476,-0.0288 0.05739,0.054 -0.07371,0.0508 -0.0857,0.0685 -0.151911,0.1334 -0.121835,0.0831 -0.429366,0.39482 -0.564751,0.39859 -0.45535,0.0127 0.233112,-0.2886 -0.347231,0.0273 -0.0076,0.0175 -0.25547,-0.0896 -0.247895,-0.10713 l 0,0 c 0.109748,-0.58018 0.318734,-0.98068 0.871215,-1.22176 0.178717,-0.0599 0.359147,-0.11781 0.549391,-0.12356 0.204067,0.0281 0.403538,0.0681 0.594547,0.14938 0.375527,0.1573 0.704878,0.38523 0.820228,0.79853 0.07878,0.34011 0.04378,0.69123 -0.08049,1.01821 -0.12234,0.32212 -0.245998,0.56841 -0.566404,0.74484 -0.335897,0.14775 -0.674404,0.22271 -1.021145,0.0487 -0.389362,-0.28825 -0.58446,-0.60559 -0.498496,-1.10262 -0.0087,-0.0427 0.594532,-0.16609 0.60326,-0.12343 z"
       transform="translate(0,28.362183)" />
  </g>
</svg>
