<?xml version="1.0" encoding="UTF-8" standalone="no"?>
<svg
   xmlns:dc="http://purl.org/dc/elements/1.1/"
   xmlns:cc="http://creativecommons.org/ns#"
   xmlns:rdf="http://www.w3.org/1999/02/22-rdf-syntax-ns#"
   xmlns:svg="http://www.w3.org/2000/svg"
   xmlns="http://www.w3.org/2000/svg"
   xmlns:xlink="http://www.w3.org/1999/xlink"
   version="1.0"
   height="32"
   width="32"
   id="svg2">
  <metadata
     id="metadata7">
    <rdf:RDF>
      <cc:Work
         rdf:about="">
        <dc:format>image/svg+xml</dc:format>
        <dc:type
           rdf:resource="http://purl.org/dc/dcmitype/StillImage" />
        <dc:title></dc:title>
      </cc:Work>
    </rdf:RDF>
  </metadata>
  <defs
     id="defs5" />
  <g
     transform="translate(0,-992)"
     style="display:none"
     id="layer2">
    <image
       width="32"
       height="1024"
       id="image2523"
       x="0"
       y="0"
       xlink:href="/home/elric/Desarrollo/hedgewars/hats/template.png" />
  </g>
  <g
     transform="translate(0,-992)"
     style="display:inline"
     id="layer1">
    <g
       transform="translate(0,96)"
       id="g3373" />
    <g
       id="g2491">
      <g
         id="g3402"
         transform="rotate(4.2765534,-13266.308,518.66384)">
        <path
           transform="rotate(-4.2765531,17.988761,22.65826)"
           id="path6884"
           d="m 3.6239223,23.355514 c 0.5771947,1.442096 1.4740369,2.16722 4.0292523,2.349874 1.5363354,0.109822 2.4900244,-4.633904 5.7604074,-5.816626 3.270383,-1.182721 7.118557,-1.252326 8.94867,-2.190102 1.830114,-0.937775 3.037853,-1.818111 2.916816,-3.447145 C 25.178623,12.899633 21.831922,11.599864 21.831922,11.599864 13.929956,9.8168898 1.8702748,18.974103 3.6239223,23.355514 Z"
           style="opacity:0.4;fill:#000000;fill-opacity:1;stroke:none" />
        <path
           id="path25587"
           d="m 7.5176752,23.878902 c 0.3204986,0.761327 2.1361753,1.830413 2.5445088,2.567403 0.429909,0.775932 1.399258,0.815055 2.074095,0.239306 0.82947,-0.707677 0.939956,-1.473102 0.640264,-1.817972 -1.38208,-1.59043 -1.775586,-0.319212 -2.17373,-3.06926 0.145201,-1.263199 1.201089,-1.817194 0.731029,-2.98201 -1.603213,-3.972791 -4.9883526,2.278068 -3.8161668,5.062533 z"
           style="fill:#642800;fill-opacity:1;stroke:#281000;stroke-width:1.25;stroke-linecap:round;stroke-linejoin:round;stroke-miterlimit:4;stroke-dasharray:none;stroke-opacity:1" />
        <path
           style="display:inline;fill:#f00000;fill-opacity:1;fill-rule:evenodd;stroke:none"
           d="m 18.038496,14.341499 c 3.37639,-1.331728 7.255202,0.465031 7.182998,-1.320727 C 25.151152,11.281063 25.042395,9.1179301 22.817302,9.5350182 20.234046,6.1071464 16.737549,4.2631614 11.973644,6.3619014 6.0666957,8.9642081 4.25645,13.726081 3.483518,16.423058 2.646189,19.344734 1.9915118,23.14018 2.5568061,24.114404 3.3953182,25.559488 6.8331257,26.336782 7.7998197,23.951305 9.8714763,19.043384 13.176369,16.259237 18.038496,14.341499 Z"
           id="path4337-7" />
        <path
           id="path25687"
           transform="rotate(-4.2765531,17.988761,22.65826)"
           d="m 18.03125,11.3125 c -4.908495,1.731987 -7.466411,2.08085 -9.8982864,6.820621 -0.9991529,2.018405 -5.0787841,3.307038 -4.0343909,-1.333947 -0.5234211,0.689735 -2.4344562,4.263504 -1.6266819,5.811423 0.5,1.625001 4.1049702,2.883651 5.2468592,0.576903 2.431875,-4.739771 5.945904,-7.262674 10.9375,-8.8125 3.466297,-1.07624 7.188838,1.00492 7.25,-0.78125 0.02094,-0.611483 -0.362502,-0.996468 -0.442862,-1.589689 0.02066,1.740635 -5.106535,-1.512162 -7.432138,-0.691561 z"
           style="display:inline;fill:#b40000;fill-opacity:1;fill-rule:evenodd;stroke:none" />
        <path
           id="path25685"
           d="m 18.038496,14.341498 c 3.37639,-1.331728 6.458657,0.313127 7.182998,-1.320726 0.426529,-0.962096 0.28341,-2.746612 -2.404192,-3.4857538 C 20.234046,6.1071464 16.354272,4.1664734 11.590367,6.2652134 5.6834185,8.8675201 4.0816388,13.579081 3.3788201,16.394173 2.6111238,19.469128 1.5308644,22.287471 2.4024451,24.14039 3.1240772,25.674528 6.8220105,26.780789 7.7887045,24.395311 9.8603611,19.48739 13.176369,16.259236 18.038496,14.341498 Z"
           style="display:inline;fill:none;stroke:#640000;stroke-width:1.5;stroke-linecap:butt;stroke-linejoin:round;stroke-miterlimit:4;stroke-dasharray:none;stroke-opacity:1" />
        <path
           id="path2904"
           d="m 23.843253,21.455191 c -2.080785,1.480589 -5.415057,3.210874 -7.1663,3.13022 2.035239,1.307979 4.691586,1.345471 8.015782,-0.78771 3.11084,-1.946423 2.199756,-4.333433 2.037705,-5.591938 -0.06917,1.423839 -0.894397,1.831452 -2.887187,3.249428 z"
           style="color:#000000;display:inline;overflow:visible;visibility:visible;fill:#642800;fill-opacity:1;fill-rule:nonzero;stroke:#281000;stroke-width:1.25;stroke-linecap:round;stroke-linejoin:round;stroke-miterlimit:4;stroke-dasharray:none;stroke-dashoffset:0;stroke-opacity:1;marker:none;enable-background:accumulate" />
        <path
           transform="rotate(-4.2765531,17.988761,22.65826)"
           id="path25589"
           d="m 22.48281,19.53467 c 0.562612,0.001 0.915646,-1.217682 2.36948,-1.119481 1.55925,0.105321 1.915265,1.978078 1.369481,3.306442 -0.666673,1.622591 -3.652412,0.51961 -3.652412,0.51961"
           style="fill:#f6a2ec;fill-opacity:1;stroke:#a0096d;stroke-width:1px;stroke-linecap:round;stroke-linejoin:round;stroke-opacity:1" />
        <path
           id="path25591"
           d="M 16.924447,13.286381 C 18.767428,12.358186 20.705864,12.130383 20.144755,9.8961014 19.583646,7.6618199 17.596968,6.5837371 14.860392,7.1479806 12.129283,7.711097 9.9673074,10.782368 10.807696,13.038614 c 0.824569,2.213776 4.27377,1.175965 6.116751,0.247767 z"
           style="fill:#ffffff;fill-opacity:1;stroke:none" />
        <path
           style="color:#000000;display:inline;overflow:visible;visibility:visible;fill:#ff0000;fill-opacity:1;fill-rule:evenodd;stroke:none;stroke-width:1.5;marker:none;enable-background:accumulate"
           d="m 11.689265,18.044561 c 1.705937,-0.639372 7.211166,-0.593002 10.463855,-2.280792 2.595621,-1.346844 1.975541,-1.61332 0.133898,-2.363141 0,0 -1.967801,-0.796584 -4.116787,-0.09036 -2.120181,0.696756 -5.576177,3.115124 -6.480966,4.734293 z"
           id="path4335-4" />
        <path
           id="path6918"
           transform="rotate(-4.2765531,17.988761,22.65826)"
           d="m 19.03125,11.1875 c -0.362724,-0.007 -0.7093,0.02243 -1,0.125 -2.524229,0.890687 -4.249385,1.384161 -5.65625,2.3125 1.330629,0.817878 3.770904,0.205053 5.25,-0.40625 1.399696,-0.578486 2.809842,-0.75667 3.3125,-1.71875 -0.667516,-0.176268 -1.320656,-0.301183 -1.90625,-0.3125 z"
           style="display:inline;fill:#b3b3b3;fill-opacity:1;fill-rule:evenodd;stroke:none" />
        <path
           id="path6890"
           transform="rotate(-4.2765531,17.988761,22.65826)"
           d="m 18.6875,13.46875 c -2.16737,0.457853 -4.725147,2.229164 -4.936199,2.730393 -0.692418,1.644432 4.604435,1.156299 7.191561,0.46783 C 22.236415,16.322741 24.56099,15.592464 24.53125,14.875 24.48244,13.697593 20.976749,12.98515 18.6875,13.46875 Z m 0.808439,0.966529 c 1.313746,-0.355882 2.693588,-0.536501 3.479474,0.25 0.426916,0.427251 -1.61535,1.017164 -2.194163,1.189721 -1.297879,0.386927 -2.536938,0.361674 -3.885723,0.239277 -1.333541,-0.121014 1.853073,-1.47655 2.600412,-1.678998 z"
           style="fill:#b40000;fill-opacity:1;stroke:none" />
        <path
           id="path25593"
           d="m 12.774335,9.2280158 c 0.927226,1.5034432 1.484329,2.7243392 1.947436,4.0409002"
           style="display:inline;fill:none;stroke:#640000;stroke-width:1.20000005;stroke-linecap:round;stroke-linejoin:miter;stroke-miterlimit:4;stroke-dasharray:none;stroke-opacity:1" />
        <path
           id="path25595"
           d="m 17.235412,7.7280703 c 0.294539,0.6360854 0.901493,2.5109577 0.811345,3.8736687"
           style="display:inline;fill:none;stroke:#640000;stroke-width:1.20000005;stroke-linecap:round;stroke-linejoin:miter;stroke-miterlimit:4;stroke-dasharray:none;stroke-opacity:1" />
        <path
           id="path25597"
           d="m 14.141436,11.143949 c 1.13593,-0.339293 2.504999,-0.723634 3.265984,-1.386678"
           style="display:inline;fill:none;stroke:#640000;stroke-width:1.20000005;stroke-linecap:round;stroke-linejoin:round;stroke-miterlimit:4;stroke-dasharray:none;stroke-opacity:1" />
        <path
           id="path6886"
           d="m 11.689265,18.044561 c 1.705937,-0.639372 7.211166,-0.593002 10.463855,-2.280792 2.595621,-1.346844 1.975541,-1.61332 0.133898,-2.363141 0,0 -1.967801,-0.796584 -4.116787,-0.09036 -2.120181,0.696756 -5.576177,3.115124 -6.480966,4.734293 z"
           style="color:#000000;display:inline;overflow:visible;visibility:visible;fill:none;stroke:#640000;stroke-width:1.5;stroke-linecap:butt;stroke-linejoin:round;stroke-miterlimit:4;stroke-dasharray:none;stroke-dashoffset:0;stroke-opacity:1;marker:none;enable-background:accumulate" />
      </g>
    </g>
  </g>
  <g
     transform="translate(0,-992)"
     style="display:none"
     id="layer3">
    <g
       transform="translate(0,1)"
       id="g3322">
      <path
         style="display:inline;overflow:visible;visibility:visible;fill:#ffffff;fill-opacity:1;fill-rule:nonzero;stroke:none;stroke-width:0.80000001;marker:none;enable-background:accumulate"
         d="M 0.0044785,-0.99790095 H 32.009293 L 31.997573,1022.9989 H 0.0044775 V -0.99400095 Z"
         id="rect2443" />
      <path
         id="path3221"
         d="m 15.955933,29.60177 c 0,1.872831 -1.471493,2.530858 -3.576496,2.530858 -2.105003,0 -3.4341742,-0.425053 -3.4341742,-2.530858 0,-2.136724 1.3291712,-2.733595 3.4341742,-2.733595 2.105003,0 3.576496,0.831649 3.576496,2.733595 z"
         style="display:inline;overflow:visible;visibility:visible;fill:#000000;fill-opacity:1;fill-rule:nonzero;stroke:none;stroke-width:0.80000001;marker:none;enable-background:accumulate" />
      <use
         x="0"
         y="0"
         xlink:href="#path3221"
         id="use3223"
         transform="translate(0.04419417,33.017321)"
         width="32"
         height="1024" />
      <use
         x="0"
         y="0"
         xlink:href="#use3223"
         id="use3225"
         transform="translate(0.9722718,33.013048)"
         width="32"
         height="1024" />
      <use
         x="0"
         y="0"
         xlink:href="#use3225"
         id="use3227"
         transform="translate(-1.016466,30.980116)"
         width="32"
         height="1024" />
      <use
         x="0"
         y="0"
         xlink:href="#use3227"
         id="use3229"
         transform="translate(-0.1767767,30.980116)"
         width="32"
         height="1024" />
      <use
         x="0"
         y="0"
         xlink:href="#use3229"
         id="use3231"
         transform="translate(0.3093592,31.952388)"
         width="32"
         height="1024" />
      <use
         x="0"
         y="0"
         xlink:href="#use3231"
         id="use3233"
         transform="translate(-0.08838835,33.013048)"
         width="32"
         height="1024" />
      <use
         x="0"
         y="0"
         xlink:href="#use3233"
         id="use3235"
         transform="translate(0.9280776,33.189824)"
         width="32"
         height="1024" />
      <use
         x="0"
         y="0"
         xlink:href="#use3235"
         id="use3237"
         transform="translate(-1.016466,30.891727)"
         width="32"
         height="1024" />
      <use
         x="0"
         y="0"
         xlink:href="#use3237"
         id="use3239"
         transform="translate(0.08838835,30.803339)"
         width="32"
         height="1024" />
      <use
         x="0"
         y="0"
         xlink:href="#use3239"
         id="use3241"
         transform="translate(-0.08838835,32.08497)"
         width="32"
         height="1024" />
      <use
         x="0"
         y="0"
         xlink:href="#use3241"
         id="use3243"
         transform="translate(0,33.101436)"
         width="32"
         height="1024" />
      <use
         x="0"
         y="0"
         xlink:href="#use3243"
         id="use3245"
         transform="translate(1.016466,32.880465)"
         width="32"
         height="1024" />
      <use
         x="0"
         y="0"
         xlink:href="#use3245"
         id="use3247"
         transform="translate(-0.8838835,31.156892)"
         width="32"
         height="1024" />
      <use
         x="0"
         y="0"
         xlink:href="#use3247"
         id="use3249"
         transform="translate(0,30.847533)"
         width="32"
         height="1024" />
      <use
         x="0"
         y="0"
         xlink:href="#use3249"
         id="use3251"
         transform="translate(0,31.996582)"
         width="32"
         height="1024" />
      <use
         x="0"
         y="0"
         xlink:href="#use3251"
         id="use3253"
         transform="translate(-0.04419417,30.007844)"
         width="32"
         height="1024" />
      <use
         x="0"
         y="0"
         xlink:href="#use3253"
         id="use3255"
         transform="translate(-0.04419417,33.013048)"
         width="32"
         height="1024" />
      <use
         x="0"
         y="0"
         xlink:href="#use3255"
         id="use3257"
         transform="translate(0,33.013048)"
         width="32"
         height="1024" />
    </g>
  </g>
</svg>
