<?xml version="1.0" encoding="UTF-8" standalone="no"?>
<!-- Created with Inkscape (http://www.inkscape.org/) -->

<svg
   xmlns:dc="http://purl.org/dc/elements/1.1/"
   xmlns:cc="http://creativecommons.org/ns#"
   xmlns:rdf="http://www.w3.org/1999/02/22-rdf-syntax-ns#"
   xmlns:svg="http://www.w3.org/2000/svg"
   xmlns="http://www.w3.org/2000/svg"
   xmlns:xlink="http://www.w3.org/1999/xlink"
   xmlns:sodipodi="http://sodipodi.sourceforge.net/DTD/sodipodi-0.dtd"
   xmlns:inkscape="http://www.inkscape.org/namespaces/inkscape"
   inkscape:export-ydpi="90"
   inkscape:export-xdpi="90"
   inkscape:export-filename="/mnt/y/src/hedge/trunk/share/hedgewars/Data/Themes/nature/mushroom.png"
   width="76.411766"
   height="78.8339"
   id="svg2"
   version="1.1"
   inkscape:version="0.47 r22583"
   sodipodi:docname="mushroom.svg">
  <title
     id="title3644">Mushroom</title>
  <sodipodi:namedview
     id="base"
     pagecolor="#130e0b"
     bordercolor="#666666"
     borderopacity="1.0"
     inkscape:pageopacity="0"
     inkscape:pageshadow="2"
     inkscape:zoom="16"
     inkscape:cx="38.333824"
     inkscape:cy="61.772023"
     inkscape:document-units="px"
     inkscape:current-layer="layer1"
     showgrid="false"
     showguides="true"
     inkscape:guide-bbox="true"
     inkscape:window-width="981"
     inkscape:window-height="753"
     inkscape:window-x="244"
     inkscape:window-y="104"
     inkscape:window-maximized="0"
     inkscape:snap-smooth-nodes="true" />
  <defs
     id="defs4">
    <inkscape:path-effect
       effect="spiro"
       id="path-effect4290"
       is_visible="true" />
    <inkscape:path-effect
       effect="spiro"
       id="path-effect4286"
       is_visible="true" />
    <inkscape:path-effect
       effect="spiro"
       id="path-effect4282"
       is_visible="true" />
    <inkscape:path-effect
       effect="spiro"
       id="path-effect4278"
       is_visible="true" />
    <inkscape:path-effect
       effect="spiro"
       id="path-effect4274"
       is_visible="true" />
    <inkscape:perspective
       sodipodi:type="inkscape:persp3d"
       inkscape:vp_x="0 : 526.18109 : 1"
       inkscape:vp_y="0 : 1000 : 0"
       inkscape:vp_z="744.09448 : 526.18109 : 1"
       inkscape:persp3d-origin="372.04724 : 350.78739 : 1"
       id="perspective10" />
    <inkscape:perspective
       sodipodi:type="inkscape:persp3d"
       inkscape:vp_x="0 : 0.5 : 1"
       inkscape:vp_y="0 : 1000 : 0"
       inkscape:vp_z="1 : 0.5 : 1"
       inkscape:persp3d-origin="0.5 : 0.33333333 : 1"
       id="perspective3613" />
    <inkscape:perspective
       sodipodi:type="inkscape:persp3d"
       inkscape:vp_x="0 : 0.5 : 1"
       inkscape:vp_y="0 : 1000 : 0"
       inkscape:vp_z="1 : 0.5 : 1"
       inkscape:persp3d-origin="0.5 : 0.33333333 : 1"
       id="perspective2889" />
    <inkscape:perspective
       sodipodi:type="inkscape:persp3d"
       inkscape:vp_x="0 : 0.5 : 1"
       inkscape:vp_y="0 : 1000 : 0"
       inkscape:vp_z="1 : 0.5 : 1"
       inkscape:persp3d-origin="0.5 : 0.33333333 : 1"
       id="perspective3662" />
    <inkscape:perspective
       sodipodi:type="inkscape:persp3d"
       inkscape:vp_x="0 : 0.5 : 1"
       inkscape:vp_y="0 : 1000 : 0"
       inkscape:vp_z="1 : 0.5 : 1"
       inkscape:persp3d-origin="0.5 : 0.33333333 : 1"
       id="perspective2895" />
    <inkscape:perspective
       sodipodi:type="inkscape:persp3d"
       inkscape:vp_x="0 : 0.5 : 1"
       inkscape:vp_y="0 : 1000 : 0"
       inkscape:vp_z="1 : 0.5 : 1"
       inkscape:persp3d-origin="0.5 : 0.33333333 : 1"
       id="perspective3734" />
    <radialGradient
       gradientUnits="userSpaceOnUse"
       gradientTransform="matrix(1.1455354,0.10723205,-0.07992099,0.85377761,-7.1834567,-0.63661276)"
       r="22.163744"
       fy="84.61351"
       fx="94.771332"
       cy="84.61351"
       cx="94.771332"
       id="radialGradient3712"
       xlink:href="#linearGradient3704"
       inkscape:collect="always" />
    <linearGradient
       id="linearGradient3704">
      <stop
         id="stop3706"
         offset="0"
         style="stop-color:#eea1e6;stop-opacity:1;" />
      <stop
         style="stop-color:#eea1e6;stop-opacity:1;"
         offset="0.67803818"
         id="stop3720" />
      <stop
         style="stop-color:#eea1e6;stop-opacity:0.58823532;"
         offset="0.72211838"
         id="stop3714" />
      <stop
         id="stop3716"
         offset="0.86243427"
         style="stop-color:#eea1e6;stop-opacity:0.58823532;" />
      <stop
         style="stop-color:#eea1e6;stop-opacity:0.19607843;"
         offset="0.90321583"
         id="stop3718" />
      <stop
         id="stop3708"
         offset="1"
         style="stop-color:#eea1e6;stop-opacity:0.19607843;" />
    </linearGradient>
    <radialGradient
       r="22.163744"
       fy="84.61351"
       fx="94.771332"
       cy="84.61351"
       cx="94.771332"
       gradientTransform="matrix(1.1455354,0.10723205,-0.07992099,0.85377761,190.77114,513.82394)"
       gradientUnits="userSpaceOnUse"
       id="radialGradient3782"
       xlink:href="#linearGradient3704"
       inkscape:collect="always" />
    <radialGradient
       r="22.163744"
       fy="84.61351"
       fx="94.771332"
       cy="84.61351"
       cx="94.771332"
       gradientTransform="matrix(1.1455354,0.10723205,-0.07992099,0.85377761,290.77114,513.82394)"
       gradientUnits="userSpaceOnUse"
       id="radialGradient3729"
       xlink:href="#linearGradient3704"
       inkscape:collect="always" />
    <radialGradient
       inkscape:collect="always"
       xlink:href="#linearGradient3704"
       id="radialGradient4027"
       gradientUnits="userSpaceOnUse"
       gradientTransform="matrix(1.1455354,0.10723205,-0.07992099,0.85377761,290.77114,473.82394)"
       cx="94.771332"
       cy="84.61351"
       fx="94.771332"
       fy="84.61351"
       r="22.163744" />
    <inkscape:perspective
       id="perspective3680"
       inkscape:persp3d-origin="0.5 : 0.33333333 : 1"
       inkscape:vp_z="1 : 0.5 : 1"
       inkscape:vp_y="0 : 1000 : 0"
       inkscape:vp_x="0 : 0.5 : 1"
       sodipodi:type="inkscape:persp3d" />
    <inkscape:perspective
       id="perspective3703"
       inkscape:persp3d-origin="0.5 : 0.33333333 : 1"
       inkscape:vp_z="1 : 0.5 : 1"
       inkscape:vp_y="0 : 1000 : 0"
       inkscape:vp_x="0 : 0.5 : 1"
       sodipodi:type="inkscape:persp3d" />
    <inkscape:perspective
       id="perspective3627"
       inkscape:persp3d-origin="0.5 : 0.33333333 : 1"
       inkscape:vp_z="1 : 0.5 : 1"
       inkscape:vp_y="0 : 1000 : 0"
       inkscape:vp_x="0 : 0.5 : 1"
       sodipodi:type="inkscape:persp3d" />
    <inkscape:perspective
       id="perspective3650"
       inkscape:persp3d-origin="0.5 : 0.33333333 : 1"
       inkscape:vp_z="1 : 0.5 : 1"
       inkscape:vp_y="0 : 1000 : 0"
       inkscape:vp_x="0 : 0.5 : 1"
       sodipodi:type="inkscape:persp3d" />
    <inkscape:perspective
       id="perspective3678"
       inkscape:persp3d-origin="0.5 : 0.33333333 : 1"
       inkscape:vp_z="1 : 0.5 : 1"
       inkscape:vp_y="0 : 1000 : 0"
       inkscape:vp_x="0 : 0.5 : 1"
       sodipodi:type="inkscape:persp3d" />
    <inkscape:perspective
       id="perspective3678-6"
       inkscape:persp3d-origin="0.5 : 0.33333333 : 1"
       inkscape:vp_z="1 : 0.5 : 1"
       inkscape:vp_y="0 : 1000 : 0"
       inkscape:vp_x="0 : 0.5 : 1"
       sodipodi:type="inkscape:persp3d" />
    <inkscape:perspective
       id="perspective3645"
       inkscape:persp3d-origin="0.5 : 0.33333333 : 1"
       inkscape:vp_z="1 : 0.5 : 1"
       inkscape:vp_y="0 : 1000 : 0"
       inkscape:vp_x="0 : 0.5 : 1"
       sodipodi:type="inkscape:persp3d" />
    <inkscape:perspective
       id="perspective3659"
       inkscape:persp3d-origin="0.5 : 0.33333333 : 1"
       inkscape:vp_z="1 : 0.5 : 1"
       inkscape:vp_y="0 : 1000 : 0"
       inkscape:vp_x="0 : 0.5 : 1"
       sodipodi:type="inkscape:persp3d" />
    <filter
       inkscape:collect="always"
       id="filter3721"
       color-interpolation-filters="sRGB">
      <feGaussianBlur
         inkscape:collect="always"
         stdDeviation="0.063165401"
         id="feGaussianBlur3723" />
    </filter>
    <filter
       inkscape:collect="always"
       id="filter3725"
       color-interpolation-filters="sRGB">
      <feGaussianBlur
         inkscape:collect="always"
         stdDeviation="0.08413233"
         id="feGaussianBlur3727" />
    </filter>
    <inkscape:perspective
       id="perspective3761"
       inkscape:persp3d-origin="0.5 : 0.33333333 : 1"
       inkscape:vp_z="1 : 0.5 : 1"
       inkscape:vp_y="0 : 1000 : 0"
       inkscape:vp_x="0 : 0.5 : 1"
       sodipodi:type="inkscape:persp3d" />
    <inkscape:perspective
       id="perspective3645-5"
       inkscape:persp3d-origin="0.5 : 0.33333333 : 1"
       inkscape:vp_z="1 : 0.5 : 1"
       inkscape:vp_y="0 : 1000 : 0"
       inkscape:vp_x="0 : 0.5 : 1"
       sodipodi:type="inkscape:persp3d" />
    <inkscape:perspective
       id="perspective4300"
       inkscape:persp3d-origin="0.5 : 0.33333333 : 1"
       inkscape:vp_z="1 : 0.5 : 1"
       inkscape:vp_y="0 : 1000 : 0"
       inkscape:vp_x="0 : 0.5 : 1"
       sodipodi:type="inkscape:persp3d" />
    <inkscape:path-effect
       effect="spiro"
       id="path-effect4278-0"
       is_visible="true" />
    <inkscape:perspective
       id="perspective4300-6"
       inkscape:persp3d-origin="0.5 : 0.33333333 : 1"
       inkscape:vp_z="1 : 0.5 : 1"
       inkscape:vp_y="0 : 1000 : 0"
       inkscape:vp_x="0 : 0.5 : 1"
       sodipodi:type="inkscape:persp3d" />
    <inkscape:path-effect
       effect="spiro"
       id="path-effect4278-1"
       is_visible="true" />
    <inkscape:perspective
       id="perspective4300-63"
       inkscape:persp3d-origin="0.5 : 0.33333333 : 1"
       inkscape:vp_z="1 : 0.5 : 1"
       inkscape:vp_y="0 : 1000 : 0"
       inkscape:vp_x="0 : 0.5 : 1"
       sodipodi:type="inkscape:persp3d" />
    <inkscape:path-effect
       effect="spiro"
       id="path-effect4278-2"
       is_visible="true" />
    <inkscape:perspective
       id="perspective4300-61"
       inkscape:persp3d-origin="0.5 : 0.33333333 : 1"
       inkscape:vp_z="1 : 0.5 : 1"
       inkscape:vp_y="0 : 1000 : 0"
       inkscape:vp_x="0 : 0.5 : 1"
       sodipodi:type="inkscape:persp3d" />
    <inkscape:path-effect
       effect="spiro"
       id="path-effect4278-5"
       is_visible="true" />
  </defs>
  <metadata
     id="metadata7">
    <rdf:RDF>
      <cc:Work
         rdf:about="">
        <dc:format>image/svg+xml</dc:format>
        <dc:type
           rdf:resource="http://purl.org/dc/dcmitype/StillImage" />
        <dc:title>Mushroom</dc:title>
        <dc:creator>
          <cc:Agent>
            <dc:title>Carlos Vives B.</dc:title>
          </cc:Agent>
        </dc:creator>
        <cc:license
           rdf:resource="http://creativecommons.org/licenses/by/3.0/" />
      </cc:Work>
      <cc:License
         rdf:about="http://creativecommons.org/licenses/by/3.0/">
        <cc:permits
           rdf:resource="http://creativecommons.org/ns#Reproduction" />
        <cc:permits
           rdf:resource="http://creativecommons.org/ns#Distribution" />
        <cc:requires
           rdf:resource="http://creativecommons.org/ns#Notice" />
        <cc:requires
           rdf:resource="http://creativecommons.org/ns#Attribution" />
        <cc:permits
           rdf:resource="http://creativecommons.org/ns#DerivativeWorks" />
      </cc:License>
    </rdf:RDF>
  </metadata>
  <g
     transform="translate(-24.966168,-638.07839)"
     inkscape:label="Capa 1"
     inkscape:groupmode="layer"
     id="layer1">
    <path
       style="color:#000000;fill:#6b9d00;fill-opacity:1;fill-rule:nonzero;stroke:#101d01;stroke-width:1;stroke-linecap:round;stroke-linejoin:round;stroke-miterlimit:4;stroke-opacity:1;stroke-dasharray:none;stroke-dashoffset:0;marker:none;visibility:visible;display:inline;overflow:visible;enable-background:accumulate"
       d="m 47.673319,713.73904 c -1.427731,-2.7714 -2.130322,-5.20203 -7.531481,-8.97367 3.784618,5.39667 3.382493,6.42555 3.619836,9.06565"
       id="path3674"
       sodipodi:nodetypes="ccc" />
    <path
       style="color:#000000;fill:#6b9d00;fill-opacity:1;fill-rule:nonzero;stroke:#101d01;stroke-width:0.99999994;stroke-linecap:round;stroke-linejoin:round;stroke-miterlimit:4;stroke-opacity:1;stroke-dasharray:none;stroke-dashoffset:0;marker:none;visibility:visible;display:inline;overflow:visible;enable-background:accumulate"
       d="m 53.453324,714.26133 c 1.618257,-1.42591 4.055128,-3.46294 10.177056,-5.40348 -4.289665,2.77664 -5.4744,4.09245 -5.743414,5.4508"
       id="path3635"
       sodipodi:nodetypes="ccc" />
    <path
       style="fill:#f0dfbf;fill-opacity:1;stroke:none"
       d="m 45.890423,711.97457 c -3.009088,-5.88124 9.280996,-20.76663 10.390759,-31.90779 0.448475,-4.50231 -3.990036,-9.67417 -1.571737,-13.48194 1.109021,-1.74622 4.124859,-3.01795 5.860804,-1.91054 2.460277,1.56947 1.287958,5.80703 1.157965,8.74516 -0.602641,13.62087 -1.099313,35.27392 -8.927102,39.8954 -2.02432,1.19515 -5.833832,0.76442 -6.910689,-1.34029 z"
       id="path2849"
       sodipodi:nodetypes="caaaass" />
    <path
       style="fill:#c6b38e;fill-opacity:1;stroke:none;filter:url(#filter3725)"
       d="m -163.0625,128.75 c 0.68448,2.51095 1.13317,5.07183 0.875,7.625 -0.40541,4.00932 -1.55861,8.15614 -3.125,12.34375 3.86803,2.49789 7.64551,2.53986 11.25,0.75 0.21137,-6.93717 0.28179,-13.81274 0.4375,-20.1875 -3.11055,-0.19195 -6.26576,-0.37364 -9.4375,-0.53125 z"
       transform="matrix(0.48385659,0,0,0.49118125,135.36284,613.14909)"
       id="path3683" />
    <path
       style="fill:#94815c;fill-opacity:1;stroke:none;filter:url(#filter3721)"
       d="m -163.0625,128.75 c 0.68448,2.51095 1.13317,5.07183 0.875,7.625 -0.22557,2.23081 -0.71671,4.48206 -1.34375,6.78125 2.83811,1.127 6.05636,1.23187 9.59375,0.4375 0.10042,-4.91433 0.20116,-9.75416 0.3125,-14.3125 -3.11055,-0.19195 -6.26576,-0.37364 -9.4375,-0.53125 z"
       transform="matrix(0.48385659,0,0,0.49118125,135.36284,613.14909)"
       id="path3688" />
    <path
       sodipodi:nodetypes="caaaass"
       id="path3797"
       d="m 45.890423,711.97459 c -2.23136,-4.37498 9.280996,-20.76664 10.390757,-31.9078 0.448476,-4.50232 -3.990035,-9.67418 -1.571736,-13.48194 1.109021,-1.74623 4.12486,-3.01794 5.860803,-1.91055 2.46028,1.56948 1.287963,5.80703 1.157967,8.74517 -0.60264,13.62086 -2.477993,34.95698 -8.927102,39.89539 -1.866432,1.42922 -5.836531,0.76581 -6.910689,-1.34027 z"
       style="fill:none;stroke:#191205;stroke-width:2;stroke-miterlimit:4;stroke-opacity:0.97174647000000003;stroke-dasharray:none" />
    <path
       style="fill:#9f5833;fill-opacity:1;stroke:none"
       d="m 32.036934,669.82378 c -0.367145,-4.7633 8.391294,-4.35058 12.601431,-6.49666 5.301603,-2.70245 10.063749,-8.81078 15.940975,-8.03366 6.792676,0.89819 10.547141,8.8866 15.425685,13.76083 4.582318,4.57827 20.191788,11.70869 12.961208,14.50069 -5.087072,1.96429 -12.240118,-1.66137 -20.853263,-3.55792 -13.31152,-2.93108 -35.441901,-1.94617 -36.076036,-10.17328 z"
       id="path2853"
       sodipodi:nodetypes="caaasss" />
    <path
       sodipodi:nodetypes="caaasss"
       id="path3737"
       d="m 32.972981,667.14146 c -0.237585,-2.72737 7.883741,-2.25361 11.665384,-3.81434 5.500273,-2.27003 10.063749,-8.81078 15.940975,-8.03366 6.792676,0.89819 10.458165,8.98559 15.425685,13.76083 3.870036,3.72023 15.82332,11.18287 11.186454,11.5853 -5.419449,0.47035 -11.110525,-2.88891 -19.72367,-4.78545 -13.311518,-2.93109 -33.778671,-0.49151 -34.494828,-8.71268 z"
       style="fill:#c4752e;fill-opacity:1;stroke:none" />
    <path
       style="fill:#c5b77b;stroke:none;stroke-width:1px;stroke-linecap:butt;stroke-linejoin:miter;stroke-opacity:1;opacity:0.29999999999999999;color:#000000;fill-opacity:1;fill-rule:nonzero;marker:none;visibility:visible;display:inline;overflow:visible;enable-background:accumulate"
       d="M 16.30765,35.700387 C 15.754009,35.551844 15.192283,35.414838 14.676602,35.164524 14.160922,34.91421 13.686613,34.53607 13.435029,34.021008 13.219126,33.578995 13.182634,33.05884 13.300017,32.581126 13.4174,32.103412 13.682821,31.668179 14.0284,31.318088 c 0.691159,-0.700183 1.666289,-1.046499 2.632804,-1.230361 0.793379,-0.150926 1.610519,-0.207009 2.410005,-0.09277 0.799485,0.114241 1.582112,0.404305 2.221655,0.897471 0.639543,0.493167 1.128277,1.196927 1.299731,1.986124 0.171454,0.789197 0.0067,1.659032 -0.495508,2.291503 -0.320424,0.40354 -0.764412,0.700562 -1.246788,0.881751 -0.482376,0.181188 -1.00234,0.250033 -1.517568,0.242583 -1.030457,-0.0149 -2.02972,-0.326947 -3.025081,-0.594004"
       id="path4280"
       inkscape:path-effect="#path-effect4282"
       inkscape:original-d="m 16.30765,35.700387 c -1.082713,-0.240799 -2.676877,-0.587621 -2.872621,-1.679379 -0.299255,-1.669096 1.53416,-3.821406 3.226175,-3.933281 2.475163,-0.163656 6.240221,2.73579 5.435883,5.08233 -0.628372,1.833187 -3.897764,0.951044 -5.789437,0.53033 z"
       transform="translate(24.966168,638.07839)"
       sodipodi:nodetypes="caaaa" />
    <path
       style="opacity:0.65;fill:#d38641;fill-opacity:1;stroke:none"
       d="m 45.509853,662.78029 c -2.88672,2.76859 2.51664,4.51106 5.290648,4.76957 5.316535,0.49546 13.580743,2.09313 17.478477,2.90821 4.083475,0.85392 8.035944,0.92472 6.485155,-2.29765 -3.677926,-5.2292 -7.898409,-11.98758 -14.184374,-12.8642 -5.535123,-0.77192 -9.763144,4.6928 -15.069906,7.48407 z"
       id="path3747"
       sodipodi:nodetypes="csscac" />
    <path
       style="opacity:0.20000000000000001;fill:#e9e5cb;fill-opacity:1;stroke:none"
       d="m 53.092507,658.95358 c 0.647448,-0.61735 1.148576,-1.37662 1.808532,-1.98059 0.329978,-0.30198 0.701659,-0.56491 1.118108,-0.72816 0.416449,-0.16324 0.8807,-0.22258 1.316001,-0.11967 0.540279,0.12773 1.006528,0.50273 1.295001,0.97707 0.288473,0.47435 0.407119,1.04057 0.389887,1.59548 -0.03446,1.10981 -0.58227,2.1328 -1.154558,3.0843 -0.507527,0.84383 -1.04965,1.675 -1.730028,2.38684 -0.680379,0.71184 -1.510256,1.30372 -2.454561,1.58286 -0.944304,0.27914 -2.009902,0.22092 -2.8583,-0.27893 -0.424198,-0.24993 -0.787683,-0.6063 -1.030712,-1.03449 -0.243029,-0.42819 -0.36299,-0.92809 -0.323292,-1.41884 0.03771,-0.46616 0.216692,-0.91413 0.472283,-1.3058 0.25559,-0.39166 0.586025,-0.72992 0.942102,-1.03313 0.712155,-0.60642 1.532589,-1.08146 2.209537,-1.72694"
       id="path4276"
       inkscape:path-effect="#path-effect4278"
       inkscape:original-d="m 53.092507,658.95358 c 1.282961,-1.11485 2.708248,-3.55954 4.242641,-2.82842 1.70972,0.81465 1.699718,4.16711 0.53033,5.65685 -1.746898,2.22546 -7.05403,3.72763 -8.396893,1.23744 -0.861714,-1.59796 2.253539,-2.87505 3.623922,-4.06587 z"
       sodipodi:nodetypes="caaaa" />
    <path
       style="fill:#e6e4ce;stroke:none;stroke-width:1px;stroke-linecap:butt;stroke-linejoin:miter;stroke-opacity:1;opacity:0.20000000000000001;color:#000000;fill-opacity:1;fill-rule:nonzero;marker:none;visibility:visible;display:inline;overflow:visible;enable-background:accumulate"
       d="m 59.750523,37.026212 c 0.580455,0.385086 1.205091,0.718887 1.696314,1.212769 0.245612,0.246941 0.455488,0.533796 0.585861,0.856764 0.130372,0.322967 0.178256,0.683712 0.10431,1.02406 -0.08455,0.389163 -0.326542,0.735993 -0.643358,0.977291 -0.316816,0.241297 -0.704548,0.380721 -1.099596,0.431063 -0.790095,0.100684 -1.582118,-0.14348 -2.322909,-0.436083 -0.565831,-0.223496 -1.122937,-0.478912 -1.6245,-0.823223 -0.501562,-0.34431 -0.947926,-0.782079 -1.242698,-1.314267 -0.294772,-0.532189 -0.429729,-1.163737 -0.31153,-1.760515 0.0591,-0.298389 0.180709,-0.585193 0.361254,-0.830004 0.180545,-0.244811 0.420417,-0.446845 0.696153,-0.575292 0.317188,-0.147757 0.675833,-0.195859 1.024501,-0.166347 0.348669,0.02951 0.688097,0.134395 1.006422,0.279687 0.636651,0.290583 1.18661,0.737213 1.769776,1.124097"
       id="path4272"
       inkscape:path-effect="#path-effect4274"
       inkscape:original-d="m 59.750523,37.026212 c 1.064316,0.750607 2.820196,1.865555 2.386485,3.093593 -0.464056,1.31396 -2.828414,1.613018 -4.065863,0.972271 -1.690733,-0.875457 -3.422634,-3.913486 -2.121321,-5.303301 0.910643,-0.972575 2.711881,0.469551 3.800699,1.237437 z"
       transform="translate(24.966168,638.07839)"
       sodipodi:nodetypes="caaaa" />
    <path
       style="fill:#ebe8c9;stroke:none;stroke-width:1px;stroke-linecap:butt;stroke-linejoin:miter;stroke-opacity:1;opacity:0.3;color:#000000;fill-opacity:1;fill-rule:nonzero;marker:none;visibility:visible;display:inline;overflow:visible;enable-background:accumulate"
       d="m 40.803247,20.331538 c -0.233105,0.130128 -0.404312,0.357847 -0.490023,0.61068 -0.08571,0.252833 -0.0899,0.528946 -0.03856,0.790929 0.102683,0.523966 0.414164,0.97899 0.711641,1.422376 0.176689,0.263353 0.351513,0.529146 0.558078,0.769779 0.206566,0.240633 0.447291,0.456961 0.730209,0.600248 0.282918,0.143286 0.611196,0.209698 0.922131,0.147305 0.155468,-0.0312 0.305017,-0.09434 0.432742,-0.188302 0.127726,-0.09397 0.233194,-0.219022 0.299544,-0.36304 0.07271,-0.157825 0.09737,-0.335471 0.08472,-0.508779 -0.01265,-0.173309 -0.06159,-0.342632 -0.130067,-0.502339 -0.136963,-0.319412 -0.349648,-0.599322 -0.532035,-0.895157 -0.309945,-0.502734 -0.540664,-1.064205 -0.950396,-1.489562 -0.204865,-0.212678 -0.455238,-0.387839 -0.738637,-0.470825 -0.283399,-0.08299 -0.601507,-0.06725 -0.859351,0.07669"
       id="path4288"
       inkscape:path-effect="#path-effect4290"
       inkscape:original-d="m 40.803247,20.331538 c -0.828055,0.451827 -0.394681,2.078304 0.183058,2.823985 0.632307,0.816111 2.20431,1.687533 2.942704,0.96599 0.474858,-0.464021 0.01617,-0.8711 -0.577378,-1.906275 -0.593543,-1.035176 -1.621108,-2.389667 -2.548384,-1.8837 z"
       transform="translate(24.966168,638.07839)"
       sodipodi:nodetypes="caasa" />
    <path
       sodipodi:nodetypes="caaasss"
       id="path3801"
       d="m 32.036934,669.82378 c -0.367145,-4.7633 8.391294,-4.35058 12.601431,-6.49666 5.301602,-2.70244 10.063749,-8.81079 15.940974,-8.03366 6.792676,0.89818 10.54714,8.88661 15.425685,13.76083 4.582319,4.57827 20.191788,11.70869 12.961208,14.50068 -5.087072,1.9643 -12.240117,-1.66136 -20.853262,-3.55791 -13.311521,-2.93108 -35.441901,-1.94617 -36.076036,-10.17328 z"
       style="fill:none;stroke:#130e0b;stroke-width:2;stroke-miterlimit:4;stroke-opacity:1;stroke-dasharray:none;stroke-linejoin:bevel" />
    <path
       style="fill:#ebe8c9;stroke:none;stroke-width:1px;stroke-linecap:butt;stroke-linejoin:miter;stroke-opacity:1;opacity:0.15;color:#000000;fill-opacity:1;fill-rule:nonzero;marker:none;visibility:visible;display:inline;overflow:visible;enable-background:accumulate"
       d="m 42.78364,28.467707 c -0.340197,-0.139412 -0.7261,-0.154129 -1.082524,-0.06395 -0.356424,0.09017 -0.683453,0.282004 -0.953253,0.531759 -0.5396,0.49951 -0.840136,1.208704 -1.01416,1.923123 -0.199575,0.819313 -0.25118,1.6847 -0.06002,2.506016 0.191161,0.821317 0.637245,1.595874 1.3088,2.10589 0.335778,0.255008 0.724612,0.441817 1.136189,0.533361 0.411577,0.09154 0.845618,0.08676 1.252196,-0.02491 0.406578,-0.11167 0.784533,-0.331176 1.074882,-0.636911 0.290348,-0.305734 0.491066,-0.69773 0.55832,-1.113966 0.07115,-0.440316 -0.0057,-0.892321 -0.130669,-1.320479 -0.12498,-0.428158 -0.297684,-0.841139 -0.424787,-1.268672 -0.176967,-0.595261 -0.265026,-1.216908 -0.485395,-1.797503 -0.110184,-0.290298 -0.254073,-0.570036 -0.449111,-0.811642 -0.195038,-0.241606 -0.443154,-0.444371 -0.73047,-0.562112"
       id="path4284"
       inkscape:path-effect="#path-effect4286"
       inkscape:original-d="m 42.78364,28.467707 c -1.263084,-0.270848 -3.111938,1.100619 -3.049937,2.390927 0.100078,2.082735 3.557293,4.558248 5.270369,3.369481 0.725185,-0.503233 -0.254945,-1.759193 -0.555456,-2.589151 -0.406471,-1.122599 -0.497593,-2.920931 -1.664976,-3.171257 z"
       transform="translate(24.966168,638.07839)"
       sodipodi:nodetypes="caaaa" />
    <path
       sodipodi:nodetypes="ccc"
       id="path3676"
       d="m 52.813584,714.79985 c 1.971711,-4.38834 4.429982,-7.35207 10.813569,-10.71307 -3.661573,4.39711 -5.920252,7.80437 -6.346441,10.71208"
       style="color:#000000;fill:#6b9d00;fill-opacity:1;fill-rule:nonzero;stroke:#101d01;stroke-width:1;stroke-linecap:round;stroke-linejoin:round;stroke-miterlimit:4;stroke-opacity:1;stroke-dasharray:none;stroke-dashoffset:0;marker:none;visibility:visible;display:inline;overflow:visible;enable-background:accumulate" />
  </g>
  <g
     inkscape:groupmode="layer"
     id="layer2"
     inkscape:label="Capa"
     sodipodi:insensitive="true" />
</svg>
