<?xml version="1.0" encoding="UTF-8" standalone="no"?>
<!-- Created with Inkscape (http://www.inkscape.org/) -->

<svg
   xmlns:dc="http://purl.org/dc/elements/1.1/"
   xmlns:cc="http://creativecommons.org/ns#"
   xmlns:rdf="http://www.w3.org/1999/02/22-rdf-syntax-ns#"
   xmlns:svg="http://www.w3.org/2000/svg"
   xmlns="http://www.w3.org/2000/svg"
   xmlns:xlink="http://www.w3.org/1999/xlink"
   xmlns:sodipodi="http://sodipodi.sourceforge.net/DTD/sodipodi-0.dtd"
   xmlns:inkscape="http://www.inkscape.org/namespaces/inkscape"
   inkscape:export-ydpi="90"
   inkscape:export-xdpi="90"
   inkscape:export-filename="/mnt/y/src/hedge/trunk/share/hedgewars/Data/Themes/nature/mushroom2.png"
   width="80.319389"
   height="85.257004"
   id="svg2"
   version="1.1"
   inkscape:version="0.47 r22583"
   sodipodi:docname="mushroom2.svg">
  <title
     id="title3642">Mushroom2</title>
  <sodipodi:namedview
     id="base"
     pagecolor="#000000"
     bordercolor="#666666"
     borderopacity="1.0"
     inkscape:pageopacity="0"
     inkscape:pageshadow="2"
     inkscape:zoom="22.627417"
     inkscape:cx="20.486075"
     inkscape:cy="67.807685"
     inkscape:document-units="px"
     inkscape:current-layer="layer1"
     showgrid="false"
     showguides="true"
     inkscape:guide-bbox="true"
     inkscape:window-width="1280"
     inkscape:window-height="953"
     inkscape:window-x="-4"
     inkscape:window-y="-3"
     inkscape:window-maximized="1"
     inkscape:snap-smooth-nodes="true" />
  <defs
     id="defs4">
    <inkscape:perspective
       sodipodi:type="inkscape:persp3d"
       inkscape:vp_x="0 : 526.18109 : 1"
       inkscape:vp_y="0 : 1000 : 0"
       inkscape:vp_z="744.09448 : 526.18109 : 1"
       inkscape:persp3d-origin="372.04724 : 350.78739 : 1"
       id="perspective10" />
    <inkscape:perspective
       sodipodi:type="inkscape:persp3d"
       inkscape:vp_x="0 : 0.5 : 1"
       inkscape:vp_y="0 : 1000 : 0"
       inkscape:vp_z="1 : 0.5 : 1"
       inkscape:persp3d-origin="0.5 : 0.33333333 : 1"
       id="perspective3613" />
    <inkscape:perspective
       sodipodi:type="inkscape:persp3d"
       inkscape:vp_x="0 : 0.5 : 1"
       inkscape:vp_y="0 : 1000 : 0"
       inkscape:vp_z="1 : 0.5 : 1"
       inkscape:persp3d-origin="0.5 : 0.33333333 : 1"
       id="perspective2889" />
    <inkscape:perspective
       sodipodi:type="inkscape:persp3d"
       inkscape:vp_x="0 : 0.5 : 1"
       inkscape:vp_y="0 : 1000 : 0"
       inkscape:vp_z="1 : 0.5 : 1"
       inkscape:persp3d-origin="0.5 : 0.33333333 : 1"
       id="perspective3662" />
    <inkscape:perspective
       sodipodi:type="inkscape:persp3d"
       inkscape:vp_x="0 : 0.5 : 1"
       inkscape:vp_y="0 : 1000 : 0"
       inkscape:vp_z="1 : 0.5 : 1"
       inkscape:persp3d-origin="0.5 : 0.33333333 : 1"
       id="perspective2895" />
    <inkscape:perspective
       sodipodi:type="inkscape:persp3d"
       inkscape:vp_x="0 : 0.5 : 1"
       inkscape:vp_y="0 : 1000 : 0"
       inkscape:vp_z="1 : 0.5 : 1"
       inkscape:persp3d-origin="0.5 : 0.33333333 : 1"
       id="perspective3734" />
    <radialGradient
       gradientUnits="userSpaceOnUse"
       gradientTransform="matrix(1.1455354,0.10723205,-0.07992099,0.85377761,-7.1834567,-0.63661276)"
       r="22.163744"
       fy="84.61351"
       fx="94.771332"
       cy="84.61351"
       cx="94.771332"
       id="radialGradient3712"
       xlink:href="#linearGradient3704"
       inkscape:collect="always" />
    <linearGradient
       id="linearGradient3704">
      <stop
         id="stop3706"
         offset="0"
         style="stop-color:#eea1e6;stop-opacity:1;" />
      <stop
         style="stop-color:#eea1e6;stop-opacity:1;"
         offset="0.67803818"
         id="stop3720" />
      <stop
         style="stop-color:#eea1e6;stop-opacity:0.58823532;"
         offset="0.72211838"
         id="stop3714" />
      <stop
         id="stop3716"
         offset="0.86243427"
         style="stop-color:#eea1e6;stop-opacity:0.58823532;" />
      <stop
         style="stop-color:#eea1e6;stop-opacity:0.19607843;"
         offset="0.90321583"
         id="stop3718" />
      <stop
         id="stop3708"
         offset="1"
         style="stop-color:#eea1e6;stop-opacity:0.19607843;" />
    </linearGradient>
    <radialGradient
       r="22.163744"
       fy="84.61351"
       fx="94.771332"
       cy="84.61351"
       cx="94.771332"
       gradientTransform="matrix(1.1455354,0.10723205,-0.07992099,0.85377761,190.77114,513.82394)"
       gradientUnits="userSpaceOnUse"
       id="radialGradient3782"
       xlink:href="#linearGradient3704"
       inkscape:collect="always" />
    <radialGradient
       r="22.163744"
       fy="84.61351"
       fx="94.771332"
       cy="84.61351"
       cx="94.771332"
       gradientTransform="matrix(1.1455354,0.10723205,-0.07992099,0.85377761,290.77114,513.82394)"
       gradientUnits="userSpaceOnUse"
       id="radialGradient3729"
       xlink:href="#linearGradient3704"
       inkscape:collect="always" />
    <radialGradient
       inkscape:collect="always"
       xlink:href="#linearGradient3704"
       id="radialGradient4027"
       gradientUnits="userSpaceOnUse"
       gradientTransform="matrix(1.1455354,0.10723205,-0.07992099,0.85377761,290.77114,473.82394)"
       cx="94.771332"
       cy="84.61351"
       fx="94.771332"
       fy="84.61351"
       r="22.163744" />
    <inkscape:perspective
       id="perspective3680"
       inkscape:persp3d-origin="0.5 : 0.33333333 : 1"
       inkscape:vp_z="1 : 0.5 : 1"
       inkscape:vp_y="0 : 1000 : 0"
       inkscape:vp_x="0 : 0.5 : 1"
       sodipodi:type="inkscape:persp3d" />
    <inkscape:perspective
       id="perspective3703"
       inkscape:persp3d-origin="0.5 : 0.33333333 : 1"
       inkscape:vp_z="1 : 0.5 : 1"
       inkscape:vp_y="0 : 1000 : 0"
       inkscape:vp_x="0 : 0.5 : 1"
       sodipodi:type="inkscape:persp3d" />
    <inkscape:perspective
       id="perspective3627"
       inkscape:persp3d-origin="0.5 : 0.33333333 : 1"
       inkscape:vp_z="1 : 0.5 : 1"
       inkscape:vp_y="0 : 1000 : 0"
       inkscape:vp_x="0 : 0.5 : 1"
       sodipodi:type="inkscape:persp3d" />
    <inkscape:perspective
       id="perspective3650"
       inkscape:persp3d-origin="0.5 : 0.33333333 : 1"
       inkscape:vp_z="1 : 0.5 : 1"
       inkscape:vp_y="0 : 1000 : 0"
       inkscape:vp_x="0 : 0.5 : 1"
       sodipodi:type="inkscape:persp3d" />
    <inkscape:perspective
       id="perspective3678"
       inkscape:persp3d-origin="0.5 : 0.33333333 : 1"
       inkscape:vp_z="1 : 0.5 : 1"
       inkscape:vp_y="0 : 1000 : 0"
       inkscape:vp_x="0 : 0.5 : 1"
       sodipodi:type="inkscape:persp3d" />
    <inkscape:perspective
       id="perspective3678-6"
       inkscape:persp3d-origin="0.5 : 0.33333333 : 1"
       inkscape:vp_z="1 : 0.5 : 1"
       inkscape:vp_y="0 : 1000 : 0"
       inkscape:vp_x="0 : 0.5 : 1"
       sodipodi:type="inkscape:persp3d" />
    <inkscape:perspective
       id="perspective3645"
       inkscape:persp3d-origin="0.5 : 0.33333333 : 1"
       inkscape:vp_z="1 : 0.5 : 1"
       inkscape:vp_y="0 : 1000 : 0"
       inkscape:vp_x="0 : 0.5 : 1"
       sodipodi:type="inkscape:persp3d" />
    <inkscape:perspective
       id="perspective3659"
       inkscape:persp3d-origin="0.5 : 0.33333333 : 1"
       inkscape:vp_z="1 : 0.5 : 1"
       inkscape:vp_y="0 : 1000 : 0"
       inkscape:vp_x="0 : 0.5 : 1"
       sodipodi:type="inkscape:persp3d" />
    <inkscape:perspective
       id="perspective3761"
       inkscape:persp3d-origin="0.5 : 0.33333333 : 1"
       inkscape:vp_z="1 : 0.5 : 1"
       inkscape:vp_y="0 : 1000 : 0"
       inkscape:vp_x="0 : 0.5 : 1"
       sodipodi:type="inkscape:persp3d" />
    <inkscape:perspective
       id="perspective2862"
       inkscape:persp3d-origin="0.5 : 0.33333333 : 1"
       inkscape:vp_z="1 : 0.5 : 1"
       inkscape:vp_y="0 : 1000 : 0"
       inkscape:vp_x="0 : 0.5 : 1"
       sodipodi:type="inkscape:persp3d" />
    <inkscape:perspective
       id="perspective2869"
       inkscape:persp3d-origin="0.5 : 0.33333333 : 1"
       inkscape:vp_z="1 : 0.5 : 1"
       inkscape:vp_y="0 : 1000 : 0"
       inkscape:vp_x="0 : 0.5 : 1"
       sodipodi:type="inkscape:persp3d" />
    <inkscape:perspective
       id="perspective2890"
       inkscape:persp3d-origin="0.5 : 0.33333333 : 1"
       inkscape:vp_z="1 : 0.5 : 1"
       inkscape:vp_y="0 : 1000 : 0"
       inkscape:vp_x="0 : 0.5 : 1"
       sodipodi:type="inkscape:persp3d" />
    <inkscape:perspective
       id="perspective3700"
       inkscape:persp3d-origin="0.5 : 0.33333333 : 1"
       inkscape:vp_z="1 : 0.5 : 1"
       inkscape:vp_y="0 : 1000 : 0"
       inkscape:vp_x="0 : 0.5 : 1"
       sodipodi:type="inkscape:persp3d" />
    <inkscape:perspective
       id="perspective3805"
       inkscape:persp3d-origin="0.5 : 0.33333333 : 1"
       inkscape:vp_z="1 : 0.5 : 1"
       inkscape:vp_y="0 : 1000 : 0"
       inkscape:vp_x="0 : 0.5 : 1"
       sodipodi:type="inkscape:persp3d" />
    <inkscape:perspective
       id="perspective3805-6"
       inkscape:persp3d-origin="0.5 : 0.33333333 : 1"
       inkscape:vp_z="1 : 0.5 : 1"
       inkscape:vp_y="0 : 1000 : 0"
       inkscape:vp_x="0 : 0.5 : 1"
       sodipodi:type="inkscape:persp3d" />
    <inkscape:perspective
       id="perspective3836"
       inkscape:persp3d-origin="0.5 : 0.33333333 : 1"
       inkscape:vp_z="1 : 0.5 : 1"
       inkscape:vp_y="0 : 1000 : 0"
       inkscape:vp_x="0 : 0.5 : 1"
       sodipodi:type="inkscape:persp3d" />
  </defs>
  <metadata
     id="metadata7">
    <rdf:RDF>
      <cc:Work
         rdf:about="">
        <dc:format>image/svg+xml</dc:format>
        <dc:type
           rdf:resource="http://purl.org/dc/dcmitype/StillImage" />
        <dc:title>Mushroom2</dc:title>
        <dc:creator>
          <cc:Agent>
            <dc:title>Carlos Vives B.</dc:title>
          </cc:Agent>
        </dc:creator>
        <cc:license
           rdf:resource="http://creativecommons.org/licenses/by/3.0/" />
      </cc:Work>
      <cc:License
         rdf:about="http://creativecommons.org/licenses/by/3.0/">
        <cc:permits
           rdf:resource="http://creativecommons.org/ns#Reproduction" />
        <cc:permits
           rdf:resource="http://creativecommons.org/ns#Distribution" />
        <cc:requires
           rdf:resource="http://creativecommons.org/ns#Notice" />
        <cc:requires
           rdf:resource="http://creativecommons.org/ns#Attribution" />
        <cc:permits
           rdf:resource="http://creativecommons.org/ns#DerivativeWorks" />
      </cc:License>
    </rdf:RDF>
  </metadata>
  <g
     transform="translate(126.7947,-630.09615)"
     inkscape:label="Capa 1"
     inkscape:groupmode="layer"
     id="layer1">
    <path
       sodipodi:nodetypes="cssassz"
       id="path3673"
       d="m -88.267851,631.35237 c 13.092947,-0.20433 22.773039,4.66104 30.341382,9.83657 7.568343,5.17552 11.570165,10.68391 6.113831,15.01572 -3.056054,2.42622 -23.078923,-3.64967 -34.687446,-3.28553 -12.62016,0.39587 -35.555516,8.95121 -37.412316,5.9283 -3.97265,-6.46755 0.57417,-13.2732 8.29631,-18.49603 7.72214,-5.22282 14.25529,-8.7947 27.348239,-8.99903 z"
       style="fill:#812117;fill-opacity:1;stroke:none;color:#000000;fill-rule:nonzero;marker:none;visibility:visible;display:inline;overflow:visible;enable-background:accumulate" />
    <path
       style="color:#000000;fill:#ad4337;fill-opacity:1;fill-rule:nonzero;stroke:none;stroke-width:1px;marker:none;visibility:visible;display:inline;overflow:visible;enable-background:accumulate"
       d="m -78.596332,636.39089 c -1.49622,0.1307 -2.97553,0.43715 -4.4375,0.78125 -0.28553,0.0672 -0.68071,0.006 -0.84375,0.25 -0.39001,0.58335 0.0222,1.42012 0.21875,2.09375 0.2218,0.76025 0.86649,1.3577 1.0625,2.125 0.21156,0.82814 -0.56949,2.02335 0.0937,2.5625 0.67239,0.54659 2.00371,0.22478 2.5625,-0.4375 0.87326,-1.03498 -0.39679,-2.76777 0,-4.0625 0.12529,-0.40882 0.29407,-1.11232 0.71875,-1.0625 0.49767,0.0584 0.3891,0.92575 0.53125,1.40625 0.34777,1.17553 -0.14151,2.7867 0.78125,3.59375 0.48771,0.42655 1.46484,0.59943 1.9375,0.15625 0.942375,-0.88361 0.28091,-2.62965 -0.0625,-3.875 -0.36098,-1.30907 -0.85579,-2.85135 -2.03125,-3.53125 -0.15329,-0.0887 -0.35484,-0.0154 -0.53125,0 z m 4.8125,0.40625 c -0.899362,1.12353 1.349046,2.58754 1.625,4 0.221707,1.1348 -0.737875,2.57855 0,3.46875 1.325926,1.59965 4.072332,0.83453 6.125,1.15625 0.580783,0.091 1.340541,0.64058 1.75,0.21875 0.756259,-0.7791 -1.48945,-2.77163 -0.5,-3.21875 1.186216,-0.53604 2.749737,1.72247 2.5,3 -0.03397,0.17379 -0.508953,0.0775 -0.46875,0.25 0.222413,0.95408 2.243432,0.78513 2.9375,0.0937 0.789965,-0.78691 -1.160014,-3.01763 -0.09375,-3.34375 1.356842,-0.41499 1.226347,2.64485 2.28125,3.59375 0.924748,0.83183 2.277208,1.01627 3.34375,1.65625 1.35086,0.81059 2.756943,3.8905 3.84375,2.75 2.235603,-2.34604 -3.635155,-5.44313 -6.03125,-7.625 -1.909848,-1.7391 -4.090477,-3.28806 -6.5,-4.21875 -1.752432,-0.67688 -4.811475,-2.62821 -5.5625,-0.90625 -0.189923,0.43546 0.962398,0.42862 1.125,0.875 0.408378,1.12109 0.443124,3.50817 -0.75,3.5 -0.637362,-0.004 -0.164024,-1.27355 -0.375,-1.875 -0.337727,-0.96279 -0.582874,-2.1162 -1.40625,-2.71875 -0.844391,-0.61793 -2.062068,-0.3567 -3.09375,-0.53125 -0.249897,-0.0423 -0.591615,-0.32286 -0.75,-0.125 z m -18.75,0.125 c -0.47948,-0.0117 -1.01394,-0.16252 -1.4375,0.0625 -0.92728,0.49264 -0.82949,2.62844 -1.875,2.53125 -0.80715,-0.075 -0.35028,-1.80038 -1.0625,-2.1875 -1.56768,-0.8521 -3.709068,-0.12652 -5.312498,0.65625 -0.0265,0.0129 -0.0466,0.0377 -0.0625,0.0625 -0.5202,0.81351 -0.75835,1.78387 -1,2.71875 -0.25586,0.98989 -1.19847,2.3151 -0.46875,3.03125 0.17356,0.17033 0.47647,-0.10409 0.71875,-0.125 0.2387,-0.0206 0.53721,0.15634 0.71875,0 0.15963,-0.13747 -0.0485,-0.46961 0.0937,-0.625 0.65847,-0.71936 1.87538,-0.57211 2.843748,-0.6875 0.66198,-0.0789 1.47942,0.41646 2,0 0.3335,-0.2668 -0.14571,-1.26026 0.28125,-1.25 0.42288,0.0102 -0.10511,0.97789 0.21875,1.25 0.44662,0.37525 1.23132,-0.26692 1.75,0 0.87644,0.45103 0.86181,1.91919 1.71875,2.40625 1.41764,0.80576 3.24507,0.45415 4.875,0.40625 1.178,-0.0346 2.75879,0.41624 3.5,-0.5 0.66982,-0.82799 -0.0672,-2.13334 -0.21875,-3.1875 -0.19274,-1.34091 0.14068,-3.07233 -0.875,-3.96875 -1.6079,-1.4191 -4.26232,-0.54125 -6.40625,-0.59375 z m -15.999998,1.1875 c -1.06346,0.026 -2.176,-0.17313 -3.1875,0.15625 -4.09876,1.3347 -8.06041,3.77603 -10.8125,7.09375 -1.12393,1.35493 -3.33345,3.69038 -2.03125,4.875 0.67218,0.61149 1.90999,-0.52002 2.40625,-1.28125 0.15402,-0.23625 -0.0896,-0.60624 0.0625,-0.84375 0.41733,-0.65185 1.47254,-1.66064 2.03125,-1.125 0.43715,0.41911 -1.19144,1.15261 -0.8125,1.625 0.32249,0.40202 1.03078,-0.1618 1.5,-0.375 1.71002,-0.777 3.27435,-4.52398 4.625,-3.21875 0.73136,0.70676 -2.26133,1.74502 -1.65625,2.5625 0.92788,1.25357 3.43043,-0.14616 4.5,-1.28125 1.09019,-1.15698 0.24307,-3.27571 1.03125,-4.65625 0.85506,-1.49768 4.4139,-1.9269 3.78125,-3.53125 -0.17578,-0.44576 -0.95848,-0.0117 -1.4375,0 z m 2.125,0 c -1.14928,0.56979 -1.63033,2.01749 -2.15625,3.1875 -0.60388,1.34343 -2.17028,3.27598 -1.09375,4.28125 0.75357,0.70369 2.3485,-0.12251 2.9375,-0.96875 0.49424,-0.71008 -0.3935,-1.78219 -0.0937,-2.59375 0.1226,-0.33194 0.68931,-0.42862 0.71875,-0.78125 0.0445,-0.53266 -0.87344,-0.80924 -0.875,-1.34375 -0.002,-0.69347 1.44029,-1.13235 1.125,-1.75 -0.0854,-0.16726 -0.39425,-0.11466 -0.5625,-0.0313 z m 17.281248,1.40625 c 0.79428,0.0623 1.77465,0.79706 1.78125,1.59375 0.009,1.13514 -1.36924,2.41257 -2.5,2.3125 -0.96291,-0.0852 -1.91818,-1.36057 -1.75,-2.3125 0.17041,-0.96456 1.49225,-1.67039 2.46875,-1.59375 z"
       id="path3690"
       sodipodi:nodetypes="caaaaaaaaaaaaaacaaaaaaaaaaaaaaaaaaaaacaaaaaaaaaaaaaaaaaaaaacaaaaaaaaaaaaaacaaaaaaaacaaaa" />
    <path
       style="fill:#57170f;fill-opacity:1;stroke:none"
       d="m -101.5625,9.5625 c -0.56344,0.2296967 -1.41981,0.905229 -1.125,1.4375 0.0964,0.17409 0.39561,-0.08104 0.59375,-0.0625 0.21656,0.02026 0.65658,-0.0277 0.625,0.1875 -0.0635,0.432863 -1.11684,0.391312 -1.3125,0 -0.0233,-0.04659 0.11901,-0.07945 0.0937,-0.125 -0.59316,-1.0697499 -2.49148,0.686028 -3.65625,0.3125 -0.79508,-0.254973 -1.10198,-1.4007248 -1.90625,-1.625 -1.05737,-0.2948519 -2.16248,0.382048 -3.25,0.53125 -1.86903,0.25642 -3.74024,0.706792 -5.625,0.625 -0.0531,-0.0023 -0.10438,-0.04269 -0.15625,-0.03125 -0.84436,0.186184 -1.28949,1.848716 -2.09375,1.53125 -0.57199,-0.225782 0.1048,-1.391846 -0.34375,-1.8125 -0.86516,-0.8113537 -2.34536,-0.459074 -3.53125,-0.4375 -2.48959,0.04529 -5.76031,-0.7079829 -7.375,1.1875 -0.47284,0.55507 0.0303,1.458963 0,2.1875 -0.0104,0.25065 -0.23894,0.571665 -0.0625,0.75 0.91084,0.920629 2.79631,0.435419 3.875,-0.28125 0.57428,-0.381542 0.24949,-1.79886 0.9375,-1.84375 0.68043,-0.0444 0.54235,1.390722 1.15625,1.6875 3.64757,1.763344 8.84346,1.532313 12.125,-0.84375 0.24598,-0.178109 0.0406,-0.824992 0.34375,-0.84375 0.2979,-0.01844 0.17591,0.637527 0.4375,0.78125 0.16458,0.09043 0.37471,-0.03034 0.5625,-0.03125 3.40979,-0.01647 7.87139,2.941974 10.21875,0.46875 0.43954,-0.463105 -0.17857,-1.267829 -0.1875,-1.90625 -0.008,-0.595152 0.50115,-1.319966 0.125,-1.78125 -0.0996,-0.1221643 -0.32278,-0.122007 -0.46875,-0.0625 z m 0.84375,0.125 c -0.4486,0.514375 0.56583,1.286248 0.5625,1.96875 -0.003,0.586665 -0.84011,1.209475 -0.5,1.6875 1.577808,2.2176 5.454003,0.05083 8.15625,0.375 1.780895,0.213641 3.584878,1.613963 5.28125,1.03125 0.70527,-0.242264 1.174527,-1.002277 1.46875,-1.6875 0.173396,-0.403827 0.378717,-0.953655 0.125,-1.3125 -0.02479,-0.03507 -0.08264,-0.02416 -0.125,-0.03125 -2.134685,-0.357338 -4.506802,-1.476465 -6.46875,-0.5625 -0.542259,0.252609 -0.46849,1.671621 -1.03125,1.46875 -0.491534,-0.177194 0.464809,-1.165596 0.125,-1.5625 -0.271743,-0.317401 -0.836427,-0.03421 -1.25,-0.09375 -1.771466,-0.255018 -3.488076,-0.810759 -5.25,-1.125 -0.362564,-0.064664 -0.85169,-0.4338082 -1.09375,-0.15625 z m -30.75,1.75 c -0.50227,-0.691359 -1.67941,0.338327 -2.53125,0.40625 -0.30113,0.02401 -0.73206,-0.246805 -0.90625,0 -0.57374,0.812922 0.12933,2.330891 1,2.8125 0.42019,0.232424 0.9313,-0.241825 1.40625,-0.3125 0.40301,-0.05997 1.02513,0.264755 1.21875,-0.09375 0.27694,-0.512769 -0.83493,-0.948542 -0.84375,-1.53125 -0.007,-0.479791 0.93828,-0.893038 0.65625,-1.28125 z m 34.6875,0.125 c 0.452736,0.07439 1.104863,0.665428 0.875,1.0625 -0.344044,0.594311 -1.898686,0.330044 -2.03125,-0.34375 -0.0876,-0.445277 0.708442,-0.792328 1.15625,-0.71875 z m 11.59375,0.25 c -0.427837,0.427345 0.570363,1.220612 0.34375,1.78125 -0.27183,0.672502 -1.93051,0.540161 -1.78125,1.25 0.327888,1.559344 3.390571,1.863264 4.6875,0.9375 0.573147,-0.40912 0.32047,-1.390658 0.28125,-2.09375 -0.02392,-0.428824 -8.36e-4,-0.954488 -0.3125,-1.25 -0.793115,-0.752012 -2.445469,-1.397392 -3.21875,-0.625 z m -54.5625,0.03125 c -1.83871,0.405337 -3.42602,1.563464 -5.125,2.375 -0.65997,0.315241 -1.49769,0.409247 -1.96875,0.96875 -0.11888,0.141203 -0.20488,0.353188 -0.15625,0.53125 0.22913,0.838925 1.03909,1.715453 1.90625,1.78125 0.23912,0.01814 0.37503,-0.307915 0.59375,-0.40625 0.11752,-0.05283 0.33934,0.03006 0.375,-0.09375 0.0999,-0.346894 -0.96546,-0.491607 -0.75,-0.78125 0.2864,-0.385002 0.80508,0.596995 1.28125,0.65625 2.21667,0.27584 6.26617,0.717978 6.53125,-1.5 0.003,-0.02313 -0.0504,-0.01133 -0.0625,-0.03125 -0.60457,-0.998021 0.88019,-2.667577 0.0625,-3.5 -0.62777,-0.63908 -1.81267,-0.192853 -2.6875,0 z m 58.40625,0.6875 c -0.391018,0.445721 0.452434,1.104878 0.5625,1.6875 0.112302,0.59446 -0.305016,1.35755 0.09375,1.8125 0.377073,0.430201 1.147238,0.12442 1.6875,0.3125 0.18923,0.06588 0.345104,0.355394 0.53125,0.28125 0.75588,-0.301075 0.879028,-1.504762 0.78125,-2.3125 -0.03264,-0.269665 -0.185198,-0.586861 -0.4375,-0.6875 -0.119677,-0.04774 -0.247118,0.109493 -0.375,0.09375 -0.703026,-0.08655 -1.20735,-0.763399 -1.875,-1 -0.310018,-0.109864 -0.751844,-0.434751 -0.96875,-0.1875 z m 4.96875,0.6875 c -0.111227,-0.04165 -0.340455,-0.02497 -0.34375,0.09375 -9.14e-4,0.03293 0.07393,0.0049 0.09375,0.03125 0.44541,0.591245 0.451126,1.570489 0.09375,2.21875 -0.353677,0.641551 -1.905703,0.361169 -1.90625,1.09375 -5.92e-4,0.793309 1.292409,1.378027 2.0625,1.1875 0.908937,-0.224879 1.511557,-1.438729 1.5,-2.375 -0.01113,-0.901319 -0.655846,-1.933924 -1.5,-2.25 z m -71.5625,2.46875 c -0.52973,-0.196229 -1.16011,0.259764 -1.5625,0.65625 -0.51833,0.510728 -1.02313,1.28756 -0.875,2 0.16205,0.779372 0.95588,1.569699 1.75,1.625 1.21652,0.08472 3.08875,-0.877522 3,-2.09375 -0.0441,-0.603996 -1.19677,-0.384275 -1.625,-0.8125 -0.36234,-0.362344 -0.20698,-1.196999 -0.6875,-1.375 z"
       transform="translate(24.966168,638.07839)"
       id="path3763"
       sodipodi:nodetypes="caaaaaaaaaaaaaaaaaaaaaaaaaaacaaaaaaaaaaaaacaaaaaaacaaacaaaaaacaaaaaaaaaaaacaaaaaaaaacaaaaaaacaaaaaa" />
    <path
       style="fill:none;stroke:#000000;stroke-width:2;stroke-linecap:butt;stroke-linejoin:miter;stroke-miterlimit:4;stroke-opacity:1;stroke-dasharray:none"
       d="m -88.267851,631.35237 c 13.092947,-0.20433 22.773039,4.66104 30.341382,9.83657 7.568343,5.17552 11.570165,10.68391 6.113831,15.01572 -3.056054,2.42622 -21.941429,1.75121 -32.937446,2.08947 -12.923014,0.39753 -35.219226,3.10362 -38.787316,-0.0717 -5.08432,-4.52465 0.19917,-12.6482 7.92131,-17.87103 7.72214,-5.22282 14.25529,-8.7947 27.348239,-8.99903 z"
       id="path3671"
       sodipodi:nodetypes="cssassz" />
    <path
       sodipodi:nodetypes="cassass"
       id="path3677"
       d="m -121.81156,656.51324 c 4.21457,-3.28256 21.878888,-5.05396 33.027728,-5.35095 12.070285,-0.32154 32.433141,2.61581 36.015165,3.88128 4.001898,1.41381 -2.419714,3.56361 -12.44539,4.36239 -8.929834,0.71148 -16.564561,4.84336 -25.069775,4.75633 -5.89284,-0.0603 -9.816068,-4.18204 -17.298518,-3.65019 -8.72463,0.62015 -17.70373,-1.29269 -14.22921,-3.99886 z"
       style="fill:#c6ad6a;fill-opacity:1;stroke:none" />
    <path
       style="fill:none;stroke:#000000;stroke-width:2;stroke-linecap:butt;stroke-linejoin:miter;stroke-miterlimit:4;stroke-opacity:1;stroke-dasharray:none"
       d="m -121.81156,656.51324 c 4.21457,-3.28256 21.881482,-4.96881 33.027728,-5.35095 11.798129,-0.40449 31.683141,1.99081 35.265165,3.25628 4.001898,1.41381 -1.669714,4.18861 -11.69539,4.98739 -8.929834,0.71148 -16.564561,4.84336 -25.069775,4.75633 -5.89284,-0.0603 -9.816068,-4.18204 -17.298518,-3.65019 -8.72463,0.62015 -17.70373,-1.29269 -14.22921,-3.99886 z"
       id="path3675"
       sodipodi:nodetypes="cassass" />
    <path
       style="color:#000000;fill:#6b9d00;fill-opacity:1;fill-rule:nonzero;stroke:#101d01;stroke-width:1;stroke-linecap:round;stroke-linejoin:round;stroke-miterlimit:4;stroke-opacity:1;stroke-dasharray:none;stroke-dashoffset:0;marker:none;visibility:visible;display:inline;overflow:visible;enable-background:accumulate"
       d="m -61.458843,706.9801 c 2.059518,-3.9691 4.763118,-9.90449 12.55435,-15.30607 -5.459354,7.72893 -6.569391,11.65673 -6.911759,15.43779"
       id="path3635"
       sodipodi:nodetypes="ccc" />
    <path
       style="color:#000000;fill:#6b9d00;fill-opacity:1;fill-rule:nonzero;stroke:#101d01;stroke-width:1;stroke-linecap:round;stroke-linejoin:round;stroke-miterlimit:4;stroke-opacity:1;stroke-dasharray:none;stroke-dashoffset:0;marker:none;visibility:visible;display:inline;overflow:visible;enable-background:accumulate"
       d="m -95.429786,707.97904 c -3.477138,-3.73704 -5.830124,-10.88027 -16.057754,-14.44489 8.36715,6.83522 7.77891,15.21754 12.13551,17.15009"
       id="path3674"
       sodipodi:nodetypes="ccc" />
    <path
       sodipodi:nodetypes="csss"
       id="path3660"
       d="m -99.758332,658.98499 c -1.334148,16.79254 -8.245548,39.59998 0.02513,50.3688 2.997548,3.90295 19.374943,3.8676 21.821961,0.37132 8.168277,-11.67077 1.8039,-32.47381 0.65533,-52.44723"
       style="fill:#f0ebcc;fill-opacity:1;stroke:none" />
    <path
       style="color:#000000;fill:#dad3a8;fill-opacity:1;fill-rule:nonzero;stroke:none;stroke-width:1px;marker:none;visibility:visible;display:inline;overflow:visible;enable-background:accumulate"
       d="m -127.456,48.87025 c 0.94457,10.49255 -1.24363,23.321894 23.90147,18.740932 l -0.39017,5.742641 -6.01041,1.237437 -10.42982,-0.972272 -6.36396,-4.772971 -1.32583,-8.131728 0.61872,-11.844039 z"
       id="path3818"
       transform="translate(24.966168,638.07839)"
       sodipodi:nodetypes="cccccccc" />
    <path
       sodipodi:nodetypes="ccccc"
       id="path3667"
       d="m -77.252582,662.02479 c -2.55503,-4.17272 -22.67774,-2.30578 -22.5,1.71875 -0.289808,3.64778 -0.865378,7.59461 -1.468748,11.625 2.846544,-10.28546 22.561816,-8.34778 25.312498,0 -0.5539,-4.41279 -1.08841,-8.90351 -1.34375,-13.34375 z"
       style="fill:#dad3a8;fill-opacity:1;stroke:none" />
    <path
       style="fill:#605a3b;fill-opacity:1;stroke:none"
       d="m -64.033832,657.16229 c -5.319669,-0.0576 -13.148985,-3.55445 -24,-3.25 -10.851018,0.30445 -14.655888,3.36661 -24.499998,3.875 12.53089,0.8834 19.035165,3.04291 27.249998,2.75 8.214833,-0.29291 11.319669,-2.69237 21.25,-3.375 z"
       id="path3679"
       sodipodi:nodetypes="czczc" />
    <path
       style="fill:#a7a071;fill-opacity:1;stroke:none"
       d="m -77.252582,657.26589 c -2.55503,-4.17272 -22.67774,-2.30578 -22.5,1.71875 -0.289808,3.64778 0.13462,6.40711 -0.468748,10.4375 0.14204,-6.40602 21.959558,-8.43931 23.914748,0.4388 -0.5539,-4.41279 -0.69066,-8.15481 -0.946,-12.59505 z"
       id="path3662"
       sodipodi:nodetypes="ccccc" />
    <path
       style="color:#000000;fill:#a7a071;fill-opacity:1;fill-rule:nonzero;stroke:none;stroke-width:1px;marker:none;visibility:visible;display:inline;overflow:visible;enable-background:accumulate"
       d="m -85.283832,678.78729 c -2,7.125 -2,10.5 -0.375,13.625 1.625,3.125 3.71599,4.94194 3.71599,4.94194 0,0 -2.08839,5.38128 -0.71339,8.75628 1.375,3.375 -4.322494,-3.78389 -6.2526,-3.44822 -0.71875,0.125 2.81066,2.01516 4.02941,4.67141 1.312546,2.86068 0.15625,4.625 0.15625,4.625 l 7.93934,-1.42141 4.875,-9 -3.5,-22.625 -9.875,-0.125 z"
       id="path2859"
       sodipodi:nodetypes="cscsssccccc" />
    <path
       style="fill:none;stroke:#000000;stroke-width:2;stroke-linecap:round;stroke-linejoin:round;stroke-miterlimit:4;stroke-opacity:1;stroke-dasharray:none"
       d="m -99.758332,658.98499 c -1.334148,16.79254 -8.245548,39.59998 0.02513,50.3688 2.997548,3.90295 19.374943,3.8676 21.821961,0.37132 8.168277,-11.67077 1.8039,-32.47381 0.65533,-52.44723"
       id="path3658"
       sodipodi:nodetypes="csss" />
    <path
       sodipodi:nodetypes="ccc"
       id="path3672"
       d="m -76.796807,712.68686 c -1.703778,-4.33556 -5.792602,-10.1977 -12.590027,-12.64283 5.116199,3.52139 7.957963,9.95666 8.25075,13.19769"
       style="color:#000000;fill:#6b9d00;fill-opacity:1;fill-rule:nonzero;stroke:#101d01;stroke-width:1;stroke-linecap:round;stroke-linejoin:round;stroke-miterlimit:4;stroke-opacity:1;stroke-dasharray:none;stroke-dashoffset:0;marker:none;visibility:visible;display:inline;overflow:visible;enable-background:accumulate" />
    <path
       sodipodi:nodetypes="cssss"
       id="path3646"
       d="m -78.014802,692.04744 c 0.596525,5.41381 -6.1357,13.93339 -0.707108,18.11961 6.276336,4.83995 20.263271,3.26918 23.648864,-1.60356 3.880648,-5.58524 -2.820085,-11.35182 -3.761485,-16.60444 -0.977212,-5.45244 -19.786953,-5.41761 -19.180271,0.0884 z"
       style="fill:#f0ebcc;fill-opacity:1;stroke:none" />
    <path
       style="fill:#dad3a8;fill-opacity:1;stroke:none"
       d="m -69.033832,687.89089 c -4.748751,0.0154 -9.27209,1.40324 -8.96875,4.15625 0.2237,2.03018 -0.59651,4.48862 -1.40625,7 1.32641,2.49567 4.01536,4.05456 8.90625,3.96875 8.344413,-0.14639 12.258926,-2.17318 14.0625,-5.375 -1.040805,-1.93622 -2.076482,-3.84753 -2.40625,-5.6875 -0.488606,-2.72622 -5.438749,-4.0779 -10.1875,-4.0625 z"
       id="path3653" />
    <path
       style="fill:#a7a071;fill-opacity:1;stroke:none"
       d="m -69.033832,687.89089 c -4.748751,0.0154 -9.272091,1.40324 -8.96875,4.15625 0.163358,1.48257 -0.245647,3.20438 -0.78125,5 1.096015,2.27135 3.464172,3.60519 8.375,3.375 6.76875,-0.31728 11.278648,-2.44583 12.4375,-5.8125 -0.398528,-0.89642 -0.718839,-1.78494 -0.875,-2.65625 -0.488606,-2.72622 -5.438749,-4.0779 -10.1875,-4.0625 z"
       id="path3648" />
    <path
       style="color:#000000;fill:#dad3a8;fill-opacity:1;fill-rule:nonzero;stroke:none;stroke-width:1px;marker:none;visibility:visible;display:inline;overflow:visible;enable-background:accumulate"
       d="m -79.170472,702.06121 c -0.75873,3.0654 0.51348,5.29551 3.21859,6.63357 8.311567,2.40806 15.334065,0.92022 22.075643,-4.0962 l -0.353553,4.68458 -5.745243,3.0936 -14.318912,0.26516 -6.540735,-5.92202 1.66421,-4.65869 z"
       id="path3795"
       sodipodi:nodetypes="cccccccc" />
    <path
       style="fill:none;stroke:#000000;stroke-width:2;stroke-linecap:butt;stroke-linejoin:miter;stroke-miterlimit:4;stroke-opacity:1;stroke-dasharray:none"
       d="m -78.014802,692.04744 c 0.596525,5.41381 -6.1357,13.93339 -0.707108,18.11961 6.276336,4.83995 20.263271,3.26918 23.648864,-1.60356 3.880648,-5.58524 -2.820085,-11.35182 -3.761485,-16.60444 -0.977212,-5.45244 -19.786953,-5.41761 -19.180271,0.0884 z"
       id="path3642"
       sodipodi:nodetypes="cssss" />
    <path
       sodipodi:nodetypes="cssss"
       id="path3644"
       d="m -68.158832,669.59979 c -10.091491,-0.31957 -17.513805,8.608 -17.396447,16.05492 0.09437,5.98825 7.225951,10.40392 14.896447,9.63258 7.026907,-0.70663 18.921851,-3.06396 18.911612,-10.1263 -0.0084,-5.78582 -7.111845,-15.2667 -16.411612,-15.5612 z"
       style="fill:#771f15;fill-opacity:1;stroke:none" />
    <path
       sodipodi:nodetypes="ccc"
       id="path3676"
       d="m -59.666179,712.80613 c 1.757864,-5.99121 5.461884,-9.01061 12.440867,-12.68534 -4.003087,4.80755 -7.17954,7.64898 -7.557091,12.68425"
       style="color:#000000;fill:#6b9d00;fill-opacity:1;fill-rule:nonzero;stroke:#101d01;stroke-width:1;stroke-linecap:round;stroke-linejoin:round;stroke-miterlimit:4;stroke-opacity:1;stroke-dasharray:none;stroke-dashoffset:0;marker:none;visibility:visible;display:inline;overflow:visible;enable-background:accumulate" />
    <path
       style="color:#000000;fill:#6b9d00;fill-opacity:1;fill-rule:nonzero;stroke:#101d01;stroke-width:1;stroke-linecap:round;stroke-linejoin:round;stroke-miterlimit:4;stroke-opacity:1;stroke-dasharray:none;stroke-dashoffset:0;marker:none;visibility:visible;display:inline;overflow:visible;enable-background:accumulate"
       d="m -94.279791,714.65486 c 0.181552,-3.84791 -0.454895,-14.67309 -5.706479,-20.53412 2.43688,7.53271 1.4009,15.08294 1.49393,20.68444"
       id="path3678"
       sodipodi:nodetypes="ccc" />
    <path
       style="fill:#ad4337;fill-opacity:1;stroke:none"
       d="m -56.305279,676.46503 c -0.03634,0.0229 -0.03628,0.0824 -0.03125,0.125 0.203513,1.72588 3.858244,3.67013 2.40625,4.625 -1.212482,0.79737 -1.675955,-2.39912 -2.75,-3.375 -0.0278,-0.0253 -0.05801,-0.074 -0.09375,-0.0625 -0.0847,0.0273 -0.05052,0.17221 -0.09375,0.25 -0.248971,0.44801 -1.006889,0.71093 -0.9375,1.21875 0.11987,0.87727 1.620453,0.86616 2.125,1.59375 0.463946,0.66905 -0.06603,2.03545 0.6875,2.34375 0.574019,0.23486 1.221892,-0.43491 1.625,-0.90625 0.13709,-0.16029 0.175118,-0.38739 0.21875,-0.59375 0.101482,-0.47996 0.126509,-0.97926 0.09375,-1.46875 -0.0071,-0.10599 -0.02514,-0.21305 -0.0625,-0.3125 -0.426631,-1.13573 -0.829081,-2.44577 -1.8125,-3.15625 -0.379212,-0.27396 -0.979139,-0.53055 -1.375,-0.28125 z m -27,3.0625 c -1.713109,0.1493 -1.433164,3.17431 -1.6875,4.875 -0.08479,0.56699 -0.21901,1.21933 0.0625,1.71875 0.764668,1.35658 2.523452,3.27867 3.90625,2.5625 0.805206,-0.41702 -0.136467,-1.84167 0.09375,-2.71875 0.309904,-1.18066 2.249202,-2.16625 1.6875,-3.25 -0.212859,-0.41069 -1.005092,0.0903 -1.375,-0.1875 -0.4102,-0.308 -0.116551,-1.33835 -0.625,-1.40625 -0.359602,-0.048 -0.50159,0.53221 -0.6875,0.84375 -0.670117,1.12295 -0.24022,3.97575 -1.5,3.625 -1.603714,-0.4465 1.045045,-3.29914 0.75,-4.9375 -0.07603,-0.42219 -0.197635,-1.16224 -0.625,-1.125 z m 25.21875,0.0937 c -0.118768,-3.8e-4 -0.124729,0.20869 -0.21875,0.28125 -0.0628,0.0485 -0.187548,0.0208 -0.21875,0.0937 -0.362992,0.84854 1.78045,2.15452 0.96875,2.59375 -0.81906,0.44321 -0.755032,-2.01526 -1.65625,-2.25 -0.487204,-0.1269 -1.27387,0.1318 -1.375,0.625 -0.226607,1.10514 1.692972,1.5374 2.28125,2.5 0.481268,0.78751 0.08184,2.33848 0.96875,2.59375 0.214229,0.0617 0.432487,-0.20639 0.53125,-0.40625 0.212285,-0.42957 -0.242999,-1.02452 0,-1.4375 0.271937,-0.46216 1.280668,-0.25993 1.40625,-0.78125 0.232076,-0.96339 -1.07826,-1.66381 -1.65625,-2.46875 -0.329323,-0.45862 -0.466635,-1.34192 -1.03125,-1.34375 z m -2.84375,1.53125 c -0.637967,-0.1771 -1.686293,0.16255 -1.8125,0.8125 -0.143239,0.73767 1.211077,0.9608 1.5625,1.625 0.283761,0.53633 -0.228503,1.84409 0.375,1.78125 0.217574,-0.0226 -0.17477,-0.52469 0,-0.65625 0.571586,-0.43025 1.590954,1.13178 2.0625,0.59375 0.651818,-0.74371 -0.704898,-1.85557 -1.1875,-2.71875 -0.284852,-0.50948 -0.437565,-1.28136 -1,-1.4375 z m -6.65625,1 c -0.82402,-0.31219 -1.784285,0.0485 -2.625,0.3125 -0.168952,0.0531 -0.30483,0.18301 -0.46875,0.25 -0.341726,0.13968 -0.745053,0.12406 -1.0625,0.3125 -0.785385,0.46623 -1.708395,1.05336 -1.9375,1.9375 -0.304359,1.17456 0.925605,2.28893 1,3.5 0.03297,0.53674 -0.613468,1.19744 -0.25,1.59375 0.71282,0.77723 2.127245,0.0122 3.15625,-0.21875 0.698349,-0.15675 1.549363,-0.2252 2,-0.78125 0.764461,-0.94328 -0.620377,-3.58533 0.59375,-3.59375 1.238196,-0.009 -0.240611,2.80253 0.65625,3.65625 0.235831,0.22449 0.643157,0.12436 0.96875,0.125 0.08398,1.7e-4 0.194421,0.0317 0.25,-0.0313 0.799678,-0.90586 0.184989,-2.43091 0,-3.625 -0.105409,-0.6804 -0.08672,-1.53942 -0.625,-1.96875 -0.09806,-0.0782 -0.262771,0.0248 -0.375,-0.0313 -0.574302,-0.28666 -0.681013,-1.21009 -1.28125,-1.4375 z m 4.3125,0 c -0.459055,-0.24954 -1.305762,-0.33007 -1.5625,0.125 -0.286128,0.50717 1.112291,1.08345 0.78125,1.5625 -0.232163,0.33597 -0.991126,-0.46406 -1.21875,-0.125 -0.579239,0.86282 1.093603,1.78086 1.46875,2.75 0.290933,0.75159 -0.09446,1.92437 0.59375,2.34375 0.511376,0.31163 1.427122,0.0981 1.75,-0.40625 0.860252,-1.34374 -0.422451,-3.18842 -0.96875,-4.6875 -0.202671,-0.55614 -0.323701,-1.2798 -0.84375,-1.5625 z m -14.21875,0.1875 c -0.366759,0.0661 -0.632672,0.43708 -1,0.5 -0.165553,0.0284 -0.354903,-0.14711 -0.5,-0.0625 -0.330872,0.19294 -0.311622,0.70076 -0.4375,1.0625 -0.559122,1.60677 -2.178918,3.39057 -1.40625,4.90625 0.166123,0.32587 0.704005,0.5384 1.03125,0.375 1.022981,-0.51079 -0.127773,-3.46973 1,-3.28125 1.161707,0.19416 -0.81125,2.57401 -0.125,3.53125 0.06336,0.0884 0.206185,0.11665 0.3125,0.0937 0.620754,-0.1337 0.802667,-1.26411 1.4375,-1.25 0.87658,0.0195 1.094771,1.48043 1.90625,1.8125 0.578521,0.23675 1.436454,0.47669 1.875,0.0313 0.226669,-0.23022 0.06735,-0.66107 -0.03125,-0.96875 -0.458472,-1.43064 -2.064653,-2.31214 -2.5,-3.75 -0.271673,-0.89727 0.662913,-2.14958 0,-2.8125 -0.01473,-0.0147 -0.04616,-0.0129 -0.0625,0 -0.923354,0.73055 -0.44737,2.31814 -0.8125,3.4375 -0.266382,0.81664 -0.17258,2.60571 -1,2.375 -1.663093,-0.4637 0.193963,-3.49046 0.75,-5.125 0.09612,-0.28256 0.574476,-0.51606 0.4375,-0.78125 -0.13462,-0.26062 -0.586322,-0.14582 -0.875,-0.0937 z m 8.6875,2.5 c 0.43241,0.33671 0.352271,1.08659 0.25,1.625 -0.108021,0.56869 -0.296608,1.47693 -0.875,1.5 -1.166483,0.0465 -2.490923,-1.81583 -2,-2.875 0.369622,-0.79746 1.931491,-0.79001 2.625,-0.25 z m 10.0625,0.53125 c -0.705697,-0.19217 -1.515092,0.60001 -1.78125,1.28125 -0.150915,0.38628 -0.158235,1.14576 0.25,1.21875 0.446729,0.0799 0.348181,-0.89428 0.71875,-1.15625 0.357046,-0.2524 1.083377,0.10867 1.28125,-0.28125 0.175179,-0.34519 -0.09525,-0.96079 -0.46875,-1.0625 z"
       id="path2862"
       sodipodi:nodetypes="caaaaaaaaaaaaaacaaaaaaaaaaacaaaaaaaaaaaacaaaaaaacaaaaaaaaaaaaaaaacaaaaaaaacaaaaaaaaaaaaaaaaaaaacaaaacaaaaa" />
    <path
       style="fill:none;stroke:#1a0404;stroke-width:2;stroke-linecap:butt;stroke-linejoin:miter;stroke-miterlimit:4;stroke-opacity:1;stroke-dasharray:none"
       d="m -68.158832,669.59979 c -10.091491,-0.31957 -17.513805,8.608 -17.396447,16.05492 0.09437,5.98825 7.225951,10.40392 14.896447,9.63258 7.026907,-0.70663 18.921851,-3.06396 18.911612,-10.1263 -0.0084,-5.78582 -7.111845,-15.2667 -16.411612,-15.5612 z"
       id="path3640"
       sodipodi:nodetypes="cssss" />
  </g>
</svg>
