<?xml version="1.0" encoding="UTF-8" standalone="no"?>
<!-- Created with Inkscape (http://www.inkscape.org/) -->

<svg
   xmlns:dc="http://purl.org/dc/elements/1.1/"
   xmlns:cc="http://creativecommons.org/ns#"
   xmlns:rdf="http://www.w3.org/1999/02/22-rdf-syntax-ns#"
   xmlns:svg="http://www.w3.org/2000/svg"
   xmlns="http://www.w3.org/2000/svg"
   xmlns:xlink="http://www.w3.org/1999/xlink"
   xmlns:sodipodi="http://sodipodi.sourceforge.net/DTD/sodipodi-0.dtd"
   xmlns:inkscape="http://www.inkscape.org/namespaces/inkscape"
   inkscape:export-ydpi="90"
   inkscape:export-xdpi="90"
   inkscape:export-filename="/mnt/y/src/hedge/trunk/share/hedgewars/Data/Themes/nature/snail.png"
   width="134.98494"
   height="97"
   id="svg2"
   version="1.1"
   inkscape:version="0.47 r22583"
   sodipodi:docname="snail.svg">
  <title
     id="title3626">Snail</title>
  <sodipodi:namedview
     id="base"
     pagecolor="#143200"
     bordercolor="#666666"
     borderopacity="1.0"
     inkscape:pageopacity="0"
     inkscape:pageshadow="2"
     inkscape:zoom="5.6568542"
     inkscape:cx="52.971937"
     inkscape:cy="40.859435"
     inkscape:document-units="px"
     inkscape:current-layer="layer1"
     showgrid="false"
     showguides="true"
     inkscape:guide-bbox="true"
     inkscape:window-width="1280"
     inkscape:window-height="953"
     inkscape:window-x="-4"
     inkscape:window-y="-3"
     inkscape:window-maximized="1"
     inkscape:snap-smooth-nodes="true" />
  <defs
     id="defs4">
    <inkscape:perspective
       sodipodi:type="inkscape:persp3d"
       inkscape:vp_x="0 : 526.18109 : 1"
       inkscape:vp_y="0 : 1000 : 0"
       inkscape:vp_z="744.09448 : 526.18109 : 1"
       inkscape:persp3d-origin="372.04724 : 350.78739 : 1"
       id="perspective10" />
    <inkscape:perspective
       sodipodi:type="inkscape:persp3d"
       inkscape:vp_x="0 : 0.5 : 1"
       inkscape:vp_y="0 : 1000 : 0"
       inkscape:vp_z="1 : 0.5 : 1"
       inkscape:persp3d-origin="0.5 : 0.33333333 : 1"
       id="perspective3613" />
    <inkscape:perspective
       sodipodi:type="inkscape:persp3d"
       inkscape:vp_x="0 : 0.5 : 1"
       inkscape:vp_y="0 : 1000 : 0"
       inkscape:vp_z="1 : 0.5 : 1"
       inkscape:persp3d-origin="0.5 : 0.33333333 : 1"
       id="perspective2889" />
    <inkscape:perspective
       sodipodi:type="inkscape:persp3d"
       inkscape:vp_x="0 : 0.5 : 1"
       inkscape:vp_y="0 : 1000 : 0"
       inkscape:vp_z="1 : 0.5 : 1"
       inkscape:persp3d-origin="0.5 : 0.33333333 : 1"
       id="perspective3662" />
    <inkscape:perspective
       sodipodi:type="inkscape:persp3d"
       inkscape:vp_x="0 : 0.5 : 1"
       inkscape:vp_y="0 : 1000 : 0"
       inkscape:vp_z="1 : 0.5 : 1"
       inkscape:persp3d-origin="0.5 : 0.33333333 : 1"
       id="perspective2895" />
    <inkscape:perspective
       sodipodi:type="inkscape:persp3d"
       inkscape:vp_x="0 : 0.5 : 1"
       inkscape:vp_y="0 : 1000 : 0"
       inkscape:vp_z="1 : 0.5 : 1"
       inkscape:persp3d-origin="0.5 : 0.33333333 : 1"
       id="perspective3734" />
    <radialGradient
       gradientUnits="userSpaceOnUse"
       gradientTransform="matrix(1.1455354,0.10723205,-0.07992099,0.85377761,-7.1834567,-0.63661276)"
       r="22.163744"
       fy="84.61351"
       fx="94.771332"
       cy="84.61351"
       cx="94.771332"
       id="radialGradient3712"
       xlink:href="#linearGradient3704"
       inkscape:collect="always" />
    <linearGradient
       id="linearGradient3704">
      <stop
         id="stop3706"
         offset="0"
         style="stop-color:#eea1e6;stop-opacity:1;" />
      <stop
         style="stop-color:#eea1e6;stop-opacity:1;"
         offset="0.67803818"
         id="stop3720" />
      <stop
         style="stop-color:#eea1e6;stop-opacity:0.58823532;"
         offset="0.72211838"
         id="stop3714" />
      <stop
         id="stop3716"
         offset="0.86243427"
         style="stop-color:#eea1e6;stop-opacity:0.58823532;" />
      <stop
         style="stop-color:#eea1e6;stop-opacity:0.19607843;"
         offset="0.90321583"
         id="stop3718" />
      <stop
         id="stop3708"
         offset="1"
         style="stop-color:#eea1e6;stop-opacity:0.19607843;" />
    </linearGradient>
    <radialGradient
       r="22.163744"
       fy="84.61351"
       fx="94.771332"
       cy="84.61351"
       cx="94.771332"
       gradientTransform="matrix(1.1455354,0.10723205,-0.07992099,0.85377761,190.77114,513.82394)"
       gradientUnits="userSpaceOnUse"
       id="radialGradient3782"
       xlink:href="#linearGradient3704"
       inkscape:collect="always" />
    <radialGradient
       r="22.163744"
       fy="84.61351"
       fx="94.771332"
       cy="84.61351"
       cx="94.771332"
       gradientTransform="matrix(1.1455354,0.10723205,-0.07992099,0.85377761,290.77114,513.82394)"
       gradientUnits="userSpaceOnUse"
       id="radialGradient3729"
       xlink:href="#linearGradient3704"
       inkscape:collect="always" />
    <radialGradient
       inkscape:collect="always"
       xlink:href="#linearGradient3704"
       id="radialGradient4027"
       gradientUnits="userSpaceOnUse"
       gradientTransform="matrix(1.1455354,0.10723205,-0.07992099,0.85377761,290.77114,473.82394)"
       cx="94.771332"
       cy="84.61351"
       fx="94.771332"
       fy="84.61351"
       r="22.163744" />
    <inkscape:perspective
       id="perspective3680"
       inkscape:persp3d-origin="0.5 : 0.33333333 : 1"
       inkscape:vp_z="1 : 0.5 : 1"
       inkscape:vp_y="0 : 1000 : 0"
       inkscape:vp_x="0 : 0.5 : 1"
       sodipodi:type="inkscape:persp3d" />
    <inkscape:perspective
       id="perspective3703"
       inkscape:persp3d-origin="0.5 : 0.33333333 : 1"
       inkscape:vp_z="1 : 0.5 : 1"
       inkscape:vp_y="0 : 1000 : 0"
       inkscape:vp_x="0 : 0.5 : 1"
       sodipodi:type="inkscape:persp3d" />
    <inkscape:perspective
       id="perspective3627"
       inkscape:persp3d-origin="0.5 : 0.33333333 : 1"
       inkscape:vp_z="1 : 0.5 : 1"
       inkscape:vp_y="0 : 1000 : 0"
       inkscape:vp_x="0 : 0.5 : 1"
       sodipodi:type="inkscape:persp3d" />
    <inkscape:perspective
       id="perspective3650"
       inkscape:persp3d-origin="0.5 : 0.33333333 : 1"
       inkscape:vp_z="1 : 0.5 : 1"
       inkscape:vp_y="0 : 1000 : 0"
       inkscape:vp_x="0 : 0.5 : 1"
       sodipodi:type="inkscape:persp3d" />
    <inkscape:perspective
       id="perspective3678"
       inkscape:persp3d-origin="0.5 : 0.33333333 : 1"
       inkscape:vp_z="1 : 0.5 : 1"
       inkscape:vp_y="0 : 1000 : 0"
       inkscape:vp_x="0 : 0.5 : 1"
       sodipodi:type="inkscape:persp3d" />
    <inkscape:perspective
       id="perspective3678-6"
       inkscape:persp3d-origin="0.5 : 0.33333333 : 1"
       inkscape:vp_z="1 : 0.5 : 1"
       inkscape:vp_y="0 : 1000 : 0"
       inkscape:vp_x="0 : 0.5 : 1"
       sodipodi:type="inkscape:persp3d" />
    <inkscape:perspective
       id="perspective2859"
       inkscape:persp3d-origin="0.5 : 0.33333333 : 1"
       inkscape:vp_z="1 : 0.5 : 1"
       inkscape:vp_y="0 : 1000 : 0"
       inkscape:vp_x="0 : 0.5 : 1"
       sodipodi:type="inkscape:persp3d" />
    <inkscape:perspective
       id="perspective3658"
       inkscape:persp3d-origin="0.5 : 0.33333333 : 1"
       inkscape:vp_z="1 : 0.5 : 1"
       inkscape:vp_y="0 : 1000 : 0"
       inkscape:vp_x="0 : 0.5 : 1"
       sodipodi:type="inkscape:persp3d" />
    <inkscape:perspective
       id="perspective3658-3"
       inkscape:persp3d-origin="0.5 : 0.33333333 : 1"
       inkscape:vp_z="1 : 0.5 : 1"
       inkscape:vp_y="0 : 1000 : 0"
       inkscape:vp_x="0 : 0.5 : 1"
       sodipodi:type="inkscape:persp3d" />
    <inkscape:perspective
       id="perspective3658-1"
       inkscape:persp3d-origin="0.5 : 0.33333333 : 1"
       inkscape:vp_z="1 : 0.5 : 1"
       inkscape:vp_y="0 : 1000 : 0"
       inkscape:vp_x="0 : 0.5 : 1"
       sodipodi:type="inkscape:persp3d" />
  </defs>
  <metadata
     id="metadata7">
    <rdf:RDF>
      <cc:Work
         rdf:about="">
        <dc:format>image/svg+xml</dc:format>
        <dc:type
           rdf:resource="http://purl.org/dc/dcmitype/StillImage" />
        <dc:title>Snail</dc:title>
        <dc:creator>
          <cc:Agent>
            <dc:title>Carlos Vives B.</dc:title>
          </cc:Agent>
        </dc:creator>
        <cc:license
           rdf:resource="http://creativecommons.org/licenses/by/3.0/" />
      </cc:Work>
      <cc:License
         rdf:about="http://creativecommons.org/licenses/by/3.0/">
        <cc:permits
           rdf:resource="http://creativecommons.org/ns#Reproduction" />
        <cc:permits
           rdf:resource="http://creativecommons.org/ns#Distribution" />
        <cc:requires
           rdf:resource="http://creativecommons.org/ns#Notice" />
        <cc:requires
           rdf:resource="http://creativecommons.org/ns#Attribution" />
        <cc:permits
           rdf:resource="http://creativecommons.org/ns#DerivativeWorks" />
      </cc:License>
    </rdf:RDF>
  </metadata>
  <g
     transform="translate(-215.70114,-532.60219)"
     inkscape:label="Capa 1"
     inkscape:groupmode="layer"
     id="layer1">
    <path
       sodipodi:nodetypes="czzzszzzszssaaaaaszsaaaasszzszzzc"
       id="path2872"
       d="m 242.13525,572.21376 c -0.6383,-1.78393 -1.93302,-4.83007 -3.02145,-6.66908 -1.08843,-1.83901 -3.68261,-4.10011 -3.86162,-5.93095 -0.179,-1.83084 0.23183,-1.65944 -0.36174,-3.13466 -0.59357,-1.47521 -1.07986,0.45967 -3.28854,2.2373 -2.04032,1.64213 -4.844,2.33593 -3.76244,3.41769 1.08157,1.08176 2.64173,0.435 3.74389,1.47279 1.10215,1.0378 2.04836,3.55866 3.44261,5.69079 1.39425,2.13213 2.89665,5.35798 0.81454,7.0454 -0.88621,0.71822 -2.05084,2.36479 -2.3896,4.00765 -0.33876,1.64286 -3.69225,32.58758 7.69306,41.62109 8.72883,6.92576 26.07514,1.59933 36.11678,2.86916 4.62226,0.58452 8.62672,-0.66385 12.92625,-0.35864 2.16823,0.15392 4.24863,1.25529 6.42716,1.19549 2.12224,-0.0582 4.07217,-1.36364 6.18733,-1.41068 2.00652,-0.0446 3.91064,1.15273 5.92354,1.17158 3.34428,0.0313 6.53989,-1.53313 9.87644,-1.76182 3.83407,-0.26281 7.73278,1.21236 11.52025,0.55262 5.51191,-0.96012 13.94932,-7.3959 11.96356,-8.64675 -1.98575,-1.25085 -12.28748,5.69455 -16.33653,0.84569 -6.36222,-7.61895 -19.64108,-8.275 -30.08156,-8.9733 -10.14444,-0.6785 -20.59995,8.28429 -30.12937,4.7488 -5.7717,-2.14135 -10.02977,-8.22775 -11.92325,-14.07017 -2.29307,-7.0754 3.35892,-14.99127 1.70883,-22.24158 -0.3547,-1.5585 -0.945,-3.07472 -2.40018,-4.15113 -2.20184,-1.62873 -1.99205,-4.87547 -2.75465,-7.79329 -0.97046,-3.71314 -4.28677,-6.7573 -4.12489,-7.90997 0.16189,-1.15266 0.86279,-2.83806 0.25504,-4.08856 -0.61928,-1.27423 -1.79149,1.04963 -4.51003,2.47652 -2.70424,1.41939 -5.21391,1.54567 -4.27823,2.99082 0.93568,1.44515 1.7413,0.20565 2.86618,1.32637 1.12488,1.12072 2.74528,2.57028 3.76925,6.46896 l 1.55526,5.92154"
       style="fill:#83a92f;fill-opacity:1;stroke:none" />
    <path
       style="opacity:0.5;fill:#58661c;fill-opacity:1;stroke:none"
       d="m 238.57803,556.94927 c 1.59709,0.0462 3.15646,1.2849 4.22634,2.53049 1.63267,1.90081 2.45716,4.48272 2.84412,6.9584 0.53968,3.45278 1.62218,8.18918 -0.81601,10.45229 6.0477,-2.0129 1.30691,-13.04988 -0.77275,-17.09375 -0.81957,-1.59365 -2.05694,-4.10867 -5.4817,-2.84743 z m -4.61362,1.1885 c -0.94375,1.2492 -2.96528,2.5477 -4.54793,3.43627 2.65538,0.4377 3.19101,0.91612 4.27188,2.9152 0.82928,1.53376 1.55568,2.81727 2.47568,4.28092 0.97345,1.54867 2.25156,4.19132 1.87677,6.22966 -0.38643,2.10162 -3.2015,3.14558 -3.57813,5.3125 -0.68542,6.33278 -1.0564,12.49049 -0.71875,18.85938 0.73413,8.63064 3.49531,17.31214 8.60355,21.3652 3.87992,3.07846 10.07529,3.559 16.65625,3.25 6.58096,-0.309 13.42255,-1.36514 18.78125,-0.6875 4.28334,0.54166 8.22126,-0.67189 12.84375,-0.34375 2.56675,0.18221 4.6201,1.23396 6.3125,1.1875 1.58126,-0.0434 3.52494,-1.34704 6.1875,-1.40625 2.58243,-0.0574 4.47176,1.17377 5.9375,1.1875 2.89976,0.0271 6.07044,-1.52691 9.78125,-1.78125 4.26272,-0.29219 8.11827,1.19915 11.375,0.59375 3.35454,-0.64525 7.19422,-3.19115 9.79826,-5.28386 -2.35763,0.43672 -10.42483,4.4044 -14.33926,1.13736 -1.56123,-0.2082 -4.36802,-1.60499 -5.90625,-2.09375 -5.50475,-1.74909 -14.96918,-6.77887 -22.875,-8.875 -6.33059,1.22779 -12.3958,3.58084 -21.13485,6.43739 5.1821,-0.56146 9.10157,-1.08658 13.90809,-0.62576 3.08298,0.29558 9.91325,2.30382 13.00796,3.62592 -3.51831,0.52473 -6.85109,-0.72865 -10.28125,-1.1875 -4.62249,-0.32814 -8.56041,0.88541 -12.84375,0.34375 -5.3587,-0.67764 -12.20029,0.3785 -18.78125,0.6875 -6.58096,0.309 -12.77633,-0.17154 -16.65625,-3.25 -5.10824,-4.05306 -7.51587,-13.08811 -8.25,-21.71875 -0.36706,-4.31532 -0.36756,-8.48838 -0.15625,-11.84375 0.13182,-0.74849 1.21506,-2.35387 2.18075,-3.58467 0.48285,-0.6154 0.34256,-1.39497 0.57052,-1.86055 0.22796,-0.46558 0.82416,-0.61718 0.90498,-1.10165 0.23099,-1.38456 -1.75038,-3.86816 -2.21875,-5.54688 -0.50263,-1.80152 0.66465,-2.10358 -0.15625,-3.5625 -0.36956,-0.6568 -1.19312,-1.41593 -1.73137,-2.37625 -0.71721,-1.27959 -1.35658,-2.4025 -1.29815,-3.72018 z"
       id="path3727"
       sodipodi:nodetypes="caacscccsssccsssssssscccccsccssssccssssssc" />
    <path
       style="fill:#dde1a2;fill-opacity:1;stroke:none;opacity:0.65"
       d="m 234.11893,598.45295 c -0.86749,1.90232 1.37958,17.15491 8.125,22.40625 4.39594,3.42226 9.84268,3.49532 16.40625,3.1875 6.56357,-0.30782 13.39579,-1.37643 18.84375,-0.6875 4.195,0.53049 8.1055,-0.70914 12.8125,-0.375 2.67177,0.18967 4.68571,1.23044 6.25,1.1875 1.43869,-0.0395 3.41193,-1.34383 6.21875,-1.40625 2.73421,-0.0608 4.6472,1.17512 5.96875,1.1875 2.78261,0.026 5.90931,-1.52015 9.71875,-1.78125 4.37569,-0.29994 8.22476,1.17354 11.34375,0.59375 3.42102,-0.32369 10.36025,-5.3017 10.09792,-5.46069 -0.26234,-0.15898 -2.33893,1.49172 -5.47292,2.89819 -5.0468,1.87913 -9.81969,-0.18876 -14.93727,-0.5095 -2.17723,0.003 -7.07315,1.5524 -9.02612,1.53408 -2.7042,-0.0254 -5.56175,-0.34534 -6.84061,-0.31694 -1.42346,0.0316 -4.20606,0.63997 -7.01187,0.71692 -2.79277,0.0767 -4.65094,-0.67159 -6.31563,-0.78976 -3.89206,-0.27628 -6.38148,0.17256 -11.431,-0.46599 -4.59368,-0.5809 -10.25618,-0.60043 -17.0625,-0.2812 -6.80632,0.31922 -12.98638,-0.46329 -19.5,-3.71875 -6.51363,-3.25546 -7.32001,-19.82113 -8.1875,-17.91881 l 0,-5e-5 z"
       id="path3636"
       sodipodi:nodetypes="cssssssssczccssssszzzc" />
    <path
       style="fill:#e5ff80;stroke:none;stroke-width:1px;stroke-linecap:butt;stroke-linejoin:miter;stroke-opacity:1;opacity:0.50000000000000000;color:#000000;fill-opacity:1;fill-rule:nonzero;marker:none;visibility:visible;display:inline;overflow:visible;enable-background:accumulate"
       d="m 28.5,40.125 c -1.827666,0.4506 -3.562188,1.410051 -5,2.625 -0.840227,0.709991 -2.592866,1.698404 -2,2.625 0.828151,1.294325 3.02701,-0.562494 4.5,-1 1.36506,-0.405449 3.297285,-0.261465 4,-1.5 0.459773,-0.810348 0.21531,-2.153019 -0.5,-2.75 -0.255917,-0.213582 -0.676358,-0.07979 -1,0 z"
       id="path3648"
       transform="translate(215.70114,532.60219)"
       sodipodi:nodetypes="caaaaaa" />
    <path
       style="fill:none;stroke:#143200;stroke-width:2;stroke-linecap:round;stroke-linejoin:round;stroke-miterlimit:4;stroke-opacity:1;stroke-dasharray:none;fill-opacity:1"
       d="m 242.13525,572.21376 c -0.6383,-1.78393 -1.93302,-4.83007 -3.02145,-6.66908 -1.08843,-1.83901 -3.68261,-4.10011 -3.86162,-5.93095 -0.179,-1.83084 0.23183,-1.65944 -0.36174,-3.13466 -0.59357,-1.47521 -1.07986,0.45967 -3.28854,2.2373 -2.04032,1.64213 -4.844,2.33593 -3.76244,3.41769 1.08157,1.08176 2.64173,0.435 3.74389,1.47279 1.10215,1.0378 2.04836,3.55866 3.44261,5.69079 1.39425,2.13213 2.89665,5.35798 0.81454,7.0454 -0.88621,0.71822 -2.05084,2.36479 -2.3896,4.00765 -0.33876,1.64286 -3.69225,32.58758 7.69306,41.62109 8.72883,6.92576 26.07514,1.59933 36.11678,2.86916 4.62226,0.58452 8.62672,-0.66385 12.92625,-0.35864 2.16823,0.15392 4.24863,1.25529 6.42716,1.19549 2.12224,-0.0582 4.07217,-1.36364 6.18733,-1.41068 2.00652,-0.0446 3.91064,1.15273 5.92354,1.17158 3.34428,0.0313 6.53989,-1.53313 9.87644,-1.76182 3.83407,-0.26281 7.73278,1.21236 11.52025,0.55262 5.51191,-0.96012 13.94932,-7.3959 11.96356,-8.64675 -1.98575,-1.25085 -12.28748,5.69455 -16.33653,0.84569 -6.36222,-7.61895 -19.64108,-8.275 -30.08156,-8.9733 -10.14444,-0.6785 -20.59995,8.28429 -30.12937,4.7488 -5.7717,-2.14135 -10.02977,-8.22775 -11.92325,-14.07017 -2.29307,-7.0754 3.35892,-14.99127 1.70883,-22.24158 -0.3547,-1.5585 -0.945,-3.07472 -2.40018,-4.15113 -2.20184,-1.62873 -1.99205,-4.87547 -2.75465,-7.79329 -0.97046,-3.71314 -4.28677,-6.7573 -4.12489,-7.90997 0.16189,-1.15266 0.86279,-2.83806 0.25504,-4.08856 -0.61928,-1.27423 -1.79149,1.04963 -4.51003,2.47652 -2.70424,1.41939 -5.21391,1.54567 -4.27823,2.99082 0.93568,1.44515 1.7413,0.20565 2.86618,1.32637 1.12488,1.12072 2.74528,2.57028 3.76925,6.46896 l 1.55526,5.92154 c 0.61206,2.74748 -0.42902,4.06056 -1.625,5 m 0.96968,-4.26603 c -2.10447,0.59219 -4.43937,1.41994 -5.45798,2.33859"
       id="path2835"
       sodipodi:nodetypes="czzzszzzszssaaaaaszsaaaasszzszzzcccc" />
    <path
       transform="matrix(0.80675768,0,0,0.80441444,201.85552,534.34446)"
       d="m 40.5,22.518875 c 0,5.384776 -4.421188,9.75 -9.875,9.75 -5.453812,0 -9.875,-4.365224 -9.875,-9.75 0,-5.384776 4.421188,-9.75 9.875,-9.75 5.453812,0 9.875,4.365224 9.875,9.75 z"
       sodipodi:ry="9.75"
       sodipodi:rx="9.875"
       sodipodi:cy="22.518875"
       sodipodi:cx="30.625"
       id="path3616"
       style="color:#000000;fill:#ffffff;fill-opacity:1;fill-rule:evenodd;stroke:#162616;stroke-width:2.48266721;stroke-linecap:round;stroke-linejoin:round;stroke-miterlimit:4;stroke-opacity:1;stroke-dasharray:none;stroke-dashoffset:0;marker:none;visibility:visible;display:inline;overflow:visible;enable-background:accumulate"
       sodipodi:type="arc" />
    <path
       style="fill:#a9683d;stroke:none;stroke-width:2;stroke-linecap:round;stroke-linejoin:round;stroke-miterlimit:4;stroke-opacity:1;stroke-dasharray:none;fill-opacity:1"
       d="m 327.14896,595.27013 c 3.88466,-1.88337 2.74593,-7.34125 0.24983,-9.82002 -4.79564,-4.76235 -12.68314,-2.74497 -16.52768,2.14108 -5.80757,7.38086 -2.08,18.89196 4.54032,23.17112 8.58812,5.55109 23.58646,2.83852 29.90478,-6.92193 8.03063,-12.40562 2.90688,-29.01699 -9.33049,-36.52221 -14.92332,-9.15252 -34.56993,-2.96871 -43.28187,11.70278 -3.85846,6.49791 -5.44399,14.20436 -4.60559,21.70106 -0.6318,1.84492 -3.92874,-2.84969 -7.22568,-0.78918 -2.38162,1.48844 -1.1185,6.11482 3.03641,8.13756 4.15492,2.02274 9.74899,0.89804 14.4579,2.14655 6.1338,1.6263 13.46846,5.54354 17.73937,6.90058 4.27091,1.35703 9.4672,1.65374 9.78349,-1.49679 0.39126,-3.89736 -2.34053,-3.2303 -5.5997,-2.83329"
       id="path3626"
       sodipodi:nodetypes="cssassscszazss" />
    <path
       sodipodi:type="inkscape:offset"
       inkscape:radius="0.60832375"
       inkscape:original="M 104.4375 46.3125 C 97.756334 46.165053 90.718586 51.619627 90.625 64.875 C 91.72669 41.95617 119.11694 46.19911 114.9375 61.25 C 119.11833 53.646293 112.00949 46.479606 104.4375 46.3125 z M 93.84375 62.8125 C 92.82172 83.48848 120.76315 84.46616 128.6875 69.71875 C 113.69976 83.40809 94.88091 72.30123 93.84375 62.8125 z M 65.75 68.6875 C 65.6988 68.7853 65.46888 69.11041 65.4375 69.25 C 65.3554 69.61541 65.3614 70.14976 65.5625 70.75 C 65.96473 71.95049 67.06804 73.33825 68.8125 74.1875 C 70.57 75.04311 72.80959 75.28574 75.28125 75.40625 C 77.75291 75.52677 80.4385 75.53132 83.03125 76.21875 C 89.43962 77.91785 96.87689 81.89582 100.84375 83.15625 C 102.84939 83.79352 105.08564 84.15779 106.65625 84.03125 C 107.44155 83.96795 108.03886 83.76349 108.34375 83.5625 C 108.64864 83.36151 108.74087 83.24592 108.78125 82.84375 C 108.75975 81.47431 108.94478 80.77636 107.40625 80.84375 C 105.23303 81.01884 100.79652 81.00101 98.53125 80.28125 C 93.95629 78.82761 89.54673 75.241 83.6875 73.6875 C 77.64762 72.24703 69.71652 74.24823 65.75 68.6875 z "
       style="fill:#784421;stroke:none"
       id="path2854"
       d="m 104.4375,45.71875 c -3.51072,-0.07748 -7.122438,1.302863 -9.84375,4.4375 -2.721312,3.134637 -4.514951,7.984 -4.5625,14.71875 a 0.60838459,0.60838459 0 0 0 1.1875,0.03125 C 91.7579,53.690131 98.585417,49.363822 104.75,49.4375 c 3.08229,0.03684 6.01055,1.205986 7.875,3.21875 1.86445,2.012764 2.7158,4.846932 1.71875,8.4375 a 0.60838459,0.60838459 0 0 0 1.125,0.4375 c 2.19943,-4.000119 1.41848,-7.98804 -0.90625,-10.90625 -2.32473,-2.91821 -6.15142,-4.818557 -10.125,-4.90625 z m -10.75,16.5 a 0.60838459,0.60838459 0 0 0 -0.4375,0.5625 c -0.262267,5.305745 1.348731,9.422117 4.0625,12.3125 2.71377,2.890383 6.49188,4.555277 10.53125,5.0625 8.07874,1.014447 17.26906,-2.515003 21.375,-10.15625 a 0.60838459,0.60838459 0 0 0 -0.9375,-0.71875 c -7.33977,6.703918 -15.53407,7.28517 -22.0625,5.09375 C 99.690321,72.18358 94.915684,67.124792 94.4375,62.75 a 0.60838459,0.60838459 0 0 0 -0.75,-0.53125 z m -28.09375,5.875 a 0.60838459,0.60838459 0 0 0 -0.375,0.3125 c 0.01947,-0.0372 -0.08058,0.09492 -0.15625,0.21875 -0.07567,0.123827 -0.155495,0.21862 -0.21875,0.5 -0.111295,0.495352 -0.07824,1.112599 0.15625,1.8125 0.463824,1.384323 1.643052,2.893274 3.53125,3.8125 1.899674,0.924825 4.225274,1.128426 6.71875,1.25 2.492326,0.121528 5.132192,0.151568 7.625,0.8125 6.293717,1.668701 13.671477,5.631661 17.78125,6.9375 2.06625,0.656529 4.35267,1.012757 6.0625,0.875 0.86524,-0.06974 1.51732,-0.264906 1.96875,-0.5625 0.17365,-0.114475 0.36095,-0.249744 0.5,-0.46875 0.13905,-0.219006 0.16329,-0.446371 0.1875,-0.6875 a 0.60838459,0.60838459 0 0 0 0,-0.0625 c -0.0103,-0.655711 0.10172,-1.196377 -0.15625,-1.78125 -0.12898,-0.292437 -0.39336,-0.561235 -0.71875,-0.6875 -0.32539,-0.126265 -0.69504,-0.143833 -1.125,-0.125 a 0.60838459,0.60838459 0 0 0 -0.0313,0 c -2.10387,0.169502 -6.57543,0.08872 -8.625,-0.5625 -4.407251,-1.400352 -8.864655,-5.000184 -14.875,-6.59375 C 80.703528,72.344829 77.166568,72.492082 74,72.125 70.833432,71.757918 68.101914,70.939979 66.25,68.34375 a 0.60838459,0.60838459 0 0 0 -0.65625,-0.25 z"
       transform="translate(215.70114,532.69058)" />
    <path
       style="opacity:0.3;fill:#e79448;fill-opacity:1;stroke:none"
       d="m 320.13864,565.00844 c -0.71506,0.002 -1.44449,0.0357 -2.15625,0.0937 -9.49326,0.77469 -18.63113,6.86114 -22.25,17.75 -0.51394,1.66435 0.38466,3.64292 1.97611,4.35108 1.59144,0.70815 3.66281,0.0511 4.55514,-1.44483 3.07859,-5.41932 6.93351,-8.62094 11.34375,-9.875 4.41023,-1.25406 9.67475,-0.62795 15.8125,2.65625 2.58146,1.38129 4.8262,4.88066 5.625,8.25 0.3994,1.68467 0.43232,3.28676 0.21875,4.3125 -0.21357,1.02574 -0.5019,1.2908 -0.65625,1.375 -1.52315,0.88395 -2.19852,2.98404 -1.47616,4.59013 0.72236,1.6061 2.7417,2.4942 4.41366,1.94112 2.9836,-1.07263 5.05434,-3.56973 6.03125,-6.25 0.97691,-2.68027 1.10039,-5.58203 0.65625,-8.5 -0.88828,-5.83595 -4.00941,-11.92044 -9.59375,-15.25 -4.46728,-2.66353 -9.49461,-4.0157 -14.5,-4 l 0,5e-5 z m 0.875,19.21875 c -0.65189,-0.0204 -1.30201,0.0427 -1.96875,0.15625 -2.66695,0.45424 -5.2927,2.02615 -6.96875,4.15625 -1.38944,1.76585 -2.18966,3.806 -2.46875,5.9375 1.57783,0.975 3.89196,0.45911 4.90625,-1.09375 0.85014,-1.28644 3.73648,-2.28896 5.90625,-2.03125 2.26063,0.29765 1.23246,2.38164 2.28902,4.20238 0.90832,0.96629 2.37725,1.36292 3.64848,0.98512 -0.89409,-0.5768 -0.79995,-2.15834 0.15625,-2.625 1.37874,-0.66845 1.74335,-1.75354 1.65625,-3.25 -0.0871,-1.49646 -0.87411,-3.22437 -1.8125,-4.15625 -1.52319,-1.51262 -3.38807,-2.22017 -5.34375,-2.28125 z"
       id="path3701"
       sodipodi:nodetypes="cscscsssssscssscccsscccccsssc" />
    <path
       style="fill:#e79448;stroke:none;fill-opacity:1"
       d="m 83.450667,51.365801 c 6.860266,-12.076304 18.455003,-15.831172 31.947623,-8.611517 7.69501,4.117458 10.44782,17.431586 5.22535,20.28033 7.58465,-2.726742 5.14939,-18.350715 -3.53785,-23.53033 -11.87376,-7.07952 -28.531376,-3.495215 -33.635123,11.861517 z m 22.002003,1.916369 c -3.55849,-0.106806 -7.261354,1.34911 -9.64017,5.49908 3.84218,-5.81399 16.42907,-4.39725 13.8125,1.71875 2.2038,-3.030136 -0.13938,-7.096784 -4.17233,-7.21783 z M 67.9375,68.375 c 0,0 1.97247,1.96269 3.25,2.40625 2.86274,0.99393 5.67964,-0.63692 9.09375,0.25 2.54641,0.66151 9.02656,3.40541 11.25,3.75 -4.12389,-1.67646 -7.24657,-4.24584 -10.21875,-4.9375 -3.32737,-0.77432 -7.04864,0.32142 -9.5625,0.25 C 70.35948,70.05425 67.9375,68.375 67.9375,68.375 z"
       transform="translate(215.70114,532.60219)"
       id="path3650"
       sodipodi:nodetypes="cscsccccccsscssc" />
    <path
       sodipodi:type="inkscape:offset"
       inkscape:radius="0.48106331"
       inkscape:original="M 73.78125 62.375 C 73.507588 63.700495 73.489775 65.523636 73.90625 68.53125 C 79.727423 68.147806 84.452501 68.403125 97 77.9375 C 92.589357 73.813016 90.84534 67.915859 90.875 65.03125 C 84.592625 69.639971 73.186836 68.661764 73.78125 62.375 z "
       style="opacity:0.75;color:#000000;fill:#784421;fill-opacity:1;fill-rule:nonzero;stroke:none;stroke-width:1px;marker:none;visibility:visible;display:inline;overflow:visible;enable-background:accumulate"
       id="path2856"
       d="m 73.625,61.90625 a 0.48111141,0.48111141 0 0 0 -0.3125,0.375 c -0.290488,1.406992 -0.295354,3.276876 0.125,6.3125 A 0.48111141,0.48111141 0 0 0 73.9375,69 c 2.895081,-0.190701 5.440077,-0.213357 8.84375,0.96875 3.403673,1.182107 7.685265,3.59291 13.9375,8.34375 a 0.48111141,0.48111141 0 0 0 0.625,-0.71875 c -4.289765,-4.011448 -6.027597,-9.878499 -6,-12.5625 a 0.48111141,0.48111141 0 0 0 -0.75,-0.375 C 87.577604,66.868881 83.245633,67.750317 79.8125,67.3125 78.095934,67.093592 76.609879,66.539983 75.625,65.71875 74.640121,64.897517 74.115078,63.833244 74.25,62.40625 a 0.48111141,0.48111141 0 0 0 -0.625,-0.5 z"
       transform="translate(215.70114,532.60219)" />
    <path
       sodipodi:type="arc"
       style="color:#000000;fill:#000000;fill-opacity:1;fill-rule:evenodd;stroke:none;stroke-width:3.91509032;marker:none;visibility:visible;display:inline;overflow:visible;enable-background:accumulate"
       id="path3624"
       sodipodi:cx="2.6875"
       sodipodi:cy="29.643875"
       sodipodi:rx="1.0625"
       sodipodi:ry="1.5"
       d="m 3.75,29.643875 c 0,0.828427 -0.4756975,1.5 -1.0625,1.5 -0.5868025,0 -1.0625,-0.671573 -1.0625,-1.5 0,-0.828427 0.4756975,-1.5 1.0625,-1.5 0.5868025,0 1.0625,0.671573 1.0625,1.5 z"
       transform="matrix(1.7085367,0,0,1.5567786,219.46581,506.14809)" />
    <path
       sodipodi:type="arc"
       style="color:#000000;fill:#ffffff;fill-opacity:1;fill-rule:evenodd;stroke:#162616;stroke-width:2.12110233;stroke-linecap:round;stroke-linejoin:round;stroke-miterlimit:4;stroke-opacity:1;stroke-dasharray:none;stroke-dashoffset:0;marker:none;visibility:visible;display:inline;overflow:visible;enable-background:accumulate"
       id="path3614"
       sodipodi:cx="30.625"
       sodipodi:cy="22.518875"
       sodipodi:rx="9.875"
       sodipodi:ry="9.75"
       d="m 40.5,22.518875 c 0,5.384776 -4.421188,9.75 -9.875,9.75 -5.453812,0 -9.875,-4.365224 -9.875,-9.75 0,-5.384776 4.421188,-9.75 9.875,-9.75 5.453812,0 9.875,4.365224 9.875,9.75 z"
       transform="matrix(0.94413718,0,0,0.94167621,208.48898,524.93787)" />
    <path
       sodipodi:type="arc"
       style="color:#000000;fill:#000000;fill-opacity:1;fill-rule:evenodd;stroke:none;stroke-width:3.91509032;marker:none;visibility:visible;display:inline;overflow:visible;enable-background:accumulate"
       id="path3622"
       sodipodi:cx="22.75"
       sodipodi:cy="19.456375"
       sodipodi:rx="2"
       sodipodi:ry="2.4375"
       d="m 24.75,19.456375 c 0,1.346194 -0.895431,2.4375 -2,2.4375 -1.104569,0 -2,-1.091306 -2,-2.4375 0,-1.346194 0.895431,-2.4375 2,-2.4375 1.104569,0 2,1.091306 2,2.4375 z"
       transform="matrix(1.1789163,0,0,1.1753684,206.69635,523.36239)" />
    <path
       style="fill:#e5ff80;stroke:none;stroke-width:1px;stroke-linecap:butt;stroke-linejoin:miter;stroke-opacity:1;opacity:0.50000000000000000;color:#000000;fill-opacity:1;fill-rule:nonzero;marker:none;visibility:visible;display:inline;overflow:visible;enable-background:accumulate"
       d="m 29.96365,27.261594 c -0.276382,0.02949 -0.63799,0.17272 -0.707107,0.441941 -0.285353,1.111492 1.209606,1.95823 1.679379,3.005204 0.625563,1.394181 1.264344,2.821624 1.502602,4.331029 0.22055,1.397221 -0.36982,2.856399 -0.08839,4.242641 0.186293,0.917623 1.066552,1.630561 1.149049,2.563262 0.08562,0.968046 -0.36529,1.918699 -0.707107,2.828427 -0.454195,1.208818 -1.62382,2.163863 -1.767767,3.447146 -0.145771,1.299546 0.842669,2.499441 0.972272,3.800699 0.225143,2.260509 -0.51661,4.540069 -0.353553,6.805902 0.228523,3.175541 1.40417,6.217658 1.856155,9.369165 0.281363,1.961833 -0.273521,4.110453 0.53033,5.92202 1.285384,2.896755 3.673823,5.458476 6.452349,6.982679 1.889933,1.036752 4.277572,0.607123 6.363961,1.149049 1.145286,0.29748 2.176062,1.11156 3.358758,1.149048 1.007276,0.03193 3.01114,0.207863 2.916815,-0.795495 -0.105116,-1.118139 -2.253888,-0.06379 -3.358757,-0.265165 -1.146661,-0.208987 -2.225979,-0.697826 -3.358757,-0.972272 -1.488161,-0.360547 -3.301825,0.05964 -4.507806,-0.883883 -1.152325,-0.901539 -0.696248,-3.085713 -1.856155,-3.977476 -0.664356,-0.510772 -1.909942,0.177016 -2.474874,-0.441942 -1.395436,-1.528882 0.175788,-4.241389 -0.53033,-6.187184 -0.490731,-1.352268 -1.828201,-2.250521 -2.474874,-3.535534 -0.795766,-1.581277 -1.395821,-3.290773 -1.679379,-5.038136 -0.368114,-2.268423 -0.346032,-4.622395 0,-6.894291 0.188603,-1.238287 0.481309,-2.509056 1.118719,-3.587311 0.570034,-0.96428 2.083227,-1.330096 2.328427,-2.423097 0.155655,-0.693848 -0.824014,-1.325979 -0.679379,-2.022208 0.137751,-0.663089 0.820594,-0.890816 1.360597,-1.508884 0.796252,-1.120804 0.155597,-1.57713 -0.09983,-2.254525 -0.255431,-0.677396 -0.125638,-1.575861 -1.28849,-2.080946 C 35.007437,40.136802 34.599417,39.853094 34.300961,39.375239 33.554401,38.179932 33.730931,36.613607 33.375,35.25 33.062031,34.050983 32.569712,32.899701 32.3125,31.6875 32.177336,31.050495 32.284826,30.362059 32.0625,29.75 31.758639,28.913478 31.320314,28.055553 30.625,27.5 30.441924,27.353724 30.196663,27.236729 29.96365,27.261594 z"
       id="path3679"
       transform="translate(215.70114,532.60219)"
       sodipodi:nodetypes="caaaaaaaaaaaaaaaaaaaaaaaaaaacscaaaaaa" />
    <path
       style="font-size:medium;font-style:normal;font-variant:normal;font-weight:normal;font-stretch:normal;text-indent:0;text-align:start;text-decoration:none;line-height:normal;letter-spacing:normal;word-spacing:normal;text-transform:none;direction:ltr;block-progression:tb;writing-mode:lr-tb;text-anchor:start;color:#000000;fill:#321400;fill-opacity:1;fill-rule:nonzero;stroke:none;stroke-width:2;marker:none;visibility:visible;display:inline;overflow:visible;enable-background:accumulate;font-family:Bitstream Vera Sans;-inkscape-font-specification:Bitstream Vera Sans"
       d="m 317.96875,562.125 c -10.48917,0.88729 -20.50879,6.91692 -26.125,16.375 -3.81933,6.43202 -5.42356,14.0142 -4.78125,21.4375 -0.30357,-0.14677 -0.61372,-0.29605 -1.125,-0.5625 -0.69311,-0.36121 -1.50456,-0.75652 -2.46875,-0.90625 -0.96419,-0.14973 -2.09252,-0.0203 -3.125,0.625 -0.82653,0.51655 -1.36144,1.35514 -1.5625,2.25 -0.20106,0.89486 -0.0976,1.84222 0.21875,2.78125 0.63263,1.87806 2.15738,3.7185 4.46875,4.84375 4.6037,2.24122 10.28078,1.05865 14.65625,2.21875 5.94018,1.57496 13.20219,5.44984 17.6875,6.875 2.22696,0.70759 4.66487,1.16705 6.75,1 1.04256,-0.0835 2.00691,-0.31327 2.8125,-0.84375 0.80559,-0.53048 1.39359,-1.44003 1.5,-2.5 0.0452,-0.45032 -0.12732,-0.73995 -0.15625,-1.125 1.57149,-0.0481 3.15602,-0.2272 4.71875,-0.5625 5.83213,-1.25135 11.3864,-4.50849 14.71875,-9.65625 8.35736,-12.91035 3.03565,-30.12227 -9.65625,-37.90625 -5.78545,-3.54824 -12.23775,-4.87612 -18.53125,-4.34375 z m 0.125,2 c 5.90441,-0.50761 11.96796,0.7151 17.375,4.03125 11.78284,7.22646 16.7039,23.25536 9,35.15625 -2.98597,4.61269 -8.0751,7.59273 -13.46875,8.75 -10.17036,1.15105 -18.35481,-1.89165 -21.53125,-11.96875 -0.97795,-4.10231 -0.49577,-8.46483 2.1875,-11.875 1.75812,-2.23441 4.48598,-3.86765 7.28125,-4.34375 2.79527,-0.4761 5.59678,0.14297 7.75,2.28125 1.04161,1.03438 1.87367,2.86578 1.96875,4.5 0.0951,1.63422 -0.37089,2.95922 -1.9375,3.71875 -0.53459,0.18399 -0.82145,0.87916 -0.57218,1.38661 0.24927,0.50745 0.97481,0.7053 1.44718,0.39464 2.31805,-1.12384 3.18964,-3.43974 3.0625,-5.625 -0.12714,-2.18526 -1.10801,-4.33686 -2.5625,-5.78125 -2.64242,-2.62407 -6.16022,-3.40727 -9.46875,-2.84375 -3.30853,0.56352 -6.44483,2.41086 -8.53125,5.0625 -3.1243,3.97069 -3.68277,9.02551 -2.59375,13.59375 1.08902,4.56824 3.79338,8.71621 7.375,11.03125 3.02965,1.90057 6.43814,2.59053 9.9375,2.9063 0.0575,0.27539 0.14971,0.47382 0.0937,1.03125 -0.0517,0.51529 -0.23386,0.74244 -0.625,1 -0.39114,0.25756 -1.04509,0.46476 -1.875,0.53125 -1.65982,0.13297 -3.95605,-0.25681 -6,-0.90625 -4.05651,-1.28892 -11.45383,-5.22861 -17.78125,-6.90625 -5.04235,-1.33692 -10.57511,-0.28949 -14.28125,-2.09375 -1.84354,-0.89749 -3.02649,-2.37458 -3.46875,-3.6875 -0.22113,-0.65646 -0.25835,-1.23308 -0.15625,-1.6875 0.1021,-0.45442 0.32322,-0.77233 0.6875,-1 0.61599,-0.38498 1.14901,-0.43708 1.75,-0.34375 0.60099,0.0933 1.25278,0.36324 1.875,0.6875 0.62222,0.32426 1.16023,0.69076 1.8125,0.90625 0.32613,0.10774 0.74133,0.22124 1.21875,0.0625 0.47742,-0.15874 0.82553,-0.6443 0.96875,-1.0625 0.0486,-0.12917 0.07,-0.26846 0.0625,-0.40625 -0.81451,-7.28308 0.72611,-14.79088 4.46875,-21.09375 5.27371,-8.88128 14.69056,-14.56024 24.53125,-15.40625 l 5e-5,-5e-5 z"
       id="path2855"
       sodipodi:nodetypes="cscssssssssssscsssccssccsssscscsssssccsssssssssssssscscc" />
  </g>
</svg>
