<?xml version="1.0" encoding="UTF-8" standalone="no"?>
<!-- Created with Inkscape (http://www.inkscape.org/) -->

<svg
   xmlns:osb="http://www.openswatchbook.org/uri/2009/osb"
   xmlns:dc="http://purl.org/dc/elements/1.1/"
   xmlns:cc="http://creativecommons.org/ns#"
   xmlns:rdf="http://www.w3.org/1999/02/22-rdf-syntax-ns#"
   xmlns:svg="http://www.w3.org/2000/svg"
   xmlns="http://www.w3.org/2000/svg"
   xmlns:sodipodi="http://sodipodi.sourceforge.net/DTD/sodipodi-0.dtd"
   xmlns:inkscape="http://www.inkscape.org/namespaces/inkscape"
   inkscape:export-ydpi="90"
   inkscape:export-xdpi="90"
   inkscape:export-filename="/mnt/y/src/hedgewars/share/hedgewars/Data/Themes/Snow/Ball.png"
   inkscape:version="0.48.0 r9654"
   version="1.1"
   id="svg2"
   height="174.48601"
   width="166.29604"
   sodipodi:docname="Ball.svg">
  <sodipodi:namedview
     id="base"
     pagecolor="#ffffff"
     bordercolor="#666666"
     borderopacity="1.0"
     inkscape:pageopacity="0.0"
     inkscape:pageshadow="2"
     inkscape:zoom="1.4142136"
     inkscape:cx="80.36706"
     inkscape:cy="129.02805"
     inkscape:document-units="px"
     inkscape:current-layer="layer1"
     showgrid="false"
     inkscape:window-width="1280"
     inkscape:window-height="948"
     inkscape:window-x="-4"
     inkscape:window-y="-3"
     inkscape:window-maximized="1"
     fit-margin-top="15"
     fit-margin-left="15"
     fit-margin-right="15"
     fit-margin-bottom="15" />
  <defs
     id="defs4">
    <pattern
       inkscape:stockid="Polka dots, medium"
       id="Polkadots-med"
       patternTransform="translate(0,0) scale(10,10)"
       height="10"
       width="10"
       patternUnits="userSpaceOnUse"
       inkscape:collect="always">
      <circle
         id="circle4775"
         r="0.15"
         cy="0.810"
         cx="2.567"
         style="fill:black;stroke:none" />
      <circle
         id="circle4777"
         r="0.15"
         cy="2.33"
         cx="3.048"
         style="fill:black;stroke:none" />
      <circle
         id="circle4779"
         r="0.15"
         cy="2.415"
         cx="4.418"
         style="fill:black;stroke:none" />
      <circle
         id="circle4781"
         r="0.15"
         cy="3.029"
         cx="1.844"
         style="fill:black;stroke:none" />
      <circle
         id="circle4783"
         r="0.15"
         cy="1.363"
         cx="6.08"
         style="fill:black;stroke:none" />
      <circle
         id="circle4785"
         r="0.15"
         cy="4.413"
         cx="5.819"
         style="fill:black;stroke:none" />
      <circle
         id="circle4787"
         r="0.15"
         cy="4.048"
         cx="4.305"
         style="fill:black;stroke:none" />
      <circle
         id="circle4789"
         r="0.15"
         cy="3.045"
         cx="5.541"
         style="fill:black;stroke:none" />
      <circle
         id="circle4791"
         r="0.15"
         cy="5.527"
         cx="4.785"
         style="fill:black;stroke:none" />
      <circle
         id="circle4793"
         r="0.15"
         cy="5.184"
         cx="2.667"
         style="fill:black;stroke:none" />
      <circle
         id="circle4795"
         r="0.15"
         cy="1.448"
         cx="7.965"
         style="fill:black;stroke:none" />
      <circle
         id="circle4797"
         r="0.15"
         cy="5.049"
         cx="7.047"
         style="fill:black;stroke:none" />
      <circle
         id="circle4799"
         r="0.15"
         cy="0.895"
         cx="4.340"
         style="fill:black;stroke:none" />
      <circle
         id="circle4801"
         r="0.15"
         cy="0.340"
         cx="7.125"
         style="fill:black;stroke:none" />
      <circle
         id="circle4803"
         r="0.15"
         cy="1.049"
         cx="9.553"
         style="fill:black;stroke:none" />
      <circle
         id="circle4805"
         r="0.15"
         cy="2.689"
         cx="7.006"
         style="fill:black;stroke:none" />
      <circle
         id="circle4807"
         r="0.15"
         cy="2.689"
         cx="8.909"
         style="fill:black;stroke:none" />
      <circle
         id="circle4809"
         r="0.15"
         cy="4.407"
         cx="9.315"
         style="fill:black;stroke:none" />
      <circle
         id="circle4811"
         r="0.15"
         cy="3.870"
         cx="7.820"
         style="fill:black;stroke:none" />
      <circle
         id="circle4813"
         r="0.15"
         cy="5.948"
         cx="8.270"
         style="fill:black;stroke:none" />
      <circle
         id="circle4815"
         r="0.15"
         cy="7.428"
         cx="7.973"
         style="fill:black;stroke:none" />
      <circle
         id="circle4817"
         r="0.15"
         cy="8.072"
         cx="9.342"
         style="fill:black;stroke:none" />
      <circle
         id="circle4819"
         r="0.15"
         cy="9.315"
         cx="8.206"
         style="fill:black;stroke:none" />
      <circle
         id="circle4821"
         r="0.15"
         cy="9.475"
         cx="9.682"
         style="fill:black;stroke:none" />
      <circle
         id="circle4823"
         r="0.15"
         cy="6.186"
         cx="9.688"
         style="fill:black;stroke:none" />
      <circle
         id="circle4825"
         r="0.15"
         cy="6.296"
         cx="3.379"
         style="fill:black;stroke:none" />
      <circle
         id="circle4827"
         r="0.15"
         cy="8.204"
         cx="2.871"
         style="fill:black;stroke:none" />
      <circle
         id="circle4829"
         r="0.15"
         cy="8.719"
         cx="4.59"
         style="fill:black;stroke:none" />
      <circle
         id="circle4831"
         r="0.15"
         cy="9.671"
         cx="3.181"
         style="fill:black;stroke:none" />
      <circle
         id="circle4833"
         r="0.15"
         cy="7.315"
         cx="5.734"
         style="fill:black;stroke:none" />
      <circle
         id="circle4835"
         r="0.15"
         cy="6.513"
         cx="6.707"
         style="fill:black;stroke:none" />
      <circle
         id="circle4837"
         r="0.15"
         cy="9.670"
         cx="5.730"
         style="fill:black;stroke:none" />
      <circle
         id="circle4839"
         r="0.15"
         cy="8.373"
         cx="6.535"
         style="fill:black;stroke:none" />
      <circle
         id="circle4841"
         r="0.15"
         cy="7.154"
         cx="4.37"
         style="fill:black;stroke:none" />
      <circle
         id="circle4843"
         r="0.15"
         cy="7.25"
         cx="0.622"
         style="fill:black;stroke:none" />
      <circle
         id="circle4845"
         r="0.15"
         cy="5.679"
         cx="0.831"
         style="fill:black;stroke:none" />
      <circle
         id="circle4847"
         r="0.15"
         cy="8.519"
         cx="1.257"
         style="fill:black;stroke:none" />
      <circle
         id="circle4849"
         r="0.15"
         cy="6.877"
         cx="1.989"
         style="fill:black;stroke:none" />
      <circle
         id="circle4851"
         r="0.15"
         cy="3.181"
         cx="0.374"
         style="fill:black;stroke:none" />
      <circle
         id="circle4853"
         r="0.15"
         cy="1.664"
         cx="1.166"
         style="fill:black;stroke:none" />
      <circle
         id="circle4855"
         r="0.15"
         cy="0.093"
         cx="1.151"
         style="fill:black;stroke:none" />
      <circle
         id="circle4857"
         r="0.15"
         cy="10.093"
         cx="1.151"
         style="fill:black;stroke:none" />
      <circle
         id="circle4859"
         r="0.15"
         cy="4.451"
         cx="1.302"
         style="fill:black;stroke:none" />
      <circle
         id="circle4861"
         r="0.15"
         cy="3.763"
         cx="3.047"
         style="fill:black;stroke:none" />
    </pattern>
    <linearGradient
       id="linearGradient5294"
       osb:paint="solid">
      <stop
         style="stop-color:#d6cda8;stop-opacity:1;"
         offset="0"
         id="stop5296" />
    </linearGradient>
    <filter
       inkscape:collect="always"
       id="filter5306"
       color-interpolation-filters="sRGB">
      <feGaussianBlur
         inkscape:collect="always"
         stdDeviation="0.365"
         id="feGaussianBlur5308" />
    </filter>
  </defs>
  <metadata
     id="metadata7">
    <rdf:RDF>
      <cc:Work
         rdf:about="">
        <dc:format>image/svg+xml</dc:format>
        <dc:type
           rdf:resource="http://purl.org/dc/dcmitype/StillImage" />
        <dc:title />
      </cc:Work>
    </rdf:RDF>
  </metadata>
  <g
     transform="translate(-212.23005,-401.7896)"
     id="layer1"
     inkscape:groupmode="layer"
     inkscape:label="Capa 1">
    <path
       transform="matrix(0.91975398,0,0,0.91975398,22.211138,104.12914)"
       d="m 370,422.94403 c 0,40.31679 -32.68321,73 -73,73 -40.31679,0 -73,-32.68321 -73,-73 0,-40.31679 32.68321,-73 73,-73 40.31679,0 73,32.68321 73,73 z"
       sodipodi:ry="73"
       sodipodi:rx="73"
       sodipodi:cy="422.94403"
       sodipodi:cx="297"
       id="path2993"
       style="color:#000000;fill:#ff1333;fill-opacity:1;fill-rule:nonzero;stroke:none;stroke-width:2.17449450000000022;stroke-miterlimit:4;stroke-opacity:1;stroke-dasharray:none;marker:none;visibility:visible;display:inline;overflow:visible;enable-background:accumulate"
       sodipodi:type="arc" />
    <path
       transform="matrix(0.84031947,0,0,0.84031947,48.729821,134.14847)"
       d="m 370,422.94403 c 0,40.31679 -32.68321,73 -73,73 -40.31679,0 -73,-32.68321 -73,-73 0,-40.31679 32.68321,-73 73,-73 40.31679,0 73,32.68321 73,73 z"
       sodipodi:ry="73"
       sodipodi:rx="73"
       sodipodi:cy="422.94403"
       sodipodi:cx="297"
       id="path4863"
       style="color:#000000;fill:#db001e;fill-opacity:1;fill-rule:nonzero;stroke:none;stroke-width:2.38004708;marker:none;visibility:visible;display:inline;overflow:visible;enable-background:accumulate"
       sodipodi:type="arc" />
    <path
       transform="matrix(0.75568304,0,0,0.75568304,74.628784,166.46039)"
       d="m 370,422.94403 c 0,40.31679 -32.68321,73 -73,73 -40.31679,0 -73,-32.68321 -73,-73 0,-40.31679 32.68321,-73 73,-73 40.31679,0 73,32.68321 73,73 z"
       sodipodi:ry="73"
       sodipodi:rx="73"
       sodipodi:cy="422.94403"
       sodipodi:cx="297"
       id="path4861"
       style="color:#000000;fill:#ba1128;fill-opacity:1;fill-rule:nonzero;stroke:none;stroke-width:2.64661217;marker:none;visibility:visible;display:inline;overflow:visible;enable-background:accumulate"
       sodipodi:type="arc" />
    <path
       sodipodi:type="arc"
       style="color:#000000;fill:#db001e;fill-opacity:1;fill-rule:nonzero;stroke:none;stroke-width:3.00033593;marker:none;visibility:visible;display:inline;overflow:visible;enable-background:accumulate"
       id="path4865"
       sodipodi:cx="297"
       sodipodi:cy="422.94403"
       sodipodi:rx="73"
       sodipodi:ry="73"
       d="m 370,422.94403 c 0,40.31679 -32.68321,73 -73,73 -40.31679,0 -73,-32.68321 -73,-73 0,-40.31679 32.68321,-73 73,-73 40.31679,0 73,32.68321 73,73 z"
       transform="matrix(0.66659203,0,0,0.66659203,102.27796,201.54903)" />
    <path
       sodipodi:type="arc"
       style="color:#000000;fill:#ff1333;fill-opacity:1;fill-rule:nonzero;stroke:none;stroke-width:4.33197927;marker:none;visibility:visible;display:inline;overflow:visible;enable-background:accumulate"
       id="path4859"
       sodipodi:cx="297"
       sodipodi:cy="422.94403"
       sodipodi:rx="73"
       sodipodi:ry="73"
       d="m 370,422.94403 c 0,40.31679 -32.68321,73 -73,73 -40.31679,0 -73,-32.68321 -73,-73 0,-40.31679 32.68321,-73 73,-73 40.31679,0 73,32.68321 73,73 z"
       transform="matrix(0.46168275,0,0,0.46168275,167.0382,279.00707)" />
    <path
       style="color:#000000;fill:#db001e;fill-opacity:1;fill-rule:nonzero;stroke:none;stroke-width:2.1744945;marker:none;visibility:visible;display:inline;overflow:visible;enable-background:accumulate"
       d="m 306.5,356.94403 c 0,0 -2.73266,4.32937 -2.20392,6.58181 1.53,6.51778 7.72953,11.28629 14.18584,14.21842 10.56187,4.79667 15.53801,1.93885 17.83576,1.25408 2.29775,-0.68477 5.05732,-6.05431 5.05732,-6.05431 z"
       id="path4867"
       inkscape:connector-curvature="0"
       transform="matrix(0.91975398,0,0,0.91975398,22.211138,104.12914)"
       sodipodi:nodetypes="caszcc" />
    <path
       sodipodi:nodetypes="caszcc"
       transform="matrix(0.85354994,0,0,0.85354994,43.51081,128.58694)"
       inkscape:connector-curvature="0"
       id="path2992"
       d="m 305.28774,355.86647 c 0,0 -1.16087,2.07446 -0.8691,3.11082 2.03786,7.23833 10.05772,12.43679 16.51403,15.36892 10.56187,4.79667 16.72498,2.68395 19.02273,1.99918 2.29775,-0.68477 2.49716,-3.53606 2.49716,-3.53606 z"
       style="color:#000000;fill:#ba1128;fill-opacity:1;fill-rule:nonzero;stroke:none;stroke-width:2.34315515;marker:none;visibility:visible;display:inline;overflow:visible;enable-background:accumulate" />
    <path
       sodipodi:type="arc"
       style="color:#000000;fill:none;fill-opacity:1;fill-rule:nonzero;stroke:#4e0202;stroke-width:2.17449450000000022;stroke-miterlimit:4;stroke-opacity:1;stroke-dasharray:none;marker:none;visibility:visible;display:inline;overflow:visible;enable-background:accumulate"
       id="path4596"
       sodipodi:cx="297"
       sodipodi:cy="422.94403"
       sodipodi:rx="73"
       sodipodi:ry="73"
       d="m 370,422.94403 c 0,40.31679 -32.68321,73 -73,73 -40.31679,0 -73,-32.68321 -73,-73 0,-40.31679 32.68321,-73 73,-73 40.31679,0 73,32.68321 73,73 z"
       transform="matrix(0.91975398,0,0,0.91975398,22.211138,104.12914)" />
    <path
       sodipodi:type="arc"
       style="opacity:0.07999998;color:#000000;fill:url(#Polkadots-med);fill-opacity:1;fill-rule:nonzero;stroke:none;stroke-width:2.1744945;marker:none;visibility:visible;display:inline;overflow:visible;filter:url(#filter5306);enable-background:accumulate"
       id="path3782"
       sodipodi:cx="297"
       sodipodi:cy="422.94403"
       sodipodi:rx="73"
       sodipodi:ry="73"
       d="m 370,422.94403 a 73,73 0 1 1 -146,0 73,73 0 1 1 146,0 z"
       transform="matrix(0.91975398,0,0,0.91975398,22.211138,104.12914)" />
    <path
       style="color:#000000;fill:#d6cda8;fill-opacity:1;fill-rule:nonzero;stroke:none;stroke-width:2.17449450000000022;stroke-linecap:butt;stroke-linejoin:round;stroke-miterlimit:4;stroke-opacity:1;stroke-dasharray:none;stroke-dashoffset:0;marker:none;visibility:visible;display:inline;overflow:visible;enable-background:accumulate"
       d="m 313.53125,348.15625 -7.0625,13.21875 c -1.57064,3.36111 4.47808,9.50282 13.5,13.71875 8.91328,4.16516 17.40727,4.91175 19.125,1.6875 l 7.0625,-13.25 c -1.71773,3.22425 -10.21172,2.50891 -19.125,-1.65625 -9.02192,-4.21593 -15.07064,-10.35764 -13.5,-13.71875 z"
       transform="matrix(0.91975397,0,0,0.91975397,23.590775,99.530366)"
       id="path4835"
       inkscape:connector-curvature="0" />
    <path
       sodipodi:type="arc"
       style="color:#000000;fill:#e9ddaf;fill-opacity:1;fill-rule:nonzero;stroke:none;stroke-width:2.17449450000000022;stroke-linecap:butt;stroke-linejoin:round;stroke-miterlimit:4;stroke-opacity:1;stroke-dasharray:none;stroke-dashoffset:0;marker:none;visibility:visible;display:inline;overflow:visible;enable-background:accumulate"
       id="path3763"
       sodipodi:cx="330.57242"
       sodipodi:cy="326.79236"
       sodipodi:rx="18.031223"
       sodipodi:ry="6.7175145"
       d="m 348.60364,326.79236 c 0,3.70998 -8.07285,6.71751 -18.03122,6.71751 -9.95837,0 -18.03123,-3.00753 -18.03123,-6.71751 0,-3.70998 8.07286,-6.71752 18.03123,-6.71752 9.95837,0 18.03122,3.00754 18.03122,6.71752 z"
       transform="matrix(0.83326358,0.38938306,-0.38938306,0.83326358,178.77915,25.740395)" />
    <path
       style="color:#000000;fill:#cdbd83;fill-opacity:1;fill-rule:nonzero;stroke:none;stroke-width:2;stroke-linecap:butt;stroke-linejoin:round;stroke-miterlimit:4;stroke-opacity:1;stroke-dasharray:none;stroke-dashoffset:0;marker:none;visibility:visible;display:inline;overflow:visible;enable-background:accumulate"
       d="M 113.25 22.625 L 116.78125 25.96875 L 130 30.875 C 129.98824 30.177813 129.74247 29.40851 129.28125 28.59375 L 113.25 22.625 z M 103.6875 25.25 C 104.97035 26.350122 106.52355 27.460563 108.25 28.5 L 120.5 30 L 117.25 26.9375 L 103.6875 25.25 z "
       transform="translate(212.23005,401.7896)"
       id="path4531" />
    <path
       style="fill:#f6f1de;stroke:none;stroke-width:1px;stroke-linecap:butt;stroke-linejoin:miter;stroke-opacity:1;fill-opacity:1"
       d="M 104.8125 16 C 102.21698 15.965977 100.35076 16.616266 99.71875 17.96875 C 98.861017 19.804264 100.50076 22.517173 103.6875 25.25 L 117.875 27 L 113.25 22.625 L 129.28125 28.59375 C 127.60613 25.634583 123.16214 22.079323 117.375 19.375 C 112.7074 17.193838 108.14959 16.043744 104.8125 16 z "
       transform="translate(212.23005,401.7896)"
       id="path4526" />
    <path
       style="fill:#eae5d2;stroke:none;stroke-width:1px;stroke-linecap:butt;stroke-linejoin:miter;stroke-opacity:1;color:#000000;fill-opacity:1;fill-rule:nonzero;marker:none;visibility:visible;display:inline;overflow:visible;enable-background:accumulate"
       d="M 122.15625 33.75 L 115.8125 45.9375 C 117.16213 46.126689 118.40845 46.150605 119.46875 46.0625 L 125.84375 33.90625 C 124.77101 33.985804 123.51411 33.946798 122.15625 33.75 z "
       transform="translate(212.23005,401.7896)"
       id="path4562" />
    <path
       style="fill:#b4aa88;stroke:none;stroke-width:1px;stroke-linecap:butt;stroke-linejoin:miter;stroke-opacity:1;color:#000000;fill-opacity:1;fill-rule:nonzero;marker:none;visibility:visible;display:inline;overflow:visible;enable-background:accumulate"
       d="M 100.53125 21.8125 L 94.03125 33.96875 C 95.891195 36.830268 100.16907 40.18585 105.65625 42.75 C 106.74463 43.258598 107.8139 43.697179 108.875 44.09375 L 114.65625 31.65625 C 113.82719 31.329725 112.99985 30.956714 112.15625 30.5625 C 106.66907 27.99835 102.39119 24.674018 100.53125 21.8125 z "
       transform="translate(212.23005,401.7896)"
       id="path4557" />
    <path
       style="fill:#eae5d2;stroke:none;stroke-width:1px;stroke-linecap:butt;stroke-linejoin:miter;stroke-opacity:1;fill-opacity:1"
       d="M 101.8125 23.46875 L 95.3125 35.59375 C 97.079312 37.539404 99.776333 39.59705 103.0625 41.40625 L 109.4375 29.1875 C 106.21619 27.400212 103.55754 25.385175 101.8125 23.46875 z "
       transform="translate(212.23005,401.7896)"
       id="path4547" />
    <g
       id="g4549"
       style="color:#000000;fill:#d6cda8;fill-opacity:1;fill-rule:nonzero;stroke:#2a2626;stroke-width:2.1744945;stroke-linecap:butt;stroke-linejoin:round;stroke-miterlimit:4;stroke-opacity:1;stroke-dasharray:none;stroke-dashoffset:0;marker:none;visibility:visible;display:inline;overflow:visible;enable-background:accumulate"
       transform="matrix(0.83326358,0.38938306,-0.38938306,0.83326358,178.77915,25.740395)" />
    <path
       inkscape:connector-curvature="0"
       id="path4590"
       transform="matrix(0.91975397,0,0,0.91975397,23.590775,99.530366)"
       d="m 313.53125,348.15625 -7.0625,13.21875 c -1.57064,3.36111 4.47808,9.50282 13.5,13.71875 8.91328,4.16516 17.40727,4.91175 19.125,1.6875 l 7.0625,-13.25 c -1.71773,3.22425 -10.21172,2.50891 -19.125,-1.65625 -9.02192,-4.21593 -15.07064,-10.35764 -13.5,-13.71875 z"
       style="color:#000000;fill:none;fill-opacity:1;fill-rule:nonzero;stroke:#2a2626;stroke-width:2.17449450000000022;stroke-linecap:butt;stroke-linejoin:round;stroke-miterlimit:4;stroke-opacity:1;stroke-dasharray:none;stroke-dashoffset:0;marker:none;visibility:visible;display:inline;overflow:visible;enable-background:accumulate" />
    <path
       transform="matrix(0.83326358,0.38938306,-0.38938306,0.83326358,178.77915,25.740395)"
       d="m 348.60364,326.79236 c 0,3.70998 -8.07285,6.71751 -18.03122,6.71751 -9.95837,0 -18.03123,-3.00753 -18.03123,-6.71751 0,-3.70998 8.07286,-6.71752 18.03123,-6.71752 9.95837,0 18.03122,3.00754 18.03122,6.71752 z"
       sodipodi:ry="6.7175145"
       sodipodi:rx="18.031223"
       sodipodi:cy="326.79236"
       sodipodi:cx="330.57242"
       id="path4539"
       style="color:#000000;fill:none;fill-opacity:1;fill-rule:nonzero;stroke:#3f3939;stroke-width:2.17449450000000022;stroke-linecap:butt;stroke-linejoin:round;stroke-miterlimit:4;stroke-opacity:1;stroke-dasharray:none;stroke-dashoffset:0;marker:none;visibility:visible;display:inline;overflow:visible;enable-background:accumulate"
       sodipodi:type="arc" />
  </g>
</svg>
