<?xml version="1.0" encoding="UTF-8" standalone="no"?>
<!-- Created with Inkscape (http://www.inkscape.org/) -->

<svg
   xmlns:dc="http://purl.org/dc/elements/1.1/"
   xmlns:cc="http://creativecommons.org/ns#"
   xmlns:rdf="http://www.w3.org/1999/02/22-rdf-syntax-ns#"
   xmlns:svg="http://www.w3.org/2000/svg"
   xmlns="http://www.w3.org/2000/svg"
   xmlns:sodipodi="http://sodipodi.sourceforge.net/DTD/sodipodi-0.dtd"
   xmlns:inkscape="http://www.inkscape.org/namespaces/inkscape"
   id="svg2"
   version="1.1"
   inkscape:version="0.48.0 r9654"
   width="170"
   height="110"
   sodipodi:docname="CandyCane.svg"
   inkscape:export-filename="/mnt/y/src/hedgewars/share/hedgewars/Data/Themes/Snow/CandyCane.png"
   inkscape:export-xdpi="90"
   inkscape:export-ydpi="90">
  <sodipodi:namedview
     pagecolor="#ffffff"
     bordercolor="#666666"
     borderopacity="1"
     objecttolerance="10"
     gridtolerance="10"
     guidetolerance="10"
     inkscape:pageopacity="0"
     inkscape:pageshadow="2"
     inkscape:window-width="1280"
     inkscape:window-height="948"
     id="namedview4"
     showgrid="false"
     inkscape:zoom="1"
     inkscape:cx="-11.109747"
     inkscape:cy="170.919"
     inkscape:window-x="-4"
     inkscape:window-y="-3"
     inkscape:window-maximized="1"
     inkscape:current-layer="svg2" />
  <metadata
     id="metadata8">
    <rdf:RDF>
      <cc:Work
         rdf:about="">
        <dc:format>image/svg+xml</dc:format>
        <dc:type
           rdf:resource="http://purl.org/dc/dcmitype/StillImage" />
        <dc:title />
      </cc:Work>
    </rdf:RDF>
  </metadata>
  <defs
     id="defs6" />
  <path
     transform="matrix(0.99996682,-0.00814622,0.00814622,0.99996682,-3.3250037,2.002064)"
     style="fill:#ffe1e1;stroke:none;stroke-width:2;stroke-linecap:butt;stroke-linejoin:miter;stroke-opacity:1;stroke-miterlimit:4;stroke-dasharray:none;fill-opacity:1"
     d="M 98.945902,20.95956 C 119.53592,6.7381361 133.54015,-2.6399103 159.17362,19.150707 184.80709,40.941324 161.17973,70.957752 133.32243,98.7382 123.66781,108.36618 110.58735,93.615078 118.05668,85.309841 144.29781,56.13203 154.61929,44.026158 144.31113,35.263349 134.00297,26.500539 127.886,25.729792 110.52359,37.721927 93.161179,49.714062 18.617925,101.20072 -0.60318179,114.47664 -10.678193,121.4354 -22.3913,104.76657 -12.180867,97.714276 7.3379658,84.232713 78.355886,35.180983 98.945902,20.95956 z"
     id="path2983"
     inkscape:connector-curvature="0"
     sodipodi:nodetypes="zzsszzssz" />
  <path
     style="fill:#e3d5d5;fill-opacity:1;stroke:none"
     d="M 127.15625 21.375 C 126.89507 21.371633 126.64149 21.392663 126.375 21.40625 C 122.11109 21.623643 116.52003 24.230901 108 30.21875 L -2.5 107.84375 C -5.4843107 109.94111 -8.8395619 110.36152 -11.75 109.53125 C -14.398774 108.77563 -16.660875 107.09061 -18.34375 104.96875 C -20.174482 112.63703 -11.009819 122.09802 -3 116.46875 L 107.5 38.8125 C 124.76414 26.679325 130.90205 27.415203 141.28125 36.09375 C 141.50532 36.281108 141.70133 36.465481 141.90625 36.65625 C 142.3059 35.343614 142.47152 34.195063 142.4375 33.1875 C 142.36279 30.975088 141.46413 29.247347 139.1875 27.34375 C 134.44886 23.381548 131.07393 21.425499 127.15625 21.375 z M 167.15625 40.96875 C 166.51749 43.247034 165.70191 45.548915 164.6875 47.84375 C 158.38922 62.091976 145.46614 76.751128 131.59375 90.8125 C 128.84251 93.601215 125.53429 94.798363 122.46875 94.625 C 119.40321 94.451637 116.65888 92.991481 114.5625 90.9375 C 114.19935 90.581695 113.85527 90.203771 113.53125 89.8125 C 111.3404 98.069719 122.46535 108.11711 130.8125 99.65625 C 150.27388 79.929757 167.61527 59.095736 167.15625 40.96875 z "
     id="path3769" />
  <path
     style="fill:#ec0000;stroke:none;stroke-width:2;stroke-linecap:butt;stroke-linejoin:miter;stroke-miterlimit:4;stroke-opacity:1;stroke-dasharray:none;fill-opacity:1"
     d="M 126.4375 7.28125 C 125.77508 7.3061172 125.09316 7.3861625 124.40625 7.46875 C 124.23779 7.4924953 124.07426 7.5045298 123.90625 7.53125 C 121.66503 7.8877012 119.44577 8.4763869 117.25 9.3125 C 117.17593 9.3407065 117.10531 9.377552 117.03125 9.40625 C 116.67437 9.5511789 116.33284 9.7130739 115.96875 9.875 C 115.76066 9.9622204 115.55186 10.034087 115.34375 10.125 C 114.26835 10.626305 113.17338 11.216397 112.03125 11.875 C 115.37822 11.722262 121.68172 14.274721 125.4375 18.21875 C 129.19327 22.162779 129.41762 26.616298 131.78125 29.0625 L 135.65625 32.03125 C 137.44334 33.075966 139.2895 34.428355 141.28125 36.09375 C 141.76155 36.495349 142.16996 36.894508 142.5625 37.3125 L 144.28125 38.625 C 144.37775 35.224613 147.11426 31.736865 147.875 26.34375 C 148.6129 21.112553 147.28823 15.062813 145.34375 12.28125 C 144.99653 12.082207 144.6555 11.873915 144.3125 11.6875 C 138.63668 9.5404183 133.13081 7.0299849 126.4375 7.28125 z M 99.6875 19.78125 C 99.504725 19.783867 99.330423 19.799948 99.15625 19.8125 C 98.051563 20.580231 96.923489 21.353489 95.78125 22.15625 L 79.625 33.5 C 82.841408 33.534041 87.146995 35.010054 91.40625 36.6875 C 96.474123 38.68341 101.57156 40.775809 104.96875 40.59375 L 107.5 38.8125 C 113.62698 34.506479 118.33499 31.818161 122.34375 30.53125 L 123.78125 29.71875 C 120.44478 29.054732 116.81325 25.83336 111.9375 23.40625 C 107.67123 21.282528 102.99694 19.733858 99.6875 19.78125 z M 159.25 23.5 C 160.2092 26.710361 159.31671 34.348988 155.71875 38.4375 C 152.12081 42.526011 147.57205 43.019406 145.3125 45.5625 L 145.03125 46.0625 C 144.24967 50.035101 141.45105 54.846446 136.90625 60.90625 L 136.03125 62.53125 C 139.19664 61.285012 144.37059 61.912819 149.8125 61.6875 C 155.23098 61.463151 161.09876 59.530558 163.5 57.1875 C 163.50554 57.174855 163.52572 57.168894 163.53125 57.15625 C 167.07134 49.061197 168.26196 41.225399 166 33.96875 C 165.983 33.914211 165.95489 33.866976 165.9375 33.8125 C 164.49503 30.071697 162.16338 26.666787 159.25 23.5 z M 67.59375 41.96875 L 47.28125 56.25 C 50.534875 56.042868 55.06938 57.551766 59.65625 59.15625 C 64.797547 60.954672 69.987381 62.844562 73.375 62.53125 L 93.15625 48.59375 C 89.763264 48.842365 84.637305 46.833691 79.53125 44.9375 C 75.19919 43.328739 70.823343 41.92093 67.59375 41.96875 z M 35.75 64.78125 C 35.497007 64.792918 35.268515 64.811478 35.03125 64.84375 L 18.78125 76.28125 L 14.75 79.1875 C 14.954812 79.143772 15.1882 79.087814 15.40625 79.0625 L 15.5 79.0625 C 18.766753 78.723984 23.438947 80.346069 28.21875 82 C 33.030446 83.664966 37.87323 85.418378 41.25 85.375 C 41.259798 85.374874 41.271477 85.375156 41.28125 85.375 L 61.65625 71.03125 C 58.268217 71.330482 53.100833 69.432077 47.96875 67.65625 C 43.464803 66.097773 38.989544 64.631841 35.75 64.78125 z M 154.71875 72.1875 C 151.72111 73.663064 146.39271 73.801982 141.25 73.34375 C 135.82485 72.860352 130.46009 72.060652 127.21875 73.09375 L 123.375 77.3125 C 120.89955 80.151512 118.30255 83.105396 115.4375 86.34375 C 114.28103 87.650908 113.61795 89.128126 113.375 90.625 C 116.5715 90.410455 120.79203 91.011862 124.96875 91.5625 C 130.21774 92.254502 135.48061 92.79858 138.5625 91.53125 C 139.20961 90.836889 139.86384 90.133098 140.5 89.4375 L 152.75 74.875 C 153.42308 73.979915 154.08162 73.080343 154.71875 72.1875 z M 4.3125 87.4375 C 3.8494863 87.453321 3.409625 87.506294 3 87.59375 L -14.03125 99.34375 L -14.71875 99.8125 C -15.367219 100.26824 -15.931084 100.75712 -16.40625 101.28125 C -13.1208 100.91711 -8.3437597 102.60616 -3.53125 104.40625 C 1.0049669 106.10299 5.5660666 107.88941 8.90625 108.09375 L 29.09375 93.90625 C 25.735233 93.792011 21.072403 92.112257 16.5 90.46875 C 12.014967 88.856646 7.5535959 87.326753 4.3125 87.4375 z "
     id="path4757" />
  <path
     style="fill:#c00808;fill-opacity:1;stroke:none"
     d="M 127.78125 21.40625 C 129.45749 24.37264 130.04456 27.265136 131.78125 29.0625 L 135.625 32 L 135.65625 32.03125 C 135.69779 32.055539 135.73966 32.069108 135.78125 32.09375 C 136.18946 32.335109 136.58442 32.601554 137 32.875 C 137.46083 33.180428 137.9341 33.497936 138.40625 33.84375 C 138.7306 34.081311 139.0439 34.306332 139.375 34.5625 C 140.00168 35.042727 140.62615 35.545992 141.28125 36.09375 C 141.4981 36.275064 141.71356 36.442723 141.90625 36.625 C 142.29937 35.32475 142.47126 34.187445 142.4375 33.1875 C 142.36279 30.975088 141.46413 29.247347 139.1875 27.34375 C 134.70614 23.596672 131.4358 21.649973 127.78125 21.40625 z M 115.5 25.40625 C 113.27406 26.679653 110.80289 28.248888 108 30.21875 L 96.1875 38.53125 C 99.538193 39.771221 102.65134 40.717943 104.96875 40.59375 L 107.5 38.8125 C 108.5915 38.045395 109.61949 37.353148 110.625 36.6875 C 111.05536 36.402716 111.42792 36.141554 111.84375 35.875 C 112.17269 35.663594 112.49239 35.481363 112.8125 35.28125 C 113.14193 35.075809 113.46076 34.849843 113.78125 34.65625 C 114.55908 34.184889 115.30307 33.777564 116.03125 33.375 C 116.14888 33.31016 116.25859 33.250573 116.375 33.1875 C 117.13957 32.772038 117.87849 32.402492 118.59375 32.0625 C 119.35336 31.701425 120.10171 31.371748 120.8125 31.09375 C 120.84425 31.081332 120.87459 31.074754 120.90625 31.0625 C 121.34117 30.894177 121.73771 30.731594 122.15625 30.59375 C 122.21726 30.573626 122.28307 30.550731 122.34375 30.53125 L 123.78125 29.71875 C 121.31489 29.2279 118.67222 27.338131 115.5 25.40625 z M 167.15625 40.96875 C 166.51749 43.247034 165.70191 45.548915 164.6875 47.84375 C 162.86979 51.95584 160.47236 56.093704 157.6875 60.25 C 160.15194 59.44919 162.24854 58.393617 163.46875 57.21875 C 163.47427 57.206164 163.49449 57.200085 163.5 57.1875 C 163.55421 57.063749 163.60313 56.936119 163.65625 56.8125 C 163.82307 56.424252 164.00034 56.043151 164.15625 55.65625 C 164.24289 55.440815 164.32308 55.21503 164.40625 55 C 164.52169 54.702276 164.64126 54.421871 164.75 54.125 C 164.86052 53.822854 164.95909 53.52003 165.0625 53.21875 C 165.26807 52.620976 165.44797 52.031501 165.625 51.4375 C 165.65621 51.332766 165.68844 51.229612 165.71875 51.125 C 166.03639 50.025998 166.31699 48.960176 166.53125 47.875 C 166.60874 47.487273 166.68621 47.104535 166.75 46.71875 C 166.76354 46.635725 166.76835 46.551684 166.78125 46.46875 C 166.84415 46.064281 166.89005 45.652258 166.9375 45.25 C 166.97353 44.944576 167.00429 44.647854 167.03125 44.34375 C 167.06725 43.945329 167.10487 43.552325 167.125 43.15625 C 167.1609 42.426154 167.17559 41.69046 167.15625 40.96875 z M 84.46875 46.75 L 64.46875 60.8125 C 67.887445 61.92869 71.053442 62.745965 73.375 62.53125 L 93.15625 48.59375 C 90.870721 48.761218 87.791172 47.906684 84.46875 46.75 z M 52.5 69.21875 L 32.28125 83.40625 C 35.65283 84.525556 38.832092 85.40606 41.25 85.375 L 61.65625 71.03125 C 59.278274 71.241273 56.003653 70.371718 52.5 69.21875 z M 154.6875 72.1875 C 152.9376 73.04096 150.38856 73.434453 147.5625 73.53125 C 142.64135 79.341922 137.19939 85.13049 131.59375 90.8125 C 131.10313 91.309804 130.58401 91.727668 130.0625 92.125 C 133.43046 92.403018 136.49498 92.381454 138.5625 91.53125 C 139.20961 90.836889 139.86384 90.133098 140.5 89.4375 L 152.59375 75.03125 C 152.63772 74.972938 152.70618 74.933304 152.75 74.875 C 153.11115 74.394734 153.46079 73.918617 153.8125 73.4375 C 153.94238 73.259946 154.05905 73.083713 154.1875 72.90625 C 154.36044 72.667319 154.5172 72.426253 154.6875 72.1875 z M 113.5625 89.84375 C 113.49685 90.092782 113.41666 90.342848 113.375 90.59375 C 113.37336 90.603654 113.37661 90.615094 113.375 90.625 C 113.65477 90.606222 113.95526 90.600608 114.25 90.59375 C 114.0157 90.348111 113.77929 90.104078 113.5625 89.84375 z M 20.3125 91.8125 L 0.34375 105.84375 C 3.5083706 106.98909 6.5292597 107.94833 8.90625 108.09375 L 29.09375 93.90625 C 26.670262 93.823816 23.570246 92.923422 20.3125 91.8125 z "
     id="path3775" />
  <path
     sodipodi:nodetypes="zzsszzssz"
     inkscape:connector-curvature="0"
     id="path4760"
     d="M 98.945902,20.95956 C 119.53592,6.7381361 133.54015,-2.6399103 159.17362,19.150707 184.80709,40.941324 161.17973,70.957752 133.32243,98.7382 123.66781,108.36618 110.58735,93.615078 118.05668,85.309841 144.29781,56.13203 154.61929,44.026158 144.31113,35.263349 134.00297,26.500539 127.886,25.729792 110.52359,37.721927 93.161179,49.714062 18.617925,101.20072 -0.60318179,114.47664 -10.678193,121.4354 -22.3913,104.76657 -12.180867,97.714276 7.3379658,84.232713 78.355886,35.180983 98.945902,20.95956 z"
     style="fill:none;stroke:#282828;stroke-width:2;stroke-linecap:butt;stroke-linejoin:miter;stroke-opacity:1;stroke-miterlimit:4;stroke-dasharray:none"
     transform="matrix(0.99996682,-0.00814622,0.00814622,0.99996682,-3.3250037,2.002064)" />
  <path
     sodipodi:type="inkscape:offset"
     inkscape:radius="-1.6879333"
     inkscape:original="M 129.90625 31.625 C 124.71475 31.54936 118.67158 34.366751 109.5 40.8125 L -1 118.46875 C -6.1179987 122.06566 -11.697927 119.50977 -14.59375 115.1875 C -14.464848 122.30188 -6.2525489 129.56581 1 124.46875 L 111.5 46.8125 C 128.76414 34.679325 134.90205 35.415203 145.28125 44.09375 C 146.05938 44.744384 146.70142 45.397879 147.25 46.09375 C 147.3334 43.002232 146.06139 40.41836 143.28125 38.09375 C 138.416 34.025681 134.48699 31.691737 129.90625 31.625 z M 168.6875 38.625 C 172.42046 57.72355 153.85284 80.329288 132.8125 101.65625 C 127.30526 107.23851 120.57767 104.76212 117.28125 100.0625 C 117.34975 107.71802 127.21785 115.35436 134.8125 107.65625 C 158.10113 84.050373 178.34756 58.874813 168.6875 38.625 z "
     style="fill:#c8b7b7;stroke:none;fill-opacity:1"
     id="path4769"
     d="m 129.875,33.3125 c -4.56193,-0.06647 -10.33074,2.496767 -19.40625,8.875 l -110.5,77.65625 c -2.948982,2.07253 -6.2553688,2.4266 -9.09375,1.5625 -0.6845797,-0.20841 -1.246396,-0.64032 -1.875,-0.96875 0.702251,1.00118 1.5293709,1.91916 2.5,2.59375 2.5265643,1.75596 5.4588091,2.2218 8.53125,0.0625 l 110.5,-77.65625 c 8.7222,-6.129928 14.77896,-9.192335 20.34375,-9.46875 4.23039,-0.210133 7.93215,1.291258 11.78125,3.96875 -0.19773,-0.184195 -0.24668,-0.376815 -0.46875,-0.5625 -4.76591,-3.985006 -8.29087,-6.003909 -12.3125,-6.0625 z m 39.21875,21.09375 c -1.6176,5.212654 -4.25059,10.504627 -7.625,15.8125 -6.92259,10.889077 -16.91352,21.925978 -27.46875,32.625 -3.08259,3.12458 -6.79717,4.13405 -10.09375,3.53125 -1.0162,-0.18582 -1.96036,-0.56141 -2.875,-1 0.84044,1.10698 1.82126,2.12604 3,2.78125 2.88914,1.60595 6.24909,1.70272 9.59375,-1.6875 11.60537,-11.763465 22.40485,-23.903213 29.03125,-35.4375 3.3132,-5.767143 5.57087,-11.327652 6.4375,-16.625 z"
     transform="translate(-3.6,-8.4)" />
  <path
     style="fill:#800000;stroke:none"
     d="M 129.65625 25.46875 C 130.02244 26.3205 130.40956 27.107951 130.84375 27.8125 C 133.66335 28.338331 136.33539 29.634229 139.0625 31.53125 C 138.86477 31.347055 138.81582 31.154435 138.59375 30.96875 C 135.19768 28.12913 132.42081 26.31383 129.65625 25.46875 z M 118.09375 27 C 114.97782 28.432203 111.34362 30.640718 106.875 33.78125 L 98.8125 39.46875 C 100.01443 39.855138 101.15731 40.142495 102.21875 40.34375 L 106.9375 37.03125 C 112.69653 32.983824 117.28313 30.297579 121.34375 28.84375 C 120.3175 28.352511 119.23129 27.706582 118.09375 27 z M 165.5 46 C 164.09681 50.521727 161.90872 55.119048 159.15625 59.71875 C 159.82398 59.454223 160.48856 59.175495 161.0625 58.875 C 163.27848 54.441035 164.82278 50.139544 165.5 46 z M 87.1875 47.625 L 67.25 61.625 C 68.520186 61.976796 69.706554 62.253557 70.8125 62.40625 L 90.6875 48.4375 C 89.601412 48.270328 88.432599 47.994943 87.1875 47.625 z M 55.25 70.0625 L 35.03125 84.28125 C 36.257916 84.639339 37.438034 84.896362 38.53125 85.09375 L 58.78125 70.875 C 57.68552 70.701052 56.495265 70.416951 55.25 70.0625 z M 152.0625 73.0625 C 151.25196 73.235192 150.36653 73.352995 149.4375 73.4375 C 144.35717 79.760359 138.5543 86.068715 132.5 92.28125 C 133.66586 92.315912 134.74714 92.264396 135.75 92.15625 C 141.77286 85.801577 147.40517 79.388122 152.125 73.0625 C 152.10471 73.066903 152.08288 73.058157 152.0625 73.0625 z M 23.0625 92.6875 L 3 106.78125 C 4.1749713 107.1624 5.3153737 107.45257 6.375 107.6875 L 26.46875 93.59375 C 25.39473 93.381549 24.254552 93.045495 23.0625 92.6875 z "
     id="path4771" />
  <path
     transform="translate(0,0.70710678)"
     style="fill:#ffffff;stroke:none"
     d="m 127.4375,8.40625 c -10.17898,0.3210867 -19.4565,6.659236 -30.96875,14.75 l -110.5,77.65625 c -1.984905,1.39498 -2.892619,3.11207 -3.1875,4.9375 0.416466,-0.40494 0.802477,-0.82906 1.3125,-1.1875 l 110.5,-77.65625 c 10.23987,-7.196544 18.93629,-13.304708 28.59375,-14.84375 9.65746,-1.539042 20.03846,1.677599 33.09375,12.59375 4.34574,3.633679 7.28852,7.581177 9.15625,11.71875 C 164.25746,30.841687 161.04839,25.655689 155.21875,20.78125 144.05869,11.449788 135.35594,8.1564696 127.4375,8.40625 z"
     id="path2988"
     inkscape:connector-curvature="0"
     sodipodi:nodetypes="scccccsscss" />
  <path
     sodipodi:type="inkscape:offset"
     inkscape:radius="0.3365728"
     inkscape:original="M 143 55.875 C 138.06107 63.553841 129.67596 73.16956 117.9375 86.4375 C 116.98855 87.510098 116.454 88.674088 116.21875 89.875 C 126.21581 78.570107 133.88232 69.794646 138.75 62.9375 C 140.63507 60.28198 141.95698 57.987468 143 55.875 z "
     style="fill:#ffffff;stroke:none"
     id="path3765"
     d="m 142.9375,55.53125 a 0.33660645,0.33660645 0 0 0 -0.21875,0.15625 c -4.91433,7.640588 -13.29356,17.264178 -25.03125,30.53125 -0.98746,1.116124 -1.56665,2.33871 -1.8125,3.59375 a 0.33660645,0.33660645 0 0 0 0.125,0.3125 0.33660645,0.33660645 0 0 0 0.40625,0.03125 0.33660645,0.33660645 0 0 0 0.0625,-0.0625 c 9.99775,-11.305675 17.67672,-20.086107 22.5625,-26.96875 1.89505,-2.66958 3.23108,-4.966809 4.28125,-7.09375 a 0.33660645,0.33660645 0 0 0 -0.0313,-0.34375 0.33660645,0.33660645 0 0 0 -0.34375,-0.15625 z"
     transform="translate(0,0.707107)" />
</svg>
