<?xml version="1.0" encoding="UTF-8" standalone="no"?>
<!-- Created with Inkscape (http://www.inkscape.org/) -->

<svg
   xmlns:dc="http://purl.org/dc/elements/1.1/"
   xmlns:cc="http://creativecommons.org/ns#"
   xmlns:rdf="http://www.w3.org/1999/02/22-rdf-syntax-ns#"
   xmlns:svg="http://www.w3.org/2000/svg"
   xmlns="http://www.w3.org/2000/svg"
   xmlns:sodipodi="http://sodipodi.sourceforge.net/DTD/sodipodi-0.dtd"
   xmlns:inkscape="http://www.inkscape.org/namespaces/inkscape"
   id="svg2"
   version="1.1"
   inkscape:version="0.48.0 r9654"
   width="116"
   height="18"
   sodipodi:docname="Girder.svg"
   inkscape:export-filename="/mnt/y/src/hedgewars/share/hedgewars/Data/Themes/Christmas/Girder.png"
   inkscape:export-xdpi="90"
   inkscape:export-ydpi="90"
   enable-background="new">
  <metadata
     id="metadata8">
    <rdf:RDF>
      <cc:Work
         rdf:about="">
        <dc:format>image/svg+xml</dc:format>
        <dc:type
           rdf:resource="http://purl.org/dc/dcmitype/StillImage" />
        <dc:title></dc:title>
      </cc:Work>
    </rdf:RDF>
  </metadata>
  <defs
     id="defs6">
    <linearGradient
       id="linearGradient3957">
      <stop
         style="stop-color:#ff53f4;stop-opacity:1;"
         offset="0"
         id="stop3959" />
      <stop
         style="stop-color:#ff53f4;stop-opacity:0;"
         offset="1"
         id="stop3961" />
    </linearGradient>
    <filter
       inkscape:collect="always"
       id="filter3950">
      <feBlend
         inkscape:collect="always"
         mode="lighten"
         in2="BackgroundImage"
         id="feBlend3952" />
    </filter>
    <filter
       inkscape:collect="always"
       id="filter3987">
      <feBlend
         inkscape:collect="always"
         mode="darken"
         in2="BackgroundImage"
         id="feBlend3989" />
    </filter>
    <filter
       inkscape:collect="always"
       id="filter4004">
      <feGaussianBlur
         inkscape:collect="always"
         stdDeviation="0.15522888"
         id="feGaussianBlur4006" />
    </filter>
  </defs>
  <sodipodi:namedview
     pagecolor="#ffffff"
     bordercolor="#666666"
     borderopacity="1"
     objecttolerance="10"
     gridtolerance="10"
     guidetolerance="10"
     inkscape:pageopacity="0"
     inkscape:pageshadow="2"
     inkscape:window-width="1183"
     inkscape:window-height="723"
     id="namedview4"
     showgrid="false"
     inkscape:zoom="5.6568542"
     inkscape:cx="53.483092"
     inkscape:cy="23.722394"
     inkscape:window-x="0"
     inkscape:window-y="0"
     inkscape:window-maximized="0"
     inkscape:current-layer="svg2" />
  <path
     sodipodi:type="inkscape:offset"
     inkscape:radius="-0.60285324"
     inkscape:original="M 11.6875 1.28125 C 9.8292093 1.3283952 7.9075827 1.5006408 6.15625 1.71875 C 2.6535845 2.1549684 -0.15625 2.75 -0.15625 2.75 A 1.5016267 1.5016267 0 1 0 0.46875 5.6875 C 0.46875 5.6875 3.1651154 5.106715 6.53125 4.6875 C 9.8973846 4.268285 13.978797 4.06676 16.21875 4.59375 C 17.211114 4.8272219 18.219801 5.5425736 19.375 6.4375 C 20.530199 7.3324264 21.809306 8.3996966 23.5625 8.90625 C 26.760949 9.8303834 30.101058 9.6729653 33.15625 9.28125 C 36.011172 8.9152119 38.508054 7.6321791 40.84375 6.59375 C 43.179446 5.5553209 45.298132 4.7562047 47.375 4.9375 C 47.824354 4.976725 48.400525 5.2899756 49.15625 5.8125 C 49.911975 6.3350244 50.809635 7.0506058 52.09375 7.375 C 55.351539 8.1979851 59.301604 9.0750475 62.9375 7.625 C 69.967805 4.8212139 74.688017 4.8982248 81.8125 5.875 C 86.959909 6.5807159 92.594301 8.8955375 98.53125 7.875 C 99.593497 7.6924039 100.30909 7.1224668 100.84375 6.75 C 101.37841 6.3775332 101.72551 6.2150259 101.90625 6.1875 C 102.55157 6.089219 103.41814 6.3253362 104.53125 6.6875 C 105.64436 7.0496638 107.01406 7.5223582 108.59375 7.25 C 109.54 7.0868551 110.4981 7.205444 111.90625 6.84375 C 113.37413 6.4667134 116.65625 5.65625 116.65625 5.65625 A 1.50015 1.50015 0 1 0 115.96875 2.75 C 115.96875 2.75 112.68631 3.5444944 111.15625 3.9375 C 110.28342 4.1616909 109.46828 4.0442633 108.09375 4.28125 C 107.45865 4.3907501 106.57388 4.1720669 105.46875 3.8125 C 104.36362 3.4529331 103.04528 2.9786485 101.46875 3.21875 C 100.39506 3.3822699 99.666492 3.9352728 99.125 4.3125 C 98.583508 4.6897272 98.219551 4.8738819 98.03125 4.90625 C 93.209861 5.7350273 87.886297 3.6832775 82.21875 2.90625 C 74.916551 1.9051098 69.309659 1.8537757 61.8125 4.84375 C 59.311962 5.8410003 55.991183 5.2638571 52.84375 4.46875 C 52.338424 4.3410943 51.688457 3.9061916 50.875 3.34375 C 50.061543 2.7813084 49.04556 2.0900266 47.65625 1.96875 C 44.692486 1.7100351 42.048327 2.7663609 39.625 3.84375 C 37.201673 4.9211391 34.945046 6.0350732 32.78125 6.3125 C 29.897332 6.6822557 26.960229 6.7691756 24.40625 6.03125 C 23.405382 5.7420673 22.391716 4.9711909 21.21875 4.0625 C 20.045784 3.1538091 18.704412 2.1105504 16.90625 1.6875 C 15.35895 1.3234692 13.545791 1.2341048 11.6875 1.28125 z "
     style="font-size:medium;font-style:normal;font-variant:normal;font-weight:normal;font-stretch:normal;text-indent:0;text-align:start;text-decoration:none;line-height:normal;letter-spacing:normal;word-spacing:normal;text-transform:none;direction:ltr;block-progression:tb;writing-mode:lr-tb;text-anchor:start;baseline-shift:baseline;color:#000000;fill:#002b11;fill-opacity:1;stroke:none;stroke-width:2;marker:none;visibility:visible;display:inline;overflow:visible;enable-background:accumulate;font-family:Sans;-inkscape-font-specification:Sans"
     id="path3937"
     d="m 11.6875,1.875 c -1.8316079,0.046468 -3.7324579,0.2212639 -5.46875,0.4375 -3.4751844,0.4327959 -6.25,1.03125 -6.25,1.03125 -0.03368056,0.00717 0.0020384,-0.00881 -0.03125,0 -0.03328837,0.00881 -0.02968402,0.020817 -0.0625,0.03125 -0.032816,0.010433 0.001015,-0.01203 -0.03125,0 -0.0322645,0.01203 3.8537e-4,0.017651 -0.03125,0.03125 -0.0316354,0.013599 -0.03157,-0.015135 -0.0625,0 -0.03093,0.015135 -0.0011,0.014616 -0.03125,0.03125 -0.0301501,0.016634 -0.001952,0.013156 -0.03125,0.03125 -0.0292976,0.018094 -0.002876,-0.01951 -0.03125,0 -0.0283744,0.01951 -0.003867,0.010372 -0.03125,0.03125 -0.027383,0.020878 -0.0361745,0.00905 -0.0625,0.03125 -0.0263255,0.022197 -0.006045,0.00779 -0.03125,0.03125 -0.0252047,0.023462 -0.007227,0.00658 -0.03125,0.03125 -0.0240231,0.02467 -0.008466,0.00543 -0.03125,0.03125 -0.0227837,0.025819 0.0214893,0.00434 0,0.03125 -0.0214893,0.026906 -0.0111068,0.00332 -0.03125,0.03125 -0.0201432,0.027928 -0.0125014,0.00237 -0.03125,0.03125 -0.0187486,0.028883 -0.0139412,0.032732 -0.03125,0.0625 -0.0173088,0.029768 -0.0154227,6.685e-4 -0.03125,0.03125 -0.0158273,0.030581 0.0143076,-7.13e-5 0,0.03125 -0.0143076,0.031321 -0.0184965,-7.356e-4 -0.03125,0.03125 -0.0127535,0.031986 0.0111687,0.029927 0,0.0625 -0.0111687,0.032573 -0.021693,-0.00183 -0.03125,0.03125 -0.009557,0.033082 0.007922,-0.00226 0,0.03125 -0.007922,0.033511 0.006268,0.028641 0,0.0625 -0.006268,0.033859 -0.0266505,-0.00288 -0.03125,0.03125 -0.004599,0.034126 0.002919,0.028189 0,0.0625 -0.002919,0.034311 0.001232,-0.00316 0,0.03125 -0.001232,0.034412 -4.5763e-4,-0.00318 0,0.03125 4.5763e-4,0.034431 -0.002147,0.028132 0,0.0625 0.002147,0.034368 -0.00383,-0.00297 0,0.03125 0.00383,0.034221 0.0257452,0.028508 0.03125,0.0625 0.005505,0.033992 -0.007166,-0.00243 0,0.03125 0.007166,0.033681 -0.00881,-0.00204 0,0.03125 0.00881,0.033288 0.0208172,0.029684 0.03125,0.0625 0.0104328,0.032816 -0.0120305,-0.00101 0,0.03125 0.0120305,0.032265 0.0176509,-3.854e-4 0.03125,0.03125 0.0135991,0.031635 -0.015135,0.03157 0,0.0625 0.015135,0.03093 0.0146155,0.0011 0.03125,0.03125 0.0166345,0.03015 0.0131562,0.00195 0.03125,0.03125 0.0180938,0.029298 -0.0195096,0.00288 0,0.03125 0.0195096,0.028374 0.0103716,0.00387 0.03125,0.03125 0.0208784,0.027383 0.009053,0.036175 0.03125,0.0625 0.0221968,0.026325 0.007788,0.00605 0.03125,0.03125 0.0234618,0.025205 0.00658,0.00723 0.03125,0.03125 0.0246703,0.024023 0.005431,0.00847 0.03125,0.03125 0.0258193,0.022784 0.004344,-0.021489 0.03125,0 0.0269062,0.021489 0.003322,0.011107 0.03125,0.03125 0.0279282,0.020143 0.002367,0.012501 0.03125,0.03125 0.0288829,0.018749 0.0327319,0.013941 0.0625,0.03125 0.0297681,0.017309 6.6846e-4,0.015423 0.03125,0.03125 0.0305815,0.015827 -7.131e-5,-0.014308 0.03125,0 0.0313213,0.014308 -7.3562e-4,0.018497 0.03125,0.03125 0.0319856,0.012753 0.0299271,-0.011169 0.0625,0 0.03257288,0.011169 -0.001832,0.021693 0.03125,0.03125 0.03308167,0.00956 -0.0022608,-0.00792 0.03125,0 0.03351076,0.00792 0.02864088,-0.00627 0.0625,0 0.03385912,0.00627 -0.00287591,0.02665 0.03125,0.03125 0.03412591,0.0046 0.02818951,-0.00292 0.0625,0 0.03431049,0.00292 -0.0031624,-0.00123 0.03125,0 0.0344124,0.00123 -0.003181,4.576e-4 0.03125,0 0.0344314,-4.576e-4 0.0281325,0.00215 0.0625,0 0.0343675,-0.00215 -0.002971,0.00383 0.03125,0 0.0342208,-0.00383 0.0285084,-0.025745 0.0625,-0.03125 0.0339916,-0.0055 -0.002431,0.00717 0.03125,0 0,0 2.7302831,-0.5772254 6.125,-1 C 9.8706757,3.6700776 13.911532,3.4277762 16.34375,4 c 1.170938,0.2754847 2.239695,1.0650258 3.40625,1.96875 1.168322,0.9050931 2.357372,1.8781716 3.96875,2.34375 3.073386,0.8879988 6.354574,0.7622579 9.375,0.375 2.722645,-0.3490784 5.1416,-1.6077269 7.5,-2.65625 2.354447,-1.0467657 4.578609,-1.8852302 6.84375,-1.6875 0.681879,0.059522 1.281582,0.4288066 2.0625,0.96875 0.783817,0.5419475 1.605316,1.179579 2.75,1.46875 3.244206,0.8195538 7.050097,1.6446578 10.46875,0.28125 7.120076,-2.8395881 12.031741,-2.7623132 19.1875,-1.78125 5.264515,0.7217713 10.807068,2.9839637 16.53125,2 C 99.337878,7.1264786 99.93568,6.6431289 100.5,6.25 c 0.56759,-0.3954063 0.89619,-0.5928478 1.3125,-0.65625 0.86682,-0.1320145 1.77891,0.1644564 2.90625,0.53125 1.12151,0.3648959 2.37415,0.7738513 3.78125,0.53125 1.0616,-0.1830322 1.93642,-0.068848 3.25,-0.40625 1.47598,-0.3791182 4.75,-1.1875 4.75,-1.1875 a 0.60291352,0.60291352 0 0 1 0.0625,0 c 0.0362,-0.00496 0.0266,0.00683 0.0625,0 0.0359,-0.00683 -0.004,-0.022557 0.0313,-0.03125 0.0355,-0.00869 0.0275,0.010528 0.0625,0 0.035,-0.010528 -0.003,-0.018916 0.0313,-0.03125 0.0344,-0.012334 0.0288,0.014107 0.0625,0 0.0337,-0.014107 -0.002,-0.015409 0.0313,-0.03125 0.0329,-0.015841 -7.8e-4,0.017533 0.0313,0 0.032,-0.017533 0.0314,-0.012073 0.0625,-0.03125 0.0311,-0.019177 0.001,-0.010481 0.0313,-0.03125 0.03,-0.020769 0.002,-0.00895 0.0313,-0.03125 0.0289,-0.022304 0.004,-0.00747 0.0313,-0.03125 0.0277,-0.023779 0.005,-0.00606 0.0313,-0.03125 0.0264,-0.02519 0.006,-0.00472 0.0313,-0.03125 0.0251,-0.026532 0.008,-0.00345 0.0313,-0.03125 0.0237,-0.027802 0.009,-0.00225 0.0313,-0.03125 0.0222,-0.028997 0.0106,-0.00114 0.0313,-0.03125 0.0207,-0.030113 0.0122,-0.031352 0.0313,-0.0625 0.0191,-0.031148 0.0138,8.48e-4 0.0313,-0.03125 0.0174,-0.032098 -0.0157,0.00171 0,-0.03125 0.0157,-0.032961 0.0173,-0.028766 0.0313,-0.0625 0.014,-0.033734 0.019,0.00317 0.0313,-0.03125 0.0122,-0.034416 -0.0104,0.00375 0,-0.03125 0.0104,-0.035005 -0.009,-0.027001 0,-0.0625 0.009,-0.035499 0.0246,0.00465 0.0313,-0.03125 0.007,-0.035896 -0.005,-0.026304 0,-0.0625 0.005,-0.036196 -0.003,0.00515 0,-0.03125 0.003,-0.036398 -0.001,-0.025999 0,-0.0625 0.001,-0.036501 8.7e-4,0.00525 0,-0.03125 -8.7e-4,-0.036505 0.003,-0.02609 0,-0.0625 -0.003,-0.03641 0.005,0.00497 0,-0.03125 -0.005,-0.036216 0.007,-0.026576 0,-0.0625 -0.007,-0.035924 -0.0228,0.00428 -0.0313,-0.03125 -0.008,-0.035534 0.0102,-0.027451 0,-0.0625 -0.0102,-0.035049 0.0121,0.00322 0,-0.03125 -0.0121,-0.034468 -0.0174,0.00254 -0.0313,-0.03125 -0.0138,-0.033793 -0.0157,-0.029473 -0.0313,-0.0625 -0.0156,-0.033027 0.0173,9.214e-4 0,-0.03125 -0.0173,-0.032171 -0.0123,-2.16e-5 -0.0313,-0.03125 -0.0189,-0.031228 -0.0107,-0.032299 -0.0313,-0.0625 -0.0205,-0.030201 -0.009,-0.00216 -0.0313,-0.03125 -0.0221,-0.029091 -0.008,-0.00335 -0.0313,-0.03125 -0.0236,-0.027903 -0.006,-0.00461 -0.0313,-0.03125 -0.025,-0.026638 -0.005,-0.00595 -0.0313,-0.03125 -0.0263,-0.025302 -0.004,-0.00735 -0.0313,-0.03125 -0.0276,-0.023897 -0.002,-0.00882 -0.0313,-0.03125 -0.0288,-0.022427 -0.001,-0.010354 -0.0313,-0.03125 -0.0299,-0.020896 -2.6e-4,-0.011942 -0.0313,-0.03125 -0.031,-0.019308 -0.0305,-0.013582 -0.0625,-0.03125 -0.032,-0.017668 0.002,0.015981 -0.0313,0 -0.0328,-0.015981 0.002,-0.017 -0.0313,-0.03125 -0.0336,-0.01425 -0.0282,-0.01877 -0.0625,-0.03125 -0.0343,-0.01248 0.004,0.010676 -0.0313,0 -0.0349,-0.010676 -0.0271,0.00884 -0.0625,0 -0.0354,-0.00884 0.005,-0.024263 -0.0313,-0.03125 -0.0358,-0.00699 0.005,0.00511 -0.0313,0 -0.0362,-0.00511 -0.0261,0.00322 -0.0625,0 -0.0364,-0.00322 0.005,0.00132 -0.0313,0 -0.0365,-0.00132 -0.026,-5.782e-4 -0.0625,0 -0.0365,5.782e-4 0.005,-0.00248 -0.0313,0 -0.0364,0.00248 -0.0263,-0.00437 -0.0625,0 -0.0362,0.00437 0.005,-0.00625 -0.0313,0 -0.036,0.00625 -0.0269,-0.00812 -0.0625,0 -0.0356,0.00812 0.004,0.021289 -0.0313,0.03125 -0.0351,0.00996 -0.0279,-0.011776 -0.0625,0 a 0.60291352,0.60291352 0 0 1 -0.0313,0.03125 c 0,0 -3.29404,0.797475 -4.8125,1.1875 -1.00956,0.2593098 -1.82266,0.119209 -3.125,0.34375 -0.85992,0.1482625 -1.77948,-0.1333935 -2.90625,-0.5 -1.11931,-0.3641809 -2.30849,-0.7772783 -3.71875,-0.5625 -0.91382,0.139172 -1.53362,0.6097906 -2.09375,1 C 98.898805,5.2095485 98.561731,5.424928 98.125,5.5 93.06687,6.3694721 87.701391,4.2645299 82.125,3.5 74.861197,2.5041239 69.430139,2.455467 62.03125,5.40625 59.285787,6.5011797 55.865395,5.8653024 52.6875,5.0625 51.985951,4.8852745 51.348693,4.4089478 50.53125,3.84375 49.72087,3.2834358 48.810714,2.6687321 47.59375,2.5625 44.802553,2.3188489 42.283239,3.335569 39.875,4.40625 37.465675,5.4774139 35.157007,6.6096603 32.84375,6.90625 29.920441,7.2810561 26.934516,7.4006419 24.25,6.625 23.078941,6.2866438 22.019155,5.44183 20.84375,4.53125 19.670089,3.6220208 18.429397,2.6690067 16.78125,2.28125 15.31474,1.9362265 13.516543,1.8285968 11.6875,1.875 z"
     transform="translate(0,-1.09434)" />
  <g
     id="g3794"
     transform="matrix(0.93083461,0.14457877,-0.14457877,0.93083461,-9.5560514,-4.4782799)">
    <g
       id="g3852"
       transform="matrix(0.88020957,0,0,0.88020957,2.0106003,0.78001647)">
      <path
         style="fill:#ff5353;fill-opacity:1;stroke:#d20000;stroke-width:1px;stroke-linecap:butt;stroke-linejoin:round;stroke-opacity:0.98039216"
         d="m 15.946514,11.151204 c -0.615601,4.354136 0.426443,7.402933 1.731156,9.588835 1.8803,-2.400512 2.470287,-5.322994 2.298097,-9.5415 z"
         id="path3792"
         inkscape:connector-curvature="0"
         sodipodi:nodetypes="cccc" />
      <path
         transform="matrix(0.60616889,0,0,0.60616889,6.9895477,4.8126328)"
         sodipodi:nodetypes="cccc"
         inkscape:connector-curvature="0"
         id="path3804"
         d="m 15.946514,11.151204 c -0.615601,4.354136 0.426443,7.402933 1.731156,9.588835 1.8803,-2.400512 2.470287,-5.322994 2.298097,-9.5415 z"
         style="fill:#ffbfbf;fill-opacity:1;stroke:none" />
      <path
         style="fill:#005522;fill-opacity:1;stroke:#002b11;stroke-width:2;stroke-linecap:round;stroke-linejoin:round;stroke-miterlimit:4;stroke-opacity:1;stroke-dasharray:none"
         d="m 17.178692,4.9999085 -0.07738,2.0893004 -1.00596,1.083341 -0.386907,3.5595491 c 1.652016,-0.627109 3.128706,-0.409628 4.565508,0 l -0.464289,-3.8690751 -1.160722,-0.773815 0,-2.0119189 z"
         id="path3765"
         inkscape:connector-curvature="0"
         sodipodi:nodetypes="ccccccccc" />
    </g>
    <g
       id="g3857"
       transform="matrix(0.79366442,-0.41407639,0.41407639,0.79366442,68.400139,-0.2190763)">
      <path
         sodipodi:nodetypes="cccc"
         inkscape:connector-curvature="0"
         id="path3859"
         d="m 15.946514,11.151204 c -0.615601,4.354136 0.426443,7.402933 1.731156,9.588835 1.8803,-2.400512 2.470287,-5.322994 2.298097,-9.5415 z"
         style="fill:#ff5353;fill-opacity:1;stroke:#d20000;stroke-width:1px;stroke-linecap:butt;stroke-linejoin:round;stroke-opacity:0.98039216" />
      <path
         style="fill:#ffbfbf;fill-opacity:1;stroke:none"
         d="m 15.946514,11.151204 c -0.615601,4.354136 0.426443,7.402933 1.731156,9.588835 1.8803,-2.400512 2.470287,-5.322994 2.298097,-9.5415 z"
         id="path3861"
         inkscape:connector-curvature="0"
         sodipodi:nodetypes="cccc"
         transform="matrix(0.60616889,0,0,0.60616889,6.9895477,4.8126328)" />
      <path
         inkscape:connector-curvature="0"
         id="path3863"
         d="m 17.178692,4.9999085 -0.07738,2.0893004 -1.00596,1.083341 -0.386907,3.5595491 c 1.158491,-0.472045 2.629493,-0.538087 4.565508,0 l -0.464289,-3.8690751 -1.160722,-0.773815 0,-2.0119189 z"
         style="fill:#005522;fill-opacity:1;stroke:#002b11;stroke-width:2;stroke-linecap:round;stroke-linejoin:round;stroke-miterlimit:4;stroke-opacity:1;stroke-dasharray:none"
         sodipodi:nodetypes="ccccccccc" />
    </g>
    <g
       id="g3865"
       transform="matrix(0.87622168,0.1643472,-0.13496643,0.72420958,84.889605,-12.483415)">
      <path
         sodipodi:nodetypes="cccc"
         inkscape:connector-curvature="0"
         id="path3867"
         d="m 15.946514,11.151204 c -0.615601,4.354136 0.426443,7.402933 1.731156,9.588835 1.8803,-2.400512 2.470287,-5.322994 2.298097,-9.5415 z"
         style="fill:#53fff8;fill-opacity:1;stroke:#0073d2;stroke-width:1px;stroke-linecap:butt;stroke-linejoin:round;stroke-opacity:0.98039216" />
      <path
         style="fill:#bffffd;fill-opacity:1;stroke:none"
         d="m 15.946514,11.151204 c -0.615601,4.354136 0.426443,7.402933 1.731156,9.588835 1.8803,-2.400512 2.470287,-5.322994 2.298097,-9.5415 z"
         id="path3869"
         inkscape:connector-curvature="0"
         sodipodi:nodetypes="cccc"
         transform="matrix(0.60616889,0,0,0.60616889,6.9895477,4.8126328)" />
      <path
         inkscape:connector-curvature="0"
         id="path3871"
         d="m 17.178692,4.9999085 -0.07738,2.0893004 -1.00596,1.083341 -0.386907,3.5595491 c 1.089127,-0.497822 1.897861,-1.346695 4.565508,0 l -0.464289,-3.8690751 -1.160722,-0.773815 0,-2.0119189 z"
         style="fill:#005522;fill-opacity:1;stroke:#002b11;stroke-width:2;stroke-linecap:round;stroke-linejoin:round;stroke-miterlimit:4;stroke-opacity:1;stroke-dasharray:none"
         sodipodi:nodetypes="ccccccccc" />
    </g>
    <g
       transform="matrix(0.86700865,-0.49829018,0.41258483,0.71596181,39.555562,5.276502)"
       id="g3873">
      <path
         style="fill:#53fff8;fill-opacity:1;stroke:#0073d2;stroke-width:1px;stroke-linecap:butt;stroke-linejoin:round;stroke-opacity:0.98039216"
         d="m 15.946514,11.151204 c -0.615601,4.354136 0.426443,7.402933 1.731156,9.588835 1.8803,-2.400512 2.470287,-5.322994 2.298097,-9.5415 z"
         id="path3875"
         inkscape:connector-curvature="0"
         sodipodi:nodetypes="cccc" />
      <path
         transform="matrix(0.60616889,0,0,0.60616889,6.9895477,4.8126328)"
         sodipodi:nodetypes="cccc"
         inkscape:connector-curvature="0"
         id="path3877"
         d="m 15.946514,11.151204 c -0.615601,4.354136 0.426443,7.402933 1.731156,9.588835 1.8803,-2.400512 2.470287,-5.322994 2.298097,-9.5415 z"
         style="fill:#bffffd;fill-opacity:1;stroke:none" />
      <path
         sodipodi:nodetypes="ccccccccc"
         style="fill:#005522;fill-opacity:1;stroke:#002b11;stroke-width:2;stroke-linecap:round;stroke-linejoin:round;stroke-miterlimit:4;stroke-opacity:1;stroke-dasharray:none"
         d="m 17.178692,4.9999085 -0.07738,2.0893004 -1.00596,1.083341 -0.386907,3.5595491 c 1.089127,-0.497822 1.897861,-1.346695 4.565508,0 l -0.464289,-3.8690751 -1.160722,-0.773815 0,-2.0119189 z"
         id="path3879"
         inkscape:connector-curvature="0" />
    </g>
    <g
       transform="matrix(0.99995926,0.00809455,-0.00160462,0.594738,27.22871,2.810441)"
       id="g3881">
      <path
         sodipodi:nodetypes="ccccccccc"
         style="fill:#005522;fill-opacity:1;stroke:#002b11;stroke-width:2;stroke-linecap:round;stroke-linejoin:round;stroke-miterlimit:4;stroke-opacity:1;stroke-dasharray:none"
         d="m 17.178692,4.9999085 -0.07738,2.0893004 -1.00596,1.083341 -0.386907,3.5595491 c -0.26541,2.834126 4.11079,3.492492 4.565508,0 l -0.464289,-3.8690751 -1.160722,-0.773815 0,-2.0119189 z"
         id="path3887"
         inkscape:connector-curvature="0" />
      <path
         style="fill:#ffd553;fill-opacity:1;stroke:#d28e00;stroke-width:1px;stroke-linecap:butt;stroke-linejoin:round;stroke-opacity:0.98039216"
         d="m 15.946514,11.151204 c -0.615601,4.354136 0.426443,7.402933 1.731156,9.588835 1.8803,-2.400512 2.470287,-5.322994 2.298097,-9.5415 -0.516651,-0.993142 -3.319139,-1.4720252 -4.029253,-0.04734 z"
         id="path3883"
         inkscape:connector-curvature="0"
         sodipodi:nodetypes="cccc" />
      <path
         transform="matrix(0.60616889,0,0,0.60616889,6.9895477,4.8126328)"
         sodipodi:nodetypes="cccc"
         inkscape:connector-curvature="0"
         id="path3885"
         d="m 15.946514,11.151204 c -0.615601,4.354136 0.426443,7.402933 1.731156,9.588835 1.8803,-2.400512 2.470287,-5.322994 2.298097,-9.5415 -0.574274,-0.621426 -2.367696,-1.5972338 -4.029253,-0.04734 z"
         style="fill:#ffefbf;fill-opacity:1;stroke:none" />
    </g>
    <g
       id="g3889"
       transform="matrix(0.79654416,-0.07300138,0.07300138,0.79654416,105.49043,-11.634656)">
      <path
         sodipodi:nodetypes="cccc"
         inkscape:connector-curvature="0"
         id="path3891"
         d="m 15.946514,11.151204 c -0.615601,4.354136 0.426443,7.402933 1.731156,9.588835 1.8803,-2.400512 2.470287,-5.322994 2.298097,-9.5415 z"
         style="fill:#ffc353;fill-opacity:1;stroke:#d27300;stroke-width:1px;stroke-linecap:butt;stroke-linejoin:round;stroke-opacity:0.98039216" />
      <path
         style="fill:#ffe4bf;fill-opacity:1;stroke:none"
         d="m 15.946514,11.151204 c -0.615601,4.354136 0.426443,7.402933 1.731156,9.588835 1.8803,-2.400512 2.470287,-5.322994 2.298097,-9.5415 z"
         id="path3893"
         inkscape:connector-curvature="0"
         sodipodi:nodetypes="cccc"
         transform="matrix(0.60616889,0,0,0.60616889,6.9895477,4.8126328)" />
      <path
         sodipodi:nodetypes="ccccccccc"
         inkscape:connector-curvature="0"
         id="path3895"
         d="m 17.178692,4.9999085 -0.07738,2.0893004 -1.00596,1.083341 -0.386907,3.5595491 c 1.652016,-0.627109 3.128706,-0.409628 4.565508,0 l -0.464289,-3.8690751 -1.160722,-0.773815 0,-2.0119189 z"
         style="fill:#005522;fill-opacity:1;stroke:#002b11;stroke-width:2;stroke-linecap:round;stroke-linejoin:round;stroke-miterlimit:4;stroke-opacity:1;stroke-dasharray:none" />
    </g>
    <g
       id="g3897"
       transform="matrix(0.87538072,-0.48341766,0.29031565,0.51906906,110.1631,-3.5222437)">
      <path
         inkscape:connector-curvature="0"
         id="path3899"
         d="m 17.178692,4.9999085 -0.07738,2.0893004 -1.00596,1.083341 -0.386907,3.5595491 c -0.26541,2.834126 4.11079,3.492492 4.565508,0 l -0.464289,-3.8690751 -1.160722,-0.773815 0,-2.0119189 z"
         style="fill:#005522;fill-opacity:1;stroke:#002b11;stroke-width:2;stroke-linecap:round;stroke-linejoin:round;stroke-miterlimit:4;stroke-opacity:1;stroke-dasharray:none"
         sodipodi:nodetypes="ccccccccc" />
      <path
         sodipodi:nodetypes="cccc"
         inkscape:connector-curvature="0"
         id="path3901"
         d="m 15.946514,11.151204 c -0.615601,4.354136 0.426443,7.402933 1.731156,9.588835 1.8803,-2.400512 2.470287,-5.322994 2.298097,-9.5415 -0.516651,-0.993142 -3.319139,-1.4720252 -4.029253,-0.04734 z"
         style="fill:#77ff53;fill-opacity:1;stroke:#21d200;stroke-width:1px;stroke-linecap:butt;stroke-linejoin:round;stroke-opacity:0.98039216" />
      <path
         style="fill:#d4ffce;fill-opacity:1;stroke:none"
         d="m 15.946514,11.151204 c -0.615601,4.354136 0.426443,7.402933 1.731156,9.588835 1.8803,-2.400512 2.470287,-5.322994 2.298097,-9.5415 -0.574274,-0.621426 -2.367696,-1.5972338 -4.029253,-0.04734 z"
         id="path3903"
         inkscape:connector-curvature="0"
         sodipodi:nodetypes="cccc"
         transform="matrix(0.60616889,0,0,0.60616889,6.9895477,4.8126328)" />
    </g>
    <g
       transform="matrix(0.85467231,-0.08542993,0.07141237,0.70616335,58.188074,-1.5267724)"
       id="g3905">
      <path
         style="fill:#69ff53;fill-opacity:1;stroke:#05d200;stroke-width:1px;stroke-linecap:butt;stroke-linejoin:round;stroke-opacity:0.98039216"
         d="m 15.946514,11.151204 c -0.615601,4.354136 0.426443,7.402933 1.731156,9.588835 1.8803,-2.400512 2.470287,-5.322994 2.298097,-9.5415 z"
         id="path3907"
         inkscape:connector-curvature="0"
         sodipodi:nodetypes="cccc" />
      <path
         transform="matrix(0.60616889,0,0,0.60616889,6.9895477,4.8126328)"
         sodipodi:nodetypes="cccc"
         inkscape:connector-curvature="0"
         id="path3909"
         d="m 15.946514,11.151204 c -0.615601,4.354136 0.426443,7.402933 1.731156,9.588835 1.8803,-2.400512 2.470287,-5.322994 2.298097,-9.5415 z"
         style="fill:#d0ffbf;fill-opacity:1;stroke:none" />
      <path
         sodipodi:nodetypes="ccccccccc"
         style="fill:#005522;fill-opacity:1;stroke:#002b11;stroke-width:2;stroke-linecap:round;stroke-linejoin:round;stroke-miterlimit:4;stroke-opacity:1;stroke-dasharray:none"
         d="m 17.178692,4.9999085 -0.07738,2.0893004 -1.00596,1.083341 -0.386907,3.5595491 c 1.089127,-0.497822 1.897861,-1.346695 4.565508,0 l -0.464289,-3.8690751 -1.160722,-0.773815 0,-2.0119189 z"
         id="path3911"
         inkscape:connector-curvature="0" />
    </g>
    <g
       id="g3921"
       transform="matrix(0.86963065,0.36390025,-0.30144031,0.71076987,19.197462,-3.9433455)">
      <path
         sodipodi:nodetypes="cccc"
         inkscape:connector-curvature="0"
         id="path3923"
         d="m 15.946514,11.151204 c -0.615601,4.354136 0.426443,7.402933 1.731156,9.588835 1.8803,-2.400512 2.470287,-5.322994 2.298097,-9.5415 z"
         style="fill:#fd53ff;fill-opacity:1;stroke:#d200cf;stroke-width:1px;stroke-linecap:butt;stroke-linejoin:round;stroke-opacity:0.98039216" />
      <path
         style="fill:#ffbffd;fill-opacity:1;stroke:none"
         d="m 15.946514,11.151204 c -0.615601,4.354136 0.426443,7.402933 1.731156,9.588835 1.8803,-2.400512 2.470287,-5.322994 2.298097,-9.5415 z"
         id="path3925"
         inkscape:connector-curvature="0"
         sodipodi:nodetypes="cccc"
         transform="matrix(0.60616889,0,0,0.60616889,6.9895477,4.8126328)" />
      <path
         inkscape:connector-curvature="0"
         id="path3927"
         d="m 17.178692,4.9999085 -0.07738,2.0893004 -1.00596,1.083341 -0.386907,3.5595491 c 1.089127,-0.497822 1.897861,-1.346695 4.565508,0 l -0.464289,-3.8690751 -1.160722,-0.773815 0,-2.0119189 z"
         style="fill:#005522;fill-opacity:1;stroke:#002b11;stroke-width:2;stroke-linecap:round;stroke-linejoin:round;stroke-miterlimit:4;stroke-opacity:1;stroke-dasharray:none"
         sodipodi:nodetypes="ccccccccc" />
    </g>
    <g
       id="g3929"
       transform="matrix(0.85844005,-0.02904662,0.0248245,0.70933077,93.759226,-8.5973955)">
      <path
         sodipodi:nodetypes="cccc"
         inkscape:connector-curvature="0"
         id="path3931"
         d="m 15.946514,11.151204 c -0.615601,4.354136 0.426443,7.402933 1.731156,9.588835 1.8803,-2.400512 2.470287,-5.322994 2.298097,-9.5415 z"
         style="fill:#ff53f4;fill-opacity:1;stroke:#ca00d2;stroke-width:1px;stroke-linecap:butt;stroke-linejoin:round;stroke-opacity:0.98039216" />
      <path
         style="fill:#ffbffb;fill-opacity:1;stroke:none"
         d="m 15.946514,11.151204 c -0.615601,4.354136 0.426443,7.402933 1.731156,9.588835 1.8803,-2.400512 2.470287,-5.322994 2.298097,-9.5415 z"
         id="path3933"
         inkscape:connector-curvature="0"
         sodipodi:nodetypes="cccc"
         transform="matrix(0.60616889,0,0,0.60616889,6.9895477,4.8126328)" />
      <path
         inkscape:connector-curvature="0"
         id="path3935"
         d="m 17.178692,4.9999085 -0.07738,2.0893004 -1.00596,1.083341 -0.386907,3.5595491 c 1.089127,-0.497822 1.897861,-1.346695 4.565508,0 l -0.464289,-3.8690751 -1.160722,-0.773815 0,-2.0119189 z"
         style="fill:#005522;fill-opacity:1;stroke:#002b11;stroke-width:2;stroke-linecap:round;stroke-linejoin:round;stroke-miterlimit:4;stroke-opacity:1;stroke-dasharray:none"
         sodipodi:nodetypes="ccccccccc" />
    </g>
  </g>
  <g
     inkscape:groupmode="layer"
     id="layer2"
     inkscape:label="Highlights"
     style="filter:url(#filter3987);opacity:0.44000000000000000" />
  <path
     style="font-size:medium;font-style:normal;font-variant:normal;font-weight:normal;font-stretch:normal;text-indent:0;text-align:start;text-decoration:none;line-height:normal;letter-spacing:normal;word-spacing:normal;text-transform:none;direction:ltr;block-progression:tb;writing-mode:lr-tb;text-anchor:start;baseline-shift:baseline;color:#000000;fill:#005522;fill-opacity:1;stroke:none;stroke-width:2;marker:none;visibility:visible;display:inline;overflow:visible;enable-background:accumulate;font-family:Sans;-inkscape-font-specification:Sans;filter:url(#filter4004)"
     d="M 11.6875,0.78125 C 9.8558921,0.8277183 7.9550421,1.0025139 6.21875,1.21875 2.7435656,1.6515459 -0.03125,2.25 -0.03125,2.25 c -0.03368056,0.00717 0.0020384,-0.00881 -0.03125,0 -0.03328837,0.00881 -0.02968402,0.020817 -0.0625,0.03125 -0.032816,0.010433 0.001015,-0.01203 -0.03125,0 -0.0322645,0.01203 3.8537e-4,0.017651 -0.03125,0.03125 -0.0316354,0.013599 -0.03157,-0.015135 -0.0625,0 C -0.28093,2.327635 -0.2511,2.327116 -0.28125,2.34375 -0.3114001,2.360384 -0.283202,2.356906 -0.3125,2.375 -0.3417976,2.393094 -0.315376,2.35549 -0.34375,2.375 -0.3721244,2.39451 -0.347617,2.385372 -0.375,2.40625 -0.402383,2.427128 -0.4111745,2.4153 -0.4375,2.4375 -0.4638255,2.459697 -0.443545,2.44529 -0.46875,2.46875 -0.4939547,2.492212 -0.475977,2.47533 -0.5,2.5 c -0.0240231,0.02467 -0.008466,0.00543 -0.03125,0.03125 -0.0227837,0.025819 0.0214893,0.00434 0,0.03125 C -0.5527393,2.589406 -0.5423568,2.56582 -0.5625,2.59375 -0.5826432,2.621678 -0.5750014,2.59612 -0.59375,2.625 -0.6124986,2.653883 -0.6076912,2.657732 -0.625,2.6875 c -0.0173088,0.029768 -0.0154227,6.685e-4 -0.03125,0.03125 -0.0158273,0.030581 0.0143076,-7.13e-5 0,0.03125 -0.0143076,0.031321 -0.0184965,-7.356e-4 -0.03125,0.03125 -0.0127535,0.031986 0.0111687,0.029927 0,0.0625 -0.0111687,0.032573 -0.021693,-0.00183 -0.03125,0.03125 -0.009557,0.033082 0.007922,-0.00226 0,0.03125 -0.007922,0.033511 0.006268,0.028641 0,0.0625 C -0.7250184,3.0026091 -0.74540054,2.9658741 -0.75,3 c -0.004599,0.034126 0.002919,0.028189 0,0.0625 -0.002919,0.034311 0.001232,-0.00316 0,0.03125 -0.001232,0.034412 -4.5763e-4,-0.00318 0,0.03125 4.5763e-4,0.034431 -0.002147,0.028132 0,0.0625 0.002147,0.034368 -0.00383,-0.00297 0,0.03125 0.00383,0.034221 0.0257452,0.028508 0.03125,0.0625 0.005505,0.033992 -0.007166,-0.00243 0,0.03125 0.007166,0.033681 -0.00881,-0.00204 0,0.03125 0.00881,0.033288 0.0208172,0.029684 0.03125,0.0625 0.0104328,0.032816 -0.0120305,-0.00101 0,0.03125 0.0120305,0.032265 0.0176509,-3.854e-4 0.03125,0.03125 C -0.6404227,3.438169 -0.6423088,3.46727 -0.625,3.4375 -0.6076912,3.407732 -0.6124986,3.403883 -0.59375,3.375 -0.5750014,3.346117 -0.5826432,3.37168 -0.5625,3.34375 -0.5423568,3.315822 -0.552739,3.33941 -0.53125,3.3125 c 0.0214893,-0.026906 -0.0227837,-0.00543 0,-0.03125 C -0.5084663,3.255431 -0.524023,3.27467 -0.5,3.25 -0.4759769,3.22533 -0.493955,3.24221 -0.46875,3.21875 -0.4435453,3.195288 -0.463826,3.2097 -0.4375,3.1875 -0.4111745,3.165303 -0.402383,3.177128 -0.375,3.15625 -0.347617,3.135372 -0.372124,3.14451 -0.34375,3.125 c 0.0283744,-0.01951 0.001952,0.018094 0.03125,0 0.0292976,-0.018094 0.0011,-0.014616 0.03125,-0.03125 0.0301501,-0.016634 3.2002e-4,-0.016115 0.03125,-0.03125 0.03093,-0.015135 0.0308646,0.013599 0.0625,0 0.0316354,-0.013599 -0.001015,-0.01922 0.03125,-0.03125 0.0322645,-0.01203 -0.001566,0.010433 0.03125,0 C -0.09218402,3.020817 -0.09578837,3.00881 -0.0625,3 c 0.03328837,-0.00881 -0.0024306,0.00717 0.03125,0 0,0 2.7748156,-0.5984541 6.25,-1.03125 1.7362921,-0.2162361 3.6371421,-0.3910317 5.46875,-0.4375 1.829043,-0.046403 3.62724,0.061227 5.09375,0.40625 1.648147,0.3877567 2.888839,1.3407708 4.0625,2.25 1.175405,0.91058 2.235191,1.7553938 3.40625,2.09375 2.684516,0.7756419 5.670441,0.6560561 8.59375,0.28125 2.313257,-0.2965897 4.621925,-1.4288361 7.03125,-2.5 2.408239,-1.070681 4.927553,-2.0874011 7.71875,-1.84375 1.216964,0.1062321 2.12712,0.7209358 2.9375,1.28125 0.817443,0.5651978 1.454701,1.0415245 2.15625,1.21875 3.177895,0.8028024 6.598287,1.4386797 9.34375,0.34375 7.398889,-2.950783 12.829947,-2.9021261 20.09375,-1.90625 5.576391,0.7645299 10.94187,2.8694721 16,2 0.436731,-0.075072 0.773805,-0.2904515 1.34375,-0.6875 0.56013,-0.3902094 1.17993,-0.860828 2.09375,-1 1.41026,-0.2147783 2.59944,0.1983191 3.71875,0.5625 1.12677,0.3666065 2.04633,0.6482625 2.90625,0.5 1.30234,-0.224541 2.11544,-0.08444 3.125,-0.34375 C 112.83096,3.797475 116.125,3 116.125,3 a 0.60291352,0.60291352 0 0 0 0.0313,-0.03125 c 0.0346,-0.011776 0.0274,0.00996 0.0625,0 0.0351,-0.00996 -0.004,-0.023132 0.0313,-0.03125 0.0356,-0.00812 0.0265,0.00625 0.0625,0 0.036,-0.00625 -0.005,0.00437 0.0313,0 0.0362,-0.00437 0.0261,0.00248 0.0625,0 0.0364,-0.00248 -0.005,5.782e-4 0.0313,0 0.0365,-5.782e-4 0.026,-0.00132 0.0625,0 0.0365,0.00132 -0.005,-0.00322 0.0313,0 0.0364,0.00322 0.0263,-0.00511 0.0625,0 0.0362,0.00511 -0.005,-0.00699 0.0313,0 0.0358,0.00699 -0.004,0.022407 0.0313,0.03125 0.0354,0.00884 0.0276,-0.010676 0.0625,0 0.0349,0.010676 -0.003,-0.01248 0.0313,0 0.0343,0.01248 0.0289,0.017 0.0625,0.03125 0.0336,0.01425 -0.002,0.015269 0.0313,0.03125 0.0328,0.015981 -7.1e-4,-0.017668 0.0313,0 0.032,0.017668 0.0315,0.011942 0.0625,0.03125 0.031,0.019308 10e-4,0.010354 0.0313,0.03125 0.0299,0.020896 0.002,0.00882 0.0313,0.03125 0.0288,0.022427 0.004,0.00735 0.0313,0.03125 0.0276,0.023897 0.005,0.00595 0.0313,0.03125 0.0263,0.025302 0.006,0.00461 0.0313,0.03125 0.025,0.026638 0.008,0.00335 0.0313,0.03125 0.0236,0.027903 0.009,0.00216 0.0313,0.03125 0.0221,0.029091 0.0107,0.00105 0.0313,0.03125 0.0205,0.030201 0.0123,0.031272 0.0313,0.0625 0.0189,0.031228 0.014,-9.214e-4 0.0313,0.03125 0.0173,0.032171 -0.0156,-0.00178 0,0.03125 0.005,-0.00915 0.0229,-0.011009 0.0313,-0.03125 0.014,-0.033734 0.019,0.00317 0.0313,-0.03125 0.0122,-0.034416 -0.0104,0.00375 0,-0.03125 0.0104,-0.035005 -0.009,-0.027001 0,-0.0625 0.009,-0.035499 0.0246,0.00465 0.0313,-0.03125 0.007,-0.035896 -0.005,-0.026304 0,-0.0625 0.005,-0.036196 -0.003,0.00515 0,-0.03125 0.003,-0.036398 -10e-4,-0.025999 0,-0.0625 0.001,-0.036501 8.7e-4,0.00525 0,-0.03125 -8.7e-4,-0.036505 0.003,-0.02609 0,-0.0625 -0.003,-0.03641 0.005,0.00497 0,-0.03125 -0.005,-0.036216 0.007,-0.026576 0,-0.0625 -0.007,-0.035924 -0.0228,0.00428 -0.0313,-0.03125 -0.008,-0.035534 0.0102,-0.027451 0,-0.0625 -0.0102,-0.035049 0.0121,0.00322 0,-0.03125 -0.0121,-0.034468 -0.0174,0.00254 -0.0313,-0.03125 -0.0138,-0.033793 -0.0157,-0.029473 -0.0313,-0.0625 -0.0156,-0.033027 0.0173,9.214e-4 0,-0.03125 C 117.2337,2.624079 117.2387,2.6562284 117.2197,2.625 117.2008,2.593772 117.209,2.592701 117.1884,2.5625 117.1679,2.532299 117.1794,2.56034 117.1571,2.53125 117.135,2.502159 117.1491,2.5279 117.1258,2.5 c -0.0236,-0.027903 -0.006,-0.00461 -0.0313,-0.03125 -0.025,-0.026638 -0.005,-0.00595 -0.0313,-0.03125 -0.0263,-0.025302 -0.004,-0.00735 -0.0313,-0.03125 -0.0276,-0.023897 -0.002,-0.00882 -0.0313,-0.03125 -0.0288,-0.022427 -0.001,-0.010354 -0.0313,-0.03125 -0.0299,-0.020896 -2.6e-4,-0.011942 -0.0313,-0.03125 -0.031,-0.019308 -0.0305,-0.013582 -0.0625,-0.03125 -0.032,-0.017668 0.002,0.015981 -0.0313,0 -0.0328,-0.015981 0.002,-0.017 -0.0313,-0.03125 -0.0336,-0.01425 -0.0282,-0.01877 -0.0625,-0.03125 -0.0343,-0.01248 0.004,0.010676 -0.0313,0 -0.0349,-0.010676 -0.0271,0.00884 -0.0625,0 -0.0354,-0.00884 0.005,-0.024263 -0.0313,-0.03125 -0.0358,-0.00699 0.005,0.00511 -0.0313,0 -0.0362,-0.00511 -0.0261,0.00322 -0.0625,0 -0.0364,-0.00322 0.005,0.00132 -0.0313,0 -0.0365,-0.00132 -0.026,-5.782e-4 -0.0625,0 -0.0365,5.782e-4 0.005,-0.00248 -0.0313,0 -0.0364,0.00248 -0.0263,-0.00437 -0.0625,0 -0.0362,0.00437 0.005,-0.00625 -0.0313,0 -0.036,0.00625 -0.0269,-0.00812 -0.0625,0 -0.0356,0.00812 0.004,0.021289 -0.0313,0.03125 -0.0351,0.00996 -0.0279,-0.011776 -0.0625,0 A 0.60291352,0.60291352 0 0 1 116.125,2.25 c 0,0 -3.29404,0.797475 -4.8125,1.1875 -1.00956,0.2593098 -1.82266,0.119209 -3.125,0.34375 -0.85992,0.1482625 -1.77948,-0.1333935 -2.90625,-0.5 -1.11931,-0.3641809 -2.30849,-0.7772783 -3.71875,-0.5625 -0.91382,0.139172 -1.53362,0.6097906 -2.09375,1 -0.569945,0.3970485 -0.907019,0.612428 -1.34375,0.6875 -5.05813,0.8694721 -10.423609,-1.2354701 -16,-2 C 74.861197,1.4103739 69.430139,1.361717 62.03125,4.3125 59.285787,5.4074297 55.865395,4.7715524 52.6875,3.96875 51.985951,3.7915245 51.348693,3.3151978 50.53125,2.75 49.72087,2.1896858 48.810714,1.5749821 47.59375,1.46875 44.802553,1.2250989 42.283239,2.241819 39.875,3.3125 37.465675,4.3836639 35.157007,5.5159103 32.84375,5.8125 29.920441,6.1873061 26.934516,6.3068919 24.25,5.53125 23.078941,5.1928938 22.019155,4.34808 20.84375,3.4375 19.670089,2.5282708 18.429397,1.5752567 16.78125,1.1875 15.31474,0.8424765 13.516543,0.7348468 11.6875,0.78125 z"
     id="path3995"
     inkscape:connector-curvature="0"
     transform="translate(0,0.125)" />
</svg>
