<?xml version="1.0" encoding="UTF-8" standalone="no"?>
<!-- Created with Inkscape (http://www.inkscape.org/) -->

<svg
   xmlns:osb="http://www.openswatchbook.org/uri/2009/osb"
   xmlns:dc="http://purl.org/dc/elements/1.1/"
   xmlns:cc="http://creativecommons.org/ns#"
   xmlns:rdf="http://www.w3.org/1999/02/22-rdf-syntax-ns#"
   xmlns:svg="http://www.w3.org/2000/svg"
   xmlns="http://www.w3.org/2000/svg"
   xmlns:sodipodi="http://sodipodi.sourceforge.net/DTD/sodipodi-0.dtd"
   xmlns:inkscape="http://www.inkscape.org/namespaces/inkscape"
   inkscape:export-ydpi="90"
   inkscape:export-xdpi="90"
   inkscape:export-filename="/mnt/y/src/hedgewars/share/hedgewars/Data/Themes/Christmas/Snowman.png"
   inkscape:version="0.48.0 r9654"
   version="1.1"
   id="svg2"
   height="310.98691"
   width="206.98897"
   sodipodi:docname="Snowman.svg">
  <sodipodi:namedview
     id="base"
     pagecolor="#ffffff"
     bordercolor="#666666"
     borderopacity="1.0"
     inkscape:pageopacity="0.0"
     inkscape:pageshadow="2"
     inkscape:zoom="1"
     inkscape:cx="93.888364"
     inkscape:cy="261.46368"
     inkscape:document-units="px"
     inkscape:current-layer="layer1"
     showgrid="false"
     inkscape:window-width="1280"
     inkscape:window-height="948"
     inkscape:window-x="-4"
     inkscape:window-y="-3"
     inkscape:window-maximized="1"
     fit-margin-top="15"
     fit-margin-left="15"
     fit-margin-right="15"
     fit-margin-bottom="15" />
  <defs
     id="defs4">
    <linearGradient
       id="linearGradient5294"
       osb:paint="solid">
      <stop
         style="stop-color:#d6cda8;stop-opacity:1;"
         offset="0"
         id="stop5296" />
    </linearGradient>
  </defs>
  <metadata
     id="metadata7">
    <rdf:RDF>
      <cc:Work
         rdf:about="">
        <dc:format>image/svg+xml</dc:format>
        <dc:type
           rdf:resource="http://purl.org/dc/dcmitype/StillImage" />
        <dc:title></dc:title>
      </cc:Work>
    </rdf:RDF>
  </metadata>
  <g
     transform="translate(-182.50939,-276.81877)"
     id="layer1"
     inkscape:groupmode="layer"
     inkscape:label="Capa 1">
    <path
       style="fill:#803300;stroke:none"
       d="m 105.71246,56.752729 c 7.46213,-5.760648 23.33493,-13.178662 26.87006,-19.79899 2.45086,-4.589786 0.73247,-12.830541 1.06066,-21.566757 0.15093,-4.017553 5.08192,-1.265077 4.99264,1.623161 -0.15297,4.948786 -1.03168,10.850098 -0.39644,14.286742 0.41149,2.226135 3.10061,3.719978 5.3033,4.242641 3.66792,0.87034 10.05917,-4.796236 15.20279,-7.424622 3.27995,-1.676053 4.41702,5.485288 0.70711,7.424622 -4.74078,2.478219 -10.60559,5.171136 -16.26346,6.717514 -3.2154,0.878815 -6.7894,0.214876 -9.89949,1.414214 -4.91011,1.893475 -7.59035,5.387249 -11.4021,9.015611 -0.85361,0.812546 -2.94457,1.841759 -3.8007,2.65165 -3.08683,2.920104 -5.0381,4.237932 -10.6066,7.071068 -1.76076,0.895835 -3.33155,-4.449639 -1.76777,-5.656854 z"
       id="path4040"
       inkscape:connector-curvature="0"
       transform="translate(214.73005,386.2896)"
       sodipodi:nodetypes="ssssssssssssss" />
    <path
       style="fill:#6c2b00;stroke:none;stroke-width:1px;stroke-linecap:butt;stroke-linejoin:miter;stroke-opacity:1;color:#000000;fill-opacity:1;fill-rule:nonzero;marker:none;visibility:visible;display:inline;overflow:visible;enable-background:accumulate"
       d="M 166.21875 123.5 C 166.01352 123.82047 165.89768 124.24015 165.875 124.84375 C 165.72783 128.76137 165.97834 132.53495 166.09375 135.96875 C 166.21053 132.25846 165.99944 127.97005 166.21875 123.5 z M 170.5 132.25 C 170.3747 133.60364 170.28956 134.86486 170.28125 136.03125 C 170.32755 134.83045 170.40445 133.54527 170.5 132.25 z M 193.96875 141.1875 C 193.57354 142.16405 192.88133 143.01671 191.875 143.5 C 186.96419 145.85846 180.90577 148.40292 175.09375 149.78125 C 171.79075 150.56456 168.17565 149.76182 164.96875 150.875 C 159.9058 152.63245 157.03626 156.09507 153.03125 159.65625 C 152.13436 160.45375 149.99311 161.45529 149.09375 162.25 C 145.85105 165.11538 143.79678 166.37142 138.03125 169.0625 C 137.81339 169.16418 137.60792 169.1551 137.40625 169.09375 C 137.7111 170.77349 138.65168 172.402 139.6875 171.875 C 145.256 169.04186 147.22567 167.7326 150.3125 164.8125 C 151.16863 164.00261 153.24014 162.9688 154.09375 162.15625 C 157.9055 158.52789 160.58989 155.04972 165.5 153.15625 C 168.61009 151.95691 172.19085 152.59756 175.40625 151.71875 C 181.06412 150.17237 186.94672 147.47822 191.6875 145 C 193.13962 144.24091 193.83965 142.70357 193.96875 141.1875 z "
       transform="translate(182.50939,276.81877)"
       id="path4573" />
    <path
       style="fill:#9e4100;stroke:none;stroke-width:1px;stroke-linecap:butt;stroke-linejoin:miter;stroke-opacity:1;color:#000000;fill-opacity:1;fill-rule:nonzero;marker:none;visibility:visible;display:inline;overflow:visible;enable-background:accumulate"
       d="M 167.53125 122.84375 C 166.64707 122.79612 165.9316 123.33717 165.875 124.84375 C 165.87263 124.90673 165.87716 124.96832 165.875 125.03125 C 166.36652 125.26083 166.86087 125.4923 167.25 125.75 C 167.68528 126.03826 168.36925 126.04485 168.625 126.5 C 169.91235 128.79107 168.29098 131.74735 168.25 134.375 C 168.2104 136.9167 167.58617 139.58348 168.375 142 C 168.64405 142.82422 169.2058 143.57373 169.875 144.125 C 171.60238 145.54797 173.76354 146.95825 176 146.875 C 177.13649 146.8327 178.53594 146.28829 179 145.25 C 179.10003 145.0262 179.13922 144.77654 179.125 144.53125 C 177.86882 145.02335 176.70631 145.22692 175.75 145 C 173.54731 144.47734 170.88024 143.00738 170.46875 140.78125 C 169.83351 137.34461 170.69078 131.41754 170.84375 126.46875 C 170.89955 124.6636 169.00488 122.92314 167.53125 122.84375 z M 192.09375 137.34375 C 191.756 137.30455 191.37874 137.38424 190.96875 137.59375 C 188.07931 139.07025 184.81668 141.49088 181.84375 143.1875 C 181.89455 143.20617 181.95035 143.23728 182 143.25 C 184.01815 143.76704 186.00656 142.10538 188 141.5 C 188.79438 141.25876 189.57401 140.53172 190.375 140.75 C 190.91585 140.89739 191.0432 141.67509 191.5 142 C 192.08649 142.41715 192.77619 143.0289 193.46875 143.0625 C 194.55481 140.73672 193.85131 137.54775 192.09375 137.34375 z M 165.1875 145.5625 C 165.06927 145.86295 164.95931 146.16257 164.8125 146.4375 C 161.27737 153.05783 145.39963 160.4581 137.9375 166.21875 C 137.31134 166.70214 137.18506 167.85598 137.375 169 C 138.31377 168.83634 139.25853 168.56702 140 168.375 C 142.10367 167.83022 143.74132 166.15143 145.5 164.875 C 146.98526 163.79701 148.3072 162.50919 149.75 161.375 C 153.68084 158.28493 157.66163 155.25341 161.75 152.375 C 163.79106 150.938 164.66442 150.17895 165.625 147.875 C 165.92784 147.14863 165.48706 146.3161 165.1875 145.5625 z "
       transform="translate(182.50939,276.81877)"
       id="path4525" />
    <path
       sodipodi:nodetypes="ssssssssssssss"
       transform="translate(214.73005,386.2896)"
       inkscape:connector-curvature="0"
       id="path4533"
       d="m 105.71246,56.752729 c 7.46213,-5.760648 23.33493,-13.178662 26.87006,-19.79899 2.45086,-4.589786 0.73247,-12.830541 1.06066,-21.566757 0.15093,-4.017553 5.08192,-1.265077 4.99264,1.623161 -0.15297,4.948786 -1.03168,10.850098 -0.39644,14.286742 0.41149,2.226135 3.10061,3.719978 5.3033,4.242641 3.66792,0.87034 10.05917,-4.796236 15.20279,-7.424622 3.27995,-1.676053 4.41702,5.485288 0.70711,7.424622 -4.74078,2.478219 -10.60559,5.171136 -16.26346,6.717514 -3.2154,0.878815 -6.7894,0.214876 -9.89949,1.414214 -4.91011,1.893475 -7.59035,5.387249 -11.4021,9.015611 -0.85361,0.812546 -2.94457,1.841759 -3.8007,2.65165 -3.08683,2.920104 -5.0381,4.237932 -10.6066,7.071068 -1.76076,0.895835 -3.33155,-4.449639 -1.76777,-5.656854 z"
       style="fill:none;stroke:#552200;stroke-width:2;stroke-linecap:butt;stroke-linejoin:miter;stroke-opacity:1;stroke-miterlimit:4;stroke-dasharray:none" />
    <path
       style="fill:#c98c49;stroke:#502d16;stroke-width:2;stroke-linecap:butt;stroke-linejoin:miter;stroke-opacity:1;stroke-miterlimit:4;stroke-dasharray:none;fill-opacity:1"
       d="m 116.82322,156.98081 c 5.47921,-34.10468 11.02733,-101.506931 11.70622,-154.9445492 0.0545,-4.292547 -8.61436,-3.6884688 -8.52513,0.8535534 0.77332,39.3643978 -3.28415,113.5674358 -9.76687,154.3033058 -1.09084,6.85458 5.56316,6.15288 6.58578,-0.21231 z"
       id="path3958"
       inkscape:connector-curvature="0"
       transform="translate(212.23005,401.7896)"
       sodipodi:nodetypes="sssss" />
    <path
       style="color:#000000;fill:#bb7444;fill-opacity:1;fill-rule:nonzero;stroke:#502d16;stroke-width:0.50000000000000000;stroke-linecap:butt;stroke-linejoin:miter;stroke-miterlimit:4;stroke-opacity:1;stroke-dasharray:none;stroke-dashoffset:0;marker:none;visibility:visible;display:inline;overflow:visible;enable-background:accumulate"
       d="m 119.5,3.4860082 c 2.77397,2.02233 7.2219,2.6172072 10.25,1 3.42025,-1.8266431 3.37639,-7.0057742 5.5,-10.2499999 3.54262,-5.4120353 10.28529,-11.1224403 11.02773,-17.5480973 0.15833,-1.370295 -0.57057,-3.034651 -1.75,-3.75 -9.77087,-5.926241 -26.52139,-4.554208 -34.95711,-0.267763 -1.20939,0.614527 -1.60008,1.770384 -1.85095,3.103553 -1.01315,5.383998 5.48408,13.488267 7.78033,18.4623113 1.408,3.0499587 1.28552,7.2710364 4,9.2499959 z"
       id="path4017"
       inkscape:connector-curvature="0"
       transform="translate(211.52295,401.7896)"
       sodipodi:nodetypes="sssssssss" />
    <path
       style="fill:#bb7444;stroke:none;stroke-width:1.50000000000000000;stroke-linecap:butt;stroke-linejoin:miter;stroke-opacity:1;stroke-miterlimit:4;stroke-dasharray:none;fill-opacity:1"
       d="M 153.65625 127.9375 C 152.96682 127.99595 152.28678 128.25904 151.9375 128.53125 C 151.58822 128.80346 151.52343 128.91452 151.53125 129.3125 C 152.30881 168.89251 148.27787 243.01165 141.75 284.03125 C 141.54281 285.33316 141.78097 285.94494 141.875 286.125 C 142.11722 286.04849 143.38052 285.36227 143.75 283.0625 C 149.19233 249.18739 154.76034 181.77043 155.4375 128.46875 C 155.44121 128.17648 155.50074 128.33489 155.25 128.1875 C 154.99926 128.04011 154.34201 127.87936 153.65625 127.9375 z "
       transform="translate(182.50939,276.81877)"
       id="path4094" />
    <path
       id="path3882"
       transform="translate(182.50939,276.81877)"
       style="fill:none;stroke:#916032;stroke-width:1px;stroke-linecap:round;stroke-linejoin:round;stroke-opacity:1;opacity:0.65"
       d="m 143,104.23691 c 4.05914,2.46906 7.30046,4.92423 12.125,4.875 m 9.875,-2.625 c 0,0 -0.41133,5.75618 -1.5,8.375 -0.5857,1.40893 -2.625,3.75 -2.625,3.75 m -12.125,-7.125 c 0,0 0.38667,5.19841 1.25,7.625 0.86963,2.44431 3.875,6.75 3.875,6.75 m -4.5,92.5 c 0,0 1.57832,-0.73239 2.125,-1.375 1.68043,-1.97531 3.125,-7.125 3.125,-7.125 m -3.125,-60.75 c 0,0 0.92625,7.7939 1.75,11.625 0.58231,2.70823 2.25,8 2.25,8 m -5.875,26.75 c 0,0 2.10205,-0.5468 3,-1.125 1.13949,-0.73373 2.875,-2.875 2.875,-2.875"
       inkscape:connector-curvature="0"
       sodipodi:nodetypes="ccsssssssssssssss" />
    <path
       style="color:#000000;fill:#c98c49;fill-opacity:1;fill-rule:nonzero;stroke:none;stroke-width:1px;marker:none;visibility:visible;display:inline;overflow:visible;enable-background:accumulate"
       d="m 155.5625,93.9375 c -6.46345,0.138034 -12.75089,1.575527 -16.96875,3.71875 -1.20939,0.614527 -1.62413,1.760581 -1.875,3.09375 -1.01315,5.384 5.485,13.49471 7.78125,18.46875 1.408,3.04996 1.28552,7.27104 4,9.25 0.19168,0.13975 2.36289,0.77948 2.56954,0.90533 -2.74751,-2.23783 -3.19699,-7.08349 -4.34099,-9.56158 -2.29625,-4.97404 -8.7944,-13.08475 -7.78125,-18.46875 0.25087,-1.33317 0.28081,-2.510473 1.4902,-3.125 8.43572,-4.286445 18.63538,-4.644991 28.40625,1.28125 1.17943,0.71535 1.90833,2.37971 1.75,3.75 -0.74244,6.42566 -7.48863,12.15046 -11.03125,17.5625 -1.88361,2.87758 -2.06575,7.26757 -4.46875,9.5 1.01864,-0.12034 2.79589,-0.38426 3.65625,-0.84375 3.42025,-1.82664 3.37639,-7.00577 5.5,-10.25 3.54262,-5.41204 10.28881,-11.13684 11.03125,-17.5625 0.15833,-1.37029 -0.57057,-3.034651 -1.75,-3.75 -4.88544,-2.963121 -11.5053,-4.106784 -17.96875,-3.96875 z"
       transform="translate(182.50939,276.81877)"
       id="path4087"
       inkscape:connector-curvature="0"
       sodipodi:nodetypes="ssssccsssssscsssss" />
    <path
       sodipodi:nodetypes="sssssssss"
       transform="translate(211.52295,401.7896)"
       inkscape:connector-curvature="0"
       id="path4092"
       d="m 119.5,3.4860082 c 2.77397,2.02233 7.2219,2.6172072 10.25,1 3.42025,-1.8266431 3.37639,-7.0057742 5.5,-10.2499999 3.54262,-5.4120353 10.28529,-11.1224403 11.02773,-17.5480973 0.15833,-1.370295 -0.57057,-3.034651 -1.75,-3.75 -9.77087,-5.926241 -26.52139,-4.554208 -34.95711,-0.267763 -1.20939,0.614527 -1.60008,1.770384 -1.85095,3.103553 -1.01315,5.383998 5.48408,13.488267 7.78033,18.4623113 1.408,3.0499587 1.28552,7.2710364 4,9.2499959 z"
       style="color:#000000;fill:none;fill-opacity:1;fill-rule:nonzero;stroke:#502d16;stroke-width:2;stroke-linecap:butt;stroke-linejoin:miter;stroke-miterlimit:4;stroke-opacity:1;stroke-dasharray:none;stroke-dashoffset:0;marker:none;visibility:visible;display:inline;overflow:visible;enable-background:accumulate" />
    <path
       style="fill:#d4aa00;stroke:#554400;stroke-width:2;stroke-linecap:butt;stroke-linejoin:round;stroke-opacity:1;stroke-miterlimit:4;stroke-dasharray:none"
       d="m 108.89444,-25.448434 c 1.23909,2.929251 22.95487,3.279206 32.88047,1.414213 0,0 1.48998,-0.188386 1.94454,-0.707106 2.7043,-3.086028 1.36595,-8.124179 2.65165,-12.020816 3.62002,-10.971379 14.14774,-30.710413 14.14214,-31.643028 0.0163,-0.690433 -1.49871,-1.736061 -1.94454,-1.414214 -0.50893,0.367398 -1.98849,3.154754 -2.82843,4.242641 0.47698,-1.782082 1.48728,-4.6648 1.41421,-5.480077 -0.11085,-1.236804 -11.49406,-2.278914 -17.32411,-2.651651 -7.29402,-0.466334 -20.63286,-0.968333 -21.52256,0.618718 -0.35566,0.634416 0.55979,10.076272 0.83968,15.114408 -1.1783,-4.83395 -2.49772,-13.781102 -3.53553,-14.495689 -0.79374,-0.610818 -10.99588,1.140811 -10.92799,2.132044 -0.0437,0.485627 1.91237,6.530014 3.14981,9.888771 -1.53206,-3.064129 -4.06138,-8.770308 -5.08233,-8.79464 -0.7591,-0.0625 -2.4122,1.532778 -3.952884,2.617259 -1.271348,0.894898 -3.390527,1.282308 -3.750303,2.336089 -0.21796,1.075481 3.887763,8.849966 5.714457,13.564011 l -7.954955,-8.485282 -1.944544,3.005204 c 0,0 6.368177,5.157381 8.662058,8.485281 3.429551,4.975496 4.978171,11.016478 7.247841,16.61701 0.75638,1.8664 2.12132,5.656854 2.12132,5.656854 z"
       id="path4036"
       inkscape:connector-curvature="0"
       transform="translate(212.23005,401.7896)"
       sodipodi:nodetypes="sssscscssscccccsccccsss" />
    <path
       style="color:#000000;fill:#aa8700;fill-opacity:1;fill-rule:nonzero;stroke:none;stroke-width:1px;marker:none;visibility:visible;display:inline;overflow:visible;enable-background:accumulate"
       d="m 153.34375,55.125 c -2.63387,0.03613 -4.53646,0.277616 -4.84375,0.84375 -0.32757,0.603491 0.49221,8.332447 0.75,13.125 -0.25217,-1.068449 -0.48868,-2.375137 -0.75,-3.71875 -0.0211,-0.09715 -0.0414,-0.18241 -0.0625,-0.28125 -0.006,-0.032 -0.0251,-0.0617 -0.0313,-0.09375 -0.37047,-1.740136 -0.71887,-3.320124 -1.09375,-5.1875 -0.0483,-0.226301 -0.10837,-0.473308 -0.15625,-0.6875 -0.41086,-1.838141 -0.7978,-3.213842 -1.15625,-3.46875 -0.73106,-0.581044 -10.12503,1.088335 -10.0625,2.03125 -0.0402,0.461955 2.07903,7.586215 3.21875,10.78125 -1.41108,-2.914768 -4.55967,-10.008104 -5.5,-10.03125 -0.69916,-0.05945 -2.20598,1.312132 -3.625,2.34375 -1.17095,0.851276 -3.13738,1.216335 -3.46875,2.21875 -0.20075,1.023057 4.06755,8.359491 5.75,12.84375 l -2.15625,-2.375 c 0.10491,0.256853 0.21871,0.539212 0.3125,0.78125 l -5.6875,-6.09375 -1.5625,2.46875 c 0,0 5.85601,4.928068 7.96875,8.09375 3.15873,4.732966 4.72206,10.984965 6.8125,16.3125 0.69665,1.775423 1.9375,5.375 1.9375,5.375 0.0136,0.0333 0.0436,0.0612 0.0625,0.0937 5.15396,1.99455 21.95385,2.06679 30.625,0.4375 0,0 0.28096,-0.0589 0.46875,-0.0937 2.38887,-2.955234 1.07784,-8.299647 2.25,-11.96875 3.33416,-10.43658 13.19082,-27.831595 13.18566,-28.71875 0.015,-0.656778 -0.12193,-0.90305 -0.53255,-0.596891 -0.46874,0.349489 -3.067,4.187033 -3.84061,5.221891 0.43931,-1.695215 2.03605,-5.661964 1.96875,-6.4375 -0.1021,-1.176516 -10.44283,-2.551682 -15.8125,-2.90625 C 164.11368,55.160248 148.9535,55.125 153.3437,55.125 z"
       transform="translate(182.50939,276.31877)"
       id="path4595"
       inkscape:connector-curvature="0"
       sodipodi:nodetypes="csccccccccccsccccccssccccscscsssc" />
    <path
       style="color:#000000;fill:#ffffff;fill-opacity:1;fill-rule:nonzero;stroke:none;stroke-width:1.50000000000000000;stroke-linecap:butt;stroke-linejoin:miter;stroke-miterlimit:4;stroke-opacity:1;stroke-dasharray:none;stroke-dashoffset:0;marker:none;visibility:visible;display:inline;overflow:visible;enable-background:accumulate"
       d="m 65.499998,-9.5139876 c -8.954294,0.1483005 -19.248892,-7.3923174 -26.749999,-2.4999994 -5.076694,3.3110851 -4.642742,11.29096509 -5.75,17.2499991 -2.666936,14.3528919 1.541694,29.5875679 -2,43.7499989 -1.880955,7.52151 -8.690055,13.358327 -10,20.999999 -0.537986,3.138385 1.205024,6.322445 1,9.5 -1.621617,25.13261 -27.4347299,50.35742 -17.4999991,73.5 2.356767,5.49 9.7275671,7.45939 15.4999991,9 36.232152,9.67 76.167573,13.51674 109.671571,-3.32843 3.72263,-1.87167 6.85226,-5.88399 7.5,-10 3.42497,-21.7637 -15.53292,-37.86474 -18.67157,-59.67157 -0.5229,-3.633015 0.85173,-7.346439 0.5,-11 C 117.98121,67.403485 114.81009,57.089033 111.5,46.986011 107.73188,35.484991 99.989549,25.329759 97.499997,13.486012 95.64834,4.6769747 99.566229,-4.0905867 92.757356,-9.9784532 84.75125,-16.901605 76.082864,-9.6892604 65.499998,-9.5139876 z"
       id="path3052"
       inkscape:connector-curvature="0"
       transform="translate(212.23005,401.7896)"
       sodipodi:nodetypes="ssssssssssssssss" />
    <path
       style="fill:#d4dce4;stroke:none;stroke-width:1.50000000000000000;stroke-linecap:butt;stroke-linejoin:miter;stroke-opacity:1;color:#000000;fill-opacity:1;fill-rule:nonzero;marker:none;visibility:visible;display:inline;overflow:visible;enable-background:accumulate"
       d="m 147.0625,192.5 c -0.73871,-3.45489 -0.44801,0.45923 -0.5625,0.75 -0.85979,2.18351 -0.69371,4.65399 -0.75,7 -0.0681,2.83741 0.85701,5.68431 0.5,8.5 -0.30829,2.43144 -1.93102,4.56994 -2.25,7 -0.43437,3.30911 0.95216,6.69327 0.5,10 -0.28561,2.08875 -3.38129,4.40736 -2,6 0.61045,0.70385 2.03342,0.0954 2.75,-0.5 1.44032,-1.19684 1.38252,-3.48204 2,-5.25 0.63436,-1.81631 0.88874,-3.77965 1.75,-5.5 0.12034,-0.24038 0.46875,-0.65625 0.46875,-0.65625 1.15929,-1.623 -0.96051,-3.86367 -1.25,-5.875 -0.5229,-3.63302 0.85173,-7.34644 0.5,-11 -0.33823,-3.51328 -0.91725,-7.01249 -1.65625,-10.46875 z"
       transform="translate(182.50939,276.81877)"
       id="path4493"
       inkscape:connector-curvature="0"
       sodipodi:nodetypes="ssssssssssssss" />
    <path
       style="color:#000000;fill:#d4dce4;fill-opacity:1;fill-rule:nonzero;stroke:none;stroke-width:1.5;marker:none;visibility:visible;display:inline;overflow:visible;enable-background:accumulate"
       d="m 73.21875,111.375 -6.03125,12 -1.8125,9 c -0.05069,0.0311 -0.123971,0.0429 -0.15625,0.0937 -3.217071,5.06524 -0.05161,16.19117 -0.125,24.03125 -0.06555,7.00168 -0.778248,11.54518 -1.25,18.53125 -0.284296,4.21008 -2.571865,7.76236 -2.90625,11.96875 -0.224526,2.82442 1.461451,6.07267 0,8.5 -1.653622,2.74651 -5.629723,1.38193 -6.375,4.5 -0.806233,3.37309 2.651005,5.25506 3.875,8.5 1.656427,4.39136 -1.635981,9.05524 -2.5625,13.65625 -1.089735,5.41154 -6.7124,9.1321 -8,14.5 -1.166917,4.86478 3.172961,10.77116 0.5,15 -2.233343,3.53333 -7.23705,4.10521 -9.71875,7.46875 -3.584189,4.85778 -4.010612,14.2576 -1.1875,19.59375 2.998417,5.6675 9.610859,6.15012 15.75,8 12.988819,3.9139 30.909319,6.1819 44.46875,6.59375 8.83555,0.26837 17.77189,0.39966 26.5,-1 11.30233,-1.81247 28.33838,-2.14268 33.53125,-12.34375 0.88498,-1.73849 -0.41033,-4.36929 -2,-5.5 -9.37221,-6.66629 -23.02025,0.20218 -34.5,-0.5 -6.19103,-0.37869 -15.10802,3.19295 -18.5,-2 -1.81603,-2.78025 1.78638,-6.4089 3,-9.5 1.28056,-3.26159 3.09866,-6.28845 4.5,-9.5 1.07684,-2.46787 4.11884,-5.05088 3,-7.5 -1.90545,-4.17098 -15.88288,0.26948 -19,-3.09375 -2.225867,-2.40161 -2.45002,-6.2259 -2.5,-9.5 -0.06787,-4.4467 3.211056,-8.55779 3,-13 -0.275138,-5.79098 -4.148285,-10.86227 -5.5,-16.5 -1.571752,-6.55546 -3.251345,-13.26344 -3,-20 0.140197,-3.75756 0.05789,-8.1408 2.5,-11 1.165829,-1.36494 3.880454,-0.59685 5,-2 3.080313,-3.86063 8.35791,-10.43849 9.375,-15.90625 0.17918,-0.10793 0.36621,-0.18814 0.53125,-0.28125 0.64357,-0.36308 0.86019,-0.90717 1.59911,-0.90717 0.73892,0 1.00766,1.14797 1.6875,1.4375 0.96315,0.4102 2.08251,0.4081 3.125,0.3125 0.66969,-0.0614 1.83335,0.10189 1.9375,-0.5625 0.32304,-2.06077 -5.0993,-1.41593 -5.1875,-3.5 -0.0407,-0.96222 1.61516,-1.08828 2.25,-1.8125 0.73954,-0.84366 0.9189,-1.2375 1.75,-1.99112 2.8439,-2.57878 6.69652,-2.18423 9.84467,-4.38128 1.52232,-1.06241 2.939,-2.35169 4,-3.875 0.88498,-1.27058 2.49372,-6.28293 2.49372,-6.28293 l 0.125,-1.5625 0.5,-3.6875 c 0,0 -1.6367,0.47858 -3.96875,1.28125 1.21308,-2.99791 1.40107,-6.69849 -0.125,-9.375 -1.04422,-1.83141 -3.78012,-3.80531 -5.65625,-2.84375 -0.57763,0.29605 -0.76986,1.1252 -0.6875,1.875 L 105.5,113.625 c -3.24171,0.86482 -6.636536,1.78339 -10.28125,1.84375 -6.031125,0.0999 -12.672166,-3.27202 -18.65625,-4 z m 44.53125,8.0625 c 0.53888,0.46039 1.66092,0.29448 2.09375,0.90625 0.68597,0.96955 0.80866,2.40305 0.4375,3.53125 -1.28301,3.89986 -5.20831,6.41134 -8.46875,8.90625 -1.8308,1.40094 -4.01857,3.52714 -5.4375,2.25 -0.0112,-0.0101 -0.0202,-0.0208 -0.0313,-0.0313 -0.11355,-0.1749 -0.18744,-0.39723 -0.25,-0.65625 -0.282,-1.16765 1.06806,-2.38194 0.71875,-3.53125 -0.3877,-1.2756 -3.15148,-1.51529 -2.84375,-2.8125 0.88732,-3.74045 6.88312,-3.83211 10.25,-5.6875 1.23941,-0.683 2.74347,-2.1156 3.53125,-2.875 z"
       transform="translate(182.50939,276.81877)"
       id="path3990"
       inkscape:connector-curvature="0"
       sodipodi:nodetypes="ccccsssssssssssssssssssssssssssscsscsscssssccccssccscccssscccsssc" />
    <path
       sodipodi:nodetypes="ssssssssssssssss"
       transform="translate(212.23005,401.7896)"
       inkscape:connector-curvature="0"
       id="path4515"
       d="m 65.499998,-9.5139876 c -8.954294,0.1483005 -19.248892,-7.3923174 -26.749999,-2.4999994 -5.076694,3.3110851 -4.642742,11.29096509 -5.75,17.2499991 -2.666936,14.3528919 1.541694,29.5875679 -2,43.7499989 -1.880955,7.52151 -8.690055,13.358327 -10,20.999999 -0.537986,3.138385 1.205024,6.322445 1,9.5 -1.621617,25.13261 -27.4347299,50.35742 -17.4999991,73.5 2.356767,5.49 9.7275671,7.45939 15.4999991,9 36.232152,9.67 76.167573,13.51674 109.671571,-3.32843 3.72263,-1.87167 6.85226,-5.88399 7.5,-10 3.42497,-21.7637 -15.53292,-37.86474 -18.67157,-59.67157 -0.5229,-3.633015 0.85173,-7.346439 0.5,-11 C 117.98121,67.403485 114.81009,57.089033 111.5,46.986011 107.73188,35.484991 99.989549,25.329759 97.499997,13.486012 95.64834,4.6769747 99.566229,-4.0905867 92.757356,-9.9784532 84.75125,-16.901605 76.082864,-9.6892604 65.499998,-9.5139876 z"
       style="color:#000000;fill:none;fill-opacity:1;fill-rule:nonzero;stroke:#272759;stroke-width:2;stroke-linecap:butt;stroke-linejoin:miter;stroke-miterlimit:4;stroke-opacity:1;stroke-dasharray:none;stroke-dashoffset:0;marker:none;visibility:visible;display:inline;overflow:visible;enable-background:accumulate" />
    <path
       style="fill:#d4dce4;stroke:none;stroke-width:1.50000000000000000;stroke-linecap:butt;stroke-linejoin:miter;stroke-opacity:1;color:#000000;fill-opacity:1;fill-rule:nonzero;marker:none;visibility:visible;display:inline;overflow:visible;enable-background:accumulate"
       d="m 103.625,175.73691 c 0,0 -2.29065,0.98649 -3.3125,1.6875 -0.90024,0.61758 -1.942833,1.21429 -2.4375,2.1875 -0.65469,1.28804 -0.429955,2.86764 -0.4375,4.3125 -0.006,1.15054 0.174494,2.29525 0.3125,3.4375 0.133941,1.10861 -0.256876,2.49146 0.5,3.3125 0.493216,0.53503 1.465797,0.19184 2.125,0.5 0.94365,0.44114 1.50312,1.57284 2.5,1.875 1.81706,0.55076 3.92384,0.39074 5.6875,-0.3125 1.34546,-0.53649 2.54345,-1.58504 3.3125,-2.8125 0.35413,-0.56522 0.21107,-1.33634 0.5,-1.9375 0.45124,-0.93886 1.72011,-1.46991 1.875,-2.5 0.21068,-1.40107 -0.56107,-2.88678 -1.4375,-4 -1.75858,-2.2337 -4.73195,-3.15278 -7.125,-4.6875 -0.49632,-0.31831 -1.5,-0.9375 -1.5,-0.9375"
       id="path4453"
       inkscape:connector-curvature="0"
       transform="translate(182.50939,276.81877)"
       sodipodi:nodetypes="sssssssssssssss" />
    <path
       style="fill:#d4dce4;stroke:none;stroke-width:1.50000000000000000;stroke-linecap:butt;stroke-linejoin:miter;stroke-opacity:1;color:#000000;fill-opacity:1;fill-rule:nonzero;marker:none;visibility:visible;display:inline;overflow:visible;enable-background:accumulate"
       d="m 109.75,212.23691 c -2.41487,-0.37958 -4.77871,1.77364 -6.375,3.625 -0.90446,1.04898 -0.93967,2.60834 -1.5,3.875 -0.30154,0.68164 -0.99482,1.25466 -1,2 -0.009,1.34174 0.90491,2.5828 1.75,3.625 0.72963,0.89981 1.75946,1.52429 2.75,2.125 1.0202,0.6187 2.07523,1.29138 3.25,1.5 1.5229,0.27044 3.17672,0.168 4.625,-0.375 1.11585,-0.41836 2.05303,-1.26216 2.875,-2.125 0.62173,-0.65265 1.18569,-1.40519 1.5,-2.25 0.35141,-0.94453 0.68128,-2.03989 0.375,-3 -1.23683,-3.87721 -4.22966,-8.36807 -8.25,-9 z"
       id="path4455"
       inkscape:connector-curvature="0"
       transform="translate(182.50939,276.81877)"
       sodipodi:nodetypes="ssssssssssss" />
    <path
       style="color:#000000;fill:#d4dce4;fill-opacity:1;fill-rule:nonzero;stroke:none;stroke-width:1px;marker:none;visibility:visible;display:inline;overflow:visible;enable-background:accumulate"
       d="m 116.25,82.236008 c -1.74043,-1.513524 -6.40687,5.996226 -10.25,8 -3.01514,1.572071 -7.427194,0.874871 -9.75,3 -3.443086,3.150069 9.48005,1.160979 14,0 1.84232,-0.473211 3.93497,-1.174005 5,-2.75 1.55105,-2.295182 3.09029,-6.432228 1,-8.25 z"
       id="path3999"
       inkscape:connector-curvature="0"
       transform="translate(212.23005,401.7896)"
       sodipodi:nodetypes="ssssss" />
    <path
       style="fill:#c7d2dd;stroke:none;stroke-width:1.50000000000000000;stroke-linecap:butt;stroke-linejoin:miter;stroke-opacity:1;color:#000000;fill-opacity:1;fill-rule:nonzero;marker:none;visibility:visible;display:inline;overflow:visible;enable-background:accumulate"
       d="m 63,286.48691 c -4.503164,-0.73076 -9.705824,0.28313 -13.5,-2.25 -3.269182,-2.18262 -8.104791,-6.53429 -6.25,-10 1.337509,-2.49916 6.788612,2.00962 8.5,-0.25 1.244679,-1.6434 -2.570574,-4.23822 -1.5,-6 0.934187,-1.53734 3.463352,-1.04024 5.25,-1.25 1.407003,-0.16519 3.53364,1.2222 4.25,0 1.207409,-2.05999 -2.253486,-4.21344 -3.5,-6.25 -0.470564,-0.76881 -1.710059,-1.37343 -1.5,-2.25 0.713006,-2.97535 5.94994,-2.2288 8,-4.5 1.400383,-1.55145 3.943355,-4.23845 2.5,-5.75 -1.293283,-1.35439 -3.662768,2.9938 -5.25,2 -2.410781,-1.50944 -1.578877,-5.77911 -0.75,-8.5 0.811622,-2.66425 5.428409,-3.72059 5.25,-6.5 -0.1699,-2.64686 -6.113341,-2.8727 -5.75,-5.5 0.413659,-2.99114 6.717836,-1.51612 8,-4.25 0.867458,-1.84963 -1.153264,-3.95935 -1.25,-6 -0.03573,-0.75377 0.02677,-1.52916 0.25,-2.25 0.419069,-1.35326 1.781222,-2.35033 2,-3.75 0.143883,-0.92052 0.145899,-2.07853 -0.5,-2.75 -1.065243,-1.10741 -3.153016,-0.26058 -4.5,-1 -0.723163,-0.39698 -1.949639,-0.94956 -1.75,-1.75 0.759134,-3.04368 5.874021,-3.01179 9,-2.75 0.928445,0.0778 1.612317,1.53298 2.5,1.25 1.349745,-0.43027 2.307318,-2.36707 2,-3.75 -0.632714,-2.84721 -5.241301,-2.92322 -7,-5.25 -0.699881,-0.92595 -1.542154,-2.12667 -1.25,-3.25 0.655294,-2.5196 5.145845,-2.54069 6,-5 1.061726,-3.05695 -1.201022,-6.3641 -2,-9.5 -0.429613,-1.68618 -2.614301,-3.66355 -1.5,-5 1.449731,-1.73876 4.722325,-0.25674 6.75,0.75 2.059029,1.02231 5.363272,2.78446 4.75,5 -0.415311,1.50038 -4.14367,-0.26547 -4.5,1.25 -0.513226,2.18275 4.653941,2.28459 5,4.5 0.178673,1.14383 -1.059087,2.07107 -1.75,3 -1.020435,1.37198 -2.959508,2.12782 -3.5,3.75 -0.980332,2.94228 0.186927,6.25718 1,9.25 0.479156,1.76371 1.053892,3.61812 2.25,5 0.711087,0.82153 1.920624,1.04808 2.75,1.75 0.855788,0.72427 2.46827,1.40032 2.25,2.5 -0.413629,2.08394 -4.890243,0.80714 -5.75,2.75 -1.056217,2.38682 0.446593,5.61315 2.25,7.5 1.220064,1.27652 4.768137,-5.1e-4 5,1.75 0.25191,1.90187 -3.172472,2.15823 -4.75,3.25 -0.836435,0.57888 -2.242158,0.76601 -2.5,1.75 -0.585766,2.23543 1.006637,5.08091 3,6.25 1.152364,0.67585 2.898349,-1.0057 4,-0.25 1.369219,0.93925 2.405952,3.35853 1.5,4.75 -0.823468,1.26478 -3.452084,-0.58612 -4.5,0.5 -2.32096,2.40557 -0.694485,6.65777 -0.75,10 -0.03324,2.00146 -1.324113,4.76343 0.25,6 2.339013,1.83745 7.388957,-4.39477 8.75,-1.75 1.672591,3.25016 -7.28314,3.9157 -8,7.5 -0.35843,1.79215 2.005957,3.18872 2.25,5 0.360397,2.67485 -1.041039,5.30908 -1.25,8 -0.07742,0.997 -0.633989,2.22666 0,3 1.616361,1.97164 5.942251,-0.51827 7.5,1.5 0.867079,1.12342 -1.262465,3.25561 -0.25,4.25 4.65111,4.56806 13.91113,-4.85627 19.5,-1.5 1.24767,0.74926 0.92956,2.79794 1.75,4 0.66437,0.9734 1.3521,2.23314 2.5,2.5 3.77326,0.87721 7.20997,-4.55161 11,-3.75 1.44241,0.30508 1.91176,2.38135 3.25,3 2.51445,1.16239 7.77722,-1.72948 8.25,1 0.54065,3.12129 -5.45039,3.39292 -8.5,4.25 -5.71629,1.60653 -11.81612,1.71459 -17.75,1.5 -16.019015,-0.5793 -31.677495,-4.93236 -47.5,-7.5 z"
       id="path3864"
       inkscape:connector-curvature="0"
       transform="translate(182.50939,276.81877)"
       sodipodi:nodetypes="sssssssssssssssssssssssssssssssssssssssssssssssssssssssssssssssssss" />
    <path
       style="fill:#c7d2dd;stroke:none;stroke-width:1.50000000000000000;stroke-linecap:butt;stroke-linejoin:miter;stroke-opacity:1;color:#000000;fill-opacity:1;fill-rule:nonzero;marker:none;visibility:visible;display:inline;overflow:visible;enable-background:accumulate"
       d="m 65.584154,134.03344 c -1.109323,0.43933 -1.654938,2.24103 -1.237437,3.35875 0.470636,1.25997 2.623971,0.95557 3.535534,1.94455 1.269193,1.37699 2.305909,3.25385 2.298097,5.12652 -0.0065,1.55567 -2.547113,2.8084 -1.944544,4.24264 0.606447,1.44347 3.539894,0.29568 4.419418,1.59099 1.026675,1.51203 0.961222,4.04996 -0.176777,5.48008 -1.290443,1.6217 -5.008509,-0.22321 -6.010407,1.59099 -0.477521,0.86468 0.426789,1.95278 0.883883,2.82843 1.37993,2.64351 5.253347,4.09769 5.480078,7.07106 0.09226,1.20984 -0.7745,2.4851 -1.767767,3.18199 -1.514678,1.06271 -4.787425,-0.83188 -5.480078,0.88388 -0.441172,1.09282 1.539417,1.8036 2.12132,2.82843 1.226489,2.16006 3.154783,4.43185 2.828428,6.89429 -0.331367,2.50026 -4.126623,3.53238 -4.596195,6.0104 -0.319475,1.68594 0.544014,3.47083 1.414214,4.94975 0.549388,0.93369 1.897083,1.29172 2.298097,2.2981 0.80735,2.02611 1.340789,4.97423 -0.176777,6.54074 -1.39642,1.44145 -4.829358,-1.26907 -6.010407,0.35355 -0.967228,1.32886 0.379876,3.37084 1.237437,4.77297 1.110659,1.81595 4.051553,2.23994 4.77297,4.24264 1.838664,5.10425 -0.632218,10.98387 -2.474873,16.08668 -0.933582,2.58534 -4.743304,4.36831 -4.242641,7.07107 0.313466,1.6922 2.406407,3.63806 4.065864,3.18198 5.180797,-1.42387 4.485129,-9.8251 5.833631,-15.02602 1.298848,-5.00941 1.916979,-10.20855 2.12132,-15.37957 0.200436,-5.0722 -2.00346,-10.25165 -0.883883,-15.2028 0.593296,-2.62376 3.30892,-4.44438 3.889087,-7.07107 0.560484,-2.53758 -0.44189,-5.18093 -0.53033,-7.77817 -0.0742,-2.17898 -1.474368,-4.93459 0,-6.54074 1.399786,-1.5249 5.612328,1.4582 6.187184,-0.53033 0.677496,-2.34359 -5.066337,-2.10368 -5.833631,-4.41942 -0.59826,-1.80558 -0.05429,-4.52556 1.590991,-5.48007 1.520554,-0.88215 3.532432,1.97848 5.126524,1.23743 1.07534,-0.49989 2.002418,-2.06979 1.59099,-3.18198 -0.842929,-2.27865 -7.198433,-0.44693 -6.717514,-2.82842 0.5832,-2.88798 6.533139,1.83421 8.838834,0 0.615237,-0.48943 0.904914,-1.60691 0.53033,-2.2981 -1.225746,-2.26177 -7.121844,-0.0822 -7.247844,-2.65165 -0.08649,-1.76368 3.226444,-1.44586 4.772971,-2.2981 0.973743,-0.5366 1.718405,-1.70482 2.828427,-1.76777 2.868277,-0.16266 5.995917,1.45908 7.778174,3.71231 1.383819,1.7495 -0.550272,5.4841 1.414214,6.54074 1.002259,0.53909 2.518744,-0.31263 3.181984,-1.23743 1.54689,-2.15692 1.51539,-5.56848 0.35355,-7.95496 -1.33129,-2.73453 -4.815946,-3.73971 -7.424621,-5.3033 -5.696024,-3.41409 -11.266334,-8.00369 -17.854447,-8.83883 -3.405133,-0.43165 -6.672001,2.55972 -10.076271,2.12132 -0.261364,-0.0337 -0.462098,-0.45058 -0.707107,-0.35355 z"
       id="path3845"
       inkscape:connector-curvature="0"
       transform="translate(182.50939,276.81877)"
       sodipodi:nodetypes="sssssssssssssssssssssssssssssssssssssssssssssssss" />
    <path
       style="fill:#d4dce4;stroke:none;stroke-width:1.50000000000000000;stroke-linecap:butt;stroke-linejoin:miter;stroke-opacity:1;color:#000000;fill-opacity:1;fill-rule:nonzero;marker:none;visibility:visible;display:inline;overflow:visible;enable-background:accumulate"
       d="m 106.25,254.48691 c -1.66743,0.87355 -2.26835,3.1517 -2.625,5 -0.3095,1.60394 -0.12945,3.36762 0.5,4.875 0.70717,1.69351 1.83131,3.4861 3.5,4.25 1.62952,0.74597 3.58642,-0.0119 5.375,-0.125 1.21236,-0.0767 2.60484,0.28452 3.625,-0.375 1.25432,-0.81091 1.70239,-2.48539 2.25,-3.875 0.54846,-1.39177 1.54133,-2.98044 1,-4.375 -0.9536,-2.45664 -4.03731,-3.56214 -6.5,-4.5 -2.23617,-0.8516 -5.00542,-1.98543 -7.125,-0.875 z"
       id="path4457"
       inkscape:connector-curvature="0"
       transform="translate(182.50939,276.81877)"
       sodipodi:nodetypes="ssssssssss" />
    <path
       style="color:#000000;fill:#aa0000;fill-opacity:1;fill-rule:nonzero;stroke:none;stroke-width:1.50000000000000000;stroke-linecap:butt;stroke-linejoin:miter;stroke-miterlimit:4;stroke-opacity:1;stroke-dasharray:none;stroke-dashoffset:0;marker:none;visibility:visible;display:inline;overflow:visible;enable-background:accumulate"
       d="m 90.55386,-8.3452848 c -0.200706,1.3088886 1.942905,2.7865548 1.900349,4.1100581 -0.09576,2.9781373 -1.957593,5.723525 -3.71231,8.1317278 C 84.983766,9.0542263 77.494984,11.114074 74.599764,16.8012 c -0.726238,1.426561 -1.789654,3.784736 -0.530331,4.77297 2.023813,1.588155 4.923914,-1.548292 7.247845,-2.65165 3.96202,-1.881091 8.020071,-3.821299 11.313708,-6.717514 2.584791,-2.2729007 4.701036,-4.3216337 5.745243,-7.6013981 0.751663,-2.360909 0.1664,-5.09050312 -0.353554,-7.5130094 -0.438595,-2.0434504 -0.438529,-4.5938037 -1.679379,-6.2755725 -0.672035,-0.910834 -1.527059,-2.249948 -2.65165,-2.12132 -1.417197,0.162096 -2.921583,1.5510525 -3.137786,2.9610092 z"
       id="path3093"
       inkscape:connector-curvature="0"
       transform="translate(212.23005,401.7896)"
       sodipodi:nodetypes="ssssssssssss" />
    <path
       style="fill:#c30b0b;fill-opacity:1;stroke:none"
       d="M 123.03125 113.75 C 121.73526 114.08712 120.47831 115.33986 120.28125 116.625 C 120.08054 117.93389 122.23006 119.4265 122.1875 120.75 C 122.0917 123.72814 120.22347 126.4668 118.46875 128.875 C 115.16673 133.40675 108.97829 135.53342 105.5625 139.84375 L 106.375 142.875 C 106.375 142.875 109.39003 139.19897 111.25 137.75 C 113.32522 136.13334 116.13099 135.59083 118.125 133.875 C 120.33625 131.97223 122.44435 129.78537 123.96875 127.28125 C 125.85418 126.29162 126.37197 128.70813 126.46875 132.53125 L 126.6875 132.53125 C 127.2648 131.64527 127.73957 130.67495 128.09375 129.5625 C 128.84541 127.20159 128.26995 124.48501 127.75 122.0625 C 127.3114 120.01905 127.30335 117.46302 126.0625 115.78125 C 125.87894 115.53246 125.68138 115.27406 125.46875 115 L 125.1875 115.9375 C 124.6266 115.04409 124 114.25 124 114.25 L 123.03125 113.75 z "
       transform="translate(182.50939,276.81877)"
       id="path4190" />
    <path
       style="fill:#900000;stroke:none;stroke-width:1px;stroke-linecap:butt;stroke-linejoin:miter;stroke-opacity:1;color:#000000;fill-opacity:1;fill-rule:nonzero;marker:none;visibility:visible;display:inline;overflow:visible;enable-background:accumulate"
       d="m 128.03125,123.5 c 0,0 -0.36007,4.25358 -1.28125,6.125 -1.18757,2.41259 -3.20677,4.37683 -5.25,6.125 -1.26521,1.0825 -2.786,1.83173 -4.25,2.625 -1.37659,0.74591 -2.88656,1.23031 -4.25,2 -0.39247,0.22156 -0.76753,0.47552 -1.125,0.75 -1.10055,0.84506 -1.89192,2.11372 -3.125,2.75 -1.29332,0.66737 -3.70346,-0.34883 -4.25,1 -0.29732,0.73379 1.28125,2 1.28125,2 1.70056,-0.43386 3.61373,-2.19188 5.25,-2.96875 3.96202,-1.88109 8.01886,-3.82253 11.3125,-6.71875 2.58479,-2.2729 4.70579,-4.34524 5.75,-7.625 0.60771,-1.90878 0.33653,-4.02886 -0.0625,-6.0625 z"
       transform="translate(182.50939,276.81877)"
       id="path4316"
       inkscape:connector-curvature="0"
       sodipodi:nodetypes="cssssssscsssc" />
    <path
       sodipodi:nodetypes="ssssssssssss"
       transform="translate(212.23005,401.7896)"
       inkscape:connector-curvature="0"
       id="path4192"
       d="m 90.55386,-8.3452848 c -0.200706,1.3088886 1.942905,2.7865548 1.900349,4.1100581 -0.09576,2.9781373 -1.957593,5.723525 -3.71231,8.1317278 C 84.983766,9.0542263 77.494984,11.114074 74.599764,16.8012 c -0.726238,1.426561 -1.789654,3.784736 -0.530331,4.77297 2.023813,1.588155 4.923914,-1.548292 7.247845,-2.65165 3.96202,-1.881091 8.020071,-3.821299 11.313708,-6.717514 2.584791,-2.2729007 4.701036,-4.3216337 5.745243,-7.6013981 0.751663,-2.360909 0.1664,-5.09050312 -0.353554,-7.5130094 -0.438595,-2.0434504 -0.438529,-4.5938037 -1.679379,-6.2755725 -0.672035,-0.910834 -1.527059,-2.249948 -2.65165,-2.12132 -1.417197,0.162096 -2.921583,1.5510525 -3.137786,2.9610092 z"
       style="color:#000000;fill:none;fill-opacity:1;fill-rule:nonzero;stroke:#2b0000;stroke-width:2;stroke-linecap:butt;stroke-linejoin:miter;stroke-miterlimit:4;stroke-opacity:1;stroke-dasharray:none;stroke-dashoffset:0;marker:none;visibility:visible;display:inline;overflow:visible;enable-background:accumulate" />
    <path
       style="fill:#aa0000;stroke:none"
       d="m 40.811368,-14.884722 c -2.237145,-0.286337 -5.01082,1.193655 -6.290739,3.0507 -2.020273,2.9312296 -3.952178,9.3489536 -3.218592,12.83255244 0.842739,4.00193526 2.659294,5.66234076 5.997845,8.02449466 7.334995,5.1897929 17.622142,4.0761519 25.809397,7.7781749 2.845666,1.286722 4.836402,5.117448 7.954951,4.949747 1.718507,-0.09241 3.961505,-1.464158 4.065864,-3.181981 0.181916,-2.994479 -4.014848,-4.498038 -6.363961,-6.36396 C 65.450079,9.5710337 61.610105,7.6729794 57.982755,5.4874913 52.667549,2.2850656 45.881664,1.4592377 42.072853,-3.4397316 c -1.053226,-1.3546805 -2.000066,-3.3230957 -1.944544,-5.0381356 0.02834,-0.8755328 1.408213,-1.9692428 1.237437,-2.8284268 -0.325325,-1.63673 1.100868,-3.366569 -0.554378,-3.578428 z"
       id="path3091"
       inkscape:connector-curvature="0"
       transform="translate(212.23005,401.7896)"
       sodipodi:nodetypes="sssssssssssss" />
    <path
       style="fill:#a00000;stroke:none;stroke-width:1px;stroke-linecap:butt;stroke-linejoin:miter;stroke-opacity:1;color:#000000;stroke-miterlimit:4;stroke-dasharray:none;stroke-dashoffset:0;marker:none;visibility:visible;display:inline;overflow:visible;enable-background:accumulate;fill-opacity:1;fill-rule:nonzero"
       d="M 67.1875 117.125 C 66.99006 117.1271 66.805342 117.16268 66.625 117.25 C 65.2481 117.91665 64.830845 119.7897 64.375 121.25 C 63.838819 122.96766 63.806329 124.82691 63.875 126.625 C 63.94114 128.35679 63.751044 130.33382 64.75 131.75 C 66.902998 134.80222 70.917316 136.01839 74.46875 137.3125 C 74.510758 137.32395 74.551677 137.33244 74.59375 137.34375 C 76.810568 137.93989 79.125761 138.36876 81.4375 138.78125 C 84.643763 139.12751 87.889912 139.37154 90.75 140.75 C 90.925031 140.83436 91.090595 140.96431 91.25 141.125 C 91.259158 141.1284 91.272096 141.12159 91.28125 141.125 C 91.808125 141.32147 92.332047 141.54987 92.84375 141.78125 C 93.212187 141.94785 93.562173 142.16856 93.90625 142.40625 C 93.426054 141.27791 91.148235 139.65704 92 138.75 C 92.658498 138.04877 94.339242 140.49484 94.75 139.625 C 95.470517 138.0992 91.754806 138.00313 90.5 136.875 C 89.662825 136.12234 88.817278 135.28525 88.375 134.25 C 87.921269 133.18794 88.104168 131.91695 88.125 130.71875 C 87.987202 130.63684 87.855979 130.55143 87.71875 130.46875 C 82.403544 127.26632 75.590061 126.43022 71.78125 121.53125 C 71.029419 120.56423 70.348754 119.27709 70.03125 118 C 69.689499 117.88043 69.336725 117.74413 69 117.625 C 68.433312 117.42452 67.779821 117.1187 67.1875 117.125 z "
       transform="translate(182.50939,276.81877)"
       id="path4713" />
    <path
       style="fill:#900000;stroke:none;stroke-width:1px;stroke-linecap:butt;stroke-linejoin:miter;stroke-opacity:1;color:#000000;fill-opacity:1;fill-rule:nonzero;marker:none;visibility:visible;display:inline;overflow:visible;enable-background:accumulate"
       d="m 61.21875,121.03125 c -0.04771,0.24509 -0.08642,0.47698 -0.125,0.71875 l 0.03125,0.375 -0.0625,-0.0625 c -0.208692,1.45422 -0.258891,2.82525 -0.03125,3.90625 0.842739,4.00194 2.661449,5.6691 6,8.03125 7.334995,5.18979 17.625245,4.07923 25.8125,7.78125 2.845666,1.28672 4.818951,5.1052 7.9375,4.9375 0.68551,-0.0369 1.47286,-0.27149 2.15625,-0.65625 0,0 -3.216527,-1.1963 -4.6875,-2.0625 -2.254824,-1.32778 -3.910047,-3.57874 -6.25,-4.75 -6.510103,-3.25861 -14.35824,-3.01889 -21,-6 -2.341129,-1.0508 -4.844502,-2.16429 -6.5,-4.125 -1.807201,-2.14038 -3.25,-7.75 -3.25,-7.75 z"
       transform="translate(182.50939,276.81877)"
       id="path4205"
       inkscape:connector-curvature="0"
       sodipodi:nodetypes="ccccsssscsssscc" />
    <path
       style="fill:#c30b0b;fill-opacity:1;stroke:none"
       d="m 69.875,110.71875 c -0.532429,-0.0187 -1.038617,0.0459 -1.5,0.15625 -1.461694,0.34947 -1.689595,2.02874 -2.241117,3.42678 -1.07045,2.71345 -1.212064,6.15752 0.125,8.75 1.776306,3.44414 6.132078,4.43336 9.551777,6.25628 4.652383,2.48001 10.18477,2.96733 14.875,5.375 3.732284,1.91592 5.616263,4.77672 9.57951,6.15273 1.18347,0.41089 3.04137,2.83587 3.48483,1.66421 0.65197,-1.72258 -2.88988,-2.28561 -4.375,-3.375 -4.054245,-2.97394 -8.139367,-5.91563 -12.375,-8.625 -1.968593,-1.25923 -4.330193,-2.29832 -6.625,-3.375 -0.107489,-0.0439 -0.205351,-0.11201 -0.3125,-0.15625 -3.158278,-1.30391 -6.18502,-2.74129 -8.28125,-5.4375 -1.053226,-1.35468 -1.993022,-3.31621 -1.9375,-5.03125 0.02834,-0.87553 1.420776,-1.98457 1.25,-2.84375 -0.19793,-0.9958 0.239667,-2.01685 0.25,-2.71875 -0.473776,-0.13033 -0.979324,-0.20159 -1.46875,-0.21875 z"
       transform="translate(182.50939,276.81877)"
       id="path4183"
       inkscape:connector-curvature="0"
       sodipodi:nodetypes="csssssssssccssscc" />
    <g
       id="g4549"
       style="color:#000000;fill:#d6cda8;fill-opacity:1;fill-rule:nonzero;stroke:#2a2626;stroke-width:2.1744945;stroke-linecap:butt;stroke-linejoin:round;stroke-miterlimit:4;stroke-opacity:1;stroke-dasharray:none;stroke-dashoffset:0;marker:none;visibility:visible;display:inline;overflow:visible;enable-background:accumulate"
       transform="matrix(0.83326358,0.38938306,-0.38938306,0.83326358,178.77915,25.740395)" />
    <path
       sodipodi:nodetypes="sssssssssssss"
       transform="translate(212.23005,401.7896)"
       inkscape:connector-curvature="0"
       id="path4188"
       d="m 40.811368,-14.884722 c -2.237145,-0.286337 -5.01082,1.193655 -6.290739,3.0507 -2.020273,2.9312296 -3.952178,9.3489536 -3.218592,12.83255244 0.842739,4.00193526 2.659294,5.66234076 5.997845,8.02449466 7.334995,5.1897929 17.622142,4.0761519 25.809397,7.7781749 2.845666,1.286722 4.836402,5.117448 7.954951,4.949747 1.718507,-0.09241 3.961505,-1.464158 4.065864,-3.181981 0.181916,-2.994479 -4.014848,-4.498038 -6.363961,-6.36396 C 65.450079,9.5710337 61.610105,7.6729794 57.982755,5.4874913 52.667549,2.2850656 45.881664,1.4592377 42.072853,-3.4397316 c -1.053226,-1.3546805 -2.000066,-3.3230957 -1.944544,-5.0381356 0.02834,-0.8755328 1.408213,-1.9692428 1.237437,-2.8284268 -0.325325,-1.63673 1.100868,-3.366569 -0.554378,-3.578428 z"
       style="fill:none;stroke:#2b0000;stroke-width:2;stroke-linecap:butt;stroke-linejoin:miter;stroke-miterlimit:4;stroke-opacity:1;stroke-dasharray:none" />
    <path
       style="color:#000000;fill:#ffffff;fill-opacity:1;fill-rule:nonzero;stroke:none;stroke-width:1.50000000000000000;stroke-linecap:butt;stroke-linejoin:miter;stroke-miterlimit:4;stroke-opacity:1;stroke-dasharray:none;stroke-dashoffset:0;marker:none;visibility:visible;display:inline;overflow:visible;enable-background:accumulate"
       d="m 68.589356,-68.758719 c -8.373119,0.487955 -17.410337,2.28914 -24.04163,7.424621 -7.990433,6.188042 -15.570432,15.708722 -15.909902,25.809397 -0.246133,7.323514 6.394128,13.216216 10.253048,19.445436 1.911912,3.086284 3.188484,7.0790337 6.363961,8.8388347 11.053175,6.1255007 25.758798,6.2132439 37.830212,2.4748736 6.013092,-1.8621817 11.902958,-6.1044913 14.849242,-11.6672613 3.981083,-7.51653 3.484103,-17.125093 1.767767,-25.455844 -1.765547,-8.56962 -4.998127,-18.115576 -12.020815,-23.334523 -5.194748,-3.860503 -12.630683,-3.91207 -19.091883,-3.535534 z"
       id="path3071"
       inkscape:connector-curvature="0"
       transform="translate(212.23005,401.7896)"
       sodipodi:nodetypes="ssssssssss" />
    <path
       style="color:#000000;fill:#d4dce4;fill-opacity:1;fill-rule:nonzero;stroke:none;stroke-width:1px;marker:none;visibility:visible;display:inline;overflow:visible;enable-background:accumulate"
       d="m 76.78125,-68.75 c -16.894915,0.71382 -34.234605,10.223464 -45.375,22.9375 -1.605576,3.281005 -2.662194,6.738827 -2.78125,10.28125 -0.134492,4.001701 1.81831,7.56437 4.21875,11 1.580404,0.377723 3.115906,0.846797 4.28125,1.75 2.778899,2.153794 4.909543,5.110389 6.71875,8.125 1.11494,1.857782 1.126749,4.298977 2.46875,6 1.380538,1.749869 3.192525,3.3237813 5.28125,4.15625 1.668342,0.6649237 3.448608,1.1119311 5.25,1.375 3.497206,0.5107195 7.175616,0.1113316 10.6875,-0.21875 4.263506,-0.4007263 9.084763,-0.2878708 13.5625,-0.875 0.01994,-0.00261 0.04309,0.00524 0.0625,0 0.646312,-0.1746097 1.309771,-0.3197848 1.9375,-0.53125 8.771388,-2.9548481 -2.26253,-6.567214 -3.6875,-6.53125 -8.818656,0.222571 -14.366543,-0.219014 -16.75,-4.09375 -1.528778,-2.485302 -5.785117,-11.407794 -5.125,-14.25 2.018643,-8.69149 33.963651,-24.353605 31.5625,-34.1875 -0.03873,-0.125957 -0.07594,-0.253938 -0.125,-0.375 -0.0061,-0.0053 -0.02518,0.0053 -0.03125,0 -0.404224,-0.35293 -0.817579,-0.709894 -1.25,-1.03125 -3.062328,-2.275784 -6.913798,-3.210191 -10.875,-3.53125 -0.01029,-8.34e-4 -0.02096,8.26e-4 -0.03125,0 z"
       transform="translate(212.23005,401.7896)"
       id="path3968"
       inkscape:connector-curvature="0"
       sodipodi:nodetypes="ccscsssssssssssscccscc" />
    <path
       style="fill:#d4dce4;stroke:none;stroke-width:1px;stroke-linecap:butt;stroke-linejoin:miter;stroke-opacity:1;color:#000000;fill-opacity:1;fill-rule:nonzero;marker:none;visibility:visible;display:inline;overflow:visible;enable-background:accumulate"
       d="M 127.625 77.75 C 127.625 77.75 128.5978 86.324546 128.5 90.625 C 128.38272 95.781758 128.69545 101.22285 126.75 106 C 125.23799 109.71282 121.56202 112.14022 119.375 115.5 C 119.03938 116.01559 118.5 117.125 118.5 117.125 L 118.96875 117.40625 C 122.59087 115.1979 125.74358 112.14249 127.65625 108.53125 C 131.63733 101.01472 131.15384 91.424501 129.4375 83.09375 C 129.08211 81.368776 128.61821 79.604588 128.125 77.84375 L 127.625 77.75 z "
       transform="translate(182.50939,276.81877)"
       id="path4755" />
    <path
       transform="matrix(0.51188471,0,0,0.51828281,272.30589,398.62447)"
       d="m 63.816384,-40.474449 c 0,3.612349 -2.928388,6.540737 -6.540738,6.540737 -3.612349,0 -6.540737,-2.928388 -6.540737,-6.540737 0,-3.61235 2.928388,-6.540738 6.540737,-6.540738 3.61235,0 6.540738,2.928388 6.540738,6.540738 z"
       sodipodi:ry="6.5407376"
       sodipodi:rx="6.5407376"
       sodipodi:cy="-40.474449"
       sodipodi:cx="57.275646"
       id="path3963"
       style="color:#000000;fill:#000000;fill-opacity:1;fill-rule:nonzero;stroke:#1a1a1a;stroke-width:2.91220379;stroke-linecap:butt;stroke-linejoin:miter;stroke-miterlimit:4;stroke-opacity:1;stroke-dasharray:none;stroke-dashoffset:0;marker:none;visibility:visible;display:inline;overflow:visible;enable-background:accumulate"
       sodipodi:type="arc" />
    <path
       style="color:#000000;fill:#d4dce4;fill-opacity:1;fill-rule:nonzero;stroke:none;stroke-width:1px;marker:none;visibility:visible;display:inline;overflow:visible;enable-background:accumulate"
       d="m 66.114484,-30.751735 c -1.749391,0.956727 -2.385688,3.209394 -3.358757,4.949748 -2.239527,4.00544 -7.328042,8.277252 -5.656855,12.551145 0.932665,2.385197 4.629272,3.7776426 7.071068,3.005204 2.447606,-0.774277 2.260225,-4.715924 4.065864,-6.540738 3.24234,-3.276771 9.553237,-3.328171 11.667262,-7.424621 1.055284,-2.044875 1.335433,-5.331452 -0.353553,-6.894291 -3.288176,-3.042588 -9.504527,-1.796005 -13.435029,0.353553 z"
       id="path4007"
       inkscape:connector-curvature="0"
       transform="translate(212.23005,401.7896)"
       sodipodi:nodetypes="ssssssss" />
    <path
       style="color:#000000;fill:#b0becc;fill-opacity:1;fill-rule:nonzero;stroke:none;stroke-width:1px;marker:none;visibility:visible;display:inline;overflow:visible;enable-background:accumulate"
       d="m 110.25,120.23691 c -4.20564,-2.66678 -9.60298,-0.29652 -12.75,-0.25 -6.199561,-0.78748 -13.197505,-3.6045 -18.25,-1.25 -1.70264,1.05589 -3.748343,-1.83519 -5.75,-1.75 -0.448358,0.0191 -1.159769,0.0604 -1.25,0.5 -0.28435,1.38533 1.858421,2.16526 3,3 2.196284,1.60596 4.618225,3.05968 7.25,3.75 4.516843,1.18477 9.376237,1.15297 14,0.5 4.77516,-0.67435 11.7624,-0.1061 13.75,-4.5 z"
       id="path4306"
       inkscape:connector-curvature="0"
       transform="translate(182.50939,276.81877)"
       sodipodi:nodetypes="cccsssssc" />
    <path
       sodipodi:nodetypes="ssssssssss"
       transform="translate(212.23005,401.7896)"
       inkscape:connector-curvature="0"
       id="path4085"
       d="m 68.589356,-68.758719 c -8.373119,0.487955 -17.410337,2.28914 -24.04163,7.424621 -7.990433,6.188042 -15.570432,15.708722 -15.909902,25.809397 -0.246133,7.323514 6.394128,13.216216 10.253048,19.445436 1.911912,3.086284 3.188484,7.0790337 6.363961,8.8388347 11.053175,6.1255007 25.758798,6.2132439 37.830212,2.4748736 6.013092,-1.8621817 11.902958,-6.1044913 14.849242,-11.6672613 3.981083,-7.51653 3.484103,-17.125093 1.767767,-25.455844 -1.765547,-8.56962 -4.998127,-18.115576 -12.020815,-23.334523 -5.194748,-3.860503 -12.630683,-3.91207 -19.091883,-3.535534 z"
       style="color:#000000;fill:none;stroke:#272759;stroke-width:2;stroke-linecap:butt;stroke-linejoin:miter;stroke-miterlimit:4;stroke-opacity:1;stroke-dasharray:none;stroke-dashoffset:0;marker:none;visibility:visible;display:inline;overflow:visible;enable-background:accumulate" />
    <path
       style="color:#000000;fill:#b0becc;fill-opacity:1;fill-rule:nonzero;stroke:none;stroke-width:1px;marker:none;visibility:visible;display:inline;overflow:visible;enable-background:accumulate"
       d="m 96.625,97.861908 c -1.325373,1.028409 -1.595576,3.233412 -1.25,4.875002 0.305641,1.45189 1.268283,3.42316 2.75,3.5 2.58606,0.13411 5.4291,-1.83757 6.8125,-3.75 1.14883,-1.58815 1.41872,-3.209841 0.0625,-4.625002 -1.93159,-2.015532 -6.169429,-1.71139 -8.375,0 z"
       id="path4287"
       inkscape:connector-curvature="0"
       transform="translate(182.50939,276.81877)"
       sodipodi:nodetypes="ssssss" />
    <path
       sodipodi:type="arc"
       style="color:#000000;fill:#000000;fill-opacity:1;fill-rule:nonzero;stroke:#1a1a1a;stroke-width:2.91220379;stroke-linecap:butt;stroke-linejoin:miter;stroke-miterlimit:4;stroke-opacity:1;stroke-dasharray:none;stroke-dashoffset:0;marker:none;visibility:visible;display:inline;overflow:visible;enable-background:accumulate"
       id="path3961"
       sodipodi:cx="57.275646"
       sodipodi:cy="-40.474449"
       sodipodi:rx="6.5407376"
       sodipodi:ry="6.5407376"
       d="m 63.816384,-40.474449 c 0,3.612349 -2.928388,6.540737 -6.540738,6.540737 -3.612349,0 -6.540737,-2.928388 -6.540737,-6.540737 0,-3.61235 2.928388,-6.540738 6.540737,-6.540738 3.61235,0 6.540738,2.928388 6.540738,6.540738 z"
       transform="matrix(0.51188471,0,0,0.51828281,265.05589,405.37447)" />
    <path
       inkscape:connector-curvature="0"
       style="color:#000000;fill:#ececec;fill-opacity:1;fill-rule:nonzero;stroke:none;stroke-width:1.37881243;marker:none;visibility:visible;display:inline;overflow:visible;enable-background:accumulate"
       d="m 106.125,175.78125 c -2.29492,0 -4.33307,1.12854 -5.625,2.84375 1.32789,-1.16442 3.04294,-1.875 4.9375,-1.875 4.18166,0 7.5625,3.42232 7.5625,7.65625 0,0.0528 0.001,0.10367 0,0.15625 0.11602,-0.51453 0.1875,-1.04362 0.1875,-1.59375 0,-3.95433 -3.15698,-7.1875 -7.0625,-7.1875 z"
       transform="matrix(0.48437471,0,0,0.48437471,243.03747,295.60731)"
       id="path4247" />
    <path
       style="fill:#ff6600;stroke:none;stroke-width:1.50000000000000000;stroke-linecap:butt;stroke-linejoin:miter;stroke-miterlimit:4;stroke-opacity:1;stroke-dasharray:none"
       d="m 73.249998,-36.263987 c -2.459777,0.259905 -5.361056,1.69179 -6.25,4 -1.024423,2.659992 0.393259,6.087244 2.25,8.25 3.207713,3.736386 8.896137,4.252303 13.5,6 5.149633,1.95488 10.745192,2.699525 15.749999,5 3.740173,1.719181 6.479273,5.6178472 10.500003,6.4999994 1.54369,0.3386878 2.59952,-0.7217847 1.5,-2.25 -1.45901,-2.0278614 -5.45959,-4.7224184 -8.23483,-6.7222714 -5.111493,-3.68336 -10.560559,-6.337135 -15.265172,-10.527728 -2.772413,-2.469503 -4.644441,-5.965246 -7.75,-8 -1.786661,-1.170616 -3.875824,-2.474444 -6,-2.25 z"
       id="path3079"
       inkscape:connector-curvature="0"
       transform="translate(212.23005,401.7896)"
       sodipodi:nodetypes="sssssssssss" />
    <path
       style="color:#000000;fill:#b0becc;fill-opacity:1;fill-rule:nonzero;stroke:none;stroke-width:1px;marker:none;visibility:visible;display:inline;overflow:visible;enable-background:accumulate"
       d="m 115.75,61.986908 c 0,0 -2.56878,3.905776 -4.25,5.5 -4.99851,4.739856 -12.138098,6.125884 -16,11.75 -1.008421,1.46857 0.864907,3.692583 0,5.25 -1.908431,3.436463 -7.086684,3.879398 -11,4.25 -1.85509,0.175682 -3.354377,1.923001 -4.875,3 -4.673472,3.310041 -10.318328,1.728497 -14.875,1.875 -3.009997,0.09677 -7.5,-3.875 -7.5,-3.875 0,0 19.244218,-18.427598 31.25,-23.5 8.468347,-3.577848 27.25,-4.25 27.25,-4.25 z"
       id="path4251"
       inkscape:connector-curvature="0"
       transform="translate(182.50939,276.81877)"
       sodipodi:nodetypes="csssssscsc" />
    <path
       sodipodi:type="arc"
       style="color:#000000;fill:#000000;fill-opacity:1;fill-rule:nonzero;stroke:#1a1a1a;stroke-width:1.37881243;stroke-linecap:butt;stroke-linejoin:miter;stroke-miterlimit:4;stroke-opacity:1;stroke-dasharray:none;stroke-dashoffset:0;marker:none;visibility:visible;display:inline;overflow:visible;enable-background:accumulate"
       id="path3081"
       sodipodi:cx="57.275646"
       sodipodi:cy="-40.474449"
       sodipodi:rx="6.5407376"
       sodipodi:ry="6.5407376"
       d="m 63.816384,-40.474449 c 0,3.612349 -2.928388,6.540737 -6.540738,6.540737 -3.612349,0 -6.540737,-2.928388 -6.540737,-6.540737 0,-3.61235 2.928388,-6.540738 6.540737,-6.540738 3.61235,0 6.540738,2.928388 6.540738,6.540738 z"
       transform="matrix(1.0811569,0,0,1.0946704,208.20046,406.32844)" />
    <path
       transform="matrix(1.0811569,0,0,1.0946704,235.60085,405.091)"
       d="m 63.816384,-40.474449 c 0,3.612349 -2.928388,6.540737 -6.540738,6.540737 -3.612349,0 -6.540737,-2.928388 -6.540737,-6.540737 0,-3.61235 2.928388,-6.540738 6.540737,-6.540738 3.61235,0 6.540738,2.928388 6.540738,6.540738 z"
       sodipodi:ry="6.5407376"
       sodipodi:rx="6.5407376"
       sodipodi:cy="-40.474449"
       sodipodi:cx="57.275646"
       id="path3085"
       style="color:#000000;fill:#000000;fill-opacity:1;fill-rule:nonzero;stroke:#1a1a1a;stroke-width:1.37881243;stroke-linecap:butt;stroke-linejoin:miter;stroke-miterlimit:4;stroke-opacity:1;stroke-dasharray:none;stroke-dashoffset:0;marker:none;visibility:visible;display:inline;overflow:visible;enable-background:accumulate"
       sodipodi:type="arc" />
    <path
       style="color:#000000;fill:#aa0000;fill-opacity:1;fill-rule:nonzero;stroke:none;stroke-width:1.50000000000000000;stroke-linecap:butt;stroke-linejoin:miter;stroke-miterlimit:4;stroke-opacity:1;stroke-dasharray:none;stroke-dashoffset:0;marker:none;visibility:visible;display:inline;overflow:visible;enable-background:accumulate"
       d="m 71.241006,22.988384 c -0.178454,2.74844 -0.276161,4.507598 -0.707106,6.717514 -0.774602,3.972212 -3.104327,8.518098 -3.358758,11.667262 -0.127772,1.581466 4.11713,2.889366 4.419418,1.767766 1.065144,-3.95208 1.178118,-8.111306 1.414213,-12.197591 0.146153,-2.529581 0.413158,-5.199963 0,-7.601398 -0.10189,-0.592224 -1.728831,-0.953216 -1.767767,-0.353553 z"
       id="path3099"
       inkscape:connector-curvature="0"
       transform="translate(212.23005,401.7896)"
       sodipodi:nodetypes="sssssss" />
    <path
       style="color:#000000;fill:#c30b0b;fill-opacity:1;fill-rule:nonzero;stroke:#2b0000;stroke-width:2;stroke-linecap:butt;stroke-linejoin:miter;stroke-miterlimit:4;stroke-opacity:1;stroke-dasharray:none;stroke-dashoffset:0;marker:none;visibility:visible;display:inline;overflow:visible;enable-background:accumulate"
       d="m 75.660424,23.518714 c 1.097529,0.360746 2.126408,1.051898 3.270368,1.325825 1.351549,0.323635 2.72974,0.261935 4.154253,0.353553 1.003553,0.06454 0.731777,2.873324 -0.265165,3.005204 -1.933661,0.255793 -3.338466,-0.287068 -4.772971,-1.06066 -1.228711,-0.662612 -2.307714,-1.787611 -3.005204,-2.916816 -0.164588,-0.26646 0.321186,-0.804902 0.618719,-0.707106 z"
       id="path3101"
       inkscape:connector-curvature="0"
       transform="translate(212.23005,401.7896)"
       sodipodi:nodetypes="sssssss" />
    <path
       inkscape:connector-curvature="0"
       style="color:#000000;fill:#ececec;fill-opacity:1;fill-rule:nonzero;stroke:none;stroke-width:1.37881243;marker:none;visibility:visible;display:inline;overflow:visible;enable-background:accumulate"
       d="m 106.125,175.78125 c -2.29492,0 -4.33307,1.12854 -5.625,2.84375 1.32789,-1.16442 3.04294,-1.875 4.9375,-1.875 4.18166,0 7.5625,3.42232 7.5625,7.65625 0,0.0528 0.001,0.10367 0,0.15625 0.11602,-0.51453 0.1875,-1.04362 0.1875,-1.59375 0,-3.95433 -3.15698,-7.1875 -7.0625,-7.1875 z"
       transform="translate(163.65844,179.08395)"
       id="path4239" />
    <path
       style="fill:#4d4d4d;stroke:#1a1a1a;stroke-width:2;stroke-linecap:butt;stroke-linejoin:miter;stroke-miterlimit:4;stroke-opacity:1;stroke-dasharray:none"
       d="m 85.835045,-76.269126 c -7.190636,-7.312709 -33.950146,1.642875 -48.004833,9.985281 -11.082713,6.578339 -27.63676,21.71499 -25.04163,29.458891 3.479808,10.38379 34.092686,-5.665621 48.547726,-14.377416 10.006629,-6.030817 32.170784,-17.264462 24.498737,-25.066756 z"
       id="path3898"
       inkscape:connector-curvature="0"
       transform="translate(217.48005,402.0396)"
       sodipodi:nodetypes="sasas" />
    <path
       style="fill:#666666;stroke:none"
       d="M 112.25,46.25 C 101.03152,46.074759 83.868977,53.461981 73.327962,59.718786 62.245249,66.297125 45.15487,80.662349 47.75,88.40625 c 3.479808,10.38379 34.10746,-5.663205 48.5625,-14.375 10.00663,-6.030817 32.17205,-17.291456 24.5,-25.09375 -1.79766,-1.828177 -4.82301,-2.629086 -8.5625,-2.6875 z m -2.90625,0.96875 c 4.28443,-0.137706 7.7496,0.62242 9.71875,2.625 C 126.53267,57.440737 104.96207,68.377876 95.21875,74.25 81.144075,82.732556 51.325741,98.360554 47.9375,88.25 45.410657,80.70987 62.036876,66.749025 72.827962,60.343786 82.663952,54.505461 98.39464,47.570667 109.34375,47.21875 z"
       transform="matrix(0.97000354,0,0,0.95995614,185.05584,279.20747)"
       id="path4160"
       inkscape:connector-curvature="0"
       sodipodi:nodetypes="ssssssssssss" />
    <path
       transform="matrix(0.51188471,0,0,0.51828281,237.18089,403.24947)"
       d="m 63.816384,-40.474449 c 0,3.612349 -2.928388,6.540737 -6.540738,6.540737 -3.612349,0 -6.540737,-2.928388 -6.540737,-6.540737 0,-3.61235 2.928388,-6.540738 6.540737,-6.540738 3.61235,0 6.540738,2.928388 6.540738,6.540738 z"
       sodipodi:ry="6.5407376"
       sodipodi:rx="6.5407376"
       sodipodi:cy="-40.474449"
       sodipodi:cx="57.275646"
       id="path3955"
       style="color:#000000;fill:#000000;fill-opacity:1;fill-rule:nonzero;stroke:#1a1a1a;stroke-width:2.91220379;stroke-linecap:butt;stroke-linejoin:miter;stroke-miterlimit:4;stroke-opacity:1;stroke-dasharray:none;stroke-dashoffset:0;marker:none;visibility:visible;display:inline;overflow:visible;enable-background:accumulate"
       sodipodi:type="arc" />
    <path
       sodipodi:type="arc"
       style="color:#000000;fill:#000000;fill-opacity:1;fill-rule:nonzero;stroke:#1a1a1a;stroke-width:2.91220379;stroke-linecap:butt;stroke-linejoin:miter;stroke-miterlimit:4;stroke-opacity:1;stroke-dasharray:none;stroke-dashoffset:0;marker:none;visibility:visible;display:inline;overflow:visible;enable-background:accumulate"
       id="path3957"
       sodipodi:cx="57.275646"
       sodipodi:cy="-40.474449"
       sodipodi:rx="6.5407376"
       sodipodi:ry="6.5407376"
       d="m 63.816384,-40.474449 c 0,3.612349 -2.928388,6.540737 -6.540738,6.540737 -3.612349,0 -6.540737,-2.928388 -6.540737,-6.540737 0,-3.61235 2.928388,-6.540738 6.540737,-6.540738 3.61235,0 6.540738,2.928388 6.540738,6.540738 z"
       transform="matrix(0.51188471,0,0,0.51828281,246.18089,407.62447)" />
    <path
       transform="matrix(0.51188471,0,0,0.51828281,256.30589,407.24947)"
       d="m 63.816384,-40.474449 c 0,3.612349 -2.928388,6.540737 -6.540738,6.540737 -3.612349,0 -6.540737,-2.928388 -6.540737,-6.540737 0,-3.61235 2.928388,-6.540738 6.540737,-6.540738 3.61235,0 6.540738,2.928388 6.540738,6.540738 z"
       sodipodi:ry="6.5407376"
       sodipodi:rx="6.5407376"
       sodipodi:cy="-40.474449"
       sodipodi:cx="57.275646"
       id="path3959"
       style="color:#000000;fill:#000000;fill-opacity:1;fill-rule:nonzero;stroke:#1a1a1a;stroke-width:2.91220379;stroke-linecap:butt;stroke-linejoin:miter;stroke-miterlimit:4;stroke-opacity:1;stroke-dasharray:none;stroke-dashoffset:0;marker:none;visibility:visible;display:inline;overflow:visible;enable-background:accumulate"
       sodipodi:type="arc" />
    <path
       style="fill:#333333;stroke:none"
       d="M 100.3125,60.59375 64.875,72.6875 l -16.125,10 c -0.07303,0.842798 -0.214264,2.811002 0.02903,3.536993 2.388804,7.128219 17.220684,1.709234 31.177697,-5.150889 0.1875,-0.103734 0.407911,-0.345476 0.75,-0.6875 l 4.855774,-4.854854 z"
       transform="translate(182.50939,276.81877)"
       id="path4129"
       inkscape:connector-curvature="0"
       sodipodi:nodetypes="cccscscc" />
    <path
       style="fill:#333333;stroke:#000000;stroke-width:2;stroke-linecap:butt;stroke-linejoin:miter;stroke-miterlimit:4;stroke-opacity:1;stroke-dasharray:none"
       d="m 45.5625,-107.46875 c -7.822112,-0.12219 -19.443142,5.63023 -26.792893,9.992799 -7.727451,4.586765 -19.9540684,14.013995 -18.144607,19.413451 0.32376567,0.966121 0.9804687,1.571789 1.90625,1.9375 1.8466362,1.434148 11.63376,9.122138 16.46875,14.875 2.730832,3.249252 6.363885,9.562693 7.84375,12.125 0.01925,0.233638 0.272079,0.661132 0.34375,0.875 1.8752,5.595619 18.366714,-3.055386 26.15625,-7.75 5.392375,-3.249888 17.145562,-9.160422 13.1875,-13.53125 -0.124349,-0.137317 -0.336917,-0.552535 -0.4375,-0.71875 -6.289007,-9.408763 -11.429095,-19.62295 -13.5625,-32 0.29184,-1.17145 0.02153,-2.27363 -1,-3.3125 -1.253423,-1.2747 -3.361379,-1.86552 -5.96875,-1.90625 z"
       transform="translate(218.10505,401.5396)"
       id="path3971"
       inkscape:connector-curvature="0"
       sodipodi:nodetypes="ssscscsssccss" />
    <path
       style="fill:#282828;fill-opacity:1;stroke:none"
       d="m 43,45.861908 c 9.960043,10.036245 17.401498,20.387313 24.75,30.75 l 11.5,-4.125 c -7.515752,-12.75315 -14.150791,-25.330158 -20,-37.75 z"
       id="path4165"
       inkscape:connector-curvature="0"
       transform="translate(181.75939,276.69377)"
       sodipodi:nodetypes="ccccc" />
    <path
       style="fill:#4d4d4d;fill-opacity:1;stroke:none"
       d="m 86.34375,20 -7.5,7.1875 5.125,11.5625 4.5,9.46875 7,10.5 3,4.0625 c 0.0067,-0.005 0.02457,0.005 0.03125,0 3.41609,-2.546027 5.71295,-5.288055 3.625,-7.59375 -0.12435,-0.137317 -0.33692,-0.552535 -0.4375,-0.71875 -6.289007,-9.408763 -11.429095,-19.62295 -13.5625,-32 0.0105,-0.04214 0.02222,-0.08303 0.03125,-0.125 L 86.34375,20 z"
       transform="translate(181.09515,277.17233)"
       id="path4148"
       inkscape:connector-curvature="0" />
    <path
       style="fill:#4d4d4d;stroke:#000000;stroke-width:0.71710014;stroke-linecap:butt;stroke-linejoin:miter;stroke-miterlimit:4;stroke-opacity:1;stroke-dasharray:none"
       d="m 85.835045,-76.269126 c -7.190636,-7.312709 -32.628828,2.799522 -46.356867,10.745881 -11.306131,6.544456 -29.284726,20.95439 -26.689596,28.698291 3.479808,10.38379 31.158996,-8.249912 44.998261,-16.152148 10.553548,-6.026088 35.720249,-15.48973 28.048202,-23.292024 z"
       id="path3967"
       inkscape:connector-curvature="0"
       transform="matrix(0.69725269,0,0,0.69725269,209.79975,349.14251)"
       sodipodi:nodetypes="sasas" />
    <path
       transform="matrix(1.0811569,0,0,1.0946704,226.70046,504.07844)"
       d="m 63.816384,-40.474449 c 0,3.612349 -2.928388,6.540737 -6.540738,6.540737 -3.612349,0 -6.540737,-2.928388 -6.540737,-6.540737 0,-3.61235 2.928388,-6.540738 6.540737,-6.540738 3.61235,0 6.540738,2.928388 6.540738,6.540738 z"
       sodipodi:ry="6.5407376"
       sodipodi:rx="6.5407376"
       sodipodi:cy="-40.474449"
       sodipodi:cx="57.275646"
       id="path3936"
       style="color:#000000;fill:#000000;fill-opacity:1;fill-rule:nonzero;stroke:#1a1a1a;stroke-width:1.37881243;stroke-linecap:butt;stroke-linejoin:miter;stroke-miterlimit:4;stroke-opacity:1;stroke-dasharray:none;stroke-dashoffset:0;marker:none;visibility:visible;display:inline;overflow:visible;enable-background:accumulate"
       sodipodi:type="arc" />
    <path
       sodipodi:type="arc"
       style="color:#000000;fill:#000000;fill-opacity:1;fill-rule:nonzero;stroke:#1a1a1a;stroke-width:1.37881243;stroke-linecap:butt;stroke-linejoin:miter;stroke-miterlimit:4;stroke-opacity:1;stroke-dasharray:none;stroke-dashoffset:0;marker:none;visibility:visible;display:inline;overflow:visible;enable-background:accumulate"
       id="path3938"
       sodipodi:cx="57.275646"
       sodipodi:cy="-40.474449"
       sodipodi:rx="6.5407376"
       sodipodi:ry="6.5407376"
       d="m 63.816384,-40.474449 c 0,3.612349 -2.928388,6.540737 -6.540738,6.540737 -3.612349,0 -6.540737,-2.928388 -6.540737,-6.540737 0,-3.61235 2.928388,-6.540738 6.540737,-6.540738 3.61235,0 6.540738,2.928388 6.540738,6.540738 z"
       transform="matrix(1.0811569,0,0,1.0946704,231.20046,540.57844)" />
    <path
       transform="matrix(1.0811569,0,0,1.0946704,233.20046,580.57844)"
       d="m 63.816384,-40.474449 c 0,3.612349 -2.928388,6.540737 -6.540738,6.540737 -3.612349,0 -6.540737,-2.928388 -6.540737,-6.540737 0,-3.61235 2.928388,-6.540738 6.540737,-6.540738 3.61235,0 6.540738,2.928388 6.540738,6.540738 z"
       sodipodi:ry="6.5407376"
       sodipodi:rx="6.5407376"
       sodipodi:cy="-40.474449"
       sodipodi:cx="57.275646"
       id="path3940"
       style="color:#000000;fill:#000000;fill-opacity:1;fill-rule:nonzero;stroke:#1a1a1a;stroke-width:1.37881243;stroke-linecap:butt;stroke-linejoin:miter;stroke-miterlimit:4;stroke-opacity:1;stroke-dasharray:none;stroke-dashoffset:0;marker:none;visibility:visible;display:inline;overflow:visible;enable-background:accumulate"
       sodipodi:type="arc" />
    <path
       style="color:#000000;fill:#b0becc;fill-opacity:1;fill-rule:nonzero;stroke:none;stroke-width:1px;marker:none;visibility:visible;display:inline;overflow:visible;enable-background:accumulate"
       d="M 73.59375 161.90625 C 72.852921 161.90625 72.049157 162.13336 71.46875 162.59375 C 70.718558 163.18881 70.336355 164.16598 70 165.0625 C 69.831525 165.51155 69.612423 166.00929 69.75 166.46875 C 69.769243 166.53301 69.815467 166.5952 69.84375 166.65625 C 68.831559 168.2596 68.185941 169.74332 67.34375 171.5 C 67.062381 172.08689 67.937081 172.7017 68.5 172.375 C 70.729441 171.0811 73.377196 169.36896 74.34375 167.09375 C 74.88915 166.40447 75.754523 165.90648 76 165.0625 C 76.232189 164.2642 76.251877 163.23169 75.71875 162.59375 C 75.243689 162.02529 74.334579 161.90625 73.59375 161.90625 z "
       transform="translate(182.50939,276.81877)"
       id="path4431" />
    <path
       style="color:#000000;fill:#803300;fill-opacity:1;fill-rule:nonzero;stroke:none;stroke-width:1px;stroke-linecap:butt;stroke-linejoin:miter;stroke-miterlimit:4;stroke-opacity:1;stroke-dasharray:none;stroke-dashoffset:0;marker:none;visibility:visible;display:inline;overflow:visible;enable-background:accumulate"
       d="m 46,54.486008 c -6.094477,-3.491768 -15.701496,-3.266205 -22.5,-7.25 -1.37362,-0.804916 -2.149224,-2.407311 -3.5,-3.25 -0.984777,-0.614359 -2.439817,-0.418841 -3.25,-1.25 -2.778081,-2.850007 -3.703329,-7.281088 -4,-11.25 -0.487294,-6.519099 2.374672,-10.304078 3.75,-19.25 C 17.118877,8.2104777 11.771968,6.445776 11.5,9.7360082 10.712096,19.267964 11.169885,23.112997 9,24.236008 c -1.4235915,0.736771 -3.2326064,1.266683 -4.75,0.75 -4.14116972,-1.410097 -8.2523258,-7.950291 -14.5,-14.75 -1.512887,-1.6465637 -5.910109,3.153137 -3,6 4.6285975,4.528003 10.720147,9.19514 15,14.75 1.230154,1.596628 1.4794867,3.926921 3,5.25 1.015623,0.883748 2.7864923,0.559706 3.75,1.5 1.3626057,1.329777 1.4934265,3.502832 2.25,5.25 0.578317,1.335517 0.747608,2.944886 1.75,4 1.155088,1.215842 2.941315,1.631129 4.5,2.25 9.139626,3.62886 18.846442,8.086521 28.25,8.5 1.540173,0.06772 2.385245,-2.313104 0.75,-3.25 z"
       id="path4042"
       inkscape:connector-curvature="0"
       transform="translate(210.23005,385.2896)"
       sodipodi:nodetypes="sssssssssssssssssss" />
    <path
       style="color:#000000;fill:#6c2b00;fill-opacity:1;fill-rule:nonzero;stroke:none;stroke-width:1px;stroke-linecap:butt;stroke-linejoin:miter;stroke-miterlimit:4;stroke-opacity:1;stroke-dasharray:none;stroke-dashoffset:0;marker:none;visibility:visible;display:inline;overflow:visible;enable-background:accumulate"
       d="M 39.40625 117.5 C 39.317299 117.70767 39.241756 117.94043 39.21875 118.21875 C 38.870822 122.42794 38.758142 125.47215 38.5625 127.71875 C 38.975022 125.68154 39.055584 122.39589 39.40625 117.5 z M 44.125 121.25 C 42.959338 126.67515 41.396059 130.15178 40.9375 134.15625 C 41.712586 130.52861 43.191098 126.93363 44.125 121.25 z M 13.59375 121.65625 C 13.364301 122.69038 13.539183 123.80939 14.46875 124.71875 C 19.097347 129.24675 25.188897 133.91389 29.46875 139.46875 C 30.698904 141.06538 30.948237 143.39567 32.46875 144.71875 C 33.484373 145.6025 35.255242 145.27846 36.21875 146.21875 C 37.581356 147.54853 37.712176 149.72158 38.46875 151.46875 C 39.047067 152.80427 39.216358 154.41364 40.21875 155.46875 C 41.373838 156.68459 43.160065 157.09988 44.71875 157.71875 C 53.858376 161.34761 63.565192 165.80527 72.96875 166.21875 C 73.714219 166.25153 74.282644 165.70435 74.5 165.03125 C 74.470979 165.03167 74.435778 165.03255 74.40625 165.03125 C 64.69494 164.60424 54.68874 159.99762 45.25 156.25 C 43.640304 155.61088 41.786641 155.16188 40.59375 153.90625 C 39.558553 152.81661 39.378494 151.16047 38.78125 149.78125 C 37.999916 147.9769 37.87595 145.7483 36.46875 144.375 C 35.473709 143.40393 33.642611 143.72517 32.59375 142.8125 C 31.023475 141.44612 30.770413 139.05513 29.5 137.40625 C 25.080079 131.66959 18.780079 126.83244 14 122.15625 C 13.834747 121.99459 13.715119 121.82866 13.59375 121.65625 z "
       transform="translate(182.50939,276.81877)"
       id="path4488" />
    <path
       style="fill:#9e4100;stroke:none;stroke-width:1px;stroke-linecap:butt;stroke-linejoin:miter;stroke-opacity:1;color:#000000;fill-opacity:1;fill-rule:nonzero;marker:none;visibility:visible;display:inline;overflow:visible;enable-background:accumulate"
       d="M 16.78125 118.375 C 14.965865 118.22955 11.922405 122.22774 14.46875 124.71875 C 14.582254 124.82979 14.697285 124.95128 14.8125 125.0625 C 14.7343 124.78944 14.697322 124.51 14.6875 124.21875 C 14.64706 123.01975 15.526333 123.21546 16.5 122 C 16.989437 121.38902 17.743473 121.9662 18.34375 122.46875 C 20.064281 123.90906 20.646585 126.43848 22.34375 127.90625 C 24.928535 130.14166 26.491902 131.26611 29.6875 134.65625 C 30.582195 135.60541 32.11707 136.07351 33.40625 135.875 C 34.844947 135.65347 36.329334 134.63502 36.9375 133.3125 C 37.075625 133.01213 37.155127 132.70089 37.1875 132.375 C 37.043813 132.50377 36.895053 132.62751 36.71875 132.71875 C 35.295158 133.45552 33.486144 133.98543 31.96875 133.46875 C 27.82758 132.05865 23.716424 125.51846 17.46875 118.71875 C 17.279639 118.51293 17.040591 118.39578 16.78125 118.375 z "
       transform="translate(182.50939,276.81877)"
       id="path4409" />
    <path
       style="color:#000000;fill:#9e4100;fill-opacity:1;fill-rule:nonzero;stroke:none;stroke-width:1px;marker:none;visibility:visible;display:inline;overflow:visible;enable-background:accumulate"
       d="m 41.09375,116.5 c -0.920162,-0.0394 -1.705692,0.4654 -1.84375,1.625 0.129595,0.36885 0.289195,0.73701 0.53125,1.0625 0.697749,0.93825 1.792733,0.7064 2.15625,2 0.705931,2.51211 -0.398508,7.31467 -1.25,9.78125 -0.880523,2.55067 -3.242104,3.38321 -3.5625,6.0625 -0.27215,2.27583 1.971814,4.27558 2.125,6.5625 0.04403,0.65733 -0.39621,1.28079 -0.34375,1.9375 0.169192,2.11784 0.522288,4.57017 2.09375,6 1.617331,1.47156 4.097726,0.22849 5.5,1.90625 0.568093,0.6797 0.518278,1.64479 1.0625,2.34375 1.522601,1.95552 4.401721,2.11382 6.75,2.90625 3.549197,1.19769 3.925607,2.09577 8.210405,2.60761 0.315083,0.0376 0.3729,-0.55768 0.375,-0.875 0.0017,-0.25738 -0.02856,-0.52675 -0.09375,-0.78125 -4.839587,-1.11142 -7.399811,-1.46743 -11.585405,-3.92011 -1.37362,-0.80492 -2.149224,-2.40731 -3.5,-3.25 -0.984777,-0.61436 -2.439817,-0.41884 -3.25,-1.25 -2.778081,-2.85001 -3.703329,-7.28109 -4,-11.25 -0.487294,-6.5191 2.374672,-10.30408 3.75,-19.25 0.386798,-2.51596 -1.546518,-4.15122 -3.125,-4.21875 z"
       transform="translate(182.50939,276.81877)"
       id="path4404"
       inkscape:connector-curvature="0"
       sodipodi:nodetypes="scsssssssssssccssssss" />
    <path
       style="fill:#2d1650;stroke:#000000;stroke-width:1;stroke-linecap:butt;stroke-linejoin:miter;stroke-miterlimit:4;stroke-opacity:1;stroke-dasharray:none"
       d="m 96.3125,46.34375 c -1.543178,3.951225 -10.181498,8.446981 -14.625,11.125 -6.439526,3.880988 -18.490639,10.318898 -24.40625,10.125 1.61154,2.549211 3.090915,5.088291 3.90625,6.5 0.01925,0.233638 0.272079,0.661132 0.34375,0.875 1.8752,5.595619 18.366714,-3.055386 26.15625,-7.75 5.392375,-3.249888 17.14556,-9.160422 13.1875,-13.53125 -0.12435,-0.137317 -0.33692,-0.552535 -0.4375,-0.71875 -1.445193,-2.162103 -2.823691,-4.361361 -4.125,-6.625 z"
       transform="translate(183.75939,278.31877)"
       id="path4080"
       inkscape:connector-curvature="0"
       sodipodi:nodetypes="csccssscc" />
    <path
       style="fill:#d45500;stroke:none"
       d="m 97,92.1875 c -0.09422,0.171374 -0.210975,0.348777 -0.28125,0.53125 -1.024423,2.659992 0.393259,6.087244 2.25,8.25 3.20771,3.73639 8.89614,4.2523 13.5,6 5.14963,1.95488 10.68269,2.82452 15.6875,5.125 3.74017,1.71918 6.54177,5.49285 10.5625,6.375 0.84321,0.185 1.53218,-0.0644 1.8125,-0.5625 -0.14474,-0.0142 -0.28279,-0.0213 -0.4375,-0.0625 -4.1607,-1.10895 -6.85893,-4.93564 -10.6875,-6.90625 -5.12309,-2.63691 -10.30323,-4.3425 -15.59375,-6.625 C 109.08268,102.27191 103.17828,101.4601 100,97.40625 98.8192,95.900155 97.225803,94.179461 97,92.1875 z"
       transform="translate(182.50939,276.81877)"
       id="path4114"
       inkscape:connector-curvature="0"
       sodipodi:nodetypes="csssssccsssc" />
    <path
       id="path4249"
       transform="matrix(0.48437471,0,0,0.48437471,250.24196,289.07697)"
       d="m 106.125,175.78125 c -2.29492,0 -4.33307,1.12854 -5.625,2.84375 1.32789,-1.16442 3.04294,-1.875 4.9375,-1.875 4.18166,0 7.5625,3.42232 7.5625,7.65625 0,0.0528 0.001,0.10367 0,0.15625 0.11602,-0.51453 0.1875,-1.04362 0.1875,-1.59375 0,-3.95433 -3.15698,-7.1875 -7.0625,-7.1875 z"
       style="color:#000000;fill:#ececec;fill-opacity:1;fill-rule:nonzero;stroke:none;stroke-width:1.37881243;marker:none;visibility:visible;display:inline;overflow:visible;enable-background:accumulate"
       inkscape:connector-curvature="0" />
    <path
       style="fill:#ff7f2a;stroke:none;stroke-width:1.50000000000000000;stroke-linecap:butt;stroke-linejoin:miter;stroke-miterlimit:4;stroke-opacity:1;stroke-dasharray:none"
       d="M 103.75 88.6875 C 103.48609 88.671042 103.23427 88.690695 102.96875 88.71875 C 101.48796 88.875213 99.859193 89.464829 98.59375 90.40625 C 98.902964 90.323289 99.228824 90.267691 99.53125 90.21875 C 101.75482 89.858916 104.01945 91.090051 105.96875 92.21875 C 109.35701 94.180644 111.53099 97.748473 114.59375 100.1875 C 119.79106 104.32638 125.68501 106.82511 131.28125 110.40625 C 134.31968 112.3506 138.6896 114.94963 140.34375 117 C 140.47296 117.16016 140.54324 117.31768 140.625 117.46875 C 140.65183 117.11075 140.5627 116.6968 140.21875 116.21875 C 138.75974 114.19089 134.77524 111.49985 132 109.5 C 126.88851 105.81664 121.42336 103.15934 116.71875 98.96875 C 113.94634 96.499247 112.07431 93.003504 108.96875 90.96875 C 107.40542 89.944461 105.59734 88.802705 103.75 88.6875 z "
       transform="translate(182.50939,276.81877)"
       id="path4119" />
    <path
       style="fill:none;stroke:#aa4400;stroke-width:1px;stroke-linecap:butt;stroke-linejoin:miter;stroke-opacity:1"
       d="m 110.125,91.611908 c -4.70034,-3.092931 -8.26946,-0.791066 -9.875,3.5 -0.780742,4.435832 0.0987,8.545142 5.8125,9.000002"
       id="path4104"
       inkscape:connector-curvature="0"
       transform="translate(182.50939,276.81877)"
       sodipodi:nodetypes="ccc" />
    <path
       style="fill:none;stroke:#aa4400;stroke-width:1px;stroke-linecap:butt;stroke-linejoin:miter;stroke-opacity:1"
       d="m 115.25,97.736908 c -2.88222,-1.897829 -5.07399,1.085387 -5.4375,4.187502 -0.17707,2.81459 1.21858,5.78464 4.3125,5.5625"
       id="path4106"
       inkscape:connector-curvature="0"
       transform="translate(182.50939,276.81877)"
       sodipodi:nodetypes="ccc" />
    <path
       style="fill:none;stroke:#aa4400;stroke-width:1px;stroke-linecap:butt;stroke-linejoin:miter;stroke-opacity:1"
       d="m 119.25,101.11191 c -2.41833,-1.802759 -4.88885,0.0372 -4.5,3.0625 0.40858,2.33994 0.81056,3.99583 3.75,4.3125"
       id="path4108"
       inkscape:connector-curvature="0"
       transform="translate(182.50939,276.81877)"
       sodipodi:nodetypes="ccc" />
    <path
       style="fill:none;stroke:#aa4400;stroke-width:1px;stroke-linecap:butt;stroke-linejoin:miter;stroke-opacity:1"
       d="m 130.375,108.61191 c -0.52819,-1.09782 -2.98022,-1.1735 -3.28125,0.0937 -0.33783,1.42217 -0.39338,3.23625 1.15625,3.15625"
       id="path4110"
       inkscape:connector-curvature="0"
       transform="translate(182.50939,276.81877)"
       sodipodi:nodetypes="csc" />
    <path
       sodipodi:nodetypes="sssssssssss"
       transform="translate(212.23005,401.7896)"
       inkscape:connector-curvature="0"
       id="path4112"
       d="m 73.249998,-36.263987 c -2.459777,0.259905 -5.361056,1.69179 -6.25,4 -1.024423,2.659992 0.393259,6.087244 2.25,8.25 3.207713,3.736386 8.896137,4.252303 13.5,6 5.149633,1.95488 10.745192,2.699525 15.749999,5 3.740173,1.719181 6.479273,5.6178472 10.500003,6.4999994 1.54369,0.3386878 2.59952,-0.7217847 1.5,-2.25 -1.45901,-2.0278614 -5.45959,-4.7224184 -8.23483,-6.7222714 -5.111493,-3.68336 -10.560559,-6.337135 -15.265172,-10.527728 -2.772413,-2.469503 -4.644441,-5.965246 -7.75,-8 -1.786661,-1.170616 -3.875824,-2.474444 -6,-2.25 z"
       style="fill:none;stroke:#552200;stroke-width:2;stroke-linecap:butt;stroke-linejoin:miter;stroke-miterlimit:4;stroke-opacity:1;stroke-dasharray:none" />
    <path
       style="fill:#4d2689;fill-opacity:1;stroke:none"
       d="m 96.75,49.25 c -1.243013,1.648522 -3.448083,3.328599 -5.84375,4.90625 l 6,9.78125 c 2.701938,-1.835925 5.02881,-3.80607 5.65625,-5.6875 L 96.875,49.4375 z"
       transform="translate(182.50939,276.81877)"
       id="path4143"
       inkscape:connector-curvature="0"
       sodipodi:nodetypes="cccccc" />
    <path
       style="fill:#3e3e3e;fill-opacity:1;stroke:none"
       d="m 70.512455,25.652317 c -3.526467,1.33718 -7.136781,2.560077 -10.408379,4.436422 -3.087413,1.77071 -5.567675,4.458302 -8.573669,6.363961 -2.047291,1.297887 -5.470253,2.501975 -6.411296,3.43198 -1.642181,1.62292 4.609365,-0.660083 6.764849,-1.487437 3.954191,-1.517764 7.417949,-4.094284 11.048544,-6.275572 4.430223,-2.661711 11.456358,-3.917669 13.091436,-8.307743 0.643835,-1.728653 -3.70063,1.151741 -5.511485,1.838389 z"
       id="path4153"
       inkscape:connector-curvature="0"
       transform="translate(182.50939,276.81877)"
       sodipodi:nodetypes="aaasaasa" />
    <path
       style="fill:#6e2ec4;fill-opacity:1;stroke:none"
       d="m 95.9375,50.1875 c -0.512936,0.537769 -1.122532,1.059259 -1.78125,1.59375 l 6.125,9.96875 c 0.7106,-0.657835 1.29662,-1.312778 1.71875,-1.96875 z"
       transform="translate(182.50939,276.81877)"
       id="path4155"
       inkscape:connector-curvature="0"
       sodipodi:nodetypes="ccccc" />
    <path
       style="fill:#23113f;stroke:none;stroke-width:1px;stroke-linecap:butt;stroke-linejoin:miter;stroke-opacity:1;fill-opacity:1"
       d="M 78.875 61.3125 C 72.998446 64.583926 65.347784 68.284633 60.3125 68.96875 L 64.75 76.75 L 64.96875 78.1875 C 69.083494 78.974602 77.723965 74.97161 84.34375 71.34375 L 78.875 61.3125 z "
       transform="translate(182.50939,276.81877)"
       id="path4167" />
    <path
       style="fill:#c30b0b;stroke:none;stroke-width:1px;stroke-linecap:butt;stroke-linejoin:miter;stroke-opacity:1;color:#000000;fill-opacity:1;fill-rule:nonzero;marker:none;visibility:visible;display:inline;overflow:visible;enable-background:accumulate"
       d="M 102 149.0625 L 101.65625 151.34375 C 101.65625 151.34375 101.13182 156.87003 100.75 159.5 C 100.35248 162.23808 99.099647 165.50731 99.25 168.34375 C 100.22869 168.62954 101.176 168.63146 101.3125 168.125 C 102.37764 164.17292 102.48265 159.99254 102.71875 155.90625 C 102.84483 153.72417 103.05199 151.44111 102.84375 149.3125 C 102.37917 149.16073 102 149.0625 102 149.0625 z "
       transform="translate(182.50939,276.81877)"
       id="path4378" />
    <path
       sodipodi:nodetypes="sssssss"
       transform="translate(212.23005,401.7896)"
       inkscape:connector-curvature="0"
       id="path4380"
       d="m 71.241006,22.988384 c -0.178454,2.74844 -0.276161,4.507598 -0.707106,6.717514 -0.774602,3.972212 -3.104327,8.518098 -3.358758,11.667262 -0.127772,1.581466 4.11713,2.889366 4.419418,1.767766 1.065144,-3.95208 1.178118,-8.111306 1.414213,-12.197591 0.146153,-2.529581 0.413158,-5.199963 0,-7.601398 -0.10189,-0.592224 -1.728831,-0.953216 -1.767767,-0.353553 z"
       style="color:#000000;fill:none;stroke:#2b0000;stroke-width:2;stroke-linecap:butt;stroke-linejoin:miter;stroke-miterlimit:4;stroke-opacity:1;stroke-dasharray:none;stroke-dashoffset:0;marker:none;visibility:visible;display:inline;overflow:visible;enable-background:accumulate" />
    <path
       style="color:#000000;fill:#aa0000;fill-opacity:1;fill-rule:nonzero;stroke:none;stroke-width:1.50000000000000000;stroke-linecap:butt;stroke-linejoin:miter;stroke-miterlimit:4;stroke-opacity:1;stroke-dasharray:none;stroke-dashoffset:0;marker:none;visibility:visible;display:inline;overflow:visible;enable-background:accumulate"
       d="m 73.37305,13.960209 c -2.554722,0.569292 -3.97482,4.101716 -4.065864,6.717515 -0.06699,1.924818 0.875309,4.369667 2.640927,5.139087 1.79568,0.782521 4.41542,-0.07585 5.656854,-1.59099 1.500848,-1.831747 1.57808,-4.954683 0.541054,-7.083631 -0.837355,-1.719037 -2.906616,-3.597878 -4.772971,-3.181981 z"
       id="path3095"
       inkscape:connector-curvature="0"
       transform="translate(212.23005,401.7896)"
       sodipodi:nodetypes="ssssss" />
    <path
       style="color:#000000;fill:#ececec;fill-opacity:1;fill-rule:nonzero;stroke:none;stroke-width:1.37881242999999998;stroke-linecap:butt;stroke-linejoin:miter;stroke-miterlimit:4;stroke-opacity:1;stroke-dasharray:none;stroke-dashoffset:0;marker:none;visibility:visible;display:inline;overflow:visible;enable-background:accumulate"
       d="M 106.125 175.78125 C 103.83008 175.78125 101.79193 176.90979 100.5 178.625 C 101.82789 177.46058 103.54294 176.75 105.4375 176.75 C 109.61916 176.75 113 180.17232 113 184.40625 C 113 184.45909 113.00105 184.50992 113 184.5625 C 113.11602 184.04797 113.1875 183.51888 113.1875 182.96875 C 113.1875 179.01442 110.03052 175.78125 106.125 175.78125 z "
       transform="translate(182.50939,276.81877)"
       id="path4227" />
    <path
       id="path4233"
       transform="translate(186.95134,313.26072)"
       d="m 106.125,175.78125 c -2.29492,0 -4.33307,1.12854 -5.625,2.84375 1.32789,-1.16442 3.04294,-1.875 4.9375,-1.875 4.18166,0 7.5625,3.42232 7.5625,7.65625 0,0.0528 0.001,0.10367 0,0.15625 0.11602,-0.51453 0.1875,-1.04362 0.1875,-1.59375 0,-3.95433 -3.15698,-7.1875 -7.0625,-7.1875 z"
       style="color:#000000;fill:#ececec;fill-opacity:1;fill-rule:nonzero;stroke:none;stroke-width:1.37881243;marker:none;visibility:visible;display:inline;overflow:visible;enable-background:accumulate"
       inkscape:connector-curvature="0" />
    <path
       inkscape:connector-curvature="0"
       style="color:#000000;fill:#ececec;fill-opacity:1;fill-rule:nonzero;stroke:none;stroke-width:1.37881243;marker:none;visibility:visible;display:inline;overflow:visible;enable-background:accumulate"
       d="m 106.125,175.78125 c -2.29492,0 -4.33307,1.12854 -5.625,2.84375 1.32789,-1.16442 3.04294,-1.875 4.9375,-1.875 4.18166,0 7.5625,3.42232 7.5625,7.65625 0,0.0528 0.001,0.10367 0,0.15625 0.11602,-0.51453 0.1875,-1.04362 0.1875,-1.59375 0,-3.95433 -3.15698,-7.1875 -7.0625,-7.1875 z"
       transform="translate(188.95134,353.4375)"
       id="path4235" />
    <path
       id="path4237"
       transform="translate(191.30489,177.79105)"
       d="m 106.125,175.78125 c -2.29492,0 -4.33307,1.12854 -5.625,2.84375 1.32789,-1.16442 3.04294,-1.875 4.9375,-1.875 4.18166,0 7.5625,3.42232 7.5625,7.65625 0,0.0528 0.001,0.10367 0,0.15625 0.11602,-0.51453 0.1875,-1.04362 0.1875,-1.59375 0,-3.95433 -3.15698,-7.1875 -7.0625,-7.1875 z"
       style="color:#000000;fill:#ececec;fill-opacity:1;fill-rule:nonzero;stroke:none;stroke-width:1.37881243;marker:none;visibility:visible;display:inline;overflow:visible;enable-background:accumulate"
       inkscape:connector-curvature="0" />
    <path
       id="path4241"
       transform="matrix(0.48437471,0,0,0.48437471,215.03747,293.81706)"
       d="m 106.125,175.78125 c -2.29492,0 -4.33307,1.12854 -5.625,2.84375 1.32789,-1.16442 3.04294,-1.875 4.9375,-1.875 4.18166,0 7.5625,3.42232 7.5625,7.65625 0,0.0528 0.001,0.10367 0,0.15625 0.11602,-0.51453 0.1875,-1.04362 0.1875,-1.59375 0,-3.95433 -3.15698,-7.1875 -7.0625,-7.1875 z"
       style="color:#000000;fill:#ececec;fill-opacity:1;fill-rule:nonzero;stroke:none;stroke-width:1.37881243;marker:none;visibility:visible;display:inline;overflow:visible;enable-background:accumulate"
       inkscape:connector-curvature="0" />
    <path
       inkscape:connector-curvature="0"
       style="color:#000000;fill:#ececec;fill-opacity:1;fill-rule:nonzero;stroke:none;stroke-width:1.37881243;marker:none;visibility:visible;display:inline;overflow:visible;enable-background:accumulate"
       d="m 106.125,175.78125 c -2.29492,0 -4.33307,1.12854 -5.625,2.84375 1.32789,-1.16442 3.04294,-1.875 4.9375,-1.875 4.18166,0 7.5625,3.42232 7.5625,7.65625 0,0.0528 0.001,0.10367 0,0.15625 0.11602,-0.51453 0.1875,-1.04362 0.1875,-1.59375 0,-3.95433 -3.15698,-7.1875 -7.0625,-7.1875 z"
       transform="matrix(0.48437471,0,0,0.48437471,224.15357,297.99384)"
       id="path4243" />
    <path
       id="path4245"
       transform="matrix(0.48437471,0,0,0.48437471,234.15357,297.81706)"
       d="m 106.125,175.78125 c -2.29492,0 -4.33307,1.12854 -5.625,2.84375 1.32789,-1.16442 3.04294,-1.875 4.9375,-1.875 4.18166,0 7.5625,3.42232 7.5625,7.65625 0,0.0528 0.001,0.10367 0,0.15625 0.11602,-0.51453 0.1875,-1.04362 0.1875,-1.59375 0,-3.95433 -3.15698,-7.1875 -7.0625,-7.1875 z"
       style="color:#000000;fill:#ececec;fill-opacity:1;fill-rule:nonzero;stroke:none;stroke-width:1.37881243;marker:none;visibility:visible;display:inline;overflow:visible;enable-background:accumulate"
       inkscape:connector-curvature="0" />
    <path
       style="fill:#c30b0b;stroke:none;stroke-width:1px;stroke-linecap:butt;stroke-linejoin:miter;stroke-opacity:1;color:#000000;fill-opacity:1;fill-rule:nonzero;marker:none;visibility:visible;display:inline;overflow:visible;enable-background:accumulate"
       d="M 104.0625 138.90625 L 104.125 139.5 C 104.125 139.5 102.01351 140.57628 102.09375 141.53125 C 102.20874 142.89985 104.69461 142.78234 105.4375 143.9375 C 105.85944 144.5936 105.25772 145.74181 105.875 146.21875 C 106.5246 146.72066 107.53468 146.88925 108.4375 146.71875 C 108.7354 145.16951 108.52314 143.45559 107.875 142.125 C 107.18 140.6982 105.63442 139.14975 104.0625 138.90625 z "
       transform="translate(182.50939,276.81877)"
       id="path4351" />
    <path
       style="fill:#900000;stroke:none;stroke-width:1px;stroke-linecap:butt;stroke-linejoin:miter;stroke-opacity:1;color:#000000;fill-opacity:1;fill-rule:nonzero;marker:none;visibility:visible;display:inline;overflow:visible;enable-background:accumulate"
       d="M 102 139.40625 C 100.14036 140.58345 99.108227 143.44461 99.03125 145.65625 C 98.96426 147.58107 99.890632 150.01183 101.65625 150.78125 C 103.45193 151.56377 106.07107 150.70264 107.3125 149.1875 C 108.28822 147.99666 108.67389 146.27937 108.53125 144.625 C 108.23402 144.54792 107.91322 144.5158 107.65625 144.625 C 106.64966 145.05274 107.00205 146.86911 106.15625 147.5625 C 105.32687 148.24243 103.78973 149.22574 103.0625 148.4375 C 102.72111 148.06747 103.79436 147.49302 103.59375 147.03125 C 103.2253 146.18315 101.54511 146.7375 101.03125 145.96875 C 100.60555 145.3319 100.86607 144.40426 101.03125 143.65625 C 101.22737 142.76811 102.1875 141.1875 102.1875 141.1875 L 103.0625 139.78125 C 103.0625 139.78125 102.58397 139.60043 102 139.40625 z "
       transform="translate(182.50939,276.81877)"
       id="path4338" />
    <path
       sodipodi:nodetypes="ssssss"
       transform="translate(212.23005,401.7896)"
       inkscape:connector-curvature="0"
       id="path4340"
       d="m 73.37305,13.960209 c -2.554722,0.569292 -3.97482,4.101716 -4.065864,6.717515 -0.06699,1.924818 0.875309,4.369667 2.640927,5.139087 1.79568,0.782521 4.41542,-0.07585 5.656854,-1.59099 1.500848,-1.831747 1.57808,-4.954683 0.541054,-7.083631 -0.837355,-1.719037 -2.906616,-3.597878 -4.772971,-3.181981 z"
       style="color:#000000;fill:none;fill-opacity:1;fill-rule:nonzero;stroke:#2b0000;stroke-width:2;stroke-linecap:butt;stroke-linejoin:miter;stroke-miterlimit:4;stroke-opacity:1;stroke-dasharray:none;stroke-dashoffset:0;marker:none;visibility:visible;display:inline;overflow:visible;enable-background:accumulate" />
    <path
       sodipodi:nodetypes="sssssssssssssssssss"
       transform="translate(210.23005,385.2896)"
       inkscape:connector-curvature="0"
       id="path4402"
       d="m 46,54.486008 c -6.094477,-3.491768 -15.701496,-3.266205 -22.5,-7.25 -1.37362,-0.804916 -2.149224,-2.407311 -3.5,-3.25 -0.984777,-0.614359 -2.439817,-0.418841 -3.25,-1.25 -2.778081,-2.850007 -3.703329,-7.281088 -4,-11.25 -0.487294,-6.519099 2.374672,-10.304078 3.75,-19.25 C 17.118877,8.2104777 11.771968,6.445776 11.5,9.7360082 10.712096,19.267964 11.169885,23.112997 9,24.236008 c -1.4235915,0.736771 -3.2326064,1.266683 -4.75,0.75 -4.14116972,-1.410097 -8.2523258,-7.950291 -14.5,-14.75 -1.512887,-1.6465637 -5.910109,3.153137 -3,6 4.6285975,4.528003 10.720147,9.19514 15,14.75 1.230154,1.596628 1.4794867,3.926921 3,5.25 1.015623,0.883748 2.7864923,0.559706 3.75,1.5 1.3626057,1.329777 1.4934265,3.502832 2.25,5.25 0.578317,1.335517 0.747608,2.944886 1.75,4 1.155088,1.215842 2.941315,1.631129 4.5,2.25 9.139626,3.62886 18.846442,8.086521 28.25,8.5 1.540173,0.06772 2.385245,-2.313104 0.75,-3.25 z"
       style="color:#000000;fill:none;fill-opacity:1;fill-rule:nonzero;stroke:#552200;stroke-width:2;stroke-linecap:butt;stroke-linejoin:miter;stroke-miterlimit:4;stroke-opacity:1;stroke-dasharray:none;stroke-dashoffset:0;marker:none;visibility:visible;display:inline;overflow:visible;enable-background:accumulate" />
    <path
       style="color:#000000;fill:#c7d2dd;fill-opacity:1;fill-rule:nonzero;stroke:none;stroke-width:1.50000000000000000;marker:none;visibility:visible;display:inline;overflow:visible;enable-background:accumulate"
       d="m 123.74369,290.12726 c -6.89291,5.78182 -38.019296,3.5973 -54.624002,0.7071 -8.224661,-1.43157 -16.422126,-1.8353 -19.622213,-9.54594 -1.959775,-4.72209 3.74953,-9.62565 6.717514,-13.78858 2.128577,-2.98556 6.605505,-4.30408 7.778175,-7.77817 1.407245,-4.16903 -2.17952,-8.70066 -1.767767,-13.08148 0.48824,-5.1946 3.885594,-9.74142 4.949747,-14.84924 1.351414,-6.48664 -0.09594,-13.44058 1.767767,-19.79899 2.781096,-9.48827 0.985918,-16.16198 1.767767,-24.21841 0.189204,-1.94962 -1.225205,-5.51273 0.707107,-5.83363 3.743825,-0.62174 4.103481,6.55351 4.949747,10.25305 1.576771,6.89302 -1.864627,14.39241 0,21.2132 0.794141,2.90496 4.739323,4.77003 4.596195,7.77818 -0.152365,3.20227 -5.122047,4.6172 -5.656855,7.77817 -0.883168,5.21994 1.283785,11.07294 4.596194,15.2028 2.707249,3.37536 10.384397,2.13802 11.313709,6.36396 1.124009,5.11131 -7.299013,7.84898 -9.192388,12.72792 -1.115908,2.87552 -2.363677,6.39667 -1.06066,9.19239 3.162078,6.78447 11.84512,9.45693 18.738329,12.37437 7.557524,3.1986 30.329114,0.0293 24.041634,5.3033 z"
       id="path4517"
       inkscape:connector-curvature="0"
       transform="translate(182.50939,276.81877)"
       sodipodi:nodetypes="ssssssssaaasssssssss" />
    <path
       style="color:#000000;fill:#8c6f00;fill-opacity:1;fill-rule:nonzero;stroke:none;stroke-width:1px;marker:none;visibility:visible;display:inline;overflow:visible;enable-background:accumulate"
       d="m 157.34375,53.96875 c 0,0 0.97839,1.943666 1.21875,3 1.61066,7.078642 1.27601,14.459224 1.25,21.71875 -0.0165,4.605598 -0.6741,9.211256 -0.875,13.8125 -0.11055,2.532072 -0.1875,7.59375 -0.1875,7.59375 0,0 1.23799,-8.360339 1.59375,-12.5625 0.69657,-8.227719 2.6556,-16.647989 1.0625,-24.75 -0.6257,-3.182115 -4.0625,-8.8125 -4.0625,-8.8125 z M 138.5,57.375 c 0,0 2.76131,8.837287 3.625,13.375 1.81664,9.544299 3.21104,27.109694 3.5,30.875 0.051,0.006 0.10487,-0.005 0.15625,0 0.0447,-1.800674 0.12782,-5.752062 -0.0313,-8.375 -0.58441,-9.636382 -0.62111,-19.535153 -3.5,-28.75 -0.80034,-2.561754 -3.75,-7.125 -3.75,-7.125 z m -6.96875,4.53125 -0.90625,0.71875 c 0,0 3.85757,7.914073 5.5,12 1.39707,3.475549 3.71875,10.625 3.71875,10.625 0,0 -1.83949,-11.908987 -4.25,-17.34375 -0.9807,-2.211092 -4.0625,-6 -4.0625,-6 z m 48.59375,3 c 0,0 -3.40075,4.661433 -4.9375,7.09375 -2.67806,4.238739 -5.8695,8.300117 -7.4375,13.0625 C 166.20943,89.741601 166,99.75 166,99.75 c 0,0 1.29087,-8.510284 2.65625,-12.5625 1.54022,-4.571112 3.94921,-8.820881 6.1875,-13.09375 1.64149,-3.13359 5.28125,-9.1875 5.28125,-9.1875 z M 165.375,70.75 c 0,0 -1.32253,5.735186 -1.875,8.625 -0.91197,4.770233 -1.76705,9.556576 -2.375,14.375 -0.34825,2.760093 -0.50815,5.310336 -0.75,8.25 0.7467,-0.0275 1.48929,-0.0533 2.21875,-0.0937 -0.37589,-2.630718 -0.90721,-5.358292 -0.84375,-8.03125 0.18521,-7.800267 3.625,-23.125 3.625,-23.125 z M 152.25,77 c 0,0 1.07501,10.570298 1.125,15.875 0.0292,3.096483 -0.29148,4.880416 -0.46875,9.1875 0.58227,0.0132 1.15779,0.0264 1.75,0.0313 C 154.71965,99.085914 154.58117,96.751865 154.375,94 153.94804,88.305217 152.25,77 152.25,77 z M 171,89.90625 c -0.0717,-0.06237 -0.49826,0.588765 -0.625,0.84375 -1.31365,2.642802 -1.66449,5.69285 -2,8.625 -0.0746,0.652 -0.31517,1.39774 -0.21875,2.03125 0.76748,-0.0909 1.49891,-0.17194 2.1875,-0.28125 -0.1527,-0.87189 -0.63058,-1.910112 -0.59375,-2.75 0.12363,-2.819881 0.95298,-6.314345 1.25,-8.375 0.006,-0.04026 0.0102,-0.08484 0,-0.09375 z M 138.125,92 c 0,0 1.2181,5.76234 2.0625,8.5625 0.47763,0.17235 1.06466,0.32628 1.71875,0.46875 C 141.16431,98.966258 140.19941,96.559686 139.25,94.375 138.90086,93.571593 138.125,92 138.125,92 z"
       transform="translate(182.50939,276.19377)"
       id="path4617"
       inkscape:connector-curvature="0" />
  </g>
</svg>
