<?xml version="1.0" encoding="UTF-8" standalone="no"?>
<!-- Created with Inkscape (http://www.inkscape.org/) -->

<svg
   xmlns:dc="http://purl.org/dc/elements/1.1/"
   xmlns:cc="http://creativecommons.org/ns#"
   xmlns:rdf="http://www.w3.org/1999/02/22-rdf-syntax-ns#"
   xmlns:svg="http://www.w3.org/2000/svg"
   xmlns="http://www.w3.org/2000/svg"
   xmlns:sodipodi="http://sodipodi.sourceforge.net/DTD/sodipodi-0.dtd"
   xmlns:inkscape="http://www.inkscape.org/namespaces/inkscape"
   id="svg2"
   version="1.1"
   inkscape:version="0.48.0 r9654"
   width="504.5993"
   height="610.18024"
   sodipodi:docname="Tree.svg"
   inkscape:export-filename="/mnt/y/src/hedgewars/share/hedgewars/Data/Themes/Snow/Tree.png"
   inkscape:export-xdpi="90"
   inkscape:export-ydpi="90"
   style="display:inline">
  <metadata
     id="metadata8">
    <rdf:RDF>
      <cc:Work
         rdf:about="">
        <dc:format>image/svg+xml</dc:format>
        <dc:type
           rdf:resource="http://purl.org/dc/dcmitype/StillImage" />
        <dc:title />
      </cc:Work>
    </rdf:RDF>
  </metadata>
  <defs
     id="defs6" />
  <sodipodi:namedview
     pagecolor="#ffffff"
     bordercolor="#666666"
     borderopacity="1"
     objecttolerance="10"
     gridtolerance="10"
     guidetolerance="10"
     inkscape:pageopacity="0"
     inkscape:pageshadow="2"
     inkscape:window-width="1280"
     inkscape:window-height="948"
     id="namedview4"
     showgrid="false"
     inkscape:zoom="1"
     inkscape:cx="233.91995"
     inkscape:cy="372.34274"
     inkscape:window-x="-4"
     inkscape:window-y="-3"
     inkscape:window-maximized="1"
     inkscape:current-layer="layer2"
     fit-margin-left="10"
     fit-margin-top="10"
     fit-margin-right="10"
     fit-margin-bottom="10" />
  <g
     inkscape:groupmode="layer"
     id="layer2"
     inkscape:label="Tree"
     style="display:inline"
     transform="translate(-135.98141,-164.8895)">
    <path
       transform="matrix(0.65,0,0,0.65,135.7151,164.67243)"
       style="fill:#5f2e0f;fill-opacity:1;stroke:none;stroke-width:3.07692308;stroke-miterlimit:4;stroke-dasharray:none"
       d="m 296.93853,21.238122 c -0.10072,-5.311671 9.03207,-5.372259 9.26777,-0.06486 13.49414,303.856778 73.5633,646.642128 115.99806,885.664408 3.60199,20.28892 -53.00611,20.54225 -56.73285,0.27588 -43.63546,-237.294 -62.05999,-544.51833 -68.53298,-885.875424 z"
       id="path2987"
       inkscape:connector-curvature="0"
       sodipodi:nodetypes="sssss" />
    <path
       style="fill:#492513;fill-opacity:1;stroke:none;stroke-width:2;stroke-miterlimit:4;stroke-dasharray:none"
       d="m 328.75,178.15625 c -0.009,0.10036 -0.0333,0.20534 -0.0313,0.3125 1.20884,63.74911 3.0856,125.65312 5.78125,185.1875 0.98057,21.65618 2.06705,43.0011 3.28125,64 0.24268,4.19702 0.49751,8.36176 0.75,12.53125 0.25254,4.17177 0.4875,8.32494 0.75,12.46875 0.26294,4.14941 0.5394,8.28533 0.8125,12.40625 0.27272,4.11525 0.56074,8.22609 0.84375,12.3125 0.13259,1.91451 0.27138,3.81064 0.40625,5.71875 0.19709,2.78938 0.39174,5.56815 0.59375,8.34375 0.007,0.10096 -0.007,0.21156 0,0.3125 0.24231,3.32585 0.50054,6.63166 0.75,9.9375 0.25445,3.37047 0.51927,6.74434 0.78125,10.09375 0.1406,1.7983 0.29471,3.61408 0.4375,5.40625 0.4899,6.14617 0.98397,12.23939 1.5,18.3125 0.11742,1.38261 0.22496,2.77747 0.34375,4.15625 0.27869,3.23309 0.55744,6.44442 0.84375,9.65625 0.3479,3.90473 0.70321,7.78332 1.0625,11.65625 0.26951,2.90402 0.53651,5.80158 0.8125,8.6875 0.16004,1.67412 0.33777,3.33202 0.5,5 0.30465,3.13089 0.62504,6.2659 0.9375,9.375 0.38254,3.80804 0.76185,7.60005 1.15625,11.375 0.29169,2.79079 0.57675,5.54 0.875,8.3125 0.23441,2.17993 0.48025,4.36272 0.71875,6.53125 0.22012,2.0007 0.43262,4.00907 0.65625,6 0.1892,1.68496 0.40203,3.35333 0.59375,5.03125 0.71459,6.25157 1.43734,12.44123 2.1875,18.59375 0.42577,3.49203 0.84383,6.9779 1.28125,10.4375 0.51788,4.09733 1.02806,8.16749 1.5625,12.21875 0.0502,0.38005 0.10595,0.7766 0.15625,1.15625 0.53879,4.06788 1.10047,8.10437 1.65625,12.125 0.31864,2.30464 0.64446,4.58604 0.96875,6.875 0.99124,6.9967 1.98647,13.90207 3.03125,20.75 0.52035,3.41062 1.05989,6.84567 1.59375,10.21875 0.50845,3.21248 1.0104,6.38445 1.53125,9.5625 0.0779,0.47557 0.17179,0.96271 0.25,1.4375 0.42143,2.55813 0.85167,5.12074 1.28125,7.65625 0.0789,0.46588 0.13954,0.94114 0.21875,1.40625 1.18299,6.94626 2.41079,13.78957 3.65625,20.5625 2.02114,10.99114 27.97488,12.70897 35.15625,5.3125 -9.60235,0.60717 -20.49606,-2.42536 -21.90625,-9.34375 -1.88506,-9.24804 -3.69434,-18.6444 -5.46875,-28.21875 6.85589,-8.27778 11.83388,-17.22116 11.8125,-24.125 2.62077,1.28045 5.29595,2.49699 8,3.65625 -18.01522,-102.8584 -38.59588,-226.9297 -52.34375,-351.46875 -3.49881,-1.2671 -5.66634,-4.15364 -7.125,-3.96875 -0.53649,0.068 -0.96176,0.55193 -1.34375,1.6875 -0.16723,0.49713 -0.33181,0.97292 -0.5,1.46875 -3.43461,-54.89564 -6.2115,-111.76406 -8.46875,-170.21875 -0.89159,-0.0601 -1.68607,-0.38401 -2.34375,-0.90625 z"
       id="path3832"
       inkscape:connector-curvature="0" />
    <path
       sodipodi:nodetypes="sssss"
       inkscape:connector-curvature="0"
       id="path3876"
       d="m 296.93853,21.238122 c -0.10072,-5.311671 9.03207,-5.372259 9.26777,-0.06486 13.49414,303.856778 73.5633,646.642128 115.99806,885.664408 3.60199,20.28892 -53.00611,20.54225 -56.73285,0.27588 -43.63546,-237.294 -62.05999,-544.51833 -68.53298,-885.875424 z"
       style="fill:none;stroke:#180a06;stroke-width:3.07692308;stroke-linecap:butt;stroke-linejoin:round;stroke-miterlimit:4;stroke-opacity:1;stroke-dasharray:none"
       transform="matrix(0.65,0,0,0.65,135.7151,164.67243)" />
    <path
       transform="matrix(1.3149827,-0.00668523,0.00668523,1.3149827,-55.087493,193.79475)"
       style="fill:#146e00;fill-opacity:1;stroke:#081806;stroke-width:1.5209129;stroke-linecap:butt;stroke-linejoin:round;stroke-miterlimit:4;stroke-opacity:1;stroke-dasharray:none"
       d="m 319.46875,101 c -1.65606,0.0782 -2.19937,6.76313 -8.28125,7.03125 -5.63851,0.24857 -7.90201,-6.15962 -9.25,-2.21875 -21.2033,61.98832 -52.55447,110.49869 -67.83162,167.89034 -13.03871,48.98251 -61.11487,91.48838 -81.81314,120.02059 -8.56483,11.80647 69.26117,1.88581 102.16668,-22.42281 -12.33302,11.98558 -15.62895,12.2216 -25.55729,23.07898 -13.29736,14.54164 52.95239,-5.54434 76.79879,-22.24443 4.00857,10.22945 -9.50303,33.10275 -1.15621,35.89953 9.15213,3.06662 36.17641,-21.81066 36.2042,-35.79459 34.7051,17.17534 80.22718,20.24539 98.313,13.08265 9.54549,-3.78042 -24.57076,-13.08154 -34.8517,-28.02412 23.67301,9.37386 128.5212,-16.05974 113.26807,-25.3765 -11.84715,-7.23636 -89.44681,-16.99465 -118.1778,-70.08415 C 371.35051,210.19165 351.47407,146.63825 320.875,102.15625 320.29202,101.30877 319.85092,100.98195 319.46875,101 z"
       id="path3758"
       inkscape:connector-curvature="0"
       sodipodi:nodetypes="ssssscscscscssss" />
    <path
       inkscape:connector-curvature="0"
       style="color:#000000;fill:#0f5a00;fill-opacity:1;fill-rule:nonzero;stroke:none;stroke-width:3.07692308;marker:none;visibility:visible;display:inline;overflow:visible;enable-background:accumulate;stroke-miterlimit:4;stroke-dasharray:none"
       d="m 320.1875,253.4375 c -0.41562,0.0527 -0.77598,0.29497 -1.125,0.71875 -28.10113,83.5007 -65.32991,155.00303 -96.03125,227.71875 -2.67656,9.91512 -5.41819,19.9752 -8.34375,30.34375 -4.59474,16.28434 -11.82625,31.95787 -20.78125,46.9375 -3.73544,11.59184 -7.20496,23.30124 -10.3125,35.21875 -4.49778,17.24911 -11.12856,34.1062 -19.25,50.5 -11.14372,22.89304 -25.23189,44.8535 -40.4375,65.71875 26.16037,-2.48898 63.80515,-15.60156 76.34375,-23.3125 -3.79291,23.88421 -12.95337,43.67331 -28.03125,63.40625 -29.71284,38.88619 98.85074,-25.07949 147,-62.5 13.45368,20.46403 82.58,81.07804 103.28125,68.15625 11.99874,-7.48966 -6.37185,-36.68384 -14.46875,-53.5625 75.87898,21.94557 144.23115,33.77556 175.3125,23.1875 16.40438,-5.58827 -62.42224,-42.39576 -75.625,-76.21875 16.42909,8.59099 68.93776,15.60128 108.84375,11.03125 C 577.45,640.85996 539.58133,612.482 516.6875,570.6875 481.58149,506.59866 452.58337,433.37473 420.96875,365.625 394.30566,328.19903 367.07149,291.67656 344.4375,257.75 c -1.92265,1.4674 -4.36081,2.5285 -7.59375,2.6875 -8.90971,0.43817 -13.7085,-7.37363 -16.65625,-7 z"
       id="path3823"
       transform="matrix(0.65,0,0,0.65,135.89853,164.493)" />
    <path
       sodipodi:nodetypes="ssssscscscscssss"
       inkscape:connector-curvature="0"
       id="path2988"
       d="m 298.368,105.37663 c -1.65606,0.0782 -2.19937,6.76313 -8.28125,7.03125 -5.63851,0.24857 -7.90201,-6.15962 -9.25,-2.21875 -21.2033,61.98832 -27.53959,106.2541 -40.86199,164.13075 -11.27715,48.99146 -61.99117,90.60312 -86.79079,117.35287 -9.91654,10.69633 57.8099,2.0478 78.0088,-6.17736 -1.55465,14.24238 -1.09821,19.04964 -9.45032,31.16149 -16.45888,23.8679 57.95776,-9.53109 85.36823,-33.0641 8.5518,11.72055 51.0067,37.42259 62.88298,29.17867 6.88366,-4.7783 -2.61002,-15.69542 -7.88855,-25.44911 45.53312,10.79456 84.09614,9.98902 102.18196,2.82628 9.54549,-3.78042 -33.95083,-16.06524 -42.73992,-35.69785 16.35706,4.63905 109.39285,-7.34896 90.33644,-19.32746 -11.75326,-7.38789 -74.11876,-28.95437 -102.27599,-79.39854 -28.62207,-51.27692 -79.23428,-104.70989 -109.83335,-149.19189 -0.58298,-0.84748 -1.02408,-1.1743 -1.40625,-1.15625 z"
       style="fill:#146e00;fill-opacity:1;stroke:#081806;stroke-width:1.82285532;stroke-linecap:butt;stroke-linejoin:round;stroke-miterlimit:4;stroke-opacity:1;stroke-dasharray:none"
       transform="matrix(1.0958756,0.05348031,-0.05348031,1.0958756,29.077562,169.68329)" />
    <path
       style="color:#000000;fill:#0f5a00;fill-opacity:1;fill-rule:nonzero;stroke:none;stroke-width:3.07692308;marker:none;visibility:visible;display:inline;overflow:visible;enable-background:accumulate;stroke-miterlimit:4;stroke-dasharray:none"
       d="m 330.03125,210.1875 c -2.79849,-0.004 -4.25537,11.23586 -14.53125,11.1875 -4.98231,-0.0234 -8.26162,-3.03017 -10.625,-4.96875 -6.82881,14.5648 -14.15994,29.73844 -21.65625,45.28125 -28.62494,80.85438 -42.42597,146.64324 -65.53125,228.53125 -6.32921,22.43153 -17.65139,43.67897 -31.625,63.59375 19.91615,-1.46051 42.29084,-11.11106 49.19178,-14.40501 -10.5634,31.58846 -50.67448,86.89086 -33.47303,85.87376 49.41912,-2.92209 100.44658,-44.72398 153.49816,-84.79778 15.31145,16.91759 162.33422,77.4232 137.03309,35.92278 -10.22199,-16.76674 -21.05705,-36.97004 -27.89521,-57.30758 10.93648,6.82193 54.82317,12.26228 78.39521,6.90133 -14.54387,-15.44511 -27.67175,-33.08423 -37.625,-53.15625 -3.98608,-8.03845 -8.27364,-16.13878 -12.8125,-24.25 C 476.96716,431.50048 462.1134,413.53112 448.5625,396.125 407.10558,342.87364 375.27491,288.40686 340.96875,225.90625 c -2.98421,-4.59796 -5.87994,-9.1663 -8.65625,-13.65625 -0.91315,-1.47679 -1.63544,-2.06149 -2.28125,-2.0625 z"
       id="path3803"
       inkscape:connector-curvature="0"
       sodipodi:nodetypes="csccsccscsccscscsc"
       transform="matrix(0.65,0,0,0.65,135.89853,164.493)" />
    <path
       sodipodi:nodetypes="ssssscscscsas"
       inkscape:connector-curvature="0"
       id="path3827"
       d="m 294,37.589998 c 1.23808,-3.396201 3.08301,2.217832 7.98,2.1 6.50099,-0.156428 5.8855,-8.910976 8.505,-4.935 25.77956,39.12925 59.33575,84.733602 83.28188,129.724662 23.55723,44.26039 69.93625,81.54297 80.00663,88.15762 16.32783,10.7248 -58.84551,17.44858 -72.95843,13.13926 10.85003,21.27004 41.25256,48.70031 29.65093,52.94224 -18.63072,6.81199 -74.33112,-15.11318 -116.2053,-37.87763 -9.0546,13.6227 -108.49078,66.25587 -94.97001,34.14262 5.46257,-12.97419 7.42341,-21.52116 10.10711,-36.66674 -11.7685,8.19367 -76.35606,9.95928 -65.0931,-1.3465 23.9316,-24.02258 47.90041,-60.84121 66.81104,-94.45012 C 256.93955,136.62507 274.52548,91.010838 294,37.589998 z"
       style="fill:#146e00;fill-opacity:1;stroke:#081806;stroke-width:2.20576477;stroke-linecap:butt;stroke-linejoin:round;stroke-miterlimit:4;stroke-opacity:1;stroke-dasharray:none"
       transform="matrix(-0.89667058,0.13458791,0.13458791,0.89667058,611.4391,214.21042)" />
    <path
       style="color:#000000;fill:#0f5a00;fill-opacity:1;fill-rule:nonzero;stroke:none;stroke-width:3.07692313;marker:none;visibility:visible;display:inline;overflow:visible;enable-background:accumulate"
       d="m 311.9375,187.03125 c -0.45977,0.0563 -0.91431,0.5574 -1.4375,1.6875 -27.46069,59.31641 -64.3135,129.16439 -88.03125,196.1875 -2.19825,6.21197 -4.68756,12.4126 -7.40625,18.5 9.23441,-2.30912 19.5091,-7.19983 23.49816,-12.08455 -1.55465,14.24238 -0.86672,21.44123 -8.40441,35.8033 -13.47341,25.67175 46.38444,-10.86252 74.4375,-31.4375 2.2683,12.90795 -7.86004,46.45072 -3.28125,48.25 8.78235,3.4511 36.05234,-29.29285 39.9375,-46.1875 36.98649,19.43247 80.84963,45.61244 92.65625,40.53125 6.46895,-2.78403 -14.08591,-32.24239 -22.875,-51.875 6.40826,1.81746 28.2105,4.89062 47.875,0.25 -2.81705,-3.52702 -5.62443,-7.03829 -8.34375,-10.53125 -45.12677,-57.96528 -78.8238,-117.24493 -116.75,-186.90625 -2.41113,-4.42868 -3.78274,3.71109 -10.5625,4.5625 -7.31287,0.91836 -9.32018,-6.99387 -11.3125,-6.75 z"
       id="path3774"
       inkscape:connector-curvature="0"
       sodipodi:nodetypes="sssccscscsccssss"
       transform="matrix(0.65,0,0,0.65,135.89853,164.493)" />
    <path
       style="fill:#146e00;fill-opacity:1;stroke:#081806;stroke-width:3.07692313;stroke-linecap:butt;stroke-linejoin:round;stroke-miterlimit:4;stroke-opacity:1;stroke-dasharray:none"
       d="m 319.46875,101 c -1.65606,0.0782 -2.19937,6.76313 -8.28125,7.03125 -5.63851,0.24857 -7.90201,-6.15962 -9.25,-2.21875 -21.2033,61.98832 -47.80813,109.18658 -67.40625,165.25 -14.83543,42.43898 -53.45622,95.95168 -76.03125,122.34375 -9.48106,11.08416 60.3011,-3.05609 80.5,-11.28125 -1.55465,14.24238 0.19394,16.13793 -7.34375,30.5 -13.47341,25.67175 45.13444,-3.86252 73.1875,-24.4375 2.2683,12.90795 -6.61004,39.45072 -2.03125,41.25 8.78235,3.4511 34.30234,-24.54285 38.1875,-41.4375 36.98649,19.43247 84.76437,42.44107 94.40625,35.78125 5.79467,-4.00249 -11.33591,-26.49239 -20.125,-46.125 16.35706,4.63905 115.11891,-19.959 96.0625,-31.9375 -11.75326,-7.38789 -79.96777,-37.74333 -108.125,-88.1875 -28.62207,-51.27692 -51.74468,-110.893 -82.34375,-155.375 -0.58298,-0.84748 -1.02408,-1.1743 -1.40625,-1.15625 z"
       id="path3778"
       inkscape:connector-curvature="0"
       sodipodi:nodetypes="ssssscscscscssss"
       transform="matrix(0.65,0,0,0.65,135.89853,164.493)" />
    <path
       style="fill:#0f5a00;fill-opacity:1;stroke:none;stroke-width:3.07692308;stroke-miterlimit:4;stroke-dasharray:none"
       d="m 319.46875,101 c -1.65606,0.0782 -2.19937,6.76313 -8.28125,7.03125 -5.63851,0.24857 -7.90201,-6.15962 -9.25,-2.21875 -21.2033,61.98832 -47.80813,109.18658 -67.40625,165.25 -3.41406,9.76644 -8.08331,20.11989 -13.53125,30.59375 -1.89182,9.79149 -3.53943,15.38615 -7.96875,25.90625 -13.52077,32.11325 82.97665,-29.03355 92.03125,-42.65625 41.87418,22.76445 85.1814,46.68995 122.5,40.375 8.92075,-1.50954 -23.93122,-31.04246 -34.78125,-52.3125 3.84719,1.17472 14.70944,4.99423 24.78125,5.03125 -5.41287,-6.40955 -10.29834,-13.22133 -14.34375,-20.46875 -28.62207,-51.27692 -51.74468,-110.893 -82.34375,-155.375 -0.58298,-0.84748 -1.02408,-1.1743 -1.40625,-1.15625 z"
       id="path3765"
       inkscape:connector-curvature="0"
       sodipodi:nodetypes="sssscscsccsss"
       transform="matrix(0.65,0,0,0.65,135.89853,165.87186)" />
    <path
       transform="matrix(0.65,0,0,0.65,135.7151,164.67243)"
       style="fill:#146e00;fill-opacity:1;stroke:#081806;stroke-width:3.07692313;stroke-linecap:butt;stroke-linejoin:round;stroke-miterlimit:4;stroke-opacity:1;stroke-dasharray:none"
       d="m 294,37.589998 c 1.95506,-5.362959 3.08301,2.217832 7.98,2.1 6.50099,-0.156428 4.86541,-10.459312 8.505,-4.935 25.77959,39.129232 53.64887,87.413942 77.595,132.405002 23.55723,44.26039 74.34962,81.85249 84.42,88.46714 16.32783,10.7248 -61.06708,14.12218 -75.18,9.81286 10.46541,18.96235 43.88485,44.66864 32.51397,49.06794 -23.32642,9.0248 -82.35265,-12.61746 -124.22683,-35.38191 -9.0546,13.6227 -103.82696,69.78768 -90.30619,37.67443 5.46257,-12.97419 6.67932,-18.36488 9.36302,-33.51046 -11.7685,8.19367 -71.01105,13.11498 -59.74809,1.8092 23.9316,-24.02258 51.80898,-63.55221 71.24714,-99.3784 C 261.44192,139.12962 274.52551,91.010848 294,37.589998 z"
       id="path3757"
       inkscape:connector-curvature="0"
       sodipodi:nodetypes="ssssscscscsas" />
  </g>
</svg>
