<?xml version="1.0" encoding="UTF-8" standalone="no"?>
<!-- Created with Inkscape (http://www.inkscape.org/) -->

<svg
   xmlns:dc="http://purl.org/dc/elements/1.1/"
   xmlns:cc="http://creativecommons.org/ns#"
   xmlns:rdf="http://www.w3.org/1999/02/22-rdf-syntax-ns#"
   xmlns:svg="http://www.w3.org/2000/svg"
   xmlns="http://www.w3.org/2000/svg"
   xmlns:sodipodi="http://sodipodi.sourceforge.net/DTD/sodipodi-0.dtd"
   xmlns:inkscape="http://www.inkscape.org/namespaces/inkscape"
   id="svg2"
   sodipodi:version="0.32"
   inkscape:version="0.47 r22583"
   width="257.81345"
   height="458.39539"
   version="1.0"
   sodipodi:docname="cactus.svg"
   inkscape:output_extension="org.inkscape.output.svg.inkscape"
   inkscape:export-filename="/usr/share/hedgewars/Data/Themes/Desert/cactus.png"
   inkscape:export-xdpi="90"
   inkscape:export-ydpi="90">
  <metadata
     id="metadata7">
    <rdf:RDF>
      <cc:Work
         rdf:about="">
        <dc:format>image/svg+xml</dc:format>
        <dc:type
           rdf:resource="http://purl.org/dc/dcmitype/StillImage" />
        <dc:title></dc:title>
      </cc:Work>
    </rdf:RDF>
  </metadata>
  <defs
     id="defs5">
    <inkscape:perspective
       sodipodi:type="inkscape:persp3d"
       inkscape:vp_x="0 : 526.18109 : 1"
       inkscape:vp_y="0 : 1000 : 0"
       inkscape:vp_z="744.09448 : 526.18109 : 1"
       inkscape:persp3d-origin="372.04724 : 350.78739 : 1"
       id="perspective9" />
    <inkscape:perspective
       id="perspective2847"
       inkscape:persp3d-origin="0.5 : 0.33333333 : 1"
       inkscape:vp_z="1 : 0.5 : 1"
       inkscape:vp_y="0 : 1000 : 0"
       inkscape:vp_x="0 : 0.5 : 1"
       sodipodi:type="inkscape:persp3d" />
    <inkscape:perspective
       id="perspective2885"
       inkscape:persp3d-origin="0.5 : 0.33333333 : 1"
       inkscape:vp_z="1 : 0.5 : 1"
       inkscape:vp_y="0 : 1000 : 0"
       inkscape:vp_x="0 : 0.5 : 1"
       sodipodi:type="inkscape:persp3d" />
    <inkscape:perspective
       id="perspective3679"
       inkscape:persp3d-origin="0.5 : 0.33333333 : 1"
       inkscape:vp_z="1 : 0.5 : 1"
       inkscape:vp_y="0 : 1000 : 0"
       inkscape:vp_x="0 : 0.5 : 1"
       sodipodi:type="inkscape:persp3d" />
    <inkscape:perspective
       id="perspective3679-7"
       inkscape:persp3d-origin="0.5 : 0.33333333 : 1"
       inkscape:vp_z="1 : 0.5 : 1"
       inkscape:vp_y="0 : 1000 : 0"
       inkscape:vp_x="0 : 0.5 : 1"
       sodipodi:type="inkscape:persp3d" />
    <inkscape:perspective
       id="perspective3679-5"
       inkscape:persp3d-origin="0.5 : 0.33333333 : 1"
       inkscape:vp_z="1 : 0.5 : 1"
       inkscape:vp_y="0 : 1000 : 0"
       inkscape:vp_x="0 : 0.5 : 1"
       sodipodi:type="inkscape:persp3d" />
    <inkscape:perspective
       id="perspective3774"
       inkscape:persp3d-origin="0.5 : 0.33333333 : 1"
       inkscape:vp_z="1 : 0.5 : 1"
       inkscape:vp_y="0 : 1000 : 0"
       inkscape:vp_x="0 : 0.5 : 1"
       sodipodi:type="inkscape:persp3d" />
    <inkscape:perspective
       id="perspective3774-9"
       inkscape:persp3d-origin="0.5 : 0.33333333 : 1"
       inkscape:vp_z="1 : 0.5 : 1"
       inkscape:vp_y="0 : 1000 : 0"
       inkscape:vp_x="0 : 0.5 : 1"
       sodipodi:type="inkscape:persp3d" />
    <inkscape:perspective
       id="perspective3774-3"
       inkscape:persp3d-origin="0.5 : 0.33333333 : 1"
       inkscape:vp_z="1 : 0.5 : 1"
       inkscape:vp_y="0 : 1000 : 0"
       inkscape:vp_x="0 : 0.5 : 1"
       sodipodi:type="inkscape:persp3d" />
    <inkscape:perspective
       id="perspective3823"
       inkscape:persp3d-origin="0.5 : 0.33333333 : 1"
       inkscape:vp_z="1 : 0.5 : 1"
       inkscape:vp_y="0 : 1000 : 0"
       inkscape:vp_x="0 : 0.5 : 1"
       sodipodi:type="inkscape:persp3d" />
    <inkscape:perspective
       id="perspective3846"
       inkscape:persp3d-origin="0.5 : 0.33333333 : 1"
       inkscape:vp_z="1 : 0.5 : 1"
       inkscape:vp_y="0 : 1000 : 0"
       inkscape:vp_x="0 : 0.5 : 1"
       sodipodi:type="inkscape:persp3d" />
    <inkscape:perspective
       id="perspective3871"
       inkscape:persp3d-origin="0.5 : 0.33333333 : 1"
       inkscape:vp_z="1 : 0.5 : 1"
       inkscape:vp_y="0 : 1000 : 0"
       inkscape:vp_x="0 : 0.5 : 1"
       sodipodi:type="inkscape:persp3d" />
    <inkscape:perspective
       id="perspective3907"
       inkscape:persp3d-origin="0.5 : 0.33333333 : 1"
       inkscape:vp_z="1 : 0.5 : 1"
       inkscape:vp_y="0 : 1000 : 0"
       inkscape:vp_x="0 : 0.5 : 1"
       sodipodi:type="inkscape:persp3d" />
    <inkscape:perspective
       id="perspective3930"
       inkscape:persp3d-origin="0.5 : 0.33333333 : 1"
       inkscape:vp_z="1 : 0.5 : 1"
       inkscape:vp_y="0 : 1000 : 0"
       inkscape:vp_x="0 : 0.5 : 1"
       sodipodi:type="inkscape:persp3d" />
    <inkscape:perspective
       id="perspective3953"
       inkscape:persp3d-origin="0.5 : 0.33333333 : 1"
       inkscape:vp_z="1 : 0.5 : 1"
       inkscape:vp_y="0 : 1000 : 0"
       inkscape:vp_x="0 : 0.5 : 1"
       sodipodi:type="inkscape:persp3d" />
    <inkscape:perspective
       id="perspective3953-7"
       inkscape:persp3d-origin="0.5 : 0.33333333 : 1"
       inkscape:vp_z="1 : 0.5 : 1"
       inkscape:vp_y="0 : 1000 : 0"
       inkscape:vp_x="0 : 0.5 : 1"
       sodipodi:type="inkscape:persp3d" />
    <inkscape:perspective
       id="perspective3986"
       inkscape:persp3d-origin="0.5 : 0.33333333 : 1"
       inkscape:vp_z="1 : 0.5 : 1"
       inkscape:vp_y="0 : 1000 : 0"
       inkscape:vp_x="0 : 0.5 : 1"
       sodipodi:type="inkscape:persp3d" />
    <inkscape:perspective
       id="perspective4007"
       inkscape:persp3d-origin="0.5 : 0.33333333 : 1"
       inkscape:vp_z="1 : 0.5 : 1"
       inkscape:vp_y="0 : 1000 : 0"
       inkscape:vp_x="0 : 0.5 : 1"
       sodipodi:type="inkscape:persp3d" />
    <inkscape:perspective
       id="perspective4028"
       inkscape:persp3d-origin="0.5 : 0.33333333 : 1"
       inkscape:vp_z="1 : 0.5 : 1"
       inkscape:vp_y="0 : 1000 : 0"
       inkscape:vp_x="0 : 0.5 : 1"
       sodipodi:type="inkscape:persp3d" />
    <inkscape:perspective
       id="perspective4051"
       inkscape:persp3d-origin="0.5 : 0.33333333 : 1"
       inkscape:vp_z="1 : 0.5 : 1"
       inkscape:vp_y="0 : 1000 : 0"
       inkscape:vp_x="0 : 0.5 : 1"
       sodipodi:type="inkscape:persp3d" />
    <inkscape:perspective
       id="perspective4074"
       inkscape:persp3d-origin="0.5 : 0.33333333 : 1"
       inkscape:vp_z="1 : 0.5 : 1"
       inkscape:vp_y="0 : 1000 : 0"
       inkscape:vp_x="0 : 0.5 : 1"
       sodipodi:type="inkscape:persp3d" />
    <inkscape:perspective
       id="perspective4097"
       inkscape:persp3d-origin="0.5 : 0.33333333 : 1"
       inkscape:vp_z="1 : 0.5 : 1"
       inkscape:vp_y="0 : 1000 : 0"
       inkscape:vp_x="0 : 0.5 : 1"
       sodipodi:type="inkscape:persp3d" />
  </defs>
  <sodipodi:namedview
     inkscape:window-height="952"
     inkscape:window-width="1280"
     inkscape:pageshadow="2"
     inkscape:pageopacity="0.0"
     guidetolerance="10.0"
     gridtolerance="10.0"
     objecttolerance="10.0"
     borderopacity="1.0"
     bordercolor="#666666"
     pagecolor="#ffffff"
     id="base"
     showgrid="false"
     inkscape:zoom="1"
     inkscape:cx="114.5882"
     inkscape:cy="243.73167"
     inkscape:window-x="-8"
     inkscape:window-y="-3"
     inkscape:current-layer="svg2"
     inkscape:window-maximized="1"
     inkscape:snap-page="true" />
  <path
     style="fill:#124606;fill-opacity:1;fill-rule:evenodd;stroke:none"
     d="m 75.411017,195.38167 c -26.77154,8.50076 -50.588949,1.00171 -50.443145,-25.24004 0.142849,-25.70988 -31.767481,-20.79544 -23.6433879,4.50235 8.7076829,27.11504 21.6744859,47.97832 36.3546729,54.00424 14.680188,6.02591 30.646851,1.26374 44.774184,0.0733"
     id="path3201"
     sodipodi:nodetypes="csszc"
     inkscape:export-filename="/usr/share/hedgewars/Data/Themes/Desert/path3920.png"
     inkscape:export-xdpi="90"
     inkscape:export-ydpi="90" />
  <path
     style="fill:#6fc403;fill-opacity:1;fill-rule:evenodd;stroke:none"
     d="m 11.652229,154.83881 c -3.6708367,0.32512 -6.0977491,3.25646 -7.3749998,6.375 -1.2772507,3.11854 -1.6898919,6.7653 -1.1875,10.21875 1.0180909,6.99837 6.0814639,15.1727 9.9687498,24.40625 4.233611,10.0562 13.533594,23.25296 22.858915,28.24372 4.648511,2.48781 9.615252,3.10099 14,3.34375 4.384748,0.24276 8.309324,0.19824 10.5625,0.78125 2.339905,0.60544 3.222296,1.51058 4.8125,2.75 1.590204,1.23942 4.144234,2.62316 7.625,2.34375 1.483042,-0.11959 2.707697,-1.61639 2.53125,-3.09375 -0.854804,-6.86433 1.137599,-19.11451 0.07859,-27.61872 -0.191368,-1.48912 -1.773113,-2.64501 -3.25,-2.375 -13.051013,2.40098 -29.703358,2.21546 -38.1875,-4.75 -8.848721,-7.26476 -12.145802,-19.71807 -12.03125,-26.03125 0.07141,-3.93577 -0.62153,-7.46387 -2.28125,-10.21875 -1.65972,-2.75488 -4.733824,-4.67535 -8.125,-4.375 z"
     id="path2839"
     sodipodi:nodetypes="csssssssscccsssc"
     inkscape:export-filename="/usr/share/hedgewars/Data/Themes/Desert/path3920.png"
     inkscape:export-xdpi="90"
     inkscape:export-ydpi="90" />
  <path
     style="color:#000000;fill:#98e704;fill-opacity:0.5098038;fill-rule:evenodd;stroke:none;stroke-width:1;marker:none;visibility:visible;display:inline;overflow:visible;enable-background:accumulate"
     d="m 6.2300538,161.47121 c -1.3895942,-0.0361 2.1341592,-7.32099 7.1764612,-5.90686 5.042302,1.41413 7.556036,7.21064 7.689787,11.61105 0.133751,4.40042 -0.335681,10.72001 5.838072,20.92842 6.173752,10.20842 18.767216,16.84732 42.161242,13.7002 23.394027,-3.14712 10.042759,4.57554 -0.618719,4.38649 -10.661478,-0.18905 -30.710775,-1.41956 -39.863145,-14.02082 -9.15237,-12.60126 -8.678604,-19.76818 -9.992324,-26.76206 -1.313721,-6.99388 -4.670737,-7.78109 -7.092515,-7.82107 -3.8470271,-0.0635 -3.909265,3.92074 -5.2988592,3.88465 z"
     id="path3943"
     sodipodi:nodetypes="czzzzzzzsz"
     inkscape:export-filename="/usr/share/hedgewars/Data/Themes/Desert/path3920.png"
     inkscape:export-xdpi="90"
     inkscape:export-ydpi="90" />
  <path
     style="color:#000000;fill:#4e9602;fill-opacity:0.39215686;fill-rule:evenodd;stroke:none;marker:none;visibility:visible;display:inline;overflow:visible;enable-background:accumulate"
     d="m 5.6473428,162.88627 c -0.826826,0.0127 -1.619232,0.48946 -1.9375,0.84375 -0.151292,0.16841 -0.251619,0.2989 -0.34375,0.4375 -0.523797,2.3535 -0.631919,4.83949 -0.28125,7.25 0.811653,5.57931 4.19185,11.92252 7.5000002,18.9375 1.038569,1.72561 2.017912,3.46712 2.84375,5.3125 0.0096,0.0214 0.02173,0.0411 0.03125,0.0625 3.137035,7.42879 8.923947,16.87098 15.53125,23.21875 0.03257,0.0304 0.06114,0.0635 0.09375,0.0937 1.086019,1.00816 2.167028,1.95004 3.28125,2.78125 0.01792,0.0134 0.04457,0.0179 0.0625,0.0313 1.155028,0.85812 2.334335,1.59491 3.5,2.21875 1.743192,0.93293 3.527279,1.60874 5.3125,2.09375 0.52525,0.13825 1.038516,0.26645 1.5625,0.375 2.343391,0.48545 4.658202,0.69574 6.84375,0.8125 4.371097,0.23351 8.312467,0.14355 10.65625,0.75 0.908546,0.23508 1.609402,0.51273 2.21875,0.84375 0.03199,0.0167 0.06231,0.0456 0.09375,0.0625 0.166996,0.0936 0.344655,0.18098 0.5,0.28125 0.0234,0.0147 0.0393,0.0476 0.0625,0.0625 0.343805,0.22625 0.673099,0.46201 1,0.71875 0.07827,0.0611 0.170356,0.12425 0.25,0.1875 0.27505,0.21927 0.538932,0.44992 0.84375,0.6875 0.0071,0.006 0.02413,-0.006 0.03125,0 0.190665,0.14809 0.378797,0.32075 0.59375,0.46875 0.0073,0.005 0.02393,-0.005 0.03125,0 0.215821,0.14793 0.446705,0.29592 0.6875,0.4375 0.02016,0.0118 0.04215,0.0195 0.0625,0.0313 0.231239,0.13409 0.464243,0.28373 0.71875,0.40625 0.03011,0.0146 0.06331,0.0168 0.09375,0.0313 0.249655,0.11733 0.509089,0.21149 0.78125,0.3125 0.04461,0.017 0.07979,0.0459 0.125,0.0625 0.264937,0.0942 0.526246,0.1759 0.8125,0.25 0.332853,0.0862 0.700159,0.16597 1.0625,0.21875 0.724682,0.10557 1.496822,0.13048 2.34375,0.0625 a 2.3719453,2.3719453 0 0 0 2.15625,-2.75 l -1.375,-8.6875 a 2.3719453,2.3719453 0 0 0 -0.8125,-1.4375 c -5.418079,-4.56464 -12.090007,-5.4648 -18.46875,-5.875 -6.318199,-0.40631 -12.491431,-0.42513 -17.5625,-2.3125 -3.423187,-1.88365 -7.625264,-6.31139 -11.28125,-11.4375 -3.699933,-5.18773 -6.940141,-11.04081 -8.84375,-15.5625 -1.627299,-3.86536 -3.716503,-6.72422 -5.25,-9.125 -1.5334972,-2.40078 -2.4467102,-4.22528 -2.4375002,-6.34375 0.0049,-1.1349 -0.08193,-2.20454 -0.21875,-3.125 -0.06841,-0.46023 -0.137121,-0.87599 -0.25,-1.28125 -0.112879,-0.40526 -0.173909,-0.74727 -0.65625,-1.375 -0.241171,-0.31386 -0.6745,-0.85194 -1.625,-1 -0.118813,-0.0185 -0.225632,-0.0331 -0.34375,-0.0313 z"
     id="path3800"
     inkscape:export-filename="/usr/share/hedgewars/Data/Themes/Desert/path3920.png"
     inkscape:export-xdpi="90"
     inkscape:export-ydpi="90" />
  <path
     style="color:#000000;fill:#4e9602;fill-opacity:0.78431373;fill-rule:evenodd;stroke:none;marker:none;visibility:visible;display:inline;overflow:visible;enable-background:accumulate"
     d="m 6.3814544,169.71375 c 0.017648,-4.05943 -1.21517,-7.53464 -1.4375,0 -0.2942543,9.97212 6.6861536,16.07476 10.6860676,25.06288 3.977409,9.44762 13.153802,22.84418 21.312984,27.21085 8.159179,4.36664 18.142177,2.32068 23.966233,3.82764 5.824058,1.50696 5.84955,5.50122 11.52641,5.04552 l -1.39187,-8.69917 C 61.450403,214.07921 46.90008,218.67259 35.551136,214.34896 27.391954,209.9823 18.215561,195.52508 14.238152,186.07745 11.229336,178.93054 6.3570314,175.33154 6.3814544,169.71375 z"
     id="path3558"
     sodipodi:nodetypes="cscsscccss"
     inkscape:export-filename="/usr/share/hedgewars/Data/Themes/Desert/path3920.png"
     inkscape:export-xdpi="90"
     inkscape:export-ydpi="90" />
  <path
     style="color:#000000;fill:#98e704;fill-opacity:0.5098038;fill-rule:evenodd;stroke:none;stroke-width:1;marker:none;visibility:visible;display:inline;overflow:visible;enable-background:accumulate"
     d="m 8.2410928,160.70789 c -1.0488164,-0.0381 2.5515992,-3.63869 5.1875002,-1.5625 2.635901,2.07619 4.249972,8.38206 5.063801,13.60983 0.813829,5.22778 1.988439,13.17243 10.248699,21.39017 8.26026,8.21774 19.943489,12.08823 33.5,13.375 13.556511,1.28677 11.602273,4.56493 -1.125,2.125 -12.727273,-2.43993 -26.849194,-7.38123 -33.125,-14.125 -6.275806,-6.74377 -9.709476,-15.59399 -10.659141,-22.06553 -0.829219,-5.65076 -3.67623,-11.74759 -5.122109,-12.99697 -1.445879,-1.24938 -2.9199342,0.28813 -3.9687502,0.25 z"
     id="path3966"
     sodipodi:nodetypes="czzzzzzszz"
     inkscape:export-filename="/usr/share/hedgewars/Data/Themes/Desert/path3920.png"
     inkscape:export-xdpi="90"
     inkscape:export-ydpi="90" />
  <path
     style="fill:#134606;fill-opacity:1;fill-rule:evenodd;stroke:none"
     d="m 25.092809,452.146 c 2.023454,8.54092 58.329025,9.56211 73.68333,-4.78184 5.008031,-4.67849 5.448191,-19.02622 4.949961,-49.39675 -0.44579,-27.17361 8.16872,-72.41382 15.4712,-113.95571 C 133.80226,200.92793 142.09549,139.32016 168.49716,88.625108 194.89883,37.930061 169.41396,-14.150929 120.48311,3.5173496 71.631622,21.156973 69.798596,73.046936 67.805321,113.72505 65.099852,159.57086 48.728146,296.23793 41.949665,330.87247 34.99397,366.41248 23.069355,443.60508 25.092809,452.146 z"
     id="path2388"
     sodipodi:nodetypes="cssszzczc"
     inkscape:export-filename="/usr/share/hedgewars/Data/Themes/Desert/path3920.png"
     inkscape:export-xdpi="90"
     inkscape:export-ydpi="90" />
  <path
     style="fill:#6fc403;fill-opacity:1;fill-rule:evenodd;stroke:none"
     d="M 137.68348,4.4950574 C 117.37732,3.8403655 100.06284,15.864457 89.589729,32.182558 79.48018,47.934202 74.77341,65.93938 72.933479,87.901308 69.232004,152.65645 61.388334,230.75948 50.990888,298.1668 40.345656,367.18054 29.200194,427.23282 29.277229,445.49506 c -0.324878,2.3492 1.173944,4.82432 3.40625,5.625 8.867547,3.15235 18.517507,2.62528 30.28125,1.84375 11.763743,-0.78153 21.32873,-0.71067 29.6875,-7.90625 0.60987,-0.52573 3.721835,-3.86915 4.223192,-6.16866 1.047946,-4.80647 2.632742,-29.05007 3.216149,-51.80009 0.58341,-22.75002 5.54541,-48.85803 9.99816,-75.75 4.51878,-27.29075 10.73073,-72.04317 19.78125,-114.84375 8.98446,-42.48818 18.90951,-76.67733 30.85968,-101.161771 10.40621,-21.321043 16.94541,-35.102643 13.09375,-58.4375 -1.33864,-8.11 -6.72988,-18.70172 -12.42218,-23.963231 -5.6923,-5.2615115 -13.77217,-8.1168123 -23.71875,-8.4375006 z"
     id="path2833"
     sodipodi:nodetypes="cscsccsssssssssc"
     inkscape:export-filename="/usr/share/hedgewars/Data/Themes/Desert/path3920.png"
     inkscape:export-xdpi="90"
     inkscape:export-ydpi="90" />
  <path
     style="color:#000000;fill:#4e9602;fill-opacity:0.39215686;fill-rule:evenodd;stroke:none;marker:none;visibility:visible;display:inline;overflow:visible;enable-background:accumulate"
     d="m 158.24109,13.730022 c -0.56198,-0.02526 -1.16168,0.04801 -1.78125,0.28125 -1.6533,0.622396 -2.4972,2.06663 -2.8125,3 -0.3153,0.93337 -0.36306,1.684955 -0.375,2.46875 -0.0239,1.567589 0.18938,3.3234 0.625,5.71875 2.43448,13.386481 -1.57006,35.897741 -12.3125,56.625 -11.60558,22.392658 -22.46743,65.284098 -31.84375,109.156248 -0.13396,0.0812 -0.27238,0.0918 -0.40625,0.1875 -1.21319,0.86706 -2.14625,2.48916 -2.34375,3.9375 -0.67561,4.95448 -2.76612,11.61152 -3.03125,21.15625 -0.0261,0.93682 -0.0306,1.81258 -0.0313,2.65625 -5.712097,28.87052 -10.493167,56.1451 -13.812497,75.59375 -4.73513,27.74413 -5.34574,55.71777 -6.03125,79.78125 -0.68551,24.06348 -1.65483,44.37528 -6.15625,55.78125 -1.78741,4.52904 -3.08662,8.60969 -3.71875,12.1875 -0.63213,3.57781 -0.90247,5.48459 0.9375,8.53125 0.15578,0.25795 0.33332,0.50804 0.53125,0.75 6.72427,-1.12927 11.96769,-2.69488 16.96875,-7 0.60987,-0.52573 3.71739,-3.85674 4.21875,-6.15625 1.04795,-4.80647 2.38534,-28.56248 2.96875,-51.3125 0.263697,-10.28288 1.461067,-21.27025 3.062497,-32.6875 0.008,-0.0738 0.0228,-0.14496 0.0313,-0.21875 1.88294,-16.38232 5.49663,-32.08823 7.71875,-44.71875 2.07565,-11.79799 3.07649,-26.76163 6.23223,-43.15625 3.74983,-21.67666 8.18369,-46.00133 13.21875,-69.8125 8.5193,-40.28838 17.84985,-73.08391 28.79902,-97.249998 0.9905,-2.712611 1.9831,-5.267476 2.9375,-7.53125 6.9615,-16.512198 10.5098,-27.174659 11.78125,-35.90625 1.27145,-8.731591 0.0685,-15.419717 -1.96875,-22.8125 -0.37993,-1.37868 -0.96489,-2.716744 -1.8125,-4.53125 -0.84761,-1.814506 -1.91847,-3.912695 -3.03125,-5.90625 -1.11278,-1.993555 -2.25751,-3.86662 -3.4375,-5.40625 -0.58999,-0.769815 -1.13453,-1.452843 -1.96875,-2.125 -0.41711,-0.336079 -0.91041,-0.682854 -1.6875,-0.96875 -0.38855,-0.142948 -0.90677,-0.287238 -1.46875,-0.3125 z"
     id="path3787"
     inkscape:export-filename="/usr/share/hedgewars/Data/Themes/Desert/path3920.png"
     inkscape:export-xdpi="90"
     inkscape:export-ydpi="90"
     sodipodi:nodetypes="cssssscssscssssscssscsscscssssssssc" />
  <path
     style="color:#000000;fill:#4e9602;fill-opacity:0.78431373;fill-rule:evenodd;stroke:none;stroke-width:1px;marker:none;visibility:visible;display:inline;overflow:visible;enable-background:accumulate"
     d="m 157.86609,17.792522 c -0.69109,0.260165 -0.82204,2.167334 0,6.6875 2.70008,14.846955 -1.59911,37.792739 -12.6875,59.1875 -11.28097,21.766338 -22.54306,65.791068 -32,110.312498 -1.22926,0.10257 -2.0422,0.59071 -2.1875,1.65625 -0.75,5.5 -2.75,11.75 -3,20.75 -0.0289,1.03847 -0.0322,2.04013 -0.0313,3 -5.7302,28.93903 -10.546362,56.30932 -13.874997,75.8125 -9.337512,54.71047 -2.420103,111.04025 -12.40625,136.34375 -6.893554,17.4673 -5.511947,26.24378 12.5625,12.3125 5.395069,-13.0985 1.562008,-34.76664 3.15625,-59.875 1.682735,-26.5021 5.688337,-54.79665 9.281247,-75.21875 3.73292,-21.21788 9.515,-52.10659 16.25,-84.5 1.90694,-6.1391 1.71362,-6.88034 3.79473,-11.875 2.5,-6 2,-12.5 2,-12.5 0,0 -1.11875,-0.54267 -2.125,-1.03125 9.59654,-43.77546 22.15848,-86.51916 31.51777,-108.718748 13.81619,-32.771036 13.62634,-41.687131 9.65625,-56.09375 -0.81668,-2.963533 -7.83299,-17.030494 -9.90625,-16.25 l 5e-5,0 z"
     id="path2862"
     inkscape:export-filename="/usr/share/hedgewars/Data/Themes/Desert/path3920.png"
     inkscape:export-xdpi="90"
     inkscape:export-ydpi="90"
     sodipodi:nodetypes="csscsscsscsscsccsscc" />
  <path
     style="color:#000000;fill:#98e704;fill-opacity:0.19607843;fill-rule:evenodd;stroke:none;stroke-width:1;marker:none;visibility:visible;display:inline;overflow:visible;enable-background:accumulate"
     d="m 127.52031,153.63236 c 2.81231,-18.23301 14.02833,-52.55041 26.34924,-75.697219 -14.33773,38.291089 -21.18753,62.732569 -22.8137,75.697219 l -3.53554,0 z"
     id="path4041"
     sodipodi:nodetypes="cccc" />
  <path
     style="fill:#134606;fill-opacity:1;fill-rule:evenodd;stroke:none"
     d="m 124.97588,153.024 c 1.4022,-4.62675 13.2534,-10.53968 29.90349,-12.65137 17.57557,-2.22906 35.43703,-10.26079 47.88229,-19.71344 10.84711,-8.23879 17.82993,-20.26944 17.15124,-33.95421 -0.70378,-14.190695 6.91036,-29.804492 18.50499,-35.305941 11.2634,-5.344281 20.10015,5.16446 19.35123,15.223716 -1.14973,15.442779 -9.77026,31.74161 -12.6507,44.333855 -3.04494,13.31139 -5.45355,20.95402 -12.89951,34.99078 -6.36382,11.99676 -15.79342,19.03548 -25.24578,23.5664 -12.58417,6.03214 -24.30043,11.05048 -36.15017,19.8588 -11.06942,8.22827 -24.18655,14.5834 -36.71892,18.48255 -6.34445,1.97392 -11.0613,0.16297 -17.01917,-2.98933"
     id="path3428"
     sodipodi:nodetypes="csssssssssss"
     inkscape:export-filename="/usr/share/hedgewars/Data/Themes/Desert/path3920.png"
     inkscape:export-xdpi="90"
     inkscape:export-ydpi="90" />
  <path
     style="fill:#6fc403;fill-opacity:1;fill-rule:evenodd;stroke:none"
     d="m 245.62098,53.463808 c -7.72714,-0.593703 -14.0138,6.120169 -17.6875,12.09375 -3.04029,5.941309 -4.97317,14.474022 -4.98836,23.727633 -0.0336,20.455939 -17.51643,35.779859 -33.57414,44.147369 -10.71775,5.58492 -22.16277,7.75955 -33.125,9.71875 -10.96223,1.9592 -21.4586,3.67843 -30.09375,8.8125 -3.13995,1.86687 -5.75535,5.39662 -8.09375,9.71875 -2.3384,4.32213 -4.33794,9.48429 -5.78125,14.625 -1.44331,5.14071 -2.30603,10.24877 -2.34375,14.59375 -0.0377,4.34498 0.59132,8.17249 3.40625,10.25 5.79687,4.27829 12.76127,4.78775 19.96875,3.09375 7.20748,-1.694 14.80861,-5.51981 22.625,-10.125 15.63278,-9.21038 32.16718,-21.61105 46.4375,-27.0625 12.28208,-4.69191 21.80089,-13.98716 28.02941,-25.40717 6.22852,-11.42001 9.25814,-25.06209 12.81434,-36.71783 2.32062,-13.152394 13.59287,-28.256582 10.15625,-42.062502 -0.31221,-1.135083 -0.76873,-2.411182 -1.40625,-3.65625 -1.27504,-2.490135 -3.19732,-5.144571 -6.34375,-5.75 z"
     id="path2836"
     sodipodi:nodetypes="ccssssssssssssccsc"
     inkscape:export-filename="/usr/share/hedgewars/Data/Themes/Desert/path3920.png"
     inkscape:export-xdpi="90"
     inkscape:export-ydpi="90" />
  <path
     style="color:#000000;fill:#4e9602;fill-opacity:0.39215686;fill-rule:evenodd;stroke:none;marker:none;visibility:visible;display:inline;overflow:visible;enable-background:accumulate"
     d="m 249.55359,57.167522 c -1.09843,0.05714 -2.06592,0.647615 -2.59375,1.15625 -0.52783,0.508635 -0.77937,0.949751 -0.96875,1.34375 -0.37875,0.787998 -0.50269,1.404924 -0.625,2.09375 -0.24462,1.377653 -0.32587,2.969639 -0.3125,4.84375 0.0411,5.759036 -0.7844,8.226471 -2.09375,11.03125 -1.30935,2.804779 -3.38591,6.081278 -5.125,11.78125 -3.58128,11.737938 -7.43236,25.935468 -13.15625,38.093748 -5.72389,12.15828 -13.1949,21.99625 -23.59375,25.96875 -15.46845,5.90915 -28.78378,16.69589 -42.21875,24.96875 -13.43497,8.27286 -26.58631,14.00644 -42.15625,11.15625 a 3.6515225,3.6515225 0 0 0 -0.5625,-0.0625 c -1.87269,-0.0553 -3.7349,0.43705 -5.15625,1.625 -0.39801,0.33265 -0.74104,0.71771 -1.03125,1.125 0.11088,3.76223 0.86459,6.99098 3.375,8.84375 5.79687,4.27829 12.76127,4.78775 19.96875,3.09375 7.20748,-1.694 14.80861,-5.51981 22.625,-10.125 15.63278,-9.21038 32.16718,-21.61105 46.4375,-27.0625 12.28208,-4.69191 21.80273,-13.98624 28.03125,-25.40625 6.22852,-11.42001 9.2563,-25.06301 12.8125,-36.71875 2.32062,-13.152394 13.59287,-28.256578 10.15625,-42.062498 -0.31221,-1.135083 -0.76873,-2.411182 -1.40625,-3.65625 -0.31876,-0.622534 -0.68507,-1.235262 -1.09375,-1.84375 -0.40343,-0.123001 -0.82701,-0.212755 -1.3125,-0.1875 z"
     id="path3758"
     inkscape:export-filename="/usr/share/hedgewars/Data/Themes/Desert/path3920.png"
     inkscape:export-xdpi="90"
     inkscape:export-ydpi="90" />
  <path
     style="fill:#4e9602;fill-opacity:0.78431373;fill-rule:evenodd;stroke:none"
     d="m 251.20673,63.401236 c -1.5207,-4.856535 -2.53954,-2.353378 -2.5,3.1875 0.0881,12.352135 -4.13958,13.275357 -7.37655,23.884751 -7.10638,23.291723 -15.50852,57.471363 -38.92882,66.418223 -29.43302,11.24379 -52.7462,42.46611 -86.33375,36.31767 -4.91472,-0.14515 -4.44915,5.05882 -0.96789,6.7634 21.06074,15.54355 57.42269,-22.98607 86.85571,-34.22986 23.4203,-8.94686 32.52725,-37.86081 39.63363,-61.15253 1.99003,-13.303748 14.36125,-26.039996 9.61767,-41.189154 z"
     id="path3563"
     sodipodi:nodetypes="csssccscs"
     inkscape:export-filename="/usr/share/hedgewars/Data/Themes/Desert/path3920.png"
     inkscape:export-xdpi="90"
     inkscape:export-ydpi="90" />
  <path
     style="color:#000000;fill:#4e9602;fill-opacity:0.31372549;fill-rule:evenodd;stroke:none;stroke-width:1px;marker:none;visibility:visible;display:inline;overflow:visible;enable-background:accumulate"
     d="m 129.67002,159.98638 c -3.89422,-2.26882 0.40247,-9.50233 4.36742,-11.64515 3.68549,-1.99179 17.12501,-3.56086 27.34705,-5.54419 8.54426,-1.6578 13.15511,-3.40736 14.07874,-2.31266 2.77894,3.29364 -11.04799,6.55601 -15.32874,7.56266 -11.36585,4.24732 -24.42601,15.45742 -30.46447,11.93934 z"
     id="path2837"
     sodipodi:nodetypes="cssscs"
     inkscape:export-filename="/usr/share/hedgewars/Data/Themes/Desert/path3920.png"
     inkscape:export-xdpi="90"
     inkscape:export-ydpi="90" />
  <path
     style="color:#000000;fill:#98e704;fill-opacity:0.5098038;fill-rule:evenodd;stroke:none;stroke-width:1;marker:none;visibility:visible;display:inline;overflow:visible;enable-background:accumulate"
     d="M 138.12691,6.9077163 C 128.14759,4.9088739 112.55973,10.273131 97.861043,27.960386 83.162355,45.647641 78.840341,79.313641 76.358625,109.24886 70.394967,181.18433 57.697741,253.53471 48.324354,325.10577 c -5.068777,38.70295 -17.909567,103.5796 -17.324116,120.91525 0.121695,3.60349 3.238852,5.13743 3.889087,1.59099 C 39.783663,420.91789 48.825643,336.01446 58.930956,275.25474 66.146628,231.86942 78.231575,157.91607 83.278043,112.96511 87.343178,76.755292 83.232355,60.240788 100.97284,32.598842 118.71333,4.9568962 149.98431,9.2827352 138.12691,6.9077163 z"
     id="path3813"
     sodipodi:nodetypes="czsssssszs"
     inkscape:export-filename="/usr/share/hedgewars/Data/Themes/Desert/path3920.png"
     inkscape:export-xdpi="90"
     inkscape:export-ydpi="90" />
  <path
     style="color:#000000;fill:#98e704;fill-opacity:0.5098038;fill-rule:evenodd;stroke:none;stroke-width:1;marker:none;visibility:visible;display:inline;overflow:visible;enable-background:accumulate"
     d="m 135.99109,15.395396 c 3.94244,-1.666691 -18.17372,-2.243369 -32,18.25 -13.826277,20.493369 -11.009649,52.461479 -16.499997,79.999994 -11.51342,57.74907 -14.209706,116.9159 -22.25,175.25 -7.270261,52.74734 -24.615805,130.77164 -23.5,158 0.07254,1.7702 4.053601,5.27088 4,3.5 -0.726628,-24.00665 13.909371,-104.34557 21,-156.5 7.569934,-55.6799 11.439428,-112.00992 23,-167 6.381959,-30.357012 5.96845,-69.1084 16.624997,-88.999993 10.65655,-19.891593 23.53049,-19.923512 29.625,-22.500001 z"
     id="path3836"
     sodipodi:nodetypes="czsssssszs"
     inkscape:export-filename="/usr/share/hedgewars/Data/Themes/Desert/path3920.png"
     inkscape:export-xdpi="90"
     inkscape:export-ydpi="90" />
  <path
     style="color:#000000;fill:#98e704;fill-opacity:0.5098038;fill-rule:evenodd;stroke:none;stroke-width:1;marker:none;visibility:visible;display:inline;overflow:visible;enable-background:accumulate"
     d="m 132.49109,20.395396 c 0.39746,-2.47767 -11.00388,1.077336 -17.25,20.25 -6.24612,19.172664 -22.316688,88.941584 -25.749997,109.999994 -3.433309,21.05841 3.302698,-6.07734 5.335786,-15.53033 2.033089,-9.45299 19.670561,-73.007582 24.164211,-92.969664 4.49365,-19.962082 13.13388,-19.467727 13.5,-21.75 z"
     id="path3861"
     sodipodi:nodetypes="czzzzz"
     inkscape:export-filename="/usr/share/hedgewars/Data/Themes/Desert/path3920.png"
     inkscape:export-xdpi="90"
     inkscape:export-ydpi="90" />
  <path
     style="color:#000000;fill:#98e704;fill-opacity:0.5098038;fill-rule:evenodd;stroke:none;stroke-width:1;marker:none;visibility:visible;display:inline;overflow:visible;enable-background:accumulate"
     d="m 245.44661,55.112298 c 1.61603,-1.475736 -12.81798,0.862649 -18.22425,16.495689 -5.40626,15.633039 1.05313,23.530033 -11.94238,42.153433 -19.78824,28.35782 -63.21966,34.21121 -57.88441,35.84277 5.33526,1.63157 47.0461,-11.22208 61.24317,-36.72665 10.45666,-18.785056 5.56712,-20.779107 11.41206,-40.032116 4.84271,-15.95172 13.77978,-16.25739 15.39581,-17.733126 z"
     id="path3884"
     sodipodi:nodetypes="czszssz"
     inkscape:export-filename="/usr/share/hedgewars/Data/Themes/Desert/path3920.png"
     inkscape:export-xdpi="90"
     inkscape:export-ydpi="90" />
  <path
     style="color:#000000;fill:#98e704;fill-opacity:0.5098038;fill-rule:evenodd;stroke:none;stroke-width:1;marker:none;visibility:visible;display:inline;overflow:visible;enable-background:accumulate"
     d="m 128.49109,159.39539 c -5.17643,0.14729 27.81775,-2.99888 42,-9.5 14.18225,-6.50112 27.13519,-8.81028 37.51256,-18.93934 10.37737,-10.12906 17.82613,-25.05761 19.36244,-35.185653 1.53631,-10.128047 2.56609,-13.189243 4.75,-23.375 2.18391,-10.185757 9.05938,-12.190764 11.0769,-12.81066 2.01752,-0.619896 -6.40636,5.061825 -9.0769,13.18566 -2.70765,8.236728 -3.40265,12.118261 -5,23 -1.59735,10.881743 -6.97502,25.822313 -19.26409,37.142763 -12.28906,11.32044 -25.82814,15.52177 -46.47973,22.94381 -20.65158,7.42204 -29.70475,3.39113 -34.88118,3.53842 z"
     id="path3920"
     sodipodi:nodetypes="czzzzzzzzsz"
     inkscape:export-xdpi="90"
     inkscape:export-ydpi="90" />
  <path
     style="color:#000000;fill:#4e9602;fill-opacity:0.39215686;fill-rule:evenodd;stroke:none;stroke-width:1;marker:none;visibility:visible;display:inline;overflow:visible;enable-background:accumulate"
     d="m 96.241093,194.89539 c -6.49904,24.20187 -15.100068,91.01335 -21.125,133.875 -6.024932,42.86165 -15.375,123.125 -15.375,123.125 l 7.5,-1.5 c 0,0 6.909226,-80.64329 12.5,-125.5 5.590774,-44.85671 21.499997,-143.5 21.499997,-143.5 l 28.75,-84.250005 9,-29.5 -42.749997,127.250005 z"
     id="path3976"
     sodipodi:nodetypes="czcczc" />
  <path
     style="color:#000000;fill:#4e9602;fill-opacity:0.39215686;fill-rule:evenodd;stroke:none;stroke-width:1;marker:none;visibility:visible;display:inline;overflow:visible;enable-background:accumulate"
     d="m 61.741093,311.39539 c -8.93871,46.17255 -17.016114,92.6035 -19.375,140.75 l -3.625,-0.5 c 3.376322,-47.33505 12.339961,-93.90819 23,-140.25 z"
     id="path4064"
     sodipodi:nodetypes="cccc" />
  <path
     style="color:#000000;fill:#98e704;fill-opacity:0.19607843;fill-rule:evenodd;stroke:none;stroke-width:1;marker:none;visibility:visible;display:inline;overflow:visible;enable-background:accumulate"
     d="m 111.71396,223.21068 c 1.10252,0.31266 1.6282,0.9546 3.99264,0.47856 0,0 -8.00797,28.44616 -10.33883,40.25178 -5.30409,26.86473 -8.453554,54.12318 -11.667261,81.31728 -1.194601,10.10861 -2.828428,30.40559 -2.828428,30.40559 0,0 -0.121139,-21.71372 0.707107,-32.52691 2.133454,-27.85336 5.919479,-55.60865 10.960152,-83.08505 1.9446,-10.59988 9.17462,-36.84125 9.17462,-36.84125 z"
     id="path4087"
     sodipodi:nodetypes="ccsscssc" />
</svg>
