<?xml version="1.0" encoding="UTF-8" standalone="no"?>
<!-- Created with Inkscape (http://www.inkscape.org/) -->

<svg
   xmlns:dc="http://purl.org/dc/elements/1.1/"
   xmlns:cc="http://creativecommons.org/ns#"
   xmlns:rdf="http://www.w3.org/1999/02/22-rdf-syntax-ns#"
   xmlns:svg="http://www.w3.org/2000/svg"
   xmlns="http://www.w3.org/2000/svg"
   xmlns:xlink="http://www.w3.org/1999/xlink"
   xmlns:sodipodi="http://sodipodi.sourceforge.net/DTD/sodipodi-0.dtd"
   xmlns:inkscape="http://www.inkscape.org/namespaces/inkscape"
   id="svg2"
   version="1.1"
   inkscape:version="0.47 r22583"
   width="256"
   height="25"
   sodipodi:docname="Girder.png"
   inkscape:export-filename="/mnt/y/src/hedge/trunk/share/hedgewars/Data/Themes/Desert/Girder.png"
   inkscape:export-xdpi="90"
   inkscape:export-ydpi="90">
  <metadata
     id="metadata8">
    <rdf:RDF>
      <cc:Work
         rdf:about="">
        <dc:format>image/svg+xml</dc:format>
        <dc:type
           rdf:resource="http://purl.org/dc/dcmitype/StillImage" />
        <dc:title></dc:title>
      </cc:Work>
    </rdf:RDF>
  </metadata>
  <defs
     id="defs6">
    <inkscape:path-effect
       is_visible="true"
       id="path-effect3995"
       effect="spiro" />
    <inkscape:path-effect
       effect="spiro"
       id="path-effect3993"
       is_visible="true" />
    <inkscape:path-effect
       effect="spiro"
       id="path-effect3989"
       is_visible="true" />
    <inkscape:path-effect
       effect="spiro"
       id="path-effect3985"
       is_visible="true" />
    <inkscape:path-effect
       effect="spiro"
       id="path-effect3981"
       is_visible="true" />
    <inkscape:path-effect
       effect="spiro"
       id="path-effect3977"
       is_visible="true" />
    <inkscape:path-effect
       is_visible="true"
       id="path-effect3971"
       effect="spiro" />
    <inkscape:path-effect
       effect="spiro"
       id="path-effect3969"
       is_visible="true" />
    <inkscape:path-effect
       effect="spiro"
       id="path-effect3965"
       is_visible="true" />
    <inkscape:path-effect
       effect="spiro"
       id="path-effect3961"
       is_visible="true" />
    <inkscape:path-effect
       effect="spiro"
       id="path-effect3957"
       is_visible="true" />
    <inkscape:path-effect
       effect="spiro"
       id="path-effect3953"
       is_visible="true" />
    <inkscape:path-effect
       effect="spiro"
       id="path-effect3949"
       is_visible="true" />
    <inkscape:path-effect
       effect="spiro"
       id="path-effect3945"
       is_visible="true" />
    <inkscape:path-effect
       effect="spiro"
       id="path-effect3941"
       is_visible="true" />
    <inkscape:path-effect
       effect="spiro"
       id="path-effect3937"
       is_visible="true" />
    <inkscape:path-effect
       effect="spiro"
       id="path-effect3933"
       is_visible="true" />
    <inkscape:path-effect
       effect="spiro"
       id="path-effect3929"
       is_visible="true" />
    <inkscape:path-effect
       is_visible="true"
       id="path-effect3921"
       effect="spiro" />
    <inkscape:path-effect
       effect="spiro"
       id="path-effect3919"
       is_visible="true" />
    <inkscape:path-effect
       effect="spiro"
       id="path-effect3915"
       is_visible="true" />
    <inkscape:path-effect
       effect="spiro"
       id="path-effect3911"
       is_visible="true" />
    <inkscape:path-effect
       effect="spiro"
       id="path-effect3907"
       is_visible="true" />
    <inkscape:path-effect
       effect="spiro"
       id="path-effect3897"
       is_visible="true" />
    <inkscape:path-effect
       effect="spiro"
       id="path-effect3893"
       is_visible="true" />
    <inkscape:path-effect
       effect="spiro"
       id="path-effect3888"
       is_visible="true" />
    <inkscape:path-effect
       effect="spiro"
       id="path-effect3883"
       is_visible="true" />
    <inkscape:path-effect
       effect="spiro"
       id="path-effect3876"
       is_visible="true" />
    <inkscape:path-effect
       is_visible="true"
       id="path-effect3870"
       effect="spiro" />
    <inkscape:path-effect
       effect="spiro"
       id="path-effect3868"
       is_visible="true" />
    <inkscape:path-effect
       effect="spiro"
       id="path-effect3864"
       is_visible="true" />
    <inkscape:path-effect
       effect="spiro"
       id="path-effect3860"
       is_visible="true" />
    <inkscape:path-effect
       effect="spiro"
       id="path-effect3856"
       is_visible="true" />
    <inkscape:path-effect
       effect="spiro"
       id="path-effect3852"
       is_visible="true" />
    <inkscape:path-effect
       effect="spiro"
       id="path-effect3848"
       is_visible="true" />
    <inkscape:path-effect
       effect="spiro"
       id="path-effect3844"
       is_visible="true" />
    <inkscape:path-effect
       effect="spiro"
       id="path-effect3840"
       is_visible="true" />
    <inkscape:path-effect
       is_visible="true"
       id="path-effect3836"
       effect="spiro" />
    <inkscape:path-effect
       effect="spiro"
       id="path-effect3833"
       is_visible="true" />
    <inkscape:path-effect
       effect="spiro"
       id="path-effect3831"
       is_visible="true" />
    <inkscape:path-effect
       is_visible="true"
       id="path-effect3829"
       effect="spiro" />
    <inkscape:path-effect
       effect="spiro"
       id="path-effect3827"
       is_visible="true" />
    <inkscape:path-effect
       effect="spiro"
       id="path-effect3820"
       is_visible="true" />
    <inkscape:path-effect
       is_visible="true"
       id="path-effect3818"
       effect="spiro" />
    <inkscape:path-effect
       effect="spiro"
       id="path-effect3816"
       is_visible="true" />
    <inkscape:path-effect
       is_visible="true"
       id="path-effect3814"
       effect="spiro" />
    <inkscape:path-effect
       effect="spiro"
       id="path-effect3812"
       is_visible="true" />
    <inkscape:path-effect
       is_visible="true"
       id="path-effect3810"
       effect="spiro" />
    <inkscape:path-effect
       effect="spiro"
       id="path-effect3808"
       is_visible="true" />
    <inkscape:path-effect
       is_visible="true"
       id="path-effect3806"
       effect="spiro" />
    <inkscape:path-effect
       effect="spiro"
       id="path-effect3804"
       is_visible="true" />
    <inkscape:path-effect
       is_visible="true"
       id="path-effect3792"
       effect="spiro" />
    <inkscape:path-effect
       effect="spiro"
       id="path-effect3708"
       is_visible="true" />
    <inkscape:path-effect
       is_visible="true"
       id="path-effect3706"
       effect="spiro" />
    <inkscape:path-effect
       effect="spiro"
       id="path-effect3704"
       is_visible="true" />
    <inkscape:path-effect
       is_visible="true"
       id="path-effect3702"
       effect="spiro" />
    <inkscape:path-effect
       effect="spiro"
       id="path-effect3700"
       is_visible="true" />
    <inkscape:path-effect
       is_visible="true"
       id="path-effect3698"
       effect="spiro" />
    <inkscape:path-effect
       effect="spiro"
       id="path-effect3696"
       is_visible="true" />
    <inkscape:path-effect
       is_visible="true"
       id="path-effect3694"
       effect="spiro" />
    <inkscape:path-effect
       effect="spiro"
       id="path-effect3692"
       is_visible="true" />
    <inkscape:path-effect
       is_visible="true"
       id="path-effect3690"
       effect="spiro" />
    <inkscape:path-effect
       effect="spiro"
       id="path-effect3688"
       is_visible="true" />
    <inkscape:path-effect
       is_visible="true"
       id="path-effect3686"
       effect="spiro" />
    <inkscape:path-effect
       effect="spiro"
       id="path-effect3684"
       is_visible="true" />
    <inkscape:path-effect
       is_visible="true"
       id="path-effect3682"
       effect="spiro" />
    <inkscape:path-effect
       effect="spiro"
       id="path-effect3680"
       is_visible="true" />
    <inkscape:path-effect
       is_visible="true"
       id="path-effect3678"
       effect="spiro" />
    <inkscape:path-effect
       effect="spiro"
       id="path-effect3676"
       is_visible="true" />
    <inkscape:path-effect
       is_visible="true"
       id="path-effect3674"
       effect="spiro" />
    <inkscape:path-effect
       effect="spiro"
       id="path-effect3672"
       is_visible="true" />
    <inkscape:path-effect
       is_visible="true"
       id="path-effect3670"
       effect="spiro" />
    <inkscape:path-effect
       effect="spiro"
       id="path-effect3668"
       is_visible="true" />
    <inkscape:path-effect
       is_visible="true"
       id="path-effect3666"
       effect="spiro" />
    <inkscape:path-effect
       effect="spiro"
       id="path-effect3664"
       is_visible="true" />
    <inkscape:path-effect
       is_visible="true"
       id="path-effect3662"
       effect="spiro" />
    <inkscape:path-effect
       effect="spiro"
       id="path-effect3660"
       is_visible="true" />
    <inkscape:path-effect
       is_visible="true"
       id="path-effect3658"
       effect="spiro" />
    <inkscape:path-effect
       effect="spiro"
       id="path-effect3656"
       is_visible="true" />
    <inkscape:path-effect
       is_visible="true"
       id="path-effect3654"
       effect="spiro" />
    <inkscape:path-effect
       effect="spiro"
       id="path-effect3652"
       is_visible="true" />
    <inkscape:path-effect
       is_visible="true"
       id="path-effect3650"
       effect="spiro" />
    <inkscape:path-effect
       effect="spiro"
       id="path-effect3648"
       is_visible="true" />
    <inkscape:path-effect
       is_visible="true"
       id="path-effect3646"
       effect="spiro" />
    <inkscape:path-effect
       effect="spiro"
       id="path-effect3644"
       is_visible="true" />
    <inkscape:path-effect
       is_visible="true"
       id="path-effect3642"
       effect="spiro" />
    <inkscape:path-effect
       effect="spiro"
       id="path-effect3640"
       is_visible="true" />
    <inkscape:path-effect
       is_visible="true"
       id="path-effect3638"
       effect="spiro" />
    <inkscape:path-effect
       effect="spiro"
       id="path-effect3636"
       is_visible="true" />
    <inkscape:path-effect
       is_visible="true"
       id="path-effect3634"
       effect="spiro" />
    <inkscape:path-effect
       effect="spiro"
       id="path-effect3632"
       is_visible="true" />
    <inkscape:path-effect
       is_visible="true"
       id="path-effect3630"
       effect="spiro" />
    <inkscape:path-effect
       effect="spiro"
       id="path-effect3628"
       is_visible="true" />
    <inkscape:path-effect
       is_visible="true"
       id="path-effect3626"
       effect="spiro" />
    <inkscape:path-effect
       effect="spiro"
       id="path-effect3624"
       is_visible="true" />
    <inkscape:path-effect
       is_visible="true"
       id="path-effect3622"
       effect="spiro" />
    <inkscape:path-effect
       effect="spiro"
       id="path-effect3620"
       is_visible="true" />
    <inkscape:path-effect
       is_visible="true"
       id="path-effect3616"
       effect="spiro" />
    <inkscape:path-effect
       effect="spiro"
       id="path-effect3614"
       is_visible="true" />
    <inkscape:path-effect
       is_visible="true"
       id="path-effect3612"
       effect="spiro" />
    <inkscape:path-effect
       effect="spiro"
       id="path-effect2836"
       is_visible="true" />
    <inkscape:path-effect
       effect="spiro"
       id="path-effect2832"
       is_visible="true" />
    <inkscape:path-effect
       effect="spiro"
       id="path-effect2828"
       is_visible="true" />
    <inkscape:path-effect
       effect="spiro"
       id="path-effect2824"
       is_visible="true" />
    <inkscape:path-effect
       effect="spiro"
       id="path-effect2820"
       is_visible="true" />
    <inkscape:perspective
       sodipodi:type="inkscape:persp3d"
       inkscape:vp_x="0 : 0.5 : 1"
       inkscape:vp_y="0 : 1000 : 0"
       inkscape:vp_z="1 : 0.5 : 1"
       inkscape:persp3d-origin="0.5 : 0.33333333 : 1"
       id="perspective10" />
    <inkscape:perspective
       id="perspective3778"
       inkscape:persp3d-origin="0.5 : 0.33333333 : 1"
       inkscape:vp_z="1 : 0.5 : 1"
       inkscape:vp_y="0 : 1000 : 0"
       inkscape:vp_x="0 : 0.5 : 1"
       sodipodi:type="inkscape:persp3d" />
  </defs>
  <sodipodi:namedview
     pagecolor="#ffffff"
     bordercolor="#666666"
     borderopacity="1"
     objecttolerance="10"
     gridtolerance="10"
     guidetolerance="10"
     inkscape:pageopacity="0"
     inkscape:pageshadow="2"
     inkscape:window-width="1280"
     inkscape:window-height="953"
     id="namedview4"
     showgrid="false"
     inkscape:zoom="1"
     inkscape:cx="177.40714"
     inkscape:cy="234.94119"
     inkscape:window-x="-4"
     inkscape:window-y="-3"
     inkscape:window-maximized="1"
     inkscape:current-layer="g3794" />
  <g
     id="g3794">
    <path
       sodipodi:nodetypes="ccccccccccccccccccccccccccccccccccc"
       inkscape:original-d="M 0,6.6704537 20.947841,6.2386363 49.343788,4.0795452 76.343223,0.625 116.8424,2.3522726 l 17.22374,5.6136362 26.06836,0.8636359 30.25804,-0.4318175 14.89628,-3.4545461 29.32696,1.7272736 21.38422,-10e-7 0,15.9772723 -17.66016,-1.295454 -1.39653,-3.454546 -12.10319,-2.15909 -10.2412,0.431818 -11.17218,3.886364 -2.79308,1.295454 -9.31009,-0.431818 -16.7583,2.15909 -27.93045,1.295456 -27.93046,-0.863637 -1.39651,-3.886364 -10.7066,-3.022727 -3.25859,-2.159091 -28.395958,-0.431817 -4.18957,3.022727 L 57.722925,18.761363 42.361176,18.329545 33.982044,21.352272 33.05103,24.375 12.342998,23.670299 10.521317,22.523269 0,22.647726 0,6.6704537 z"
       inkscape:path-effect="#path-effect3792"
       id="path2834"
       d="M 0,6.6704537 C 6.984748,6.698789 13.970194,6.5547914 20.947841,6.2386363 30.432095,5.8089075 39.900689,5.0611798 49.343788,4.0795452 58.369182,3.1413322 67.372357,1.9893867 76.343223,0.625 l 40.499177,1.7272726 17.22374,5.6136362 c 8.68174,0.4784478 17.37399,0.7664188 26.06836,0.8636359 10.0875,0.1127945 20.17787,-0.031207 30.25804,-0.4318175 l 14.89628,-3.4545461 c 9.75227,0.9083755 19.53548,1.4845784 29.32696,1.7272736 7.12661,0.1766429 14.25761,0.1766426 21.38422,-10e-7 l 0,15.9772723 -17.66016,-1.295454 -1.39653,-3.454546 -12.10319,-2.15909 -10.2412,0.431818 -11.17218,3.886364 -2.79308,1.295454 -9.31009,-0.431818 -16.7583,2.15909 -27.93045,1.295456 -27.93046,-0.863637 -1.39651,-3.886364 -10.7066,-3.022727 -3.25859,-2.159091 -28.395958,-0.431817 -4.18957,3.022727 L 57.722925,18.761363 42.361176,18.329545 33.982044,21.352272 33.05103,24.375 12.342998,23.670299 10.521317,22.523269 0,22.647726 0,6.6704537"
       style="fill:#d2c175;fill-opacity:1;stroke:none" />
    <path
       style="fill:#bbad71;fill-opacity:1;stroke:none"
       d="M 75.21875,5.3125 74.5,7.625 73.8125,9.1875 70.375,10.25 58.90625,11.03125 56.25,11.09375 56.40625,10.1875 54.9375,10.15625 l -0.0625,1 -11.09375,0.3125 -1.125,-0.90625 L 42.3125,9.03125 41.78125,8.75 41.3125,10.8125 33.9375,11.5 33.59375,9.75 33.53125,9.78125 33.75,8.875 32.1875,9.125 27.5,9 l -3.0625,1.5 -6,1.6875 -5.25,2 3.625,-0.125 5.6875,-0.6875 9.125,-1.875 0.40625,1.125 0.09375,1.5 -0.9375,3.03125 -12.125,0.53125 -0.6875,-1.25 -1.25,1.34375 L 13.5625,17.9375 12,16.75 11.1875,12.5 9.6875,11.625 9.375,14.6875 8.9375,16.5 0,14.3125 l 0,8 10.53125,-0.125 1.8125,1.125 L 33.0625,24.03125 33.96875,21 42.375,18 57.71875,18.40625 70.75,16.6875 l 4.1875,-3.03125 28.40625,0.4375 3.25,2.15625 10.71875,3.03125 1.40625,3.875 27.90625,0.875 27.9375,-1.28125 16.75,-2.1875 9.3125,0.4375 2.8125,-1.28125 11.15625,-3.90625 10.25,-0.40625 11.59375,2.0625 L 237.625,19.5 237.7187,19.46875 238.34375,21 256,22.3125 l 0,-8 -11,0.65625 L 247.125,14.5 246.75,13.25 245,13 l -0.1875,1.96875 -5.25,0.3125 -0.75,-0.65625 -0.53125,-1.25 -0.4375,-2.8125 -1.25,0.1875 -0.1875,2.5 -0.0625,0.5 -5.88036,-1.358915 0.15625,-0.5625 -1.8125,-0.1875 0.0625,0.46875 -4.4375,-0.8125 -8.21875,0.3125 0,-1.3125 -1.75,0.125 -0.625,0.8125 -5.21339,0.07766 -2.1875,0.9375 -0.9375,0.96875 -2.46875,0.375 -2.5,0.78125 L 192.3125,14 191,11.40625 l -0.53125,2.6875 -0.53125,0.78125 -10.28125,-0.03125 -2.03125,-0.375 -0.21875,-1.59375 -3.3125,0.5625 0.65625,0.46875 -0.78125,1.53125 -0.125,0 -8.96875,0.40625 0,-1.28125 -1.0625,0.03125 0.0625,1.3125 -10.59375,1.1875 -0.6875,-0.90625 -2.28125,-0.875 -1.25,2.4375 -4.65625,0.21875 L 120.5,16.90625 120.28125,16.6875 119.6875,15.5 l 0,-0.03125 0.5625,-2.78125 -0.6875,-2.375 -0.125,0.3125 -1.9375,-0.90625 -0.21875,-1.3125 -1.21875,-0.96875 -0.0205,2.608534 -0.46246,1.490197 -9.92326,-0.473731 -1.625,-1.0625 -0.875,-1.21875 -1,-2.59375 -0.96875,-0.25 L 101.125,7.53125 100.78125,8.75 97.3125,8.5625 97.09375,8.0625 96.78125,7.15625 96.5625,8.53125 76.4375,7.5 76,7.25 75.8125,5.75 75.21875,5.3125 z m -2.25,0.8125 -0.59375,0.96875 -0.15625,1.71875 0.9375,-0.25 -0.1875,-2.4375 z m 8.625,0.1875 0.6875,0.53125 L 85.75,7 81.59375,6.3125 z M 94.03125,6.40625 93.15625,7.9375 95.25,8.0625 95.40625,7.71875 95.375,6.625 94.03125,6.40625 z M 119.625,8.1875 119.5625,8.75 l 1.6875,0.9375 0.25,0.25 7.25,2.5625 0.9375,-0.125 -3,-1 -4.3125,-2.625 -2.75,-0.5625 z M 107.3125,8.375 108,9.53125 l 5.84375,1.25 1.5,0 L 114.375,8.90625 110.5,8.8125 107.3125,8.375 z m 147.5,3.375 -2.4375,0.25 0,1.375 2.375,-0.0625 0.0625,-1.5625 z M 202.375,11.8125 198.75,13 l -2.4375,0.25 5.4375,-0.1875 0.625,-1.25 z m -33.71875,1.375 0.21875,1.78125 1.0625,-0.1875 0.4375,-1.03125 -1.71875,-0.5625 z M 29.875,15.28125 l -1.59375,0.1875 -3.34375,0.96875 4.3125,-0.375 0.625,-0.78125 z m 109.5,0.40625 -2.5,0.5625 3.6875,0.625 0.375,-0.625 -1.5625,-0.5625 z"
       id="path3879"
       sodipodi:nodetypes="cccccccccccccccccccccccccccccccccccccccccccccccccccccccccccccccccccccccccccccccccccccccccccccccccccccccccccccccccccccccccccccccccccccccccccccccccccccccccccccccccccccccccccccccccccccccccccccccccc" />
    <path
       style="fill:#eae1bd;fill-opacity:1;stroke:none"
       d="m 76.34375,2 -27,3.46875 L 20.9375,7.625 0,8.03125 l 0,2.625 20.9375,-0.4375 28.40625,-2.6875 9.84375,-1.09375 0.03125,0 4.40625,0.28125 5.3125,-0.375 L 71.78125,6.1875 71.5625,5.03125 76.34375,4.5 101.28125,4.265625 102.25,4.8984375 115.90625,5.71875 117.10937,5.296875 134.0625,11 l 26.0625,1.9375 29.57414,-1.079235 0.89033,-1.251991 6.67976,0.09593 9.01202,-2.639705 29.125,2.75 0.96875,-1.203125 1.46875,-0.265625 2.5625,1.25 15.59375,0.0625 0,-2.625 -21.375,0 -29.34375,-1.71875 -14.875,3.46875 -30.28125,0.4375 -26.0625,-0.875 -17.21875,-5.625 L 76.34375,2 z m 44.9375,7.625 0.78125,1.9375 -0.0937,0.875 5.21875,0.850413 6.625,0.743337 -1.59158,-0.553617 -5.49908,-1.87408 -4.00314,-1.572303 -1.4375,-0.40625 z m -89.1875,1.3125 -3.4375,0.1875 -6.125,1.59375 -7.25,0.78125 -1.59375,0.71875 4.6875,0.34375 6.15625,-0.125 L 29.4375,13.65625 30.25,12.5 31.4375,12.09375 32.09375,10.9375 z"
       id="path3800"
       sodipodi:nodetypes="ccccccccccccccccccccccccccccccccccccccccccccccccccccccccc" />
    <path
       style="fill:#978b59;fill-opacity:1;stroke:none"
       d="m 102.04687,7.03125 -0.51561,-0.3125 0.0312,1.3125 -0.60937,1.828125 L 76.43745,9.3125 75.74995,7.984375 75.53125,6.828125 75.21875,6.5625 l -0.515625,3.015625 -0.3125,1.0625 L 71.625,12.75 58.737056,14.240197 43.546415,13.385723 42.452665,11.849112 42.0625,9.625 41.90625,9.343755 41.40717,13.429922 34.381663,14.621483 33.65625,12.687505 33.4375,10.343755 33.125,16.812505 31.9375,19.968755 13.25,20.1875 11.59375,18.84375 10.8125,14.5 10.21875,14.15625 9.90625,17.21875 9.46875,19.03125 0,18.125 l 0,4.1875 10.53125,-0.125 1.8125,1.125 L 33.0625,24.03125 33.96875,21 42.375,18 57.71875,18.40625 70.75,16.6875 l 4.1875,-3.03125 28.40625,0.4375 3.25,2.15625 10.71875,3.03125 1.40625,3.875 27.90625,0.875 27.9375,-1.28125 16.75,-2.1875 9.3125,0.4375 2.8125,-1.28125 11.15625,-3.90625 10.25,-0.40625 11.59375,2.0625 L 237.625,19.5 237.7187,19.46875 238.34375,21 256,22.3125 l 0,-4.1875 -16.0625,-0.21875 -0.75,-0.65625 -0.9375,-2.1875 -0.5,-2.65625 -0.90625,0.5 0,1.4375 -0.5,0.59375 -12.22097,-2.047335 -10.25,0.40625 -10.82859,2.292893 -2.5,0.78125 -8.26294,0.06694 -0.98437,-3.09375 -0.23438,2.765625 -0.53125,0.78125 -24.9934,0.647826 -21.1316,2.430299 L 120.5,18.90625 118.67187,16.453125 117.45312,13.28125 117.03125,10.453125 116.5,9.53125 l 0.29688,3.59375 -0.47585,1.046034 -10.66475,-1.462087 -1.625,-1.0625 -1.48438,-2.005822 -0.5,-2.609375 -3e-5,0 z"
       id="path3823"
       sodipodi:nodetypes="cccccccccccccccccccccccccccccccccccccccccccccccccccccccccccccccccccccccccccccccccccc" />
    <path
       style="fill:none;stroke:#352e11;stroke-width:2.5;stroke-linecap:square;stroke-linejoin:round;stroke-miterlimit:4;stroke-opacity:1;stroke-dasharray:none"
       d="M 0,7.0175789 C 6.9845015,7.0442493 13.969621,6.9088326 20.947841,6.6114745 30.429913,6.2074214 39.898146,5.5044193 49.343788,4.5809482 58.366255,3.6988496 67.369049,2.6155435 76.343223,1.3321068 l 40.499177,1.6244207 17.22374,5.2793676 c 8.68264,0.4499643 17.37455,0.7207778 26.06836,0.81221 10.08733,0.1060877 20.17719,-0.029332 30.25804,-0.4061046 l 14.89628,-3.2488423 c 9.75497,0.8543237 19.53731,1.3961678 29.32696,1.6244217 7.12678,0.1661669 14.25744,0.1661666 21.38422,-1e-6 m 0,15.0258921 -17.66016,-1.218315 -1.39653,-3.248842 -12.10319,-2.030525 -10.2412,0.406105 -11.17218,3.654947 -2.79308,1.218315 -9.31009,-0.406105 -16.7583,2.030525 -27.93045,1.218317 -27.93046,-0.812211 -1.39651,-3.654947 -10.7066,-2.842736 -3.25859,-2.030526 -28.395958,-0.406104 -4.18957,2.842736 -13.034207,1.62442 L 42.361176,17.98242 33.982044,20.825156 33.05103,23.667893 12.342998,23.005154 10.521317,21.926425 0,22.043471"
       id="path3784"
       inkscape:path-effect="#path-effect3836"
       inkscape:original-d="M 0,7.0175789 20.947841,6.6114745 49.343788,4.5809482 76.343223,1.3321068 116.8424,2.9565275 l 17.22374,5.2793676 26.06836,0.81221 30.25804,-0.4061046 14.89628,-3.2488423 29.32696,1.6244217 21.38422,-1e-6 m 0,15.0258921 -17.66016,-1.218315 -1.39653,-3.248842 -12.10319,-2.030525 -10.2412,0.406105 -11.17218,3.654947 -2.79308,1.218315 -9.31009,-0.406105 -16.7583,2.030525 -27.93045,1.218317 -27.93046,-0.812211 -1.39651,-3.654947 -10.7066,-2.842736 -3.25859,-2.030526 -28.395958,-0.406104 -4.18957,2.842736 -13.034207,1.62442 L 42.361176,17.98242 33.982044,20.825156 33.05103,23.667893 12.342998,23.005154 10.521317,21.926425 0,22.043471"
       sodipodi:nodetypes="cccccccccccccccccccccccccccccccccc" />
    <path
       style="fill:none;stroke:#000000;stroke-width:1px;stroke-linecap:butt;stroke-linejoin:miter;stroke-opacity:1"
       d="m 12,20.5 0,0"
       id="path3854"
       inkscape:path-effect="#path-effect3856"
       inkscape:original-d="m 12,20.5 0,0 z" />
  </g>
  <use
     x="0"
     y="0"
     xlink:href="#g3794"
     id="use3798"
     transform="translate(255.96972,0)"
     width="256"
     height="25" />
</svg>
