<?xml version="1.0" encoding="UTF-8" standalone="no"?>
<!-- Created with Inkscape (http://www.inkscape.org/) -->
<svg
   xmlns:dc="http://purl.org/dc/elements/1.1/"
   xmlns:cc="http://creativecommons.org/ns#"
   xmlns:rdf="http://www.w3.org/1999/02/22-rdf-syntax-ns#"
   xmlns:svg="http://www.w3.org/2000/svg"
   xmlns="http://www.w3.org/2000/svg"
   xmlns:sodipodi="http://sodipodi.sourceforge.net/DTD/sodipodi-0.dtd"
   xmlns:inkscape="http://www.inkscape.org/namespaces/inkscape"
   id="svg2"
   sodipodi:version="0.32"
   inkscape:version="0.46"
   width="172.69142"
   height="135.48022"
   version="1.0"
   sodipodi:docname="rock1.svg"
   inkscape:output_extension="org.inkscape.output.svg.inkscape"
   inkscape:export-filename="/home/elric/Desarrollo/hedgewars/themes/Desert/rock1.png"
   inkscape:export-xdpi="90"
   inkscape:export-ydpi="90">
  <metadata
     id="metadata7">
    <rdf:RDF>
      <cc:Work
         rdf:about="">
        <dc:format>image/svg+xml</dc:format>
        <dc:type
           rdf:resource="http://purl.org/dc/dcmitype/StillImage" />
      </cc:Work>
    </rdf:RDF>
  </metadata>
  <defs
     id="defs5">
    <inkscape:perspective
       sodipodi:type="inkscape:persp3d"
       inkscape:vp_x="0 : 526.18109 : 1"
       inkscape:vp_y="0 : 1000 : 0"
       inkscape:vp_z="744.09448 : 526.18109 : 1"
       inkscape:persp3d-origin="372.04724 : 350.78739 : 1"
       id="perspective9" />
    <mask
       maskUnits="userSpaceOnUse"
       id="mask3575">
      <path
         style="fill:#ffffff;fill-rule:evenodd;stroke:none;stroke-width:1px;stroke-linecap:butt;stroke-linejoin:miter;stroke-opacity:1"
         d="M 157.33126,60.526906 L 154.50283,49.566751 L 145.31044,33.303295 L 144.24978,24.818013 L 138.23938,27.999994 L 121.97592,31.181974 L 119.14749,36.485275 L 108.89444,32.242634 L 98.994949,42.142129 L 89.802561,48.859644 L 83.792154,47.798984 L 75.306872,53.102285 L 69.296465,57.698479 L 54.093669,56.991372 L 44.547727,65.476653 L 42.426407,71.840614 L 39.244426,81.740109 L 33.941126,86.689857 L 21.213203,97.650012 L 18.031223,100.12489 L 9.8994949,97.296458 L 14.849242,110.73149 L 17.67767,116.03479 L 29.698485,122.0452 L 51.618795,125.22718 L 34.294679,121.33809 L 39.244426,114.26702 L 51.618795,123.81296 L 69.296465,123.81296 L 84.852814,115.68123 L 92.630988,101.5391 L 102.88404,83.507876 L 111.36932,73.961935 L 119.50105,65.476653 L 143.18912,60.526906 L 155.20994,60.880459 L 155.91705,65.830207 L 106.41957,84.214983 L 121.62237,87.396963 L 157.68481,67.951527 L 159.45258,63.355333 L 165.10943,68.30508 L 158.03837,99.417779 L 153.08862,100.47844 L 153.44217,105.78174 L 96.520076,112.49925 L 100.05561,106.8424 L 113.49064,103.30687 L 108.54089,100.83199 L 117.02617,94.821585 L 130.10765,92.700264 L 136.47161,85.275643 L 161.22035,72.547721 L 157.33126,58.759139 L 157.33126,60.526906 z"
         id="path3577" />
    </mask>
  </defs>
  <sodipodi:namedview
     inkscape:window-height="822"
     inkscape:window-width="804"
     inkscape:pageshadow="2"
     inkscape:pageopacity="0.0"
     guidetolerance="10.0"
     gridtolerance="10.0"
     objecttolerance="10.0"
     borderopacity="1.0"
     bordercolor="#666666"
     pagecolor="#ffffff"
     id="base"
     showgrid="false"
     inkscape:zoom="1"
     inkscape:cx="144.4487"
     inkscape:cy="66.893959"
     inkscape:window-x="292"
     inkscape:window-y="127"
     inkscape:current-layer="svg2" />
  <path
     style="fill:#584d1d;fill-opacity:1;fill-rule:evenodd;stroke:#584d1d;stroke-width:13.30000019;stroke-linecap:butt;stroke-linejoin:round;stroke-miterlimit:4;stroke-dasharray:none;stroke-opacity:1"
     d="M 86.983276,114.22173 L 160.9409,106.25345 L 166.04143,69.06816 L 140.5388,11.96218 L 103.55999,6.6500001 L 81.882753,22.58655 L 33.427759,50.47552 L 21.951577,77.03644 L 6.6500001,87.66081 L 11.750526,118.20586 L 44.903942,128.83023 L 86.983276,114.22173 z"
     id="path2400" />
  <path
     id="path3557"
     d="M 86.915876,105.46382 L 153.05524,98.99689 L 157.61658,68.81793 L 137.28477,19.64326 L 103.50799,12.15 L 85.182976,29.68003 L 35.839879,53.72846 L 28.758857,75.28486 L 13.660637,87.79651 L 19.636187,108.69727 L 49.284865,117.31983 L 86.915876,105.46382 z"
     style="fill:#d2c175;fill-opacity:1;fill-rule:evenodd;stroke:#d2c175;stroke-width:13.30000019;stroke-linecap:butt;stroke-linejoin:round;stroke-miterlimit:4;stroke-dasharray:none;stroke-opacity:1"
     sodipodi:nodetypes="cccccccccccc" />
  <path
     style="fill:#bbad71;fill-opacity:1;fill-rule:evenodd;stroke:#bbad71;stroke-width:8;stroke-linecap:butt;stroke-linejoin:round;stroke-miterlimit:4;stroke-opacity:0.86274511"
     d="M 141.78125,37.75 C 138.63493,41.261288 135.21778,44.471748 131.2548,47.049516 C 126.79495,50.148067 122.63437,53.742213 117.96875,56.5 C 106.49739,59.735291 94.896799,62.577864 83.506988,66.06106 C 74.879659,69.43654 66.252329,72.81202 57.625,76.1875 C 53.765763,84.30293 50.273157,92.621418 46.179703,100.60713 C 43.354414,102.85045 39.457611,101.45917 36.098384,101.76617 C 30.242673,101.67745 24.386961,101.58872 18.53125,101.5 C 18.895833,103.97917 19.260417,106.45833 19.625,108.9375 C 29.71875,112.34375 39.8125,115.75 49.90625,119.15625 C 57.396508,116.82903 65.072697,114.96879 72.445051,112.34545 C 77.246842,110.03408 81.852159,107.24393 86.783665,105.24866 C 94.578997,105.90752 102.44563,105.02207 110.2788,104.9535 C 119.96077,104.47368 129.56354,102.89732 139.21302,101.96724 C 144.32602,101.37942 149.44022,100.81237 154.5625,100.3125 C 153.84992,96.723895 152.51587,93.046748 154.07965,89.487136 C 154.85254,85.428522 156.95957,81.475763 156.02445,77.28163 C 155.36228,71.338149 155.10639,65.255826 154.19181,59.398603 C 150.06999,52.700794 145.35723,46.32694 142.3724,39.003034 C 142.17535,38.585356 141.9783,38.167678 141.78125,37.75 z"
     id="path3156" />
  <path
     sodipodi:nodetypes="cccccccccccccc"
     style="fill:#eae1bd;fill-opacity:1;fill-rule:evenodd;stroke:#eae1bd;stroke-width:5;stroke-linecap:butt;stroke-linejoin:round;stroke-miterlimit:4;stroke-dasharray:none;stroke-opacity:1"
     d="M 60.10306,63.572577 L 101.56564,48.087881 L 122.52254,34.325293 L 137.28477,19.64326 L 103.50799,8.15 L 85.182976,25.68003 L 35.132772,50.9659 L 27.99109,74.431306 L 13.660637,83.79651 L 12.218925,92.333306 L 36.792225,93.755745 L 42.380211,87.471758 L 47.471245,71.13447 L 60.10306,63.572577 z"
     id="path3559" />
  <path
     sodipodi:nodetypes="cccccc"
     id="path3167"
     d="M 155.53541,68.48213 L 132.28333,78.678565 L 102.40625,85.875 L 119.97346,88.68202 L 146.06325,82.92472 L 155.53541,68.48213 z"
     style="fill:#e2d7a5;fill-opacity:1;fill-rule:evenodd;stroke:#e2d7a5;stroke-width:8;stroke-linecap:butt;stroke-linejoin:round;stroke-miterlimit:4;stroke-opacity:1;opacity:0.2" />
  <path
     id="path3561"
     d="M 126.64281,83.842716 L 142.62787,79.441937 L 156.37665,68.43363 L 131.79225,80.032255 L 109.75494,84.48081 L 126.64281,83.842716 z"
     style="fill:#eae1bd;fill-opacity:1;fill-rule:evenodd;stroke:#d9cb8a;stroke-width:5;stroke-linecap:butt;stroke-linejoin:round;stroke-miterlimit:4;stroke-dasharray:none;stroke-opacity:0.96078432"
     sodipodi:nodetypes="cccccc" />
  <path
     style="fill:#dacc8c;fill-rule:evenodd;stroke:#dfd39a;stroke-width:4;stroke-linecap:butt;stroke-linejoin:round;stroke-opacity:0.96078432000000002;fill-opacity:1;opacity:0.50000000000000000;stroke-miterlimit:4;stroke-dasharray:none"
     d="M 44.75,87.730225 L 26.125,72.230225 L 33,49.605225 L 49.375,73.105225"
     id="path3158"
     sodipodi:nodetypes="cccc" />
  <path
     style="fill:#e2d7a5;fill-opacity:1;fill-rule:evenodd;stroke:#e2d7a5;stroke-width:8;stroke-linecap:butt;stroke-linejoin:round;stroke-miterlimit:4;stroke-opacity:1;opacity:0.2"
     d="M 39.285412,100.60713 C 30.765052,103.18198 27.509781,101.63604 18.53125,101.5 C 18.895833,103.97917 18.983877,104.57785 19.34846,107.05702 C 29.44221,110.46327 29.969495,110.64347 40.063245,114.04972 L 39.285412,100.60713 z"
     id="path3160"
     sodipodi:nodetypes="ccccc" />
  <path
     sodipodi:nodetypes="ccccc"
     id="path3169"
     d="M 145.28541,34.60713 L 139.03125,39.5 L 148.34846,64.55702 L 158.56325,65.54972 L 145.28541,34.60713 z"
     style="fill:#e2d7a5;fill-opacity:1;fill-rule:evenodd;stroke:#e2d7a5;stroke-width:8;stroke-linecap:butt;stroke-linejoin:round;stroke-miterlimit:4;stroke-opacity:1;opacity:0.2" />
</svg>
