<?xml version="1.0" encoding="UTF-8" standalone="no"?>
<!-- Created with Inkscape (http://www.inkscape.org/) -->

<svg
   xmlns:dc="http://purl.org/dc/elements/1.1/"
   xmlns:cc="http://creativecommons.org/ns#"
   xmlns:rdf="http://www.w3.org/1999/02/22-rdf-syntax-ns#"
   xmlns:svg="http://www.w3.org/2000/svg"
   xmlns="http://www.w3.org/2000/svg"
   xmlns:sodipodi="http://sodipodi.sourceforge.net/DTD/sodipodi-0.dtd"
   xmlns:inkscape="http://www.inkscape.org/namespaces/inkscape"
   id="svg2"
   sodipodi:version="0.32"
   inkscape:version="0.47 r22583"
   width="24.427864"
   height="19"
   version="1.0"
   sodipodi:docname="rock2.svg"
   inkscape:output_extension="org.inkscape.output.svg.inkscape"
   inkscape:export-filename="/mnt/y/src/hedge/trunk/share/hedgewars/Data/Themes/Desert/rock2.png"
   inkscape:export-xdpi="90"
   inkscape:export-ydpi="90">
  <metadata
     id="metadata7">
    <rdf:RDF>
      <cc:Work
         rdf:about="">
        <dc:format>image/svg+xml</dc:format>
        <dc:type
           rdf:resource="http://purl.org/dc/dcmitype/StillImage" />
        <dc:title />
      </cc:Work>
    </rdf:RDF>
  </metadata>
  <defs
     id="defs5">
    <inkscape:perspective
       sodipodi:type="inkscape:persp3d"
       inkscape:vp_x="0 : 526.18109 : 1"
       inkscape:vp_y="0 : 1000 : 0"
       inkscape:vp_z="744.09448 : 526.18109 : 1"
       inkscape:persp3d-origin="372.04724 : 350.78739 : 1"
       id="perspective9" />
    <mask
       maskUnits="userSpaceOnUse"
       id="mask3575">
      <path
         style="fill:#ffffff;fill-rule:evenodd;stroke:none"
         d="m 157.33126,60.526906 -2.82843,-10.960155 -9.19239,-16.263456 -1.06066,-8.485282 -6.0104,3.181981 -16.26346,3.18198 -2.82843,5.303301 -10.25305,-4.242641 -9.899491,9.899495 -9.192388,6.717515 -6.010407,-1.06066 -8.485282,5.303301 -6.010407,4.596194 -15.202796,-0.707107 -9.545942,8.485281 -2.12132,6.363961 -3.181981,9.899495 -5.3033,4.949748 -12.727923,10.960155 -3.18198,2.474878 -8.1317281,-2.828432 4.9497471,13.435032 2.828428,5.3033 12.020815,6.01041 21.92031,3.18198 -17.324116,-3.88909 4.949747,-7.07107 12.374369,9.54594 17.67767,0 15.556349,-8.13173 7.778174,-14.14213 10.253052,-18.031224 8.48528,-9.545941 8.13173,-8.485282 23.68807,-4.949747 12.02082,0.353553 0.70711,4.949748 -49.49748,18.384776 15.2028,3.18198 36.06244,-19.445436 1.76777,-4.596194 5.65685,4.949747 -7.07106,31.112699 -4.94975,1.060661 0.35355,5.3033 -56.922094,6.71751 3.535534,-5.65685 13.43503,-3.53553 -4.94975,-2.47488 8.48528,-6.010405 13.08148,-2.121321 6.36396,-7.424621 24.74874,-12.727922 -3.88909,-13.788582 0,1.767767 z"
         id="path3577" />
    </mask>
  </defs>
  <sodipodi:namedview
     inkscape:window-height="953"
     inkscape:window-width="1280"
     inkscape:pageshadow="2"
     inkscape:pageopacity="0.0"
     guidetolerance="10.0"
     gridtolerance="10.0"
     objecttolerance="10.0"
     borderopacity="1.0"
     bordercolor="#666666"
     pagecolor="#ffffff"
     id="base"
     showgrid="false"
     inkscape:zoom="1"
     inkscape:cx="164.38797"
     inkscape:cy="248.43989"
     inkscape:window-x="-4"
     inkscape:window-y="-3"
     inkscape:current-layer="svg2"
     inkscape:window-maximized="1" />
  <path
     sodipodi:nodetypes="czzzzzzz"
     id="path3595"
     d="m 9.2430702,1.9127548 c -2.495271,0.57178 -4.605672,0.956679 -6.317259,3.362132 -1.711587,2.405453 -2.57892004,6.6918922 -0.290306,8.8884122 2.288614,2.19652 5.012051,2.516728 9.0132578,2.679244 4.001207,0.162516 6.553133,-0.2569 9.219925,-1.905231 2.666792,-1.648331 2.961217,-7.0953872 1.205977,-9.7356132 -1.75524,-2.640226 -2.720191,-2.965806 -5.729927,-3.413944 -3.009736,-0.448138 -4.606397,-0.44678 -7.1016678,0.125 z"
     style="fill:#d2c175;fill-opacity:1;stroke:none;stroke-width:2.5;marker:none;visibility:visible;display:inline;overflow:visible;enable-background:accumulate" />
  <path
     style="fill:#eae1bd;fill-opacity:1;fill-rule:evenodd;stroke:#eae1bd;stroke-width:3;stroke-linecap:butt;stroke-linejoin:round;stroke-miterlimit:4;stroke-opacity:1;stroke-dasharray:none;stroke-dashoffset:0;marker:none;visibility:visible;display:inline;overflow:visible;enable-background:accumulate"
     d="M 6.7529902,5.8318358 C 9.8076822,6.0884498 20.141364,5.7019608 18.487089,4.1698918 13.79729,3.6929918 8.0585782,4.9988658 6.7529902,5.8318358 z"
     id="path2395"
     sodipodi:nodetypes="ccc" />
  <path
     style="fill:#bbad71;fill-opacity:1;fill-rule:evenodd;stroke:#bbad71;stroke-width:4;stroke-linecap:butt;stroke-linejoin:round;stroke-miterlimit:4;stroke-opacity:0.8627451;stroke-dasharray:none;stroke-dashoffset:0;marker:none;visibility:visible;display:inline;overflow:visible;enable-background:accumulate"
     d="m 4.3755792,13.147045 c 0.1976,2.201201 15.2143468,2.39221 16.0939118,-0.422427 0.252045,-1.112575 0.833014,-2.8951387 -0.117414,-2.287301 -5.381484,3.357908 -14.7167596,3.284613 -16.2197276,1.500456 -1.1322133,-0.932407 0.2507128,-0.368504 0.2432298,1.209272 z"
     id="path3168"
     sodipodi:nodetypes="ccccc" />
  <path
     style="fill:none;stroke:#352e11;stroke-width:2.5;stroke-linecap:round;stroke-linejoin:round;stroke-miterlimit:4;stroke-opacity:1;stroke-dasharray:none;stroke-dashoffset:0;marker:none;visibility:visible;display:inline;overflow:visible;enable-background:accumulate"
     d="m 8.6685459,2.6640558 c -2.5394649,0.3066149 -4.0311477,0.205378 -5.7427347,2.610831 -1.711587,2.405453 -2.57891964,6.6918922 -0.290306,8.8884122 2.288614,2.19652 5.012051,2.516728 9.0132578,2.679244 4.001207,0.162516 6.553133,-0.2569 9.219925,-1.905231 2.666792,-1.648331 2.430887,-4.841484 1.780501,-8.4981763 -0.650385,-3.656692 -1.96889,-3.6729128 -4.978626,-4.1210508 -3.009736,-0.448138 -6.462552,0.039356 -9.0020171,0.3459709 z"
     id="path2819"
     sodipodi:nodetypes="czzzzzzz" />
</svg>
