<?xml version="1.0" encoding="UTF-8" standalone="no"?>
<!-- Created with Inkscape (http://www.inkscape.org/) -->

<svg
   xmlns:dc="http://purl.org/dc/elements/1.1/"
   xmlns:cc="http://creativecommons.org/ns#"
   xmlns:rdf="http://www.w3.org/1999/02/22-rdf-syntax-ns#"
   xmlns:svg="http://www.w3.org/2000/svg"
   xmlns="http://www.w3.org/2000/svg"
   xmlns:sodipodi="http://sodipodi.sourceforge.net/DTD/sodipodi-0.dtd"
   xmlns:inkscape="http://www.inkscape.org/namespaces/inkscape"
   width="16.606598"
   height="53.870049"
   id="svg2"
   version="1.1"
   inkscape:version="0.47 r22583"
   sodipodi:docname="sand.svg"
   inkscape:export-filename="/usr/share/hedgewars/Data/Themes/Desert/sand.png"
   inkscape:export-xdpi="90"
   inkscape:export-ydpi="90">
  <defs
     id="defs4">
    <inkscape:perspective
       sodipodi:type="inkscape:persp3d"
       inkscape:vp_x="0 : 526.18109 : 1"
       inkscape:vp_y="0 : 1000 : 0"
       inkscape:vp_z="744.09448 : 526.18109 : 1"
       inkscape:persp3d-origin="372.04724 : 350.78739 : 1"
       id="perspective10" />
    <inkscape:perspective
       id="perspective3650"
       inkscape:persp3d-origin="0.5 : 0.33333333 : 1"
       inkscape:vp_z="1 : 0.5 : 1"
       inkscape:vp_y="0 : 1000 : 0"
       inkscape:vp_x="0 : 0.5 : 1"
       sodipodi:type="inkscape:persp3d" />
    <inkscape:perspective
       id="perspective3699"
       inkscape:persp3d-origin="0.5 : 0.33333333 : 1"
       inkscape:vp_z="1 : 0.5 : 1"
       inkscape:vp_y="0 : 1000 : 0"
       inkscape:vp_x="0 : 0.5 : 1"
       sodipodi:type="inkscape:persp3d" />
    <inkscape:perspective
       id="perspective3734"
       inkscape:persp3d-origin="0.5 : 0.33333333 : 1"
       inkscape:vp_z="1 : 0.5 : 1"
       inkscape:vp_y="0 : 1000 : 0"
       inkscape:vp_x="0 : 0.5 : 1"
       sodipodi:type="inkscape:persp3d" />
    <inkscape:perspective
       id="perspective3759"
       inkscape:persp3d-origin="0.5 : 0.33333333 : 1"
       inkscape:vp_z="1 : 0.5 : 1"
       inkscape:vp_y="0 : 1000 : 0"
       inkscape:vp_x="0 : 0.5 : 1"
       sodipodi:type="inkscape:persp3d" />
    <inkscape:perspective
       id="perspective3797"
       inkscape:persp3d-origin="0.5 : 0.33333333 : 1"
       inkscape:vp_z="1 : 0.5 : 1"
       inkscape:vp_y="0 : 1000 : 0"
       inkscape:vp_x="0 : 0.5 : 1"
       sodipodi:type="inkscape:persp3d" />
    <inkscape:perspective
       id="perspective3820"
       inkscape:persp3d-origin="0.5 : 0.33333333 : 1"
       inkscape:vp_z="1 : 0.5 : 1"
       inkscape:vp_y="0 : 1000 : 0"
       inkscape:vp_x="0 : 0.5 : 1"
       sodipodi:type="inkscape:persp3d" />
    <inkscape:perspective
       id="perspective3844"
       inkscape:persp3d-origin="0.5 : 0.33333333 : 1"
       inkscape:vp_z="1 : 0.5 : 1"
       inkscape:vp_y="0 : 1000 : 0"
       inkscape:vp_x="0 : 0.5 : 1"
       sodipodi:type="inkscape:persp3d" />
    <inkscape:perspective
       id="perspective3867"
       inkscape:persp3d-origin="0.5 : 0.33333333 : 1"
       inkscape:vp_z="1 : 0.5 : 1"
       inkscape:vp_y="0 : 1000 : 0"
       inkscape:vp_x="0 : 0.5 : 1"
       sodipodi:type="inkscape:persp3d" />
    <inkscape:perspective
       id="perspective3946"
       inkscape:persp3d-origin="0.5 : 0.33333333 : 1"
       inkscape:vp_z="1 : 0.5 : 1"
       inkscape:vp_y="0 : 1000 : 0"
       inkscape:vp_x="0 : 0.5 : 1"
       sodipodi:type="inkscape:persp3d" />
    <inkscape:perspective
       id="perspective3967"
       inkscape:persp3d-origin="0.5 : 0.33333333 : 1"
       inkscape:vp_z="1 : 0.5 : 1"
       inkscape:vp_y="0 : 1000 : 0"
       inkscape:vp_x="0 : 0.5 : 1"
       sodipodi:type="inkscape:persp3d" />
    <inkscape:perspective
       id="perspective4005"
       inkscape:persp3d-origin="0.5 : 0.33333333 : 1"
       inkscape:vp_z="1 : 0.5 : 1"
       inkscape:vp_y="0 : 1000 : 0"
       inkscape:vp_x="0 : 0.5 : 1"
       sodipodi:type="inkscape:persp3d" />
    <inkscape:perspective
       id="perspective4036"
       inkscape:persp3d-origin="0.5 : 0.33333333 : 1"
       inkscape:vp_z="1 : 0.5 : 1"
       inkscape:vp_y="0 : 1000 : 0"
       inkscape:vp_x="0 : 0.5 : 1"
       sodipodi:type="inkscape:persp3d" />
    <inkscape:perspective
       id="perspective4036-2"
       inkscape:persp3d-origin="0.5 : 0.33333333 : 1"
       inkscape:vp_z="1 : 0.5 : 1"
       inkscape:vp_y="0 : 1000 : 0"
       inkscape:vp_x="0 : 0.5 : 1"
       sodipodi:type="inkscape:persp3d" />
    <inkscape:perspective
       id="perspective4078"
       inkscape:persp3d-origin="0.5 : 0.33333333 : 1"
       inkscape:vp_z="1 : 0.5 : 1"
       inkscape:vp_y="0 : 1000 : 0"
       inkscape:vp_x="0 : 0.5 : 1"
       sodipodi:type="inkscape:persp3d" />
    <inkscape:perspective
       id="perspective4105"
       inkscape:persp3d-origin="0.5 : 0.33333333 : 1"
       inkscape:vp_z="1 : 0.5 : 1"
       inkscape:vp_y="0 : 1000 : 0"
       inkscape:vp_x="0 : 0.5 : 1"
       sodipodi:type="inkscape:persp3d" />
    <inkscape:perspective
       id="perspective4126"
       inkscape:persp3d-origin="0.5 : 0.33333333 : 1"
       inkscape:vp_z="1 : 0.5 : 1"
       inkscape:vp_y="0 : 1000 : 0"
       inkscape:vp_x="0 : 0.5 : 1"
       sodipodi:type="inkscape:persp3d" />
    <inkscape:perspective
       id="perspective3724"
       inkscape:persp3d-origin="0.5 : 0.33333333 : 1"
       inkscape:vp_z="1 : 0.5 : 1"
       inkscape:vp_y="0 : 1000 : 0"
       inkscape:vp_x="0 : 0.5 : 1"
       sodipodi:type="inkscape:persp3d" />
    <inkscape:perspective
       id="perspective3738"
       inkscape:persp3d-origin="0.5 : 0.33333333 : 1"
       inkscape:vp_z="1 : 0.5 : 1"
       inkscape:vp_y="0 : 1000 : 0"
       inkscape:vp_x="0 : 0.5 : 1"
       sodipodi:type="inkscape:persp3d" />
    <inkscape:perspective
       id="perspective3738-5"
       inkscape:persp3d-origin="0.5 : 0.33333333 : 1"
       inkscape:vp_z="1 : 0.5 : 1"
       inkscape:vp_y="0 : 1000 : 0"
       inkscape:vp_x="0 : 0.5 : 1"
       sodipodi:type="inkscape:persp3d" />
    <inkscape:perspective
       id="perspective3782"
       inkscape:persp3d-origin="0.5 : 0.33333333 : 1"
       inkscape:vp_z="1 : 0.5 : 1"
       inkscape:vp_y="0 : 1000 : 0"
       inkscape:vp_x="0 : 0.5 : 1"
       sodipodi:type="inkscape:persp3d" />
    <inkscape:perspective
       id="perspective3867-6"
       inkscape:persp3d-origin="0.5 : 0.33333333 : 1"
       inkscape:vp_z="1 : 0.5 : 1"
       inkscape:vp_y="0 : 1000 : 0"
       inkscape:vp_x="0 : 0.5 : 1"
       sodipodi:type="inkscape:persp3d" />
    <inkscape:perspective
       id="perspective3887"
       inkscape:persp3d-origin="0.5 : 0.33333333 : 1"
       inkscape:vp_z="1 : 0.5 : 1"
       inkscape:vp_y="0 : 1000 : 0"
       inkscape:vp_x="0 : 0.5 : 1"
       sodipodi:type="inkscape:persp3d" />
    <inkscape:perspective
       id="perspective3887-6"
       inkscape:persp3d-origin="0.5 : 0.33333333 : 1"
       inkscape:vp_z="1 : 0.5 : 1"
       inkscape:vp_y="0 : 1000 : 0"
       inkscape:vp_x="0 : 0.5 : 1"
       sodipodi:type="inkscape:persp3d" />
    <inkscape:perspective
       id="perspective3887-3"
       inkscape:persp3d-origin="0.5 : 0.33333333 : 1"
       inkscape:vp_z="1 : 0.5 : 1"
       inkscape:vp_y="0 : 1000 : 0"
       inkscape:vp_x="0 : 0.5 : 1"
       sodipodi:type="inkscape:persp3d" />
    <inkscape:perspective
       id="perspective3887-4"
       inkscape:persp3d-origin="0.5 : 0.33333333 : 1"
       inkscape:vp_z="1 : 0.5 : 1"
       inkscape:vp_y="0 : 1000 : 0"
       inkscape:vp_x="0 : 0.5 : 1"
       sodipodi:type="inkscape:persp3d" />
  </defs>
  <sodipodi:namedview
     id="base"
     pagecolor="#ffffff"
     bordercolor="#666666"
     borderopacity="1.0"
     inkscape:pageopacity="0.0"
     inkscape:pageshadow="2"
     inkscape:zoom="5.6568542"
     inkscape:cx="31.813563"
     inkscape:cy="49.352846"
     inkscape:document-units="px"
     inkscape:current-layer="layer1"
     showgrid="false"
     inkscape:window-width="1280"
     inkscape:window-height="952"
     inkscape:window-x="-8"
     inkscape:window-y="-3"
     inkscape:window-maximized="1" />
  <metadata
     id="metadata7">
    <rdf:RDF>
      <cc:Work
         rdf:about="">
        <dc:format>image/svg+xml</dc:format>
        <dc:type
           rdf:resource="http://purl.org/dc/dcmitype/StillImage" />
        <dc:title></dc:title>
      </cc:Work>
    </rdf:RDF>
  </metadata>
  <g
     inkscape:label="Capa 1"
     inkscape:groupmode="layer"
     id="layer1"
     transform="translate(-298.93793,-524.62576)">
    <g
       id="g3768"
       transform="matrix(0.34586155,0,0,0.34586155,217.43949,360.3805)">
      <path
         sodipodi:type="arc"
         style="color:#000000;fill:#9d803e;fill-opacity:1;fill-rule:nonzero;stroke:none;stroke-width:1px;marker:none;visibility:visible;display:inline;overflow:visible;enable-background:accumulate"
         id="path3770"
         sodipodi:cx="70.357124"
         sodipodi:cy="70.987038"
         sodipodi:rx="7.2478447"
         sodipodi:ry="7.2478447"
         d="m 77.604969,70.987038 c 0,4.002874 -3.244971,7.247844 -7.247845,7.247844 -4.002874,0 -7.247844,-3.24497 -7.247844,-7.247844 0,-4.002874 3.24497,-7.247845 7.247844,-7.247845 4.002874,0 7.247845,3.244971 7.247845,7.247845 z"
         transform="matrix(1.0517395,0,0,1.0517395,198.85667,415.04753)" />
      <path
         transform="translate(202.15852,417.79359)"
         d="m 77.604969,70.987038 c 0,4.002874 -3.244971,7.247844 -7.247845,7.247844 -4.002874,0 -7.247844,-3.24497 -7.247844,-7.247844 0,-4.002874 3.24497,-7.247845 7.247844,-7.247845 4.002874,0 7.247845,3.244971 7.247845,7.247845 z"
         sodipodi:ry="7.2478447"
         sodipodi:rx="7.2478447"
         sodipodi:cy="70.987038"
         sodipodi:cx="70.357124"
         id="path3772"
         style="color:#000000;fill:#f7e684;fill-opacity:1;fill-rule:nonzero;stroke:none;stroke-width:1px;marker:none;visibility:visible;display:inline;overflow:visible;enable-background:accumulate"
         sodipodi:type="arc" />
    </g>
    <g
       id="g3667"
       transform="matrix(0.40919991,0,0,0.40919991,195.90534,327.58259)">
      <path
         sodipodi:type="arc"
         style="color:#000000;fill:#9d803e;fill-opacity:1;fill-rule:nonzero;stroke:none;stroke-width:1px;marker:none;visibility:visible;display:inline;overflow:visible;enable-background:accumulate"
         id="path3625"
         sodipodi:cx="70.357124"
         sodipodi:cy="70.987038"
         sodipodi:rx="7.2478447"
         sodipodi:ry="7.2478447"
         d="m 77.604969,70.987038 c 0,4.002874 -3.244971,7.247844 -7.247845,7.247844 -4.002874,0 -7.247844,-3.24497 -7.247844,-7.247844 0,-4.002874 3.24497,-7.247845 7.247844,-7.247845 4.002874,0 7.247845,3.244971 7.247845,7.247845 z"
         transform="matrix(1.0517395,0,0,1.0517395,198.85667,415.04753)" />
      <path
         transform="translate(202.15852,417.79359)"
         d="m 77.604969,70.987038 c 0,4.002874 -3.244971,7.247844 -7.247845,7.247844 -4.002874,0 -7.247844,-3.24497 -7.247844,-7.247844 0,-4.002874 3.24497,-7.247845 7.247844,-7.247845 4.002874,0 7.247845,3.244971 7.247845,7.247845 z"
         sodipodi:ry="7.2478447"
         sodipodi:rx="7.2478447"
         sodipodi:cy="70.987038"
         sodipodi:cx="70.357124"
         id="path2851"
         style="color:#000000;fill:#f7e684;fill-opacity:1;fill-rule:nonzero;stroke:none;stroke-width:1px;marker:none;visibility:visible;display:inline;overflow:visible;enable-background:accumulate"
         sodipodi:type="arc" />
    </g>
    <g
       transform="matrix(0.36069672,0,0,0.36069672,206.30132,355.55674)"
       id="g3755">
      <path
         transform="matrix(1.0517395,0,0,1.0517395,198.85667,415.04753)"
         d="m 77.604969,70.987038 c 0,4.002874 -3.244971,7.247844 -7.247845,7.247844 -4.002874,0 -7.247844,-3.24497 -7.247844,-7.247844 0,-4.002874 3.24497,-7.247845 7.247844,-7.247845 4.002874,0 7.247845,3.244971 7.247845,7.247845 z"
         sodipodi:ry="7.2478447"
         sodipodi:rx="7.2478447"
         sodipodi:cy="70.987038"
         sodipodi:cx="70.357124"
         id="path3757"
         style="color:#000000;fill:#9d803e;fill-opacity:1;fill-rule:nonzero;stroke:none;stroke-width:1px;marker:none;visibility:visible;display:inline;overflow:visible;enable-background:accumulate"
         sodipodi:type="arc" />
      <path
         sodipodi:type="arc"
         style="color:#000000;fill:#f7e684;fill-opacity:1;fill-rule:nonzero;stroke:none;stroke-width:1px;marker:none;visibility:visible;display:inline;overflow:visible;enable-background:accumulate"
         id="path3760"
         sodipodi:cx="70.357124"
         sodipodi:cy="70.987038"
         sodipodi:rx="7.2478447"
         sodipodi:ry="7.2478447"
         d="m 77.604969,70.987038 c 0,4.002874 -3.244971,7.247844 -7.247845,7.247844 -4.002874,0 -7.247844,-3.24497 -7.247844,-7.247844 0,-4.002874 3.24497,-7.247845 7.247844,-7.247845 4.002874,0 7.247845,3.244971 7.247845,7.247845 z"
         transform="translate(202.15852,417.79359)" />
    </g>
    <g
       id="g3725"
       transform="matrix(0.45021828,0,0,0.45021828,185.73939,312.184)">
      <path
         sodipodi:type="arc"
         style="color:#000000;fill:#9d803e;fill-opacity:1;fill-rule:nonzero;stroke:none;stroke-width:1px;marker:none;visibility:visible;display:inline;overflow:visible;enable-background:accumulate"
         id="path3727"
         sodipodi:cx="70.357124"
         sodipodi:cy="70.987038"
         sodipodi:rx="7.2478447"
         sodipodi:ry="7.2478447"
         d="m 77.604969,70.987038 c 0,4.002874 -3.244971,7.247844 -7.247845,7.247844 -4.002874,0 -7.247844,-3.24497 -7.247844,-7.247844 0,-4.002874 3.24497,-7.247845 7.247844,-7.247845 4.002874,0 7.247845,3.244971 7.247845,7.247845 z"
         transform="matrix(1.0517395,0,0,1.0517395,198.85667,415.04753)" />
      <path
         transform="translate(202.15852,417.79359)"
         d="m 77.604969,70.987038 c 0,4.002874 -3.244971,7.247844 -7.247845,7.247844 -4.002874,0 -7.247844,-3.24497 -7.247844,-7.247844 0,-4.002874 3.24497,-7.247845 7.247844,-7.247845 4.002874,0 7.247845,3.244971 7.247845,7.247845 z"
         sodipodi:ry="7.2478447"
         sodipodi:rx="7.2478447"
         sodipodi:cy="70.987038"
         sodipodi:cx="70.357124"
         id="path3729"
         style="color:#000000;fill:#f7e684;fill-opacity:1;fill-rule:nonzero;stroke:none;stroke-width:1px;marker:none;visibility:visible;display:inline;overflow:visible;enable-background:accumulate"
         sodipodi:type="arc" />
    </g>
    <g
       transform="matrix(0.34586155,0,0,0.34586155,213.06449,366.943)"
       id="g3762">
      <path
         transform="matrix(1.0517395,0,0,1.0517395,198.85667,415.04753)"
         d="m 77.604969,70.987038 c 0,4.002874 -3.244971,7.247844 -7.247845,7.247844 -4.002874,0 -7.247844,-3.24497 -7.247844,-7.247844 0,-4.002874 3.24497,-7.247845 7.247844,-7.247845 4.002874,0 7.247845,3.244971 7.247845,7.247845 z"
         sodipodi:ry="7.2478447"
         sodipodi:rx="7.2478447"
         sodipodi:cy="70.987038"
         sodipodi:cx="70.357124"
         id="path3764"
         style="color:#000000;fill:#9d803e;fill-opacity:1;fill-rule:nonzero;stroke:none;stroke-width:1px;marker:none;visibility:visible;display:inline;overflow:visible;enable-background:accumulate"
         sodipodi:type="arc" />
      <path
         sodipodi:type="arc"
         style="color:#000000;fill:#f7e684;fill-opacity:1;fill-rule:nonzero;stroke:none;stroke-width:1px;marker:none;visibility:visible;display:inline;overflow:visible;enable-background:accumulate"
         id="path3766"
         sodipodi:cx="70.357124"
         sodipodi:cy="70.987038"
         sodipodi:rx="7.2478447"
         sodipodi:ry="7.2478447"
         d="m 77.604969,70.987038 c 0,4.002874 -3.244971,7.247844 -7.247845,7.247844 -4.002874,0 -7.247844,-3.24497 -7.247844,-7.247844 0,-4.002874 3.24497,-7.247845 7.247844,-7.247845 4.002874,0 7.247845,3.244971 7.247845,7.247845 z"
         transform="translate(202.15852,417.79359)" />
    </g>
    <g
       id="g3749"
       transform="matrix(0.30097313,0,0,0.30097313,220.63928,393.77315)">
      <path
         sodipodi:type="arc"
         style="color:#000000;fill:#9d803e;fill-opacity:1;fill-rule:nonzero;stroke:none;stroke-width:1px;marker:none;visibility:visible;display:inline;overflow:visible;enable-background:accumulate"
         id="path3751"
         sodipodi:cx="70.357124"
         sodipodi:cy="70.987038"
         sodipodi:rx="7.2478447"
         sodipodi:ry="7.2478447"
         d="m 77.604969,70.987038 c 0,4.002874 -3.244971,7.247844 -7.247845,7.247844 -4.002874,0 -7.247844,-3.24497 -7.247844,-7.247844 0,-4.002874 3.24497,-7.247845 7.247844,-7.247845 4.002874,0 7.247845,3.244971 7.247845,7.247845 z"
         transform="matrix(1.0517395,0,0,1.0517395,198.85667,415.04753)" />
      <path
         transform="translate(202.15852,417.79359)"
         d="m 77.604969,70.987038 c 0,4.002874 -3.244971,7.247844 -7.247845,7.247844 -4.002874,0 -7.247844,-3.24497 -7.247844,-7.247844 0,-4.002874 3.24497,-7.247845 7.247844,-7.247845 4.002874,0 7.247845,3.244971 7.247845,7.247845 z"
         sodipodi:ry="7.2478447"
         sodipodi:rx="7.2478447"
         sodipodi:cy="70.987038"
         sodipodi:cx="70.357124"
         id="path3753"
         style="color:#000000;fill:#f7e684;fill-opacity:1;fill-rule:nonzero;stroke:none;stroke-width:1px;marker:none;visibility:visible;display:inline;overflow:visible;enable-background:accumulate"
         sodipodi:type="arc" />
    </g>
    <g
       transform="matrix(0.45021828,0,0,0.45021828,180.43609,326.94485)"
       id="g3731">
      <path
         transform="matrix(1.0517395,0,0,1.0517395,198.85667,415.04753)"
         d="m 77.604969,70.987038 c 0,4.002874 -3.244971,7.247844 -7.247845,7.247844 -4.002874,0 -7.247844,-3.24497 -7.247844,-7.247844 0,-4.002874 3.24497,-7.247845 7.247844,-7.247845 4.002874,0 7.247845,3.244971 7.247845,7.247845 z"
         sodipodi:ry="7.2478447"
         sodipodi:rx="7.2478447"
         sodipodi:cy="70.987038"
         sodipodi:cx="70.357124"
         id="path3733"
         style="color:#000000;fill:#9d803e;fill-opacity:1;fill-rule:nonzero;stroke:none;stroke-width:1px;marker:none;visibility:visible;display:inline;overflow:visible;enable-background:accumulate"
         sodipodi:type="arc" />
      <path
         sodipodi:type="arc"
         style="color:#000000;fill:#f7e684;fill-opacity:1;fill-rule:nonzero;stroke:none;stroke-width:1px;marker:none;visibility:visible;display:inline;overflow:visible;enable-background:accumulate"
         id="path3735"
         sodipodi:cx="70.357124"
         sodipodi:cy="70.987038"
         sodipodi:rx="7.2478447"
         sodipodi:ry="7.2478447"
         d="m 77.604969,70.987038 c 0,4.002874 -3.244971,7.247844 -7.247845,7.247844 -4.002874,0 -7.247844,-3.24497 -7.247844,-7.247844 0,-4.002874 3.24497,-7.247845 7.247844,-7.247845 4.002874,0 7.247845,3.244971 7.247845,7.247845 z"
         transform="translate(202.15852,417.79359)" />
    </g>
    <g
       transform="matrix(0.50239664,0,0,0.50239664,171.81167,295.4553)"
       id="g3671">
      <path
         transform="matrix(1.0517395,0,0,1.0517395,198.85667,415.04753)"
         d="m 77.604969,70.987038 c 0,4.002874 -3.244971,7.247844 -7.247845,7.247844 -4.002874,0 -7.247844,-3.24497 -7.247844,-7.247844 0,-4.002874 3.24497,-7.247845 7.247844,-7.247845 4.002874,0 7.247845,3.244971 7.247845,7.247845 z"
         sodipodi:ry="7.2478447"
         sodipodi:rx="7.2478447"
         sodipodi:cy="70.987038"
         sodipodi:cx="70.357124"
         id="path3673"
         style="color:#000000;fill:#9d803e;fill-opacity:1;fill-rule:nonzero;stroke:none;stroke-width:1px;marker:none;visibility:visible;display:inline;overflow:visible;enable-background:accumulate"
         sodipodi:type="arc" />
      <path
         sodipodi:type="arc"
         style="color:#000000;fill:#f7e684;fill-opacity:1;fill-rule:nonzero;stroke:none;stroke-width:1px;marker:none;visibility:visible;display:inline;overflow:visible;enable-background:accumulate"
         id="path3675"
         sodipodi:cx="70.357124"
         sodipodi:cy="70.987038"
         sodipodi:rx="7.2478447"
         sodipodi:ry="7.2478447"
         d="m 77.604969,70.987038 c 0,4.002874 -3.244971,7.247844 -7.247845,7.247844 -4.002874,0 -7.247844,-3.24497 -7.247844,-7.247844 0,-4.002874 3.24497,-7.247845 7.247844,-7.247845 4.002874,0 7.247845,3.244971 7.247845,7.247845 z"
         transform="translate(202.15852,417.79359)" />
    </g>
    <g
       id="g3677"
       transform="matrix(0.38055656,0,0,0.38055656,198.00246,364.7503)">
      <path
         sodipodi:type="arc"
         style="color:#000000;fill:#9d803e;fill-opacity:1;fill-rule:nonzero;stroke:none;stroke-width:1px;marker:none;visibility:visible;display:inline;overflow:visible;enable-background:accumulate"
         id="path3679"
         sodipodi:cx="70.357124"
         sodipodi:cy="70.987038"
         sodipodi:rx="7.2478447"
         sodipodi:ry="7.2478447"
         d="m 77.604969,70.987038 c 0,4.002874 -3.244971,7.247844 -7.247845,7.247844 -4.002874,0 -7.247844,-3.24497 -7.247844,-7.247844 0,-4.002874 3.24497,-7.247845 7.247844,-7.247845 4.002874,0 7.247845,3.244971 7.247845,7.247845 z"
         transform="matrix(1.0517395,0,0,1.0517395,198.85667,415.04753)" />
      <path
         transform="translate(202.15852,417.79359)"
         d="m 77.604969,70.987038 c 0,4.002874 -3.244971,7.247844 -7.247845,7.247844 -4.002874,0 -7.247844,-3.24497 -7.247844,-7.247844 0,-4.002874 3.24497,-7.247845 7.247844,-7.247845 4.002874,0 7.247845,3.244971 7.247845,7.247845 z"
         sodipodi:ry="7.2478447"
         sodipodi:rx="7.2478447"
         sodipodi:cy="70.987038"
         sodipodi:cx="70.357124"
         id="path3681"
         style="color:#000000;fill:#f7e684;fill-opacity:1;fill-rule:nonzero;stroke:none;stroke-width:1px;marker:none;visibility:visible;display:inline;overflow:visible;enable-background:accumulate"
         sodipodi:type="arc" />
    </g>
    <g
       id="g3683"
       transform="matrix(0.39619634,0,0,0.39619634,194.17123,342.12455)">
      <path
         sodipodi:type="arc"
         style="color:#000000;fill:#9d803e;fill-opacity:1;fill-rule:nonzero;stroke:none;stroke-width:1px;marker:none;visibility:visible;display:inline;overflow:visible;enable-background:accumulate"
         id="path3685"
         sodipodi:cx="70.357124"
         sodipodi:cy="70.987038"
         sodipodi:rx="7.2478447"
         sodipodi:ry="7.2478447"
         d="m 77.604969,70.987038 c 0,4.002874 -3.244971,7.247844 -7.247845,7.247844 -4.002874,0 -7.247844,-3.24497 -7.247844,-7.247844 0,-4.002874 3.24497,-7.247845 7.247844,-7.247845 4.002874,0 7.247845,3.244971 7.247845,7.247845 z"
         transform="matrix(1.0517395,0,0,1.0517395,198.85667,415.04753)" />
      <path
         transform="translate(202.15852,417.79359)"
         d="m 77.604969,70.987038 c 0,4.002874 -3.244971,7.247844 -7.247845,7.247844 -4.002874,0 -7.247844,-3.24497 -7.247844,-7.247844 0,-4.002874 3.24497,-7.247845 7.247844,-7.247845 4.002874,0 7.247845,3.244971 7.247845,7.247845 z"
         sodipodi:ry="7.2478447"
         sodipodi:rx="7.2478447"
         sodipodi:cy="70.987038"
         sodipodi:cx="70.357124"
         id="path3687"
         style="color:#000000;fill:#f7e684;fill-opacity:1;fill-rule:nonzero;stroke:none;stroke-width:1px;marker:none;visibility:visible;display:inline;overflow:visible;enable-background:accumulate"
         sodipodi:type="arc" />
    </g>
    <g
       transform="matrix(0.27310419,0,0,0.27310419,227.42527,432.24455)"
       id="g3689">
      <path
         transform="matrix(1.0517395,0,0,1.0517395,198.85667,415.04753)"
         d="m 77.604969,70.987038 c 0,4.002874 -3.244971,7.247844 -7.247845,7.247844 -4.002874,0 -7.247844,-3.24497 -7.247844,-7.247844 0,-4.002874 3.24497,-7.247845 7.247844,-7.247845 4.002874,0 7.247845,3.244971 7.247845,7.247845 z"
         sodipodi:ry="7.2478447"
         sodipodi:rx="7.2478447"
         sodipodi:cy="70.987038"
         sodipodi:cx="70.357124"
         id="path3691"
         style="color:#000000;fill:#9d803e;fill-opacity:1;fill-rule:nonzero;stroke:none;stroke-width:1px;marker:none;visibility:visible;display:inline;overflow:visible;enable-background:accumulate"
         sodipodi:type="arc" />
      <path
         sodipodi:type="arc"
         style="color:#000000;fill:#f7e684;fill-opacity:1;fill-rule:nonzero;stroke:none;stroke-width:1px;marker:none;visibility:visible;display:inline;overflow:visible;enable-background:accumulate"
         id="path3693"
         sodipodi:cx="70.357124"
         sodipodi:cy="70.987038"
         sodipodi:rx="7.2478447"
         sodipodi:ry="7.2478447"
         d="m 77.604969,70.987038 c 0,4.002874 -3.244971,7.247844 -7.247845,7.247844 -4.002874,0 -7.247844,-3.24497 -7.247844,-7.247844 0,-4.002874 3.24497,-7.247845 7.247844,-7.247845 4.002874,0 7.247845,3.244971 7.247845,7.247845 z"
         transform="translate(202.15852,417.79359)" />
    </g>
    <g
       id="g3695"
       transform="matrix(0.44039582,0,0,0.44039582,182.63121,354.56073)">
      <path
         sodipodi:type="arc"
         style="color:#000000;fill:#9d803e;fill-opacity:1;fill-rule:nonzero;stroke:none;stroke-width:1px;marker:none;visibility:visible;display:inline;overflow:visible;enable-background:accumulate"
         id="path3697"
         sodipodi:cx="70.357124"
         sodipodi:cy="70.987038"
         sodipodi:rx="7.2478447"
         sodipodi:ry="7.2478447"
         d="m 77.604969,70.987038 c 0,4.002874 -3.244971,7.247844 -7.247845,7.247844 -4.002874,0 -7.247844,-3.24497 -7.247844,-7.247844 0,-4.002874 3.24497,-7.247845 7.247844,-7.247845 4.002874,0 7.247845,3.244971 7.247845,7.247845 z"
         transform="matrix(1.0517395,0,0,1.0517395,198.85667,415.04753)" />
      <path
         transform="translate(202.15852,417.79359)"
         d="m 77.604969,70.987038 c 0,4.002874 -3.244971,7.247844 -7.247845,7.247844 -4.002874,0 -7.247844,-3.24497 -7.247844,-7.247844 0,-4.002874 3.24497,-7.247845 7.247844,-7.247845 4.002874,0 7.247845,3.244971 7.247845,7.247845 z"
         sodipodi:ry="7.2478447"
         sodipodi:rx="7.2478447"
         sodipodi:cy="70.987038"
         sodipodi:cx="70.357124"
         id="path3699"
         style="color:#000000;fill:#f7e684;fill-opacity:1;fill-rule:nonzero;stroke:none;stroke-width:1px;marker:none;visibility:visible;display:inline;overflow:visible;enable-background:accumulate"
         sodipodi:type="arc" />
    </g>
    <g
       transform="matrix(0.30215766,0,0,0.30215766,230.79629,411.00194)"
       id="g3701">
      <path
         transform="matrix(1.0517395,0,0,1.0517395,198.85667,415.04753)"
         d="m 77.604969,70.987038 c 0,4.002874 -3.244971,7.247844 -7.247845,7.247844 -4.002874,0 -7.247844,-3.24497 -7.247844,-7.247844 0,-4.002874 3.24497,-7.247845 7.247844,-7.247845 4.002874,0 7.247845,3.244971 7.247845,7.247845 z"
         sodipodi:ry="7.2478447"
         sodipodi:rx="7.2478447"
         sodipodi:cy="70.987038"
         sodipodi:cx="70.357124"
         id="path3703"
         style="color:#000000;fill:#9d803e;fill-opacity:1;fill-rule:nonzero;stroke:none;stroke-width:1px;marker:none;visibility:visible;display:inline;overflow:visible;enable-background:accumulate"
         sodipodi:type="arc" />
      <path
         sodipodi:type="arc"
         style="color:#000000;fill:#f7e684;fill-opacity:1;fill-rule:nonzero;stroke:none;stroke-width:1px;marker:none;visibility:visible;display:inline;overflow:visible;enable-background:accumulate"
         id="path3705"
         sodipodi:cx="70.357124"
         sodipodi:cy="70.987038"
         sodipodi:rx="7.2478447"
         sodipodi:ry="7.2478447"
         d="m 77.604969,70.987038 c 0,4.002874 -3.244971,7.247844 -7.247845,7.247844 -4.002874,0 -7.247844,-3.24497 -7.247844,-7.247844 0,-4.002874 3.24497,-7.247845 7.247844,-7.247845 4.002874,0 7.247845,3.244971 7.247845,7.247845 z"
         transform="translate(202.15852,417.79359)" />
    </g>
    <g
       id="g3707"
       transform="matrix(0.20376919,0,0,0.20376919,248.89198,462.12921)">
      <path
         sodipodi:type="arc"
         style="color:#000000;fill:#9d803e;fill-opacity:1;fill-rule:nonzero;stroke:none;stroke-width:1px;marker:none;visibility:visible;display:inline;overflow:visible;enable-background:accumulate"
         id="path3709"
         sodipodi:cx="70.357124"
         sodipodi:cy="70.987038"
         sodipodi:rx="7.2478447"
         sodipodi:ry="7.2478447"
         d="m 77.604969,70.987038 c 0,4.002874 -3.244971,7.247844 -7.247845,7.247844 -4.002874,0 -7.247844,-3.24497 -7.247844,-7.247844 0,-4.002874 3.24497,-7.247845 7.247844,-7.247845 4.002874,0 7.247845,3.244971 7.247845,7.247845 z"
         transform="matrix(1.0517395,0,0,1.0517395,198.85667,415.04753)" />
      <path
         transform="translate(202.15852,417.79359)"
         d="m 77.604969,70.987038 c 0,4.002874 -3.244971,7.247844 -7.247845,7.247844 -4.002874,0 -7.247844,-3.24497 -7.247844,-7.247844 0,-4.002874 3.24497,-7.247845 7.247844,-7.247845 4.002874,0 7.247845,3.244971 7.247845,7.247845 z"
         sodipodi:ry="7.2478447"
         sodipodi:rx="7.2478447"
         sodipodi:cy="70.987038"
         sodipodi:cx="70.357124"
         id="path3711"
         style="color:#000000;fill:#f7e684;fill-opacity:1;fill-rule:nonzero;stroke:none;stroke-width:1px;marker:none;visibility:visible;display:inline;overflow:visible;enable-background:accumulate"
         sodipodi:type="arc" />
    </g>
    <g
       transform="matrix(0.20540172,0,0,0.20540172,246.54997,459.14442)"
       id="g3713">
      <path
         transform="matrix(1.0517395,0,0,1.0517395,198.85667,415.04753)"
         d="m 77.604969,70.987038 c 0,4.002874 -3.244971,7.247844 -7.247845,7.247844 -4.002874,0 -7.247844,-3.24497 -7.247844,-7.247844 0,-4.002874 3.24497,-7.247845 7.247844,-7.247845 4.002874,0 7.247845,3.244971 7.247845,7.247845 z"
         sodipodi:ry="7.2478447"
         sodipodi:rx="7.2478447"
         sodipodi:cy="70.987038"
         sodipodi:cx="70.357124"
         id="path3715"
         style="color:#000000;fill:#9d803e;fill-opacity:1;fill-rule:nonzero;stroke:none;stroke-width:1px;marker:none;visibility:visible;display:inline;overflow:visible;enable-background:accumulate"
         sodipodi:type="arc" />
      <path
         sodipodi:type="arc"
         style="color:#000000;fill:#f7e684;fill-opacity:1;fill-rule:nonzero;stroke:none;stroke-width:1px;marker:none;visibility:visible;display:inline;overflow:visible;enable-background:accumulate"
         id="path3717"
         sodipodi:cx="70.357124"
         sodipodi:cy="70.987038"
         sodipodi:rx="7.2478447"
         sodipodi:ry="7.2478447"
         d="m 77.604969,70.987038 c 0,4.002874 -3.244971,7.247844 -7.247845,7.247844 -4.002874,0 -7.247844,-3.24497 -7.247844,-7.247844 0,-4.002874 3.24497,-7.247845 7.247844,-7.247845 4.002874,0 7.247845,3.244971 7.247845,7.247845 z"
         transform="translate(202.15852,417.79359)" />
    </g>
    <g
       transform="matrix(0.20376919,0,0,0.20376919,247.56615,477.15523)"
       id="g3719">
      <path
         transform="matrix(1.0517395,0,0,1.0517395,198.85667,415.04753)"
         d="m 77.604969,70.987038 c 0,4.002874 -3.244971,7.247844 -7.247845,7.247844 -4.002874,0 -7.247844,-3.24497 -7.247844,-7.247844 0,-4.002874 3.24497,-7.247845 7.247844,-7.247845 4.002874,0 7.247845,3.244971 7.247845,7.247845 z"
         sodipodi:ry="7.2478447"
         sodipodi:rx="7.2478447"
         sodipodi:cy="70.987038"
         sodipodi:cx="70.357124"
         id="path3721"
         style="color:#000000;fill:#9d803e;fill-opacity:1;fill-rule:nonzero;stroke:none;stroke-width:1px;marker:none;visibility:visible;display:inline;overflow:visible;enable-background:accumulate"
         sodipodi:type="arc" />
      <path
         sodipodi:type="arc"
         style="color:#000000;fill:#f7e684;fill-opacity:1;fill-rule:nonzero;stroke:none;stroke-width:1px;marker:none;visibility:visible;display:inline;overflow:visible;enable-background:accumulate"
         id="path3723"
         sodipodi:cx="70.357124"
         sodipodi:cy="70.987038"
         sodipodi:rx="7.2478447"
         sodipodi:ry="7.2478447"
         d="m 77.604969,70.987038 c 0,4.002874 -3.244971,7.247844 -7.247845,7.247844 -4.002874,0 -7.247844,-3.24497 -7.247844,-7.247844 0,-4.002874 3.24497,-7.247845 7.247844,-7.247845 4.002874,0 7.247845,3.244971 7.247845,7.247845 z"
         transform="translate(202.15852,417.79359)" />
    </g>
    <g
       id="g3737"
       transform="matrix(0.23383196,0,0,0.23383196,243.66212,441.04146)">
      <path
         sodipodi:type="arc"
         style="color:#000000;fill:#9d803e;fill-opacity:1;fill-rule:nonzero;stroke:none;stroke-width:1px;marker:none;visibility:visible;display:inline;overflow:visible;enable-background:accumulate"
         id="path3739"
         sodipodi:cx="70.357124"
         sodipodi:cy="70.987038"
         sodipodi:rx="7.2478447"
         sodipodi:ry="7.2478447"
         d="m 77.604969,70.987038 c 0,4.002874 -3.244971,7.247844 -7.247845,7.247844 -4.002874,0 -7.247844,-3.24497 -7.247844,-7.247844 0,-4.002874 3.24497,-7.247845 7.247844,-7.247845 4.002874,0 7.247845,3.244971 7.247845,7.247845 z"
         transform="matrix(1.0517395,0,0,1.0517395,198.85667,415.04753)" />
      <path
         transform="translate(202.15852,417.79359)"
         d="m 77.604969,70.987038 c 0,4.002874 -3.244971,7.247844 -7.247845,7.247844 -4.002874,0 -7.247844,-3.24497 -7.247844,-7.247844 0,-4.002874 3.24497,-7.247845 7.247844,-7.247845 4.002874,0 7.247845,3.244971 7.247845,7.247845 z"
         sodipodi:ry="7.2478447"
         sodipodi:rx="7.2478447"
         sodipodi:cy="70.987038"
         sodipodi:cx="70.357124"
         id="path3741"
         style="color:#000000;fill:#f7e684;fill-opacity:1;fill-rule:nonzero;stroke:none;stroke-width:1px;marker:none;visibility:visible;display:inline;overflow:visible;enable-background:accumulate"
         sodipodi:type="arc" />
    </g>
    <g
       transform="matrix(0.16426081,0,0,0.16426081,266.18042,472.06738)"
       id="g3743">
      <path
         transform="matrix(1.0517395,0,0,1.0517395,198.85667,415.04753)"
         d="m 77.604969,70.987038 c 0,4.002874 -3.244971,7.247844 -7.247845,7.247844 -4.002874,0 -7.247844,-3.24497 -7.247844,-7.247844 0,-4.002874 3.24497,-7.247845 7.247844,-7.247845 4.002874,0 7.247845,3.244971 7.247845,7.247845 z"
         sodipodi:ry="7.2478447"
         sodipodi:rx="7.2478447"
         sodipodi:cy="70.987038"
         sodipodi:cx="70.357124"
         id="path3745"
         style="color:#000000;fill:#9d803e;fill-opacity:1;fill-rule:nonzero;stroke:none;stroke-width:1px;marker:none;visibility:visible;display:inline;overflow:visible;enable-background:accumulate"
         sodipodi:type="arc" />
      <path
         sodipodi:type="arc"
         style="color:#000000;fill:#f7e684;fill-opacity:1;fill-rule:nonzero;stroke:none;stroke-width:1px;marker:none;visibility:visible;display:inline;overflow:visible;enable-background:accumulate"
         id="path3747"
         sodipodi:cx="70.357124"
         sodipodi:cy="70.987038"
         sodipodi:rx="7.2478447"
         sodipodi:ry="7.2478447"
         d="m 77.604969,70.987038 c 0,4.002874 -3.244971,7.247844 -7.247845,7.247844 -4.002874,0 -7.247844,-3.24497 -7.247844,-7.247844 0,-4.002874 3.24497,-7.247845 7.247844,-7.247845 4.002874,0 7.247845,3.244971 7.247845,7.247845 z"
         transform="translate(202.15852,417.79359)" />
    </g>
  </g>
</svg>
