<?xml version="1.0" encoding="UTF-8" standalone="no"?>
<svg
   xmlns:dc="http://purl.org/dc/elements/1.1/"
   xmlns:cc="http://creativecommons.org/ns#"
   xmlns:rdf="http://www.w3.org/1999/02/22-rdf-syntax-ns#"
   xmlns:svg="http://www.w3.org/2000/svg"
   xmlns="http://www.w3.org/2000/svg"
   xmlns:xlink="http://www.w3.org/1999/xlink"
   height="48"
   width="128"
   version="1.1"
   id="svg2">
  <metadata
     id="metadata8">
    <rdf:RDF>
      <cc:Work
         rdf:about="">
        <dc:format>image/svg+xml</dc:format>
        <dc:type
           rdf:resource="http://purl.org/dc/dcmitype/StillImage" />
        <dc:title></dc:title>
        <cc:license
           rdf:resource="" />
        <dc:creator>
          <cc:Agent>
            <dc:title>Carlos Vives B.</dc:title>
          </cc:Agent>
        </dc:creator>
      </cc:Work>
    </rdf:RDF>
  </metadata>
  <defs
     id="defs6">
    <linearGradient
       id="linearGradient3617">
      <stop
         id="stop3619"
         offset="0"
         style="stop-color:#47243e;stop-opacity:0.97604793" />
      <stop
         id="stop3621"
         offset="0.52097768"
         style="stop-color:#47243e;stop-opacity:0.57485032" />
      <stop
         id="stop3623"
         offset="1"
         style="stop-color:#47243e;stop-opacity:0" />
    </linearGradient>
    <linearGradient
       id="linearGradient3605">
      <stop
         style="stop-color:#545c9d;stop-opacity:1;"
         offset="0"
         id="stop3607" />
      <stop
         style="stop-color:#545c9d;stop-opacity:0.24705882;"
         offset="0.5907774"
         id="stop3613" />
      <stop
         style="stop-color:#545c9d;stop-opacity:0;"
         offset="1"
         id="stop3611" />
    </linearGradient>
    <linearGradient
       id="linearGradient3718">
      <stop
         id="stop3720"
         offset="0"
         style="stop-color:#545c9d;stop-opacity:1;" />
      <stop
         style="stop-color:#545c9d;stop-opacity:0.49803922;"
         offset="0.5"
         id="stop3603" />
      <stop
         id="stop3722"
         offset="1"
         style="stop-color:#545c9d;stop-opacity:0;" />
    </linearGradient>
    <linearGradient
       id="linearGradient3706">
      <stop
         id="stop3708"
         offset="0"
         style="stop-color:#9aa3dc;stop-opacity:1;" />
      <stop
         id="stop3710"
         offset="1"
         style="stop-color:#9aa3dc;stop-opacity:0;" />
    </linearGradient>
    <linearGradient
       gradientUnits="userSpaceOnUse"
       y2="48"
       x2="64"
       y1="31.882462"
       x1="64"
       id="linearGradient3724"
       xlink:href="#linearGradient3605" />
    <linearGradient
       y2="48"
       x2="64"
       y1="39.058487"
       x1="64"
       gradientUnits="userSpaceOnUse"
       id="linearGradient3728"
       xlink:href="#linearGradient3718" />
    <linearGradient
       y2="48"
       x2="64"
       y1="39.058487"
       x1="64"
       gradientUnits="userSpaceOnUse"
       id="linearGradient3733"
       xlink:href="#linearGradient3718" />
    <linearGradient
       y2="48"
       x2="64"
       y1="39.058487"
       x1="64"
       gradientUnits="userSpaceOnUse"
       id="linearGradient3738"
       xlink:href="#linearGradient3718" />
    <linearGradient
       y2="48"
       x2="64"
       y1="39.058487"
       x1="64"
       gradientUnits="userSpaceOnUse"
       id="linearGradient3743"
       xlink:href="#linearGradient3718" />
    <linearGradient
       y2="48"
       x2="64"
       y1="31.882462"
       x1="64"
       gradientUnits="userSpaceOnUse"
       id="linearGradient3615"
       xlink:href="#linearGradient3617" />
  </defs>
  <path
     id="rect2818"
     d="M 64 2 C 38.959039 2 20.132303 14 0 14 L 0 32.5 C 20.035226 32.5 38.95904 20.5 64 20.5 C 89.040961 20.5 107.56704 32.5 128 32.5 L 128 14 C 107.61504 14 89.040961 2 64 2 z "
     style="color:#000000;fill:#7d3e54;fill-opacity:1;fill-rule:nonzero;stroke:none;stroke-width:0;stroke-linecap:round;stroke-linejoin:round;stroke-miterlimit:4;stroke-opacity:1;stroke-dashoffset:0;marker:none;visibility:visible;display:inline;overflow:visible;enable-background:accumulate" />
  <path
     id="path3595"
     d="M 64 5 C 38.959039 5 19.996219 17 0 17 L 0 32.5 C 20.035226 32.5 38.95904 20.5 64 20.5 C 89.040961 20.5 107.56704 32.5 128 32.5 L 128 17 C 107.44342 17 89.040961 5 64 5 z "
     style="color:#000000;fill:#6a354b;fill-opacity:1;fill-rule:nonzero;stroke:none;stroke-width:0;stroke-linecap:round;stroke-linejoin:round;stroke-miterlimit:4;stroke-opacity:1;stroke-dashoffset:0;marker:none;visibility:visible;display:inline;overflow:visible;enable-background:accumulate" />
  <path
     id="path3597"
     d="M 64 9.25 C 38.959039 9.25 19.95839 21.25 0 21.25 L 0 32.5 C 20.035226 32.5 38.95904 20.5 64 20.5 C 89.04096 20.5 107.56704 32.5 128 32.5 L 128 21.25 C 108.02065 21.25 89.040961 9.25 64 9.25 z "
     style="color:#000000;fill:#5a2d45;fill-opacity:1;fill-rule:nonzero;stroke:none;stroke-width:0;stroke-linecap:round;stroke-linejoin:round;stroke-miterlimit:4;stroke-opacity:1;stroke-dashoffset:0;marker:none;visibility:visible;display:inline;overflow:visible;enable-background:accumulate" />
  <path
     id="path3599"
     d="M 64 14.5 C 38.959039 14.5 19.95839 26.5 0 26.5 L 0 32.5 C 20.035226 32.5 38.95904 20.5 64 20.5 C 89.04096 20.5 107.56704 32.5 128 32.5 L 128 26.5 C 108.1723 26.5 89.040961 14.5 64 14.5 z "
     style="color:#000000;fill:#502941;fill-opacity:1;fill-rule:nonzero;stroke:none;stroke-width:0;stroke-linecap:round;stroke-linejoin:round;stroke-miterlimit:4;stroke-opacity:1;stroke-dashoffset:0;marker:none;visibility:visible;display:inline;overflow:visible;enable-background:accumulate" />
  <path
     style="color:#000000;fill:url(#linearGradient3615);fill-opacity:1;fill-rule:nonzero;stroke:none;stroke-width:0;marker:none;visibility:visible;display:inline;overflow:visible;enable-background:accumulate"
     d="m 64,20.146447 c -25.04096,0 -43.964774,12 -64,12 L 0,48 l 128,0 0,-15.853553 c -20.43296,0 -38.959039,-12 -64,-12 z"
     id="path3691" />
  <rect
     ry="128"
     rx="128"
     height="0"
     width="0"
     y="12.273567"
     x="94.876152"
     id="rect3603"
     style="color:#000000;fill:#545c9d;fill-opacity:1;fill-rule:nonzero;stroke:#9aa3dc;stroke-width:0;stroke-linecap:round;stroke-linejoin:round;stroke-miterlimit:4;stroke-opacity:1;stroke-dasharray:none;stroke-dashoffset:0;marker:none;visibility:visible;display:inline;overflow:visible;enable-background:accumulate" />
</svg>
