<?xml version="1.0" encoding="UTF-8" standalone="no"?>
<!-- Created with Inkscape (http://www.inkscape.org/) -->

<svg
   xmlns:dc="http://purl.org/dc/elements/1.1/"
   xmlns:cc="http://creativecommons.org/ns#"
   xmlns:rdf="http://www.w3.org/1999/02/22-rdf-syntax-ns#"
   xmlns:svg="http://www.w3.org/2000/svg"
   xmlns="http://www.w3.org/2000/svg"
   xmlns:xlink="http://www.w3.org/1999/xlink"
   xmlns:sodipodi="http://sodipodi.sourceforge.net/DTD/sodipodi-0.dtd"
   xmlns:inkscape="http://www.inkscape.org/namespaces/inkscape"
   id="svg2"
   version="1.1"
   inkscape:version="0.48.3.1 r9886"
   width="450"
   height="470"
   sodipodi:docname="cleaver.svg">
  <metadata
     id="metadata8">
    <rdf:RDF>
      <cc:Work
         rdf:about="">
        <dc:format>image/svg+xml</dc:format>
        <dc:type
           rdf:resource="http://purl.org/dc/dcmitype/StillImage" />
        <dc:title></dc:title>
      </cc:Work>
    </rdf:RDF>
  </metadata>
  <defs
     id="defs6">
    <linearGradient
       id="linearGradient3767">
      <stop
         style="stop-color:#6a6a6a;stop-opacity:1;"
         offset="0"
         id="stop3769" />
      <stop
         style="stop-color:#dbdbdb;stop-opacity:1;"
         offset="1"
         id="stop3771" />
    </linearGradient>
    <linearGradient
       inkscape:collect="always"
       xlink:href="#linearGradient3767"
       id="linearGradient3856"
       gradientUnits="userSpaceOnUse"
       x1="183.86975"
       y1="213.57822"
       x2="323.47919"
       y2="103.38492" />
    <linearGradient
       inkscape:collect="always"
       xlink:href="#linearGradient3767"
       id="linearGradient3882"
       gradientUnits="userSpaceOnUse"
       x1="183.86975"
       y1="213.57822"
       x2="326.20184"
       y2="120.35856"
       gradientTransform="matrix(1.0972003,0,0,0.76264827,-18.838734,68.569149)" />
  </defs>
  <sodipodi:namedview
     pagecolor="#ffffff"
     bordercolor="#666666"
     borderopacity="1"
     objecttolerance="10"
     gridtolerance="10"
     guidetolerance="10"
     inkscape:pageopacity="0"
     inkscape:pageshadow="2"
     inkscape:window-width="1242"
     inkscape:window-height="868"
     id="namedview4"
     showgrid="false"
     inkscape:zoom="1.0042553"
     inkscape:cx="205.71997"
     inkscape:cy="192.5461"
     inkscape:window-x="0"
     inkscape:window-y="25"
     inkscape:window-maximized="0"
     inkscape:current-layer="svg2" />
  <path
     sodipodi:nodetypes="cccccssssss"
     inkscape:connector-curvature="0"
     style="fill:url(#linearGradient3882);fill-opacity:1;stroke:#222222;stroke-width:5;stroke-linecap:butt;stroke-linejoin:round;stroke-miterlimit:4;stroke-opacity:1;stroke-dasharray:none"
     d="M 225.90551,108.67968 C 182.87572,133.43708 155.21472,164.45472 132.53094,196.82022 195.69872,221.91543 199.95162,252.4674 204.03008,290.30913 255.29581,289.41319 296.87745,280.50855 329.72809,249.74578 324.96182,204.42109 289.52086,128.98334 225.90551,108.67968 z M 225.59692,129.27118 C 228.29612,129.16913 230.95971,129.51441 233.3459,130.39132 240.98173,133.19744 242.87403,140.27073 237.56326,146.16861 232.25249,152.06649 221.74644,154.57543 214.1106,151.76931 206.47477,148.96319 204.61676,141.8899 209.92753,135.99202 213.57868,131.93723 219.65867,129.49572 225.59692,129.27118 z"
     id="path2987"
     inkscape:export-filename="/tmp/path3817-7.png"
     inkscape:export-xdpi="21.549999"
     inkscape:export-ydpi="21.549999" />
  <path
     inkscape:connector-curvature="0"
     style="fill:#cfcfcf;fill-opacity:1;stroke:#222222;stroke-width:5;stroke-miterlimit:4;stroke-opacity:1;stroke-dasharray:none"
     d="M 225.97408,109.10867 205.09299,122.71718 C 210.13058,125.22056 214.88743,127.7568 219.39088,130.31983 224.01197,128.93641 229.11177,128.83531 233.3459,130.39132 239.7278,132.73663 242.08226,138.06415 239.58622,143.18952 290.70676,179.79427 298.47819,221.3 311.00711,262.82996 316.92444,259.29111 323.72772,254.63048 329.28235,249.57895 322.93255,198.81501 291.29561,132.47714 225.97408,109.10867 z"
     id="path3759"
     inkscape:export-filename="/tmp/path3817-7.png"
     inkscape:export-xdpi="21.549999"
     inkscape:export-ydpi="21.549999" />
  <path
     transform="matrix(1.090887,0.40089412,-0.66619266,0.73984055,45.886101,-17.883965)"
     d="M 233.7647,95.061127 A 12.67399,14.434267 0 1 1 208.41672,95.061127 12.67399,14.434267 0 1 1 233.7647,95.061127 z"
     sodipodi:ry="14.434267"
     sodipodi:rx="12.67399"
     sodipodi:cy="95.061127"
     sodipodi:cx="221.09071"
     id="path3779"
     style="fill:none;stroke:none"
     sodipodi:type="arc"
     inkscape:export-filename="/tmp/path3817-7.png"
     inkscape:export-xdpi="21.549999"
     inkscape:export-ydpi="21.549999" />
  <path
     style="fill:#c6ba88;fill-opacity:1;stroke:#222222;stroke-width:4;stroke-linecap:round;stroke-linejoin:round;stroke-miterlimit:4;stroke-opacity:1;stroke-dasharray:none"
     d="M 203.34878,290.82382 C 202.57349,309.63771 200.72506,324.14058 187.80748,338.35174 188.46168,347.80203 193.86915,347.27331 198.72527,347.90208 234.16583,334.60641 229.03629,309.93407 231.57515,289.00247 z"
     id="path3761"
     inkscape:connector-curvature="0"
     sodipodi:nodetypes="ccccc"
     inkscape:export-filename="/tmp/path3817-7.png"
     inkscape:export-xdpi="21.549999"
     inkscape:export-ydpi="21.549999" />
  <path
     style="fill:#c8ac1d;fill-opacity:1;stroke:#222222;stroke-width:3.28770398999999980;stroke-linecap:butt;stroke-linejoin:miter;stroke-miterlimit:4;stroke-opacity:1;stroke-dasharray:none"
     d="M 203.44706,291.39151 203.1569,297.94586 230.81974,297.29852 231.10991,289.04487 z"
     id="path3809"
     inkscape:connector-curvature="0"
     sodipodi:nodetypes="ccccc"
     inkscape:export-filename="/tmp/path3817-7.png"
     inkscape:export-xdpi="21.549999"
     inkscape:export-ydpi="21.549999" />
  <path
     style="fill:none;stroke:#000000;stroke-width:2;stroke-linecap:round;stroke-linejoin:round;stroke-miterlimit:4;stroke-opacity:1;stroke-dasharray:none"
     d="M 200.17035,335.78701 C 201.22805,337.23038 202.66678,337.76213 204.2423,337.96662"
     id="path3817"
     inkscape:connector-curvature="0"
     sodipodi:nodetypes="cc"
     inkscape:export-xdpi="21.549999"
     inkscape:export-ydpi="21.549999" />
  <path
     style="fill:none;stroke:#000000;stroke-width:3;stroke-linecap:round;stroke-linejoin:round;stroke-miterlimit:4;stroke-opacity:1;stroke-dasharray:none"
     d="M 210.76291,320.56732 C 213.14437,322.15978 215.38854,322.14589 217.58341,321.55533"
     id="path3817-6"
     inkscape:connector-curvature="0"
     sodipodi:nodetypes="cc"
     inkscape:export-filename="/tmp/path3817-7.png"
     inkscape:export-xdpi="21.549999"
     inkscape:export-ydpi="21.549999" />
  <path
     style="fill:none;stroke:#000000;stroke-width:2.5;stroke-linecap:round;stroke-linejoin:round;stroke-miterlimit:4;stroke-opacity:1;stroke-dasharray:none"
     d="M 206.01411,328.26521 C 207.84525,329.83412 210.01071,330.27207 212.29617,330.30402"
     id="path3817-7"
     inkscape:connector-curvature="0"
     sodipodi:nodetypes="cc"
     inkscape:export-xdpi="21.549999"
     inkscape:export-ydpi="21.549999" />
</svg>
