<?xml version="1.0" encoding="UTF-8" standalone="no"?>
<!-- Created with Inkscape (http://www.inkscape.org/) -->

<svg
   xmlns:dc="http://purl.org/dc/elements/1.1/"
   xmlns:cc="http://creativecommons.org/ns#"
   xmlns:rdf="http://www.w3.org/1999/02/22-rdf-syntax-ns#"
   xmlns:svg="http://www.w3.org/2000/svg"
   xmlns="http://www.w3.org/2000/svg"
   xmlns:sodipodi="http://sodipodi.sourceforge.net/DTD/sodipodi-0.dtd"
   xmlns:inkscape="http://www.inkscape.org/namespaces/inkscape"
   width="800"
   height="800"
   id="svg2902"
   version="1.1"
   inkscape:version="0.47pre4 r22446"
   sodipodi:docname="hedgehog.svg">
  <defs
     id="defs2904">
    <inkscape:perspective
       sodipodi:type="inkscape:persp3d"
       inkscape:vp_x="0 : 526.18109 : 1"
       inkscape:vp_y="0 : 1000 : 0"
       inkscape:vp_z="744.09448 : 526.18109 : 1"
       inkscape:persp3d-origin="372.04724 : 350.78739 : 1"
       id="perspective2910" />
    <inkscape:perspective
       id="perspective2941"
       inkscape:persp3d-origin="0.5 : 0.33333333 : 1"
       inkscape:vp_z="1 : 0.5 : 1"
       inkscape:vp_y="0 : 1000 : 0"
       inkscape:vp_x="0 : 0.5 : 1"
       sodipodi:type="inkscape:persp3d" />
  </defs>
  <sodipodi:namedview
     id="base"
     pagecolor="#ffffff"
     bordercolor="#666666"
     borderopacity="1.0"
     inkscape:pageopacity="0.0"
     inkscape:pageshadow="2"
     inkscape:zoom="1.4"
     inkscape:cx="438.13782"
     inkscape:cy="640.11259"
     inkscape:document-units="px"
     inkscape:current-layer="layer1"
     showgrid="false"
     inkscape:window-width="1680"
     inkscape:window-height="975"
     inkscape:window-x="0"
     inkscape:window-y="25"
     inkscape:window-maximized="1" />
  <metadata
     id="metadata2907">
    <rdf:RDF>
      <cc:Work
         rdf:about="">
        <dc:format>image/svg+xml</dc:format>
        <dc:type
           rdf:resource="http://purl.org/dc/dcmitype/StillImage" />
        <dc:title></dc:title>
      </cc:Work>
    </rdf:RDF>
  </metadata>
  <g
     inkscape:label="Layer 1"
     inkscape:groupmode="layer"
     id="layer1"
     transform="translate(5.6478894,-85.928725)">
    <rect
       style="fill:#ffffff;fill-opacity:1;fill-rule:evenodd;stroke:#000000;stroke-width:0.93029636px;stroke-linecap:butt;stroke-linejoin:miter;stroke-opacity:1"
       id="rect2967"
       width="257.21255"
       height="207.21257"
       x="438.53656"
       y="352.32733"
       ry="74.285713" />
    <path
       id="path2959"
       d="m 310.1438,776.4851 c -54.2821,10.16661 -108.35993,-12.10675 -126.67772,-70.33412 -8.72398,-26.6232 2.99567,-43.23745 22.06206,-64.08827 -20.56383,-113.38814 -60.02034,-193.02462 41.46609,-310.49945 91.3149,-119.40833 221.78544,-74.65587 280.45129,-65.7304 77.25716,15.72787 110.52159,50.40793 151.63348,117.89919 28.75392,32.2372 22.66378,78.81799 36.42706,115.20246 16.61077,0.1488 16.46102,11.69378 19.43298,13.37104 31.84595,17.97276 39.18449,38.27752 35.26867,73.9101 -4.73378,43.07545 -34.37761,73.89669 -81.06725,80.28144 -4.61917,0.63166 -10.53099,-0.43363 -12.26437,-0.18477 -2.54823,0.36587 -5.68526,4.78972 -10.3524,11.04062 -13.06481,17.49816 -29.43816,34.83699 -45.40212,47.91096 -4.21358,3.45079 -13.61748,7.5754 -10.43454,9.85194 29.61943,29.1674 18.83358,71.74853 2.57444,104.13003 L 473.13104,834.67056 C 379.5485,882.95661 327.58312,772.61294 310.1438,776.4851 z M 570.10378,555.92724 c 12.90354,-5.36401 25.57239,-15.63481 33.34039,-27.02949 3.01169,-4.41777 4.3767,-5.6594 5.63812,-5.12849 9.98374,4.20202 17.04321,5.61395 26.29968,5.26004 8.71384,-0.33317 10.33633,-0.7213 17.2038,-4.11538 9.85546,-4.87084 17.8331,-12.5504 23.2981,-25.22006 5.91129,-13.70431 7.08549,-19.73825 8.15475,-32.84025 0.73271,-8.89157 -0.66826,-26.20605 -3.00093,-34.94412 -6.8568,-25.68531 -18.2112,-44.87931 -34.56538,-58.43095 -14.24718,-11.8057 -24.86406,-15.87647 -39.7294,-15.23323 -7.50579,0.32479 -10.09374,0.90617 -15.51458,3.48535 -3.57835,1.70255 -8.91008,5.17884 -11.84827,7.72511 l -5.34219,4.62957 -4.16675,-2.55593 C 552.973,361.16394 539.98247,356.922 525.16631,356.93144 c -15.50636,0.0102 -27.75306,4.35633 -39.72843,14.09988 -17.22517,14.01491 -27.82281,35.89263 -30.53292,63.032 -2.1531,21.56152 2.33556,44.376 13.1095,66.63149 13.38264,27.64425 34.56609,47.46838 59.15373,55.35789 9.23124,2.96205 10.10864,3.0638 24.02256,2.78565 10.93308,-0.21856 13.31942,-0.58585 18.91303,-2.91111 z"
       style="fill:#f29ce7;fill-opacity:1"
       sodipodi:nodetypes="cccccccsssssscccccssssssssscccsssssscc" />
    <path
       id="path2957"
       d="M 313.64185,771.62967 C 251.45327,776.69025 197.35627,760.59257 181.33638,690.5377 81.486091,676.10069 67.67501,675.28159 142.55996,599.99504 180.29082,547.76612 129.79493,549.9873 128.58373,548.87347 -20.665505,442.48727 112.33291,422.42609 167.58332,389.58418 c 0.20922,-0.62764 8.69571,-17.73211 15.5245,-47.82761 1.53745,-6.77574 21.88122,-43.37792 21.04666,-47.82651 246.52042,-52.06651 430.48925,-83.26697 509.55971,196.58195 58.70262,84.92529 78.19622,111.88289 -40.36661,175.48811 l -65.97033,68.72275 c 42.36376,55.09424 27.03352,99.89627 -41.40786,130.96269 L 472.26276,833.687 c -61.6668,65.8773 -131.4204,8.67632 -158.62091,-62.05733 z m 267.13941,55.94479 c 8.32498,-2.19983 21.41976,-8.60734 25.08883,-12.2764 6.41911,-6.41912 13.82728,-26.59537 10.29892,-39.84722 -2.66131,-9.99534 -17.54518,-32.41011 -20.49185,-32.41011 -0.55286,0 -8.71275,5.12401 -15.95055,9.20416 -22.80175,12.85397 -37.94043,20.60745 -66.30249,27.76657 l -17.71429,2.86255 0.76356,6.97405 c -0.46503,4.60013 3.28475,10.88495 11.20157,18.77439 10.09824,10.06331 25.03373,17.87966 38.96922,20.39416 7.16844,1.29347 26.94648,0.45793 34.13708,-1.44215 z m -132.36263,-5.24167 c 11.18665,-3.85724 20.46934,-9.69144 22.93797,-14.94324 1.73964,-3.70091 5.43071,-14.83294 6.49593,-16.70745 2.49991,-4.39919 -14.93402,-3.72327 -28.82143,-3.73608 -31.67509,-0.0292 -39.71293,-0.13735 -73.46966,-8.58111 -8.96019,-2.24126 -18.67373,-5.97825 -18.9666,-5.68539 -0.62698,0.62698 2.40445,9.24797 8.06667,18.84086 7.59581,12.86878 20.89659,23.97386 35.77778,29.87161 9.28503,3.67986 15.60303,4.609 28.47934,4.18823 9.04001,-0.2954 12.7122,-0.90695 19.5,-3.24743 z M 317.36242,736.61433 c 8.44354,-2.34159 19.84999,-7.25495 25.20156,-10.85564 7.89845,-5.31431 15.06263,-16.14385 15.17742,-32.0751 0.11755,-16.31607 -6.60231,-32.26857 -19.9107,-45.5 -16.72389,-16.62718 -38.54966,-24.84891 -63.9246,-24.88369 -14.56265,-0.02 -28.90859,3.64009 -41.60073,9.80101 -11.24469,5.45832 -14.31182,13.62684 -16.11117,19.93982 -0.70544,2.475 -1.31194,9.9 -1.34778,16.5 -0.0528,9.73125 0.3537,13.33129 2.1503,19.04153 7.19484,22.86775 32.83888,43.80362 59.92887,48.92608 9.80901,1.85479 32.31952,1.35711 40.43683,-0.89401 z m 218.91883,-32.08945 c 42.07126,-6.551 83.67019,-24.35108 118.0234,-50.50195 10.96532,-8.3472 14.26131,-12.61114 22.01639,-28.4822 10.47498,-21.43741 17.46405,-43.34252 22.09328,-69.24459 2.87823,-16.10469 8.73784,-57.90484 6.59781,-75.8011 C 671.94128,346.9261 588.6541,258.51127 445.26603,258.02589 c -31.2505,0.0231 -41.3737,1.75436 -65.97307,8.4963 -33.06037,9.06084 -64.24393,28.58568 -90.15798,49.27354 -12.66496,10.11077 -14.69832,12.64105 -21.44744,26.68885 -10.75028,22.3759 -18.58509,49.0834 -22.60491,77.05615 -1.72247,11.98617 -1.69443,53.06109 0.0447,65.5 5.77599,41.31165 19.82774,77.85845 42.84447,111.43295 l 6.80945,9.93295 9.5,2.67664 c 19.74998,5.5646 33.20231,13.05441 46.33325,25.79681 7.73908,7.51009 16.84745,21.4341 20.25184,30.95909 1.51397,4.23586 3.21473,8.30377 3.77946,9.0398 1.51884,1.97952 16.47796,9.25754 29.99908,14.59538 20.27096,8.00252 47.09013,14.48681 68.63637,16.59478 13.0234,1.27414 50.85543,0.3468 63,-1.54425 z m 28.78105,-99.43036 c -9.31862,-1.276 -14.05377,-5.71413 -14.05377,-13.17224 0,-2.80924 0.65729,-4.71055 2.14156,-6.19482 1.97046,-1.97046 3.59923,-2.1996 20.38636,-2.86801 20.55948,-0.81862 32.19676,-3.1948 45.30316,-9.25033 9.96932,-4.60611 14.44274,-7.8545 26.1622,-18.99777 5.53603,-5.26384 10.54781,-9.57062 11.13729,-9.57062 1.62202,0 3.14216,3.46873 3.14216,7.16991 0,5.66908 -4.91442,13.76769 -13.5504,22.33009 -12.95663,12.84625 -30.3638,22.09019 -51.78561,27.50033 -13.18232,3.32924 -20.90584,4.14576 -28.88295,3.05346 z m 167.78635,0.85529 c 9.19579,-2.83684 18.09046,-7.40124 19.47909,-9.99594 0.61699,-1.15284 5.44724,-6.6481 5.93231,-11.77519 2.17105,-22.94754 -2.59733,-39.0853 -18.97879,-56.27587 -4.125,-4.32874 -16.97068,-10.7257 -17.63326,-10.7234 -1.40008,0.005 -1.29338,3.22915 -3.38658,23.28989 -1.84831,17.71375 -5.73417,33.8521 -11.07779,52.734 -2.13771,7.5537 -1.83134,15.44684 -1.50171,15.79429 1.17027,1.2335 20.3409,-0.94207 27.16673,-3.04778 z"
       style="fill:#d66bcc;fill-opacity:1"
       sodipodi:nodetypes="cccccsccccccccsssscccssccssssssssccsssssssssccsssccssssscccsssssccsssssssssccsssssssc" />
    <path
       id="path2955"
       d="M 162.99978,697.9035 C -9.3418847,707.1378 72.309397,648.75727 118.28126,551.1565 -0.48301394,470.75493 20.429561,442.77102 133.66919,387.97368 22.846429,138.43341 286.49271,342.41549 261.82453,200.11216 c 11.13465,-85.71879 -8.57478,-90.05744 26.67349,-59.67042 80.02079,-21.22713 139.6336,69.69657 194.48362,84.73473 -80.72561,35.83749 -160.52705,47.64691 -242.98573,128.5442 -93.99148,183.80068 -28.20062,203.26079 -39.34634,302.525 l -37.64979,41.65783 z"
       style="fill:#54a2fa;fill-opacity:1"
       sodipodi:nodetypes="ccccccccc" />
    <path
       id="path2953"
       d="m 104.12208,681.61186 c -8.513355,-3.88179 -53.174464,3.00495 -50.460979,-4.88805 2.117682,-6.15993 -11.067049,-19.13894 20.925411,-63.4066 37.043698,-51.25702 43.694748,-60.71888 43.694748,-62.16071 0,-0.604 -19.912501,-16.02608 -44.250001,-34.27128 C 11.832077,470.25609 8.3990786,467.51094 6.1829969,462.63141 c -2.22006,-4.8883 -2.466298,-13.60935 -0.4910147,-17.39034 1.9494441,-3.73153 6.2773658,-7.57313 11.4599768,-10.17222 4.247892,-2.13033 36.543526,-15.11603 89.629301,-36.03889 14.3,-5.63611 26.39957,-10.61143 26.88793,-11.05628 0.49693,-0.45265 -10.13568,-21.86299 -24.14564,-48.62088 -38.723215,-73.95816 -42.242291,-81.25628 -42.242291,-87.60518 0,-6.43132 3.797975,-13.18284 9.343991,-16.61047 3.259578,-2.01453 4.83245,-2.2116 17.25231,-2.16163 10.66751,0.0429 85.18518,4.7231 150.70574,9.46526 4.77336,0.34548 6.91511,0.13556 7.18118,-0.70387 0.20853,-0.6579 0.87841,-20.99618 1.48862,-45.19618 1.611,-63.88961 2.72406,-85.83643 4.57841,-90.27451 2.07463,-4.9653 5.01189,-7.946046 10.66651,-10.824476 8.58289,-4.36903 189.19976,128.382096 212.69987,143.280146 -161.06776,3.71149 -249.15154,95.25335 -282.37187,187.51267 -19.19636,53.31199 7.94251,108.13003 -19.02403,149.20325 -24.47433,37.2773 -42.88443,57.82139 -75.67991,106.17405 z m 44.58284,-171.07113 c 25.92996,-35.29228 27.57301,-31.80901 31.95237,-51.26479 l 4.90922,-19.1926 -7.21406,3.10945 c -26.17439,9.8398 -110.261885,44.98323 -111.04202,45.14974 -10.255693,2.18888 13.80166,11.42368 30.300131,23.68082 l 33.527839,23.7211 5.92078,-2.17329 c 1.29214,-1.19531 4.37201,-13.13043 11.64574,-23.03043 z m 52.57634,-149.29412 c 9.625,-3.85469 22.68024,-6.15305 24.21005,-6.85349 11.21236,-10.65024 19.77807,-21.55126 30.52346,-32.75346 7.3923,-7.56702 15.34145,-16.14301 15.04574,-16.43872 -0.53165,-0.53165 -118.93099,-9.41091 -144.52925,-10.76066 -12.14114,-0.64018 -21.10714,-2.34024 -21.10714,-0.76223 0,2.17125 37.33723,69.80835 44.70847,82.01278 l 3.68831,8.50724 16.23018,-10.65003 c 7.5516,-2.9111 21.60518,-8.44674 31.23018,-12.30143 z m 179.05792,-113.6855 c 7.7941,-1.9138 20.75707,-4.44012 28.80659,-5.61405 8.04952,-1.17394 19.76233,0.41728 20.79038,0.044 1.42506,-0.51747 -16.4042,-12.81377 -61.28571,-42.5832 l -66.2507,-43.457 -1.10908,2.07234 c -1.56446,2.92321 -4.31102,86.09803 -2.8879,87.45473 0.20818,0.19846 12.9785,1.32799 28.3785,2.51006 15.4,1.18208 28.45,2.317 29,2.52206 3.17466,1.18357 12.08592,0.11351 24.55792,-2.94891 l 0,-3e-5 z"
       style="fill:#2c78d2;fill-opacity:1"
       sodipodi:nodetypes="csssssssssssssssssscsscccccscccccccssscccccsscccssscc" />
    <path
       id="path2951"
       d="m 388.35645,874.95347 c -11.98238,-2.3509 -20.85967,-6.49764 -34.07519,-15.91712 -15.86569,-11.30841 -28.84599,-26.4385 -34.74429,-40.4986 -2.95348,-7.04038 -6.00562,-19.18903 -7.37208,-29.34355 -0.64046,-4.75941 -1.43878,-8.95173 -1.77405,-9.31628 -0.33527,-0.36454 -4.43458,0.17724 -9.10958,1.20396 -20.97313,4.6061 -34.73084,4.50263 -54.07377,-0.40668 -19.68646,-4.9965 -34.69638,-13.3183 -47.96472,-26.59259 -12.00443,-12.00981 -20.50787,-27.71395 -23.88029,-44.10203 l -1.14419,-5.56014 -31.21851,-2.23123 C 72.300995,697.13628 52.205686,695.1328 46.604139,692.57869 38.090778,688.6969 33.090473,678.54538 35.803958,670.65238 c 2.117682,-6.15993 6.790094,-13.06751 38.782554,-57.33517 37.043698,-51.25702 43.694748,-60.71888 43.694748,-62.16071 0,-0.604 -19.912501,-16.02608 -44.250001,-34.27128 C 11.832077,470.25609 8.3990786,467.51094 6.1829969,462.63141 c -2.22006,-4.8883 -2.466298,-13.60935 -0.4910147,-17.39034 1.9494441,-3.73153 6.2773658,-7.57313 11.4599768,-10.17222 4.247892,-2.13033 36.543526,-15.11603 89.629301,-36.03889 14.3,-5.63611 26.39957,-10.61143 26.88793,-11.05628 0.49693,-0.45265 -10.13568,-21.86299 -24.14564,-48.62088 -38.723215,-73.95816 -42.242291,-81.25628 -42.242291,-87.60518 0,-6.43132 3.797975,-13.18284 9.343991,-16.61047 3.259578,-2.01453 4.83245,-2.2116 17.25231,-2.16163 10.66751,0.0429 85.18518,4.7231 150.70574,9.46526 4.77336,0.34548 6.91511,0.13556 7.18118,-0.70387 0.20853,-0.6579 0.87841,-20.99618 1.48862,-45.19618 1.611,-63.88961 2.72406,-85.83643 4.57841,-90.27451 2.07463,-4.9653 5.01189,-7.946046 10.66651,-10.824476 8.58289,-4.36903 10.28169,-3.81152 33.7818,11.086526 29.55367,18.73574 116.52268,75.8393 180.70182,118.6482 l 34.20038,22.81241 14.79962,4.95414 c 8.13979,2.72479 18.62462,6.5879 23.29962,8.5847 20.17825,8.61861 44.81388,23.2245 62.79027,37.2269 10.02369,7.80778 32.61784,30.22556 42.83151,42.49718 7.0841,8.51147 19.9588,27.03618 25.62641,36.87246 17.10295,29.68262 28.95013,65.99434 34.79174,106.63706 l 1.18155,8.22059 9.63926,6.41747 c 10.58521,7.04724 24.21745,20.43796 30.49613,29.95584 14.53046,22.0268 17.23853,54.224 6.8179,81.06046 -8.19209,21.09723 -30.62484,42.99569 -52.27091,51.02595 -9.91641,3.67879 -25.52889,7.3911 -34.5046,8.20446 l -7.31695,0.66304 -7.07747,9.29328 c -13.24177,17.38748 -32.39035,37.1794 -49.77206,51.44427 l -4.26722,3.50203 4.16874,5.49601 c 16.16069,21.306 20.4876,53.32291 10.53595,77.9607 -8.75286,21.66991 -24.56052,37.10099 -51.29326,50.07133 -12.71553,6.16939 -23.27832,8.28726 -38.37699,7.6947 -13.95415,-0.54765 -23.99208,-3.16396 -34,-8.86185 -3.025,-1.72225 -7.41991,-4.18858 -9.76647,-5.48074 -5.1106,-2.81421 -14.13377,-9.39977 -19.40926,-14.16585 l -3.82427,-3.455 -3.83048,3.4606 c -8.17791,7.38825 -23.40462,18.01088 -30.54837,21.3115 -11.11251,5.13429 -22.10597,7.46629 -34.62115,7.34405 -5.775,-0.0564 -12.49117,-0.49322 -14.92481,-0.97069 z m 24.92481,-22.94962 c 16.67598,-2.62139 29.38592,-9.0986 41,-20.8943 4.125,-4.18951 9.19901,-10.53139 11.27559,-14.09306 3.95507,-6.78361 8.72441,-20.25782 8.72441,-24.64799 l 0,-2.56899 -13.25,0.68282 c -33.67987,1.73563 -68.93685,-3.78352 -109.09389,-17.07761 -12.74556,-4.21945 -17.12518,-5.29492 -18,-4.4201 -1.60455,1.60455 -1.46297,21.12949 0.20344,28.05611 0.72776,3.025 3.56657,10.16677 6.30847,15.87059 4.24597,8.83264 6.19738,11.58581 13.15863,18.56497 16.26184,16.30368 38.30515,23.88655 59.67335,20.52756 z m 150.27683,-2.10705 c 8.71814,-2.41592 20.56612,-8.45181 26.94906,-13.72904 14.6361,-12.10071 23.73938,-30.36414 23.73938,-47.62703 0,-12.37954 -6.08325,-28.96883 -13.6951,-37.34712 l -3.77017,-4.14978 -13.21788,7.43089 c -7.26983,4.08699 -17.39483,9.31961 -22.5,11.62805 -11.8083,5.33945 -37.86557,13.93049 -52.91784,17.44694 l -11.63572,2.71829 -1.69076,8.63636 c -0.92992,4.75 -3.28265,13.46381 -5.2283,19.36401 -2.25988,6.85313 -3.3123,11.62506 -2.91391,13.21238 1.32897,5.29502 20.27039,17.76603 33.52485,22.07271 6.12081,1.98879 22.89619,3.51015 30.88376,2.80084 2.91731,-0.25907 8.52999,-1.36494 12.47263,-2.4575 z m -79.56361,-82.78401 c 44.76847,-6.67215 88.59902,-25.81409 123.34687,-53.86879 10.25016,-8.27577 35.22734,-33.93982 42.85983,-44.03847 24.18017,-31.99314 40.22797,-68.36112 48.11778,-109.04589 4.55112,-23.46843 4.33484,-68.21707 -0.44524,-92.11891 -10.47814,-52.39385 -33.47327,-95.7568 -70.57568,-133.08771 -39.31941,-39.56157 -87.72724,-63.68345 -145.71159,-72.60889 -15.01703,-2.31155 -53.59335,-2.31155 -68.61038,0 -40.99182,6.3098 -75.88892,19.67607 -108.00941,41.36971 -61.0567,41.23666 -100.41905,105.28215 -110.82886,180.32689 -1.97752,14.25599 -1.70239,50.73681 0.49021,65 3.37581,21.96006 8.21951,40.19362 16.33256,61.48197 1.89024,4.95992 3.80517,9.39003 4.2554,9.84469 0.45023,0.45466 3.46161,-0.48284 6.69195,-2.08332 9.14723,-4.53205 16.0341,-7.03889 26.87334,-9.78197 8.62752,-2.18335 12.19596,-2.53155 26,-2.53699 13.94603,-0.005 17.26101,0.32191 25.82306,2.5504 22.97701,5.98033 37.35794,14.12389 51.86813,29.37161 9.74753,10.24299 15.99799,21.16776 20.434,35.71525 2.34458,7.68883 2.717,10.61589 2.66406,20.93836 -0.0955,18.6255 -5.29278,34.4082 -16.61249,50.44772 -2.50272,3.54624 -4.3398,6.78848 -4.08239,7.20497 0.2574,0.41649 6.65955,2.78079 14.227,5.25401 18.72803,6.12076 35.65029,9.41513 61.67863,12.00739 9.18726,0.915 40.65092,-0.46979 53.21322,-2.34203 z m 77.05744,-163.26987 c -8.27715,-2.19971 -12.81124,-12.73103 -7.52066,-17.46821 1.9876,-1.7797 4.5241,-2.142 21.75,-3.1067 22.54066,-1.26233 31.53102,-3.33243 46.67431,-10.74711 7.74266,-3.79108 11.0715,-6.2857 21.33198,-15.98612 6.68672,-6.32173 12.51619,-11.49405 12.95437,-11.49405 1.52242,0 3.28358,6.02878 2.66487,9.12233 -1.72625,8.63127 -14.01036,22.63868 -27.51456,31.37451 -21.91278,14.1753 -54.2324,22.58616 -70.34031,18.30535 z M 286.9589,762.97119 c 44.55348,-6.09177 76.23153,-44.73217 66.79077,-81.47036 -5.1321,-19.97125 -18.6512,-35.93491 -38.96841,-46.01478 -14.27476,-7.08205 -22.15537,-8.78884 -40.5,-8.77153 -13.95958,0.0132 -16.38953,0.28391 -24.45066,2.72419 -32.90383,9.9607 -55.44168,36.62206 -55.53198,65.69206 -0.0239,7.71283 3.20816,19.6236 7.6552,28.21044 4.74496,9.16209 17.96524,22.69564 27.82744,28.48684 16.4596,9.66527 37.70471,13.80565 57.17764,11.14314 z M 174.0222,682.79073 c 0.54221,-0.6875 1.77652,-4.5359 2.74291,-8.552 2.34447,-9.74306 7.88383,-20.88278 15.42661,-31.02307 l 6.19255,-8.32506 -5.98298,-15.17494 c -11.74669,-29.79371 -18.1846,-58.25298 -20.68169,-91.42493 -0.38297,-5.0875 -1.03338,-9.25 -1.44535,-9.25 -0.41198,0 -1.36643,0.82651 -2.12102,1.83669 -0.75458,1.01018 -7.24885,9.67268 -14.4317,19.25 -11.2954,15.06082 -72.871898,99.47713 -91.340679,125.22054 -3.475154,4.84398 -6.15504,8.97066 -5.955301,9.17039 0.19974,0.19974 25.111486,2.20677 55.35944,4.46007 30.24795,2.2533 55.89627,4.25284 56.99627,4.44342 3.82894,0.66341 4.26104,0.61137 5.24094,-0.63111 z m 527.4971,-37.74848 c 26.56655,-8.60071 46.0174,-28.132 52.2853,-52.50152 2.02749,-7.88288 2.02052,-24.24041 -0.0136,-32 -3.50505,-13.37052 -14.46921,-30.54778 -24.64044,-38.60355 -4.17938,-3.31013 -5.81474,-2.9616 -5.85395,1.2476 -0.0436,4.68213 -2.31281,23.85728 -4.12487,34.85595 -4.37045,26.52719 -11.68476,50.68747 -22.93772,75.76671 -3.274,7.2967 -5.95272,13.4842 -5.95272,13.75 0,0.92111 2.02066,0.46886 11.23804,-2.51519 l -4e-5,0 z M 138.07704,525.29073 c 8.81289,-11.22474 29.55494,-39.91117 33.08005,-45.75 2.17587,-3.604 3.89696,-9.03251 6.16439,-19.44309 4.8125,-22.09601 12.93456,-46.36465 22.19608,-66.32168 2.23712,-4.82062 3.83721,-8.99506 3.55574,-9.27652 -0.69156,-0.69156 -8.92317,2.40076 -61.37132,23.05503 -63.320211,24.93573 -114.799103,45.56644 -115.614135,46.33358 -0.381378,0.35898 6.143622,5.81708 14.5,12.12913 33.296136,25.15047 89.925435,67.02355 90.642885,67.02355 0.41885,0 3.49969,-3.4875 6.84631,-7.75 z m 52.9677,-159.5584 33.26347,-13.2423 8.82465,-10.97465 c 20.91212,-26.00709 45.14955,-46.45129 80.76537,-68.12536 l 6.82063,-4.1507 -5.4688,-0.61641 c -6.10456,-0.68807 -196.77767,-14.17172 -215.2188,-15.21943 -6.462501,-0.36716 -11.750001,-0.32623 -11.750001,0.091 0,0.77672 15.211201,30.0019 38.279591,73.5463 24.11893,45.52745 27.80138,52.00185 29.55732,51.96695 0.9147,-0.0182 16.63165,-5.99209 34.92657,-13.27535 l 0,-5e-5 z M 380.46999,247.99529 c 24.5704,-5.91529 39.94199,-7.97412 64.66131,-8.66058 l 21.35005,-0.59289 -26.35005,-17.40799 C 398.8135,194.03747 288.30765,121.65379 282.45816,118.05456 c -2.90238,-1.78585 -5.43308,-3.08204 -5.62378,-2.88042 -0.40029,0.42323 -2.22975,57.88511 -3.19858,100.46453 l -0.66208,29.09795 11.40377,0.69039 c 22.46742,1.3602 65.49734,4.75972 70.40377,5.56217 7.85789,1.28515 7.96831,1.27228 25.68873,-2.99389 z"
       style="fill:#9f086e;fill-opacity:1"
       sodipodi:nodetypes="cssssssscccsssssssssssssssssssscccsssscccsssccccccssssscccssccsscccsssssccsscccscccssssccsssssssssssssssssssssssccsssssssccsssssssccscccssssssssccssssssscccsssssssscccccccssssccccccsscccsc" />
    <path
       id="path2949"
       d="m 547.30267,502.85472 c -16.18982,-2.84765 -27.77447,-26.64571 -22.66617,-46.56254 5.61124,-21.87778 21.9963,-32.17189 37.6483,-23.65301 11.58807,6.30702 17.82769,20.0275 16.72994,36.78791 -0.64092,9.78564 -2.82464,16.55926 -7.32294,22.71483 -6.23853,8.53696 -14.96567,12.37032 -24.38913,10.71281 z m 86,-13 c -8.45934,-1.48793 -16.86681,-9.66407 -21.11257,-20.53168 -2.97746,-7.62123 -3.23117,-21.08985 -0.56189,-29.82959 4.39129,-14.37798 17.38134,-24.83415 28.41787,-22.8746 16.01176,2.84292 26.31398,19.26803 24.96866,39.80823 -0.64092,9.78564 -2.82464,16.55926 -7.32294,22.71483 -6.23853,8.53696 -14.96567,12.37032 -24.38913,10.71281 z"
       style="fill:#010101;fill-opacity:1" />
  </g>
</svg>
