<?xml version="1.0" encoding="UTF-8"?>
<!DOCTYPE svg PUBLIC "-//W3C//DTD SVG 1.1//EN" "http://www.w3.org/Graphics/SVG/1.1/DTD/svg11.dtd">
<svg xmlns="http://www.w3.org/2000/svg" xml:space="preserve" width="100%" height="100%" version="1.1" style="shape-rendering:geometricPrecision; text-rendering:geometricPrecision; image-rendering:optimizeQuality; fill-rule:evenodd; clip-rule:evenodd"
viewBox="0 0 213 213"
 xmlns:xlink="http://www.w3.org/1999/xlink">
 <defs>
  <style type="text/css">
   <![CDATA[
    .str0 {stroke:#2B2A29;stroke-width:9.99606;stroke-linecap:round;stroke-linejoin:round}
    .fil0 {fill:#2B2A29}
   ]]>
  </style>
 </defs>
 <g id="Layer_x0020_1">
  <path class="fil0 str0" d="M112 50l16 16c1,1 1,1 1,2 0,1 0,1 -1,2 -5,5 -11,11 -16,17 -1,0 -2,0 -2,0 -1,0 -2,0 -2,-1 -1,-3 -2,-4 -3,-8 -15,1 -27,13 -27,29 0,3 0,6 2,9l-19 6c-1,-5 -2,-10 -2,-15 0,-26 20,-47 46,-48 1,-4 2,-6 3,-9 0,0 1,-1 2,-1 0,0 1,0 2,1zm-10 114l-17 -17c-1,-1 -1,-1 -1,-2 0,0 0,-1 1,-1 6,-6 11,-12 17,-17 0,-1 1,-1 2,-1 1,0 1,1 2,1 1,3 2,4 2,8 15,0 27,-13 27,-28 0,-4 0,-7 -1,-10l18 -6c2,5 3,10 3,16 0,26 -21,47 -47,47 0,5 -1,6 -2,9 -1,1 -1,1 -2,1 -1,0 -2,0 -2,0z"/>
 </g>
</svg>
