<?xml version="1.0" encoding="UTF-8" standalone="no"?>
<svg
   xmlns:dc="http://purl.org/dc/elements/1.1/"
   xmlns:cc="http://creativecommons.org/ns#"
   xmlns:rdf="http://www.w3.org/1999/02/22-rdf-syntax-ns#"
   xmlns:svg="http://www.w3.org/2000/svg"
   xmlns="http://www.w3.org/2000/svg"
   height="500"
   width="160"
   version="1.1"
   id="svg2">
  <metadata
     id="metadata8">
    <rdf:RDF>
      <cc:Work
         rdf:about="">
        <dc:format>image/svg+xml</dc:format>
        <dc:type
           rdf:resource="http://purl.org/dc/dcmitype/StillImage" />
        <dc:title></dc:title>
      </cc:Work>
    </rdf:RDF>
  </metadata>
  <defs
     id="defs6" />
  <path
     id="path3834-5-8-2-3"
     d="m 20.725412,498.65807 c -0.0024,-4.20042 0.0599,-6.39271 -1.302517,-9.4943 -4.654355,-4.06863 -0.309139,-8.84104 4.484873,-8.46278 3.450897,0.32851 1.967733,1.17025 6.043564,2.16699 7.97791,-2.18995 7.301785,-2.51622 12.939922,-0.3418 4.298944,1.65795 4.056956,-3.50847 8.056409,-2.04615 6.156438,2.25098 6.499314,4.01932 13.118591,2.05375 2.054,-0.52552 4.201596,2.6697 3.535687,3.87722 -3.219348,5.8378 -4.037895,2.08432 -5.562731,7.69564 l -0.396884,4.55143 c -13.488177,0.0687 -26.513686,0.0514 -37.514398,-0.21348 z"
     style="fill:#c21c1c;fill-opacity:1;fill-rule:evenodd;stroke:none;stroke-width:1.00375366" />
  <path
     id="path3834-5-8-2-3-1"
     d="m 22.552167,498.65807 c -0.0021,-3.7632 0.138365,-5.53604 -1.080365,-8.31479 -4.163492,-3.64513 -0.276537,-7.92079 4.011884,-7.5819 3.086954,0.29432 1.76021,1.04844 5.40619,1.94143 7.136534,-1.962 6.531716,-2.25431 11.575238,-0.30622 3.845563,1.48538 3.410255,-2.18208 7.206753,-1.83317 5.089578,2.9051 5.813877,3.60095 11.735064,1.83998 1.837379,-0.47082 3.758482,2.39181 3.162802,3.47364 -2.879826,5.23016 -3.612045,1.86737 -4.976068,6.89462 l -0.355498,3.88641 c -12.543036,0.0615 -23.537986,0 -33.55754,0 z"
     style="fill:#8a1c1c;fill-opacity:1;fill-rule:evenodd;stroke:none;stroke-width:1.00375366" />
  <path
     id="path3834-5-8-2-3-1-9"
     d="m 24.489938,498.65807 c -0.0019,-3.23853 0.40471,-6.10129 -0.670336,-8.49264 -3.672629,-3.13694 -1.187293,-4.85022 2.595536,-4.55858 2.723011,0.25329 1.93003,0.52774 5.146162,1.29623 6.295158,-1.68846 5.761645,-1.75276 10.210552,-0.0763 3.392183,1.27829 4.234564,-1.31607 7.583466,-1.0158 4.489532,2.50008 4.185079,2.91165 9.408177,1.39619 1.620756,-0.40518 2.277672,1.49656 1.752221,2.42757 -2.540303,4.50098 -2.1485,1.13886 -3.351709,5.46522 l -0.31317,3.55811 c -11.064252,0.0529 -20.763345,-0.21348 -29.601624,-0.21348 z"
     style="fill:#711717;fill-opacity:1;fill-rule:evenodd;stroke:none;stroke-width:1.00375366" />
  <path
     id="path3834-5-8-2"
     d="m 20.934381,448.62647 c -0.0024,-5.51241 -0.312727,-8.10931 -1.654892,-12.17967 -4.102964,-3.35623 -5.690835,-10.9599 1.908999,-10.36885 3.399605,0.43111 3.23956,1.29002 7.25481,2.59809 7.859331,-2.87398 7.56499,-2.07339 13.769863,-0.20281 4.429834,1.33546 4.94936,-4.9435 8.773066,-3.17677 6.135729,2.835 1.540823,4.81329 9.221262,4.59312 1.633702,0.37579 0.659177,-0.34625 5.932755,-2.14364 2.023472,-0.68967 3.674477,2.64344 3.018466,4.22813 -3.171498,7.66122 -6.115356,1.13794 -7.896329,10.9595 l -1.041522,5.6929 c -13.81341,0.0901 -25.271923,0 -36.30627,0 z"
     style="fill:#c21c1c;fill-opacity:1;fill-rule:evenodd;stroke:none" />
  <path
     id="path3834-5-8-2-7"
     d="m 22.595751,448.54478 c -0.0022,-4.90122 0.09195,-8.43936 -1.120826,-12.05843 -3.707421,-2.98411 -5.516741,-8.43391 1.350437,-7.90839 3.071869,0.38331 2.927253,1.147 6.555416,2.31003 7.101659,-2.55533 6.835694,-1.84351 12.442391,-0.18032 4.00278,1.18739 4.472221,-4.3954 7.927306,-2.82455 5.544219,2.52068 1.392281,4.27962 8.332294,4.08387 1.476207,0.33412 1.344684,0.1603 6.109867,-1.43781 1.828401,-0.6132 3.133133,2.28955 1.97842,3.29118 -6.108369,5.29858 -5.633793,0.96139 -7.135091,9.7444 l -0.941115,5.06171 c -12.48174,0.0801 -22.835605,0 -32.806194,0 z"
     style="fill:#8a1c1c;fill-opacity:1;fill-rule:evenodd;stroke:none" />
  <path
     id="path3834-5-8-2-7-3"
     d="m 25.859095,448.59126 c -0.0018,-4.22456 0.0747,-7.33498 -0.910498,-10.4544 -3.011708,-2.57213 -5.408408,-5.1509 0.170115,-4.69793 2.495419,0.33039 4.231756,0.72382 7.179078,1.72628 5.769003,-2.20255 4.228793,-1.32417 8.783371,0.10941 3.25164,1.02345 4.824727,-4.31824 7.631451,-2.96426 4.503823,2.17268 0.336521,2.0998 5.974211,1.93108 1.19919,0.28799 1.092347,0.98085 4.963324,-0.39662 1.485293,-0.52854 1.61828,1.13077 0.680254,1.99411 -4.962107,4.56706 -3.64968,0.82866 -4.869254,8.3991 l -0.76451,4.42365 c -10.139488,0.069 -18.550407,0 -26.649972,0 z"
     style="fill:#711717;fill-opacity:1;fill-rule:evenodd;stroke:none" />
  <path
     id="path3834-5-8"
     d="m 22.237029,398.51935 c -0.0023,-6.71319 -0.57052,-9.3962 -1.882478,-14.35322 -2.960564,-3.69012 -4.35086,-6.7694 -4.436949,-7.24019 -0.861248,-4.70991 2.567173,-5.82442 5.282446,-5.39544 3.323094,0.52502 3.056954,1.87399 6.981838,3.467 8.337872,-2.35976 8.602537,-2.50549 14.667764,-0.22743 4.330137,1.62637 6.132538,-4.96688 10.219452,-4.34445 1.462132,0.22269 3.206609,1.54244 3.221552,2.96606 0.02248,2.14219 1.562374,2.42261 2.74387,2.76119 1.596935,0.45765 2.658803,-0.0409 7.813695,-2.2298 1.977932,-0.8399 4.021633,1.83342 4.268031,3.16192 1.588116,8.56263 -8.014904,-0.1857 -10.020626,14.83925 l -0.643555,6.74109 c -13.502527,0.10972 -24.515894,-0.15024 -35.301904,-0.15024 z"
     style="fill:#c21c1c;fill-opacity:1;fill-rule:evenodd;stroke:none" />
  <path
     id="path3834-5-8-1"
     d="m 24.179419,398.51935 c -0.0021,-6.2708 -0.42776,-9.91708 -1.626743,-14.54744 -2.705625,-3.44694 -4.069833,-5.48061 -4.148509,-5.92037 -0.787084,-4.39953 1.409793,-4.22339 3.89125,-3.82268 3.036937,0.49042 3.07461,1.28234 6.661516,2.77037 7.619887,-2.20425 6.831811,-2.62127 12.374753,-0.49333 3.957263,1.51919 8.038882,-4.07778 11.773865,-3.49637 1.336227,0.20802 2.368693,1.06627 2.382349,2.39607 0.02054,2.00102 1.240573,1.60754 2.320329,1.92381 1.45942,0.42749 2.429849,0.80449 7.140846,-1.24017 1.80761,-0.78455 4.606311,1.06563 3.900505,2.11087 -5.25011,7.77498 -7.444265,-0.17745 -9.157735,13.86135 l -0.588139,6.45789 c -12.339804,0.10249 -22.404794,-0.30133 -32.262005,-0.30133 z"
     style="fill:#8a1c1c;fill-opacity:1;fill-rule:evenodd;stroke:none" />
  <path
     id="path3834-5-8-1-6"
     d="m 26.052098,398.51935 c -0.0018,-5.61973 0.09585,-9.60293 -0.947694,-13.75255 -2.354867,-3.08906 -2.576529,-3.62622 -2.645006,-4.02032 -0.685046,-3.94275 0.455255,-1.61805 2.615016,-1.25894 2.643228,0.4395 2.940849,0.75195 6.062748,2.08548 6.632045,-1.97539 6.343382,-2.21669 11.167737,-0.30969 3.444244,1.36147 5.9374,-3.6544 9.18818,-3.13335 1.162999,0.18642 2.061616,0.95555 2.073503,2.14729 0.01788,1.79326 1.079744,1.44064 2.01952,1.72407 1.270221,0.38311 1.187938,-0.7356 5.288201,-2.56798 1.573271,-0.70309 1.99149,1.34933 1.011368,1.89171 -6.964609,3.85408 -3.441814,-0.96415 -4.924976,11.6277 l -0.511892,5.68026 c -10.740074,0.0919 -19.500239,-0.16294 -28.079562,-0.16294 z"
     style="fill:#711717;fill-opacity:1;fill-rule:evenodd;stroke:none" />
  <path
     id="path3834-5"
     d="m 22.471339,348.22791 c -0.0023,-7.54983 0.229105,-9.66885 -1.112925,-15.24364 -3.028423,-4.15 -6.523116,-7.96395 -6.705856,-9.03601 -0.902334,-5.2936 1.677863,-6.84812 4.455374,-6.36567 3.399264,0.59044 3.694986,3.11333 8.090024,3.65432 3.116369,0.38359 3.541742,-1.91543 6.24885,-2.31428 2.939972,-0.43317 4.724148,0.93655 8.755119,2.60109 4.429392,1.82906 6.273104,-5.58588 10.453697,-4.88588 1.495645,0.25044 3.280108,1.73467 3.295394,3.3357 0.02299,2.40917 1.598186,2.72453 2.806762,3.10531 1.633539,0.51469 3.532449,0.32633 8.805497,-2.1354 2.023269,-0.94456 4.344554,-0.71843 4.772212,0.72655 3.114473,10.52325 -9.824021,1.50371 -11.875716,18.40114 l -1.335558,8.21803 c -13.812024,0.12339 -25.619634,-0.0611 -36.652874,-0.0612 z"
     style="fill:#c21c1c;fill-opacity:1;fill-rule:evenodd;stroke:none;stroke-width:0.9882341" />
  <path
     id="path3834-5-61"
     d="m 24.203201,348.27883 c -0.0021,-7.09292 0.206939,-9.80714 -1.005256,-15.04456 -2.73544,-3.89885 -5.598845,-8.08218 -5.678387,-8.5796 -0.795758,-4.97632 0.758115,-4.35376 3.266916,-3.90052 3.070402,0.55471 3.242033,3.65171 7.023322,2.31517 6.501852,-2.29816 8.611136,-2.2855 14.215156,0.12141 4.000869,1.71837 6.423636,-4.07222 10.199777,-3.41457 1.350949,0.23527 2.678742,1.17752 2.692549,2.68166 0.02077,2.26338 2.485026,2.37879 3.576678,2.73653 1.475503,0.48353 1.770535,0.75873 6.533443,-1.55402 1.827529,-0.8874 4.337138,-1.71416 4.215846,-0.31216 -0.768266,8.88028 -9.096998,1.34994 -10.726801,17.28752 l -1.20635,7.72069 c -12.47578,0.11593 -23.141064,-0.0575 -33.106893,-0.0576 z"
     style="fill:#8a1c1c;fill-opacity:1;fill-rule:evenodd;stroke:none;stroke-width:0.9882341" />
  <path
     id="path3834-5-61-5"
     d="m 26.783351,348.27806 c -0.0019,-6.62215 0.182325,-8.90045 -0.885691,-13.79026 -2.410083,-3.64007 -4.666358,-6.65052 -4.73644,-7.11493 -0.701109,-4.64604 -0.398278,-2.40224 1.812124,-1.97908 2.705206,0.51789 4.98887,3.9209 8.320408,2.67306 5.728518,-2.14563 8.386588,-1.62225 13.324061,0.62491 3.525002,1.60432 2.860768,-3.1625 6.187773,-2.54851 1.190266,0.21966 1.827018,0.97149 1.839184,2.37581 0.0183,2.11314 4.3219,-0.33689 5.283711,-0.003 1.300005,0.45144 3.433173,-2.76745 3.77622,-0.7712 0.496419,2.88876 -4.672953,2.2732 -5.888852,13.37868 l -1.062867,7.20826 c -10.991901,0.10823 -19.189146,-0.0536 -27.969631,-0.0537 z"
     style="fill:#711717;fill-opacity:1;fill-rule:evenodd;stroke:none;stroke-width:0.9882341" />
  <path
     id="path4116"
     d="m 99.052912,48.145586 c 0.634112,-5.244887 -0.662666,-7.220011 -1.217212,-10.389119 0.74095,-2.992403 4.63124,-3.422239 7.80797,-1.755094 4.49421,2.342057 7.56946,-0.144778 10.68758,-0.471616 0.72804,-0.07632 2.25851,-0.0133 3.13337,0.04936 1.93065,0.357856 1.1283,1.483344 3.18348,1.448296 h 3.18348 c 0.48272,-1.426014 2.54827,-1.726702 3.41756,-1.729514 2.7853,0.788207 2.83684,2.305566 5.47745,2.640802 3.90076,0.495215 4.04819,-0.953159 6.83512,-1.73152 1.99573,0.269066 3.07673,1.016277 3.55801,2.096051 l -0.46816,2.551713 c -1.07898,3.850027 -2.99622,2.783155 -2.99622,7.837407 h -21.5353 -21.067128 v -0.546797 z"
     style="fill:#c21c1c;fill-opacity:1;fill-rule:evenodd;stroke:none;stroke-width:0.9865644" />
  <path
     id="path4116-0"
     d="m 100.10213,48.045966 c 0.59515,-4.57672 -0.621925,-6.300225 -1.142386,-9.065608 0.695407,-2.611188 4.346566,-2.986266 7.328016,-1.531506 4.21796,2.043694 7.10419,-0.126333 10.03065,-0.411535 0.68327,-0.06659 2.11967,-0.0116 2.94075,0.04307 1.81198,0.312266 1.05894,1.294374 2.98781,1.263792 h 2.9878 c 0.45303,-1.244348 2.39162,-1.506732 3.20748,-1.509184 2.61409,0.687794 2.66246,2.01185 5.14075,2.304379 3.66098,0.432128 3.79936,-0.831732 6.41498,-1.510935 1.87305,0.234789 2.88761,0.88681 3.33931,1.829027 l -0.43939,2.22664 c -1.01266,3.359556 -2.81205,2.428598 -2.81205,6.838968 h -20.21156 -19.77216 v -0.477138 z"
     style="fill:#8a1c1c;fill-opacity:1;fill-rule:evenodd;stroke:none;stroke-width:0.9865644" />
  <path
     id="path4116-0-1"
     d="m 101.60523,48.201507 c 0.54492,-3.876771 -0.56944,-5.336689 -1.04598,-7.679142 0.63671,-2.211841 3.97974,-2.529556 6.70957,-1.297282 3.86198,1.731137 6.50462,-0.107013 9.1841,-0.348596 0.62561,-0.0564 1.94078,-0.0098 2.69257,0.03648 1.65905,0.26451 0.96957,1.096417 2.73565,1.070512 h 2.73565 c 0.41479,-1.054041 2.18977,-1.276298 2.93677,-1.278375 2.39348,0.582606 2.43777,1.704165 4.7069,1.951956 3.35201,0.366039 3.47872,-0.704531 5.87358,-1.279858 1.71498,0.198881 2.64391,0.751184 3.0575,1.549301 l -0.40232,1.886106 c -0.92719,2.845755 -2.57472,2.057175 -2.57472,5.793036 H 119.70871 101.60523 V 48.20148 Z"
     style="fill:#711717;fill-opacity:1;fill-rule:evenodd;stroke:none;stroke-width:0.9865644" />
  <path
     id="path3028"
     d="m 112.49226,90.721378 c 0.2152,-4.000276 2.27805,-9.9659 6.67173,-10.070038 3.87594,-0.04638 5.46358,3.236571 8.23078,9.194383 l 1.67517,0.0024 c -14.90487,1.749373 -9.68179,1.21999 -16.57768,0.873202 z"
     style="fill:#c21c1c;fill-opacity:1;fill-rule:evenodd;stroke:none;stroke-width:0.98478502" />
  <path
     id="path3028-1"
     d="m 112.84473,92.301623 c 0.20661,-4.000276 2.18707,-9.9659 6.40528,-10.070038 3.72114,-0.04638 5.24537,3.236571 7.90206,9.194383 l 1.60826,0.0024 c -14.3096,1.749373 -9.29512,1.21999 -15.9156,0.873202 z"
     style="fill:#8a1c1c;fill-opacity:1;fill-rule:evenodd;stroke:none;stroke-width:0.98478502" />
  <path
     id="path3028-1-4"
     d="m 113.83784,93.072122 c 0.18598,-3.745225 1.96872,-9.330488 5.76579,-9.427987 3.34963,-0.04342 4.72168,3.030212 7.11313,8.608162 l 1.4477,0.0022 c -12.88096,1.637834 -8.36712,1.142205 -14.32662,0.817527 z"
     style="fill:#711717;fill-opacity:1;fill-rule:evenodd;stroke:none;stroke-width:0.98478502" />
  <path
     id="path4116-2"
     d="m 97.476408,98.109897 c 0.634112,-3.845151 0.835442,-5.656378 0.280896,-7.979726 0.74095,-2.193801 3.133136,-2.145707 6.309866,-0.923484 2.9961,1.353801 7.56946,-0.10614 10.68758,-0.345753 0.72804,-0.05595 2.25851,-0.0097 3.13337,0.03618 1.93065,0.262353 1.1283,1.087475 3.18348,1.061781 h 3.18348 c 0.48272,-1.045445 3.20369,-0.90267 4.07298,-0.904731 2.7853,0.577853 2.18141,1.327048 4.82203,1.572817 3.90076,0.363054 4.04818,-0.698783 6.83511,-1.269418 1.99574,0.197258 3.07673,0.745056 3.55802,1.536665 l -0.46816,1.870721 c -1.07898,2.822546 -0.2809,2.222004 -0.2809,5.927396 L 118.54354,98.51074 H 97.476408 v -0.40087 z"
     style="fill:#c21c1c;fill-opacity:1;fill-rule:evenodd;stroke:none;stroke-width:0.98478502" />
  <path
     id="path4116-2-5"
     d="m 98.497408,98.196817 c 0.599481,-3.271335 0.789815,-4.81227 0.265555,-6.788902 0.700484,-1.866418 2.962027,-1.825501 5.965257,-0.785672 2.83247,1.151772 7.15606,-0.0903 10.10389,-0.294155 0.68828,-0.0476 2.13517,-0.0083 2.96225,0.03078 1.82521,0.223202 1.06668,0.92519 3.00961,0.903329 h 3.00962 c 0.45636,-0.889431 3.02873,-0.767963 3.85054,-0.769715 2.63318,0.491619 2.06227,1.12901 4.55868,1.338103 3.68772,0.308876 3.82709,-0.594504 6.46182,-1.07998 1.88674,0.16782 2.9087,0.633869 3.3637,1.307345 l -0.44259,1.591551 c -1.02005,2.401334 -0.26556,1.890412 -0.26556,5.042844 L 118.41398,98.53784 H 98.497408 v -0.341048 z"
     style="fill:#8a1c1c;fill-opacity:1;fill-rule:evenodd;stroke:none;stroke-width:0.98478502" />
  <path
     id="path4116-2-5-8"
     d="m 99.490522,98.290981 c 0.563028,-2.649701 0.741778,-3.89782 0.2494,-5.498843 0.657898,-1.511753 2.781908,-1.478612 5.602518,-0.636375 2.66023,0.932906 6.7209,-0.07314 9.48948,-0.238259 0.64642,-0.03855 2.00533,-0.0067 2.78211,0.02493 1.71422,0.180787 1.00182,0.74938 2.8266,0.731674 h 2.82661 c 0.42861,-0.720418 2.84455,-0.622031 3.61639,-0.623451 2.47306,0.398199 1.93686,0.914471 4.28147,1.083831 3.46347,0.250181 3.59437,-0.481533 6.06888,-0.874758 1.77201,0.135931 2.73182,0.513419 3.15915,1.058918 l -0.41567,1.289116 c -0.95802,1.945022 -0.24941,1.531188 -0.24941,4.08458 L 118.19598,98.567201 H 99.490522 v -0.27624 z"
     style="fill:#711717;fill-opacity:1;fill-rule:evenodd;stroke:none;stroke-width:0.98478502" />
  <path
     id="path3028-8"
     d="m 103.93108,146.32214 c 0,-0.31712 1.02717,-0.37553 0.5569,-0.37553 h 0.55688 v 0.0451 -2.62875 h 0.5569 c 0.43832,0 2.93597,1.27337 2.93597,1.0384 0,-0.26797 0.1254,-0.30733 1.22515,-0.38455 1.10663,-0.0777 1.22517,-0.11542 1.22517,-0.38995 0,-0.29648 0.0437,-0.30394 1.78205,-0.30394 1.72939,0 1.78206,0.009 1.78206,0.29852 0,0.26797 0.12541,0.30733 1.22517,0.38454 1.10662,0.0777 1.68087,0.4889 1.22515,0.38996 l -2.37907,-1.03298 6.50007,-1.33693 -7.97283,-0.11794 c 0.0846,-1.01688 0.89666,-3.95119 1.05844,-7.29679 0.19717,-4.07735 2.95504,-8.56077 5.11433,-8.59385 2.28679,-0.0177 4.07788,1.28525 5.47389,5.8126 0.69752,2.26207 0.99284,8.30985 1.80858,9.44491 2.77688,6.41758 -0.2362,5.39291 -9.66156,5.42275 h -13.01325 v -0.37554 z"
     style="opacity:0.98279993;fill:#c21c1c;fill-opacity:1;fill-rule:evenodd;stroke:none;stroke-width:1.00917256" />
  <path
     id="path3028-4-0"
     d="m 106.26721,146.72191 c 0,-0.30135 0.86945,-0.35687 0.47138,-0.35687 h 0.47138 v 0.0429 -2.49804 h 0.47138 c 0.37102,0 2.48512,1.21005 2.48512,0.98677 0,-0.25465 0.10615,-0.29205 1.03703,-0.36543 0.93669,-0.0738 1.03703,-0.10968 1.03703,-0.37057 0,-0.28172 0.037,-0.28882 1.5084,-0.28882 1.46384,0 1.50842,0.008 1.50842,0.28368 0,0.25464 0.10614,0.29204 1.03702,0.36542 0.9367,0.0738 1.42276,0.46458 1.03703,0.37057 l -2.01374,-0.98162 5.50193,-1.27045 -6.52025,-0.23791 c 0.0882,-1.19006 1.83882,-12.02253 2.81596,-13.15487 0.80764,-0.93592 0.69161,-1.72963 2.18063,-1.75523 1.63493,-0.0142 2.10487,-0.0163 3.11654,1.05378 0.78451,0.82981 2.14249,11.96652 3.04766,13.3805 l 1.25457,10e-4 c -1.34889,4.49451 6.78252,5.12444 -9.43251,5.15177 h -11.01498 v -0.35686 z"
     style="opacity:0.98279993;fill:#8a1c1c;fill-opacity:1;fill-rule:evenodd;stroke:none;stroke-width:1.00917256" />
  <path
     id="path3028-4-7-4"
     d="m 109.27255,146.84611 c 0,-0.28427 0.69241,-0.33663 0.3754,-0.33663 h 0.37539 v 0.0404 -2.35643 h 0.37541 c 0.29547,0 1.97911,1.14146 1.97911,0.93083 0,-0.24021 0.0845,-0.27549 0.82588,-0.34471 0.74596,-0.0696 0.82587,-0.10347 0.82587,-0.34956 0,-0.26576 0.0295,-0.27245 1.20128,-0.27245 1.16577,0 1.20128,0.008 1.20128,0.2676 0,0.2402 0.0845,0.27549 0.82587,0.3447 0.74597,0.0697 1.13306,0.43825 0.82588,0.34956 l -1.60372,-0.92597 4.38167,-1.19843 -5.19264,-0.22442 c 0.0703,-1.12259 2.21992,-11.42719 2.99809,-12.49534 0.77808,-1.00252 1.63497,-0.50307 2.41416,0.35574 0.62478,0.78277 2.75519,10.35693 3.47604,11.69076 l 0.99912,10e-4 c -1.07424,4.23972 5.40152,4.83393 -7.51192,4.85972 h -8.77217 v -0.33663 z"
     style="opacity:0.98279993;fill:#711717;fill-opacity:1;fill-rule:evenodd;stroke:none;stroke-width:1.00917256" />
  <path
     id="path4116-2-3"
     d="m 93.976484,148.37123 c 0.841443,-1.66292 2.993289,-2.00809 3.773641,-3.12014 0.623684,-0.88878 0.347577,-2.91439 0.757623,-3.60387 0.995485,-1.67389 2.301712,-1.42967 3.254742,-1.15048 5.66745,3.34485 9.59525,2.01923 11.12586,0.47234 0.55619,-0.56211 2.47203,-0.008 3.4296,0.0289 5.90466,4.02971 5.15042,0.34065 11.42695,0.12569 3.04863,0.46247 2.38765,1.06206 5.27791,1.25876 4.26954,0.29056 1.85626,-1.02741 4.90667,-1.4841 2.18441,0.15787 3.65368,0.68992 4.18047,1.32345 0.56013,4.79259 4.06496,4.59914 3.55896,6.3507 -10.63832,0.13291 -28.63358,0.11949 -28.63358,0.11949 H 93.976484 v -0.32083 z"
     style="fill:#c21c1c;fill-opacity:1;fill-rule:evenodd;stroke:none;stroke-width:1.00917256" />
  <path
     id="path4116-2-3-6"
     d="m 95.02323,148.43217 c 0.805786,-1.34764 2.866444,-1.62737 3.613726,-2.52857 0.59726,-0.72027 0.332854,-2.36184 0.725515,-2.92059 0.953299,-1.35653 2.204179,-1.15861 3.116829,-0.93235 5.42728,2.71067 9.18863,1.63639 10.65438,0.38279 0.53263,-0.45554 2.36728,-0.007 3.28427,0.0234 5.65443,3.26568 4.93215,0.27606 10.94271,0.10186 2.91944,0.37478 2.28646,0.86069 5.05424,1.02009 4.08861,0.23548 1.7776,-0.83261 4.69874,-1.20271 2.09185,0.12794 3.49886,0.55911 4.00332,1.07252 0.53639,3.88394 3.8927,3.72717 3.40814,5.14663 -10.1875,0.10771 -27.42018,0.0968 -27.42018,0.0968 H 95.02323 v -0.26 z"
     style="fill:#8a1c1c;fill-opacity:1;fill-rule:evenodd;stroke:none;stroke-width:1.00917256" />
  <path
     id="path4116-2-3-6-3"
     d="m 96.405633,148.486 c 0.767018,-1.06945 2.728536,-1.29143 3.43986,-2.00659 0.568507,-0.57158 0.316837,-1.87429 0.690607,-2.31769 0.90744,-1.0765 2.09813,-0.91943 2.96687,-0.73988 5.16616,2.1511 8.74655,1.29859 10.14178,0.30376 0.50699,-0.3615 2.25338,-0.006 3.12625,0.0185 5.38239,2.59154 4.69486,0.21907 10.41623,0.0808 2.77898,0.29741 2.17645,0.68301 4.81107,0.80951 3.89191,0.18687 1.69209,-0.66073 4.47268,-0.95443 1.99121,0.10152 3.33052,0.44368 3.81071,0.85111 0.51058,3.08217 3.70541,2.95776 3.24417,4.08421 -9.69736,0.0855 -26.10094,0.0768 -26.10094,0.0768 H 96.405633 v -0.20633 z"
     style="fill:#711717;fill-opacity:1;fill-rule:evenodd;stroke:none;stroke-width:1.00917256" />
  <path
     id="path3028-8-0"
     d="m 102.41724,197.29622 c 0,-0.33674 1.15085,-0.39876 0.62395,-0.39876 h 0.62393 v 0.0479 c -0.60028,-3.52607 1.87652,-1.62159 3.91344,-1.68877 0,-0.28455 0.14049,-0.32635 1.37267,-0.40834 1.23986,-0.0826 1.37268,1.92861 1.37268,1.63708 0,-0.31482 0.0489,-0.32274 1.99662,-0.32274 1.93762,0 1.99662,0.009 1.99662,0.31699 0,0.28456 0.14052,-1.72482 1.37269,-1.64284 1.23988,0.0826 1.88327,0.51915 1.37267,0.41409 l -2.66552,0.95427 7.28272,-1.41966 -8.9328,-0.12523 c 0.0948,-1.07982 1.0046,-6.24689 1.18587,-9.79953 0.11089,-2.17339 0.0669,-5.37398 1.10259,-7.35098 1.02751,-1.96144 3.13027,-2.70784 4.33514,-2.72533 2.56213,-0.0188 4.86128,2.31542 6.42538,7.12294 0.7815,2.40205 1.11238,10.87528 2.02634,12.08058 3.11124,6.81473 -0.26463,3.67547 -10.82486,3.70715 h -14.58013 v -0.39877 z"
     style="opacity:0.98279993;fill:#c21c1c;fill-opacity:1;fill-rule:evenodd;stroke:none;stroke-width:1.06411386" />
  <path
     id="path3028-4-0-8"
     d="m 105.03466,197.72074 c 0,-0.32 0.97413,-0.37896 0.52814,-0.37896 h 0.52814 v 0.0455 -2.65264 h 0.52812 c 0.41569,0 2.78436,1.28494 2.78436,1.04784 0,-0.27041 0.11893,-0.31012 1.16188,-0.38804 1.04948,-0.0784 1.16189,-0.11647 1.16189,-0.3935 0,-0.29916 0.0414,1.74448 1.69003,1.74448 1.64009,0 1.69004,-2.04297 1.69004,-1.74995 0,0.27041 0.11892,0.31012 1.16188,0.38804 1.04949,0.0784 1.59407,0.49333 1.1619,0.3935 l -2.25621,1.00881 6.1644,-1.34907 -7.30533,-0.25263 c 0.0988,-1.26371 1.40233,-15.15723 2.49712,-16.35964 0.90489,-0.99385 1.06729,-2.51569 2.73559,-2.54287 1.8318,-0.0151 2.72381,1.00119 3.8573,2.13751 0.87896,0.88117 2.40045,14.75825 3.41461,16.25973 l 1.40562,10e-4 c -1.51131,4.77265 7.59919,3.39038 -10.56824,3.4194 h -12.34124 v -0.37894 z"
     style="opacity:0.98279993;fill:#8a1c1c;fill-opacity:1;fill-rule:evenodd;stroke:none;stroke-width:1.06411386" />
  <path
     id="path3028-4-7-4-1"
     d="m 108.40185,197.84113 c 0,-0.31157 0.77578,-0.36896 0.42061,-0.36896 h 0.42059 v 0.0443 -2.58276 h 0.4206 c 0.33106,0 2.21741,1.2511 2.21741,1.02025 0,-0.26329 0.0947,-0.30197 0.92532,-0.37783 0.83579,-0.0762 0.92531,-0.11341 0.92531,-0.38314 0,-0.29128 0.0331,-0.29861 1.34592,-0.29861 1.30615,0 1.34592,0.008 1.34592,0.2933 0,0.26327 0.0947,0.30195 0.92531,0.3778 0.83579,0.0764 1.2695,0.48035 0.92533,0.38314 l -1.79683,-1.01491 4.90926,0.73765 -5.81787,-0.24597 c 0.0787,-1.23042 2.48721,-14.57592 3.35909,-15.74666 0.87176,-1.0988 1.83182,-0.5514 2.70483,0.38991 0.7,0.85794 3.08693,13.40285 3.89458,14.86479 l 1.11942,0.001 c -1.20358,4.64692 6.05189,3.24703 -8.41641,3.2753 h -9.82839 v -0.36897 z"
     style="opacity:0.98279993;fill:#711717;fill-opacity:1;fill-rule:evenodd;stroke:none;stroke-width:1.06411386" />
  <path
     id="path4116-2-3-8"
     d="m 92.020284,198.48722 c 0.858518,-1.06221 2.866763,-1.28269 3.66295,-1.99302 0.636339,-0.56772 3.06995,-2.21932 3.488316,-2.65973 1.01568,-1.06922 2.53568,-0.46608 3.50804,-0.28774 5.78246,2.13656 7.79037,1.58991 9.75988,0.21228 0.54918,-0.38413 2.14766,-0.18363 3.12466,-0.16042 6.02448,2.57402 3.66319,0.0388 10.06708,-0.0985 3.11049,0.29541 3.27878,1.03612 6.2277,1.16176 2.6708,-0.4404 0.58307,-1.28226 3.69538,-1.57398 1.39617,-0.20965 2.87283,1.81421 4.92014,3.1788 1.90542,1.27004 4.44294,1.8613 4.28718,2.34915 -10.85418,0.0849 -29.21459,0.0763 -29.21459,0.0763 H 92.020284 v -0.20493 z"
     style="fill:#c21c1c;fill-opacity:1;fill-rule:evenodd;stroke:none" />
  <path
     id="path4116-2-3-8-0"
     d="m 93.658623,198.54266 c 0.803657,-0.77484 2.68357,-0.93567 3.428878,-1.45382 0.595676,-0.41412 2.873772,-1.61889 3.265399,-1.94015 0.95078,-0.77994 2.37365,-0.33998 3.28387,-0.20989 5.41295,1.55852 7.29255,1.15976 9.1362,0.15486 0.51409,-0.28022 2.01042,-0.13397 2.92499,-0.11703 5.6395,1.87764 3.4291,0.0283 9.42377,-0.0718 2.91172,0.21549 3.06925,0.7558 5.82973,0.84745 2.50013,-0.32125 0.54581,-0.93535 3.45924,-1.14815 1.30695,-0.15294 2.68924,1.32338 4.60573,2.31878 1.78366,0.92644 4.15902,1.35773 4.01321,1.7136 -10.16057,0.062 -27.3477,0.0557 -27.3477,0.0557 H 93.658623 v -0.14948 z"
     style="fill:#8a1c1c;fill-opacity:1;fill-rule:evenodd;stroke:none" />
  <path
     id="path4116-2-3-8-0-3"
     d="m 94.782206,198.59485 c 0.764035,-0.50437 2.551264,-0.60906 3.259829,-0.94634 0.56631,-0.26957 2.732075,-1.05379 3.104405,-1.26291 0.9039,-0.50769 2.25662,-0.22131 3.12196,-0.13663 5.14608,1.0145 6.93301,0.75494 8.68577,0.10081 0.48874,-0.18241 1.9113,-0.0872 2.78078,-0.0762 5.36146,1.22221 3.26004,0.0184 8.95915,-0.0467 2.76817,0.14027 2.91793,0.49198 5.54231,0.55164 2.37687,-0.20912 0.5189,-0.60886 3.2887,-0.74738 1.24251,-0.0995 2.55665,0.86144 4.37865,1.50938 1.69572,0.60305 3.95397,0.88379 3.81535,1.11544 -9.65963,0.0404 -25.99939,0.0363 -25.99939,0.0363 H 94.782206 v -0.0973 z"
     style="fill:#711717;fill-opacity:1;fill-rule:evenodd;stroke:none" />
  <path
     id="path3028-8-0-3-9"
     d="m 102.92102,296.57639 c 0,-0.31288 0.44964,1.97297 0.58365,1.53535 h 0.58363 v 0.0445 c -0.56151,-3.27627 1.7553,-1.5067 3.66064,-1.56914 0,-0.26438 0.13142,-0.30322 1.284,-0.37941 1.15978,-0.0768 1.28402,1.79198 1.28402,1.52112 0,-0.29253 0.0458,-0.29988 1.86765,-0.29988 1.81246,0 1.86765,0.008 1.86765,0.29453 0,0.2644 0.13144,-1.60263 1.28402,-1.52645 1.15979,0.0768 1.73127,0.56758 1.284,0.38475 l -2.49334,0.88667 6.81229,-1.31909 -8.35579,-0.11636 c 0.0887,-1.00332 0.93971,-7.71021 1.10927,-11.01117 0.10373,-2.01942 0.0626,-4.99328 1.03137,-6.83021 0.96114,-1.8225 2.92808,-2.51602 4.05512,-2.53227 2.39663,-0.0174 5.22778,0.92585 6.14709,6.44756 0.3566,2.14194 0.94381,10.49127 1.79874,11.61118 2.91027,6.33196 0.96951,3.51351 -8.90859,3.54295 l -14.89542,-0.31407 z"
     style="opacity:0.98279993;fill:#c21c1c;fill-opacity:1;fill-rule:evenodd;stroke:none;stroke-width:1.0322634" />
  <path
     id="path3028-4-0-8-0-1"
     d="m 106.85143,296.10218 c 0.38883,0 2.60449,1.19391 2.60449,0.9736 0,-0.25125 0.11125,-0.28814 1.08684,-0.36055 0.98168,-0.0728 1.08683,-0.10821 1.08683,-0.36563 0,-0.27795 0.0387,1.62091 1.58087,1.62091 1.53415,0 1.58087,-1.89824 1.58087,-1.62598 0,0.25125 0.11124,0.28815 1.08683,0.36055 0.9817,0.0728 1.45983,0.53679 1.08685,0.36562 l -2.11048,0.93734 5.76622,-1.25349 -6.83345,-0.23474 c 0.0924,-1.17418 1.31175,-15.98932 2.33582,-17.10655 0.84644,-0.92343 0.99835,-2.33747 2.55888,-2.36271 1.71348,-0.014 2.54787,0.93026 3.60814,1.98608 0.26484,0.26372 1.31909,1.77026 1.7407,3.73825 0.88732,4.14173 1.29376,10.32725 1.93685,11.27299 1.39371,5.79752 1.38555,3.29631 -9.05426,3.27472 12.5802,-4.81561 -10.71956,2.12859 -10.062,-1.22041 z"
     style="opacity:0.98279993;fill:#8a1c1c;fill-opacity:1;fill-rule:evenodd;stroke:none;stroke-width:1.0322634" />
  <path
     id="path3028-4-7-4-1-7-3"
     d="m 108.51906,297.0827 c 0,-0.2895 0.72566,-0.34282 0.39343,-0.34282 h 0.39342 v 0.0412 l 0.43515,0.54464 h 0.34509 c 1.18917,-1.24499 3.00886,-0.32175 3.41846,-0.79764 0,-0.27064 0.031,-0.27746 1.25899,-0.27746 1.22177,0 1.25897,0.007 1.25897,0.27252 0,0.24461 0.0886,0.28056 0.86555,0.35104 0.7818,0.071 0.30541,-0.37872 -0.0233,-0.43983 l -0.79186,-0.14719 1.08782,0.2482 -1.93774,0.20865 c 0.0736,-1.14325 2.32655,-15.44919 3.14211,-16.53698 0.81545,-1.02097 1.7135,-0.51234 2.53012,0.36228 0.65478,0.79716 2.88752,12.45336 3.643,13.81173 1.89231,4.47782 -0.0919,3.0524 -6.82563,3.04422 h -9.19353 v -0.34283 z"
     style="opacity:0.98279993;fill:#711717;fill-opacity:1;fill-rule:evenodd;stroke:none;stroke-width:1.0322634" />
  <path
     id="path4116-2-3-8-8-9"
     d="m 89.592579,298.56452 c 0.893001,-0.66158 2.981907,-0.79891 3.810073,-1.24133 0.661898,-0.3536 3.193256,-1.38228 3.628425,-1.65659 1.056479,-0.66595 2.637531,-0.29029 3.648943,-0.17921 6.01471,1.33073 8.10327,0.99026 10.15189,0.13222 0.57124,-0.23926 2.23392,-0.11437 3.25017,-0.0999 6.26645,1.6032 3.81031,0.0242 10.47142,-0.0613 3.23542,0.184 3.41047,0.64534 6.47783,0.72359 2.77808,-0.2743 0.6065,-0.79864 3.84381,-0.98034 1.45225,-0.13058 2.98822,1.12997 5.11775,1.97989 1.98196,0.79103 4.6214,1.15929 4.45938,1.46314 -11.29014,0.0529 -30.38799,0.0475 -30.38799,0.0475 H 89.592579 v -0.12764 z"
     style="fill:#c21c1c;fill-opacity:1;fill-rule:evenodd;stroke:none" />
  <path
     id="path4116-2-3-8-8-9-9"
     d="m 90.633037,298.60543 c 0.859475,-0.44919 2.869955,-0.54243 3.667029,-0.84283 0.637048,-0.24008 3.073373,-0.93853 3.492203,-1.12477 1.01682,-0.45217 2.538511,-0.19711 3.511951,-0.12168 5.78889,0.90353 7.79904,0.67235 9.77075,0.0898 0.54979,-0.16245 2.15005,-0.0776 3.12815,-0.0678 6.03118,1.08852 3.66725,0.0165 10.07828,-0.0416 3.11395,0.12492 3.28243,0.43816 6.23463,0.49129 2.67378,-0.18624 0.58373,-0.54225 3.6995,-0.66562 1.39773,-0.0886 2.87603,0.76721 4.92561,1.34428 1.90755,0.53709 4.4479,0.78713 4.29196,0.99344 -10.86627,0.036 -29.24712,0.0323 -29.24712,0.0323 H 90.633037 v -0.0867 z"
     style="fill:#8a1c1c;fill-opacity:1;fill-rule:evenodd;stroke:none" />
  <path
     id="path4116-2-3-8-8-9-9-5"
     d="m 93.161093,298.62937 c 0.78785,-0.3253 2.630786,-0.39282 3.361435,-0.61037 0.58396,-0.17386 2.817249,-0.67968 3.201179,-0.81455 0.932073,-0.32746 2.326953,-0.14275 3.219273,-0.0881 5.30647,0.65433 7.1491,0.48691 8.9565,0.065 0.50397,-0.11764 1.97088,-0.0562 2.86746,-0.0491 5.52857,0.7883 3.36164,0.012 9.23841,-0.0301 2.85444,0.0905 3.00888,0.31732 5.71506,0.35579 2.45096,-0.13487 0.53508,-0.39269 3.3912,-0.48203 1.28125,-0.0642 2.63636,0.5556 4.51513,0.97352 1.74859,0.38895 4.07723,0.57003 3.93429,0.71944 -9.96072,0.0261 -26.8098,0.0234 -26.8098,0.0234 H 93.161093 v -0.0628 z"
     style="fill:#711717;fill-opacity:1;fill-rule:evenodd;stroke:none" />
  <path
     id="path3028-8-0-3-9-8"
     d="m 111.48771,346.95136 c 1.93476,0 1.99367,0.007 1.99367,0.25833 0,0.23189 0.14031,-1.40559 1.37067,-1.33878 1.23805,0.0673 1.8481,0.4978 1.37065,0.33745 l -2.6616,0.77766 7.272,-1.15692 -8.91965,-0.10207 c 0.0947,-0.87996 1.00312,-6.76222 1.18412,-9.65732 0.11074,-1.77113 0.0668,-4.37935 1.10098,-5.99042 1.02599,-1.59842 3.12566,-2.20667 4.32875,-2.22092 1.37867,-0.008 3.57489,0.0884 4.72728,1.20917 0.98606,0.95902 0.96847,2.78892 1.68863,4.59542 0.78034,1.95749 1.11074,8.86244 2.02336,9.84465 3.10666,5.55342 -0.30073,3.70815 -10.84541,3.73397 -0.34657,-1.27035 -12.52529,-0.28789 -4.63345,-0.29024 z"
     style="opacity:0.98279993;fill:#c21c1c;fill-opacity:1;fill-rule:evenodd;stroke:none;stroke-width:1.02477515" />
  <path
     id="path3028-4-0-8-0-1-0"
     d="m 112.58278,347.42638 c 1.63767,0 1.68755,-1.66485 1.68755,-1.42606 0,0.22037 0.11874,0.25272 1.16017,0.31622 1.04795,0.0639 1.55834,0.47079 1.16019,0.32067 l -2.25289,0.82209 6.15532,-1.09937 -7.29457,-0.20588 c 0.0987,-1.02981 1.40027,-14.02339 2.49344,-15.00326 0.90356,-0.8099 1.06572,-2.05007 2.73156,-2.07222 1.8291,-0.0123 3.08394,0.46825 4.21576,1.39425 0.87767,0.71807 2.03278,12.37437 3.04544,13.59795 1.48776,5.0847 1.99518,2.80629 -9.14912,2.78737 -1.69116,-0.43805 -5.75991,0.38179 -3.95285,0.56824 z"
     style="opacity:0.98279993;fill:#8a1c1c;fill-opacity:1;fill-rule:evenodd;stroke:none;stroke-width:1.02477515" />
  <path
     id="path3028-4-7-4-1-7-3-9"
     d="m 112.89678,346.16127 c 0,-0.23737 0.0331,-0.24335 1.34395,-0.24335 1.30422,0 1.34393,0.006 1.34393,0.23902 0,0.21454 0.0946,0.24607 0.92395,0.30788 0.83456,0.0623 0.32602,-0.33216 -0.0249,-0.38576 l -0.84529,-0.12908 1.16123,0.21767 -2.0685,0.18301 c 0.0786,-1.00269 2.48355,-13.54969 3.35414,-14.50374 0.87048,-0.89543 1.82913,-0.44934 2.70085,0.31774 0.69897,0.69916 3.08238,10.92219 3.88884,12.11355 2.02001,3.92727 -0.0981,2.67711 -7.28624,2.66994 1.27773,-1.02466 -1.94297,-0.93065 -4.49194,-0.78688 z"
     style="opacity:0.98279993;fill:#711717;fill-opacity:1;fill-rule:evenodd;stroke:none;stroke-width:1.02477515" />
  <path
     id="path4116-2-3-8-8-9-5"
     d="m 89.592579,348.56452 c 0.893001,-0.66158 2.981907,-0.79891 3.810073,-1.24133 0.661898,-0.3536 3.193256,-1.38228 3.628425,-1.65659 1.056479,-0.66595 2.637531,-0.29029 3.648943,-0.17921 6.01471,1.33073 8.10327,0.99026 10.15189,0.13222 0.57124,-0.23926 2.23392,-0.11437 3.25017,-0.0999 6.26645,1.6032 3.81031,0.0242 10.47142,-0.0613 3.23542,0.184 3.41047,0.64534 6.47783,0.72359 2.77808,-0.2743 0.6065,-0.79864 3.84381,-0.98034 1.45225,-0.13058 2.98822,1.12997 5.11775,1.97989 1.98196,0.79103 4.6214,1.15929 4.45938,1.46314 -11.29014,0.0529 -30.38799,0.0475 -30.38799,0.0475 H 89.592579 v -0.12764 z"
     style="fill:#c21c1c;fill-opacity:1;fill-rule:evenodd;stroke:none" />
  <path
     id="path4116-2-3-8-8-9-5-3"
     d="m 90.097411,348.60214 c 0.868618,-0.46688 2.900488,-0.5638 3.706041,-0.87603 0.643826,-0.24954 3.10607,-0.9755 3.529357,-1.16908 1.027631,-0.46999 2.565514,-0.20487 3.549301,-0.12648 5.85048,0.93913 7.88202,0.69885 9.8747,0.0933 0.55564,-0.16885 2.17293,-0.0807 3.16143,-0.0705 6.09534,1.13141 3.70627,0.0171 10.18551,-0.0433 3.14707,0.12986 3.31734,0.45543 6.30095,0.51065 2.70222,-0.19357 0.58994,-0.56361 3.73885,-0.69185 1.4126,-0.0922 2.90664,0.79745 4.97801,1.39726 1.92786,0.55824 4.49523,0.81814 4.33762,1.03257 -10.98186,0.0374 -29.55826,0.0335 -29.55826,0.0335 H 90.097411 v -0.0901 z"
     style="fill:#8a1c1c;fill-opacity:1;fill-rule:evenodd;stroke:none" />
  <path
     id="path4116-2-3-8-8-9-5-3-8"
     d="m 90.846469,348.64659 c 0.81528,-0.23681 2.722383,-0.28601 3.478471,-0.44439 0.604292,-0.12656 2.915343,-0.49485 3.312633,-0.59307 0.96453,-0.23842 2.407977,-0.10388 3.331357,-0.0641 5.49123,0.47639 7.39803,0.35449 9.26835,0.0471 0.52152,-0.0857 2.0395,-0.0411 2.9673,-0.036 5.72105,0.57394 3.47869,0.009 9.56007,-0.0218 2.95382,0.0658 3.11364,0.23102 5.91404,0.25902 2.53629,-0.0982 0.55371,-0.28591 3.50926,-0.35094 1.32586,-0.0467 2.72816,0.40451 4.67234,0.70878 1.80948,0.28322 4.2192,0.41506 4.07126,0.52382 -10.30751,0.0188 -27.74323,0.0173 -27.74323,0.0173 H 90.846469 v -0.0456 z"
     style="fill:#711717;fill-opacity:1;fill-rule:evenodd;stroke:none" />
  <path
     id="path3028-8-0-3-9-8-5-7-3-2-4"
     d="m 108.93124,397.90915 c 0.37497,-0.72046 1.77906,-1.37088 1.96352,-2.09418 2.51377,-9.85676 3.06493,-14.33506 7.74433,-14.69592 2.59527,-0.0156 5.30251,0.84258 6.88683,4.66076 0.79162,1.90774 2.37664,10.89974 3.30243,11.85701 -9.6137,0.12331 -2.92079,0.35917 -19.89711,0.27233 z"
     style="fill:#c21c1c;fill-opacity:1;fill-rule:evenodd;stroke:none" />
  <path
     id="path3028-8-0-3-9-8-5-7-3-2-4-0"
     d="m 109.59603,398.01872 c 0.34752,-0.65228 1.64882,-1.24114 1.81978,-1.896 2.32975,-8.92394 2.84056,-12.97843 7.17741,-13.30514 2.40528,-0.0141 4.91434,0.76284 6.38268,4.21969 0.73367,1.72719 2.20265,9.86822 3.06067,10.73489 -8.90993,0.11164 -2.70697,0.32518 -18.44054,0.24656 z"
     style="fill:#8a1c1c;fill-opacity:1;fill-rule:evenodd;stroke:none" />
  <path
     id="path3028-8-0-3-9-8-5-7-3-2-4-0-2"
     d="m 110.62517,398.64842 c 0.31399,-0.60809 1.48975,-1.15705 1.64422,-1.76754 2.105,-8.3193 2.56652,-12.09909 6.48499,-12.40366 2.17324,-0.0131 4.44024,0.71115 5.76693,3.9338 0.66289,1.61016 1.99015,9.1996 2.76539,10.00755 -8.05036,0.10407 -2.44581,0.30314 -16.66153,0.22985 z"
     style="fill:#711717;fill-opacity:1;fill-rule:evenodd;stroke:none" />
  <path
     id="path4116-2-3-8-8-9-3"
     d="m 89.460164,398.55967 c 0.893001,-0.68661 2.981907,-0.82914 3.810073,-1.28829 0.661898,-0.36698 3.193256,-1.43458 3.628425,-1.71927 1.056479,-0.69115 2.637531,-0.30127 3.648948,-0.18599 6.0147,1.38107 8.10327,1.02773 10.15188,0.13722 0.57125,-0.24831 2.23393,-0.11874 3.25017,-0.1037 6.26645,1.66386 3.81032,0.0251 10.47142,-0.0636 3.23542,0.19097 3.41048,0.66976 6.47784,0.75097 2.77807,-0.28468 0.60649,-0.82886 3.84381,-1.01743 1.45225,-0.13552 2.98822,1.17273 5.11775,2.05479 1.98196,0.82096 4.6214,1.20316 4.45938,1.51851 -11.29014,0.0549 -30.388,0.0493 -30.388,0.0493 H 89.460164 v -0.13246 z"
     style="fill:#c21c1c;fill-opacity:1;fill-rule:evenodd;stroke:none" />
  <path
     id="path4116-2-3-8-8-9-3-4"
     d="m 90.820299,398.60067 c 0.84576,-0.47422 2.824157,-0.57266 3.608511,-0.88979 0.626882,-0.25346 3.024321,-0.99082 3.436467,-1.18745 1.000587,-0.47736 2.497993,-0.20808 3.455913,-0.12845 5.6965,0.95386 7.67459,0.70982 9.61482,0.0948 0.54103,-0.17151 2.11575,-0.082 3.07823,-0.0716 5.93494,1.14918 3.60875,0.0174 9.91745,-0.0439 3.06427,0.13191 3.23006,0.46259 6.13515,0.51868 2.6311,-0.19662 0.57441,-0.57247 3.64047,-0.70272 1.37542,-0.0936 2.83013,0.80998 4.84701,1.4192 1.8771,0.56701 4.37692,0.83099 4.22347,1.04879 -10.69287,0.0379 -28.78041,0.034 -28.78041,0.034 H 90.820299 v -0.0915 z"
     style="fill:#8a1c1c;fill-opacity:1;fill-rule:evenodd;stroke:none" />
  <path
     id="path3028-8-0-3-9-8-5-7-3-2"
     d="m 109.1201,446.44045 c 4.28287,-3.42936 4.17177,-11.49506 9.70786,-11.76394 2.59527,-0.0109 4.77284,1.33256 6.35717,4.00776 0.79162,1.33665 2.9063,6.89466 3.83209,7.56537 -9.6137,0.0864 -2.9208,0.25165 -19.89712,0.19081 z"
     style="fill:#c21c1c;fill-opacity:1;fill-rule:evenodd;stroke:none" />
  <path
     id="path3028-8-0-3-9-8-5-7-3-2-2"
     d="m 109.79464,447.12609 c 3.98056,-3.07453 3.8773,-10.30568 9.02261,-10.54673 2.41208,-0.01 4.43594,1.19468 5.90844,3.59308 0.73574,1.19834 2.70115,6.18127 3.56159,6.78258 -8.93509,0.0775 -2.71463,0.22561 -18.49264,0.17107 z"
     style="fill:#8a1c1c;fill-opacity:1;fill-rule:evenodd;stroke:none" />
  <path
     id="path3028-8-0-3-9-8-5-7-3-2-2-6"
     d="m 110.69551,448.10714 c 3.63853,-2.80432 3.54414,-9.39996 8.24734,-9.61983 2.20482,-0.009 4.05478,1.08969 5.40076,3.2773 0.67252,1.09303 2.46905,5.63803 3.25556,6.18649 -8.16734,0.0707 -2.48138,0.20579 -16.90366,0.15604 z"
     style="fill:#711717;fill-opacity:1;fill-rule:evenodd;stroke:none" />
  <path
     id="path4116-2-3-8-8-9-1"
     d="m 89.460164,448.56452 c 0.88438,-0.66158 2.953121,-0.79891 3.773292,-1.24133 0.655508,-0.3536 3.16243,-1.38228 3.593398,-1.65659 1.04628,-0.66595 2.612069,-0.29029 3.613716,-0.17921 5.95665,1.33073 8.02505,0.99026 10.05389,0.13222 0.56572,-0.23926 2.21236,-0.11437 3.21879,-0.0999 6.20596,1.6032 3.77353,0.0242 10.37033,-0.0613 3.20419,0.184 3.37756,0.64534 6.4153,0.72359 2.75126,-0.2743 0.60064,-0.79864 3.80671,-0.98034 1.43823,-0.13058 2.95937,1.12997 5.06835,1.97989 1.96282,0.79103 4.57678,1.15929 4.41632,1.46314 -11.18115,0.0529 -30.09464,0.0475 -30.09464,0.0475 H 89.460164 v -0.12764 z"
     style="fill:#c21c1c;fill-opacity:1;fill-rule:evenodd;stroke:none" />
  <path
     id="path4116-2-3-8-8-9-1-5"
     d="m 91.45966,448.59878 c 0.827994,-0.48459 2.764839,-0.58518 3.532718,-0.90924 0.613715,-0.259 2.960799,-1.01248 3.364294,-1.21341 0.979571,-0.48779 2.445528,-0.21263 3.383318,-0.13126 5.57687,0.97472 7.5134,0.72534 9.41289,0.0968 0.52964,-0.17525 2.0713,-0.0838 3.01357,-0.0732 5.81028,1.1743 3.53293,0.0177 9.70914,-0.0449 2.99991,0.13477 3.16222,0.47269 6.00628,0.53001 2.57586,-0.20092 0.56235,-0.58498 3.56401,-0.71807 1.34653,-0.0957 2.77069,0.82767 4.74521,1.45021 1.83767,0.57941 4.28498,0.84916 4.13475,1.07172 -10.46828,0.0387 -28.1759,0.0348 -28.1759,0.0348 H 91.45966 v -0.0935 z"
     style="fill:#8a1c1c;fill-opacity:1;fill-rule:evenodd;stroke:none" />
  <path
     id="path4116-2-3-8-8-9-1-5-4"
     d="m 94.094426,448.62609 c 0.730462,-0.343 2.439162,-0.4142 3.116591,-0.64357 0.541427,-0.18333 2.612036,-0.71665 2.967993,-0.85887 0.8642,-0.34527 2.15748,-0.1505 2.9848,-0.0929 4.91996,0.68992 6.62838,0.51341 8.30412,0.0685 0.46725,-0.12405 1.82732,-0.0593 2.6586,-0.0518 5.12588,0.83119 3.11678,0.0125 8.56547,-0.0318 2.64655,0.0954 2.78974,0.33458 5.29879,0.37515 2.27244,-0.14221 0.49611,-0.41405 3.1442,-0.50826 1.18792,-0.0677 2.44432,0.58584 4.18625,1.02648 1.62121,0.41011 3.78025,0.60105 3.64771,0.75858 -9.23519,0.0274 -24.85699,0.0246 -24.85699,0.0246 H 94.094426 v -0.0662 z"
     style="fill:#711717;fill-opacity:1;fill-rule:evenodd;stroke:none" />
  <path
     id="path3028-8-0-3-9-8-5-7-3"
     d="m 110.28308,496.859 c 3.9836,-2.04891 3.88025,-6.86787 9.02949,-7.02852 2.41393,-0.007 4.43933,0.79616 5.91295,2.39449 0.73631,0.7986 2.70322,4.11931 3.56431,4.52003 -8.94191,0.0516 -2.71669,0.15036 -18.50675,0.114 z"
     style="fill:#c21c1c;fill-opacity:1;fill-rule:evenodd;stroke:none" />
  <path
     id="path3028-8-0-3-9-8-5-7-3-0"
     d="m 110.49844,497.87474 c 3.82237,-2.04891 3.7232,-6.86787 8.66402,-7.02852 2.31623,-0.007 4.25965,0.79616 5.67363,2.39449 0.70651,0.7986 2.59381,4.11931 3.42005,4.52003 -8.57999,0.0516 -2.60674,0.15036 -17.7577,0.114 z"
     style="fill:#8a1c1c;fill-opacity:1;fill-rule:evenodd;stroke:none" />
  <path
     id="path3028-8-0-3-9-8-5-7-3-0-4"
     d="m 111.43475,498.15563 c 3.39913,-1.74867 3.31094,-5.86147 7.70467,-5.99858 2.05976,-0.006 3.78799,0.67949 5.04541,2.04361 0.62828,0.68157 2.3066,3.51568 3.04135,3.85768 -7.62995,0.044 -2.3181,0.12832 -15.79143,0.0973 z"
     style="fill:#711717;fill-opacity:1;fill-rule:evenodd;stroke:none" />
  <path
     id="path4116-2-3-8-8-9-1-3"
     d="m 89.047029,498.52669 c 0.88438,-0.61152 2.953121,-0.73846 3.773292,-1.1474 0.655508,-0.32684 3.16243,-1.27769 3.593398,-1.53124 1.04628,-0.61556 2.612069,-0.26833 3.613711,-0.16565 5.95665,1.23004 8.02505,0.91533 10.05389,0.12221 0.56572,-0.22115 2.21236,-0.10571 3.21879,-0.0923 6.20596,1.48189 3.77353,0.0224 10.37033,-0.0567 3.20419,0.17008 3.37756,0.59651 6.4153,0.66884 2.75126,-0.25354 0.60064,-0.73821 3.80671,-0.90616 1.43823,-0.1207 2.95937,1.04447 5.06835,1.83008 1.96282,0.73117 4.57678,1.07157 4.41632,1.35242 -11.18115,0.0489 -30.09464,0.0439 -30.09464,0.0439 H 89.047029 v -0.11798 z"
     style="fill:#c21c1c;fill-opacity:1;fill-rule:evenodd;stroke:none" />
  <path
     id="path4116-2-3-8-8-9-1-3-0"
     d="m 90.774399,498.56426 c 0.827995,-0.41683 2.764839,-0.50336 3.532718,-0.78211 0.613715,-0.22278 2.960803,-0.87091 3.364294,-1.04374 0.979572,-0.41958 2.445529,-0.1829 3.383309,-0.11291 5.57687,0.83843 7.5134,0.62392 9.41289,0.0833 0.52965,-0.15074 2.0713,-0.072 3.01357,-0.0629 5.81028,1.0101 3.53294,0.0153 9.70914,-0.0386 2.9999,0.11593 3.16222,0.4066 6.00628,0.4559 2.57585,-0.17282 0.56235,-0.50318 3.56401,-0.61766 1.34653,-0.0823 2.77069,0.71194 4.74521,1.24744 1.83767,0.49838 4.28497,0.73041 4.13475,0.92185 -10.46828,0.0333 -28.1759,0.0299 -28.1759,0.0299 H 90.774399 v -0.0804 z"
     style="fill:#8a1c1c;fill-opacity:1;fill-rule:evenodd;stroke:none" />
  <path
     id="path4116-2-3-8-8-9-1-3-0-9"
     d="m 92.982673,498.64087 c 0.765495,-0.26665 2.55614,-0.322 3.266057,-0.50032 0.567387,-0.14251 2.737312,-0.55713 3.110351,-0.66769 0.905619,-0.2684 2.260929,-0.117 3.127919,-0.0722 5.15591,0.53635 6.94627,0.39912 8.70237,0.0533 0.48967,-0.0964 1.91496,-0.046 2.7861,-0.0403 5.3717,0.64616 3.26626,0.01 8.97626,-0.0247 2.77346,0.0741 2.92352,0.2601 5.5529,0.29164 2.38142,-0.11056 0.51991,-0.32189 3.295,-0.39512 1.24488,-0.0527 2.56154,0.45543 4.38702,0.79799 1.69896,0.31881 3.96153,0.46724 3.82264,0.58971 -9.67809,0.0213 -26.04909,0.0191 -26.04909,0.0191 H 92.982673 v -0.0514 z"
     style="fill:#711717;fill-opacity:1;fill-rule:evenodd;stroke:none" />
  <path
     id="path3028-8-0-3"
     d="m 103.75811,246.05273 c 0,-0.32834 0.43876,2.07042 0.56954,1.61118 h 0.56951 v 0.0467 c -0.54793,-3.4381 1.71287,-1.58113 3.57214,-1.64664 0,-0.27745 0.12824,-0.3182 1.25296,-0.39815 1.13173,-0.0805 1.25297,1.88049 1.25297,1.59624 0,-0.30697 0.0447,-0.31469 1.82249,-0.31469 1.76864,0 1.82249,0.009 1.82249,0.30908 0,0.27746 0.12827,-1.68179 1.25298,-1.60185 1.13175,0.0805 1.68941,0.59562 1.25295,0.40376 l -2.43305,0.93046 6.64758,-1.38424 -8.15376,-0.12211 c 0.0866,-1.05287 0.91699,-8.09103 1.08245,-11.55503 0.10122,-2.11916 0.0611,-5.2399 1.00644,-7.16757 0.93789,-1.91251 2.85727,-2.64028 3.95706,-2.65734 2.33869,-0.0183 4.43733,2.25765 5.86501,6.94523 0.71335,2.34212 1.01537,10.60394 1.84963,11.77917 2.8399,6.6447 -0.24155,5.58377 -9.88082,5.61466 l -13.30857,-2 v -0.38883 z"
     style="opacity:0.98279993;fill:#c21c1c;fill-opacity:1;fill-rule:evenodd;stroke:none;stroke-width:1.00389135" />
  <path
     id="path3028-4-0-8-0"
     d="m 105.95853,248.56028 c 0,0.31201 0.38739,0.0234 0.48208,-0.3695 h 0.48208 v 0.0444 c -0.0805,-2.02135 0.57849,-1.72322 3.0236,-1.56476 0,-0.26366 0.10856,-0.30238 1.06055,-0.37836 0.95795,-0.0764 1.06056,-0.11356 1.06056,-0.38368 0,-0.29169 0.0378,1.70096 1.54264,1.70096 1.49706,0 1.54265,-1.992 1.54265,-1.70629 0,0.26366 0.10855,0.30238 1.06056,0.37836 0.95796,0.0764 1.42453,0.5633 1.06056,0.38368 l -2.05944,0.98364 5.6268,-1.31541 -6.66823,-0.24633 c 0.0902,-1.23218 1.28003,-16.77906 2.27935,-17.95147 0.82597,-0.96905 0.9742,-2.45292 2.49701,-2.47942 1.67204,-0.0147 2.48626,0.97621 3.5209,2.08418 0.80231,0.85918 2.1911,14.39003 3.11682,15.85405 1.36001,6.08387 1.82386,3.35774 -8.36354,3.33509 h -11.26495 v 1.63051 z"
     style="opacity:0.98279993;fill:#8a1c1c;fill-opacity:1;fill-rule:evenodd;stroke:none;stroke-width:1.00389135" />
  <path
     id="path3028-4-7-4-1-7"
     d="m 108.4659,246.58404 c 0,-0.3038 0.70812,-0.35975 0.38392,-0.35975 h 0.38391 v 0.0432 l 0.42463,0.57153 h 0.33674 c 1.4162,-1.75629 2.83547,-1.46483 3.33581,-0.83704 0,-0.28401 0.0302,-0.29116 1.22855,-0.29116 1.19223,0 1.22854,0.008 1.22854,0.28598 0,0.2567 0.0865,0.29442 0.84461,0.36838 1.13572,0.51193 0.41043,-0.20691 -0.79549,-0.61601 4.47834,0.45499 3.25933,0.717 -0.82937,0.47941 0.0718,-1.19972 2.27029,-16.21225 3.06613,-17.35378 0.79574,-1.07139 1.67207,-0.53764 2.46895,0.38018 0.63895,0.83654 2.81771,13.06845 3.55492,14.49392 l 0.17911,1.31184 c -1.09862,4.53098 6.36678,1.85518 -6.83971,1.88274 h -8.97125 v -0.35976 z"
     style="opacity:0.98279993;fill:#711717;fill-opacity:1;fill-rule:evenodd;stroke:none;stroke-width:1.00389135" />
  <path
     id="path4116-2-3-8-8"
     d="m 89.989825,248.46642 c 0.886166,-0.77207 2.959083,-0.93233 3.78091,-1.44865 0.656831,-0.41264 3.168814,-1.61312 3.600652,-1.93324 1.048392,-0.77717 2.617346,-0.33877 3.621023,-0.20914 5.96867,1.55297 8.04124,1.15563 10.07417,0.15429 0.56688,-0.27921 2.21683,-0.13347 3.22529,-0.1166 6.2185,1.87095 3.78116,0.0282 10.39128,-0.0716 3.21065,0.21472 3.38436,0.75312 6.42824,0.84443 2.75682,-0.3201 0.60185,-0.93202 3.8144,-1.14406 1.44113,-0.15239 2.96534,1.31868 5.07858,2.31054 1.96677,0.92314 4.58601,1.3529 4.42524,1.7075 -11.20373,0.0617 -30.15539,0.0554 -30.15539,0.0554 H 89.989825 v -0.14896 z"
     style="fill:#c21c1c;fill-opacity:1;fill-rule:evenodd;stroke:none" />
  <path
     id="path4116-2-3-8-8-5"
     d="m 91.404808,248.504 c 0.85264,-0.57738 2.847132,-0.69723 3.637866,-1.08335 0.631981,-0.30858 3.048924,-1.20634 3.464427,-1.44574 1.008728,-0.58119 2.518329,-0.25334 3.484039,-0.1564 5.74285,1.16136 7.73701,0.86422 9.69303,0.11538 0.54544,-0.2088 2.13296,-0.0998 3.10327,-0.0872 5.98323,1.39916 3.63811,0.0211 9.99814,-0.0535 3.08918,0.16057 3.25632,0.56321 6.18504,0.63149 2.65252,-0.23938 0.57908,-0.69699 3.67009,-0.85556 1.3866,-0.11397 2.85315,0.98615 4.88644,1.72789 1.89236,0.69036 4.41251,1.01175 4.25782,1.27693 -10.77986,0.0461 -29.01452,0.0414 -29.01452,0.0414 H 91.404808 v -0.1114 z"
     style="fill:#8a1c1c;fill-opacity:1;fill-rule:evenodd;stroke:none" />
  <path
     id="path4116-2-3-8-8-5-2"
     d="m 93.090176,248.54501 c 0.799303,-0.36498 2.669028,-0.44075 3.410296,-0.68483 0.592447,-0.19507 2.858188,-0.76258 3.247715,-0.91392 0.945623,-0.3674 2.360783,-0.16015 3.266083,-0.0989 5.3836,0.73414 7.25301,0.5463 9.08668,0.0729 0.51132,-0.13198 1.99953,-0.0631 2.90914,-0.0551 5.60895,0.88448 3.41052,0.0134 9.37269,-0.0338 2.89594,0.10151 3.05262,0.35603 5.79813,0.3992 2.48659,-0.15133 0.54286,-0.4406 3.44052,-0.54085 1.29985,-0.072 2.67466,0.62339 4.58075,1.09228 1.77398,0.43641 4.13649,0.63958 3.99147,0.8072 -10.10551,0.0291 -27.19948,0.0262 -27.19948,0.0262 H 93.090176 v -0.0704 z"
     style="fill:#711717;fill-opacity:1;fill-rule:evenodd;stroke:none" />
  <path
     id="path3834-5-6-3-7-4-5-8"
     d="m 23.725151,39.330562 c -2.526977,-2.465774 0.636284,-3.613854 2.859586,-3.380759 2.720988,0.285278 1.393981,0.625233 5.230675,0.188563 3.728598,-1.777552 3.072516,-1.896996 8.038795,-0.659161 3.545565,0.883721 4.281149,-1.956456 7.627561,-1.618247 1.19721,0.120996 4.003528,0.824435 4.015764,1.59798 2.371556,1.215636 2.061671,-1.555614 3.765665,-0.67897 1.990372,1.010594 2.637999,1.628196 0.982284,4.479917 -2.718106,5.266891 -2.87041,6.101349 -2.888741,9.332625 -4.39663,0.05679 -25.034215,0.09984 -27.213816,0.09984 -0.423981,-6.22401 -0.882323,-6.357723 -2.417773,-9.361786 z"
     style="fill:#c21c1c;fill-opacity:1;fill-rule:evenodd;stroke:none;stroke-width:0.99936765" />
  <path
     id="path3834-5-6-3-7-4-5-8-4"
     d="m 25.346701,40.425764 c -2.244106,-2.164164 0.565059,-3.171812 2.539481,-2.96723 2.4164,0.250384 1.237938,0.548757 4.645149,0.1655 3.311218,-1.560124 2.728578,-1.664958 7.138929,-0.578534 3.148672,0.775626 3.801913,-1.717144 6.773726,-1.420306 1.063193,0.106197 3.555368,0.723593 3.566235,1.402518 2.106083,1.066941 1.830886,-1.365333 3.344133,-0.595918 1.767569,0.886979 2.3427,1.429036 0.872327,3.931938 -2.413839,4.622651 -2.549094,5.355041 -2.565374,8.19107 -3.904468,0.04985 -22.231866,0.08763 -24.167482,0.08763 -0.376518,-5.462698 -0.783553,-5.580057 -2.147124,-8.216665 z"
     style="fill:#8a1c1c;fill-opacity:1;fill-rule:evenodd;stroke:none;stroke-width:0.99936765" />
  <path
     id="path3834-5-6-3-7-4-5-8-4-7"
     d="m 27.450209,41.826322 c -1.926197,-1.795275 0.48501,-2.631165 2.179729,-2.461455 2.074084,0.207705 1.062566,0.455218 3.9871,0.137289 2.842138,-1.294195 2.342037,-1.381159 6.127601,-0.47992 2.702619,0.643418 3.26332,-1.424451 5.814135,-1.178209 0.912576,0.08809 3.051701,0.600253 3.061028,1.163453 1.807728,0.885077 1.571517,-1.132608 2.870393,-0.494342 1.517167,0.73579 2.010822,1.185453 0.748748,3.261726 -2.071886,3.834703 -2.187981,4.442253 -2.201953,6.794871 -3.351347,0.04135 -19.082418,0.07269 -20.743827,0.07269 -0.323178,-4.531561 -0.672551,-4.628915 -1.842954,-6.816104 z"
     style="fill:#711717;fill-opacity:1;fill-rule:evenodd;stroke:none;stroke-width:0.99936765" />
  <path
     id="path3834-5-6-3-7-4-5"
     d="m 24.056893,89.329532 c -1.139418,-2.142683 -1.543144,-3.01968 -2.959905,-4.819067 -2.665636,-3.385549 1.178763,-4.327091 3.524061,-4.007048 2.870291,0.39169 1.47047,0.223665 6.735846,1.020648 6.775557,-1.424944 4.865319,-2.350693 10.104104,-0.651124 3.740116,1.213363 2.891852,-2.940162 6.421887,-2.475796 3.780898,0.534656 3.944194,3.131073 7.186335,3.868502 1.379338,0.341431 0.613071,-0.867906 2.849306,-1.71798 1.693533,-0.643765 5.016038,2.108583 3.066445,3.992716 -4.847303,4.684547 -3.949778,3.338433 -5.910569,8.241794 -1.006211,3.725498 -0.99418,5.773092 -0.99418,5.773092 -4.637878,0.07798 -26.407874,0.137079 -28.707073,0.137079 -0.119026,-5.357308 0.23231,-7.061094 -1.316257,-9.362816 z"
     style="fill:#c21c1c;fill-opacity:1;fill-rule:evenodd;stroke:none;stroke-width:0.99091488" />
  <path
     id="path3834-5-6-3-7-4-5-1"
     d="m 25.312847,89.610138 c -1.03664,-1.910145 -1.029423,-3.151654 -2.318389,-4.75576 -2.425191,-3.018127 0.323382,-2.662292 2.45713,-2.376983 2.611386,0.349182 1.337831,0.199392 6.12826,0.909881 6.164389,-1.2703 4.426458,-2.09558 9.192695,-0.58046 3.402751,1.081681 3.754583,-2.345263 6.966202,-1.931292 3.439854,0.476631 2.371207,1.963826 5.320902,2.621224 1.254918,0.304378 2.055878,0.145666 4.090401,-0.612152 1.540773,-0.5739 2.035525,1.511994 0.261788,3.191648 -4.410066,4.176151 -2.469919,2.976125 -4.253843,7.347342 -0.915449,3.321183 -0.904503,5.14656 -0.904503,5.14656 -4.219533,0.06952 -24.025835,0.122202 -26.117642,0.122202 -0.10829,-4.775899 0.585882,-7.030285 -0.823001,-9.08221 z"
     style="fill:#8a1c1c;fill-opacity:1;fill-rule:evenodd;stroke:none;stroke-width:0.99091488" />
  <path
     id="path3834-5-6-3-7-4-5-1-5"
     d="m 26.968736,89.887638 c -0.936234,-1.673637 -1.730966,-2.069943 -2.281101,-3.799164 -0.799936,-2.514413 -0.105186,-1.704864 1.821895,-1.454881 2.358457,0.305948 1.6055,1.929977 5.931946,2.552496 5.567328,-1.113016 4.19635,-1.706092 8.500947,-0.37857 3.073173,0.947752 3.390928,-1.46979 6.291481,-1.107074 3.106683,0.417616 1.413257,0.225439 4.077255,0.80144 1.133371,0.266691 2.187791,-1.107561 3.628012,-0.341327 -1.634114,1.918223 -2.158363,4.008047 -3.009531,7.413804 -0.826781,2.909965 -0.816895,4.899391 -0.816895,4.899391 -3.810845,0.06092 -21.698781,0.10707 -23.587984,0.10707 -0.0978,-4.184562 0.716399,-6.895323 -0.556025,-8.693185 z"
     style="fill:#711717;fill-opacity:1;fill-rule:evenodd;stroke:none;stroke-width:0.99091488" />
  <path
     id="path3834-5-6-3-7-4"
     d="m 22.516035,134.0326 c -1.204006,-2.89936 -1.468482,-2.71983 -3.528651,-4.406 -4.092595,-3.34958 0.243174,-6.3528 2.721415,-5.91974 3.032995,0.53002 1.553824,0.67587 7.11767,1.7543 7.159632,-1.92815 5.842797,-2.6832 11.378544,-0.38344 3.952126,1.64186 5.762279,-4.60049 9.492415,-3.97214 3.956539,1.21491 3.400826,4.313 6.99225,5.35905 1.457526,0.46201 3.655048,-0.92559 6.018044,-2.07586 1.789531,-0.87111 3.796762,3.10203 2.939545,4.15867 -5.132245,6.32618 -8.584268,5.015 -8.952113,12.14759 -0.662284,1.931 -1.050534,7.81183 -1.050534,7.81183 -4.900777,0.10552 -27.904814,0.18549 -30.334344,0.18549 -0.326254,-8.12006 0.145237,-10.05231 -2.794241,-14.65975 z"
     style="fill:#c21c1c;fill-opacity:1;fill-rule:evenodd;stroke:none;stroke-width:0.98998666" />
  <path
     id="path3834-5-6-3-7-4-59"
     d="m 24.843755,135.1037 c -1.050052,-2.68752 -0.906183,-3.43878 -2.702922,-5.00174 -3.569282,-3.10486 -0.630607,-4.32863 1.530747,-3.9272 2.645171,0.49129 1.823298,-0.0159 6.675704,0.98375 6.244143,-1.78727 5.09569,-2.48715 9.92359,-0.35542 3.446775,1.5219 5.77452,-3.62201 9.027691,-3.03956 3.450623,1.12614 2.216915,3.35552 5.349109,4.32514 1.271155,0.42826 4.311265,-0.12384 6.372108,-1.19007 1.560707,-0.80746 1.064116,2.32479 0.316509,3.30423 -4.475994,5.86397 -6.363032,4.46506 -6.683841,11.07651 -0.577599,1.78991 -0.916204,7.24107 -0.916204,7.24107 -4.274123,0.0978 -24.336675,0.17194 -26.455545,0.17194 -0.284536,-7.52678 0.126666,-9.31786 -2.436946,-13.58865 z"
     style="fill:#8a1c1c;fill-opacity:1;fill-rule:evenodd;stroke:none;stroke-width:0.98998666" />
  <path
     id="path3834-5-6-3-7-4-59-2"
     d="m 24.897741,131.31009 c -3.251031,-2.93374 -2.030946,-2.9259 -0.06231,-2.54659 2.409317,0.46421 3.305638,5.1391 6.838129,3.70479 4.581544,-1.86025 5.995672,-1.70119 10.393098,0.31305 3.139447,1.43802 3.948797,-3.97298 6.911903,-3.42263 3.142952,1.06408 0.521138,2.34468 3.374054,3.26086 1.157814,0.40466 2.803275,-2.86999 4.493102,-2.31743 1.537439,0.50273 -1.133259,2.53501 -1.771609,3.48918 -2.399462,4.40496 -2.380138,6.09206 -2.053547,14.73857 -3.893023,0.0924 -21.604931,0.16246 -23.534874,0.16246 -0.280175,-7.7413 -0.61624,-13.71827 -4.587946,-17.38226 z"
     style="fill:#711717;fill-opacity:1;fill-rule:evenodd;stroke:none;stroke-width:0.98998666" />
  <path
     id="path3834-5-6-3-7"
     d="m 21.618956,179.61791 c -2.849057,-4.50811 -3.81898,-3.18035 -5.991183,-5.22085 -4.315154,-4.0535 0.05895,-7.79889 2.671961,-7.27481 3.197932,0.6414 3.217899,1.7063 9.084313,3.01136 7.54898,-2.33335 8.628622,-2.58076 14.465409,0.20229 4.167047,1.98689 5.384573,-5.90044 9.317559,-5.14003 5.696083,0.21161 2.99157,4.87043 7.273771,6.48525 1.536788,0.55909 5.137219,-1.23116 7.628717,-2.62316 1.886848,-1.05417 3.684308,1.01982 4.086637,2.5895 2.930009,11.43132 -9.779402,-1.10103 -11.709581,17.25451 l -2.094898,9.73163 c -5.167286,0.1277 -28.435072,0.003 -30.996722,0.003 -0.582394,-8.85505 -1.339154,-15.17965 -3.735983,-19.01853 z"
     style="fill:#c21c1c;fill-opacity:1;fill-rule:evenodd;stroke:none;stroke-width:0.98900175" />
  <path
     id="path3834-5-6-3-7-0"
     d="m 23.734883,180.66817 c -2.516108,-4.2466 -2.048532,-3.77298 -3.966886,-5.69511 -3.810874,-3.81837 -2.861075,-5.79228 -0.553426,-5.29861 2.824214,0.6042 3.239093,1.34829 8.419945,2.57765 6.666788,-2.19801 8.811997,-2.94913 13.966683,-0.32752 3.680076,1.87164 6.741549,-4.65154 10.214916,-3.93525 5.030425,0.19934 0.655739,3.68129 4.437511,5.20244 1.357196,0.52666 5.728609,0.13544 7.928944,-1.17581 1.666347,-0.99303 3.142442,1.321 2.946987,2.82784 -0.590365,4.55134 -9.166218,-2.72089 -10.870832,14.56991 l -1.850084,9.16712 c -4.563424,0.1203 -25.11208,0.003 -27.37437,0.003 -0.514334,-8.34139 -1.182657,-14.29913 -3.299388,-17.91533 z"
     style="fill:#8a1c1c;fill-opacity:1;fill-rule:evenodd;stroke:none;stroke-width:0.98900175" />
  <path
     id="path3834-5-6-3-7-0-8"
     d="m 25.129048,178.65374 c -3.003337,-3.03502 -3.049296,-4.21542 -1.230645,-3.82301 2.225753,0.48023 2.420303,1.84879 6.503315,2.82593 5.254074,-1.74707 6.944705,-2.3441 11.007097,-0.26032 2.900256,1.48767 5.312993,-3.69728 8.050342,-3.12793 3.964462,0.15845 0.516786,2.92607 3.497188,4.13515 1.069602,0.41862 3.295379,-2.47253 5.189452,-3.20117 1.737078,-0.66823 1.734758,0.24794 1.594227,1.47061 -0.416454,3.62332 -5.43626,0.88098 -6.779661,14.62456 l -1.458045,7.28647 c -3.596419,0.0956 -19.790747,0.003 -21.57365,0.003 -0.679605,-4.76349 -1.91053,-16.85716 -4.79962,-19.93322 z"
     style="fill:#711717;fill-opacity:1;fill-rule:evenodd;stroke:none;stroke-width:0.98900175" />
  <path
     id="path3834-5-6-3"
     d="m 24.279481,248.64903 c -0.0021,-8.12692 -0.674478,-12.80484 -1.947372,-18.80576 -2.872411,-4.46722 -8.660165,-7.73585 -9.00852,-9.07585 -1.45177,-5.58446 3.219163,-6.18535 5.853588,-5.66603 3.224147,0.63558 3.00822,4.34481 8.858827,2.80253 7.800011,-2.05616 7.371568,-2.37583 13.2562,0.38197 4.201205,1.96887 7.439447,-5.75616 11.404672,-5.00266 5.88637,1.43177 3.32255,5.11229 8.482387,6.88018 1.549385,0.55402 3.83884,-1.40149 6.350762,-2.78086 1.902314,-1.04462 5.150747,0.28455 5.556374,1.83998 2.954028,11.32763 -11.678801,1.63155 -13.624802,19.82058 l -2.112071,9.5878 c -5.209643,0.12655 -30.487397,0.0184 -33.070045,0.0181 z"
     style="fill:#c21c1c;fill-opacity:1;fill-rule:evenodd;stroke:none;stroke-width:0.98450583" />
  <path
     id="path3834-5-6-3-9"
     d="m 26.032431,248.60951 c -0.0019,-7.56614 -0.613588,-11.92129 -1.771569,-17.50814 -2.348268,-5.95578 -7.854441,-8.94573 -8.592502,-10.37476 -2.475121,-4.79229 1.736809,-3.44836 4.133405,-2.96486 2.93308,0.59171 4.32563,3.65997 9.64806,2.22411 7.095848,-1.91429 6.706084,-2.2119 12.059468,0.35561 3.821932,1.83302 6.767834,-5.35898 10.37509,-4.65747 5.354965,1.33298 3.022599,4.75954 7.716621,6.40544 1.409511,0.51579 4.816432,-0.79142 7.101585,-2.07561 1.730578,-0.97253 3.411783,-0.25961 3.730608,1.19965 1.098363,5.02722 -10.624472,1.51897 -12.394793,18.45294 l -1.921399,8.92623 c -4.739331,0.11781 -27.735081,0.0171 -30.084574,0.0169 z"
     style="fill:#8a1c1c;fill-opacity:1;fill-rule:evenodd;stroke:none;stroke-width:0.98450583" />
  <path
     id="path3834-5-6-3-9-0"
     d="m 27.602149,248.60874 c -0.0017,-6.21146 -0.539507,-9.78685 -1.55768,-14.3734 -1.005428,-5.53115 -4.018476,-8.39282 -4.667428,-9.56598 -2.176288,-3.93425 0.367507,-2.71172 2.474751,-1.40726 2.214151,1.37062 2.168956,3.93422 6.848785,2.75544 6.239133,-1.57155 5.802795,-1.99738 10.509841,0.11043 3.360492,1.50482 6.887038,-4.30872 10.058774,-3.73281 4.708435,1.09431 1.721349,3.09058 5.84864,4.44179 1.239334,0.42344 3.433776,-1.38863 5.443032,-2.44289 1.521637,-0.79841 2.466305,-1.99704 2.746635,-0.79906 0.479655,2.04979 -1.679538,1.81361 -3.976849,3.94739 -2.328176,2.16245 -4.803273,6.72707 -5.586757,13.72447 l -1.68942,7.32804 c -4.16713,0.0967 -24.386496,0.0139 -26.452324,0.0139 z"
     style="fill:#711717;fill-opacity:1;fill-rule:evenodd;stroke:none;stroke-width:0.98450583" />
  <path
     id="path3834-5-6"
     d="m 22.855518,298.61875 c -0.002,-8.29755 0.393575,-12.42702 -0.831908,-18.55393 -2.765423,-4.561 -8.071104,-8.42242 -8.151519,-9.00433 -0.80448,-5.82148 3.099262,-6.97041 5.635563,-6.44018 3.104059,0.64892 4.760363,4.79735 10.393038,3.22269 7.509794,-2.09942 7.057961,-2.26288 12.723411,0.55282 4.044725,2.01021 5.728322,-6.13909 9.545857,-5.36977 1.365757,0.27524 4.470178,2.2771 4.484136,4.03669 0.021,2.64778 1.275028,2.43842 2.378649,2.85691 1.491675,0.56566 4.60842,-0.38261 7.026781,-1.79094 1.83146,-1.06654 5.35,-0.23363 5.740518,1.35447 2.844001,11.56545 -10.722341,0.3554 -12.59586,18.92633 l -1.772671,10.05118 c 11.149828,0.39128 -32.089541,0.15839 -34.575995,0.1581 z"
     style="fill:#c21c1c;fill-opacity:1;fill-rule:evenodd;stroke:none;stroke-width:0.97615808" />
  <path
     id="path3834-5-6-36"
     d="m 24.030812,298.61876 c -0.0019,-7.74602 0.750269,-12.55178 -0.394835,-18.27144 -2.584041,-4.25785 -6.904214,-8.51779 -6.979354,-9.06101 -0.751714,-5.43455 1.365955,-4.80361 3.735902,-4.30862 2.900466,0.60579 3.384248,3.02883 8.704975,4.26144 5.89928,-4.3663 8.111431,-3.49647 13.405286,-0.86792 3.779434,1.87659 5.352605,-5.73105 8.91975,-5.01285 1.276178,0.25694 4.176981,2.12574 4.190024,3.76837 0.01962,2.47179 1.1914,2.27634 2.222634,2.66702 1.393837,0.52806 4.306157,-0.35718 6.565899,-1.6719 1.711334,-0.99565 5.635132,-0.23919 5.364,1.26444 -1.352367,7.4999 -10.594152,-0.14104 -11.769704,17.66833 l -1.656403,9.3831 c 10.418517,0.36527 -29.984804,0.18135 -32.308174,0.18106 z"
     style="fill:#8a1c1c;fill-opacity:1;fill-rule:evenodd;stroke:none;stroke-width:0.97615808" />
  <path
     id="path3834-5-6-36-7"
     d="m 25.650959,298.57219 c -0.0017,-6.33124 0.663707,-10.25924 -0.349282,-14.93423 -0.122129,-7.55715 -4.124185,-8.25927 -4.551288,-10.37113 -0.889895,-4.40017 -1.707623,0.7237 -0.121111,-2.40976 1.205088,-2.38012 3.895375,5.44067 8.602234,6.44816 5.218664,-3.56881 8.798431,-2.48723 13.48152,-0.33877 3.343389,1.53384 4.374429,-3.57239 7.530023,-2.98536 1.12894,0.21 3.334439,0.9962 3.345977,2.33881 0.01735,2.02033 1.053945,2.04591 1.966203,2.36522 1.233026,0.43162 2.72745,-3.44231 4.726479,-4.51691 1.513893,-0.8138 2.769479,-1.75379 2.220725,-0.63435 -2.278233,4.64754 -5.765566,2.66447 -6.805492,17.22104 l -1.465298,7.66931 c 9.216502,0.29855 -26.525373,0.14823 -28.58069,0.14799 z"
     style="fill:#711717;fill-opacity:1;fill-rule:evenodd;stroke:none;stroke-width:0.97615808" />
</svg>
