<?xml version="1.0" encoding="UTF-8" standalone="no"?>
<!DOCTYPE svg PUBLIC "-//W3C//DTD SVG 1.1//EN" "http://www.w3.org/Graphics/SVG/1.1/DTD/svg11.dtd">
<svg width="100%" height="100%" viewBox="0 0 32 32" version="1.1" xmlns="http://www.w3.org/2000/svg" xmlns:xlink="http://www.w3.org/1999/xlink" xml:space="preserve" xmlns:serif="http://www.serif.com/" style="fill-rule:evenodd;clip-rule:evenodd;stroke-linecap:round;stroke-linejoin:round;stroke-miterlimit:1.5;">
    <g id="Mushroom">
        <g id="Silhouette" transform="matrix(0.914785,0,0,0.914785,2.03858,0.985657)">
            <path d="M10.976,16.705C7.524,15.589 2.557,12.839 1.541,9.246C0.272,4.759 4.714,4.079 6.89,2.992C9.065,1.904 13.129,1.064 16.317,1.269C20.427,1.534 28.782,5.031 29.462,9.473C30.142,13.915 27.603,14.55 25.201,16.181C23.906,17.061 21.626,17.4 19.303,17.479C19.399,17.837 19.495,18.216 19.586,18.608C20.036,20.541 21.599,21.375 22.119,22.935C23.388,26.742 21.303,29.507 19.717,30.686C18.13,31.864 13.552,31.637 11.377,30.912C9.201,30.187 7.055,26.106 7.433,22.89C7.729,20.375 9.459,18.183 10.976,16.705Z" style="fill:none;stroke:rgb(71,57,29);stroke-width:3.87px;"/>
        </g>
        <g id="Stem" transform="matrix(0.914785,0,0,0.914785,2.03858,0.985657)">
            <path d="M13.371,14.731L18.538,14.958C18.538,14.958 19.127,16.635 19.586,18.608C20.036,20.541 21.599,21.375 22.119,22.935C23.388,26.742 21.303,29.507 19.717,30.686C18.13,31.864 13.552,31.637 11.377,30.912C9.201,30.187 7.055,26.106 7.433,22.89C7.977,18.266 13.371,14.731 13.371,14.731" style="fill:rgb(186,159,103);"/>
            <clipPath id="_clip1">
                <path d="M13.371,14.731L18.538,14.958C18.538,14.958 19.127,16.635 19.586,18.608C20.036,20.541 21.599,21.375 22.119,22.935C23.388,26.742 21.303,29.507 19.717,30.686C18.13,31.864 13.552,31.637 11.377,30.912C9.201,30.187 7.055,26.106 7.433,22.89C7.977,18.266 13.371,14.731 13.371,14.731"/>
            </clipPath>
            <g clip-path="url(#_clip1)">
                <path d="M4.76,8.317C4.76,8.317 4.42,15.116 6.403,18.175C8.386,21.235 11.333,22.538 14.165,22.481C16.998,22.425 23.684,21.461 25.497,17.949C27.31,14.436 25.44,6.787 25.44,6.787L4.76,8.317Z" style="fill:rgb(117,88,31);"/>
                <path d="M3.74,22.425C3.74,22.425 8.726,28.09 10.596,29.053C12.466,30.017 16.885,30.64 18.471,29.677C20.058,28.713 22.494,27.184 22.607,20.158C22.721,13.133 31.559,34.719 31.559,34.719L1.021,36.589L3.74,22.425Z" style="fill:rgb(117,88,31);"/>
                <path d="M4.938,31.288C4.938,31.288 8.497,28.402 8.237,26.382C8.04,24.85 8.143,22.961 8.647,21.381C8.942,20.457 7.588,18.093 7.295,17.799C6.606,17.11 1.058,18.742 1.058,18.742L4.938,31.288Z" style="fill:rgb(216,191,141);"/>
            </g>
        </g>
        <g id="Cap" transform="matrix(0.914785,0,0,0.914785,2.03858,0.985657)">
            <path d="M16.317,1.269C13.129,1.064 9.065,1.904 6.89,2.992C4.714,4.079 0.272,4.759 1.541,9.246C2.81,13.734 10.244,16.907 13.19,17.224C16.136,17.541 22.623,17.933 25.201,16.181C27.603,14.55 30.142,13.915 29.462,9.473C28.782,5.031 20.427,1.534 16.317,1.269Z" style="fill:rgb(217,50,50);"/>
            <clipPath id="_clip2">
                <path d="M16.317,1.269C13.129,1.064 9.065,1.904 6.89,2.992C4.714,4.079 0.272,4.759 1.541,9.246C2.81,13.734 10.244,16.907 13.19,17.224C16.136,17.541 22.623,17.933 25.201,16.181C27.603,14.55 30.142,13.915 29.462,9.473C28.782,5.031 20.427,1.534 16.317,1.269Z"/>
            </clipPath>
            <g clip-path="url(#_clip2)">
                <g id="Spots">
                    <g transform="matrix(1,0,0,1,-1.99433,-0.997165)">
                        <path d="M10.955,7.042C10.955,7.042 9.505,6.951 8.326,7.993C7.148,9.036 7.51,9.852 8.644,10.396C9.777,10.94 12.678,11.257 13.675,10.441C14.672,9.625 15.76,8.492 14.672,7.585C13.584,6.679 9.323,7.449 10.955,7.042Z" style="fill:rgb(246,216,202);"/>
                    </g>
                    <path d="M23.556,11.302C23.472,12.887 23.964,14.158 25.459,14.702C26.955,15.245 28.768,14.384 28.995,12.979C29.221,11.574 29.72,10.532 28.542,9.489C27.363,8.447 26.23,7.812 25.006,8.356C23.782,8.9 23.601,10.441 23.556,11.302Z" style="fill:rgb(246,216,202);"/>
                    <g transform="matrix(1,0,0,0.650519,0,4.72403)">
                        <path d="M13.947,18.146C13.448,15.971 13.675,14.792 14.808,14.067C15.941,13.342 17.346,13.342 18.207,14.022C19.068,14.702 18.389,18.146 17.845,18.736C17.301,19.325 14.445,20.322 13.947,18.146Z" style="fill:rgb(246,216,202);"/>
                    </g>
                    <g transform="matrix(1,0,0,1,2.85552,0.498582)">
                        <path d="M13.493,-1.434C11.591,0.088 11.726,2.6 12.949,3.189C14.173,3.778 14.717,4.277 15.941,3.597C17.165,2.917 17.346,-0.075 17.029,-1.117C16.711,-2.16 13.72,-1.616 13.493,-1.434Z" style="fill:rgb(246,216,202);"/>
                    </g>
                </g>
                <path d="M5.074,1.244C5.074,1.244 2.671,5.187 3.215,7.634C3.759,10.082 7.159,13.346 9.561,13.799C11.963,14.252 18.399,15.34 22.569,14.524C26.739,13.708 28.008,12.031 28.462,10.127C28.915,8.224 28.598,3.464 28.688,2.649C28.779,1.833 32.994,17.334 34.263,22.683C35.532,28.031 -4.989,25.357 -4.989,25.357L-2.315,-1.567L5.074,1.244Z" style="fill:rgb(136,24,24);fill-opacity:0.55;"/>
                <path d="M0.385,5.675C5.804,3.051 9.573,2.757 12.564,2.323C16.654,1.729 19.611,2.251 24.188,4.335C27.309,5.756 29.722,6.905 31.651,8.322C33.579,9.738 19.984,-5.351 19.984,-5.351L0.72,-3.255C0.72,-3.255 -1.579,6.626 0.385,5.675Z" style="fill:rgb(247,229,229);fill-opacity:0.85;"/>
            </g>
        </g>
    </g>
</svg>
