<?xml version="1.0" encoding="UTF-8" standalone="no"?>
<!DOCTYPE svg PUBLIC "-//W3C//DTD SVG 1.1//EN" "http://www.w3.org/Graphics/SVG/1.1/DTD/svg11.dtd">
<svg width="100%" height="100%" viewBox="0 0 32 32" version="1.1" xmlns="http://www.w3.org/2000/svg" xmlns:xlink="http://www.w3.org/1999/xlink" xml:space="preserve" style="fill-rule:evenodd;clip-rule:evenodd;stroke-linecap:round;stroke-linejoin:round;stroke-miterlimit:1.5;">
    <g id="Mushroom">
        <path id="Silhouette" d="M12.08,16.268C8.922,15.246 4.378,12.731 3.448,9.444C2.287,5.339 6.351,4.717 8.341,3.722C10.331,2.727 14.049,1.959 16.965,2.147C20.725,2.388 28.368,5.588 28.99,9.651C29.612,13.715 27.29,14.295 25.092,15.788C23.908,16.593 21.821,16.903 19.697,16.975C19.784,17.302 19.872,17.65 19.956,18.008C20.367,19.776 21.797,20.539 22.273,21.966C23.434,25.449 21.526,27.978 20.075,29.056C18.624,30.134 14.436,29.927 12.446,29.264C10.456,28.6 8.492,24.867 8.839,21.925C9.109,19.625 10.692,17.619 12.08,16.268Z" style="fill:none;stroke:rgb(57,30,24);stroke-width:3.54px;"/>
        <path id="Stem" d="M14.27,14.461L18.997,14.669C18.997,14.669 19.536,16.203 19.956,18.008C20.367,19.776 21.797,20.539 22.273,21.966C23.434,25.449 21.526,27.978 20.075,29.056C18.624,30.134 14.436,29.927 12.446,29.264C10.456,28.6 8.492,24.867 8.839,21.925C9.336,17.695 14.27,14.461 14.27,14.461" style="fill:rgb(186,159,103);"/>
        <clipPath id="_clip1">
            <path d="M14.27,14.461L18.997,14.669C18.997,14.669 19.536,16.203 19.956,18.008C20.367,19.776 21.797,20.539 22.273,21.966C23.434,25.449 21.526,27.978 20.075,29.056C18.624,30.134 14.436,29.927 12.446,29.264C10.456,28.6 8.492,24.867 8.839,21.925C9.336,17.695 14.27,14.461 14.27,14.461"/>
        </clipPath>
        <g clip-path="url(#_clip1)">
            <path d="M6.556,29.608C6.556,29.608 9.811,26.967 9.574,25.119C9.394,23.718 9.488,21.99 9.949,20.545C10.218,19.7 8.98,17.537 8.712,17.268C8.082,16.638 3.007,18.131 3.007,18.131L6.556,29.608Z" style="fill:rgb(216,191,141);"/>
            <path d="M6.393,8.594C6.393,8.594 6.082,14.813 7.896,17.612C9.71,20.411 12.405,21.603 14.997,21.551C17.588,21.499 23.704,20.618 25.363,17.405C27.021,14.191 25.311,7.194 25.311,7.194L6.393,8.594Z" style="fill:rgb(112,76,29);"/>
            <path d="M5.46,21.499C5.46,21.499 10.021,26.682 11.732,27.563C13.442,28.444 17.485,29.014 18.936,28.133C20.387,27.252 22.616,25.853 22.719,19.426C22.823,12.999 30.908,32.746 30.908,32.746L2.972,34.457L5.46,21.499Z" style="fill:rgb(117,88,31);"/>
        </g>
        <path id="Cap" d="M16.965,2.147C14.049,1.959 10.331,2.727 8.341,3.722C6.351,4.717 2.287,5.339 3.448,9.444C4.609,13.549 11.409,16.451 14.104,16.742C16.8,17.032 22.734,17.39 25.092,15.788C27.29,14.295 29.612,13.715 28.99,9.651C28.368,5.588 20.725,2.388 16.965,2.147Z" style="fill:rgb(237,44,44);"/>
        <clipPath id="_clip2">
            <path d="M16.965,2.147C14.049,1.959 10.331,2.727 8.341,3.722C6.351,4.717 2.287,5.339 3.448,9.444C4.609,13.549 11.409,16.451 14.104,16.742C16.8,17.032 22.734,17.39 25.092,15.788C27.29,14.295 29.612,13.715 28.99,9.651C28.368,5.588 20.725,2.388 16.965,2.147Z"/>
        </clipPath>
        <g clip-path="url(#_clip2)">
            <g id="Spots">
                <path d="M10.236,6.515C10.236,6.515 8.909,6.432 7.831,7.386C6.753,8.339 7.085,9.086 8.121,9.583C9.158,10.081 11.811,10.371 12.724,9.625C13.636,8.878 14.631,7.842 13.636,7.012C12.641,6.183 8.743,6.888 10.236,6.515Z" style="fill:rgb(246,216,202);"/>
                <path d="M23.587,11.325C23.511,12.774 23.96,13.937 25.328,14.434C26.697,14.932 28.355,14.144 28.563,12.859C28.77,11.573 29.226,10.62 28.148,9.666C27.07,8.712 26.033,8.132 24.914,8.63C23.794,9.127 23.628,10.537 23.587,11.325Z" style="fill:rgb(246,216,202);"/>
                <path d="M14.797,16.106C14.341,14.811 14.548,14.11 15.585,13.678C16.621,13.247 17.906,13.247 18.694,13.651C19.482,14.056 18.86,16.106 18.363,16.456C17.865,16.807 15.253,17.4 14.797,16.106Z" style="fill:rgb(246,216,202);"/>
                <path d="M16.994,0.13C15.254,1.522 15.377,3.82 16.497,4.359C17.616,4.898 18.114,5.354 19.233,4.732C20.353,4.11 20.519,1.373 20.228,0.42C19.938,-0.534 17.202,-0.036 16.994,0.13Z" style="fill:rgb(246,216,202);"/>
            </g>
            <path d="M4.293,2.919C3.009,3.69 3.524,7.311 4.257,9.163C5.1,11.296 8.587,13.194 10.785,13.609C12.982,14.023 18.87,15.018 22.685,14.272C26.499,13.526 27.66,11.991 28.075,10.25C28.49,8.509 28.199,4.155 28.282,3.409C28.365,2.662 32.221,16.843 33.382,21.735C34.543,26.628 -2.525,24.182 -2.525,24.182L-0.079,-0.448L4.293,2.919Z" style="fill:rgb(136,24,24);fill-opacity:0.69;"/>
            <path d="M16.004,2.495C16.046,2.997 14.612,3.373 12.649,3.653C10.919,3.9 9.903,4.939 9.466,5.859C9.028,6.779 9.322,8.487 8.284,9.02C7.247,9.554 5.605,9.565 4.81,8.643C4.015,7.721 3.691,6.827 4.422,5.898C5.152,4.968 5.454,3.51 7.893,2.793C10.332,2.075 11.446,2.013 12.791,2.005C14.341,1.996 15.963,1.996 16.004,2.495Z" style="fill:rgb(255,116,116);fill-opacity:0.65;"/>
        </g>
    </g>
</svg>
