<?xml version="1.0" encoding="UTF-8" standalone="no"?>
<!DOCTYPE svg PUBLIC "-//W3C//DTD SVG 1.1//EN" "http://www.w3.org/Graphics/SVG/1.1/DTD/svg11.dtd">
<svg width="100%" height="100%" viewBox="0 0 32 32" version="1.1" xmlns="http://www.w3.org/2000/svg" xmlns:xlink="http://www.w3.org/1999/xlink" xml:space="preserve" style="fill-rule:evenodd;clip-rule:evenodd;stroke-linecap:round;stroke-linejoin:round;stroke-miterlimit:1.5;">
    <g id="Teapot">
        <path id="Silhouette" d="M18.373,5.252C18.439,4.822 18.522,4.468 18.628,4.227C19.332,2.614 21.094,2.449 22.723,2.366C24.353,2.284 27.7,3.111 27.744,6.13C27.776,8.36 27.833,10.614 27.86,11.638C28.049,11.992 28.199,12.333 28.318,12.645C28.604,13.394 29.4,19.01 28.924,23.133C28.19,29.5 18.33,30.285 11.928,29.459C5.729,28.659 3.597,26.67 3.251,24.401C3.057,23.126 3.083,19.135 3.215,16.75C3.352,14.282 4.993,10.093 8.66,8.519C8.79,8.272 8.991,8.023 9.269,7.775C10.234,6.914 11.94,6.474 13.581,6.256C14.125,5.458 15.283,4.906 16.622,4.906C17.263,4.906 17.862,5.033 18.373,5.252Z" style="fill:none;stroke:rgb(95,50,25);stroke-width:3.33px;"/>
        <path id="Handle" d="M18.187,12.581C18.187,12.581 17.923,5.84 18.628,4.227C19.332,2.614 21.094,2.449 22.723,2.366C24.353,2.284 27.7,3.111 27.744,6.13C27.788,9.149 27.876,12.209 27.876,12.209L18.187,12.581Z" style="fill:rgb(210,33,33);"/>
        <clipPath id="_clip1">
            <path d="M18.187,12.581C18.187,12.581 17.923,5.84 18.628,4.227C19.332,2.614 21.094,2.449 22.723,2.366C24.353,2.284 27.7,3.111 27.744,6.13C27.788,9.149 27.876,12.209 27.876,12.209L18.187,12.581Z"/>
        </clipPath>
        <g clip-path="url(#_clip1)">
            <path d="M23.417,16.176L23.296,6.912C23.296,6.912 23.457,4.61 25.047,4.61C26.6,4.61 26.658,6.859 26.658,6.859L26.658,16.07L23.417,16.176Z" style="fill:rgb(137,52,60);"/>
            <path d="M19.593,6.976C19.593,6.976 19.011,4.004 21.187,3.069C23.152,2.225 24.531,2.782 29.706,2.656C31.169,2.621 13.247,-0.144 13.247,-0.144L11.626,6.903L19.593,6.976Z" style="fill:rgb(245,78,78);"/>
        </g>
        <path id="Body" d="M3.215,16.75C3.083,19.135 3.057,23.126 3.251,24.401C3.597,26.67 5.729,28.659 11.928,29.459C18.33,30.285 28.19,29.5 28.924,23.133C29.4,19.01 28.604,13.394 28.318,12.645C27.522,10.561 25.344,7.186 19.588,7.299C13.437,7.419 13.5,6.928 9.321,8.271C5.189,9.6 3.36,14.138 3.215,16.75Z" style="fill:rgb(230,22,22);"/>
        <clipPath id="_clip2">
            <path id="Body1" d="M3.215,16.75C3.083,19.135 3.057,23.126 3.251,24.401C3.597,26.67 5.729,28.659 11.928,29.459C18.33,30.285 28.19,29.5 28.924,23.133C29.4,19.01 28.604,13.394 28.318,12.645C27.522,10.561 25.344,7.186 19.588,7.299C13.437,7.419 13.5,6.928 9.321,8.271C5.189,9.6 3.36,14.138 3.215,16.75Z"/>
        </clipPath>
        <g clip-path="url(#_clip2)">
            <path d="M10.378,11.277C10.378,11.277 14.019,13.399 16.418,13.526C18.978,13.661 20.921,13.378 23.158,11.952C25.395,10.527 25.257,8.875 24.242,5.531C23.494,3.064 10.378,11.277 10.378,11.277Z" style="fill:rgb(148,28,14);fill-opacity:0.7;"/>
            <path d="M21.342,5.941C24.84,8.988 25.921,9.62 27.189,12.708C28.244,15.276 27.363,17.414 25.037,19.606C23.434,21.116 19.416,21.425 17.811,20.59C16.173,19.737 14.272,17.642 14.272,17.642L8.606,22.836C8.606,22.836 9.817,24.852 8.496,25.731C7.175,26.609 3.35,27.123 2.504,25.838C0.633,22.995 -1.291,36.387 -1.181,34.94C-1.071,33.492 0.238,35.708 0.238,35.708L35.525,35.346L36.241,10.842L21.342,5.941Z" style="fill:rgb(142,30,17);"/>
            <path d="M2.168,26.827C5.482,23.609 4.428,14.036 6.868,11.189C9.309,8.342 13.783,6.117 17.128,3.008C21.407,-0.968 0.586,-0.733 0.586,-0.733L-6.51,22.363C-6.51,22.363 0.083,28.851 2.168,26.827Z" style="fill:rgb(255,71,71);"/>
        </g>
        <path id="Lid" d="M16.487,6.053C14.483,6.08 10.865,6.351 9.269,7.775C6.612,10.146 11.019,12.579 16.156,12.631C21.655,12.686 25.774,10.306 24.24,7.987C22.772,5.768 18.177,6.247 16.487,6.053" style="fill:rgb(176,73,35);"/>
        <clipPath id="_clip3">
            <path d="M16.487,6.053C14.483,6.08 10.865,6.351 9.269,7.775C6.612,10.146 11.019,12.579 16.156,12.631C21.655,12.686 25.774,10.306 24.24,7.987C22.772,5.768 18.177,6.247 16.487,6.053"/>
        </clipPath>
        <g clip-path="url(#_clip3)">
            <path d="M22.561,5.963C22.561,5.963 16.82,6.383 15.128,6.473C13.23,6.574 10.925,7.193 10.354,8.365C9.783,9.537 9.874,11.423 13.731,12.52C15.325,12.974 2.804,13.874 2.804,13.874L5.516,3.517L22.561,5.963Z" style="fill:rgb(205,141,83);"/>
        </g>
        <ellipse id="LidHandle" cx="16.622" cy="7.281" rx="3.372" ry="2.375" style="fill:rgb(198,111,41);"/>
        <clipPath id="_clip4">
            <ellipse cx="16.622" cy="7.281" rx="3.372" ry="2.375"/>
        </clipPath>
        <g clip-path="url(#_clip4)">
            <path d="M16.495,3.865C17.328,4.568 19.531,5.957 19.142,6.919C18.754,7.882 16.791,8.789 15.236,8.511C13.681,8.234 12.404,7.16 12.218,6.586C12.033,6.012 16.495,3.865 16.495,3.865" style="fill:rgb(222,174,132);"/>
            <path d="M14.145,6.638C14.145,6.638 14.698,7.004 14.975,6.556C15.253,6.109 15.082,5.704 14.748,5.671C14.414,5.638 13.813,5.933 14.145,6.638Z" style="fill:rgb(234,218,215);"/>
        </g>
        <path id="Spout" d="M14.059,16.336C12.008,14.49 9.565,14.945 7.777,15.373C6.119,15.77 4.174,16.873 3.717,19.547C3.226,22.421 7.224,24.872 8.717,25.125C11.794,25.647 14.828,24.082 15.427,21.754C15.948,19.724 16.11,18.182 14.059,16.336Z" style="fill:rgb(128,35,24);"/>
        <clipPath id="_clip5">
            <path d="M14.059,16.336C12.008,14.49 9.565,14.945 7.777,15.373C6.119,15.77 4.174,16.873 3.717,19.547C3.226,22.421 7.224,24.872 8.717,25.125C11.794,25.647 14.828,24.082 15.427,21.754C15.948,19.724 16.11,18.182 14.059,16.336Z"/>
        </clipPath>
        <g clip-path="url(#_clip5)">
            <path d="M0.608,20.492C0.608,20.492 5.27,23.15 6.694,23.349C9.224,23.702 11.48,22.129 11.48,21.102C11.48,20.074 11.754,18.918 11.378,18.212C11.002,17.506 9.54,16.454 10.258,16.037C10.976,15.62 13.908,14.969 15.07,15.098C16.232,15.226 2.933,11.887 2.933,11.887L0.608,20.492Z" style="fill:rgb(255,106,84);"/>
            <ellipse cx="7.51" cy="19.68" rx="2.871" ry="2.696" style="fill:rgb(92,33,33);"/>
            <path d="M-0.038,18.91C-0.038,18.91 1.603,19.208 2.47,19.422C3.761,19.74 5.129,17.393 6.037,16.794C6.86,16.25 8.368,15.984 7.691,14.569C7.396,13.953 5.821,11.754 5.821,11.754L3.988,9.353L-1.715,18.269L-0.038,18.91Z" style="fill:rgb(255,165,151);"/>
        </g>
    </g>
</svg>
