<?xml version="1.0" encoding="UTF-8" standalone="no"?>
<svg
   xmlns:dc="http://purl.org/dc/elements/1.1/"
   xmlns:cc="http://creativecommons.org/ns#"
   xmlns:rdf="http://www.w3.org/1999/02/22-rdf-syntax-ns#"
   xmlns:svg="http://www.w3.org/2000/svg"
   xmlns="http://www.w3.org/2000/svg"
   height="32"
   width="32"
   version="1.1"
   viewBox="0 0 32.000001 32"
   id="svg2">
  <defs
     id="defs4" />
  <g
     transform="translate(1.2580079,-257.207)"
     id="layer1">
    <g
       transform="matrix(0.10284728,-0.00826256,0.00826256,0.10284728,-1.3739226,260.36463)"
       id="g4218">
      <path
         id="path9068"
         d="m 206.69244,-9.9999513 c -10.32912,-0.2806737 -20.73912,9.96537048 -18.11328,20.5253903 -14.57943,15.066406 -29.15885,30.132813 -43.73828,45.199219 -8.42687,-1.085957 -17.0134,-0.842875 -25.38477,0.583984 C 111.31703,47.907701 101.60407,40.411023 94.489318,31.472705 98.33798,20.21661 85.91374,9.1949272 74.950255,11.35747 63.929158,11.822 54.908268,26.178913 62.512755,35.400439 c 3.787379,5.150112 10.491478,7.659658 16.761719,7.037109 7.263672,6.436849 14.527344,12.873698 21.791016,19.310547 -13.282828,5.647765 -26.069733,18.919332 -23.496094,34.402341 3.835421,18.273974 22.820044,28.257704 39.829044,31.193504 24.00164,4.60902 52.42668,0.18767 68.71588,-19.61147 9.58905,-12.766374 4.2177,-32.453921 -9.1836,-40.326172 -3.65474,-2.685253 -7.68355,-4.834511 -11.875,-6.552734 13.46273,-12.248719 26.02262,-25.738034 40.22461,-36.832031 11.71137,2.054689 25.4149,-9.436577 21.14063,-21.7148438 -2.61097,-8.1390539 -11.56735,-12.6549292 -19.72852,-12.3066405 z"
         style="fill:#b9b8b8;stroke:#545454;stroke-width:7.8419385;stroke-miterlimit:4;stroke-dasharray:none;stroke-opacity:1" />
      <path
         id="path3870"
         style="fill:#ffffff"
         d="m 87.166,275.84 c -5.1334,5.0866 -1.1515,4.0789 -12.449,7.3502 l 5.7587,1.0182 c 2.8833,0 8.2531,-2.968 7.5853,-5.7729 l -0.89503,-2.5956 z" />
      <path
         id="path3861"
         style="fill:#ffffff"
         d="m 237.72,283.4 c -5.7714,5.7188 -1.2946,4.5859 -13.996,8.2637 l 6.4744,1.1448 c 3.2416,0 9.2788,-3.3368 8.528,-6.4904 L 237.7201,283.4 Z" />
      <path
         id="path9046"
         style="fill:#00c4cc;stroke:#006669;stroke-width:14.75148201;stroke-miterlimit:4;stroke-dasharray:none;stroke-opacity:1"
         d="m 27.86,121.01 c 32.941,-17.86 210.98,-72.716 242.35,3 32.94,90.71 -2.79,130.38 -12.55,141.43 C 229.43,293.29 89.82,291.15 14.53,258.29 -19.982,201.87 10.221,130.57 27.86,121.01 Z" />
      <path
         id="path9048"
         style="fill:#555753"
         d="m 33.522,139.62 c 21.575,-13.919 138.18,-61.326 158.73,-2.3076 21.575,70.711 -1.8258,101.63 -8.219,110.24 -18.493,21.714 -109.93,14.044 -159.24,-11.568 -22.602,-43.986 -2.8201,-88.913 8.7327,-96.367 z" />
      <path
         id="path9055"
         style="fill:#888a85"
         d="m 35.567,141.32 c -2.5016,3.2537 -5.7114,11.044 -7.4688,16.188 -2.6541,8.1844 -4.8783,18.523 -5.9688,29.531 26.595,-1.7464 50.938,-16.043 73.469,-28.969 35.123,-21.949 77.469,-3.3438 77.469,-3.3438 14.142,-37.648 -14.399,-41.705 -14.399,-41.705 -48.17,-1.27 -82.468,8.7959 -123.1,28.298 z" />
      <path
         id="path9082"
         style="fill:#007880"
         d="m 234.15,255.21 c -20.348,-0.81825 0.53224,6.7764 -19.485,7.8511 -26.091,0.65755 -51.429,7.4249 -77.425,5.8706 -39.552,-2.3648 -79.698,-14.231 -119.01,-19.277 33.349,15.115 83.247,31.7 125.05,32.809 21.573,0.57245 63.925,-2.1065 80.159,-5.239 16.139,-3.1143 27.399,-12.092 32.813,-17.864 6.8955,-6.9527 -12.799,-3.7824 -22.104,-4.1514 z" />
      <path
         id="path3006"
         style="fill:#a8dde0"
         d="m 148.24,96.705 c -44.857,0.26332 -94.322,15.402 -108.55,23.87 -2.2325,1.3288 -4.7281,4.3674 -7.219,8.6945 25.713,-14.06 131.17,-42.315 182.4,-12.86 -15.03,-14.8 -40.02,-19.861 -66.63,-19.705 z" />
      <path
         id="path3837"
         style="opacity:0.08500001;fill:#000000;fill-opacity:1"
         d="m 128.47,258.03 c -17.856,-0.11361 -37.243,-3.4913 -53.406,-7.8125 -16.163,-4.3212 -29.737,-10.104 -33.5,-12.531 1.1923,0.76925 -0.70084,-0.72224 -2.3125,-3.6875 -1.61166,-2.96526 -3.4696,-7.2988 -5.1562,-12.5 -2.6541,-8.1844 -4.8783,-18.523 -5.9688,-29.531 1.4705,0.0251 2.987,0.0698 5.125,0.375 11.053,1.5779 31.45,8.038 64.344,28.594 35.123,21.949 66.516,14.219 85.969,0.34375 1.6315,-1.1637 3.0973,-2.4014 4.5938,-3.625 -1.0643,4.5216 -2.33,9.2262 -3.8438,14.188 -3.5029,10.061 -9.7615,15.681 -19.406,20 -9.6447,4.3188 -22.549,6.2759 -36.438,6.1875 z" />
      <ellipse
         ry="19.445436"
         rx="13.788582"
         cy="475.00949"
         cx="150.9673"
         id="path3945"
         style="fill:#007880"
         transform="matrix(0.88113,0,0,0.71795,81.275,-193.62)" />
      <path
         id="path3847"
         style="fill:#00a7b3"
         d="m 220.71,107.4 c 34.147,90.267 2.184,144.03 -7.5772,155.08 0,0 19.531,8.4688 39.031,-0.0312 9.7613,-11.045 49.851,-59.123 7.7175,-151.25 0,0 -25.172,-20.797 -39.172,-3.7972 l 0,-5e-5 z" />
      <g
         id="g3921"
         transform="matrix(0.6248,0,0,0.50909,90.282,-99.4)">
        <ellipse
           ry="19.445436"
           rx="13.788582"
           cy="475.00949"
           cx="150.9673"
           id="path3904"
           style="fill:#545454"
           transform="matrix(1.4103,0,0,1.4103,-19.509,-190.63)" />
        <ellipse
           ry="19.445436"
           rx="13.788582"
           cy="475.00949"
           cx="150.9673"
           id="path3902"
           style="fill:#cacaca"
           transform="translate(36.77,4.2426)" />
        <path
           id="path3906"
           style="fill:#a0a1a1"
           d="m 201.24,475.38 c 0,0 -9.25,-3.9442 -25.513,9.4908 0.11883,10.595 4.4726,13.822 12.013,13.822 7.6152,0 13.781,-8.6981 13.781,-19.438 0,-1.321 -0.10324,-2.6279 -0.28125,-3.875 z" />
        <path
           id="path3913"
           style="fill:#cacaca"
           d="m 201.16,454.76 c -1.875,0.9375 -9.0049,4.8192 -9.0049,4.8192 4,0.75 5.364,4.6391 5.364,4.6391 1.5,-1.5 5.4816,-5.0729 8.3566,-4.6354" />
        <path
           id="path3915"
           style="fill:#2e3436"
           d="m 198.33,504.78 c -1.875,0.9375 -6.3532,-6.3177 -6.3532,-6.3177 0.81802,1.2803 -5.5962,1.1036 -5.5962,1.1036 1.5,-1.5 1.4157,5.8872 4.2907,6.3248" />
        <path
           id="path3919"
           style="fill:#a0a1a1"
           d="m 196.75,495.86 c 0,0 3.625,-2.875 3.375,-4.375 -0.25,-1.5 7.75,3.875 7.75,3.875 0,0 -2.25,5.625 -4.875,5.5 -2.1806,-0.10384 -5.75,-4.875 -6.25,-5 z" />
      </g>
      <ellipse
         ry="19.445436"
         rx="13.788582"
         cy="475.00949"
         cx="150.9673"
         id="path3963"
         style="fill:#007880"
         transform="matrix(0.88113,0,0,0.71795,86.932,-144.12)" />
      <g
         id="g3929"
         transform="matrix(0.6248,0,0,0.50909,96.05,-50.097)">
        <ellipse
           ry="19.445436"
           rx="13.788582"
           cy="475.00949"
           cx="150.9673"
           id="path3931"
           style="fill:#545454"
           transform="matrix(1.4103,0,0,1.4103,-19.509,-190.63)" />
        <ellipse
           ry="19.445436"
           rx="13.788582"
           cy="475.00949"
           cx="150.9673"
           id="path3933"
           style="fill:#cacaca"
           transform="translate(36.77,4.2426)" />
        <path
           id="path3935"
           style="fill:#a0a1a1"
           d="m 201.24,475.38 c 0,0 -9.25,-3.9442 -25.513,9.4908 0.11883,10.595 4.4726,13.822 12.013,13.822 7.6152,0 13.781,-8.6981 13.781,-19.438 0,-1.321 -0.10324,-2.6279 -0.28125,-3.875 z" />
        <path
           id="path3937"
           style="fill:#cacaca"
           d="m 201.16,454.76 c -1.875,0.9375 -9.0049,4.8192 -9.0049,4.8192 4,0.75 5.364,4.6391 5.364,4.6391 1.5,-1.5 5.4816,-5.0729 8.3566,-4.6354" />
        <path
           id="path3939"
           style="fill:#2e3436"
           d="m 198.33,504.78 c -1.875,0.9375 -6.3532,-6.3177 -6.3532,-6.3177 0.81802,1.2803 -5.5962,1.1036 -5.5962,1.1036 1.5,-1.5 1.4157,5.8872 4.2907,6.3248" />
        <path
           id="path3941"
           style="fill:#a0a1a1"
           d="m 196.75,495.86 c 0,0 3.625,-2.875 3.375,-4.375 -0.25,-1.5 7.75,3.875 7.75,3.875 0,0 -2.25,5.625 -4.875,5.5 -2.1806,-0.10384 -5.75,-4.875 -6.25,-5 z" />
      </g>
      <path
         id="path2880"
         style="fill:#a8dde0"
         d="m 239.71,101.68 c 0,0 -18.612,-6.7881 -18.564,10.02 0.0487,16.808 0.42154,-13.641 18.564,-10.02 z" />
    </g>
  </g>
  <metadata
     id="metadata3411">
    <rdf:RDF>
      <cc:Work>
        <dc:format>image/svg+xml</dc:format>
        <dc:type
           rdf:resource="http://purl.org/dc/dcmitype/StillImage" />
        <cc:license
           rdf:resource="http://creativecommons.org/publicdomain/zero/1.0/" />
        <dc:publisher>
          <cc:Agent
             rdf:about="http://openclipart.org/">
            <dc:title>Openclipart</dc:title>
          </cc:Agent>
        </dc:publisher>
        <dc:title></dc:title>
        <dc:date>2010-04-08T16:06:09</dc:date>
        <dc:description>my second attempt to make a comic style television </dc:description>
        <dc:source>https://openclipart.org/detail/39703/television-comic-style-by-rg1024</dc:source>
        <dc:creator>
          <cc:Agent>
            <dc:title>rg1024</dc:title>
          </cc:Agent>
        </dc:creator>
        <dc:subject>
          <rdf:Bag>
            <rdf:li>cartoon</rdf:li>
            <rdf:li>comic</rdf:li>
            <rdf:li>home</rdf:li>
            <rdf:li>seeing</rdf:li>
            <rdf:li>television</rdf:li>
            <rdf:li>tv</rdf:li>
          </rdf:Bag>
        </dc:subject>
      </cc:Work>
      <cc:License
         rdf:about="http://creativecommons.org/publicdomain/zero/1.0/">
        <cc:permits
           rdf:resource="http://creativecommons.org/ns#Reproduction" />
        <cc:permits
           rdf:resource="http://creativecommons.org/ns#Distribution" />
        <cc:permits
           rdf:resource="http://creativecommons.org/ns#DerivativeWorks" />
      </cc:License>
    </rdf:RDF>
  </metadata>
</svg>
