<?xml version="1.0" encoding="UTF-8" standalone="no"?>
<!-- Created with Inkscape (http://www.inkscape.org/) -->

<svg
   xmlns:dc="http://purl.org/dc/elements/1.1/"
   xmlns:cc="http://creativecommons.org/ns#"
   xmlns:rdf="http://www.w3.org/1999/02/22-rdf-syntax-ns#"
   xmlns:svg="http://www.w3.org/2000/svg"
   xmlns="http://www.w3.org/2000/svg"
   xmlns:sodipodi="http://sodipodi.sourceforge.net/DTD/sodipodi-0.dtd"
   xmlns:inkscape="http://www.inkscape.org/namespaces/inkscape"
   inkscape:version="0.91 r13725"
   version="1.1"
   id="svg2"
   viewBox="0 0 48.582686 141.96044"
   height="40.064392mm"
   width="13.711114mm"
   sodipodi:docname="drawing.svg"
   inkscape:export-filename="E:\New folder\path4217.png"
   inkscape:export-xdpi="100"
   inkscape:export-ydpi="100">
  <defs
     id="defs4">
    <inkscape:perspective
       id="perspective2910"
       inkscape:persp3d-origin="372.04721 : 350.78736 : 1"
       inkscape:vp_z="744.09447 : 526.18105 : 1"
       inkscape:vp_y="0 : 999.99991 : 0"
       inkscape:vp_x="0 : 526.18104 : 1"
       sodipodi:type="inkscape:persp3d" />
    <inkscape:perspective
       sodipodi:type="inkscape:persp3d"
       inkscape:vp_x="0 : 0.49999996 : 1"
       inkscape:vp_y="0 : 999.99991 : 0"
       inkscape:vp_z="0.99999994 : 0.49999996 : 1"
       inkscape:persp3d-origin="0.5 : 0.3333333 : 1"
       id="perspective2941" />
    <inkscape:perspective
       sodipodi:type="inkscape:persp3d"
       inkscape:vp_x="0 : 0.49999996 : 1"
       inkscape:vp_y="0 : 999.99991 : 0"
       inkscape:vp_z="0.99999994 : 0.49999996 : 1"
       inkscape:persp3d-origin="0.5 : 0.3333333 : 1"
       id="perspective3619" />
    <inkscape:perspective
       sodipodi:type="inkscape:persp3d"
       inkscape:vp_x="0 : 0.49999996 : 1"
       inkscape:vp_y="0 : 999.99991 : 0"
       inkscape:vp_z="0.99999994 : 0.49999996 : 1"
       inkscape:persp3d-origin="0.5 : 0.3333333 : 1"
       id="perspective3619-5" />
    <inkscape:perspective
       sodipodi:type="inkscape:persp3d"
       inkscape:vp_x="0 : 0.49999996 : 1"
       inkscape:vp_y="0 : 999.99991 : 0"
       inkscape:vp_z="0.99999994 : 0.49999996 : 1"
       inkscape:persp3d-origin="0.5 : 0.3333333 : 1"
       id="perspective3619-1" />
    <inkscape:perspective
       sodipodi:type="inkscape:persp3d"
       inkscape:vp_x="0 : 0.49999996 : 1"
       inkscape:vp_y="0 : 999.99991 : 0"
       inkscape:vp_z="0.99999994 : 0.49999996 : 1"
       inkscape:persp3d-origin="0.5 : 0.3333333 : 1"
       id="perspective3800" />
    <inkscape:perspective
       sodipodi:type="inkscape:persp3d"
       inkscape:vp_x="0 : 0.49999996 : 1"
       inkscape:vp_y="0 : 999.99991 : 0"
       inkscape:vp_z="0.99999994 : 0.49999996 : 1"
       inkscape:persp3d-origin="0.5 : 0.3333333 : 1"
       id="perspective3874" />
  </defs>
  <sodipodi:namedview
     inkscape:window-maximized="1"
     inkscape:window-y="22"
     inkscape:window-x="-8"
     inkscape:window-height="1027"
     inkscape:window-width="1920"
     showguides="true"
     showgrid="false"
     inkscape:current-layer="layer2"
     inkscape:document-units="px"
     inkscape:cy="62.244196"
     inkscape:cx="-21.800702"
     inkscape:zoom="5.6"
     inkscape:pageshadow="2"
     inkscape:pageopacity="0.0"
     borderopacity="1.0"
     bordercolor="#666666"
     pagecolor="#ffffff"
     id="base"
     inkscape:guide-bbox="true"
     fit-margin-top="0"
     fit-margin-left="0"
     fit-margin-right="0"
     fit-margin-bottom="0" />
  <metadata
     id="metadata7">
    <rdf:RDF>
      <cc:Work
         rdf:about="">
        <dc:format>image/svg+xml</dc:format>
        <dc:type
           rdf:resource="http://purl.org/dc/dcmitype/StillImage" />
        <dc:title></dc:title>
      </cc:Work>
    </rdf:RDF>
  </metadata>
  <g
     inkscape:label="Layer 1"
     inkscape:groupmode="layer"
     id="layer1"
     style="display:inline;opacity:1"
     transform="translate(-103.25569,-331.13365)">
    <circle
       style="display:inline;opacity:1;fill:#f29ce7;fill-opacity:1;stroke:#a20b71;stroke-width:1.02112007;stroke-linecap:square;stroke-linejoin:round;stroke-miterlimit:4;stroke-dasharray:none;stroke-opacity:0.97254902"
       id="path4251-4-7-8-3"
       cx="123.9114"
       cy="442.82806"
       r="0" />
    <circle
       style="display:inline;opacity:1;fill:#f29ce7;fill-opacity:1;stroke:#a20b71;stroke-width:1.02112007;stroke-linecap:square;stroke-linejoin:round;stroke-miterlimit:4;stroke-dasharray:none;stroke-opacity:0.97254902"
       id="path4251-22-1-5"
       cx="126.62363"
       cy="444.17578"
       r="0" />
    <circle
       style="display:inline;opacity:1;fill:#f29ce7;fill-opacity:1;stroke:#a20b71;stroke-width:1.02112007;stroke-linecap:square;stroke-linejoin:round;stroke-miterlimit:4;stroke-dasharray:none;stroke-opacity:0.97254902"
       id="path4251-22-1-1"
       cx="229.5069"
       cy="458.67508"
       r="0" />
    <circle
       style="display:inline;opacity:1;fill:#f29ce7;fill-opacity:1;stroke:#a20b71;stroke-width:1.02112007;stroke-linecap:square;stroke-linejoin:round;stroke-miterlimit:4;stroke-dasharray:none;stroke-opacity:0.97254902"
       id="path4251-2-6-6-0"
       cx="220.3194"
       cy="515.75104"
       r="0" />
    <g
       id="g5101"
       inkscape:export-xdpi="100"
       inkscape:export-ydpi="100">
      <path
         style="display:inline;opacity:1;fill:#ff9955;fill-rule:evenodd;stroke:none;stroke-width:0.77883255;stroke-linecap:butt;stroke-linejoin:miter;stroke-miterlimit:4;stroke-dasharray:none;stroke-opacity:1"
         d="m 146.13158,460.4831 c 0.15223,-0.22322 0.25713,-0.50608 0.21756,-0.74193 -0.1757,-1.04688 -0.96446,-1.94968 -1.92029,-2.39502 -0.24046,-0.11203 -0.56688,-0.11912 -0.84987,-0.0185 -2.51663,0.8949 -6.39244,5.12539 -6.39244,5.12539 l -4.84275,5.09957 c 0,0 -2.51737,1.1125 -2.73128,2.1632 -0.16228,0.79694 0.5731,1.71055 1.38568,1.72825 1.09147,0.0238 2.76944,-2.22051 2.76944,-2.22051 l 6.42261,-3.94282 c 0,0 4.53236,-2.73155 5.94135,-4.79762 z"
         id="path4217-81-1-6-6-4"
         inkscape:connector-curvature="0"
         sodipodi:nodetypes="caaaccaaccac" />
      <path
         inkscape:connector-curvature="0"
         id="path5093"
         d="m 143.85204,457.41392 0.12627,0.69448 -10.92228,9.62802 -0.44194,-0.47351 9.59645,-9.34391 z"
         style="display:inline;fill:#ffccaa;fill-rule:evenodd;stroke:none;stroke-width:1px;stroke-linecap:butt;stroke-linejoin:miter;stroke-opacity:1" />
      <path
         inkscape:connector-curvature="0"
         id="path5095"
         d="m 132.64566,468.33619 -3.03046,1.95717 0.0316,-1.35739 2.52538,-1.32582 z"
         style="display:inline;fill:#ffccaa;fill-rule:evenodd;stroke:none;stroke-width:1px;stroke-linecap:butt;stroke-linejoin:miter;stroke-opacity:1" />
      <path
         style="display:inline;opacity:1;fill:none;fill-rule:evenodd;stroke:#28170b;stroke-width:0.77883255;stroke-linecap:butt;stroke-linejoin:miter;stroke-miterlimit:4;stroke-dasharray:none;stroke-opacity:1"
         d="m 146.13158,460.4831 c 0.15223,-0.22322 0.25713,-0.50608 0.21756,-0.74193 -0.1757,-1.04688 -0.96446,-1.94968 -1.92029,-2.39502 -0.24046,-0.11203 -0.56688,-0.11912 -0.84987,-0.0185 -2.51663,0.8949 -6.39244,5.12539 -6.39244,5.12539 l -4.84275,5.09957 c 0,0 -2.51737,1.1125 -2.73128,2.1632 -0.16228,0.79694 0.5731,1.71055 1.38568,1.72825 1.09147,0.0238 2.76944,-2.22051 2.76944,-2.22051 l 6.42261,-3.94282 c 0,0 4.53236,-2.73155 5.94135,-4.79762 z"
         id="path4217-81-1-6-6"
         inkscape:connector-curvature="0"
         sodipodi:nodetypes="caaaccaaccac" />
      <path
         sodipodi:nodetypes="caaaccaaccac"
         inkscape:connector-curvature="0"
         id="path4217-6-9"
         d="m 112.10315,332.17601 c -0.1107,-0.24338 -0.29623,-0.4773 -0.5161,-0.56486 -0.97593,-0.38863 -2.1446,-0.1846 -3.01197,0.39558 -0.2182,0.14596 -0.39173,0.4185 -0.45182,0.70957 -0.53442,2.58864 1.05585,8.03917 1.05585,8.03917 l 1.82935,6.71471 c 0,0 -0.35067,2.70092 0.42856,3.42116 0.59102,0.54629 1.74144,0.39299 2.17345,-0.28546 0.5803,-0.9113 -0.45743,-3.48286 -0.45743,-3.48286 l -0.0398,-7.45775 c 0,0 0.0149,-5.23676 -1.01005,-7.48926 z"
         style="fill:#ff9955;fill-rule:evenodd;stroke:none;stroke-width:0.69999999;stroke-linecap:butt;stroke-linejoin:miter;stroke-miterlimit:4;stroke-dasharray:none;stroke-opacity:1" />
      <path
         sodipodi:nodetypes="cccccccccccc"
         inkscape:connector-curvature="0"
         id="path5025"
         d="m 111.74107,331.92693 c 0,0 0.11161,0.44643 -0.12277,0.51339 -0.23437,0.067 -2.07589,0.45759 -2.1875,0.44643 -0.1116,-0.0112 -0.33482,0.40183 -0.33482,0.40183 0,0 -0.25669,2.26562 -0.24553,2.80134 0.0112,0.53571 0.77009,4.01785 0.77009,4.01785 l -0.27902,0.10045 -0.78125,-2.91295 -0.53572,-4.15178 0.85938,-1.27232 2.47768,-0.36831 z"
         style="fill:#ffccaa;fill-rule:evenodd;stroke:none;stroke-width:1px;stroke-linecap:butt;stroke-linejoin:miter;stroke-opacity:1" />
      <path
         sodipodi:nodetypes="ccccc"
         inkscape:connector-curvature="0"
         id="path5027"
         d="m 111.35045,348.62336 1.94196,-0.3125 -0.24553,-0.72545 -1.65179,0 z"
         style="fill:#ffccaa;fill-rule:evenodd;stroke:none;stroke-width:1px;stroke-linecap:butt;stroke-linejoin:miter;stroke-opacity:1" />
      <path
         sodipodi:nodetypes="caaaccaaccac"
         inkscape:connector-curvature="0"
         id="path4217-61"
         d="m 112.24662,332.28612 c -0.11069,-0.24338 -0.29623,-0.4773 -0.5161,-0.56485 -0.97593,-0.38864 -2.14461,-0.18461 -3.01197,0.39558 -0.2182,0.14595 -0.39173,0.41849 -0.45183,0.70956 -0.53441,2.58864 1.05586,8.03918 1.05586,8.03918 l 1.82936,6.71469 c 0,0 -0.35068,2.70093 0.42845,3.42118 0.59102,0.54631 1.74144,0.39299 2.17346,-0.28546 0.58029,-0.9113 -0.45743,-3.48285 -0.45743,-3.48285 l -0.0399,-7.45776 c 0,0 0.015,-5.23676 -1.01006,-7.48926 z"
         style="fill:none;fill-rule:evenodd;stroke:#28170b;stroke-width:0.7707268;stroke-linecap:butt;stroke-linejoin:miter;stroke-miterlimit:4;stroke-dasharray:none;stroke-opacity:1" />
      <path
         inkscape:connector-curvature="0"
         id="path4219-2"
         d="m 111.16974,347.55546 2.06464,-0.26228"
         style="fill:none;fill-rule:evenodd;stroke:#28170b;stroke-width:1.01068163;stroke-linecap:butt;stroke-linejoin:miter;stroke-miterlimit:4;stroke-dasharray:none;stroke-opacity:1" />
      <path
         sodipodi:nodetypes="caaaccaaccac"
         inkscape:connector-curvature="0"
         id="path4217-6-9-5"
         d="m 107.37569,364.45956 c -0.14094,-0.22721 -0.35488,-0.43545 -0.58415,-0.49416 -1.01765,-0.26051 -2.15059,0.0914 -2.93656,0.77786 -0.19772,0.17269 -0.33494,0.4652 -0.35728,0.76157 -0.19868,2.63574 2.07617,7.83789 2.07617,7.83789 l 2.67378,6.42532 c 0,0 -0.002,2.72359 0.86294,3.33816 0.65609,0.46615 1.77741,0.16686 2.11903,-0.56131 0.45889,-0.97808 -0.89947,-3.39566 -0.89947,-3.39566 l -0.99409,-7.3913 c 0,0 -0.65548,-5.1956 -1.96037,-7.29837 z"
         style="fill:#ff9955;fill-rule:evenodd;stroke:none;stroke-width:0.69999999;stroke-linecap:butt;stroke-linejoin:miter;stroke-miterlimit:4;stroke-dasharray:none;stroke-opacity:1" />
      <path
         sodipodi:nodetypes="cccccccccccc"
         inkscape:connector-curvature="0"
         id="path5025-1"
         d="m 107.13248,364.35953 c 0,0 0.0947,0.44643 -0.10413,0.51339 -0.19879,0.067 -1.76077,0.45759 -1.85543,0.44643 -0.0947,-0.0112 -0.284,0.40183 -0.284,0.40183 0,0 -0.21772,2.26562 -0.20825,2.80134 0.009,0.53571 0.65318,4.01785 0.65318,4.01785 l -0.23666,0.10045 -0.66265,-2.91295 -0.4544,-4.15178 0.72892,-1.27232 2.10156,-0.36831 z"
         style="display:inline;opacity:1;fill:#ffccaa;fill-rule:evenodd;stroke:none;stroke-width:1px;stroke-linecap:butt;stroke-linejoin:miter;stroke-opacity:1" />
      <path
         inkscape:connector-curvature="0"
         id="path5046"
         d="m 108.76117,380.7439 1.69642,-0.90402 -1.875,0.11161 z"
         style="fill:#ffccaa;fill-rule:evenodd;stroke:none;stroke-width:1px;stroke-linecap:butt;stroke-linejoin:miter;stroke-opacity:1" />
      <path
         sodipodi:nodetypes="caaaccaaccac"
         inkscape:connector-curvature="0"
         id="path4217-61-7"
         d="m 107.53208,364.5504 c -0.14094,-0.22721 -0.35489,-0.43546 -0.58416,-0.49415 -1.01765,-0.26052 -2.15059,0.0914 -2.93655,0.77786 -0.19773,0.17268 -0.33495,0.46519 -0.35729,0.76156 -0.19868,2.63574 2.07618,7.8379 2.07618,7.8379 l 2.67378,6.42531 c 0,0 -0.002,2.72359 0.86284,3.33819 0.65608,0.46616 1.77741,0.16685 2.11904,-0.56132 0.45887,-0.97807 -0.89947,-3.39565 -0.89947,-3.39565 l -0.9941,-7.39131 c 0,0 -0.65548,-5.1956 -1.96037,-7.29837 z"
         style="fill:none;fill-rule:evenodd;stroke:#28170b;stroke-width:0.7707268;stroke-linecap:butt;stroke-linejoin:miter;stroke-miterlimit:4;stroke-dasharray:none;stroke-opacity:1" />
      <path
         inkscape:connector-curvature="0"
         id="path4219-2-2"
         d="m 108.41852,379.83197 2.01408,-0.52439"
         style="fill:none;fill-rule:evenodd;stroke:#28170b;stroke-width:1.01068151;stroke-linecap:butt;stroke-linejoin:miter;stroke-miterlimit:4;stroke-dasharray:none;stroke-opacity:1" />
      <path
         sodipodi:nodetypes="sssssss"
         inkscape:connector-curvature="0"
         id="path4251-7-1-2-0"
         d="m 137.61945,411.51013 c 0,0.65575 4.49166,3.57648 0.73798,5.08348 -2.65012,1.06395 -3.78413,0.63034 -8.03735,1.00834 -4.00524,0.35597 -15.45751,-1.80584 -15.88478,-1.8925 -1.95021,-0.39551 -4.89148,-2.84239 -4.89148,-4.39708 0,-1.55469 3.33679,-1.23294 4.89148,-1.23294 1.55469,0 23.18416,-0.12399 23.18415,1.4307 z"
         style="display:inline;opacity:1;fill:#f29ce7;fill-opacity:1;stroke:#a20b71;stroke-width:1.13083816;stroke-linecap:square;stroke-linejoin:round;stroke-miterlimit:4;stroke-dasharray:none;stroke-opacity:0.97254902" />
      <path
         sodipodi:nodetypes="caaaccassssscccsc"
         inkscape:connector-curvature="0"
         id="path4217-6-8-1-0-2"
         d="m 114.72775,392.09295 c -0.0786,-0.25721 -0.41393,-0.16775 -0.6301,-0.22053 -0.93759,-0.22888 -1.96475,-0.7553 -2.86612,-0.41037 -0.26341,0.1008 -0.45403,0.38098 -0.54353,0.64844 -0.90399,2.70131 0.44194,8.53423 0.44194,8.53423 l -0.12843,6.62021 c 0,0 0.066,2.38847 0.61055,3.40478 0.30879,0.57625 0.76388,1.30698 1.4157,1.35739 0.58444,0.0452 2.15114,-1.59379 4.42016,-0.71487 4.89965,1.89792 18.85304,4.61398 20.06667,3.33523 0.11862,-0.12498 0.753,-1.14773 2.15686,-2.1733 2.65296,-1.93807 6.90602,-4.68969 7.55302,-7.05809 1.1523,-4.21805 -5.09169,-6.86587 -5.09169,-6.86587 l -4.09147,-2.33548 -5.29395,-1.57151 c 0,0 -11.75347,-2.55026 -18.01964,-2.55026 z"
         style="fill:#ff9955;fill-rule:evenodd;stroke:none;stroke-width:0.69999999;stroke-linecap:butt;stroke-linejoin:miter;stroke-miterlimit:4;stroke-dasharray:none;stroke-opacity:1" />
      <path
         sodipodi:nodetypes="ccccccc"
         inkscape:connector-curvature="0"
         id="path5048"
         d="m 114.11567,392.25908 c 0,0 0.82075,2.0203 0.78918,3.06202 -0.0316,1.04172 -0.31567,6.91324 -0.31567,6.91324 l 21.18164,-6.8501 -18.87723,-3.06203 -3.40926,-0.63134 z"
         style="fill:#ffccaa;fill-rule:evenodd;stroke:none;stroke-width:1px;stroke-linecap:butt;stroke-linejoin:miter;stroke-opacity:1" />
      <path
         inkscape:connector-curvature="0"
         id="path5062"
         d="m 113.66072,396.58095 14.50892,1.83036 -1.38392,0.22321 -13.125,-1.71875 z"
         style="fill:#ff9955;fill-rule:evenodd;stroke:none;stroke-width:1px;stroke-linecap:butt;stroke-linejoin:miter;stroke-opacity:1" />
      <path
         sodipodi:nodetypes="cccscc"
         inkscape:connector-curvature="0"
         id="path5052"
         d="m 137.90179,413.38899 c 0,0 -19.24108,-4.62054 -20.71429,-4.70982 -1.47322,-0.0893 -2.99107,-0.64733 -2.99107,-0.64733 0,0 7.85714,0.66964 11.69643,1.47321 3.83929,0.80357 13.92857,2.54465 13.92857,2.54465 z"
         style="fill:#ffccaa;fill-rule:evenodd;stroke:none;stroke-width:1px;stroke-linecap:butt;stroke-linejoin:miter;stroke-opacity:1" />
      <path
         sodipodi:nodetypes="caaccssccccc"
         inkscape:connector-curvature="0"
         id="path4217-4-6-0-8"
         d="m 132.06247,394.52886 c -0.0785,-0.25721 -11.27953,-2.30297 -17.00405,-2.44381 -0.62517,-0.0154 -1.43722,-0.2782 -1.86788,0.17524 -0.77465,0.81564 -0.0437,3.08924 -0.14173,3.37165 0.89612,5.72967 -2.21911,14.03593 0.4382,16.66128 1.22115,0.30836 2.2901,-1.19779 3.2023,-1.05428 2.57167,0.40461 3.51707,1.46369 6.57587,1.91991 l 3.14304,0.46879 3.89081,0.6755 c 9.96759,0.5862 3.82443,0.87919 6.8571,0.36258 2.44923,-4.29688 14.67343,-6.41467 8.30047,-13.53059 -4.36645,-4.92237 -12.25115,-6.58778 -13.39413,-6.60627 z"
         style="fill:none;fill-rule:evenodd;stroke:#28170b;stroke-width:0.7752142;stroke-linecap:butt;stroke-linejoin:miter;stroke-miterlimit:4;stroke-dasharray:none;stroke-opacity:1" />
      <path
         sodipodi:nodetypes="caaaccaacccc"
         inkscape:connector-curvature="0"
         id="path4217-6-0-9-4"
         d="m 150.74053,433.25213 c 0.21442,-0.17195 0.39585,-0.41074 0.41684,-0.63999 0.0931,-1.01756 -0.48014,-2.0463 -1.34421,-2.68825 -0.21737,-0.16149 -0.57064,-0.25196 -0.86681,-0.21892 -2.75685,0.30759 -7.42097,3.76598 -7.42097,3.76598 l -6.7718,3.09947 c 0,0 -2.87236,0.4397 -3.36608,1.36837 -0.3745,0.70438 0.14119,1.73052 0.96999,1.93985 1.11324,0.28117 3.42017,-1.41274 3.42017,-1.41274 l 7.6482,-1.77259 c 0,0 5.03904,-0.96884 7.31465,-3.4412 z"
         style="fill:#ff9955;fill-rule:evenodd;stroke:none;stroke-width:0.69999999;stroke-linecap:butt;stroke-linejoin:miter;stroke-miterlimit:4;stroke-dasharray:none;stroke-opacity:1" />
      <path
         inkscape:connector-curvature="0"
         id="path5072"
         d="m 144.34133,431.8537 0.75761,0.52738 3.78808,-1.52562 1.18377,-0.28252 -1.29426,-0.8099 -3.29878,1.37495 z"
         style="fill:#ffccaa;fill-rule:evenodd;stroke:none;stroke-width:1px;stroke-linecap:butt;stroke-linejoin:miter;stroke-opacity:1" />
      <path
         inkscape:connector-curvature="0"
         id="path5074"
         d="m 145.12694,432.38715 -6.92381,2.89916 4.85683,-3.20979 2.65433,-0.89736 z"
         style="fill:#ffccaa;fill-rule:evenodd;stroke:none;stroke-width:1px;stroke-linecap:butt;stroke-linejoin:miter;stroke-opacity:1" />
      <path
         inkscape:connector-curvature="0"
         id="path5076"
         d="m 134.73214,436.96041 0.29018,0.71429 c 0,0 -2.25446,-0.15625 -2.54464,0.37946 -0.29018,0.53572 -0.87054,1.1384 -0.87054,1.1384 l -0.26785,-1.33929 2.20982,-0.82589 z"
         style="fill:#ffccaa;fill-rule:evenodd;stroke:none;stroke-width:1px;stroke-linecap:butt;stroke-linejoin:miter;stroke-opacity:1" />
      <path
         sodipodi:nodetypes="sassccaacccs"
         inkscape:connector-curvature="0"
         id="path4217-81-2-2"
         d="m 151.25675,432.59094 c 0.705,-0.65493 -0.69077,-1.91161 -1.51148,-2.50244 -0.23507,-0.16923 -0.5503,-0.24557 -0.8668,-0.21892 -0.66268,0.0558 -0.567,0.0451 -1.3849,0.33399 -2.65624,0.93825 -5.7204,3.21101 -5.7204,3.21101 l -7.08748,3.32045 c 0,0 -2.87236,0.4397 -3.36608,1.36836 -0.3745,0.70439 0.14119,1.73053 0.96999,1.93986 1.11324,0.28117 3.42017,-1.41274 3.42017,-1.41274 l 7.52193,-1.74103 c 0,0 4.98529,-1.90849 6.99487,-3.59101 0.0626,-0.52575 0.76454,-0.46076 1.03018,-0.70753 z"
         style="fill:none;fill-rule:evenodd;stroke:#28170b;stroke-width:0.7858218;stroke-linecap:butt;stroke-linejoin:miter;stroke-miterlimit:4;stroke-dasharray:none;stroke-opacity:1" />
      <path
         inkscape:connector-curvature="0"
         id="path4219-3-4-3"
         d="m 134.71665,436.74456 0.91231,1.84526"
         style="fill:none;fill-rule:evenodd;stroke:#28170b;stroke-width:1.03047609;stroke-linecap:butt;stroke-linejoin:miter;stroke-miterlimit:4;stroke-dasharray:none;stroke-opacity:1" />
      <path
         sodipodi:nodetypes="cccc"
         inkscape:connector-curvature="0"
         id="path4385-0-9"
         d="m 148.97499,430.23526 -5.95439,-4.66776 3.97666,5.38008 z"
         style="display:inline;opacity:1;fill:#ffccaa;fill-opacity:1;fill-rule:evenodd;stroke:none;stroke-width:1px;stroke-linecap:butt;stroke-linejoin:miter;stroke-opacity:1" />
      <path
         sodipodi:nodetypes="cccc"
         inkscape:connector-curvature="0"
         id="path4385-6-2-0"
         d="m 146.10007,431.33092 -2.61718,-2.1629 0.96228,3.04297 z"
         style="display:inline;opacity:1;fill:#ffccaa;fill-opacity:1;fill-rule:evenodd;stroke:none;stroke-width:1px;stroke-linecap:butt;stroke-linejoin:miter;stroke-opacity:1" />
      <path
         inkscape:transform-center-y="-0.13392857"
         inkscape:connector-curvature="0"
         id="path4219-3-4-3-0"
         d="m 132.39472,467.44282 1.37129,1.5352"
         style="display:inline;opacity:1;fill:none;fill-rule:evenodd;stroke:#28170b;stroke-width:1.03047609;stroke-linecap:butt;stroke-linejoin:miter;stroke-miterlimit:4;stroke-dasharray:none;stroke-opacity:1" />
      <path
         inkscape:connector-curvature="0"
         id="path5029"
         d="m 112.86876,345.14493 c 0,0 -1.64149,-0.69448 -1.43631,-1.48366 0.20519,-0.78918 0.71027,-1.89404 0.71027,-1.89404 l 0.63134,0.3946 0.26832,0.58399 z"
         style="fill:none;fill-rule:evenodd;stroke:none;stroke-width:1px;stroke-linecap:butt;stroke-linejoin:miter;stroke-opacity:1" />
      <path
         inkscape:connector-curvature="0"
         id="path5058"
         d="m 127.04247,393.94793 2.57273,-2.27285 2.74635,1.29426 0.89967,1.60993 -0.29989,0.71027 -6.13983,-0.83654 z"
         style="fill:#ffccaa;fill-rule:evenodd;stroke:none;stroke-width:1px;stroke-linecap:butt;stroke-linejoin:miter;stroke-opacity:1" />
      <path
         inkscape:connector-curvature="0"
         id="path5060"
         d="m 128.46299,398.27264 c 0,0 0.42616,-3.25143 0.47351,-3.33034 0.0473,-0.0789 2.66744,-2.36755 2.66744,-2.36755 l 1.6415,1.72042 -0.71027,3.55132 z"
         style="fill:#ff9955;fill-rule:evenodd;stroke:none;stroke-width:1px;stroke-linecap:butt;stroke-linejoin:miter;stroke-opacity:1" />
      <path
         inkscape:connector-curvature="0"
         id="path5056"
         d="m 126.875,394.01399 c 0,0 1.78572,-2.94643 3.25893,-2.45536 1.47321,0.49107 3.66071,2.14286 3.08036,3.16964 -0.58036,1.02679 -2.00893,9.01786 -2.00893,9.01786"
         style="fill:none;fill-rule:evenodd;stroke:#28170b;stroke-width:1px;stroke-linecap:butt;stroke-linejoin:miter;stroke-opacity:1" />
      <path
         sodipodi:nodetypes="ccccc"
         inkscape:connector-curvature="0"
         id="path5066"
         d="m 107.27678,395.4872 c 0,0 -0.89281,9.01786 -0.13392,9.6875 0.75893,0.66964 1.60714,0.35714 1.60714,0.35714 l 0.0893,-9.46428 z"
         style="fill:#ff9955;fill-rule:evenodd;stroke:none;stroke-width:1px;stroke-linecap:butt;stroke-linejoin:miter;stroke-opacity:1" />
    </g>
    <path
       style="fill:#ff9955;fill-rule:evenodd;stroke:none;stroke-width:1px;stroke-linecap:butt;stroke-linejoin:miter;stroke-opacity:1"
       d="m 112.32143,400.39791 -0.58036,6.96429 1.69643,1.25 0.9375,-6.16071 z"
       id="path5147"
       inkscape:connector-curvature="0"
       inkscape:export-xdpi="100"
       inkscape:export-ydpi="100" />
  </g>
  <g
     inkscape:groupmode="layer"
     id="layer2"
     inkscape:label="Layer 2"
     style="display:inline;opacity:1"
     transform="translate(-103.25569,-331.13365)">
    <g
       id="g5137"
       inkscape:export-xdpi="100"
       inkscape:export-ydpi="100">
      <circle
         transform="matrix(0.9914851,-0.1302202,0.1302202,0.9914851,0,0)"
         r="2.5095651"
         cy="361.33774"
         cx="68.753105"
         id="path4251-4-5-8"
         style="display:inline;opacity:1;fill:#f29ce7;fill-opacity:1;stroke:#a20b71;stroke-width:1.00813496;stroke-linecap:square;stroke-linejoin:round;stroke-miterlimit:4;stroke-dasharray:none;stroke-opacity:0.97254902" />
      <circle
         transform="matrix(0.96666136,-0.25605821,0.25605821,0.96666136,0,0)"
         r="2.4569662"
         cy="397.30774"
         cx="11.326152"
         id="path4251-4-5-7-8"
         style="display:inline;opacity:1;fill:#f29ce7;fill-opacity:1;stroke:#a20b71;stroke-width:0.98700511;stroke-linecap:square;stroke-linejoin:round;stroke-miterlimit:4;stroke-dasharray:none;stroke-opacity:0.97254902" />
      <circle
         r="2.572928"
         cy="438.91357"
         cx="130.65771"
         id="path4251-22-1-3-5"
         style="display:inline;opacity:1;fill:#f29ce7;fill-opacity:1;stroke:#a20b71;stroke-width:1.08416116;stroke-linecap:square;stroke-linejoin:round;stroke-miterlimit:4;stroke-dasharray:none;stroke-opacity:0.97254902" />
      <circle
         r="2.1701314"
         cy="470.48807"
         cx="128.95923"
         id="path4251-2-6-6-01"
         style="display:inline;opacity:1;fill:#f29ce7;fill-opacity:1;stroke:#a20b71;stroke-width:0.87177861;stroke-linecap:square;stroke-linejoin:round;stroke-miterlimit:4;stroke-dasharray:none;stroke-opacity:0.97254902" />
    </g>
    <path
       style="fill:#f29ce7;fill-opacity:1;fill-rule:evenodd;stroke:none;stroke-width:1px;stroke-linecap:butt;stroke-linejoin:miter;stroke-opacity:1"
       d="m 132.32047,437.84894 -3.88278,-4.70352 2.62009,5.77681 z"
       id="path5143"
       inkscape:connector-curvature="0"
       inkscape:export-xdpi="100"
       inkscape:export-ydpi="100" />
    <path
       style="fill:#a50e72;fill-opacity:1;fill-rule:evenodd;stroke:none;stroke-width:1px;stroke-linecap:butt;stroke-linejoin:miter;stroke-opacity:1"
       d="m 128.66818,436.54796 -2.11501,-4.07218 3.06203,3.97747 -0.97859,0.69448 z"
       id="path5145"
       inkscape:connector-curvature="0"
       inkscape:export-xdpi="100"
       inkscape:export-ydpi="100" />
  </g>
</svg>
