<?xml version="1.0" encoding="UTF-8"?>
<!DOCTYPE svg PUBLIC "-//W3C//DTD SVG 1.1//EN" "http://www.w3.org/Graphics/SVG/1.1/DTD/svg11.dtd">
<svg xmlns="http://www.w3.org/2000/svg" xml:space="preserve" width="100%" height="100%" version="1.1" shape-rendering="geometricPrecision" text-rendering="geometricPrecision" image-rendering="optimizeQuality" fill-rule="evenodd" clip-rule="evenodd"
viewBox="0 0 213 427"
 xmlns:xlink="http://www.w3.org/1999/xlink">
 <g id="Frame">
  <rect fill="none" width="213" height="427"/>
 </g>
 <g id="Outline">
  <g>
   <path fill="none" stroke="#434242" stroke-width="13.3307" d="M115 69l-22 0c0,2 -2,3 -4,3l-8 0c-2,0 -3,-1 -4,-3l-21 0c-1,2 -3,3 -4,3l-9 0c-2,0 -4,-2 -4,-5l0 -18c0,-2 2,-4 4,-4l9 0c1,0 3,1 3,2l22 0c1,-1 2,-2 4,-2l8 0c2,0 4,1 4,2l22 0c1,-1 2,-2 4,-2l6 0c1,0 5,-2 7,-2l17 0c1,-1 1,-3 3,-3 2,0 20,0 20,0 0,0 2,0 3,3l1 0 1 0 0 0 1 0 0 0 1 0 0 0 1 0 0 0 0 0 1 0 0 0 0 0 0 0 19 9 0 0 0 0 0 0 0 0 0 0 0 0 0 0 0 0 0 0 0 0 0 0 0 0 0 0 0 0 0 0 0 0 0 0 0 0 0 0 0 0 0 0 0 0 0 0 0 0 0 0 0 0 0 0 0 0 0 0 0 0 0 0 0 0 0 0 0 0 0 0 0 0 0 0 0 0 0 0 0 0 0 0 1 0 0 0 0 0 0 0 0 0 0 0 0 0 0 0 0 0 0 0 0 0 0 0 0 0 0 0 0 0 0 0 0 0 0 0 0 0 0 0 0 0 0 0 0 1 0 0 0 0 0 0 0 0 0 0 0 0 0 0 0 0 0 0 0 0 0 0 0 0 0 0 0 0 0 0 0 0 1 0 0 0 0 0 0 0 0 0 0 0 0 0 0 0 0 0 0 1 0 0 0 0 0 0 0 0 0 0 0 0 0 0 0 0 0 0 0 0 0 0 0 0 0 0 0 0 0 0 0 1 0 0 0 0 0 0 0 0 0 0 0 0 0 0 0 0 0 0 0 0 3 0c2,0 3,2 3,3l0 10c0,2 -1,3 -3,3l-3 0 0 0 0 0 0 0 0 0 0 0 0 0 0 0 0 0 0 0 0 0 0 0 0 0 0 1 0 0 0 0 0 0 0 0 0 0 0 0 0 0 0 0 0 0 0 0 0 0 0 0 0 0 -1 0 0 0 0 0 0 0 0 0 0 0 0 0 0 0 0 0 0 1 0 0 0 0 0 0 0 0 0 0 0 0 0 0 0 0 0 0 0 0 0 0 0 0 -1 0 0 0 0 0 0 0 0 0 0 0 0 0 0 0 0 0 0 0 0 0 0 0 0 0 0 0 0 0 0 0 0 1 0 0 0 0 -1 0 0 0 0 0 0 0 0 0 0 0 0 0 0 0 0 0 0 0 0 0 0 0 0 0 -1 0 0 0 0 0 0 0 0 0 0 0 0 0 0 0 0 0 0 0 0 0 0 0 -1 0 0 0 0 0 0 0 0 0 0 0 0 0 0 0 0 0 -1 0 0 0 0 0 0 0 0 0 0 0 0 0 0 0 0 0 0 0 -1 0 0 0 0 0 0 0 0 0 0 0 0 0 0 0 0 0 0 0 0 0 -1 0 0 0 0 0 0 0 0 0 0 0 0 0 0 0 0 0 -1 0 0 0 0 0 0 0 0 0 0 0 0 0 0 0 0 0 0 0 -1 0 -1 0 -1 0 0 0 0 0 0 0 0 0 0 0 0 0 0 0 0 0 0 0 -1 0 0 0 0 0 0 0 0 0 0 0 0 0 0 0 0 0 0 0 0 0 -1 0 0 0 0 0 0 0 0 0 0 0 0 0 0 0 0 0 0 0 -1 0 0 0 0 0 0 0 0 0 0 0 0 0 0 0 -1 0 0 0 0 0 0 0 -1 0c-5,0 -10,6 -11,7l-3 0c0,1 -2,3 -4,3 -4,0 -16,0 -22,0 -2,0 -3,-2 -3,-3l-3 0c0,0 0,-5 -14,-5l0 -4 -6 0c-2,0 -3,-1 -4,-3z"/>
   <path id="1" fill="#575656" d="M115 69l-22 0c0,2 -2,3 -4,3l-8 0c-2,0 -3,-1 -4,-3l-21 0c-1,2 -3,3 -4,3l-9 0c-2,0 -4,-2 -4,-5l0 -18c0,-2 2,-4 4,-4l9 0c1,0 3,1 3,2l22 0c1,-1 2,-2 4,-2l8 0c2,0 4,1 4,2l22 0c1,-1 2,-2 4,-2l6 0c1,0 5,-2 7,-2l17 0c1,-1 1,-3 3,-3 2,0 20,0 20,0 0,0 2,0 3,3l1 0 1 0 0 0 1 0 0 0 1 0 0 0 1 0 0 0 0 0 1 0 0 0 0 0 0 0 19 9 0 0 0 0 0 0 0 0 0 0 0 0 0 0 0 0 0 0 0 0 0 0 0 0 0 0 0 0 0 0 0 0 0 0 0 0 0 0 0 0 0 0 0 0 0 0 0 0 0 0 0 0 0 0 0 0 0 0 0 0 0 0 0 0 0 0 0 0 0 0 0 0 0 0 0 0 0 0 0 0 0 0 1 0 0 0 0 0 0 0 0 0 0 0 0 0 0 0 0 0 0 0 0 0 0 0 0 0 0 0 0 0 0 0 0 0 0 0 0 0 0 0 0 0 0 0 0 1 0 0 0 0 0 0 0 0 0 0 0 0 0 0 0 0 0 0 0 0 0 0 0 0 0 0 0 0 0 0 0 0 1 0 0 0 0 0 0 0 0 0 0 0 0 0 0 0 0 0 0 1 0 0 0 0 0 0 0 0 0 0 0 0 0 0 0 0 0 0 0 0 0 0 0 0 0 0 0 0 0 0 0 1 0 0 0 0 0 0 0 0 0 0 0 0 0 0 0 0 0 0 0 0 3 0c2,0 3,2 3,3l0 10c0,2 -1,3 -3,3l-3 0 0 0 0 0 0 0 0 0 0 0 0 0 0 0 0 0 0 0 0 0 0 0 0 0 0 1 0 0 0 0 0 0 0 0 0 0 0 0 0 0 0 0 0 0 0 0 0 0 0 0 0 0 -1 0 0 0 0 0 0 0 0 0 0 0 0 0 0 0 0 0 0 1 0 0 0 0 0 0 0 0 0 0 0 0 0 0 0 0 0 0 0 0 0 0 0 0 -1 0 0 0 0 0 0 0 0 0 0 0 0 0 0 0 0 0 0 0 0 0 0 0 0 0 0 0 0 0 0 0 0 1 0 0 0 0 -1 0 0 0 0 0 0 0 0 0 0 0 0 0 0 0 0 0 0 0 0 0 0 0 0 0 -1 0 0 0 0 0 0 0 0 0 0 0 0 0 0 0 0 0 0 0 0 0 0 0 -1 0 0 0 0 0 0 0 0 0 0 0 0 0 0 0 0 0 -1 0 0 0 0 0 0 0 0 0 0 0 0 0 0 0 0 0 0 0 -1 0 0 0 0 0 0 0 0 0 0 0 0 0 0 0 0 0 0 0 0 0 -1 0 0 0 0 0 0 0 0 0 0 0 0 0 0 0 0 0 -1 0 0 0 0 0 0 0 0 0 0 0 0 0 0 0 0 0 0 0 -1 0 -1 0 -1 0 0 0 0 0 0 0 0 0 0 0 0 0 0 0 0 0 0 0 -1 0 0 0 0 0 0 0 0 0 0 0 0 0 0 0 0 0 0 0 0 0 -1 0 0 0 0 0 0 0 0 0 0 0 0 0 0 0 0 0 0 0 -1 0 0 0 0 0 0 0 0 0 0 0 0 0 0 0 -1 0 0 0 0 0 0 0 -1 0c-5,0 -10,6 -11,7l-3 0c0,1 -2,3 -4,3 -4,0 -16,0 -22,0 -2,0 -3,-2 -3,-3l-3 0c0,0 0,-5 -14,-5l0 -4 -6 0c-2,0 -3,-1 -4,-3z"/>
  </g>
  <g>
   <path fill="none" stroke="#434242" stroke-width="13.3307" d="M115 283l-22 0c0,1 -2,2 -4,2l-8 0c-2,0 -3,-1 -4,-2l-21 0c-1,1 -3,2 -4,2l-9 0c-2,0 -4,-2 -4,-4l0 -18c0,-3 2,-5 4,-5l9 0c1,0 3,1 3,2l22 0c1,-1 2,-2 4,-2l8 0c2,0 4,1 4,2l22 0c1,-1 2,-2 4,-2l6 0c1,0 5,-2 7,-2l17 0c1,-1 1,-2 3,-2 2,0 20,0 20,0 0,0 2,0 3,2l1 0 1 0 0 0 1 0 0 0 1 0 0 0 1 0 0 0 0 0 1 0 0 0 0 0 0 0 19 9 0 0 0 0 0 0 0 0 0 0 0 0 0 0 0 0 0 0 0 0 0 0 0 0 0 0 0 0 0 0 0 0 0 0 0 0 0 0 0 0 0 0 0 0 0 0 0 0 0 0 0 0 0 0 0 0 0 0 0 0 0 0 0 0 0 0 0 0 0 0 0 0 0 0 0 0 0 0 0 0 0 0 1 0 0 0 0 0 0 0 0 0 0 0 0 0 0 0 0 0 0 1 0 0 0 0 0 0 0 0 0 0 0 0 0 0 0 0 0 0 0 0 0 0 0 0 0 0 0 0 0 0 0 0 0 0 0 0 0 0 0 0 0 0 0 0 0 0 0 0 0 0 0 0 0 0 0 0 0 0 1 0 0 1 0 0 0 0 0 0 0 0 0 0 0 0 0 0 0 0 0 0 0 0 0 0 0 0 0 0 0 0 0 0 0 0 0 0 0 0 0 0 0 1 0 0 0 0 0 0 0 0 0 0 0 0 0 0 0 0 0 0 0 0 0 0 0 0 0 0 0 0 3 0c2,0 3,2 3,4l0 9c0,2 -1,3 -3,3l-3 0 0 0 0 0 0 1 0 0 0 0 0 0 0 0 0 0 0 0 0 0 0 0 0 0 0 0 0 0 0 0 0 0 0 0 0 0 0 0 0 0 0 0 0 0 0 0 0 0 0 0 0 0 -1 0 0 0 0 0 0 1 0 0 0 0 0 0 0 0 0 0 0 0 0 0 0 0 0 0 0 0 0 0 0 0 0 0 0 0 0 0 0 0 0 0 0 0 -1 0 0 0 0 0 0 0 0 0 0 1 0 0 0 0 0 0 0 0 0 0 0 0 0 0 0 0 0 0 0 0 0 0 0 0 0 0 -1 0 0 0 0 0 0 0 0 0 0 0 0 0 0 0 0 0 0 0 0 0 0 0 0 0 -1 0 0 0 0 0 0 0 0 0 0 0 0 0 0 0 0 0 0 0 0 0 0 0 -1 0 0 0 0 0 0 0 0 0 0 0 0 0 0 0 0 1 -1 0 0 0 0 0 0 0 0 0 0 0 0 0 0 0 0 0 0 0 -1 0 0 0 0 0 0 0 0 0 0 0 0 0 0 0 0 0 0 0 0 0 -1 0 0 0 0 0 0 0 0 0 0 0 0 0 0 0 0 0 -1 0 0 0 0 0 0 0 0 0 0 0 0 0 0 0 0 0 0 0 -1 0 -1 0 -1 0 0 0 0 0 0 0 0 0 0 0 0 0 0 0 0 0 0 0 -1 0 0 0 0 0 0 0 0 0 0 0 0 0 0 0 0 0 0 0 0 0 -1 0 0 0 0 0 0 0 0 0 0 0 0 0 0 0 0 0 0 0 -1 0 0 0 0 0 0 0 0 0 0 0 0 0 0 0 -1 0 0 0 0 0 0 0 -1 0c-5,0 -10,5 -11,6l-3 0c0,1 -2,3 -4,3 -4,0 -16,1 -22,0 -2,0 -3,-2 -3,-3l-3 0c0,0 0,-4 -14,-5l0 -4 -6 0c-2,0 -3,-1 -4,-2z"/>
   <path id="1" fill="#575656" d="M115 283l-22 0c0,1 -2,2 -4,2l-8 0c-2,0 -3,-1 -4,-2l-21 0c-1,1 -3,2 -4,2l-9 0c-2,0 -4,-2 -4,-4l0 -18c0,-3 2,-5 4,-5l9 0c1,0 3,1 3,2l22 0c1,-1 2,-2 4,-2l8 0c2,0 4,1 4,2l22 0c1,-1 2,-2 4,-2l6 0c1,0 5,-2 7,-2l17 0c1,-1 1,-2 3,-2 2,0 20,0 20,0 0,0 2,0 3,2l1 0 1 0 0 0 1 0 0 0 1 0 0 0 1 0 0 0 0 0 1 0 0 0 0 0 0 0 19 9 0 0 0 0 0 0 0 0 0 0 0 0 0 0 0 0 0 0 0 0 0 0 0 0 0 0 0 0 0 0 0 0 0 0 0 0 0 0 0 0 0 0 0 0 0 0 0 0 0 0 0 0 0 0 0 0 0 0 0 0 0 0 0 0 0 0 0 0 0 0 0 0 0 0 0 0 0 0 0 0 0 0 1 0 0 0 0 0 0 0 0 0 0 0 0 0 0 0 0 0 0 1 0 0 0 0 0 0 0 0 0 0 0 0 0 0 0 0 0 0 0 0 0 0 0 0 0 0 0 0 0 0 0 0 0 0 0 0 0 0 0 0 0 0 0 0 0 0 0 0 0 0 0 0 0 0 0 0 0 0 1 0 0 1 0 0 0 0 0 0 0 0 0 0 0 0 0 0 0 0 0 0 0 0 0 0 0 0 0 0 0 0 0 0 0 0 0 0 0 0 0 0 0 1 0 0 0 0 0 0 0 0 0 0 0 0 0 0 0 0 0 0 0 0 0 0 0 0 0 0 0 0 3 0c2,0 3,2 3,4l0 9c0,2 -1,3 -3,3l-3 0 0 0 0 0 0 1 0 0 0 0 0 0 0 0 0 0 0 0 0 0 0 0 0 0 0 0 0 0 0 0 0 0 0 0 0 0 0 0 0 0 0 0 0 0 0 0 0 0 0 0 0 0 -1 0 0 0 0 0 0 1 0 0 0 0 0 0 0 0 0 0 0 0 0 0 0 0 0 0 0 0 0 0 0 0 0 0 0 0 0 0 0 0 0 0 0 0 -1 0 0 0 0 0 0 0 0 0 0 1 0 0 0 0 0 0 0 0 0 0 0 0 0 0 0 0 0 0 0 0 0 0 0 0 0 0 -1 0 0 0 0 0 0 0 0 0 0 0 0 0 0 0 0 0 0 0 0 0 0 0 0 0 -1 0 0 0 0 0 0 0 0 0 0 0 0 0 0 0 0 0 0 0 0 0 0 0 -1 0 0 0 0 0 0 0 0 0 0 0 0 0 0 0 0 1 -1 0 0 0 0 0 0 0 0 0 0 0 0 0 0 0 0 0 0 0 -1 0 0 0 0 0 0 0 0 0 0 0 0 0 0 0 0 0 0 0 0 0 -1 0 0 0 0 0 0 0 0 0 0 0 0 0 0 0 0 0 -1 0 0 0 0 0 0 0 0 0 0 0 0 0 0 0 0 0 0 0 -1 0 -1 0 -1 0 0 0 0 0 0 0 0 0 0 0 0 0 0 0 0 0 0 0 -1 0 0 0 0 0 0 0 0 0 0 0 0 0 0 0 0 0 0 0 0 0 -1 0 0 0 0 0 0 0 0 0 0 0 0 0 0 0 0 0 0 0 -1 0 0 0 0 0 0 0 0 0 0 0 0 0 0 0 -1 0 0 0 0 0 0 0 -1 0c-5,0 -10,5 -11,6l-3 0c0,1 -2,3 -4,3 -4,0 -16,1 -22,0 -2,0 -3,-2 -3,-3l-3 0c0,0 0,-4 -14,-5l0 -4 -6 0c-2,0 -3,-1 -4,-2z"/>
  </g>
  <g>
   <path fill="none" stroke="#434242" stroke-width="13.3307" d="M115 176l-22 0c0,1 -2,2 -4,2l-8 0c-2,0 -3,-1 -4,-2l-21 0c-1,1 -3,2 -4,2l-9 0c-2,0 -4,-2 -4,-4l0 -18c0,-2 2,-4 4,-4l9 0c1,0 3,0 3,2l22 0c1,-2 2,-2 4,-2l8 0c2,0 4,0 4,2l22 0c1,-2 2,-2 4,-2l6 0c1,-1 5,-3 7,-3l17 0c1,0 1,-2 3,-2 2,0 20,0 20,0 0,0 2,0 3,2l1 0 1 0 0 0 1 0 0 0 1 0 0 0 1 0 0 0 0 0 1 0 0 0 0 0 0 0 19 9 0 0 0 0 0 0 0 0 0 0 0 0 0 0 0 0 0 0 0 0 0 0 0 0 0 0 0 0 0 0 0 0 0 0 0 0 0 0 0 0 0 0 0 0 0 0 0 0 0 0 0 0 0 0 0 0 0 0 0 0 0 0 0 0 0 0 0 1 0 0 0 0 0 0 0 0 0 0 0 0 0 0 1 0 0 0 0 0 0 0 0 0 0 0 0 0 0 0 0 0 0 0 0 0 0 0 0 0 0 0 0 0 0 0 0 0 0 0 0 0 0 0 0 0 0 0 0 0 0 0 0 0 0 0 0 0 0 0 0 0 0 0 0 0 0 1 0 0 0 0 0 0 0 0 0 0 0 0 0 0 1 0 0 0 0 0 0 0 0 0 0 0 0 0 0 0 0 0 0 0 0 0 0 0 0 0 0 0 0 0 0 1 0 0 0 0 0 0 0 0 0 0 0 0 0 0 0 0 0 0 0 0 0 0 0 0 0 0 0 0 0 0 0 1 0 0 0 0 0 0 0 0 3 0c2,0 3,1 3,3l0 10c0,1 -1,3 -3,3l-3 0 0 0 0 0 0 0 0 0 0 0 0 0 0 0 0 0 0 0 0 0 0 0 0 0 0 0 0 0 0 0 0 0 0 0 0 0 0 0 0 0 0 0 0 1 0 0 0 0 0 0 0 0 -1 0 0 0 0 0 0 0 0 0 0 0 0 0 0 0 0 0 0 0 0 0 0 0 0 0 0 0 0 0 0 0 0 0 0 0 0 1 0 0 0 0 0 0 -1 0 0 0 0 0 0 0 0 0 0 0 0 0 0 0 0 0 0 0 0 0 0 0 0 0 0 0 0 0 0 0 0 0 0 0 0 0 -1 0 0 0 0 0 0 0 0 0 0 0 0 0 0 0 0 0 0 1 0 0 0 0 0 0 -1 0 0 0 0 0 0 0 0 0 0 0 0 0 0 0 0 0 0 0 0 0 0 0 -1 0 0 0 0 0 0 0 0 0 0 0 0 0 0 0 0 0 -1 0 0 0 0 0 0 0 0 0 0 0 0 0 0 0 0 0 0 0 -1 0 0 0 0 0 0 0 0 0 0 0 0 0 0 0 0 0 0 0 0 0 -1 0 0 0 0 0 0 0 0 0 0 0 0 0 0 0 0 0 -1 0 0 0 0 0 0 0 0 0 0 0 0 0 0 0 0 0 0 0 -1 0 -1 0 -1 0 0 0 0 0 0 0 0 0 0 0 0 0 0 0 0 0 0 0 -1 0 0 0 0 0 0 0 0 0 0 0 0 0 0 0 0 0 0 0 0 0 -1 0 0 0 0 0 0 0 0 0 0 0 0 0 0 0 0 0 0 0 -1 0 0 0 0 0 0 0 0 0 0 0 0 0 0 0 -1 0 0 0 0 0 0 0 -1 0c-5,0 -10,5 -11,6l-3 0c0,2 -2,3 -4,3 -4,0 -16,1 -22,1 -2,0 -3,-2 -3,-4l-3 0c0,0 0,-4 -14,-4l0 -5 -6 0c-2,0 -3,-1 -4,-2z"/>
   <path id="1" fill="#575656" d="M115 176l-22 0c0,1 -2,2 -4,2l-8 0c-2,0 -3,-1 -4,-2l-21 0c-1,1 -3,2 -4,2l-9 0c-2,0 -4,-2 -4,-4l0 -18c0,-2 2,-4 4,-4l9 0c1,0 3,0 3,2l22 0c1,-2 2,-2 4,-2l8 0c2,0 4,0 4,2l22 0c1,-2 2,-2 4,-2l6 0c1,-1 5,-3 7,-3l17 0c1,0 1,-2 3,-2 2,0 20,0 20,0 0,0 2,0 3,2l1 0 1 0 0 0 1 0 0 0 1 0 0 0 1 0 0 0 0 0 1 0 0 0 0 0 0 0 19 9 0 0 0 0 0 0 0 0 0 0 0 0 0 0 0 0 0 0 0 0 0 0 0 0 0 0 0 0 0 0 0 0 0 0 0 0 0 0 0 0 0 0 0 0 0 0 0 0 0 0 0 0 0 0 0 0 0 0 0 0 0 0 0 0 0 0 0 1 0 0 0 0 0 0 0 0 0 0 0 0 0 0 1 0 0 0 0 0 0 0 0 0 0 0 0 0 0 0 0 0 0 0 0 0 0 0 0 0 0 0 0 0 0 0 0 0 0 0 0 0 0 0 0 0 0 0 0 0 0 0 0 0 0 0 0 0 0 0 0 0 0 0 0 0 0 1 0 0 0 0 0 0 0 0 0 0 0 0 0 0 1 0 0 0 0 0 0 0 0 0 0 0 0 0 0 0 0 0 0 0 0 0 0 0 0 0 0 0 0 0 0 1 0 0 0 0 0 0 0 0 0 0 0 0 0 0 0 0 0 0 0 0 0 0 0 0 0 0 0 0 0 0 0 1 0 0 0 0 0 0 0 0 3 0c2,0 3,1 3,3l0 10c0,1 -1,3 -3,3l-3 0 0 0 0 0 0 0 0 0 0 0 0 0 0 0 0 0 0 0 0 0 0 0 0 0 0 0 0 0 0 0 0 0 0 0 0 0 0 0 0 0 0 0 0 1 0 0 0 0 0 0 0 0 -1 0 0 0 0 0 0 0 0 0 0 0 0 0 0 0 0 0 0 0 0 0 0 0 0 0 0 0 0 0 0 0 0 0 0 0 0 1 0 0 0 0 0 0 -1 0 0 0 0 0 0 0 0 0 0 0 0 0 0 0 0 0 0 0 0 0 0 0 0 0 0 0 0 0 0 0 0 0 0 0 0 0 -1 0 0 0 0 0 0 0 0 0 0 0 0 0 0 0 0 0 0 1 0 0 0 0 0 0 -1 0 0 0 0 0 0 0 0 0 0 0 0 0 0 0 0 0 0 0 0 0 0 0 -1 0 0 0 0 0 0 0 0 0 0 0 0 0 0 0 0 0 -1 0 0 0 0 0 0 0 0 0 0 0 0 0 0 0 0 0 0 0 -1 0 0 0 0 0 0 0 0 0 0 0 0 0 0 0 0 0 0 0 0 0 -1 0 0 0 0 0 0 0 0 0 0 0 0 0 0 0 0 0 -1 0 0 0 0 0 0 0 0 0 0 0 0 0 0 0 0 0 0 0 -1 0 -1 0 -1 0 0 0 0 0 0 0 0 0 0 0 0 0 0 0 0 0 0 0 -1 0 0 0 0 0 0 0 0 0 0 0 0 0 0 0 0 0 0 0 0 0 -1 0 0 0 0 0 0 0 0 0 0 0 0 0 0 0 0 0 0 0 -1 0 0 0 0 0 0 0 0 0 0 0 0 0 0 0 -1 0 0 0 0 0 0 0 -1 0c-5,0 -10,5 -11,6l-3 0c0,2 -2,3 -4,3 -4,0 -16,1 -22,1 -2,0 -3,-2 -3,-4l-3 0c0,0 0,-4 -14,-4l0 -5 -6 0c-2,0 -3,-1 -4,-2z"/>
  </g>
  <g>
   <path fill="none" stroke="#434242" stroke-width="13.3307" d="M115 389l-22 0c0,2 -2,3 -4,3l-8 0c-2,0 -3,-1 -4,-3l-21 0c-1,2 -3,3 -4,3l-9 0c-2,0 -4,-2 -4,-5l0 -18c0,-2 2,-4 4,-4l9 0c1,0 3,1 3,2l22 0c1,-1 2,-2 4,-2l8 0c2,0 4,1 4,2l22 0c1,-1 2,-2 4,-2l6 0c1,0 5,-2 7,-2l17 0c1,-1 1,-3 3,-3 2,0 20,0 20,0 0,0 2,0 3,3l1 0 1 0 0 0 1 0 0 0 1 0 0 0 1 0 0 0 0 0 1 0 0 0 0 0 0 0 19 9 0 0 0 0 0 0 0 0 0 0 0 0 0 0 0 0 0 0 0 0 0 0 0 0 0 0 0 0 0 0 0 0 0 0 0 0 0 0 0 0 0 0 0 0 0 0 0 0 0 0 0 0 0 0 0 0 0 0 0 0 0 0 0 0 0 0 0 0 0 0 0 0 0 0 0 0 0 0 0 0 0 0 1 0 0 0 0 0 0 0 0 0 0 0 0 0 0 0 0 0 0 0 0 0 0 0 0 0 0 0 0 0 0 0 0 0 0 0 0 0 0 0 0 0 0 0 0 1 0 0 0 0 0 0 0 0 0 0 0 0 0 0 0 0 0 0 0 0 0 0 0 0 0 0 0 0 0 0 0 0 1 0 0 0 0 0 0 0 0 0 0 0 0 0 0 0 0 0 0 1 0 0 0 0 0 0 0 0 0 0 0 0 0 0 0 0 0 0 0 0 0 0 0 0 0 0 0 0 0 0 0 1 0 0 0 0 0 0 0 0 0 0 0 0 0 0 0 0 0 0 0 0 3 0c2,0 3,2 3,3l0 10c0,2 -1,3 -3,3l-3 0 0 0 0 0 0 0 0 0 0 0 0 0 0 0 0 0 0 0 0 0 0 0 0 0 0 1 0 0 0 0 0 0 0 0 0 0 0 0 0 0 0 0 0 0 0 0 0 0 0 0 0 0 -1 0 0 0 0 0 0 0 0 0 0 0 0 0 0 0 0 0 0 1 0 0 0 0 0 0 0 0 0 0 0 0 0 0 0 0 0 0 0 0 0 0 0 0 -1 0 0 0 0 0 0 0 0 0 0 0 0 0 0 0 0 0 0 0 0 0 0 0 0 0 0 0 0 0 0 0 0 1 0 0 0 0 -1 0 0 0 0 0 0 0 0 0 0 0 0 0 0 0 0 0 0 0 0 0 0 0 0 0 -1 0 0 0 0 0 0 0 0 0 0 0 0 0 0 0 0 0 0 0 0 0 0 0 -1 0 0 0 0 0 0 0 0 0 0 0 0 0 0 0 0 0 -1 0 0 0 0 0 0 0 0 0 0 0 0 0 0 0 0 0 0 0 -1 0 0 0 0 0 0 0 0 0 0 0 0 0 0 0 0 0 0 0 0 0 -1 0 0 0 0 0 0 0 0 0 0 0 0 0 0 0 0 0 -1 0 0 0 0 0 0 0 0 0 0 0 0 0 0 0 0 0 0 0 -1 0 -1 0 -1 0 0 0 0 0 0 0 0 0 0 0 0 0 0 0 0 0 0 0 -1 0 0 0 0 0 0 0 0 0 0 0 0 0 0 0 0 0 0 0 0 0 -1 0 0 0 0 0 0 0 0 0 0 0 0 0 0 0 0 0 0 0 -1 0 0 0 0 0 0 0 0 0 0 0 0 0 0 0 -1 0 0 0 0 0 0 0 -1 0c-5,0 -10,6 -11,7l-3 0c0,1 -2,3 -4,3 -4,0 -16,0 -22,0 -2,0 -3,-2 -3,-3l-3 0c0,0 0,-5 -14,-5l0 -4 -6 0c-2,0 -3,-1 -4,-3z"/>
   <path id="1" fill="#575656" d="M115 389l-22 0c0,2 -2,3 -4,3l-8 0c-2,0 -3,-1 -4,-3l-21 0c-1,2 -3,3 -4,3l-9 0c-2,0 -4,-2 -4,-5l0 -18c0,-2 2,-4 4,-4l9 0c1,0 3,1 3,2l22 0c1,-1 2,-2 4,-2l8 0c2,0 4,1 4,2l22 0c1,-1 2,-2 4,-2l6 0c1,0 5,-2 7,-2l17 0c1,-1 1,-3 3,-3 2,0 20,0 20,0 0,0 2,0 3,3l1 0 1 0 0 0 1 0 0 0 1 0 0 0 1 0 0 0 0 0 1 0 0 0 0 0 0 0 19 9 0 0 0 0 0 0 0 0 0 0 0 0 0 0 0 0 0 0 0 0 0 0 0 0 0 0 0 0 0 0 0 0 0 0 0 0 0 0 0 0 0 0 0 0 0 0 0 0 0 0 0 0 0 0 0 0 0 0 0 0 0 0 0 0 0 0 0 0 0 0 0 0 0 0 0 0 0 0 0 0 0 0 1 0 0 0 0 0 0 0 0 0 0 0 0 0 0 0 0 0 0 0 0 0 0 0 0 0 0 0 0 0 0 0 0 0 0 0 0 0 0 0 0 0 0 0 0 1 0 0 0 0 0 0 0 0 0 0 0 0 0 0 0 0 0 0 0 0 0 0 0 0 0 0 0 0 0 0 0 0 1 0 0 0 0 0 0 0 0 0 0 0 0 0 0 0 0 0 0 1 0 0 0 0 0 0 0 0 0 0 0 0 0 0 0 0 0 0 0 0 0 0 0 0 0 0 0 0 0 0 0 1 0 0 0 0 0 0 0 0 0 0 0 0 0 0 0 0 0 0 0 0 3 0c2,0 3,2 3,3l0 10c0,2 -1,3 -3,3l-3 0 0 0 0 0 0 0 0 0 0 0 0 0 0 0 0 0 0 0 0 0 0 0 0 0 0 1 0 0 0 0 0 0 0 0 0 0 0 0 0 0 0 0 0 0 0 0 0 0 0 0 0 0 -1 0 0 0 0 0 0 0 0 0 0 0 0 0 0 0 0 0 0 1 0 0 0 0 0 0 0 0 0 0 0 0 0 0 0 0 0 0 0 0 0 0 0 0 -1 0 0 0 0 0 0 0 0 0 0 0 0 0 0 0 0 0 0 0 0 0 0 0 0 0 0 0 0 0 0 0 0 1 0 0 0 0 -1 0 0 0 0 0 0 0 0 0 0 0 0 0 0 0 0 0 0 0 0 0 0 0 0 0 -1 0 0 0 0 0 0 0 0 0 0 0 0 0 0 0 0 0 0 0 0 0 0 0 -1 0 0 0 0 0 0 0 0 0 0 0 0 0 0 0 0 0 -1 0 0 0 0 0 0 0 0 0 0 0 0 0 0 0 0 0 0 0 -1 0 0 0 0 0 0 0 0 0 0 0 0 0 0 0 0 0 0 0 0 0 -1 0 0 0 0 0 0 0 0 0 0 0 0 0 0 0 0 0 -1 0 0 0 0 0 0 0 0 0 0 0 0 0 0 0 0 0 0 0 -1 0 -1 0 -1 0 0 0 0 0 0 0 0 0 0 0 0 0 0 0 0 0 0 0 -1 0 0 0 0 0 0 0 0 0 0 0 0 0 0 0 0 0 0 0 0 0 -1 0 0 0 0 0 0 0 0 0 0 0 0 0 0 0 0 0 0 0 -1 0 0 0 0 0 0 0 0 0 0 0 0 0 0 0 -1 0 0 0 0 0 0 0 -1 0c-5,0 -10,6 -11,7l-3 0c0,1 -2,3 -4,3 -4,0 -16,0 -22,0 -2,0 -3,-2 -3,-3l-3 0c0,0 0,-5 -14,-5l0 -4 -6 0c-2,0 -3,-1 -4,-3z"/>
  </g>
 </g>
 <g id="BackHand">
  <g>
   <path fill="none" stroke="#9E0A63" stroke-width="6.66535" d="M133 43c0,-3 -2,-6 -6,-6 -3,0 -6,3 -6,6 0,4 3,6 6,6 4,0 6,-2 6,-6z"/>
   <path id="1" fill="#F49EE9" d="M133 43c0,-3 -2,-6 -6,-6 -3,0 -6,3 -6,6 0,4 3,6 6,6 4,0 6,-2 6,-6z"/>
  </g>
  <g>
   <path fill="none" stroke="#9E0A63" stroke-width="6.66535" d="M133 150c0,-3 -2,-6 -6,-6 -3,0 -6,3 -6,6 0,3 3,6 6,6 4,0 6,-3 6,-6z"/>
   <path id="1" fill="#F49EE9" d="M133 150c0,-3 -2,-6 -6,-6 -3,0 -6,3 -6,6 0,3 3,6 6,6 4,0 6,-3 6,-6z"/>
  </g>
  <g>
   <path fill="none" stroke="#9E0A63" stroke-width="6.66535" d="M133 363c0,-3 -2,-6 -6,-6 -3,0 -6,3 -6,6 0,4 3,6 6,6 4,0 6,-2 6,-6z"/>
   <path id="1" fill="#F49EE9" d="M133 363c0,-3 -2,-6 -6,-6 -3,0 -6,3 -6,6 0,4 3,6 6,6 4,0 6,-2 6,-6z"/>
  </g>
  <g>
   <path fill="none" stroke="#9E0A63" stroke-width="6.66535" d="M133 257c0,-4 -2,-6 -6,-6 -3,0 -6,2 -6,6 0,3 3,6 6,6 4,0 6,-3 6,-6z"/>
   <path id="1" fill="#F49EE9" d="M133 257c0,-4 -2,-6 -6,-6 -3,0 -6,2 -6,6 0,3 3,6 6,6 4,0 6,-3 6,-6z"/>
  </g>
  <path fill="#FFBFFF" d="M127 40c0,0 1,1 2,2 1,1 3,2 3,2 0,0 0,-3 -1,-4 -1,0 -3,-1 -4,0z"/>
  <path fill="#FFBFFF" d="M127 147c0,0 1,1 2,2 1,0 3,2 3,2 0,0 0,-3 -1,-4 -1,-1 -3,-1 -4,0z"/>
  <path fill="#FFBFFF" d="M127 360c0,0 1,1 2,2 1,1 3,2 3,2 0,0 0,-3 -1,-4 -1,0 -3,-1 -4,0z"/>
  <path fill="#FFBFFF" d="M127 254c0,0 1,1 2,1 1,1 3,3 3,3 0,0 0,-3 -1,-4 -1,-1 -3,-2 -4,0z"/>
  <path fill="#F277E3" d="M127 48c-3,0 -6,-4 -5,-6 1,-1 1,-2 1,-2 0,0 0,4 1,5 1,1 5,3 7,2 -2,1 -3,1 -4,1z"/>
  <path fill="#F277E3" d="M127 155c-3,0 -6,-4 -5,-7 1,0 1,-1 1,-1 0,0 0,4 1,4 1,1 5,3 7,2 -2,2 -3,2 -4,2z"/>
  <path fill="#F277E3" d="M127 368c-3,0 -6,-4 -5,-6 1,-1 1,-2 1,-2 0,0 0,4 1,5 1,1 5,3 7,2 -2,1 -3,1 -4,1z"/>
  <path fill="#F277E3" d="M127 261c-3,0 -6,-3 -5,-6 1,-1 1,-1 1,-1 0,0 0,3 1,4 1,1 5,3 7,2 -2,1 -3,1 -4,1z"/>
 </g>
 <g id="Barrels">
  <rect fill="#575656" x="53" y="50" width="68.1207" height="16.9275"/>
  <rect fill="#575656" x="53" y="263" width="68.1207" height="16.9275"/>
  <rect fill="#575656" x="53" y="156" width="68.1207" height="17.4079"/>
  <rect fill="#575656" x="53" y="369" width="68.1207" height="17.4079"/>
  <rect fill="#C5C6C6" x="46" y="47" width="74.5492" height="5.38286"/>
  <rect fill="#C5C6C6" x="46" y="260" width="74.5492" height="5.38286"/>
  <rect fill="#C5C6C6" x="44" y="152" width="74.5492" height="3.77109"/>
  <rect fill="#C5C6C6" x="44" y="366" width="74.5492" height="3.77109"/>
  <rect fill="#939494" x="46" y="172" width="74.5492" height="3.77109"/>
  <rect fill="#939494" x="46" y="386" width="74.5492" height="3.77109"/>
  <rect fill="#B2B3B3" x="46" y="55" width="74.5492" height="5.95369"/>
  <rect fill="#B2B3B3" x="46" y="268" width="74.5492" height="5.95369"/>
  <rect fill="#B2B3B3" x="46" y="157" width="74.5492" height="5.39885"/>
  <rect fill="#B2B3B3" x="46" y="371" width="74.5492" height="5.39885"/>
  <rect fill="#9D9E9E" x="46" y="63" width="74.5492" height="5.46822"/>
  <rect fill="#9D9E9E" x="46" y="277" width="74.5492" height="5.46822"/>
  <rect fill="#9D9E9E" x="46" y="165" width="74.5492" height="5.85095"/>
  <rect fill="#9D9E9E" x="46" y="379" width="74.5492" height="5.85095"/>
  <path fill="#EBECEC" d="M118 47l-63 0c1,2 2,2 3,2 1,0 3,-1 5,-1 2,0 7,0 8,0 1,1 14,1 16,1 3,-1 13,-1 14,-1 1,0 10,1 12,1 2,0 3,0 5,-2z"/>
  <path fill="#EBECEC" d="M118 261l-63 0c1,1 2,1 3,1 1,0 3,0 5,0 2,0 7,0 8,0 1,0 14,0 16,0 3,0 13,-1 14,-1 1,0 10,1 12,1 2,0 3,0 5,-1z"/>
  <path fill="#EBECEC" d="M118 153l-63 0c0,1 2,1 3,1 0,0 3,-1 5,-1 2,0 6,0 7,0 2,1 14,1 17,1 2,-1 13,-1 14,-1 1,0 10,1 12,1 2,0 3,0 5,-1z"/>
  <path fill="#EBECEC" d="M118 366l-63 0c0,1 2,1 3,1 0,0 3,0 5,0 2,0 6,0 7,0 2,0 14,0 17,0 2,0 13,-1 14,-1 1,0 10,1 12,1 2,0 3,0 5,-1z"/>
  <path fill="#D9DADA" d="M118 173l-63 0c1,1 2,1 3,1 1,0 3,-1 5,-1 2,0 7,0 8,0 1,1 14,1 16,1 3,-1 13,-1 14,-1 1,0 10,1 12,1 2,0 3,0 5,-1z"/>
  <path fill="#D9DADA" d="M118 386l-63 0c1,1 2,1 3,1 1,0 3,0 5,0 2,0 7,0 8,0 1,0 14,0 16,0 3,0 13,-1 14,-1 1,0 10,1 12,1 2,0 3,0 5,-1z"/>
  <path fill="#727271" d="M56 52l61 0c0,0 1,0 0,-2 -1,-1 -7,1 -9,1 -1,-1 -6,0 -7,0 -1,0 -5,0 -6,-1 -1,-1 -15,-2 -17,-1 -1,1 -4,2 -5,2 -1,0 -4,0 -5,0 -1,-1 -5,-1 -6,-1 -2,0 -7,-1 -7,-1 0,0 0,1 1,3z"/>
  <path fill="#727271" d="M56 265l61 0c0,0 1,0 0,-1 -1,-1 -7,0 -9,0 -1,0 -6,0 -7,0 -1,0 -5,0 -6,-1 -1,0 -15,-1 -17,0 -1,1 -4,1 -5,1 -1,0 -4,0 -5,0 -1,0 -5,0 -6,0 -2,0 -7,-2 -7,-2 0,0 0,1 1,3z"/>
  <path fill="#727271" d="M56 156l61 0c0,0 1,0 0,-1 -2,-1 -8,0 -9,0 -2,0 -7,0 -8,0 -1,0 -4,0 -5,0 -1,-1 -16,-2 -17,-1 -2,1 -5,1 -6,1 -1,0 -4,0 -5,0 -1,0 -4,0 -6,0 -1,0 -7,-1 -7,-1 0,0 1,1 2,2z"/>
  <path fill="#727271" d="M56 369l61 0c0,0 1,0 0,-1 -2,-1 -8,0 -9,0 -2,0 -7,0 -8,1 -1,0 -4,0 -5,-1 -1,-1 -16,-1 -17,-1 -2,1 -5,2 -6,2 -1,0 -4,-1 -5,-1 -1,0 -4,0 -6,0 -1,0 -7,-1 -7,-1 0,0 1,1 2,2z"/>
  <path fill="#727271" d="M56 176l61 0c0,0 1,0 0,-1 -1,-1 -7,0 -9,0 -1,0 -6,0 -7,0 -1,0 -5,0 -6,0 -1,-1 -15,-2 -17,-1 -1,1 -4,1 -5,1 -1,0 -4,0 -5,0 -1,0 -5,0 -6,0 -2,0 -7,-1 -7,-1 0,0 0,1 1,2z"/>
  <path fill="#727271" d="M56 389l61 0c0,0 1,0 0,-1 -1,-1 -7,0 -9,0 -1,0 -6,0 -7,0 -1,1 -5,0 -6,0 -1,-1 -15,-1 -17,-1 -1,1 -4,1 -5,1 -1,0 -4,0 -5,0 -1,0 -5,0 -6,0 -2,0 -7,-1 -7,-1 0,0 0,1 1,2z"/>
  <path fill="#EBECEC" d="M119 56l-64 -1c0,1 1,1 2,2 1,0 6,0 7,0 1,0 4,0 5,0 1,0 5,0 6,0 1,0 3,-1 5,-1 2,-1 10,-1 11,0 2,1 5,1 7,1 1,0 4,0 5,0 2,0 5,0 6,0 2,0 6,0 8,0 2,0 2,0 2,-1z"/>
  <path fill="#EBECEC" d="M119 269l-64 0c0,1 1,1 2,1 1,1 6,0 7,0 1,0 4,0 5,0 1,0 5,0 6,0 1,1 3,-1 5,-1 2,0 10,-1 11,0 2,1 5,1 7,1 1,0 4,0 5,0 2,0 5,0 6,0 2,0 6,0 8,1 2,0 2,-1 2,-2z"/>
  <path fill="#EBECEC" d="M119 158l-64 0c0,1 1,1 2,1 2,1 6,0 7,0 1,0 5,0 6,0 1,0 4,0 5,0 1,0 3,-1 6,-1 2,0 9,-1 11,0 2,1 5,1 6,1 1,0 4,0 6,0 1,0 4,0 6,0 1,0 5,0 7,0 3,1 3,0 2,-1z"/>
  <path fill="#EBECEC" d="M119 371l-64 0c0,1 1,1 2,1 2,1 6,0 7,0 1,0 5,0 6,0 1,0 4,0 5,1 1,0 3,-1 6,-2 2,0 9,0 11,1 2,0 5,1 6,1 1,0 4,-1 6,-1 1,0 4,0 6,0 1,0 5,1 7,1 3,0 3,-1 2,-2z"/>
  <path fill="#727271" d="M52 61l68 0 0 -2c-2,-1 -6,0 -8,0 -2,0 -6,1 -8,1 -2,0 -6,-1 -9,-1 -2,0 -6,0 -9,-1 -3,0 -9,1 -10,1 -1,0 -5,0 -6,0 -1,0 -8,1 -9,1 -2,0 -7,-2 -7,-2 0,0 -1,1 -2,3z"/>
  <path fill="#727271" d="M52 274l68 0 0 -1c-2,-2 -6,-1 -8,-1 -2,0 -6,1 -8,1 -2,0 -6,0 -9,-1 -2,0 -6,0 -9,0 -3,-1 -9,0 -10,0 -1,0 -5,1 -6,1 -1,0 -8,0 -9,0 -2,0 -7,-1 -7,-1 0,0 -1,0 -2,2z"/>
  <path fill="#727271" d="M52 163l68 0 0 -2c-2,-1 -5,0 -7,0 -3,0 -7,1 -9,1 -2,0 -5,-1 -8,-1 -3,0 -7,0 -9,-1 -3,0 -9,1 -11,1 -1,0 -5,0 -6,0 -1,0 -7,1 -9,1 -2,0 -7,-2 -7,-2 0,0 -1,1 -2,3z"/>
  <path fill="#727271" d="M52 376l68 0 0 -1c-2,-2 -5,-1 -7,-1 -3,0 -7,1 -9,1 -2,0 -5,0 -8,-1 -3,0 -7,0 -9,0 -3,-1 -9,0 -11,0 -1,0 -5,1 -6,1 -1,0 -7,0 -9,0 -2,0 -7,-1 -7,-1 0,0 -1,1 -2,2z"/>
  <path fill="#D9DADA" d="M117 64l-63 0 0 0c0,0 2,1 4,1 3,0 10,0 11,0 2,0 5,0 7,0 1,0 4,-1 7,-1 3,0 15,2 16,2 2,-1 8,0 11,-1 3,0 9,2 9,0 1,-2 0,0 -2,-1z"/>
  <path fill="#D9DADA" d="M117 277l-63 0 0 1c0,0 2,1 4,1 3,0 10,0 11,0 2,0 5,-1 7,-1 1,0 4,0 7,0 3,0 15,1 16,1 2,0 8,0 11,0 3,0 9,1 9,-1 1,-1 0,0 -2,-1z"/>
  <path fill="#D9DADA" d="M117 166l-62 0 -1 0c0,0 2,1 5,1 2,0 9,0 11,0 1,0 5,0 6,0 1,0 5,-1 7,-1 3,0 15,2 17,1 1,0 7,1 10,0 4,0 9,2 10,0 0,-2 -1,-1 -3,-1z"/>
  <path fill="#D9DADA" d="M117 379l-62 0 -1 0c0,0 2,1 5,2 2,0 9,0 11,0 1,0 5,-1 6,-1 1,0 5,0 7,-1 3,0 15,2 17,2 1,0 7,0 10,0 4,-1 9,1 10,-1 0,-1 -1,0 -3,-1z"/>
  <path fill="#727271" d="M56 69l64 0 0 -3c-4,0 -9,0 -11,1 -1,0 -6,0 -9,0 -2,0 -19,0 -20,0 -2,0 -9,0 -11,0 -2,0 -14,-1 -14,-1 0,0 0,1 1,3z"/>
  <path fill="#727271" d="M56 282l64 0 0 -2c-4,0 -9,0 -11,0 -1,1 -6,0 -9,0 -2,1 -19,0 -20,0 -2,0 -9,0 -11,0 -2,1 -14,0 -14,0 0,0 0,1 1,2z"/>
  <path fill="#727271" d="M56 171l65 0 0 -3c-4,0 -10,0 -11,1 -2,0 -7,0 -9,0 -3,0 -19,0 -21,0 -1,0 -9,0 -11,0 -1,0 -14,-1 -14,-1 0,0 0,1 1,3z"/>
  <path fill="#727271" d="M56 384l65 0 0 -2c-4,0 -10,0 -11,0 -2,1 -7,0 -9,0 -3,1 -19,0 -21,0 -1,0 -9,0 -11,0 -1,1 -14,0 -14,0 0,0 0,1 1,2z"/>
  <path fill="#C5C6C6" d="M54 69l66 0 0 -1 -67 0c0,0 0,1 1,1z"/>
  <path fill="#C5C6C6" d="M54 282l66 0 0 -1 -67 0c0,1 0,1 1,1z"/>
  <path fill="#C5C6C6" d="M54 171l67 0 0 -1 -67 0c0,1 0,1 0,1z"/>
  <path fill="#C5C6C6" d="M54 384l67 0 0 0 -67 0c0,0 0,0 0,0z"/>
  <path fill="#C5C6C6" d="M54 61l66 0 0 -1 -67 0c0,0 0,1 1,1z"/>
  <path fill="#C5C6C6" d="M54 274l66 0 0 0 -67 0c0,0 0,0 1,0z"/>
  <path fill="#C5C6C6" d="M54 163l66 0 0 -1 -67 0c1,0 1,1 1,1z"/>
  <path fill="#C5C6C6" d="M54 376l66 0 0 0 -67 0c1,0 1,0 1,0z"/>
  <path fill="#C5C6C6" d="M54 52l67 0 0 -1 -67 0c0,1 0,1 0,1z"/>
  <path fill="#C5C6C6" d="M54 266l67 0 0 -1 -67 0c0,0 0,0 0,1z"/>
  <path fill="#C5C6C6" d="M54 155l66 0 0 1 -67 0c1,0 1,0 1,-1z"/>
  <path fill="#C5C6C6" d="M54 369l66 0 0 0 -67 0c1,0 1,0 1,0z"/>
  <path fill="#C5C6C6" d="M54 176l67 0 0 -1 -67 0c0,1 0,1 0,1z"/>
  <path fill="#C5C6C6" d="M54 389l67 0 0 0 -67 0c0,0 0,0 0,0z"/>
 </g>
 <g id="BarrelFrame">
  <path fill="#727271" d="M119 44l8 0c3,0 5,2 5,5l0 18c0,2 -2,4 -5,4l-8 0c-2,0 -4,-2 -4,-4l0 -18c0,-3 2,-5 4,-5zm-38 0l8 0c3,0 5,2 5,5l0 18c0,2 -2,4 -5,4l-8 0c-2,0 -4,-2 -4,-4l0 -18c0,-3 2,-5 4,-5zm-38 0l9 0c2,0 4,2 4,5l0 18c0,2 -2,4 -4,4l-9 0c-2,0 -4,-2 -4,-4l0 -18c0,-3 2,-5 4,-5z"/>
  <path fill="#727271" d="M119 258l8 0c3,0 5,2 5,4l0 18c0,3 -2,5 -5,5l-8 0c-2,0 -4,-2 -4,-5l0 -18c0,-2 2,-4 4,-4zm-38 0l8 0c3,0 5,2 5,4l0 18c0,3 -2,5 -5,5l-8 0c-2,0 -4,-2 -4,-5l0 -18c0,-2 2,-4 4,-4zm-38 0l9 0c2,0 4,2 4,4l0 18c0,3 -2,5 -4,5l-9 0c-2,0 -4,-2 -4,-5l0 -18c0,-2 2,-4 4,-4z"/>
  <path fill="#727271" d="M119 151l8 0c3,0 5,2 5,5l0 17c0,3 -2,5 -5,5l-8 0c-2,0 -4,-2 -4,-5l0 -17c0,-3 2,-5 4,-5zm-38 0l8 0c3,0 5,2 5,5l0 17c0,3 -2,5 -5,5l-8 0c-2,0 -4,-2 -4,-5l0 -17c0,-3 2,-5 4,-5zm-38 0l9 0c2,0 4,2 4,5l0 17c0,3 -2,5 -4,5l-9 0c-2,0 -4,-2 -4,-5l0 -17c0,-3 2,-5 4,-5z"/>
  <path fill="#727271" d="M119 364l8 0c3,0 5,2 5,5l0 18c0,2 -2,4 -5,4l-8 0c-2,0 -4,-2 -4,-4l0 -18c0,-3 2,-5 4,-5zm-38 0l8 0c3,0 5,2 5,5l0 18c0,2 -2,4 -5,4l-8 0c-2,0 -4,-2 -4,-4l0 -18c0,-3 2,-5 4,-5zm-38 0l9 0c2,0 4,2 4,5l0 18c0,2 -2,4 -4,4l-9 0c-2,0 -4,-2 -4,-4l0 -18c0,-3 2,-5 4,-5z"/>
  <path fill="#898989" d="M119 44l8 0c1,0 2,1 3,1 0,4 0,7 -1,7 -3,0 -7,6 -9,6 -1,1 -4,0 -5,-1l0 -8c0,-3 2,-5 4,-5zm-80 14c2,0 5,0 7,0 2,-1 7,-2 10,-2l0 -7c0,-3 -2,-5 -4,-5l-9 0c-2,0 -4,2 -4,5l0 9zm38 0c4,0 8,0 9,-1 1,0 5,-1 8,-1l0 -7c0,-3 -2,-5 -5,-5l-8 0c-2,0 -4,2 -4,5l0 9z"/>
  <path fill="#898989" d="M119 258l8 0c1,0 2,0 3,1 0,4 0,7 -1,7 -3,0 -7,5 -9,6 -1,0 -4,-1 -5,-2l0 -8c0,-2 2,-4 4,-4zm-80 13c2,1 5,1 7,0 2,-1 7,-2 10,-1l0 -8c0,-2 -2,-4 -4,-4l-9 0c-2,0 -4,2 -4,4l0 9zm38 0c4,0 8,0 9,0 1,-1 5,-1 8,-2l0 -7c0,-2 -2,-4 -5,-4l-8 0c-2,0 -4,2 -4,4l0 9z"/>
  <path fill="#898989" d="M119 151l8 0c1,0 2,0 3,1 0,4 0,7 -1,7 -3,0 -7,5 -9,6 -1,0 -4,-1 -5,-2l0 -7c0,-3 2,-5 4,-5zm-80 14c2,0 5,0 7,-1 2,-1 7,-1 10,-1l0 -7c0,-3 -2,-5 -4,-5l-9 0c-2,0 -4,2 -4,5l0 9zm38 -1c4,0 6,1 7,0 2,0 6,-1 10,-1l0 -7c0,-3 -2,-5 -5,-5l-8 0c-2,0 -4,2 -4,5l0 8z"/>
  <path fill="#898989" d="M119 364l8 0c1,0 2,1 3,1 0,4 0,7 -1,7 -3,0 -7,6 -9,6 -1,1 -4,0 -5,-1l0 -8c0,-3 2,-5 4,-5zm-80 14c2,0 5,0 7,0 2,-1 7,-2 10,-2l0 -7c0,-3 -2,-5 -4,-5l-9 0c-2,0 -4,2 -4,5l0 9zm38 -1c4,1 6,1 7,1 2,-1 6,-2 10,-2l0 -7c0,-3 -2,-5 -5,-5l-8 0c-2,0 -4,2 -4,5l0 8z"/>
  <path fill="#9D9E9E" d="M119 44l8 0c3,0 5,2 5,5l0 1c-1,1 -2,-1 -3,-1 -1,0 -9,-1 -10,0 -2,1 -3,1 -4,2l0 -2c0,-3 2,-5 4,-5zm-80 8c1,-1 2,-1 5,-2 3,0 8,0 12,1l0 -2c0,-3 -2,-5 -4,-5l-9 0c-2,0 -4,2 -4,5l0 3zm38 0c2,-1 2,-1 4,-2 2,-1 4,-1 6,0 2,0 5,0 7,0l0 -1c0,-3 -2,-5 -5,-5l-8 0c-2,0 -4,2 -4,5l0 3z"/>
  <path fill="#9D9E9E" d="M119 258l8 0c3,0 5,2 5,4l0 1c-1,1 -2,-1 -3,-1 -1,0 -9,-1 -10,0 -2,2 -3,2 -4,2l0 -2c0,-2 2,-4 4,-4zm-80 8c1,-1 2,-2 5,-2 3,-1 8,-1 12,0l0 -2c0,-2 -2,-4 -4,-4l-9 0c-2,0 -4,2 -4,4l0 4zm38 -1c2,-1 2,0 4,-2 2,-1 4,0 6,0 2,0 5,0 7,1l0 -2c0,-2 -2,-4 -5,-4l-8 0c-2,0 -4,2 -4,4l0 3z"/>
  <path fill="#9D9E9E" d="M119 151l8 0c3,0 5,2 5,5l0 0c-1,1 -2,-1 -3,0 -1,0 -9,-2 -10,0 -2,1 -3,1 -4,1l0 -1c0,-3 2,-5 4,-5zm-80 7c1,-1 4,-1 6,-2 3,0 7,0 11,1l0 -1c0,-3 -2,-5 -4,-5l-9 0c-2,0 -4,2 -4,5l0 2zm38 0c2,-1 3,-1 5,-2 3,-1 5,-1 6,0 2,0 4,0 6,1l0 -1c0,-3 -2,-5 -5,-5l-8 0c-2,0 -4,2 -4,5l0 2z"/>
  <path fill="#9D9E9E" d="M119 364l8 0c3,0 5,2 5,5l0 1c-1,1 -2,-1 -3,-1 -1,0 -9,-1 -10,0 -2,1 -3,1 -4,2l0 -2c0,-3 2,-5 4,-5zm-80 7c1,-1 4,-1 6,-2 3,0 7,0 11,1l0 -1c0,-3 -2,-5 -4,-5l-9 0c-2,0 -4,2 -4,5l0 2zm38 0c2,-1 3,-1 5,-2 3,0 5,-1 6,0 2,1 4,1 6,1l0 -1c0,-3 -2,-5 -5,-5l-8 0c-2,0 -4,2 -4,5l0 2z"/>
  <path fill="#FEFEFE" d="M40 263c0,0 1,-3 3,-3 2,0 9,0 9,0 0,0 -3,-1 -5,-1 -2,0 -5,-1 -6,0 -2,2 -1,4 -1,4z"/>
  <path fill="#FEFEFE" d="M40 369c0,0 1,-2 3,-2 2,0 9,0 9,0 0,0 -3,-2 -5,-2 -2,1 -5,0 -6,1 -2,2 -1,3 -1,3z"/>
  <rect fill="#5B5B5B" x="41" y="48" width="11.1392" height="2.52872" rx="5" ry="3"/>
  <path fill="#FEFEFE" d="M40 156c0,0 1,-2 3,-3 2,0 9,0 9,0 0,0 -4,-1 -5,-1 -2,0 -5,-1 -6,1 -2,1 -1,3 -1,3z"/>
  <path fill="#FEFEFE" d="M40 369c0,0 1,-2 3,-2 2,0 9,0 9,0 0,0 -4,-2 -5,-2 -2,0 -5,-1 -6,1 -2,1 -1,3 -1,3z"/>
  <rect fill="#60605F" x="41" y="152" width="11.1392" height="1.81579" rx="5" ry="2"/>
  <rect fill="#5B5B5B" x="41" y="56" width="11.1392" height="3.30761" rx="5" ry="5"/>
  <rect fill="#5B5B5B" x="41" y="158" width="11.1392" height="3.03591" rx="5" ry="4"/>
  <rect fill="#4F4F4E" x="41" y="167" width="11.1392" height="3.03591" rx="5" ry="4"/>
  <path fill="#5B5B5B" d="M132 56l0 11c0,2 -2,4 -5,4l-8 0c-2,0 -4,-2 -4,-4l0 -3c1,0 2,0 3,1 1,1 6,-1 6,-2 1,-2 4,-13 6,-12 2,0 1,2 2,5zm-93 9c2,1 4,2 6,2 2,0 6,-1 8,-2 2,0 2,0 3,0l0 2c0,2 -2,4 -4,4l-9 0c-2,0 -4,-2 -4,-4l0 -2zm38 -1c1,1 3,2 5,3 3,0 6,-1 7,-1 1,0 3,-1 5,-2l0 3c0,2 -2,4 -5,4l-8 0c-2,0 -4,-2 -4,-4l0 -3z"/>
  <path fill="#5B5B5B" d="M132 269l0 11c0,3 -2,5 -5,5l-8 0c-2,0 -4,-2 -4,-5l0 -2c1,0 2,-1 3,0 1,1 6,-1 6,-2 1,-1 4,-13 6,-12 2,1 1,2 2,5zm-93 9c2,1 4,2 6,2 2,0 6,-1 8,-1 2,-1 2,-1 3,-1l0 2c0,3 -2,5 -4,5l-9 0c-2,0 -4,-2 -4,-5l0 -2zm38 0c1,1 3,2 5,2 3,0 6,0 7,0 1,-1 3,-2 5,-2l0 2c0,3 -2,5 -5,5l-8 0c-2,0 -4,-2 -4,-5l0 -2z"/>
  <path fill="#5B5B5B" d="M132 162l0 11c0,3 -2,5 -5,5l-8 0c-2,0 -4,-2 -4,-5l0 -2c1,0 2,0 3,1 1,0 6,-2 6,-3 1,-1 4,-13 6,-12 2,1 1,3 2,5zm-93 9c2,1 4,2 6,2 2,1 6,-1 8,-1 2,0 2,0 3,0l0 1c0,3 -2,5 -4,5l-9 0c-2,0 -4,-2 -4,-5l0 -2zm38 -1c1,1 2,2 5,2 2,0 5,-1 7,-1 1,0 3,1 5,0l0 2c0,3 -2,5 -5,5l-8 0c-2,0 -4,-2 -4,-5l0 -3z"/>
  <path fill="#5B5B5B" d="M132 376l0 11c0,2 -2,4 -5,4l-8 0c-2,0 -4,-2 -4,-4l0 -3c1,0 2,0 3,1 1,1 6,-1 6,-2 1,-2 4,-13 6,-12 2,0 1,2 2,5zm-93 9c2,1 4,2 6,2 2,0 6,-1 8,-2 2,0 2,0 3,0l0 2c0,2 -2,4 -4,4l-9 0c-2,0 -4,-2 -4,-4l0 -2zm38 -1c1,0 2,2 5,2 2,0 5,-2 7,-2 1,1 3,1 5,0l0 3c0,2 -2,4 -5,4l-8 0c-2,0 -4,-2 -4,-4l0 -3z"/>
  <path fill="#B2B3B3" d="M129 178c0,0 -1,0 -2,0l-8 0c-2,0 -4,-1 -4,-3 2,1 4,1 7,1 2,0 5,-1 7,1l0 1zm-90 -4c2,1 3,3 8,3 4,0 6,-1 9,-2 -1,2 -2,3 -4,3l-9 0c-2,0 -4,-2 -4,-4zm38 1c2,1 3,0 4,1 1,0 5,0 8,0 2,-1 2,-1 5,-2 0,3 -2,4 -5,4l-8 0c-2,0 -3,-1 -4,-3z"/>
  <path fill="#B2B3B3" d="M129 391c0,0 -1,0 -2,0l-8 0c-2,0 -4,-1 -4,-3 2,1 4,2 7,1 2,0 5,-1 7,2l0 0zm-90 -3c2,1 3,2 8,2 4,0 6,-1 9,-2 -1,2 -2,3 -4,3l-9 0c-2,0 -4,-1 -4,-3zm38 0c2,1 3,1 4,1 1,0 5,1 8,0 2,-1 2,0 5,-1 0,2 -2,3 -5,3l-8 0c-2,0 -3,-1 -4,-3z"/>
  <rect fill="#434242" x="41" y="65" width="11.1392" height="2.65676" rx="5" ry="4"/>
  <rect fill="#4A4A49" x="42" y="175" width="11.1392" height="1.98765" rx="5" ry="3"/>
  <path fill="#B2B3B3" d="M129 71c0,0 -1,0 -2,0l-8 0c-2,0 -4,-1 -4,-3 2,1 4,2 7,1 2,0 5,-1 7,2l0 0zm-90 -3c2,1 3,2 8,2 4,0 6,-1 9,-2 -1,2 -2,3 -4,3l-9 0c-2,0 -4,-1 -4,-3zm38 0c2,1 4,1 5,1 1,1 6,1 7,0 1,0 3,0 5,-1 -1,2 -2,3 -5,3l-8 0c-2,0 -3,-1 -4,-3z"/>
  <path fill="#B2B3B3" d="M129 284c0,1 -1,1 -2,1l-8 0c-2,0 -4,-2 -4,-4 2,2 4,2 7,2 2,0 5,-1 7,1l0 0zm-90 -3c2,1 3,2 8,2 4,0 6,0 9,-1 -1,1 -2,3 -4,3l-9 0c-2,0 -4,-2 -4,-4zm38 1c2,0 4,0 5,0 1,1 6,1 7,1 1,0 3,-1 5,-2 -1,2 -2,4 -5,4l-8 0c-2,0 -3,-2 -4,-3z"/>
  <path fill="#FEFEFE" d="M40 49c0,0 1,-2 3,-2 2,0 9,0 9,0 0,0 -3,-2 -5,-2 -2,1 -5,0 -6,1 -2,2 -1,3 -1,3z"/>
  <path fill="#FEFEFE" d="M78 48c0,0 2,-1 4,-1 2,0 7,-1 8,0 0,0 -3,-1 -4,-1 -1,-1 -5,-1 -6,0 -1,1 -2,2 -2,2z"/>
  <path fill="#FEFEFE" d="M78 262c0,0 2,-2 4,-2 2,0 7,0 8,0 0,0 -3,-1 -4,-1 -1,0 -5,-1 -6,0 -1,1 -2,3 -2,3z"/>
  <path fill="#FEFEFE" d="M78 155c0,0 2,-2 4,-2 2,0 7,0 8,0 1,0 -3,-1 -4,-1 -1,0 -5,-1 -6,0 -1,1 -2,3 -2,3z"/>
  <path fill="#FEFEFE" d="M78 368c0,0 2,-2 4,-2 2,0 7,0 8,0 1,1 -3,-1 -4,-1 -1,0 -5,0 -6,1 -1,0 -2,2 -2,2z"/>
  <path fill="#FEFEFE" d="M116 49c0,0 1,-2 3,-2 2,0 6,0 6,0 0,0 -3,-2 -4,-2 -1,1 -2,0 -4,1 -1,2 -1,3 -1,3z"/>
  <path fill="#FEFEFE" d="M116 263c0,0 1,-3 3,-3 2,0 6,0 6,0 0,0 -3,-1 -4,-1 -1,0 -2,-1 -4,1 -1,1 -1,3 -1,3z"/>
  <path fill="#FEFEFE" d="M116 156c0,0 1,-2 3,-3 2,0 6,0 6,0 0,0 -3,-1 -4,-1 -1,0 -2,-1 -4,1 -1,2 -1,3 -1,3z"/>
  <path fill="#FEFEFE" d="M116 369c0,0 1,-2 3,-2 2,0 6,0 6,0 0,0 -3,-2 -4,-2 -1,1 -2,0 -4,1 -1,2 -1,3 -1,3z"/>
  <rect fill="#727271" x="196" y="55" width="12.2275" height="15.9939" rx="3" ry="3"/>
  <rect fill="#727271" x="196" y="268" width="12.2275" height="15.9939" rx="3" ry="3"/>
  <rect fill="#727271" x="196" y="161" width="12.2275" height="15.9939" rx="3" ry="3"/>
  <rect fill="#727271" x="196" y="375" width="12.2275" height="15.9939" rx="3" ry="3"/>
  <path fill="#898989" d="M199 55l6 0c2,0 3,1 3,3l0 5c-1,0 -2,0 -3,-1 -1,0 -6,-1 -6,-1 0,0 -1,-3 -2,-5 0,-1 1,-1 2,-1z"/>
  <path fill="#898989" d="M199 268l6 0c2,0 3,1 3,3l0 5c-1,0 -2,0 -3,0 -1,0 -6,-2 -6,-2 0,0 -1,-2 -2,-5 0,-1 1,-1 2,-1z"/>
  <path fill="#898989" d="M199 161l6 0c2,0 3,2 3,3l0 6c-1,-1 -2,-1 -3,-1 -1,0 -6,-2 -6,-2 0,0 -1,-2 -2,-4 0,-1 1,-2 2,-2z"/>
  <path fill="#898989" d="M199 375l6 0c2,0 3,1 3,3l0 5c-1,0 -2,0 -3,-1 -1,0 -6,-1 -6,-1 0,0 -1,-3 -2,-5 0,-1 1,-1 2,-1z"/>
  <path fill="#9D9E9E" d="M199 55l6 0c2,0 3,1 3,3l0 1c0,-1 -1,-2 -2,-2 -3,-1 -10,1 -10,1 0,-2 1,-3 3,-3z"/>
  <path fill="#9D9E9E" d="M199 268l6 0c2,0 3,1 3,3l0 1c0,-1 -1,-1 -2,-2 -3,0 -10,1 -10,1 0,-2 1,-3 3,-3z"/>
  <path fill="#9D9E9E" d="M199 161l6 0c2,0 3,2 3,3l0 1c0,0 -1,-1 -2,-1 -3,-1 -10,0 -10,0 0,-1 1,-3 3,-3z"/>
  <path fill="#9D9E9E" d="M199 375l6 0c2,0 3,1 3,3l0 1c0,-1 -1,-2 -2,-2 -3,-1 -10,1 -10,1 0,-2 1,-3 3,-3z"/>
  <path fill="#5B5B5B" d="M208 68l0 0c0,1 -1,3 -3,3l-6 0 0 0c0,-4 1,-8 1,-8 0,0 2,3 4,4 3,1 3,0 4,1z"/>
  <path fill="#5B5B5B" d="M208 281l0 0c0,2 -1,3 -3,3l-6 0 0 0c0,-4 1,-8 1,-8 0,0 2,4 4,4 3,1 3,1 4,1z"/>
  <path fill="#5B5B5B" d="M208 174l0 0c0,2 -1,3 -3,3l-6 0 0 0c0,-3 1,-7 1,-7 0,0 2,3 4,4 3,0 3,0 4,0z"/>
  <path fill="#5B5B5B" d="M208 388l0 0c0,1 -1,3 -3,3l-6 0 0 0c0,-4 1,-8 1,-8 0,0 2,3 4,4 3,1 3,0 4,1z"/>
  <path fill="#9D9E9E" d="M208 69c-1,1 -2,2 -3,2l-4 0c0,-1 0,-2 0,-2 0,0 3,1 4,1 0,0 2,-1 3,-1z"/>
  <path fill="#9D9E9E" d="M208 282c-1,1 -2,2 -3,2l-4 0c0,-1 0,-2 0,-2 0,0 3,1 4,1 0,0 2,0 3,-1z"/>
  <path fill="#9D9E9E" d="M208 176c-1,1 -2,1 -3,1l-4 0c0,-1 0,-2 0,-2 0,0 3,1 4,1 0,0 2,0 3,0z"/>
  <path fill="#9D9E9E" d="M208 389c-1,1 -2,2 -3,2l-4 0c0,-1 0,-2 0,-2 0,0 3,1 4,1 0,0 2,-1 3,-1z"/>
  <polygon fill="#636262" points="208,62 208,63 201,63 201,62 "/>
  <polygon fill="#636262" points="208,275 208,276 201,276 201,275 "/>
  <polygon fill="#636262" points="208,168 208,170 201,170 201,168 "/>
  <polygon fill="#636262" points="208,382 208,383 201,383 201,382 "/>
  <polygon fill="#797978" points="208,58 208,59 201,59 201,58 "/>
  <polygon fill="#797978" points="208,271 208,272 201,272 201,271 "/>
  <polygon fill="#797978" points="208,164 208,166 201,166 201,164 "/>
  <polygon fill="#797978" points="208,378 208,379 201,379 201,378 "/>
  <polygon fill="#4D4D4C" points="208,66 208,68 201,68 201,66 "/>
  <polygon fill="#4D4D4C" points="208,280 208,281 201,281 201,280 "/>
  <polygon fill="#4D4D4C" points="208,173 208,174 201,174 201,173 "/>
  <polygon fill="#4D4D4C" points="208,386 208,387 201,387 201,386 "/>
 </g>
 <g id="Body">
  <path fill="#727271" d="M125 76l0 -32c0,0 5,-2 7,-2 3,0 49,0 49,0l19 9c0,0 2,1 2,5 0,4 0,14 0,14 0,0 0,4 -5,4 -5,0 -12,0 -12,0 -5,0 -10,5 -11,6l-35 0c0,0 0,-4 -14,-4z"/>
  <path fill="#727271" d="M125 289l0 -31c0,0 5,-2 7,-2 3,0 49,0 49,0l19 8c0,1 2,1 2,6 0,4 0,13 0,13 0,0 0,4 -5,4 -5,0 -12,0 -12,0 -5,0 -10,5 -11,6l-35 0c0,0 0,-4 -14,-4z"/>
  <path fill="#727271" d="M125 182l0 -31c0,0 5,-2 7,-2 3,0 49,0 49,0l19 9c0,0 2,1 2,5 0,4 0,14 0,14 0,0 0,3 -5,3 -5,0 -12,0 -12,0 -5,0 -10,6 -11,7l-35 0c0,0 0,-5 -14,-5z"/>
  <path fill="#727271" d="M125 396l0 -32c0,0 5,-2 7,-2 3,0 49,0 49,0l19 9c0,0 2,1 2,5 0,4 0,14 0,14 0,0 0,4 -5,4 -5,0 -12,0 -12,0 -5,0 -10,5 -11,6l-35 0c0,0 0,-4 -14,-4z"/>
  <path fill="#797978" d="M125 53l0 -9c0,0 5,-2 7,-2 3,0 49,0 49,0l16 8c-1,4 -14,2 -15,2 -1,0 -8,2 -10,1 -6,0 -11,0 -13,0 -3,0 -15,-1 -18,-1 -3,0 -8,3 -10,2 -2,-1 -3,2 -6,-1z"/>
  <path fill="#797978" d="M125 267l0 -9c0,0 5,-2 7,-2 3,0 49,0 49,0l16 7c-1,5 -14,2 -15,2 -1,1 -8,2 -10,2 -6,-1 -11,-1 -13,-1 -3,0 -15,0 -18,0 -3,0 -8,2 -10,1 -2,-1 -3,2 -6,0z"/>
  <path fill="#797978" d="M125 160l0 -9c0,0 5,-2 7,-2 3,0 49,0 49,0l16 7c-1,5 -14,2 -15,3 -1,0 -8,1 -10,1 -6,-1 -11,-1 -13,-1 -3,0 -15,0 -18,0 -3,0 -8,2 -10,1 -2,0 -3,2 -6,0z"/>
  <path fill="#797978" d="M125 373l0 -9c0,0 5,-2 7,-2 3,0 49,0 49,0l16 8c-1,4 -14,2 -15,2 -1,0 -8,2 -10,1 -6,0 -11,0 -13,0 -3,0 -15,-1 -18,-1 -3,0 -8,3 -10,2 -2,-1 -3,2 -6,-1z"/>
  <path fill="#898989" d="M131 42c1,0 1,0 1,0 3,0 49,0 49,0l6 3c-1,1 -2,1 -3,2 -7,1 -35,1 -38,1 -2,0 -9,-3 -15,-6z"/>
  <path fill="#898989" d="M131 256c1,0 1,0 1,0 3,0 49,0 49,0l6 2c-1,1 -2,2 -3,2 -7,2 -35,1 -38,2 -2,0 -9,-3 -15,-6z"/>
  <path fill="#898989" d="M131 149c1,0 1,0 1,0 3,0 49,0 49,0l6 3c-1,0 -2,1 -3,1 -7,2 -35,2 -38,2 -2,0 -9,-3 -15,-6z"/>
  <path fill="#898989" d="M131 362c1,0 1,0 1,0 3,0 49,0 49,0l6 3c-1,1 -2,1 -3,2 -7,1 -35,1 -38,1 -2,0 -9,-3 -15,-6z"/>
  <path fill="#5B5B5B" d="M125 76l0 -3 0 -29c0,0 5,-2 7,-2l15 0c-3,4 -7,7 -9,8 -4,2 -2,5 -2,6 -1,2 4,4 4,6 0,1 0,6 -1,11 2,0 3,0 4,1 1,1 2,1 5,1 -2,-7 -2,-13 -2,-13 0,0 4,-6 6,-6 1,0 8,-1 11,-1 2,1 4,2 6,3 2,1 6,7 6,9 0,1 0,4 -1,6 1,0 1,0 1,0 3,0 5,-2 8,-3 2,0 7,-2 7,-4 0,0 1,3 2,8l-7 0c-4,0 -8,3 -10,5l0 0 0 0 0 0 0 0 0 0 0 0 0 0 0 0 0 0 0 0 0 0 0 0 -1 0 0 1 0 0 0 0 0 0 0 0 0 0 0 0 0 0 0 0 0 0 0 0 0 0 0 0 0 0 0 0 0 0 0 0 -25 0 -10 0c0,0 0,0 -1,-1l0 0 0 0 0 0 0 0 0 0 0 0 0 0 0 -1 0 0 0 0 0 0 0 0 0 0 0 0 0 0 0 0 0 0 -1 0 0 0 0 0 0 0 0 0 0 0 0 0 0 0 0 0 0 0 0 0 0 0 0 0 0 0 0 0 -1 -1 0 0 0 0 0 0 0 0 0 0 0 0 0 0 0 0 0 0 -1 0 0 0 0 0 0 0 0 0 0 0 0 0 0 0 0 0 -1 0 0 0 0 0 0 0 0 0 0 0 0 0 0 0 -1 0 0 -1 0 0 0 0 0 0 0 0 0 0 -1 0 0 0 0 0 0 0 0 0 0 0 0 0 -1 0 0 0 0 0 0 0 -1 0 0 0 0 0 0 0 0 0 0 0 -1 0 0 0 0 0 0 0 0 0 -1 0 0 0 0 0 0 0 0 0 -1 0 0 0 0 0 -1 0 0 0 0 0 0 0 0 0 -1 0z"/>
  <path fill="#5B5B5B" d="M125 289l0 -3 0 -28c0,0 5,-2 7,-2l15 0c-3,3 -7,6 -9,8 -4,1 -2,5 -2,6 -1,1 4,3 4,5 0,1 0,6 -1,11 2,0 3,1 4,1 1,1 2,1 5,1 -2,-7 -2,-13 -2,-13 0,0 4,-6 6,-6 1,0 8,0 11,0 2,0 4,1 6,2 2,1 6,8 6,10 0,1 0,3 -1,5 1,0 1,0 1,0 3,0 5,-1 8,-2 2,-1 7,-3 7,-4 0,-1 1,3 2,7l-7 0c-4,0 -8,3 -10,5l0 0 0 0 0 0 0 0 0 0 0 0 0 1 0 0 0 0 0 0 0 0 0 0 -1 0 0 0 0 0 0 0 0 0 0 0 0 0 0 0 0 0 0 0 0 0 0 0 0 0 0 0 0 0 0 0 0 0 0 0 -25 0 -10 0c0,0 0,0 -1,-1l0 0 0 0 0 0 0 0 0 0 0 0 0 0 0 0 0 0 0 0 0 0 0 0 0 0 0 0 0 0 0 -1 0 0 -1 0 0 0 0 0 0 0 0 0 0 0 0 0 0 0 0 0 0 0 0 0 0 0 0 0 0 0 0 0 -1 0 0 0 0 0 0 0 0 0 0 0 0 0 0 0 0 0 0 -1 -1 0 0 0 0 0 0 0 0 0 0 0 0 0 0 0 0 0 -1 0 0 0 0 0 0 0 0 0 0 0 0 0 0 0 -1 0 0 0 0 0 0 0 0 0 0 0 0 0 -1 0 0 0 0 0 0 0 0 0 0 -1 0 0 -1 0 0 0 0 0 0 0 -1 0 0 0 0 0 0 0 0 0 0 0 -1 0 0 0 0 0 0 0 0 0 -1 0 0 0 0 0 0 0 0 0 -1 0 0 0 0 0 -1 0 0 0 0 0 0 0 0 0 -1 0z"/>
  <path fill="#5B5B5B" d="M125 182l0 -2 0 -29c0,0 5,-2 7,-2l15 0c-3,3 -7,7 -9,8 -4,2 -2,5 -2,6 -1,1 4,3 4,5 0,1 0,7 -1,12 2,0 3,0 4,1 1,0 2,0 5,0 -2,-6 -2,-13 -2,-13 0,0 4,-5 6,-5 1,0 8,-1 11,-1 2,0 4,1 6,2 2,2 6,8 6,10 0,1 0,3 -1,5 1,0 1,1 1,1 3,0 5,-2 8,-3 2,-1 7,-2 7,-4 0,-1 1,3 2,7l-7 0c-4,0 -8,3 -10,5l0 0 0 1 0 0 0 0 0 0 0 0 0 0 0 0 0 0 0 0 0 0 0 0 -1 0 0 0 0 0 0 0 0 0 0 0 0 0 0 0 0 0 0 0 0 1 0 0 0 0 0 0 0 0 0 0 0 0 0 0 -25 0 -10 0c0,0 0,-1 -1,-2l0 0 0 0 0 0 0 0 0 0 0 0 0 0 0 0 0 0 0 0 0 0 0 0 0 0 0 0 0 0 0 0 0 0 -1 0 0 0 0 0 0 0 0 0 0 0 0 0 0 -1 0 0 0 0 0 0 0 0 0 0 0 0 0 0 -1 0 0 0 0 0 0 0 0 0 0 0 0 0 0 0 0 0 0 0 -1 0 0 0 0 0 0 0 0 0 0 0 0 0 0 0 0 -1 -1 0 0 0 0 0 0 0 0 0 0 0 0 0 0 0 -1 0 0 0 0 0 0 0 0 0 0 0 0 0 -1 0 0 0 0 0 0 0 0 0 0 0 0 0 -1 0 0 0 0 0 0 0 -1 0 0 0 0 0 0 0 0 0 0 0 -1 0 0 0 0 0 0 -1 0 0 -1 0 0 0 0 0 0 0 0 0 -1 0 0 0 0 0 -1 0 0 0 0 0 0 0 0 0 -1 0z"/>
  <path fill="#5B5B5B" d="M125 396l0 -3 0 -29c0,0 5,-2 7,-2l15 0c-3,4 -7,7 -9,8 -4,2 -2,5 -2,6 -1,2 4,4 4,6 0,1 0,6 -1,11 2,0 3,0 4,1 1,1 2,1 5,1 -2,-7 -2,-13 -2,-13 0,0 4,-6 6,-6 1,0 8,-1 11,-1 2,1 4,2 6,3 2,1 6,7 6,9 0,1 0,4 -1,6 1,0 1,0 1,0 3,0 5,-2 8,-3 2,0 7,-2 7,-4 0,0 1,3 2,8l-7 0c-4,0 -8,3 -10,5l0 0 0 0 0 0 0 0 0 0 0 0 0 0 0 0 0 0 0 0 0 0 0 0 -1 0 0 0 0 1 0 0 0 0 0 0 0 0 0 0 0 0 0 0 0 0 0 0 0 0 0 0 0 0 0 0 0 0 0 0 -25 0 -10 0c0,0 0,0 -1,-1l0 0 0 0 0 0 0 0 0 0 0 0 0 0 0 -1 0 0 0 0 0 0 0 0 0 0 0 0 0 0 0 0 0 0 -1 0 0 0 0 0 0 0 0 0 0 0 0 0 0 0 0 0 0 0 0 0 0 0 0 0 0 0 0 0 -1 -1 0 0 0 0 0 0 0 0 0 0 0 0 0 0 0 0 0 0 -1 0 0 0 0 0 0 0 0 0 0 0 0 0 0 0 0 0 -1 0 0 0 0 0 0 0 0 0 0 0 0 0 0 0 -1 0 0 -1 0 0 0 0 0 0 0 0 0 0 -1 0 0 0 0 0 0 0 0 0 0 0 0 0 -1 0 0 0 0 0 0 0 -1 0 0 0 0 0 0 0 0 0 0 0 -1 0 0 0 0 0 0 0 0 0 -1 0 0 0 0 0 0 0 0 0 -1 0 0 0 0 0 -1 0 0 0 0 0 0 0 0 0 -1 0z"/>
  <path fill="#5B5B5B" d="M176 42l5 0 16 8c1,6 2,16 1,24 0,0 -1,0 -1,0 -4,0 -10,0 -11,0 -1,-3 -1,-7 -1,-8 0,-1 0,-5 0,-5 0,0 -4,0 -4,0 -1,-1 -1,-2 -1,-3 -1,-1 -1,-2 -2,-3 -1,0 -2,-1 -2,-1 0,0 -1,-8 0,-12z"/>
  <path fill="#5B5B5B" d="M176 256l5 0 16 7c1,6 2,17 1,24 0,0 -1,0 -1,0 -4,0 -10,0 -11,0 -1,-2 -1,-7 -1,-8 0,-1 0,-4 0,-4 0,0 -4,0 -4,-1 -1,0 -1,-2 -1,-3 -1,-1 -1,-2 -2,-2 -1,-1 -2,-1 -2,-1 0,0 -1,-8 0,-12z"/>
  <path fill="#5B5B5B" d="M176 149l5 0 16 8c1,6 2,16 1,23 0,0 -1,0 -1,0 -4,0 -10,0 -11,0 -1,-2 -1,-7 -1,-8 0,-1 0,-4 0,-4 0,0 -4,0 -4,0 -1,-1 -1,-3 -1,-4 -1,-1 -1,-1 -2,-2 -1,0 -2,-1 -2,-1 0,0 -1,-8 0,-12z"/>
  <path fill="#5B5B5B" d="M176 362l5 0 16 8c1,6 2,16 1,24 0,0 -1,0 -1,0 -4,0 -10,0 -11,0 -1,-3 -1,-7 -1,-8 0,-1 0,-5 0,-5 0,0 -4,0 -4,0 -1,-1 -1,-2 -1,-3 -1,-1 -1,-2 -2,-3 -1,0 -2,-1 -2,-1 0,0 -1,-8 0,-12z"/>
  <path fill="#9D9E9E" d="M125 76l0 -32c0,0 5,-2 7,-2l14 0 -12 8 0 8 4 3 0 17c-2,-1 -5,-2 -13,-2z"/>
  <path fill="#9D9E9E" d="M125 289l0 -31c0,0 5,-2 7,-2l14 0 -12 8 0 8 4 3 0 17c-2,-1 -5,-3 -13,-3z"/>
  <path fill="#9D9E9E" d="M125 182l0 -31c0,0 5,-2 7,-2l14 0 -12 8 0 8 4 3 0 17c-2,-1 -5,-3 -13,-3z"/>
  <path fill="#9D9E9E" d="M125 396l0 -32c0,0 5,-2 7,-2l14 0 -12 8 0 8 4 3 0 17c-2,-1 -5,-2 -13,-2z"/>
  <path fill="#B2B3B3" d="M141 78l0 -13 8 -8 16 0 8 9 0 11c0,0 -2,6 -6,6 -4,0 -16,1 -22,1 -3,-1 -4,-6 -4,-6z"/>
  <path fill="#B2B3B3" d="M141 291l0 -13 8 -7 16 0 8 8 0 12c0,0 -2,6 -6,6 -4,0 -16,0 -22,0 -3,0 -4,-6 -4,-6z"/>
  <path fill="#B2B3B3" d="M141 184l0 -12 8 -8 16 0 8 8 0 12c0,0 -2,6 -6,6 -4,0 -16,0 -22,0 -3,0 -4,-6 -4,-6z"/>
  <path fill="#B2B3B3" d="M141 398l0 -13 8 -8 16 0 8 9 0 11c0,0 -2,6 -6,6 -4,0 -16,1 -22,1 -3,-1 -4,-6 -4,-6z"/>
  <path fill="#D9DADA" d="M145 61l4 -4 16 0 5 6c-2,0 -4,0 -7,-2l-18 0z"/>
  <path fill="#D9DADA" d="M145 274l4 -3 16 0 5 5c-2,0 -4,0 -7,-2l-18 0z"/>
  <path fill="#D9DADA" d="M145 168l4 -4 16 0 5 5c-2,0 -4,1 -7,-1l-18 0z"/>
  <path fill="#D9DADA" d="M145 381l4 -4 16 0 5 6c-2,0 -4,0 -7,-2l-18 0z"/>
  <path fill="#898989" d="M173 75l0 2c0,0 -2,6 -6,6 -3,0 -10,0 -15,1 1,-4 4,-7 6,-7 3,1 7,0 10,0 1,0 3,-1 5,-2z"/>
  <path fill="#898989" d="M173 288l0 3c0,0 -2,6 -6,6 -3,0 -10,0 -15,0 1,-4 4,-7 6,-7 3,1 7,0 10,0 1,1 3,-1 5,-2z"/>
  <path fill="#898989" d="M173 182l0 2c0,0 -2,6 -6,6 -3,0 -10,0 -15,0 1,-4 4,-7 6,-6 3,0 7,0 10,0 1,0 3,-1 5,-2z"/>
  <path fill="#898989" d="M173 395l0 2c0,0 -2,6 -6,6 -3,0 -10,0 -15,1 1,-4 4,-7 6,-7 3,1 7,0 10,0 1,0 3,-1 5,-2z"/>
  <path fill="#C5C6C6" d="M173 77l0 0c0,0 -2,6 -6,6 -2,0 -4,0 -7,0 0,-2 0,-4 0,-4 0,0 6,2 7,2 2,0 4,-2 6,-4z"/>
  <path fill="#C5C6C6" d="M173 291l0 0c0,0 -2,6 -6,6 -2,0 -4,0 -7,0 0,-3 0,-4 0,-4 0,0 6,1 7,1 2,0 4,-2 6,-3z"/>
  <path fill="#C5C6C6" d="M173 184l0 0c0,0 -2,6 -6,6 -2,0 -4,0 -7,0 0,-2 0,-4 0,-4 0,0 6,2 7,2 2,0 4,-2 6,-4z"/>
  <path fill="#C5C6C6" d="M173 397l0 0c0,0 -2,6 -6,6 -2,0 -4,0 -7,0 0,-2 0,-4 0,-4 0,0 6,2 7,2 2,0 4,-2 6,-4z"/>
  <path fill="#60605F" d="M141 78l0 -13 5 -5 15 0 0 8 4 3 0 12c-5,0 -15,1 -20,1 -3,-1 -4,-6 -4,-6z"/>
  <path fill="#60605F" d="M141 291l0 -13 5 -5 15 0 0 9 4 2 0 13c-5,0 -15,0 -20,0 -3,0 -4,-6 -4,-6z"/>
  <path fill="#60605F" d="M141 184l0 -12 5 -5 15 0 0 8 4 2 0 13c-5,0 -15,0 -20,0 -3,0 -4,-6 -4,-6z"/>
  <path fill="#60605F" d="M141 398l0 -13 5 -5 15 0 0 8 4 3 0 12c-5,0 -15,1 -20,1 -3,-1 -4,-6 -4,-6z"/>
  <path fill="#9D9E9E" d="M176 42l5 0 19 9c0,0 2,1 2,5 0,4 0,14 0,14 0,0 0,4 -5,4 -4,0 -9,0 -11,0l0 -14 -5 0c0,0 0,-4 -1,-5 -1,-1 -4,-1 -4,-1l0 -12z"/>
  <path fill="#9D9E9E" d="M176 256l5 0 19 8c0,1 2,1 2,6 0,4 0,13 0,13 0,0 0,4 -5,4 -4,0 -9,0 -11,0l0 -14 -5 0c0,0 0,-3 -1,-5 -1,-1 -4,-1 -4,-1l0 -11z"/>
  <path fill="#9D9E9E" d="M176 149l5 0 19 9c0,0 2,1 2,5 0,4 0,14 0,14 0,0 0,3 -5,3 -4,0 -9,0 -11,0l0 -14 -5 0c0,0 0,-3 -1,-4 -1,-2 -4,-2 -4,-2l0 -11z"/>
  <path fill="#9D9E9E" d="M176 362l5 0 19 9c0,0 2,1 2,5 0,4 0,14 0,14 0,0 0,4 -5,4 -4,0 -9,0 -11,0l0 -14 -5 0c0,0 0,-4 -1,-5 -1,-1 -4,-1 -4,-1l0 -12z"/>
  <path fill="#C5C6C6" d="M176 42l5 0 19 9c0,0 2,1 2,5l0 2c0,-1 -1,-4 -3,-4 -1,-2 -5,-3 -6,-3 -1,0 -5,-1 -7,-2 -1,0 -6,1 -10,1l0 -8z"/>
  <path fill="#C5C6C6" d="M176 256l5 0 19 8c0,1 2,1 2,6l0 1c0,-1 -1,-3 -3,-4 -1,-1 -5,-2 -6,-2 -1,-1 -5,-2 -7,-2 -1,-1 -6,0 -10,1l0 -8z"/>
  <path fill="#C5C6C6" d="M176 149l5 0 19 9c0,0 2,1 2,5l0 2c0,-2 -1,-4 -3,-5 -1,-1 -5,-2 -6,-2 -1,0 -5,-2 -7,-2 -1,0 -6,0 -10,1l0 -8z"/>
  <path fill="#C5C6C6" d="M176 362l5 0 19 9c0,0 2,1 2,5l0 2c0,-1 -1,-4 -3,-4 -1,-2 -5,-3 -6,-3 -1,0 -5,-1 -7,-2 -1,0 -6,1 -10,1l0 -8z"/>
  <path fill="#5B5B5B" d="M149 49l0 -6c0,0 1,-3 3,-3 2,0 20,0 20,0 0,0 2,0 3,3 0,3 0,6 0,6l-26 0z"/>
  <path fill="#5B5B5B" d="M149 263l0 -7c0,0 1,-3 3,-3 2,0 20,0 20,0 0,0 2,0 3,3 0,3 0,6 0,6l-26 1z"/>
  <path fill="#5B5B5B" d="M149 156l0 -7c0,0 1,-3 3,-3 2,0 20,0 20,0 0,0 2,0 3,3 0,4 0,6 0,6l-26 1z"/>
  <path fill="#5B5B5B" d="M149 369l0 -6c0,0 1,-3 3,-3 2,0 20,0 20,0 0,0 2,0 3,3 0,3 0,6 0,6l-26 0z"/>
  <polygon fill="#898989" points="149,64 146,67 146,76 149,80 144,77 144,67 "/>
  <polygon fill="#898989" points="149,278 146,281 146,290 149,293 144,290 144,281 "/>
  <polygon fill="#898989" points="149,171 146,174 146,183 149,187 144,184 144,174 "/>
  <polygon fill="#898989" points="149,384 146,387 146,396 149,400 144,397 144,387 "/>
  <path fill="#FEFEFE" d="M207 56c0,0 -1,0 -2,0 -1,0 -2,0 -2,0 0,0 0,-1 1,-1 1,0 1,0 2,0 0,0 1,1 1,1z"/>
  <path fill="#FEFEFE" d="M207 270c0,0 -1,-1 -2,-1 -1,0 -2,0 -2,0 0,0 0,0 1,-1 1,0 1,0 2,1 0,0 1,1 1,1z"/>
  <path fill="#FEFEFE" d="M207 163c0,0 -1,-1 -2,-1 -1,0 -2,0 -2,0 0,0 0,0 1,0 1,0 1,0 2,0 0,0 1,1 1,1z"/>
  <path fill="#FEFEFE" d="M207 376c0,0 -1,0 -2,0 -1,0 -2,0 -2,0 0,0 0,-1 1,-1 1,0 1,0 2,0 0,0 1,1 1,1z"/>
  <path fill="#C5C6C6" d="M125 52l0 -8c0,0 5,-2 7,-2l14 0 -9 6c0,0 -1,0 -2,0 -1,0 -4,1 -7,2 -3,0 -2,1 -3,2z"/>
  <path fill="#C5C6C6" d="M125 266l0 -8c0,0 5,-2 7,-2l14 0 -9 6c0,-1 -1,-1 -2,-1 -1,0 -4,1 -7,2 -3,1 -2,1 -3,3z"/>
  <path fill="#C5C6C6" d="M125 159l0 -8c0,0 5,-2 7,-2l14 0 -9 6c0,-1 -1,-1 -2,-1 -1,0 -4,2 -7,2 -3,1 -2,2 -3,3z"/>
  <path fill="#C5C6C6" d="M125 372l0 -8c0,0 5,-2 7,-2l14 0 -9 6c0,0 -1,0 -2,0 -1,0 -4,1 -7,2 -3,0 -2,1 -3,2z"/>
  <path fill="#898989" d="M125 76l0 -7c2,0 4,0 5,0 2,1 5,2 6,1 1,-2 1,-4 2,-6l0 14c-2,-1 -5,-2 -13,-2z"/>
  <path fill="#898989" d="M125 289l0 -7c2,0 4,1 5,1 2,0 5,2 6,0 1,-2 1,-4 2,-6l0 15c-2,-1 -5,-3 -13,-3z"/>
  <path fill="#898989" d="M125 182l0 -6c2,0 4,0 5,0 2,0 5,2 6,0 1,-2 1,-4 2,-6l0 15c-2,-1 -5,-3 -13,-3z"/>
  <path fill="#898989" d="M125 396l0 -7c2,0 4,0 5,0 2,1 5,2 6,1 1,-2 1,-4 2,-6l0 14c-2,-1 -5,-2 -13,-2z"/>
  <path fill="#898989" d="M202 68l0 2c0,0 0,4 -5,4 -4,0 -9,0 -11,0l0 -6c2,1 3,1 5,2 2,0 4,0 6,-1 2,0 4,-1 5,-1z"/>
  <path fill="#898989" d="M202 281l0 2c0,0 0,4 -5,4 -4,0 -9,0 -11,0l0 -6c2,1 3,2 5,2 2,1 4,0 6,-1 2,0 4,0 5,-1z"/>
  <path fill="#898989" d="M202 174l0 3c0,0 0,3 -5,3 -4,0 -9,0 -11,0l0 -6c2,1 3,2 5,2 2,1 4,0 6,0 2,-1 4,-1 5,-2z"/>
  <path fill="#898989" d="M202 388l0 2c0,0 0,4 -5,4 -4,0 -9,0 -11,0l0 -6c2,1 3,1 5,2 2,0 4,0 6,-1 2,0 4,-1 5,-1z"/>
  <path fill="#60605F" d="M146 60l0 0 15 0 0 8 4 3 0 12 -1 0c0,-2 0,-4 0,-5 0,-1 0,-4 0,-5 -1,-1 -2,-3 -2,-3 0,0 -2,-1 -2,-2 0,-1 0,-2 0,-5 -1,-2 -3,-2 -5,-2 -1,0 -4,1 -5,1 -1,0 -3,-1 -4,-2z"/>
  <path fill="#60605F" d="M146 273l0 0 15 0 0 9 4 2 0 13 -1 0c0,-2 0,-5 0,-6 0,-1 0,-3 0,-5 -1,-1 -2,-2 -2,-2 0,0 -2,-2 -2,-3 0,-1 0,-2 0,-5 -1,-2 -3,-1 -5,-1 -1,0 -4,0 -5,0 -1,0 -3,-1 -4,-2z"/>
  <path fill="#60605F" d="M146 167l0 0 15 0 0 8 4 2 0 13 -1 0c0,-2 0,-5 0,-5 0,-1 0,-4 0,-5 -1,-2 -2,-3 -2,-3 0,0 -2,-2 -2,-2 0,-1 0,-3 0,-5 -1,-3 -3,-2 -5,-2 -1,0 -4,1 -5,1 -1,0 -3,-1 -4,-2z"/>
  <path fill="#60605F" d="M146 380l0 0 15 0 0 8 4 3 0 12 -1 0c0,-2 0,-4 0,-5 0,-1 0,-4 0,-5 -1,-1 -2,-3 -2,-3 0,0 -2,-1 -2,-2 0,-1 0,-2 0,-5 -1,-2 -3,-2 -5,-2 -1,0 -4,1 -5,1 -1,0 -3,-1 -4,-2z"/>
  <path fill="#898989" d="M141 78l0 -13 5 -5 0 0c0,1 0,2 0,2 -1,1 -3,2 -3,2 0,1 -1,1 -1,1 0,0 -1,2 -1,3 1,2 1,5 1,6 0,0 -1,3 0,3 0,1 2,4 4,4 1,1 8,0 9,0 1,0 5,-1 7,0 1,0 2,0 3,0l0 2c-5,0 -15,1 -20,1 -3,-1 -4,-6 -4,-6z"/>
  <path fill="#898989" d="M141 291l0 -13 5 -5 0 0c0,1 0,2 0,3 -1,0 -3,1 -3,2 0,0 -1,1 -1,1 0,0 -1,2 -1,3 1,1 1,4 1,5 0,0 -1,3 0,4 0,0 2,3 4,4 1,0 8,-1 9,-1 1,0 5,0 7,0 1,0 2,1 3,1l0 2c-5,0 -15,0 -20,0 -3,0 -4,-6 -4,-6z"/>
  <path fill="#898989" d="M141 184l0 -12 5 -5 0 0c0,1 0,2 0,2 -1,0 -3,2 -3,2 0,1 -1,1 -1,1 0,0 -1,2 -1,3 1,1 1,5 1,5 0,1 -1,4 0,4 0,0 2,4 4,4 1,0 8,0 9,0 1,-1 5,-1 7,-1 1,1 2,1 3,1l0 2c-5,0 -15,0 -20,0 -3,0 -4,-6 -4,-6z"/>
  <path fill="#898989" d="M141 398l0 -13 5 -5 0 0c0,1 0,2 0,2 -1,1 -3,2 -3,2 0,1 -1,1 -1,1 0,0 -1,2 -1,3 1,2 1,5 1,6 0,0 -1,3 0,3 0,1 2,4 4,4 1,1 8,0 9,0 1,0 5,-1 7,0 1,0 2,0 3,0l0 2c-5,0 -15,1 -20,1 -3,-1 -4,-6 -4,-6z"/>
  <path fill="#B2B3B3" d="M144 70l0 -3 5 -3c-2,2 -4,4 -4,4 -1,1 -1,1 -1,2z"/>
  <path fill="#B2B3B3" d="M144 283l0 -2 5 -3c-2,1 -4,3 -4,4 -1,0 -1,1 -1,1z"/>
  <path fill="#B2B3B3" d="M144 177l0 -3 5 -3c-2,1 -4,3 -4,4 -1,0 -1,1 -1,2z"/>
  <path fill="#B2B3B3" d="M144 390l0 -3 5 -3c-2,2 -4,4 -4,4 -1,1 -1,1 -1,2z"/>
  <path fill="#4F4F4E" d="M146 67l0 9 3 4 -3 -2c0,-1 -1,-1 -1,-3 0,-2 1,-7 1,-8z"/>
  <path fill="#4F4F4E" d="M146 280l0 10 3 3 -3 -1c0,-1 -1,-1 -1,-3 0,-3 1,-8 1,-9z"/>
  <path fill="#4F4F4E" d="M146 174l0 9 3 4 -3 -2c0,-1 -1,-1 -1,-3 0,-2 1,-7 1,-8z"/>
  <path fill="#4F4F4E" d="M146 387l0 9 3 4 -3 -2c0,-1 -1,-1 -1,-3 0,-2 1,-7 1,-8z"/>
  <path fill="#646464" d="M149 49l0 0c2,-1 4,-1 5,-1 2,-1 6,-2 9,-2 3,0 9,2 10,2 0,0 1,0 2,0l0 2 -9 -1 -9 1 -8 -1z"/>
  <path fill="#646464" d="M149 263l0 -1c2,0 4,0 5,-1 2,0 6,-2 9,-1 3,0 9,1 10,1 0,0 1,0 2,0l0 2 -9 -1 -9 1 -8 0z"/>
  <path fill="#646464" d="M149 156l0 -1c2,0 4,0 5,0 2,-1 6,-2 9,-2 3,0 9,2 10,2 0,0 1,0 2,0l0 2 -9 -2 -9 2 -8 -1z"/>
  <path fill="#646464" d="M149 369l0 0c2,-1 4,-1 5,-1 2,-1 6,-2 9,-2 3,0 9,2 10,2 0,0 1,0 2,0l0 2 -9 -1 -9 1 -8 -1z"/>
  <path fill="#8D8D8D" d="M149 45l0 -2c0,0 1,-3 3,-3 2,0 20,0 20,0 0,0 2,0 3,3l0 1c-1,-1 -2,-2 -3,-2 -2,-2 -11,0 -12,-1 -2,0 -7,1 -8,2 -1,0 -2,1 -3,2z"/>
  <path fill="#8D8D8D" d="M149 258l0 -2c0,0 1,-3 3,-3 2,0 20,0 20,0 0,0 2,0 3,3l0 1c-1,0 -2,-1 -3,-2 -2,-1 -11,0 -12,0 -2,-1 -7,1 -8,1 -1,0 -2,2 -3,2z"/>
  <path fill="#8D8D8D" d="M149 152l0 -3c0,0 1,-3 3,-3 2,0 20,0 20,0 0,0 2,0 3,3l0 1c-1,0 -2,-1 -3,-2 -2,-1 -11,0 -12,0 -2,0 -7,1 -8,1 -1,1 -2,2 -3,3z"/>
  <path fill="#8D8D8D" d="M149 365l0 -2c0,0 1,-3 3,-3 2,0 20,0 20,0 0,0 2,0 3,3l0 1c-1,-1 -2,-2 -3,-2 -2,-2 -11,0 -12,-1 -2,0 -7,1 -8,2 -1,0 -2,1 -3,2z"/>
  <path fill="#EBECEC" d="M150 43c0,0 3,-2 4,-2 1,0 6,0 6,0 0,0 -5,-1 -7,-1 -3,1 -3,3 -3,3z"/>
  <path fill="#EBECEC" d="M150 256c0,0 3,-1 4,-1 1,0 6,-1 6,-1 0,0 -5,-1 -7,0 -3,0 -3,2 -3,2z"/>
  <path fill="#EBECEC" d="M150 149c0,0 3,-1 4,-1 1,0 6,-1 6,-1 0,0 -5,0 -7,0 -3,0 -3,2 -3,2z"/>
  <path fill="#EBECEC" d="M150 363c0,0 3,-2 4,-2 1,0 6,0 6,0 0,0 -5,-1 -7,-1 -3,1 -3,3 -3,3z"/>
 </g>
 <g id="FrontHand">
  <g>
   <path fill="none" stroke="#9E0A63" stroke-width="6.66535" d="M199 54c0,-3 -2,-6 -6,-6 -3,0 -6,3 -6,6 0,4 3,6 6,6 4,0 6,-2 6,-6z"/>
   <path id="1" fill="#F49EE9" d="M199 54c0,-3 -2,-6 -6,-6 -3,0 -6,3 -6,6 0,4 3,6 6,6 4,0 6,-2 6,-6z"/>
  </g>
  <g>
   <path fill="none" stroke="#9E0A63" stroke-width="6.66535" d="M199 161c0,-3 -2,-6 -6,-6 -3,0 -6,3 -6,6 0,3 3,6 6,6 4,0 6,-3 6,-6z"/>
   <path id="1" fill="#F49EE9" d="M199 161c0,-3 -2,-6 -6,-6 -3,0 -6,3 -6,6 0,3 3,6 6,6 4,0 6,-3 6,-6z"/>
  </g>
  <g>
   <path fill="none" stroke="#9E0A63" stroke-width="6.66535" d="M199 374c0,-3 -2,-6 -6,-6 -3,0 -6,3 -6,6 0,4 3,6 6,6 4,0 6,-2 6,-6z"/>
   <path id="1" fill="#F49EE9" d="M199 374c0,-3 -2,-6 -6,-6 -3,0 -6,3 -6,6 0,4 3,6 6,6 4,0 6,-2 6,-6z"/>
  </g>
  <g>
   <path fill="none" stroke="#9E0A63" stroke-width="6.66535" d="M199 268c0,-4 -2,-6 -6,-6 -3,0 -6,2 -6,6 0,3 3,6 6,6 4,0 6,-3 6,-6z"/>
   <path id="1" fill="#F49EE9" d="M199 268c0,-4 -2,-6 -6,-6 -3,0 -6,2 -6,6 0,3 3,6 6,6 4,0 6,-3 6,-6z"/>
  </g>
  <path fill="#FFBFFF" d="M193 51c0,0 1,2 2,2 1,1 3,3 3,3 0,0 0,-3 -1,-4 -1,-1 -3,-2 -4,-1z"/>
  <path fill="#FFBFFF" d="M193 158c0,0 1,1 2,2 1,1 3,2 3,2 0,0 0,-3 -1,-4 -1,-1 -3,-1 -4,0z"/>
  <path fill="#FFBFFF" d="M193 371c0,0 1,2 2,2 1,1 3,3 3,3 0,0 0,-3 -1,-4 -1,-1 -3,-2 -4,-1z"/>
  <path fill="#FFBFFF" d="M193 265c0,0 1,1 2,2 1,0 3,2 3,2 0,0 0,-3 -1,-4 -1,-1 -3,-1 -4,0z"/>
  <path fill="#F277E3" d="M193 59c-3,0 -6,-3 -5,-6 1,-1 1,-1 1,-1 0,0 0,3 1,4 1,1 5,3 7,2 -2,1 -3,1 -4,1z"/>
  <path fill="#F277E3" d="M193 166c-3,0 -6,-4 -5,-6 1,-1 1,-2 1,-2 0,0 0,4 1,5 1,0 5,2 7,2 -2,1 -3,1 -4,1z"/>
  <path fill="#F277E3" d="M193 379c-3,0 -6,-3 -5,-6 1,-1 1,-1 1,-1 0,0 0,3 1,4 1,1 5,3 7,2 -2,1 -3,1 -4,1z"/>
  <path fill="#F277E3" d="M193 273c-3,0 -6,-4 -5,-7 1,-1 1,-1 1,-1 0,0 0,3 1,4 1,1 5,3 7,2 -2,2 -3,1 -4,2z"/>
 </g>
 <g id="Fire">
  <path fill="#EB8F4D" d="M37 254c-8,0 -6,-3 -20,2 -4,1 -6,3 -15,8 6,8 18,10 21,14 4,3 3,8 10,6 -1,-4 -1,-10 0,-16 1,-5 -1,-11 4,-14z"/>
  <path fill="#EB8F4D" d="M37 360c-8,0 -8,-2 -17,4 -3,2 -8,2 -18,4 3,3 5,8 8,9 6,3 9,3 12,6 3,3 1,6 11,8 -1,-4 -1,-10 0,-16 1,-5 -1,-11 4,-15z"/>
  <path fill="#FFC703" d="M34 256c0,0 -1,0 -6,2 -4,2 -7,3 -9,3 -2,0 -9,1 -10,3 2,2 7,4 9,4 2,1 6,2 9,4 4,2 3,6 5,6 1,0 2,-22 2,-22z"/>
  <path fill="#FFC703" d="M33 363c0,0 -1,2 -5,1 -4,-1 -8,5 -10,5 -2,0 -10,-1 -11,2 2,2 7,5 10,5 2,1 6,2 9,4 4,2 5,6 6,6 1,-3 1,-23 1,-23z"/>
  <path fill="#F6FF00" d="M33 257c-1,-1 -1,0 -5,1l-4 2c1,1 3,2 4,5 0,2 -3,3 -5,5l4 2c3,1 3,4 5,6 0,-4 1,-7 1,-10 0,-3 1,-8 0,-11z"/>
  <path fill="#F6FF00" d="M33 363c-1,0 -6,0 -8,2l-4 2c2,1 6,2 7,4 0,2 -5,4 -7,6l6 3c2,2 3,4 5,6 1,-4 1,-9 1,-11 0,-3 1,-9 0,-12z"/>
  <path fill="#EB8F4D" d="M43 256c0,0 2,1 -1,3 -3,2 -2,2 -3,2 -1,0 -1,2 -1,2 0,1 2,1 1,2 0,1 2,2 3,2 0,1 -1,2 -1,2 -1,0 -1,1 -3,1 -1,0 -1,3 -1,4 0,0 2,-2 3,-1 0,1 1,2 2,2 0,0 1,1 1,1 -1,1 -6,2 -6,2 0,1 2,1 2,2 0,2 0,2 2,2 2,1 4,1 5,0 2,0 2,0 3,0 2,0 3,0 4,-1 1,-2 3,-5 2,-5 -2,1 -3,0 -3,0 0,0 -2,-1 -2,-1 0,0 1,-1 2,-2 1,0 2,-1 2,-1 0,-1 2,-5 1,-4 -2,1 -4,-1 -3,-1 0,-1 1,-2 3,-3 1,0 -1,-3 0,-4 1,-1 3,-1 2,-1 -1,0 -6,0 -7,-1 -1,-1 -7,-2 -7,-2z"/>
  <path fill="#EB8F4D" d="M45 360c0,0 -1,1 -3,4 -2,2 -5,2 -6,3 2,1 4,1 3,2 0,1 2,1 1,2 -1,1 -2,3 -1,3 0,0 1,1 -1,3 -1,1 -1,0 -2,0 1,3 1,4 1,4 1,1 3,-1 4,-1 0,0 0,3 -1,3 0,0 -2,2 -2,3 0,1 3,-1 2,1 0,2 1,3 0,4 0,1 6,1 8,1 1,0 3,-1 4,1 0,1 1,-3 2,-5 0,-1 -2,-2 -1,-2 0,-1 3,-4 2,-3 -2,1 -2,-1 -2,-1 0,0 0,-1 -1,-1 0,0 -1,0 0,-1 1,0 2,-1 2,-2 0,0 2,-2 1,-3 -1,1 -1,-1 -1,-2 0,-1 0,-4 1,-3 1,1 1,-1 -1,-3 0,-1 -2,-3 -1,-3 2,0 2,-3 1,-2 -1,1 -6,2 -7,1 -3,0 -2,-3 -2,-3z"/>
  <path fill="#FFC703" d="M43 260c4,0 2,-3 3,-2 2,0 2,2 4,2 1,-1 3,-1 4,0 1,0 0,1 0,2l1 1c0,1 -2,2 -3,2 -1,0 -1,3 0,4 0,0 1,0 1,0 1,3 -3,3 -5,6 0,0 -3,1 -3,0 0,-1 -2,-1 -2,-1 0,-2 -3,-2 -3,-2 -2,-2 3,-2 3,-5 0,-1 -2,-2 -3,-3l0 0c-1,-1 2,-3 3,-4z"/>
  <path fill="#FFC703" d="M42 365c1,0 2,-4 2,-3 1,1 2,2 3,2 1,1 3,1 5,0 1,-1 1,2 1,3 1,1 2,2 1,2l-1 0c-1,-1 -2,-1 -3,0 0,1 2,1 3,2 0,1 0,4 0,4 -1,1 1,1 1,2 0,0 -2,0 -2,1 -1,0 -5,2 -5,1 1,-1 -2,0 -2,-1 -1,-1 -4,1 -5,0 -1,-2 1,-3 1,-4 0,-2 0,-4 2,-4l-1 -1c0,-1 -3,-2 -3,-2 2,-1 2,-2 3,-2z"/>
  <rect fill="#F6FF00" x="41" y="261" width="11.1392" height="2.52872" rx="5" ry="3"/>
  <rect fill="#F6FF00" x="41" y="365" width="11.1392" height="1.87881" rx="5" ry="3"/>
  <rect fill="#F6FF00" x="41" y="371" width="11.1392" height="2.63507" rx="5" ry="4"/>
  <path fill="#F6FF00" d="M43 270l8 0c1,0 2,0 1,1l-1 0c-1,1 -3,1 -4,1l-3 0 -1 0c-1,0 -2,0 -2,-1l0 0c0,-1 1,-1 2,-1z"/>
  <rect fill="#FFC703" x="41" y="278" width="11.1392" height="2.65676" rx="5" ry="4"/>
  <rect fill="#FFC703" x="42" y="388" width="11.1392" height="1.91286" rx="5" ry="3"/>
  <rect fill="#FFC703" x="41" y="381" width="11.1392" height="2.87323" rx="5" ry="4"/>
 </g>
</svg>
