<?xml version="1.0" encoding="UTF-8" standalone="no"?>
<!-- Created with Inkscape (http://www.inkscape.org/) -->
<svg
   xmlns:dc="http://purl.org/dc/elements/1.1/"
   xmlns:cc="http://creativecommons.org/ns#"
   xmlns:rdf="http://www.w3.org/1999/02/22-rdf-syntax-ns#"
   xmlns:svg="http://www.w3.org/2000/svg"
   xmlns="http://www.w3.org/2000/svg"
   xmlns:sodipodi="http://sodipodi.sourceforge.net/DTD/sodipodi-0.dtd"
   xmlns:inkscape="http://www.inkscape.org/namespaces/inkscape"
   id="svg2"
   sodipodi:version="0.32"
   inkscape:version="0.46"
   width="128"
   height="32"
   version="1.0"
   sodipodi:docname="Border.svg"
   inkscape:output_extension="org.inkscape.output.svg.inkscape"
   inkscape:export-filename="/usr/share/games/hedgewars/Data/Themes/Olympics/Border.png"
   inkscape:export-xdpi="90"
   inkscape:export-ydpi="90">
  <metadata
     id="metadata7">
    <rdf:RDF>
      <cc:Work
         rdf:about="">
        <dc:format>image/svg+xml</dc:format>
        <dc:type
           rdf:resource="http://purl.org/dc/dcmitype/StillImage" />
      </cc:Work>
    </rdf:RDF>
  </metadata>
  <defs
     id="defs5">
    <inkscape:perspective
       sodipodi:type="inkscape:persp3d"
       inkscape:vp_x="0 : 526.18109 : 1"
       inkscape:vp_y="0 : 1000 : 0"
       inkscape:vp_z="744.09448 : 526.18109 : 1"
       inkscape:persp3d-origin="372.04724 : 350.78739 : 1"
       id="perspective9" />
  </defs>
  <sodipodi:namedview
     inkscape:window-height="825"
     inkscape:window-width="1440"
     inkscape:pageshadow="2"
     inkscape:pageopacity="0.0"
     guidetolerance="10.0"
     gridtolerance="10.0"
     objecttolerance="10.0"
     borderopacity="1.0"
     bordercolor="#666666"
     pagecolor="#ffffff"
     id="base"
     showgrid="false"
     inkscape:zoom="6.1540387"
     inkscape:cx="63.785203"
     inkscape:cy="10.342887"
     inkscape:window-x="0"
     inkscape:window-y="25"
     inkscape:current-layer="layer2" />
  <g
     inkscape:groupmode="layer"
     id="layer2"
     inkscape:label="main">
    <path
       style="fill:#ccc8a8;fill-opacity:1;fill-rule:evenodd;stroke:none;stroke-width:2;stroke-linecap:butt;stroke-linejoin:miter;marker:none;marker-start:none;marker-mid:none;marker-end:none;stroke-miterlimit:4;stroke-dashoffset:0;stroke-opacity:1;visibility:visible;display:inline;overflow:visible;enable-background:accumulate"
       d="M -2.59375,-1.96875 C -2.59375,-1.96875 -3.7460784,4.1342238 -2.59375,6.5 C -1.4414216,8.8657761 1.5584341,11.901014 4.5625,12.09375 C 7.5665658,12.286486 10.837582,4.0363139 13.875,4.0625 C 16.912418,4.0886863 18.928062,11.200773 21.875,11.375 C 24.821937,11.549227 28.399078,6.9222753 31.3125,6.96875 C 34.225922,7.0152249 37.85079,11.035782 41.21875,10.9375 C 44.586709,10.839219 44.047277,4.2333587 47.3125,4.28125 C 50.57772,4.3291416 55.852262,9.8771199 58.1875,9.9375 C 60.522739,9.99788 61.46392,7.8985345 64.3125,8.0625 C 67.161075,8.2264652 70.453946,10.710593 73.5625,10.53125 C 76.671055,10.351907 77.4329,3.0705724 80,2.5625 C 82.567104,2.0544274 88.175909,9.3244251 91.1875,9.0625 C 94.199093,8.8005746 95.328865,5.2437183 98.84375,5.71875 C 102.35863,6.1937815 102.50329,10.095946 105.93129,9.9063008 C 109.35928,9.7166558 108.63365,4.9181377 111.68758,4.4624542 C 114.74151,4.0067709 115.26237,5.5365773 117.90951,6.0203882 C 120.01052,6.6249959 122.26856,2.9387625 124.0016,3.5672695 C 124.77127,3.8744963 125.36087,6.4068273 125.40625,6.5 C 126.55858,8.8657761 129.55844,11.901014 132.5625,12.09375 C 135.19106,12.262394 138.01676,5.9652068 140.71875,4.40625 L 140.71875,-1.96875 L -2.59375,-1.96875 z"
       id="rect2389"
       sodipodi:nodetypes="csssssssssssssssccssccc" />
    <path
       sodipodi:nodetypes="csssssssssssssssccssccc"
       id="path2418"
       d="M 140.2066,33.708898 C 140.2066,33.708898 141.35893,27.605924 140.2066,25.240148 C 139.05428,22.874371 136.05442,19.839134 133.05035,19.646398 C 130.04629,19.453662 126.77527,27.703834 123.73785,27.677648 C 120.70044,27.651461 118.68479,20.539375 115.73785,20.365148 C 112.79092,20.190921 109.21378,24.817872 106.30035,24.771398 C 103.38693,24.724923 99.762064,20.704366 96.394104,20.802648 C 93.026145,20.900929 93.565577,27.506789 90.300354,27.458898 C 87.035134,27.411006 81.760592,21.863028 79.425354,21.802648 C 77.090115,21.742268 76.148934,23.841613 73.300354,23.677648 C 70.451779,23.513682 67.158908,21.029555 64.050354,21.208898 C 60.941799,21.388241 60.179954,28.669575 57.612854,29.177648 C 55.04575,29.68572 49.436945,22.415722 46.425354,22.677648 C 43.413761,22.939573 42.283989,26.496429 38.769104,26.021398 C 35.254224,25.546366 35.109564,21.644202 31.681564,21.833847 C 28.253574,22.023492 28.979204,26.82201 25.925274,27.277693 C 22.871344,27.733377 22.350484,26.20357 19.703344,25.719759 C 17.602334,25.115152 15.344294,28.801385 13.611254,28.172878 C 12.841584,27.865651 12.251984,25.33332 12.206604,25.240148 C 11.054274,22.874371 8.054414,19.839134 5.050354,19.646398 C 2.421794,19.477754 -0.40390596,25.774941 -3.105896,27.333898 L -3.105896,33.708898 L 140.2066,33.708898 z"
       style="fill:#79744b;fill-opacity:1;fill-rule:evenodd;stroke:none;stroke-width:2;stroke-linecap:butt;stroke-linejoin:miter;marker:none;marker-start:none;marker-mid:none;marker-end:none;stroke-miterlimit:4;stroke-dashoffset:0;stroke-opacity:1;visibility:visible;display:inline;overflow:visible;enable-background:accumulate" />
  </g>
</svg>
