<?xml version="1.0" encoding="UTF-8" standalone="no"?>
<!-- Created with Inkscape (http://www.inkscape.org/) -->
<svg
   xmlns:dc="http://purl.org/dc/elements/1.1/"
   xmlns:cc="http://creativecommons.org/ns#"
   xmlns:rdf="http://www.w3.org/1999/02/22-rdf-syntax-ns#"
   xmlns:svg="http://www.w3.org/2000/svg"
   xmlns="http://www.w3.org/2000/svg"
   xmlns:sodipodi="http://sodipodi.sourceforge.net/DTD/sodipodi-0.dtd"
   xmlns:inkscape="http://www.inkscape.org/namespaces/inkscape"
   id="svg3962"
   sodipodi:version="0.32"
   inkscape:version="0.46"
   width="110"
   height="260"
   version="1.0"
   sodipodi:docname="Column01.svg"
   inkscape:output_extension="org.inkscape.output.svg.inkscape"
   inkscape:export-filename="/usr/share/games/hedgewars/Data/Themes/Olympics/Column01.png"
   inkscape:export-xdpi="90"
   inkscape:export-ydpi="90">
  <metadata
     id="metadata3967">
    <rdf:RDF>
      <cc:Work
         rdf:about="">
        <dc:format>image/svg+xml</dc:format>
        <dc:type
           rdf:resource="http://purl.org/dc/dcmitype/StillImage" />
      </cc:Work>
    </rdf:RDF>
  </metadata>
  <defs
     id="defs3965">
    <inkscape:perspective
       sodipodi:type="inkscape:persp3d"
       inkscape:vp_x="0 : 526.18109 : 1"
       inkscape:vp_y="0 : 1000 : 0"
       inkscape:vp_z="744.09448 : 526.18109 : 1"
       inkscape:persp3d-origin="372.04724 : 350.78739 : 1"
       id="perspective3969" />
    <inkscape:perspective
       id="perspective4637"
       inkscape:persp3d-origin="372.04724 : 350.78739 : 1"
       inkscape:vp_z="744.09448 : 526.18109 : 1"
       inkscape:vp_y="0 : 1000 : 0"
       inkscape:vp_x="0 : 526.18109 : 1"
       sodipodi:type="inkscape:persp3d" />
  </defs>
  <sodipodi:namedview
     inkscape:window-height="825"
     inkscape:window-width="1440"
     inkscape:pageshadow="2"
     inkscape:pageopacity="0.0"
     guidetolerance="10.0"
     gridtolerance="10.0"
     objecttolerance="10.0"
     borderopacity="1.0"
     bordercolor="#666666"
     pagecolor="#ffffff"
     id="base"
     showgrid="false"
     inkscape:zoom="0.9447917"
     inkscape:cx="-268.15636"
     inkscape:cy="113.55071"
     inkscape:window-x="0"
     inkscape:window-y="25"
     inkscape:current-layer="layer4"
     showguides="true"
     inkscape:guide-bbox="true"
     borderlayer="true">
    <sodipodi:guide
       orientation="1,0"
       position="21.049485,-13.845883"
       id="guide2451" />
    <sodipodi:guide
       orientation="1,0"
       position="101.03753,-8.4197938"
       id="guide2453" />
    <sodipodi:guide
       orientation="0,1"
       position="10.103753,2.0581718"
       id="guide2455" />
    <sodipodi:guide
       orientation="0,1"
       position="-6.6152148,12.171995"
       id="guide2461" />
  </sodipodi:namedview>
  <g
     inkscape:groupmode="layer"
     id="layer3"
     inkscape:label="tmp"
     style="display:inline" />
  <g
     inkscape:groupmode="layer"
     id="layer4"
     inkscape:label="main"
     style="opacity:1;display:inline">
    <g
       id="g2415"
       transform="translate(1.7727234,0)">
      <path
         sodipodi:nodetypes="ccccccccccccccsccccccsccccccccccccccc"
         id="path2394"
         d="M 3.0047532,8.6481021 C 4.5509132,10.514036 5.9964462,12.619852 7.8594582,13.80456 L 11.72583,13.546127 L 12.013441,17.849025 L 11.296292,17.89696 C 12.350745,20.821989 13.772167,24.244958 17.45706,26.661848 L 21.479335,26.392994 L 22.098325,35.65358 L 17.265359,35.976622 C 17.94379,38.819278 19.303407,40.830242 20.900104,42.561372 L 21.118367,42.546783 C 25.744256,104.41769 29.264415,166.3625 28.947978,228.56376 L 25.39341,228.80135 L 25.685189,233.16661 C 21.890067,234.2966 19.276347,237.55881 19.521108,241.22064 C 19.595344,242.33126 20.211957,244.87136 20.746158,245.79562 L 18.843878,245.72387 L 20.355816,264.28708 L 103.5688,259.77461 L 102.23293,238.82405 L 100.67391,238.92826 C 101.08035,237.94112 101.28806,236.87082 101.21382,235.7602 C 100.96906,232.09837 97.913245,229.21512 94.001495,228.60026 L 93.709715,224.235 L 90.155145,224.47259 C 82.294645,162.81789 77.501555,100.95817 73.595015,39.039177 L 73.844465,39.022504 C 75.851645,36.457386 75.905125,34.482464 76.102815,32.043851 L 71.269855,32.366893 L 70.650865,23.106307 L 73.613005,22.908314 C 77.133515,20.763876 79.260005,16.528978 79.612595,13.330612 L 78.895445,13.378547 L 78.607835,9.0756486 L 83.128995,8.7734484 C 84.798315,7.2746176 85.766415,5.1976642 86.630645,3.0584409 L 3.0047532,8.6481021 z"
         style="fill:#e4e0d9;fill-opacity:1;fill-rule:evenodd;stroke:none;stroke-width:1;stroke-linecap:round;stroke-linejoin:miter;marker:none;marker-start:none;marker-mid:none;marker-end:none;stroke-miterlimit:4;stroke-dashoffset:0;stroke-opacity:1;visibility:visible;overflow:visible;enable-background:accumulate" />
      <path
         sodipodi:nodetypes="ccccccsccccccccccscccccccccc"
         id="rect3209"
         d="M 21.303284,42.033307 L 22.935495,44.429787 L 29.275621,44.632399 C 30.286057,43.681564 32.583578,43.29016 34.580545,44.810247 L 35.773735,44.855771 C 36.000745,44.462191 39.585635,41.757503 43.307055,45.103908 C 44.117985,44.656672 45.310375,42.250384 49.156225,43.115636 C 50.830605,43.492345 51.937285,44.89414 52.073335,46.929578 L 64.321725,222.20992 C 64.361415,224.22247 59.317415,225.82058 56.704475,224.17765 L 56.513475,226.28277 L 88.411045,224.1507 C 80.563365,162.51272 74.816485,100.84548 71.628485,38.669507 C 55.159775,40.143564 39.937795,43.053297 21.303284,42.033307 z M 65.841875,44.308027 C 66.960245,44.233273 66.482555,43.68171 66.599165,45.426218 L 81.481925,219.82193 C 81.598545,221.56645 78.925655,222.87421 77.807295,222.94896 C 76.688915,223.02371 79.553045,221.42128 79.436435,219.67677 L 65.287495,45.482572 C 65.250315,44.926151 65.508745,44.441523 65.841875,44.308027 z M 58.748415,44.654472 C 59.952085,44.574017 59.632395,43.784714 59.768445,45.820152 L 73.227365,220.02916 C 73.363415,222.06459 70.227745,223.35435 68.100975,223.59774 C 69.216195,222.54618 70.089175,221.86054 69.953125,219.8251 L 57.769095,47.841712 C 57.633045,45.806274 57.764905,44.770828 58.748415,44.654472 z"
         style="fill:#d4cdc3;fill-opacity:1;fill-rule:evenodd;stroke:none;stroke-width:2;stroke-linecap:butt;stroke-linejoin:miter;marker:none;marker-start:none;marker-mid:none;marker-end:none;stroke-miterlimit:4;stroke-dashoffset:0;stroke-opacity:1;visibility:visible;display:inline;overflow:visible;enable-background:accumulate" />
      <path
         sodipodi:nodetypes="ccccsc"
         id="path3220"
         d="M 33.566185,45.186585 C 30.328947,43.844921 28.974559,46.009146 28.906382,47.964904 L 37.636595,221.93636 C 37.753205,223.68087 38.614075,224.10209 40.020555,224.33958 C 36.952795,171.30419 31.158972,74.370672 30.524096,50.006859 C 30.437876,46.698265 32.051431,45.716934 33.566185,45.186585 z"
         style="fill:#d4cdc3;fill-opacity:1;fill-rule:evenodd;stroke:none;stroke-width:2;stroke-linecap:butt;stroke-linejoin:miter;marker:none;marker-start:none;marker-mid:none;marker-end:none;stroke-miterlimit:4;stroke-dasharray:none;stroke-dashoffset:0;stroke-opacity:1;visibility:visible;display:inline;overflow:visible;enable-background:accumulate" />
      <path
         sodipodi:nodetypes="ccccsc"
         id="path3237"
         d="M 49.873805,44.162862 C 45.250285,41.919363 44.210735,45.322239 44.142565,47.277998 L 55.345925,222.04549 C 55.765575,223.51247 58.657085,224.01427 60.053215,223.99506 C 56.985455,170.95968 47.497375,73.311743 46.862495,48.94793 C 46.776275,45.639336 48.359055,44.693212 49.873805,44.162862 z"
         style="fill:#d4cdc3;fill-opacity:1;fill-rule:evenodd;stroke:none;stroke-width:2;stroke-linecap:butt;stroke-linejoin:miter;marker:none;marker-start:none;marker-mid:none;marker-end:none;stroke-miterlimit:4;stroke-dasharray:none;stroke-dashoffset:0;stroke-opacity:1;visibility:visible;display:inline;overflow:visible;enable-background:accumulate" />
      <path
         style="fill:#d4cdc3;fill-opacity:1;fill-rule:evenodd;stroke:none;stroke-width:2;stroke-linecap:butt;stroke-linejoin:miter;marker:none;marker-start:none;marker-mid:none;marker-end:none;stroke-miterlimit:4;stroke-dasharray:none;stroke-dashoffset:0;stroke-opacity:1;visibility:visible;display:inline;overflow:visible;enable-background:accumulate"
         d="M 41.979695,45.088314 C 37.356175,42.844814 36.248335,45.721858 36.180155,47.677616 L 46.056715,221.9371 C 46.476365,223.40408 47.986175,224.06453 49.382305,224.04532 C 46.314545,171.00994 39.220385,73.964437 38.585515,49.600624 C 38.499295,46.29203 40.464935,45.618663 41.979695,45.088314 z"
         id="path3234"
         sodipodi:nodetypes="ccccsc" />
      <path
         sodipodi:nodetypes="ccsccsc"
         id="path3269"
         d="M 21.477626,48.282543 C 22.785673,49.328342 29.665093,220.84203 29.075417,223.00073 C 29.192022,224.74524 31.204484,225.88077 33.12006,225.75273 C 35.035625,225.6247 37.277345,224.06417 37.160735,222.31966 L 28.393055,47.820307 C 28.27645,46.075799 26.640427,44.774455 24.724861,44.902494 C 22.809286,45.030533 21.361021,46.538035 21.477626,48.282543 z"
         style="fill:#ede9e4;fill-opacity:1;fill-rule:evenodd;stroke:none;stroke-width:2;stroke-linecap:butt;stroke-linejoin:miter;marker:none;marker-start:none;marker-mid:none;marker-end:none;stroke-miterlimit:4;stroke-dasharray:none;stroke-dashoffset:0;stroke-opacity:1;visibility:visible;display:inline;overflow:visible;enable-background:accumulate" />
      <path
         style="fill:#ede9e4;fill-opacity:1;fill-rule:evenodd;stroke:none;stroke-width:2;stroke-linecap:butt;stroke-linejoin:miter;marker:none;marker-start:none;marker-mid:none;marker-end:none;stroke-miterlimit:4;stroke-dasharray:none;stroke-dashoffset:0;stroke-opacity:1;visibility:visible;display:inline;overflow:visible;enable-background:accumulate"
         d="M 53.661425,221.57845 L 43.118845,47.396637 C 42.827225,43.641113 40.824485,47.251635 40.835625,50.913308 C 43.809675,106.63626 48.951705,167.62805 50.972045,224.23407 C 51.858005,224.17296 53.778035,223.32295 53.661425,221.57845 z"
         id="path3273"
         sodipodi:nodetypes="ccccc" />
      <path
         sodipodi:nodetypes="ccccc"
         id="path3263"
         d="M 45.476825,222.12552 L 34.392965,47.780987 C 34.101335,44.025463 32.63988,47.798704 32.65102,51.460378 C 34.595465,107.64995 40.727565,168.57556 41.154965,225.15546 C 42.040935,225.09434 45.593425,223.87002 45.476825,222.12552 z"
         style="fill:#ede9e4;fill-opacity:1;fill-rule:evenodd;stroke:none;stroke-width:2;stroke-linecap:butt;stroke-linejoin:miter;marker:none;marker-start:none;marker-mid:none;marker-end:none;stroke-miterlimit:4;stroke-dasharray:none;stroke-dashoffset:0;stroke-opacity:1;visibility:visible;display:inline;overflow:visible;enable-background:accumulate" />
      <g
         transform="matrix(1.0344994,-8.2813843e-2,7.9796823e-2,0.9968112,-72.134905,77.524817)"
         id="g3287">
        <path
           style="opacity:1;fill:none;fill-opacity:1;fill-rule:evenodd;stroke:#e4e0d9;stroke-width:0.9816153;stroke-linecap:butt;stroke-linejoin:miter;marker:none;marker-start:none;marker-mid:none;marker-end:none;stroke-miterlimit:4;stroke-dasharray:none;stroke-dashoffset:0;stroke-opacity:1;visibility:visible;display:inline;overflow:visible;enable-background:accumulate"
           d="M 89.594087,94.355019 L 142.51581,94.355019"
           id="path3289" />
        <path
           style="opacity:1;fill:#ede9e4;fill-opacity:1;fill-rule:evenodd;stroke:#d4cdc3;stroke-width:0.9816153;stroke-linecap:butt;stroke-linejoin:miter;marker:none;marker-start:none;marker-mid:none;marker-end:none;stroke-miterlimit:4;stroke-dasharray:none;stroke-dashoffset:0;stroke-opacity:1;visibility:visible;display:inline;overflow:visible;enable-background:accumulate"
           d="M 89.079544,92.922371 L 142.00127,92.922371"
           id="path3291" />
        <path
           id="path3293"
           d="M 89.173097,93.670797 L 142.09482,93.670797"
           style="opacity:1;fill:#ede9e4;fill-opacity:1;fill-rule:evenodd;stroke:#c2b9a7;stroke-width:0.9816153;stroke-linecap:butt;stroke-linejoin:miter;marker:none;marker-start:none;marker-mid:none;marker-end:none;stroke-miterlimit:4;stroke-dasharray:none;stroke-dashoffset:0;stroke-opacity:1;visibility:visible;display:inline;overflow:visible;enable-background:accumulate" />
      </g>
      <path
         sodipodi:nodetypes="csccsccsccscccsccscccsccscccsccscccsccscccsccsc"
         d="M 89.443165,218.99923 C 89.559765,220.74374 87.725695,222.27702 85.810115,222.40506 C 83.894545,222.5331 81.838485,221.25984 81.721885,219.51533 L 67.001115,45.413892 C 66.884505,43.669384 68.332775,42.161882 70.248345,42.033843 C 72.163915,41.905804 73.799925,43.207149 73.916535,44.951657 M 28.932465,223.18449 C 29.04907,224.92899 31.061535,226.06453 32.97711,225.93649 C 34.892675,225.80845 37.134385,224.24792 37.017775,222.50341 L 28.250102,48.004059 C 28.133497,46.259551 26.497471,44.958207 24.581906,45.086246 C 22.66633,45.214286 21.218065,46.721787 21.33467,48.466296 M 64.179395,220.1604 L 51.915235,46.949742 C 51.779185,44.914304 49.738325,43.404759 47.503315,43.55415 C 45.268275,43.703543 43.380465,45.475685 43.516515,47.511123 L 54.574405,220.80241 C 54.710455,222.83785 57.340115,224.30803 59.575145,224.15864 C 61.810155,224.00925 64.315445,222.19584 64.179395,220.1604 z M 54.578855,220.80211 L 43.520975,47.510825 C 43.384925,45.475387 41.377075,43.963636 39.142045,44.113028 C 36.907015,44.26242 35.197375,45.724304 35.317985,47.528725 L 45.348825,222.01576 C 45.484875,224.0512 47.825575,224.944 50.060605,224.7946 C 52.295625,224.64521 54.714905,222.83755 54.578855,220.80211 z M 45.306965,221.94935 L 35.313925,47.531904 C 35.197325,45.787396 33.561305,44.486052 31.645746,44.61409 C 29.730171,44.742129 28.182896,46.256249 28.299502,48.000757 L 37.036385,222.53532 C 37.152995,224.27983 39.711695,225.48634 41.627265,225.3583 C 43.542845,225.23026 45.423575,223.69386 45.306965,221.94935 z M 64.200905,220.15896 L 51.899425,46.950799 C 51.763365,44.915361 53.453155,43.156455 55.688185,43.007063 C 57.923225,42.85767 59.792355,43.781996 59.928405,45.817434 L 73.237825,220.02374 C 73.373875,222.05917 71.381695,223.36948 69.146655,223.51887 C 66.911625,223.66826 64.336955,222.1944 64.200905,220.15896 z M 73.245985,220.08187 L 59.937265,45.886049 C 59.820665,44.141541 61.268925,42.634039 63.184505,42.506 C 65.100075,42.37796 66.736085,43.679305 66.852695,45.423813 L 81.738475,219.51422 C 81.855075,221.25873 79.495585,222.82713 77.580015,222.95517 C 75.664435,223.08321 73.362585,221.82638 73.245985,220.08187 z"
         style="fill:none;fill-opacity:1;fill-rule:evenodd;stroke:#c2b9a7;stroke-width:1;stroke-linecap:round;stroke-linejoin:miter;marker:none;marker-start:none;marker-mid:none;marker-end:none;stroke-miterlimit:4;stroke-dasharray:none;stroke-dashoffset:0;stroke-opacity:1;visibility:visible;display:inline;overflow:visible;enable-background:accumulate"
         id="rect4547" />
      <path
         sodipodi:nodetypes="ccccc"
         id="path3193"
         d="M 47.000605,17.242833 L 77.415615,15.010955 C 76.973075,17.339088 75.533195,19.324951 72.950375,21.607895 L 43.701395,23.430336 C 45.413225,21.326921 46.338655,19.276072 47.000605,17.242833 z"
         style="fill:#d4cdc3;fill-opacity:1;fill-rule:evenodd;stroke:none;stroke-width:2;stroke-linecap:butt;stroke-linejoin:miter;marker:none;marker-start:none;marker-mid:none;marker-end:none;stroke-miterlimit:4;stroke-dasharray:none;stroke-dashoffset:0;stroke-opacity:1;visibility:visible;display:inline;overflow:visible;enable-background:accumulate" />
      <path
         style="fill:#d4cdc3;fill-opacity:1;fill-rule:evenodd;stroke:none;stroke-width:2;stroke-linecap:butt;stroke-linejoin:miter;marker:none;marker-start:none;marker-mid:none;marker-end:none;stroke-miterlimit:4;stroke-dasharray:none;stroke-dashoffset:0;stroke-opacity:1;visibility:visible;display:inline;overflow:visible;enable-background:accumulate"
         d="M 13.633506,13.216738 L 77.363345,9.6700139 C 77.290055,11.209909 77.385245,11.613532 77.272355,12.974189 L 43.149115,15.16783 C 43.704325,13.795807 21.418548,14.75389 13.494478,14.887631 C 13.691297,13.775347 13.256928,13.938332 13.633506,13.216738 z"
         id="path3195"
         sodipodi:nodetypes="cccccc" />
      <path
         sodipodi:nodetypes="ccccc"
         id="rect3248"
         d="M 22.077878,26.981055 L 28.389727,27.758651 C 29.041392,29.559079 29.538763,32.791878 29.327522,34.774999 L 22.633175,35.288757 L 22.077878,26.981055 z"
         style="fill:#ede9e4;fill-opacity:1;fill-rule:evenodd;stroke:none;stroke-width:2;stroke-linecap:butt;stroke-linejoin:miter;marker:none;marker-start:none;marker-mid:none;marker-end:none;stroke-miterlimit:4;stroke-dashoffset:0;stroke-opacity:1;visibility:visible;display:inline;overflow:visible;enable-background:accumulate" />
      <path
         style="fill:#d4cdc3;fill-opacity:1;fill-rule:evenodd;stroke:none;stroke-width:2;stroke-linecap:butt;stroke-linejoin:miter;marker:none;marker-start:none;marker-mid:none;marker-end:none;stroke-miterlimit:4;stroke-dasharray:none;stroke-dashoffset:0;stroke-opacity:1;visibility:visible;display:inline;overflow:visible;enable-background:accumulate"
         d="M 22.31221,26.628403 L 68.751485,23.559848 C 68.308945,25.887981 69.031955,30.073324 69.280565,31.932607 L 42.707505,33.81059 C 43.871845,32.379906 44.320955,29.93428 44.299905,27.888284 C 44.290015,26.926223 21.260339,29.693891 22.31221,26.628403 z"
         id="path3199"
         sodipodi:nodetypes="ccccsc" />
      <path
         style="fill:#d4cdc3;fill-opacity:1;fill-rule:evenodd;stroke:none;stroke-width:2;stroke-linecap:butt;stroke-linejoin:miter;marker:none;marker-start:none;marker-mid:none;marker-end:none;stroke-miterlimit:4;stroke-dasharray:none;stroke-dashoffset:0;stroke-opacity:1;visibility:visible;display:inline;overflow:visible;enable-background:accumulate"
         d="M 37.639745,238.52665 C 57.991535,236.51396 77.914655,234.38236 99.189205,234.15211 C 99.467905,235.80786 99.582705,236.99465 98.614715,238.63925 L 21.77134,245.0078 C 19.426826,241.50878 31.165197,239.16692 37.639745,238.52665 z"
         id="path3201"
         sodipodi:nodetypes="ccccc" />
      <path
         sodipodi:nodetypes="ccccc"
         id="path3203"
         d="M 38.914985,230.37968 C 56.749275,228.91121 74.212755,227.40498 92.799335,226.6676 C 92.992975,227.36412 93.057565,227.86591 92.162775,228.59514 L 26.034069,232.91936 C 24.091694,231.5002 33.241344,230.84684 38.914985,230.37968 z"
         style="fill:#d4cdc3;fill-opacity:1;fill-rule:evenodd;stroke:none;stroke-width:2;stroke-linecap:butt;stroke-linejoin:miter;marker:none;marker-start:none;marker-mid:none;marker-end:none;stroke-miterlimit:4;stroke-dasharray:none;stroke-dashoffset:0;stroke-opacity:1;visibility:visible;display:inline;overflow:visible;enable-background:accumulate" />
      <path
         style="fill:#d4cdc3;fill-opacity:1;fill-rule:evenodd;stroke:none;stroke-width:2;stroke-linecap:butt;stroke-linejoin:miter;marker:none;marker-start:none;marker-mid:none;marker-end:none;stroke-miterlimit:4;stroke-dasharray:none;stroke-dashoffset:0;stroke-opacity:1;visibility:visible;display:inline;overflow:visible;enable-background:accumulate"
         d="M 46.734165,35.680809 L 74.620225,33.695436 C 74.188375,35.12763 74.237345,36.278017 72.812205,37.661674 L 44.244455,39.490222 C 45.790235,38.172568 46.378395,36.918922 46.734165,35.680809 z"
         id="path3205"
         sodipodi:nodetypes="ccccc" />
      <path
         sodipodi:nodetypes="ccccc"
         id="path3240"
         d="M 27.188437,250.96271 C 22.841819,253.06293 22.639642,258.33356 21.088852,264.55889 C 21.531388,262.23076 19.630894,249.78414 19.564516,246.55117 L 101.04506,239.58002 C 77.235955,244.25709 49.571875,245.48067 27.188437,250.96271 z"
         style="fill:#ede9e4;fill-opacity:1;fill-rule:evenodd;stroke:none;stroke-width:2;stroke-linecap:butt;stroke-linejoin:miter;marker:none;marker-start:none;marker-mid:none;marker-end:none;stroke-miterlimit:4;stroke-dasharray:none;stroke-dashoffset:0;stroke-opacity:1;visibility:visible;display:inline;overflow:visible;enable-background:accumulate" />
      <path
         style="fill:#ede9e4;fill-opacity:1;fill-rule:evenodd;stroke:none;stroke-width:2;stroke-linecap:butt;stroke-linejoin:miter;marker:none;marker-start:none;marker-mid:none;marker-end:none;stroke-miterlimit:4;stroke-dasharray:none;stroke-dashoffset:0;stroke-opacity:1;visibility:visible;display:inline;overflow:visible;enable-background:accumulate"
         d="M 26.631507,236.67919 C 22.284887,238.77941 22.254509,237.5314 20.703719,243.75673 C 19.430128,241.54331 19.658741,233.69064 26.017511,232.99249 C 63.986665,228.80665 68.643475,230.27592 95.731875,228.53161 C 107.23607,234.82627 49.014935,231.19715 26.631507,236.67919 z"
         id="path3242"
         sodipodi:nodetypes="ccscc" />
      <path
         style="fill:#ede9e4;fill-opacity:1;fill-rule:evenodd;stroke:none;stroke-width:2;stroke-linecap:butt;stroke-linejoin:miter;marker:none;marker-start:none;marker-mid:none;marker-end:none;stroke-miterlimit:4;stroke-dasharray:none;stroke-dashoffset:0;stroke-opacity:1;visibility:visible;display:inline;overflow:visible;enable-background:accumulate"
         d="M 31.180102,230.00945 C 27.457592,230.52239 26.944336,232.14504 25.364304,233.1441 C 25.840562,232.77679 25.189485,229.91254 25.28284,229.4338 L 92.550455,224.40303 C 92.569025,225.55515 92.528615,225.30449 92.447975,226.01123 C 81.766855,226.82981 42.035535,228.95016 31.180102,230.00945 z"
         id="path3244"
         sodipodi:nodetypes="cccccc" />
      <path
         sodipodi:nodetypes="ccccc"
         id="path3246"
         d="M 17.821938,36.581957 L 51.501615,34.303094 C 38.063625,36.135823 33.01929,38.939323 31.594167,40.322978 L 20.391691,41.037691 C 19.283383,39.991201 17.466169,37.820069 17.821938,36.581957 z"
         style="fill:#ede9e4;fill-opacity:1;fill-rule:evenodd;stroke:none;stroke-width:2;stroke-linecap:butt;stroke-linejoin:miter;marker:none;marker-start:none;marker-mid:none;marker-end:none;stroke-miterlimit:4;stroke-dasharray:none;stroke-dashoffset:0;stroke-opacity:1;visibility:visible;display:inline;overflow:visible;enable-background:accumulate" />
      <path
         style="fill:#ede9e4;fill-opacity:1;fill-rule:evenodd;stroke:none;stroke-width:2;stroke-linecap:butt;stroke-linejoin:miter;marker:none;marker-start:none;marker-mid:none;marker-end:none;stroke-miterlimit:4;stroke-dasharray:none;stroke-dashoffset:0;stroke-opacity:1;visibility:visible;display:inline;overflow:visible;enable-background:accumulate"
         d="M 12.082151,18.159171 L 51.665635,15.927097 C 38.278635,18.522764 29.705114,22.089176 28.350287,24.524676 L 17.145961,25.211569 C 15.976505,23.250249 11.792648,20.38866 12.082151,18.159171 z"
         id="path3251"
         sodipodi:nodetypes="ccccc" />
      <path
         sodipodi:nodetypes="ccccc"
         id="path3253"
         d="M 4.3140902,8.5521006 L 86.095745,3.5932093 C 72.708745,6.1888757 20.729074,8.4373188 19.691965,12.820585 L 8.4876362,13.507478 C 6.5467062,12.629107 4.0245852,10.781589 4.3140902,8.5521006 z"
         style="fill:#ede9e4;fill-opacity:1;fill-rule:evenodd;stroke:none;stroke-width:2;stroke-linecap:butt;stroke-linejoin:miter;marker:none;marker-start:none;marker-mid:none;marker-end:none;stroke-miterlimit:4;stroke-dasharray:none;stroke-dashoffset:0;stroke-opacity:1;visibility:visible;display:inline;overflow:visible;enable-background:accumulate" />
      <path
         sodipodi:nodetypes="ccccccccccc"
         id="path3255"
         d="M 22.237466,32.17418 L 24.738452,28.209649 L 29.608845,33.041016 L 34.959715,27.526447 L 40.545805,32.544381 L 46.101965,26.59416 L 52.773995,31.727032 L 57.219385,25.991701 L 63.166355,30.79799 L 67.042435,25.663282 L 70.556085,29.835241"
         style="fill:none;fill-opacity:1;fill-rule:evenodd;stroke:#c2b9a7;stroke-width:1;stroke-linecap:butt;stroke-linejoin:miter;marker:none;marker-start:none;marker-mid:none;marker-end:none;stroke-miterlimit:4;stroke-dasharray:none;stroke-dashoffset:0;stroke-opacity:1;visibility:visible;display:inline;overflow:visible;enable-background:accumulate" />
      <g
         transform="matrix(0.9991061,-4.2273901e-2,4.2273901e-2,0.9991061,-68.324431,8.7267884)"
         id="g3282">
        <path
           id="path3278"
           d="M 89.594087,94.355019 L 142.51581,94.355019"
           style="opacity:1;fill:none;fill-opacity:1;fill-rule:evenodd;stroke:#e4e0d9;stroke-width:1;stroke-linecap:butt;stroke-linejoin:miter;marker:none;marker-start:none;marker-mid:none;marker-end:none;stroke-miterlimit:4;stroke-dasharray:none;stroke-dashoffset:0;stroke-opacity:1;visibility:visible;display:inline;overflow:visible;enable-background:accumulate" />
        <path
           id="path3280"
           d="M 89.079544,92.922371 L 142.00127,92.922371"
           style="opacity:1;fill:#ede9e4;fill-opacity:1;fill-rule:evenodd;stroke:#d4cdc3;stroke-width:1;stroke-linecap:butt;stroke-linejoin:miter;marker:none;marker-start:none;marker-mid:none;marker-end:none;stroke-miterlimit:4;stroke-dasharray:none;stroke-dashoffset:0;stroke-opacity:1;visibility:visible;display:inline;overflow:visible;enable-background:accumulate" />
        <path
           style="opacity:1;fill:#ede9e4;fill-opacity:1;fill-rule:evenodd;stroke:#c2b9a7;stroke-width:1;stroke-linecap:butt;stroke-linejoin:miter;marker:none;marker-start:none;marker-mid:none;marker-end:none;stroke-miterlimit:4;stroke-dasharray:none;stroke-dashoffset:0;stroke-opacity:1;visibility:visible;display:inline;overflow:visible;enable-background:accumulate"
           d="M 89.173097,93.670797 L 142.09482,93.670797"
           id="path3275" />
      </g>
      <path
         style="fill:#d4cdc3;fill-opacity:1;fill-rule:evenodd;stroke:none;stroke-width:2;stroke-linecap:butt;stroke-linejoin:miter;marker:none;marker-start:none;marker-mid:none;marker-end:none;stroke-miterlimit:4;stroke-dasharray:none;stroke-dashoffset:0;stroke-opacity:1;visibility:visible;display:inline;overflow:visible;enable-background:accumulate"
         d="M 95.986125,252.91723 C 100.33275,250.81701 98.838975,247.90445 100.38977,241.67911 C 99.947235,244.00725 103.13545,255.77481 100.55263,258.05776 L 22.030741,265.56853 C 22.211757,265.34611 22.222252,262.31428 23.220232,259.62805 C 30.491286,258.21024 95.394175,254.73546 95.986125,252.91723 z"
         id="path3207"
         sodipodi:nodetypes="cccccc" />
      <path
         sodipodi:nodetypes="cccccccccccccccccccccccccccccccccccccccc"
         d="M 20.581116,245.51854 C 17.356538,238.38303 21.54187,233.95468 25.941972,232.90042 L 93.574715,229.17537 C 99.870605,228.96969 102.68187,233.37256 100.49596,239.33008 M 25.731725,233.91683 L 25.389487,228.79667 L 93.615485,223.63966 L 94.063425,229.34945 M 28.927037,227.89675 C 28.956004,165.82631 25.507117,103.98834 21.089397,42.21513 M 12.389671,18.626112 L 11.802855,13.814454 M 78.601745,8.7528339 L 78.942185,13.846158 M 73.583735,38.706341 C 76.622285,101.1441 82.119835,163.05594 90.088895,223.67289 M 70.639355,22.901395 C 70.210165,27.108192 70.465245,28.09092 71.250235,32.040648 M 22.100212,35.591098 C 22.179579,31.646382 22.286866,30.422806 21.471685,26.187825 M 19.008239,245.97975 L 102.22667,238.82613 L 103.55086,259.89071 L 20.102772,264.78956 L 19.008239,245.97975 z M 16.983724,35.516526 L 75.915415,32.306755 C 75.717715,34.745367 75.839275,36.473062 73.832085,39.03818 L 20.86297,43.109101 C 19.26627,41.377972 17.662157,38.359183 16.983724,35.516526 z M 11.358927,18.887991 L 79.624455,13.33054 C 79.271855,16.528907 77.092615,21.11072 73.572105,23.255157 L 17.562339,26.402223 C 13.877441,23.985333 12.413381,21.813019 11.358927,18.887991 z M 2.9036932,9.2643142 L 86.534495,2.8124282 C 85.670265,4.9516514 84.783565,7.2660628 83.114245,8.7648936 L 7.8809892,14.257678 C 6.0179792,13.072971 4.4498532,11.130248 2.9036932,9.2643142 z"
         style="fill:none;fill-opacity:1;fill-rule:evenodd;stroke:#a5987e;stroke-width:2;stroke-linecap:butt;stroke-linejoin:miter;marker:none;marker-start:none;marker-mid:none;marker-end:none;stroke-miterlimit:4;stroke-dasharray:none;stroke-dashoffset:0;stroke-opacity:1;visibility:visible;display:inline;overflow:visible;enable-background:accumulate"
         id="path4645" />
      <path
         style="fill:#d4cdc3;fill-opacity:1;fill-rule:evenodd;stroke:none;stroke-width:2;stroke-linecap:butt;stroke-linejoin:miter;marker:none;marker-start:none;marker-mid:none;marker-end:none;stroke-miterlimit:4;stroke-dasharray:none;stroke-dashoffset:0;stroke-opacity:1;visibility:visible;display:inline;overflow:visible;enable-background:accumulate"
         d="M 51.640525,6.7027649 L 84.302705,4.4243152 C 83.780475,5.560169 83.469845,6.2047246 82.326095,7.5732416 L 48.507805,9.7701879 C 50.288595,8.6984814 50.909615,7.7042961 51.640525,6.7027649 z"
         id="path3197"
         sodipodi:nodetypes="ccccc" />
    </g>
  </g>
</svg>
