<?xml version="1.0" encoding="UTF-8" standalone="no"?>
<!-- Created with Inkscape (http://www.inkscape.org/) -->
<svg
   xmlns:dc="http://purl.org/dc/elements/1.1/"
   xmlns:cc="http://creativecommons.org/ns#"
   xmlns:rdf="http://www.w3.org/1999/02/22-rdf-syntax-ns#"
   xmlns:svg="http://www.w3.org/2000/svg"
   xmlns="http://www.w3.org/2000/svg"
   xmlns:sodipodi="http://sodipodi.sourceforge.net/DTD/sodipodi-0.dtd"
   xmlns:inkscape="http://www.inkscape.org/namespaces/inkscape"
   id="svg2"
   sodipodi:version="0.32"
   inkscape:version="0.46"
   width="110"
   height="260"
   version="1.0"
   sodipodi:docname="Column02.svg"
   inkscape:output_extension="org.inkscape.output.svg.inkscape"
   inkscape:export-filename="/usr/share/games/hedgewars/Data/Themes/Olympics/Column02.png"
   inkscape:export-xdpi="90"
   inkscape:export-ydpi="90">
  <metadata
     id="metadata7">
    <rdf:RDF>
      <cc:Work
         rdf:about="">
        <dc:format>image/svg+xml</dc:format>
        <dc:type
           rdf:resource="http://purl.org/dc/dcmitype/StillImage" />
      </cc:Work>
    </rdf:RDF>
  </metadata>
  <defs
     id="defs5">
    <inkscape:perspective
       sodipodi:type="inkscape:persp3d"
       inkscape:vp_x="0 : 130 : 1"
       inkscape:vp_y="0 : 1000 : 0"
       inkscape:vp_z="240 : 130 : 1"
       inkscape:persp3d-origin="120 : 86.666667 : 1"
       id="perspective45" />
  </defs>
  <sodipodi:namedview
     inkscape:window-height="825"
     inkscape:window-width="1440"
     inkscape:pageshadow="2"
     inkscape:pageopacity="0.0"
     guidetolerance="10.0"
     gridtolerance="10.0"
     objecttolerance="10.0"
     borderopacity="1.0"
     bordercolor="#666666"
     pagecolor="#ffffff"
     id="base"
     showgrid="false"
     inkscape:zoom="1.3435029"
     inkscape:cx="38.235671"
     inkscape:cy="102.36929"
     inkscape:window-x="0"
     inkscape:window-y="25"
     inkscape:current-layer="layer2"
     showguides="true"
     inkscape:guide-bbox="true">
    <sodipodi:guide
       orientation="1,0"
       position="12.281328,-16.375104"
       id="guide2457" />
    <sodipodi:guide
       orientation="1,0"
       position="88.202266,-6.6989063"
       id="guide2459" />
    <sodipodi:guide
       orientation="0,1"
       position="129.14003,1.8608073"
       id="guide2461" />
  </sodipodi:namedview>
  <g
     inkscape:groupmode="layer"
     id="layer1"
     inkscape:label="tmp"
     style="display:inline" />
  <g
     inkscape:groupmode="layer"
     id="layer2"
     inkscape:label="main">
    <g
       id="g2418"
       transform="translate(-65.475397,0)">
      <path
         id="rect4024"
         d="M 89.101461,2.3839679 L 85.095103,6.7887637 L 87.472243,14.529849 C 85.440938,15.806551 83.823422,17.602506 83.060636,20.00713 C 80.772321,27.220908 85.640944,34.502452 91.672324,36.459712 C 92.652603,36.777827 96.22726,36.881936 99.727525,35.164635 C 96.753395,95.924614 92.406628,155.38509 84.51304,215.87376 L 81.039953,215.30079 L 80.985661,221.21349 C 77.081036,221.85332 77.589394,220.76986 75.5828,221.00036 C 75.430131,222.10265 77.286319,227.4567 79.112188,230.49715 L 75.488767,230.91725 L 75.021463,233.08173 L 72.319849,233.80462 L 71.324807,258.4754 L 154.72151,263.21452 L 155.93175,239.71408 L 153.38047,239.4439 L 152.74197,235.80807 L 150.10596,235.37657 C 150.63003,234.46241 154.40358,228.89819 155.06288,226.36203 C 153.35255,226.16694 153.15113,226.17609 149.34413,225.09804 L 149.5888,220.79249 L 146.03203,220.59037 C 145.77108,159.6175 148.562,98.835144 152.24011,38.086126 C 155.28374,39.590126 155.94384,39.622933 157.8493,39.625592 C 164.70206,38.72467 169.33254,31.915117 168.01944,25.899233 C 167.65284,24.219664 166.93292,22.68063 165.96066,21.368881 L 170.2943,11.755514 L 166.65176,8.1054767 L 89.101461,2.3839679 z"
         style="opacity:1;fill:#e4e0d9;fill-opacity:1;fill-rule:evenodd;stroke:none;stroke-width:1;stroke-linecap:round;stroke-linejoin:miter;marker:none;marker-start:none;marker-mid:none;marker-end:none;stroke-miterlimit:4;stroke-dasharray:none;stroke-dashoffset:0;stroke-opacity:1;visibility:visible;display:inline;overflow:visible;enable-background:accumulate" />
      <path
         id="rect3209"
         d="M 153.59426,18.662918 C 152.96433,18.655436 152.33858,18.720735 151.70632,18.837338 C 149.84078,19.18139 148.54424,19.676971 147.51102,20.50826 C 135.33729,23.426734 112.02925,21.120272 100.96609,16.673871 C 99.104999,16.100832 97.391793,15.689106 95.460417,15.515893 C 91.825068,15.189863 88.249845,17.414675 86.290504,21.004482 C 82.862545,27.285017 87.570431,33.631073 94.114439,32.592034 C 98.419012,33.619852 104.43796,25.840982 96.865763,22.732249 C 100.6915,26.395219 95.192329,31.746824 89.195898,30.465808 C 88.378934,29.762114 87.718953,28.878473 87.247357,27.851046 C 86.537947,25.839887 86.766689,23.64288 87.657256,21.739458 C 90.086823,16.26725 94.403414,17.767051 98.848402,17.586445 C 100.93136,18.580703 101.82226,18.27945 102.52038,18.515019 C 107.38088,20.321383 118.97451,22.80861 128.47954,23.276724 C 120.15285,23.04191 111.83122,22.123515 103.5301,20.575624 C 102.32371,19.019809 100.63134,18.54052 98.765787,18.489462 C 108.52298,26.069145 97.700395,39.06703 87.015445,33.033737 C 90.74078,37.326282 96.288774,37.48217 100.18382,34.84626 L 100.28698,36.886649 L 107.60294,37.584091 C 108.72201,36.77912 111.05133,36.654871 112.84732,38.382916 L 114.02581,38.575087 C 114.29923,38.218529 118.18709,36.027582 121.47118,39.74939 C 122.33067,39.411753 123.80799,37.213567 127.51897,38.528042 C 129.13463,39.10033 130.06142,40.605943 129.94755,42.609901 L 120.66993,215.23659 C 120.46322,217.20644 115.24137,218.18648 112.84908,216.26328 L 112.42184,218.27352 L 144.3391,220.08726 C 144.08804,158.94733 145.92682,98.011584 150.36601,36.915414 C 148.8146,35.759691 148.85399,35.73811 146.51394,33.096968 C 139.6122,32.876078 118.39736,31.262641 107.8058,30.709527 C 108.04481,30.417951 108.18195,30.133391 108.29401,29.829558 L 145.8896,31.965974 C 147.85864,31.842826 145.84073,31.14381 145.58721,28.474444 C 144.8334,29.178033 144.62591,30.110725 143.33975,30.569059 C 132.13951,30.119195 120.12527,29.626673 108.48901,29.152031 C 108.63524,28.200547 108.45649,27.215915 108.5915,26.246916 C 115.10514,26.675771 146.55638,28.603211 146.69161,28.3181 C 146.8186,28.050365 148.07666,24.536473 148.50938,23.31943 L 148.69835,23.298868 C 149.82718,21.307457 149.83491,21.237774 153.68466,19.826171 C 155.56565,19.479273 157.47394,19.721222 159.15807,20.450208 C 157.55357,19.341119 155.5988,18.686728 153.59426,18.662918 z M 94.675776,20.510672 C 93.616127,20.562569 92.592423,20.994005 91.944021,21.763956 C 90.401738,23.595361 90.376234,26.825182 94.136105,27.804302 C 90.796571,24.370669 95.705427,20.079912 98.663992,23.585645 C 98.289243,21.402612 96.441858,20.424178 94.675776,20.510672 z M 104.36711,28.980399 L 104.23591,31.289175 C 103.39058,32.118387 102.75829,32.704804 101.99377,33.290191 C 102.76716,32.441185 103.41712,31.457838 103.8835,30.330136 C 104.06992,29.879379 104.22994,29.433375 104.36711,28.980399 z M 107.63027,33.798294 L 146.64687,36.265864 L 147.02516,37.320274 C 139.14115,36.793777 114.8495,35.221579 106.4585,35.140226 C 107.5238,34.39625 107.20261,34.578503 107.63027,33.798294 z M 137.67019,41.108124 C 137.88955,41.063749 137.78992,41.204327 137.71875,42.456801 L 129.77528,214.18899 C 129.66141,216.19294 126.36856,217.08849 124.2281,217.0664 C 125.46349,216.17588 126.43969,215.60296 126.55356,213.599 L 135.49079,44.20822 C 135.60467,42.204263 135.85982,41.211525 136.85013,41.218025 C 137.30179,41.24369 137.53856,41.134749 137.67019,41.108124 z M 144.61707,41.690692 C 144.76257,41.682308 144.60893,41.834023 144.54793,42.907479 L 137.99249,215.00025 C 137.89491,216.7178 135.08145,217.68316 133.96239,217.61957 C 132.84334,217.55598 135.88287,216.32174 135.98047,214.60421 L 143.23932,42.801815 C 143.27047,42.254003 143.57842,41.834943 143.92536,41.745286 C 144.34501,41.769132 144.52978,41.695722 144.61707,41.690692 z"
         style="opacity:1;fill:#d4cdc3;fill-opacity:1;fill-rule:evenodd;stroke:none;stroke-width:2;stroke-linecap:butt;stroke-linejoin:miter;marker:none;marker-start:none;marker-mid:none;marker-end:none;stroke-miterlimit:4;stroke-dashoffset:0;stroke-opacity:1;visibility:visible;display:inline;overflow:visible;enable-background:accumulate" />
      <path
         sodipodi:nodetypes="ccccsc"
         id="path3220"
         d="M 111.78129,38.65293 C 108.73258,36.947625 107.12378,38.89531 106.81696,40.796531 L 94.207358,211.72343 C 94.109758,213.44095 94.912619,213.95736 96.279429,214.361 C 99.720205,162.20413 105.82354,66.853458 108.17275,42.987797 C 108.49177,39.746852 110.21313,38.985762 111.78129,38.65293 z"
         style="opacity:1;fill:#d4cdc3;fill-opacity:1;fill-rule:evenodd;stroke:none;stroke-width:2;stroke-linecap:butt;stroke-linejoin:miter;marker:none;marker-start:none;marker-mid:none;marker-end:none;stroke-miterlimit:4;stroke-dasharray:none;stroke-dashoffset:0;stroke-opacity:1;visibility:visible;display:inline;overflow:visible;enable-background:accumulate" />
      <path
         sodipodi:nodetypes="ccccsc"
         id="path3237"
         d="M 128.09087,39.644935 C 123.77663,36.889808 122.32882,40.085327 122.02201,41.986547 L 111.76952,213.9927 C 112.00662,215.47627 114.81491,216.31933 116.20284,216.47107 C 119.64361,164.31421 122.16797,67.814849 124.51718,43.949187 C 124.8362,40.708242 126.52271,39.977766 128.09087,39.644935 z"
         style="opacity:1;fill:#d4cdc3;fill-opacity:1;fill-rule:evenodd;stroke:none;stroke-width:2;stroke-linecap:butt;stroke-linejoin:miter;marker:none;marker-start:none;marker-mid:none;marker-end:none;stroke-miterlimit:4;stroke-dasharray:none;stroke-dashoffset:0;stroke-opacity:1;visibility:visible;display:inline;overflow:visible;enable-background:accumulate" />
      <path
         style="opacity:1;fill:#d4cdc3;fill-opacity:1;fill-rule:evenodd;stroke:none;stroke-width:2;stroke-linecap:butt;stroke-linejoin:miter;marker:none;marker-start:none;marker-mid:none;marker-end:none;stroke-miterlimit:4;stroke-dasharray:none;stroke-dashoffset:0;stroke-opacity:1;visibility:visible;display:inline;overflow:visible;enable-background:accumulate"
         d="M 120.14324,39.584466 C 115.829,36.829338 114.37772,39.503107 114.0709,41.404327 L 102.56376,212.75245 C 102.80085,214.23601 104.21849,215.06523 105.60642,215.21698 C 109.04719,163.06011 113.87371,67.441308 116.22293,43.575647 C 116.54195,40.334702 118.57508,39.917297 120.14324,39.584466 z"
         id="path3234"
         sodipodi:nodetypes="ccccsc" />
      <path
         sodipodi:nodetypes="ccsccsc"
         id="path3269"
         d="M 99.405498,40.19944 C 100.57578,41.380273 86.429909,209.68145 85.580715,211.71713 C 85.483115,213.43466 87.341513,214.78913 89.25827,214.89805 C 91.175017,215.00697 93.590621,213.75709 93.688221,212.03956 L 106.32519,40.592661 C 106.42279,38.875134 104.95827,37.404743 103.04152,37.295821 C 101.12476,37.186899 99.503098,38.481913 99.405498,40.19944 z"
         style="opacity:1;fill:#ede9e4;fill-opacity:1;fill-rule:evenodd;stroke:none;stroke-width:2;stroke-linecap:butt;stroke-linejoin:miter;marker:none;marker-start:none;marker-mid:none;marker-end:none;stroke-miterlimit:4;stroke-dasharray:none;stroke-dashoffset:0;stroke-opacity:1;visibility:visible;display:inline;overflow:visible;enable-background:accumulate" />
      <path
         style="opacity:1;fill:#ede9e4;fill-opacity:1;fill-rule:evenodd;stroke:none;stroke-width:2;stroke-linecap:butt;stroke-linejoin:miter;marker:none;marker-start:none;marker-mid:none;marker-end:none;stroke-miterlimit:4;stroke-dasharray:none;stroke-dashoffset:0;stroke-opacity:1;visibility:visible;display:inline;overflow:visible;enable-background:accumulate"
         d="M 110.15487,213.33098 L 120.99152,41.977363 C 121.16133,38.274963 118.73223,41.555592 118.29552,45.132106 C 114.4331,99.901604 112.07797,160.08019 107.16106,215.59541 C 108.04781,215.64394 110.05727,215.04851 110.15487,213.33098 z"
         id="path3273"
         sodipodi:nodetypes="ccccc" />
      <path
         sodipodi:nodetypes="ccccc"
         id="path3263"
         d="M 101.96521,212.86559 L 112.28457,41.286998 C 112.45439,37.584599 110.54257,41.090205 110.10586,44.666719 C 105.16456,99.766064 103.80011,160.00095 97.305497,215.29614 C 98.192242,215.34466 101.86761,214.58312 101.96521,212.86559 z"
         style="opacity:1;fill:#ede9e4;fill-opacity:1;fill-rule:evenodd;stroke:none;stroke-width:2;stroke-linecap:butt;stroke-linejoin:miter;marker:none;marker-start:none;marker-mid:none;marker-end:none;stroke-miterlimit:4;stroke-dasharray:none;stroke-dashoffset:0;stroke-opacity:1;visibility:visible;display:inline;overflow:visible;enable-background:accumulate" />
      <g
         transform="matrix(1.0368089,4.547931e-2,-4.2699772e-2,0.9830029,2.9245012,57.318498)"
         id="g3287"
         style="opacity:1">
        <path
           style="opacity:1;fill:none;fill-opacity:1;fill-rule:evenodd;stroke:#e4e0d9;stroke-width:0.98960042;stroke-linecap:butt;stroke-linejoin:miter;marker:none;marker-start:none;marker-mid:none;marker-end:none;stroke-miterlimit:4;stroke-dasharray:none;stroke-dashoffset:0;stroke-opacity:1;visibility:visible;display:inline;overflow:visible;enable-background:accumulate"
           d="M 89.594087,94.355019 L 142.51581,94.355019"
           id="path3289" />
        <path
           style="opacity:1;fill:#ede9e4;fill-opacity:1;fill-rule:evenodd;stroke:#d4cdc3;stroke-width:0.98960042;stroke-linecap:butt;stroke-linejoin:miter;marker:none;marker-start:none;marker-mid:none;marker-end:none;stroke-miterlimit:4;stroke-dasharray:none;stroke-dashoffset:0;stroke-opacity:1;visibility:visible;display:inline;overflow:visible;enable-background:accumulate"
           d="M 89.079544,92.922371 L 142.00127,92.922371"
           id="path3291" />
        <path
           id="path3293"
           d="M 89.173097,93.670797 L 142.09482,93.670797"
           style="opacity:1;fill:#ede9e4;fill-opacity:1;fill-rule:evenodd;stroke:#c2b9a7;stroke-width:0.98960042;stroke-linecap:butt;stroke-linejoin:miter;marker:none;marker-start:none;marker-mid:none;marker-end:none;stroke-miterlimit:4;stroke-dasharray:none;stroke-dashoffset:0;stroke-opacity:1;visibility:visible;display:inline;overflow:visible;enable-background:accumulate" />
      </g>
      <path
         sodipodi:nodetypes="csccsccsccscccsccscccsccscccsccscccsccscccsccsc"
         d="M 145.98161,215.18248 C 145.88401,216.90001 143.8763,218.17308 141.95954,218.06416 C 140.04279,217.95524 138.15796,216.46097 138.25556,214.74344 L 144.93578,42.958046 C 145.03338,41.240519 146.65504,39.945503 148.5718,40.054426 C 150.48855,40.163347 151.95306,41.633738 151.85546,43.351266 M 85.416374,211.87909 C 85.318773,213.59662 87.177174,214.95109 89.093932,215.06001 C 91.010679,215.16893 93.426275,213.91904 93.523876,212.20151 L 106.16085,40.754613 C 106.25845,39.037086 104.79392,37.566694 102.87718,37.457772 C 100.96042,37.34885 99.338753,38.643866 99.241153,40.361393 M 120.76676,213.23092 L 129.77609,42.61527 C 129.88996,40.611312 128.04912,38.888199 125.81273,38.761113 C 123.57631,38.634026 121.48606,40.13375 121.37218,42.137708 L 111.15584,212.68477 C 111.04196,214.68873 113.47197,216.44532 115.70838,216.57241 C 117.94477,216.69949 120.65288,215.23488 120.76676,213.23092 z M 111.16029,212.68502 L 121.37665,42.137962 C 121.49052,40.134004 119.68271,38.412767 117.4463,38.285681 C 115.20989,38.158594 113.33441,39.377149 113.23345,41.153665 L 101.8516,212.74279 C 101.73773,214.74675 103.95156,215.90431 106.18797,216.0314 C 108.42437,216.15848 111.04642,214.68898 111.16029,212.68502 z M 101.81818,212.67284 L 113.22904,41.156271 C 113.32664,39.438744 111.86211,37.968353 109.94538,37.859432 C 108.02862,37.750509 106.30788,39.039895 106.21028,40.757422 L 93.538439,212.23494 C 93.440839,213.95247 95.832676,215.44295 97.749424,215.55187 C 99.666182,215.66079 101.72058,214.39037 101.81818,212.67284 z M 120.78828,213.23214 L 129.76026,42.614371 C 129.87414,40.610413 131.76624,39.099429 134.00265,39.226516 C 136.23907,39.353603 137.98105,40.484354 137.86717,42.488312 L 129.77345,214.20373 C 129.65957,216.2077 127.52221,217.24374 125.2858,217.11666 C 123.04939,216.98957 120.6744,215.2361 120.78828,213.23214 z M 129.77444,214.26149 L 137.86757,42.556386 C 137.96517,40.838859 139.58683,39.543844 141.50359,39.652766 C 143.42035,39.761688 144.88487,41.232079 144.78727,42.949607 L 138.27217,214.74438 C 138.17457,216.46191 135.64111,217.70511 133.72436,217.59619 C 131.8076,217.48727 129.67684,215.97902 129.77444,214.26149 z"
         style="opacity:1;fill:none;fill-opacity:1;fill-rule:evenodd;stroke:#c2b9a7;stroke-width:1;stroke-linecap:round;stroke-linejoin:miter;marker:none;marker-start:none;marker-mid:none;marker-end:none;stroke-miterlimit:4;stroke-dasharray:none;stroke-dashoffset:0;stroke-opacity:1;visibility:visible;display:inline;overflow:visible;enable-background:accumulate"
         id="rect4547" />
      <path
         sodipodi:nodetypes="ccccc"
         id="path3203"
         d="M 94.44361,220.12336 C 112.3227,220.86757 129.8384,221.52963 148.37471,223.07953 C 148.48171,223.78324 148.48445,224.28105 147.50724,224.88378 L 81.349464,221.02998 C 79.595306,219.40715 88.755713,219.8866 94.44361,220.12336 z"
         style="opacity:1;fill:#d4cdc3;fill-opacity:1;fill-rule:evenodd;stroke:none;stroke-width:2;stroke-linecap:butt;stroke-linejoin:miter;marker:none;marker-start:none;marker-mid:none;marker-end:none;stroke-miterlimit:4;stroke-dasharray:none;stroke-dashoffset:0;stroke-opacity:1;visibility:visible;display:inline;overflow:visible;enable-background:accumulate" />
      <path
         sodipodi:nodetypes="ccccc"
         id="path3240"
         d="M 80.288705,238.78795 C 75.718109,240.30773 74.273503,251.51048 71.973177,257.39932 C 72.697061,255.18024 72.932389,236.7143 73.261852,233.54961 L 154.18924,241.31718 C 129.98813,242.97608 102.64705,238.47319 80.288705,238.78795 z"
         style="opacity:1;fill:#ede9e4;fill-opacity:1;fill-rule:evenodd;stroke:none;stroke-width:2;stroke-linecap:butt;stroke-linejoin:miter;marker:none;marker-start:none;marker-mid:none;marker-end:none;stroke-miterlimit:4;stroke-dasharray:none;stroke-dashoffset:0;stroke-opacity:1;visibility:visible;display:inline;overflow:visible;enable-background:accumulate" />
      <path
         style="opacity:1;fill:#ede9e4;fill-opacity:1;fill-rule:evenodd;stroke:none;stroke-width:2;stroke-linecap:butt;stroke-linejoin:miter;marker:none;marker-start:none;marker-mid:none;marker-end:none;stroke-miterlimit:4;stroke-dasharray:none;stroke-dashoffset:0;stroke-opacity:1;visibility:visible;display:inline;overflow:visible;enable-background:accumulate"
         d="M 91.442888,231.52919 C 86.550369,231.33435 85.023576,231.25624 80.563189,230.87895 C 77.954393,229.11232 75.512668,226.71086 75.845846,221.56743 C 98.140948,221.88988 123.96014,223.6526 151.05715,225.25762 C 132.79636,226.85572 124.12466,224.81328 99.751609,225.79443 C 95.213335,225.97711 95.069616,231.11413 91.442888,231.52919 z"
         id="path3242"
         sodipodi:nodetypes="ccccsc" />
      <path
         style="opacity:1;fill:#d4cdc3;fill-opacity:1;fill-rule:evenodd;stroke:none;stroke-width:2;stroke-linecap:butt;stroke-linejoin:miter;marker:none;marker-start:none;marker-mid:none;marker-end:none;stroke-miterlimit:4;stroke-dasharray:none;stroke-dashoffset:0;stroke-opacity:1;visibility:visible;display:inline;overflow:visible;enable-background:accumulate"
         d="M 118.87369,225.58781 C 130.94258,226.4738 131.49369,226.34399 152.71354,227.34634 C 152.78767,228.997 148.96234,232.98002 147.80056,234.46755 L 80.188066,230.1866 C 96.309001,229.98364 118.56744,234.99795 118.87369,225.58781 z"
         id="path3201"
         sodipodi:nodetypes="ccccc" />
      <path
         style="opacity:1;fill:#ede9e4;fill-opacity:1;fill-rule:evenodd;stroke:none;stroke-width:2;stroke-linecap:butt;stroke-linejoin:miter;marker:none;marker-start:none;marker-mid:none;marker-end:none;stroke-miterlimit:4;stroke-dasharray:none;stroke-dashoffset:0;stroke-opacity:1;visibility:visible;display:inline;overflow:visible;enable-background:accumulate"
         d="M 86.812444,218.81728 C 83.05534,218.86349 82.347539,220.38512 80.657278,221.16761 C 81.174853,220.86714 80.878948,217.99105 81.030138,217.53504 L 148.40462,220.83807 C 148.28217,221.96524 148.27272,221.71557 148.10627,222.39575 C 137.40575,221.89058 97.715381,219.10871 86.812444,218.81728 z"
         id="path3244"
         sodipodi:nodetypes="cccccc" />
      <path
         sodipodi:nodetypes="ccccc"
         id="path3253"
         d="M 75.225451,230.64454 L 151.71395,236.39163 C 143.52995,236.93278 85.034864,231.78317 84.093164,234.28172 L 75.123438,233.73531 C 75.107807,232.95466 74.888574,231.93289 75.225451,230.64454 z"
         style="opacity:1;fill:#ede9e4;fill-opacity:1;fill-rule:evenodd;stroke:none;stroke-width:2;stroke-linecap:butt;stroke-linejoin:miter;marker:none;marker-start:none;marker-mid:none;marker-end:none;stroke-miterlimit:4;stroke-dasharray:none;stroke-dashoffset:0;stroke-opacity:1;visibility:visible;display:inline;overflow:visible;enable-background:accumulate" />
      <g
         transform="matrix(0.9967257,8.0739005e-2,-8.0219781e-2,0.9806611,15.119049,-9.3885776)"
         id="g3282"
         style="opacity:1">
        <path
           id="path3278"
           d="M 89.594087,94.355019 L 142.51581,94.355019"
           style="opacity:1;fill:none;fill-opacity:1;fill-rule:evenodd;stroke:#e4e0d9;stroke-width:1.00813472;stroke-linecap:butt;stroke-linejoin:miter;marker:none;marker-start:none;marker-mid:none;marker-end:none;stroke-miterlimit:4;stroke-dasharray:none;stroke-dashoffset:0;stroke-opacity:1;visibility:visible;display:inline;overflow:visible;enable-background:accumulate" />
        <path
           id="path3280"
           d="M 89.079544,92.922371 L 142.00127,92.922371"
           style="opacity:1;fill:#ede9e4;fill-opacity:1;fill-rule:evenodd;stroke:#d4cdc3;stroke-width:1.00813472;stroke-linecap:butt;stroke-linejoin:miter;marker:none;marker-start:none;marker-mid:none;marker-end:none;stroke-miterlimit:4;stroke-dasharray:none;stroke-dashoffset:0;stroke-opacity:1;visibility:visible;display:inline;overflow:visible;enable-background:accumulate" />
        <path
           style="opacity:1;fill:#ede9e4;fill-opacity:1;fill-rule:evenodd;stroke:#c2b9a7;stroke-width:1.00813472;stroke-linecap:butt;stroke-linejoin:miter;marker:none;marker-start:none;marker-mid:none;marker-end:none;stroke-miterlimit:4;stroke-dasharray:none;stroke-dashoffset:0;stroke-opacity:1;visibility:visible;display:inline;overflow:visible;enable-background:accumulate"
           d="M 89.173097,93.670797 L 142.09482,93.670797"
           id="path3275" />
      </g>
      <path
         style="opacity:1;fill:#d4cdc3;fill-opacity:1;fill-rule:evenodd;stroke:none;stroke-width:2;stroke-linecap:butt;stroke-linejoin:miter;marker:none;marker-start:none;marker-mid:none;marker-end:none;stroke-miterlimit:4;stroke-dasharray:none;stroke-dashoffset:0;stroke-opacity:1;visibility:visible;display:inline;overflow:visible;enable-background:accumulate"
         d="M 120.29897,237.10926 L 151.99921,239.14188 C 151.46467,238.02893 152.45241,238.20521 151.29389,236.86885 C 145.91443,237.16141 120.69648,234.60273 120.29897,237.10926 z"
         id="path3197"
         sodipodi:nodetypes="cccc" />
      <path
         style="opacity:1;fill:#d4cdc3;fill-opacity:1;fill-rule:evenodd;stroke:none;stroke-width:2;stroke-linecap:butt;stroke-linejoin:miter;marker:none;marker-start:none;marker-mid:none;marker-end:none;stroke-miterlimit:4;stroke-dasharray:none;stroke-dashoffset:0;stroke-opacity:1;visibility:visible;display:inline;overflow:visible;enable-background:accumulate"
         d="M 147.45278,253.07147 C 152.02337,251.5517 151.58817,247.78354 153.88849,241.89469 C 153.16461,244.11377 153.69527,260.75371 150.85281,262.6673 L 72.860343,258.10489 C 73.067188,257.90983 73.448347,254.95092 74.767267,252.45004 C 82.156753,251.95369 146.64296,254.77444 147.45278,253.07147 z"
         id="path3207"
         sodipodi:nodetypes="cccccc" />
      <path
         style="opacity:1;fill:#ede9e4;fill-opacity:1;fill-rule:evenodd;stroke:none;stroke-width:2;stroke-linecap:butt;stroke-linejoin:miter;marker:none;marker-start:none;marker-mid:none;marker-end:none;stroke-miterlimit:4;stroke-dasharray:none;stroke-dashoffset:0;stroke-opacity:1;visibility:visible;display:inline;overflow:visible;enable-background:accumulate"
         d="M 108.47089,26.192402 L 146.07354,28.2655 C 146.07354,28.2655 146.37972,29.617409 145.96315,30.074104 C 138.8177,30.083585 114.91028,28.433108 107.95312,28.896172 C 107.85207,28.673524 107.47849,26.406506 108.47089,26.192402 z"
         id="path4073"
         sodipodi:nodetypes="ccccc" />
      <path
         d="M 146.1348,30.936441 L 143.90874,29.017745 L 139.94419,31.226302 L 135.26911,28.526788 L 130.70654,30.811992 L 125.84547,27.902774 L 120.37054,30.224634 L 116.45252,27.435385 L 111.57936,29.614436 L 108.15917,27.118987 L 105.31929,29.037441 M 105.40015,25.820241 L 146.39487,28.149816 M 105.14046,30.390114 L 146.13518,32.719689 M 101.37832,34.54229 L 149.5885,37.281893"
         style="opacity:1;fill:none;fill-opacity:1;fill-rule:evenodd;stroke:#b8ae98;stroke-width:1;stroke-linecap:round;stroke-linejoin:miter;marker:none;marker-start:none;marker-mid:none;marker-end:none;stroke-miterlimit:4;stroke-dasharray:none;stroke-dashoffset:0;stroke-opacity:1;visibility:visible;display:inline;overflow:visible;enable-background:accumulate"
         id="path4051" />
      <path
         id="path4064"
         d="M 166.22701,9.5211587 C 154.49972,9.6654787 110.58134,8.5068897 95.74234,7.8007107 C 90.387603,7.8729397 87.329121,10.870666 88.434482,13.019508 C 90.545039,12.361405 90.471857,10.586439 98.416256,12.522521 C 106.92564,14.596291 122.77467,19.537 126.02082,19.725259 C 131.80056,20.060454 152.98064,17.204844 155.83711,16.098535 C 161.20313,16.955419 161.90109,17.829292 164.59356,19.53837 L 168.21562,11.981695 C 168.21561,11.981695 166.78117,10.025608 166.22701,9.5211587 z M 157.4134,17.001921 C 157.0645,16.987865 156.71436,16.989171 156.34906,17.004039 C 161.11512,17.400265 164.44365,21.148073 165.48341,25.911621 C 166.6206,31.121669 162.3188,36.322923 156.94205,37.414307 C 155.02632,37.803164 152.60505,37.698456 150.8964,36.945554 C 153.02972,38.447548 156.18728,39.605545 158.88315,39.058333 C 164.53906,37.910283 168.73843,31.507299 167.54258,26.028636 C 166.0445,20.626282 162.64687,17.212767 157.4134,17.001921 z M 157.13221,21.399301 C 156.91247,21.398697 156.67664,21.401723 156.44227,21.422695 C 164.36915,24.35381 161.92201,34.285067 153.33497,33.140277 C 154.40455,34.039501 156.14364,34.949837 157.59549,34.728304 C 160.78982,34.24089 163.54028,30.407547 162.99238,27.335087 C 162.10711,23.801736 160.42832,21.408365 157.13221,21.399301 z M 155.12548,23.664098 C 154.80265,23.635687 154.41608,23.651801 153.99875,23.66267 C 150.53075,23.752996 148.50957,27.511727 148.99753,30.702767 C 149.45664,33.70526 152.3804,36.548668 156.21064,35.964225 C 153.30137,35.637021 151.29639,33.54677 150.88901,30.465948 C 150.6144,25.660215 153.68264,23.834566 157.7778,24.910333 C 156.73706,24.078972 156.09401,23.749331 155.12548,23.664098 z M 155.1556,25.888139 C 155.76655,26.754837 157.94898,27.948566 155.26159,28.429495 C 152.70653,30.554492 154.82867,31.949921 157.0123,31.220817 C 160.23661,27.711812 157.78902,26.236828 155.1556,25.888139 z"
         style="opacity:1;fill:#d4cdc3;fill-opacity:1;fill-rule:evenodd;stroke:none;stroke-width:2;stroke-linecap:butt;stroke-linejoin:miter;marker:none;marker-start:none;marker-mid:none;marker-end:none;stroke-miterlimit:4;stroke-dasharray:none;stroke-dashoffset:0;stroke-opacity:1;visibility:visible;display:inline;overflow:visible;enable-background:accumulate" />
      <path
         sodipodi:nodetypes="csccccc"
         id="path4068"
         d="M 87.086473,13.955005 C 87.086473,13.955005 84.943064,7.6089027 85.235179,7.1068097 C 85.527294,6.6047177 88.907799,2.7769576 88.907799,2.7769576 L 165.52331,8.9461497 C 165.52331,8.9461497 98.917363,5.2564327 88.86776,7.5401627 C 88.232511,11.136915 88.633323,11.565788 89.081357,12.906524 C 88.520266,14.611353 87.086473,13.955005 87.086473,13.955005 z"
         style="opacity:1;fill:#ede9e4;fill-opacity:1;fill-rule:evenodd;stroke:none;stroke-width:2;stroke-linecap:butt;stroke-linejoin:miter;marker:none;marker-start:none;marker-mid:none;marker-end:none;stroke-miterlimit:4;stroke-dasharray:none;stroke-dashoffset:0;stroke-opacity:1;visibility:visible;display:inline;overflow:visible;enable-background:accumulate" />
      <path
         sodipodi:nodetypes="cc"
         id="path4076"
         d="M 85.715352,6.7862857 L 169.44546,12.552972"
         style="opacity:1;fill:#ede9e4;fill-opacity:1;fill-rule:evenodd;stroke:#b8ae98;stroke-width:1;stroke-linecap:butt;stroke-linejoin:miter;marker:none;marker-start:none;marker-mid:none;marker-end:none;stroke-miterlimit:4;stroke-dasharray:none;stroke-dashoffset:0;stroke-opacity:1;visibility:visible;display:inline;overflow:visible;enable-background:accumulate" />
      <path
         style="opacity:1;fill:#ede9e4;fill-opacity:1;fill-rule:evenodd;stroke:#b8ae98;stroke-width:1;stroke-linecap:butt;stroke-linejoin:miter;marker:none;marker-start:none;marker-mid:none;marker-end:none;stroke-miterlimit:4;stroke-dasharray:none;stroke-dashoffset:0;stroke-opacity:1;visibility:visible;display:inline;overflow:visible;enable-background:accumulate"
         d="M 109.22943,14.970769 L 144.67138,17.264182"
         id="path4078"
         sodipodi:nodetypes="cc" />
      <path
         sodipodi:nodetypes="ccccccscsccs"
         id="path4164"
         d="M 96.225188,12.523212 C 89.124472,12.396663 85.033199,14.510325 82.136368,20.973632 C 80.871082,23.860953 83.738108,32.244444 88.204441,33.997207 C 85.555205,31.217182 83.766806,26.331245 84.430507,22.772569 C 85.44546,16.293244 89.879806,14.362563 95.340861,14.110366 C 105.5334,14.985161 114.75931,19.752894 124.96626,20.807968 C 132.19503,21.564083 139.18386,21.098433 146.11897,19.341326 C 153.50444,17.470114 155.40154,17.976133 162.97799,18.456482 C 156.36098,16.201062 156.12644,15.284101 148.22434,16.907055 C 142.2559,18.13287 130.21883,19.757823 124.1047,19.057633 C 119.06523,18.668199 114.08764,17.539674 109.43299,15.611536 C 105.21632,13.877945 100.81297,12.604975 96.225188,12.523212 z"
         style="opacity:1;fill:#ede9e4;fill-opacity:1;fill-rule:evenodd;stroke:none;stroke-width:3;stroke-linecap:butt;stroke-linejoin:miter;marker:none;stroke-miterlimit:4;stroke-dasharray:none;stroke-dashoffset:0;stroke-opacity:1;visibility:visible;display:inline;overflow:visible;enable-background:accumulate" />
      <path
         sodipodi:nodetypes="ccsc"
         id="path4171"
         d="M 99.695463,19.349513 C 91.051729,17.770996 86.92375,24.86136 91.19607,30.925421 C 88.112241,29.785128 85.78959,23.917036 89.790682,19.7092 C 91.647627,17.756303 98.437905,16.543375 99.695463,19.349513 z"
         style="opacity:1;fill:#ede9e4;fill-opacity:1;fill-rule:evenodd;stroke:none;stroke-width:2;stroke-linecap:butt;stroke-linejoin:miter;marker:none;marker-start:none;marker-mid:none;marker-end:none;stroke-miterlimit:4;stroke-dasharray:none;stroke-dashoffset:0;stroke-opacity:1;visibility:visible;display:inline;overflow:visible;enable-background:accumulate" />
      <path
         style="opacity:1;fill:#ede9e4;fill-opacity:1;fill-rule:evenodd;stroke:none;stroke-width:2;stroke-linecap:butt;stroke-linejoin:miter;marker:none;marker-start:none;marker-mid:none;marker-end:none;stroke-miterlimit:4;stroke-dasharray:none;stroke-dashoffset:0;stroke-opacity:1;visibility:visible;display:inline;overflow:visible;enable-background:accumulate"
         d="M 97.76955,22.902276 C 95.305639,23.018316 93.650253,25.162356 94.841007,26.890858 C 93.778448,26.497959 92.698697,24.064115 94.07731,22.614268 C 94.717137,21.94138 97.336247,21.935395 97.76955,22.902276 z"
         id="path4173"
         sodipodi:nodetypes="ccsc" />
      <path
         sodipodi:nodetypes="cczc"
         id="path4177"
         d="M 157.65828,26.628415 C 154.54167,26.546732 151.81134,30.604386 152.96604,32.944529 C 151.71292,32.403603 150.66586,28.161022 151.8747,26.649405 C 153.08353,25.137786 157.15775,25.268929 157.65828,26.628415 z"
         style="opacity:1;fill:#ede9e4;fill-opacity:1;fill-rule:evenodd;stroke:none;stroke-width:2;stroke-linecap:butt;stroke-linejoin:miter;marker:none;marker-start:none;marker-mid:none;marker-end:none;stroke-miterlimit:4;stroke-dasharray:none;stroke-dashoffset:0;stroke-opacity:1;visibility:visible;display:inline;overflow:visible;enable-background:accumulate" />
      <path
         style="opacity:1;fill:#ede9e4;fill-opacity:1;fill-rule:evenodd;stroke:none;stroke-width:2;stroke-linecap:butt;stroke-linejoin:miter;marker:none;marker-start:none;marker-mid:none;marker-end:none;stroke-miterlimit:4;stroke-dasharray:none;stroke-dashoffset:0;stroke-opacity:1;visibility:visible;display:inline;overflow:visible;enable-background:accumulate"
         d="M 159.84791,22.534774 C 150.16398,20.80977 145.50286,30.349266 150.14304,36.465132 C 147.0592,35.324839 144.70807,27.498127 148.70917,23.290292 C 150.56611,21.337394 158.59035,19.728636 159.84791,22.534774 z"
         id="path4175"
         sodipodi:nodetypes="ccsc" />
      <path
         sodipodi:nodetypes="cccsssssssssccssssscscccccccccccccccccccccccccccc"
         d="M 102.96668,19.988387 C 119.87406,24.868673 135.09596,24.53596 149.59462,22.76775 M 156.61514,30.501345 C 157.9431,30.70227 158.89479,29.388429 158.87708,28.202715 C 158.8485,26.288847 156.92624,25.019752 155.10212,25.175316 C 152.54715,25.393212 150.90743,27.894451 151.22485,30.294929 C 151.63671,33.409571 154.81751,35.38274 157.86954,34.917039 C 161.6436,34.341167 164.00538,30.583547 163.36215,26.976446 C 162.59264,22.661201 158.12419,19.970941 153.84771,20.759623 C 148.85384,21.680613 145.76323,26.70932 146.73979,31.521199 C 147.85936,37.037741 153.62424,40.449075 159.12396,39.332733 C 165.33823,38.071348 169.16031,31.766059 167.84721,25.750175 C 166.3808,19.031903 159.31572,14.897704 152.5933,16.34393 C 131.57464,20.807664 122.54132,20.759577 101.44297,12.918557 C 94.927668,10.720082 85.174765,12.671013 82.88644,19.884791 C 80.598115,27.098569 85.07025,34.158385 91.101631,36.115646 C 96.439481,37.847846 103.11589,34.495138 104.85321,29.140943 C 106.3686,24.470672 103.87469,19.101189 99.010182,17.643413 C 89.260187,14.721576 82.969971,27.798987 92.592813,31.726301 C 98.591309,34.174434 104.15773,24.639414 97.263611,21.888572 C 95.468855,21.52736 93.415205,22.570519 93.169989,24.468829 C 93.018069,25.644904 93.814797,27.0581 95.156968,27.008909 M 79.730317,230.76528 C 76.178309,226.91101 72.896967,220.67646 76.662299,220.73895 L 153.94654,225.91305 C 157.36118,225.95188 152.3122,232.79242 149.78186,235.15387 M 80.948506,220.77615 L 81.170665,215.36745 L 149.51088,220.99833 L 149.3841,225.21524 M 84.946122,215.33951 C 92.565064,154.73925 96.535507,96.086444 99.705017,35.233354 M 152.21617,38.492442 C 147.59665,99.825954 145.55456,159.66671 146.05095,219.82457 M 72.465504,233.81361 L 155.85524,239.66362 L 153.9016,263.33065 L 70.650584,258.7302 L 72.465504,233.81361 z M 153.52015,239.26394 L 152.89642,235.73788 L 75.56353,230.87836 L 74.646806,233.69211 M 87.237893,13.789007 L 85.093845,6.7803227 L 89.086107,2.3980726 L 166.64833,8.1023697 L 170.30021,11.751952 L 166.07477,21.094495"
         style="opacity:1;fill:none;fill-opacity:1;fill-rule:evenodd;stroke:#a5987e;stroke-width:2;stroke-linecap:round;stroke-linejoin:miter;marker:none;marker-start:none;marker-mid:none;marker-end:none;stroke-miterlimit:4;stroke-dasharray:none;stroke-dashoffset:0;stroke-opacity:1;visibility:visible;display:inline;overflow:visible;enable-background:accumulate"
         id="path3255" />
    </g>
  </g>
</svg>
