<?xml version="1.0" encoding="UTF-8" standalone="no"?>
<!-- Created with Inkscape (http://www.inkscape.org/) -->
<svg
   xmlns:dc="http://purl.org/dc/elements/1.1/"
   xmlns:cc="http://creativecommons.org/ns#"
   xmlns:rdf="http://www.w3.org/1999/02/22-rdf-syntax-ns#"
   xmlns:svg="http://www.w3.org/2000/svg"
   xmlns="http://www.w3.org/2000/svg"
   xmlns:sodipodi="http://sodipodi.sourceforge.net/DTD/sodipodi-0.dtd"
   xmlns:inkscape="http://www.inkscape.org/namespaces/inkscape"
   id="svg2"
   sodipodi:version="0.32"
   inkscape:version="0.46"
   width="90"
   height="175"
   version="1.0"
   sodipodi:docname="Column03.svg"
   inkscape:output_extension="org.inkscape.output.svg.inkscape"
   inkscape:export-filename="/usr/share/games/hedgewars/Data/Themes/Olympics/Column03.png"
   inkscape:export-xdpi="90"
   inkscape:export-ydpi="90">
  <metadata
     id="metadata7">
    <rdf:RDF>
      <cc:Work
         rdf:about="">
        <dc:format>image/svg+xml</dc:format>
        <dc:type
           rdf:resource="http://purl.org/dc/dcmitype/StillImage" />
      </cc:Work>
    </rdf:RDF>
  </metadata>
  <defs
     id="defs5">
    <inkscape:perspective
       sodipodi:type="inkscape:persp3d"
       inkscape:vp_x="0 : 526.18109 : 1"
       inkscape:vp_y="0 : 1000 : 0"
       inkscape:vp_z="744.09448 : 526.18109 : 1"
       inkscape:persp3d-origin="372.04724 : 350.78739 : 1"
       id="perspective9" />
    <inkscape:perspective
       sodipodi:type="inkscape:persp3d"
       inkscape:vp_x="0 : 526.18109 : 1"
       inkscape:vp_y="0 : 1000 : 0"
       inkscape:vp_z="744.09448 : 526.18109 : 1"
       inkscape:persp3d-origin="372.04724 : 350.78739 : 1"
       id="perspective4637" />
    <inkscape:perspective
       id="perspective3969"
       inkscape:persp3d-origin="372.04724 : 350.78739 : 1"
       inkscape:vp_z="744.09448 : 526.18109 : 1"
       inkscape:vp_y="0 : 1000 : 0"
       inkscape:vp_x="0 : 526.18109 : 1"
       sodipodi:type="inkscape:persp3d" />
  </defs>
  <sodipodi:namedview
     inkscape:window-height="825"
     inkscape:window-width="1440"
     inkscape:pageshadow="2"
     inkscape:pageopacity="0.0"
     guidetolerance="10.0"
     gridtolerance="10.0"
     objecttolerance="10.0"
     borderopacity="1.0"
     bordercolor="#666666"
     pagecolor="#ffffff"
     id="base"
     showgrid="false"
     inkscape:zoom="1.3435029"
     inkscape:cx="135.71427"
     inkscape:cy="36.296945"
     inkscape:window-x="0"
     inkscape:window-y="25"
     inkscape:current-layer="layer1"
     showguides="true"
     inkscape:guide-bbox="true">
    <sodipodi:guide
       orientation="1,0"
       position="2.9772917,-33.494531"
       id="guide2415" />
    <sodipodi:guide
       orientation="1,0"
       position="86.899701,-42.426406"
       id="guide2417" />
  </sodipodi:namedview>
  <g
     inkscape:groupmode="layer"
     id="layer1"
     inkscape:label="main"
     style="display:inline">
    <g
       id="layer3"
       inkscape:label="tmp"
       style="display:inline"
       transform="translate(-6.2794864,-14.44835)" />
    <g
       id="g2398"
       transform="translate(-74.432292,-90.424277)">
      <path
         id="path2394"
         d="M 94.25,94.9375 C 93.951403,138.27911 92.743561,181.62714 89.625,224.96875 L 86.0625,224.96875 L 86.0625,229.34375 C 82.200465,230.21813 79.375,233.29875 79.375,236.96875 C 79.375,238.08186 79.80988,240.63592 80.28125,241.59375 L 78.375,241.40625 L 78.53125,267.71875 L 162.0625,267.71875 L 162.0625,240.09375 L 160.5,240.09375 C 160.97138,239.13593 161.25,238.08185 161.25,236.96875 C 161.25001,233.29876 158.39328,230.21812 154.53125,229.34375 L 154.53125,224.96875 L 150.96875,224.96875 C 148.85719,189.85723 147.75982,154.73829 147.21875,119.625 C 146.32194,119.37934 145.43195,119.10799 144.75,118.9375 C 143.62482,118.6562 142.8709,118.47554 141.59375,118.15625 C 140.08272,117.7785 138.60634,117.68284 137.375,117.375 C 135.50117,116.90654 135.66889,116.67559 135.25,115 C 134.89798,113.5919 133.77155,112.29309 133.15625,111.0625 C 132.63222,110.01442 132.12486,109.48434 131.0625,109.21875 C 130.25176,109.01606 129.11945,107.9816 128.40625,107.625 C 127.40645,107.1251 126.20987,107.07368 125.25,106.59375 C 124.21624,106.07687 123.2573,105.19115 122.375,104.75 C 121.43776,104.28138 119.85574,103.86537 118.9375,103.40625 C 117.98357,102.92929 116.40307,102.24762 115.53125,101.59375 C 114.20435,100.59858 113.64634,100.94895 112.90625,99.46875 C 112.3671,98.39046 111.08651,97.637003 110,97.09375 C 108.81203,96.499765 107.86356,96.379955 106.59375,96.0625 C 105.9106,95.891715 105.37482,95.562462 104.84375,95.21875 L 94.25,94.9375 z"
         style="fill:#e4e0d9;fill-opacity:1;fill-rule:evenodd;stroke:none;stroke-width:1;stroke-linecap:round;stroke-linejoin:miter;marker:none;marker-start:none;marker-mid:none;marker-end:none;stroke-miterlimit:4;stroke-dashoffset:0;stroke-opacity:1;visibility:visible;overflow:visible;enable-background:accumulate" />
      <path
         sodipodi:nodetypes="cccccccccscccccscccccccssccsccssccccccc"
         id="rect3209"
         d="M 100.78125,97.187158 L 98.71875,218.9375 C 98.718748,220.6859 99.549992,221.13799 100.9375,221.46875 C 101.24513,187.14657 101.64683,136.80294 102.15625,97.249658 L 100.78125,97.187158 z M 108.40625,98.826009 L 107.125,219.5 C 107.44588,220.9917 108.9182,221.73855 110.3125,221.8125 C 110.61502,188.06029 110.51303,139.13712 110.625,99.763509 C 110.41756,99.648438 110.20073,99.520124 110,99.419759 C 109.43901,99.139266 108.92296,98.970803 108.40625,98.826009 z M 116.6875,104.51422 L 116.375,220.21875 C 116.69588,221.71046 119.57445,222.3948 120.96875,222.46875 C 121.25627,190.38975 120.31093,144.68556 119.71875,105.98297 C 119.439,105.8781 119.15957,105.75026 118.9375,105.63922 C 118.32561,105.33328 117.46695,104.93598 116.6875,104.51422 z M 125,108.43787 L 125.34375,220.96875 C 125.24913,222.97948 120.0913,224.25103 117.59375,222.4375 L 117.28125,224.53125 L 149.25,224.53125 C 147.14075,189.35783 145.73092,156.02778 145.0625,120.84554 C 144.967,120.82012 144.83796,120.77378 144.75,120.75179 C 143.62482,120.47049 142.8709,120.28983 141.59375,119.97054 C 141.31043,119.89971 141.02903,119.83776 140.75,119.78304 L 142.625,219.75 C 142.62502,221.49843 139.87086,222.625 138.75,222.625 C 137.62914,222.62501 140.59375,221.21715 140.59375,219.46875 L 139.15625,119.34696 C 138.52801,119.24811 137.92582,119.14092 137.375,119.00321 C 135.50117,118.53475 134.73849,118.44336 134.3196,116.76777 C 133.98245,115.41918 133.87937,114.0319 133.25,112.84696 L 134.375,219.40625 C 134.37501,221.44624 131.13827,222.52399 129,222.625 C 130.18288,221.65016 131.125,221.00873 131.125,218.96875 L 130.6875,111.06287 C 129.93484,110.71169 129.01381,109.92915 128.40625,109.62537 C 126.95571,109.6356 126.13103,109.35412 125,108.43787 z"
         style="fill:#d4cdc3;fill-opacity:1;fill-rule:evenodd;stroke:none;stroke-width:2;stroke-linecap:butt;stroke-linejoin:miter;marker:none;marker-start:none;marker-mid:none;marker-end:none;stroke-miterlimit:4;stroke-dashoffset:0;stroke-opacity:1;visibility:visible;display:inline;overflow:visible;enable-background:accumulate" />
      <path
         sodipodi:nodetypes="ccsccccccccccccc"
         id="path3269"
         d="M 93.71875,94.90625 C 92.645354,146.0909 90.598995,218.03761 90.125,219.40625 C 90.124998,221.15465 92.0489,222.4375 93.96875,222.4375 C 95.888591,222.43751 98.21875,221.02965 98.21875,219.28125 L 100.21875,97.552197 C 101.62031,97.635993 103.35164,97.637347 104.3125,97.831318 C 104.06643,139.27085 104.41139,182.20885 102.03125,222.375 C 102.91932,222.37311 106.53125,221.3734 106.53125,219.625 L 106.9375,96.15625 L 100.28125,95.09375 L 93.71875,94.90625 z M 113.03125,99.6875 C 112.97607,140.46022 113.10916,182.37931 111.875,222.09375 C 112.76307,222.09185 114.75,221.3734 114.75,219.625 L 115.5,101.5625 C 114.27745,100.65927 113.70423,100.87237 113.03125,99.6875 z"
         style="fill:#ede9e4;fill-opacity:1;fill-rule:evenodd;stroke:none;stroke-width:2;stroke-linecap:butt;stroke-linejoin:miter;marker:none;marker-start:none;marker-mid:none;marker-end:none;stroke-miterlimit:4;stroke-dasharray:none;stroke-dashoffset:0;stroke-opacity:1;visibility:visible;display:inline;overflow:visible;enable-background:accumulate" />
      <g
         id="g3287"
         transform="matrix(1.0377192,-1.3636162e-2,1.3139378e-2,0.9999137,-1.1714592,67.513873)">
        <path
           id="path3289"
           d="M 89.594087,94.355019 L 142.51581,94.355019"
           style="opacity:1;fill:none;fill-opacity:1;fill-rule:evenodd;stroke:#e4e0d9;stroke-width:0.9816153;stroke-linecap:butt;stroke-linejoin:miter;marker:none;marker-start:none;marker-mid:none;marker-end:none;stroke-miterlimit:4;stroke-dasharray:none;stroke-dashoffset:0;stroke-opacity:1;visibility:visible;display:inline;overflow:visible;enable-background:accumulate" />
        <path
           id="path3291"
           d="M 89.079544,92.922371 L 142.00127,92.922371"
           style="opacity:1;fill:#ede9e4;fill-opacity:1;fill-rule:evenodd;stroke:#d4cdc3;stroke-width:0.9816153;stroke-linecap:butt;stroke-linejoin:miter;marker:none;marker-start:none;marker-mid:none;marker-end:none;stroke-miterlimit:4;stroke-dasharray:none;stroke-dashoffset:0;stroke-opacity:1;visibility:visible;display:inline;overflow:visible;enable-background:accumulate" />
        <path
           style="opacity:1;fill:#ede9e4;fill-opacity:1;fill-rule:evenodd;stroke:#c2b9a7;stroke-width:0.9816153;stroke-linecap:butt;stroke-linejoin:miter;marker:none;marker-start:none;marker-mid:none;marker-end:none;stroke-miterlimit:4;stroke-dasharray:none;stroke-dashoffset:0;stroke-opacity:1;visibility:visible;display:inline;overflow:visible;enable-background:accumulate"
           d="M 89.173097,93.670797 L 142.09482,93.670797"
           id="path3293" />
      </g>
      <path
         id="rect4547"
         style="fill:none;fill-opacity:1;fill-rule:evenodd;stroke:#c2b9a7;stroke-width:1;stroke-linecap:round;stroke-linejoin:miter;marker:none;marker-start:none;marker-mid:none;marker-end:none;stroke-miterlimit:4;stroke-dasharray:none;stroke-dashoffset:0;stroke-opacity:1;visibility:visible;display:inline;overflow:visible;enable-background:accumulate"
         d="M 140.93759,118.02813 L 142.88971,219.44934 C 142.88971,221.19774 140.43087,222.60529 138.51102,222.60529 C 136.59117,222.60529 134.37827,221.19774 134.37827,219.44934 C 133.98838,177.08816 134.13486,153.47699 133.43273,111.11581 M 133.38085,110.98597 L 134.37401,219.39079 C 134.37401,221.43077 132.29887,222.60529 130.05885,222.60529 C 127.81883,222.60529 125.34819,220.963 125.34819,218.92302 L 124.82879,106.31568 M 116.07791,102.50008 L 115.70021,218.92302 C 115.70021,220.963 118.22596,222.60529 120.46598,222.60529 C 122.70598,222.60529 125.32663,220.963 125.32663,218.92302 L 124.89317,106.38174 M 107.60186,96.7345 L 106.41425,219.51839 C 106.41425,221.55837 108.69019,222.60529 110.93021,222.60529 C 113.17022,222.60529 115.70467,220.963 115.70467,218.92302 L 116.15185,102.32989 M 98.085663,219.48242 C 98.085663,221.23082 100.55821,222.60529 102.47805,222.60529 C 104.3979,222.60529 106.37691,221.19774 106.37691,219.44934 L 107.57618,96.909872 M 150.61159,219.44934 C 150.61159,221.19774 148.67934,222.60529 146.75949,222.60529 C 144.83965,222.60529 142.87308,221.19774 142.87308,219.44934 L 141.00139,117.97206 M 89.956491,219.58967 C 89.956491,221.33807 91.888744,222.60529 93.808594,222.60529 C 95.728433,222.60529 98.069226,221.19774 98.069226,219.44934 L 100.15603,95.197774"
         sodipodi:nodetypes="ccsccccsccccsccccscccscccscccscc" />
      <path
         sodipodi:nodetypes="ccccc"
         id="path3201"
         d="M 97.621174,235.47838 C 118.06189,234.82749 138.08281,234.02935 159.32535,235.21847 C 159.49301,236.88912 159.5284,238.08092 158.45288,239.6573 L 81.35586,240.8868 C 79.249924,237.23921 91.118344,235.68543 97.621174,235.47838 z"
         style="fill:#d4cdc3;fill-opacity:1;fill-rule:evenodd;stroke:none;stroke-width:2;stroke-linecap:butt;stroke-linejoin:miter;marker:none;marker-start:none;marker-mid:none;marker-end:none;stroke-miterlimit:4;stroke-dasharray:none;stroke-dashoffset:0;stroke-opacity:1;visibility:visible;display:inline;overflow:visible;enable-background:accumulate" />
      <path
         style="fill:#d4cdc3;fill-opacity:1;fill-rule:evenodd;stroke:none;stroke-width:2;stroke-linecap:butt;stroke-linejoin:miter;marker:none;marker-start:none;marker-mid:none;marker-end:none;stroke-miterlimit:4;stroke-dasharray:none;stroke-dashoffset:0;stroke-opacity:1;visibility:visible;display:inline;overflow:visible;enable-background:accumulate"
         d="M 99.436924,227.4346 C 117.32944,227.15881 134.85449,226.82062 153.44887,227.32447 C 153.59563,228.03235 153.62661,228.53733 152.68517,229.20526 L 86.415306,229.10957 C 84.571902,227.56403 93.744756,227.52233 99.436924,227.4346 z"
         id="path3203"
         sodipodi:nodetypes="ccccc" />
      <path
         style="fill:#ede9e4;fill-opacity:1;fill-rule:evenodd;stroke:none;stroke-width:2;stroke-linecap:butt;stroke-linejoin:miter;marker:none;marker-start:none;marker-mid:none;marker-end:none;stroke-miterlimit:4;stroke-dasharray:none;stroke-dashoffset:0;stroke-opacity:1;visibility:visible;display:inline;overflow:visible;enable-background:accumulate"
         d="M 86.363749,247.18973 C 81.886739,248.99539 81.145833,259.85398 79.183313,265.96203 C 79.780133,263.66859 78.901633,245.50976 79.051018,242.27956 L 160.81507,240.75807 C 136.74705,243.83683 109.06296,243.2127 86.363749,247.18973 z"
         id="path3240"
         sodipodi:nodetypes="ccccc" />
      <path
         sodipodi:nodetypes="ccscc"
         id="path3242"
         d="M 86.760661,232.90087 C 82.28365,234.70653 82.336572,233.45927 80.374052,239.56732 C 79.250916,237.27388 80.002734,229.45394 86.393907,229.18143 C 124.55769,227.53717 129.10614,229.31374 156.25057,229.3799 C 167.30934,236.42779 109.45987,228.92384 86.760661,232.90087 z"
         style="fill:#ede9e4;fill-opacity:1;fill-rule:evenodd;stroke:none;stroke-width:2;stroke-linecap:butt;stroke-linejoin:miter;marker:none;marker-start:none;marker-mid:none;marker-end:none;stroke-miterlimit:4;stroke-dasharray:none;stroke-dashoffset:0;stroke-opacity:1;visibility:visible;display:inline;overflow:visible;enable-background:accumulate" />
      <path
         sodipodi:nodetypes="cccccc"
         id="path3244"
         d="M 91.74395,226.54934 C 87.995519,226.81287 87.375187,228.39768 85.732043,229.28914 C 86.231738,228.95441 85.773135,226.05311 85.89821,225.58167 L 153.35157,225.04834 C 153.29326,226.19913 153.26966,225.94634 153.14207,226.64612 C 142.43013,226.75053 102.64586,226.21638 91.74395,226.54934 z"
         style="fill:#ede9e4;fill-opacity:1;fill-rule:evenodd;stroke:none;stroke-width:2;stroke-linecap:butt;stroke-linejoin:miter;marker:none;marker-start:none;marker-mid:none;marker-end:none;stroke-miterlimit:4;stroke-dasharray:none;stroke-dashoffset:0;stroke-opacity:1;visibility:visible;display:inline;overflow:visible;enable-background:accumulate" />
      <path
         sodipodi:nodetypes="cccccc"
         id="path3207"
         d="M 154.23001,257.81041 C 158.70702,256.00475 158.05873,248.91683 160.02125,242.80878 C 159.42443,245.10222 160.8983,265.24562 158.16898,267.35123 L 80.043292,267.21892 C 80.238738,267.00907 80.45141,263.98469 81.626319,261.371 C 88.975742,260.44127 153.51811,259.58511 154.23001,257.81041 z"
         style="fill:#d4cdc3;fill-opacity:1;fill-rule:evenodd;stroke:none;stroke-width:2;stroke-linecap:butt;stroke-linejoin:miter;marker:none;marker-start:none;marker-mid:none;marker-end:none;stroke-miterlimit:4;stroke-dasharray:none;stroke-dashoffset:0;stroke-opacity:1;visibility:visible;display:inline;overflow:visible;enable-background:accumulate" />
      <path
         sodipodi:nodetypes="cccccccccccssssssssssssssccccccc"
         d="M 80.134223,241.31703 C 77.392709,233.98235 81.86406,229.84299 86.324677,229.08453 L 154.05527,229.87836 C 160.35086,230.09303 162.86223,234.67359 160.28386,240.47206 M 86.047111,230.08465 L 86.047111,224.95307 L 154.46514,224.3577 L 154.53129,230.08465 M 89.636803,224.29108 C 92.568098,180.74193 93.775811,138.26274 94.12322,94.920662 L 104.70587,95.40898 C 105.23694,95.752692 105.77272,96.081945 106.45586,96.25273 C 107.72567,96.570185 108.67414,96.689995 109.86211,97.28398 C 110.94862,97.827233 112.22921,98.58069 112.76836,99.65898 C 113.50845,101.13918 114.06646,100.78881 115.39336,101.78398 C 116.26518,102.43785 117.84568,103.11952 118.79961,103.59648 C 119.71785,104.0556 121.29987,104.47161 122.23711,104.94023 C 123.11941,105.38138 124.07835,106.2671 125.11211,106.78398 C 126.07198,107.26391 127.26856,107.31533 128.26836,107.81523 C 128.98156,108.17183 130.11387,109.20629 130.92461,109.40898 C 131.98697,109.67457 132.49433,110.20465 133.01836,111.25273 C 133.63366,112.48332 134.76009,113.78213 135.11211,115.19023 C 135.531,116.86582 135.36328,117.09677 137.23711,117.56523 C 138.46845,117.87307 139.94483,117.96873 141.45586,118.34648 C 142.73301,118.66577 143.48693,118.84643 144.61211,119.12773 C 145.29406,119.29822 146.18405,119.56957 146.92666,119.75527 C 147.37417,154.34386 148.76104,190.07686 150.94419,224.15566 M 78.534089,241.67231 L 162.04433,240.08466 L 161.2505,267.84854 L 77.872568,267.98084 L 78.534089,241.67231 z"
         style="fill:none;fill-opacity:1;fill-rule:evenodd;stroke:#a5987e;stroke-width:2;stroke-linecap:butt;stroke-linejoin:miter;marker:none;marker-start:none;marker-mid:none;marker-end:none;stroke-miterlimit:4;stroke-dasharray:none;stroke-dashoffset:0;stroke-opacity:1;visibility:visible;display:inline;overflow:visible;enable-background:accumulate"
         id="path4645" />
    </g>
  </g>
</svg>
