<?xml version="1.0" encoding="UTF-8" standalone="no"?>
<!-- Created with Inkscape (http://www.inkscape.org/) -->
<svg
   xmlns:dc="http://purl.org/dc/elements/1.1/"
   xmlns:cc="http://creativecommons.org/ns#"
   xmlns:rdf="http://www.w3.org/1999/02/22-rdf-syntax-ns#"
   xmlns:svg="http://www.w3.org/2000/svg"
   xmlns="http://www.w3.org/2000/svg"
   xmlns:sodipodi="http://sodipodi.sourceforge.net/DTD/sodipodi-0.dtd"
   xmlns:inkscape="http://www.inkscape.org/namespaces/inkscape"
   id="svg2"
   sodipodi:version="0.32"
   inkscape:version="0.46"
   width="2048"
   height="1024"
   version="1.0"
   sodipodi:docname="horizont.svg"
   inkscape:output_extension="org.inkscape.output.svg.inkscape"
   inkscape:export-filename="/usr/share/games/hedgewars/Data/Themes/Olympics/horizont.png"
   inkscape:export-xdpi="90"
   inkscape:export-ydpi="90"
   style="display:inline">
  <metadata
     id="metadata7">
    <rdf:RDF>
      <cc:Work
         rdf:about="">
        <dc:format>image/svg+xml</dc:format>
        <dc:type
           rdf:resource="http://purl.org/dc/dcmitype/StillImage" />
      </cc:Work>
    </rdf:RDF>
  </metadata>
  <defs
     id="defs5">
    <inkscape:perspective
       sodipodi:type="inkscape:persp3d"
       inkscape:vp_x="0 : 526.18109 : 1"
       inkscape:vp_y="0 : 1000 : 0"
       inkscape:vp_z="744.09448 : 526.18109 : 1"
       inkscape:persp3d-origin="372.04724 : 350.78739 : 1"
       id="perspective9" />
  </defs>
  <sodipodi:namedview
     inkscape:window-height="825"
     inkscape:window-width="1440"
     inkscape:pageshadow="2"
     inkscape:pageopacity="0.0"
     guidetolerance="10.0"
     gridtolerance="10.0"
     objecttolerance="10.0"
     borderopacity="1.0"
     bordercolor="#666666"
     pagecolor="#ffffff"
     id="base"
     showgrid="false"
     inkscape:zoom="0.19231371"
     inkscape:cx="1397.0313"
     inkscape:cy="561.96168"
     inkscape:window-x="0"
     inkscape:window-y="25"
     inkscape:current-layer="layer2" />
  <g
     inkscape:groupmode="layer"
     id="layer2"
     inkscape:label="main"
     style="display:inline">
    <path
       style="fill:#b9b48e;fill-opacity:1;fill-rule:evenodd;stroke:none;stroke-width:2;stroke-linecap:butt;stroke-linejoin:round;marker:none;marker-start:none;marker-mid:none;marker-end:none;stroke-miterlimit:4;stroke-dashoffset:0;stroke-opacity:1;visibility:visible;display:inline;overflow:visible;enable-background:accumulate"
       d="M 1475.5,569.28125 C 1398.2864,569.28125 1292.7136,571.87498 1215.5,571.875 C 1138.2863,571.875 988.55736,787.68752 911.34375,787.6875 C 834.13011,787.6875 800.07789,711.08435 663.0625,716.1875 C 523.45081,721.38734 347.68237,826.68752 270.46875,826.6875 C 169.39789,807.70833 61.717674,775.5902 -29.78125,731.6875 L -29.78125,1046.0625 L 2018.2188,1046.0625 L 2021.4375,1046.0625 L 2100.75,1046.0625 L 2100.75,766.65625 C 2073.8854,756.60788 2047.7408,745.66088 2022.75,733.84375 C 1984.6992,710.48074 1837.7523,594.36355 1739.1562,571.75 C 1626.0169,569.31368 1552.7137,569.28122 1475.5,569.28125 z"
       id="rect3181" />
    <path
       style="fill:#b9b48e;fill-opacity:1;fill-rule:evenodd;stroke:none;stroke-width:2;stroke-linecap:butt;stroke-linejoin:round;marker:none;marker-start:none;marker-mid:none;marker-end:none;stroke-miterlimit:4;stroke-dashoffset:0;stroke-opacity:1;visibility:visible;display:inline;overflow:visible;enable-background:accumulate"
       d="M 1236.3193,385.87265 L 1277.9697,385.87265 C 1279.9414,442.64794 1280.8629,499.42324 1277.9697,556.19853 L 1236.3193,556.19853 C 1232.7457,500.13795 1233.8043,443.15094 1236.3193,385.87265 z"
       id="rect3199"
       sodipodi:nodetypes="ccccc" />
    <path
       style="opacity:1;fill:#c4c0a0;fill-opacity:1;fill-rule:evenodd;stroke:none;stroke-width:2;stroke-linecap:butt;stroke-linejoin:round;marker:none;marker-start:none;marker-mid:none;marker-end:none;stroke-miterlimit:4;stroke-dasharray:none;stroke-dashoffset:0;stroke-opacity:1;visibility:visible;display:inline;overflow:visible;enable-background:accumulate"
       d="M 1236.3125,385.875 C 1233.7975,443.15329 1232.7389,500.1269 1236.3125,556.1875 L 1248.0312,556.1875 C 1244.4576,500.1269 1245.5162,443.15329 1248.0312,385.875 L 1236.3125,385.875 z"
       id="path3225" />
    <path
       sodipodi:nodetypes="ccccc"
       id="path3206"
       d="M 1298.1577,385.87265 L 1339.8081,385.87265 C 1341.7798,442.64794 1342.7013,499.42324 1339.8081,556.19853 L 1298.1577,556.19853 C 1294.5841,500.13795 1295.6427,443.15094 1298.1577,385.87265 z"
       style="fill:#b9b48e;fill-opacity:1;fill-rule:evenodd;stroke:none;stroke-width:2;stroke-linecap:butt;stroke-linejoin:round;marker:none;marker-start:none;marker-mid:none;marker-end:none;stroke-miterlimit:4;stroke-dashoffset:0;stroke-opacity:1;visibility:visible;display:inline;overflow:visible;enable-background:accumulate" />
    <path
       style="opacity:1;fill:#c4c0a0;fill-opacity:1;fill-rule:evenodd;stroke:none;stroke-width:2;stroke-linecap:butt;stroke-linejoin:round;marker:none;marker-start:none;marker-mid:none;marker-end:none;stroke-miterlimit:4;stroke-dasharray:none;stroke-dashoffset:0;stroke-opacity:1;visibility:visible;display:inline;overflow:visible;enable-background:accumulate"
       d="M 1298.1562,385.875 C 1295.6412,443.15329 1294.5826,500.1269 1298.1562,556.1875 L 1307.9062,556.1875 C 1304.3327,500.1269 1305.3912,443.15329 1307.9062,385.875 L 1298.1562,385.875 z"
       id="path3230" />
    <path
       sodipodi:nodetypes="ccccc"
       id="path3235"
       d="M 1348.3427,386.33226 L 1389.9931,386.33226 C 1391.9648,443.10755 1392.8863,499.88285 1389.9931,556.65814 L 1348.3427,556.65814 C 1344.7691,500.59756 1345.8277,443.61055 1348.3427,386.33226 z"
       style="opacity:1;fill:#cac6a8;fill-opacity:1;fill-rule:evenodd;stroke:none;stroke-width:2;stroke-linecap:butt;stroke-linejoin:round;marker:none;marker-start:none;marker-mid:none;marker-end:none;stroke-miterlimit:4;stroke-dasharray:none;stroke-dashoffset:0;stroke-opacity:1;visibility:visible;display:inline;overflow:visible;enable-background:accumulate" />
    <path
       sodipodi:nodetypes="ccccc"
       id="path3243"
       d="M 1475.6532,386.33226 L 1517.3036,386.33226 C 1519.2753,443.10755 1520.1968,499.88285 1517.3036,556.65814 L 1475.6532,556.65814 C 1472.0796,500.59756 1473.1382,443.61055 1475.6532,386.33226 z"
       style="opacity:1;fill:#cac6a8;fill-opacity:1;fill-rule:evenodd;stroke:none;stroke-width:2;stroke-linecap:butt;stroke-linejoin:round;marker:none;marker-start:none;marker-mid:none;marker-end:none;stroke-miterlimit:4;stroke-dasharray:none;stroke-dashoffset:0;stroke-opacity:1;visibility:visible;display:inline;overflow:visible;enable-background:accumulate" />
    <path
       style="opacity:1;fill:#cac6a8;fill-opacity:1;fill-rule:evenodd;stroke:none;stroke-width:2;stroke-linecap:butt;stroke-linejoin:round;marker:none;marker-start:none;marker-mid:none;marker-end:none;stroke-miterlimit:4;stroke-dasharray:none;stroke-dashoffset:0;stroke-opacity:1;visibility:visible;display:inline;overflow:visible;enable-background:accumulate"
       d="M 1416.3642,386.33226 L 1458.0146,386.33226 C 1459.9863,443.10755 1460.9078,499.88285 1458.0146,556.65814 L 1416.3642,556.65814 C 1412.7906,500.59756 1413.8492,443.61055 1416.3642,386.33226 z"
       id="path3241"
       sodipodi:nodetypes="ccccc" />
    <path
       style="opacity:1;fill:#cac6a8;fill-opacity:1;fill-rule:evenodd;stroke:none;stroke-width:2;stroke-linecap:butt;stroke-linejoin:round;marker:none;marker-start:none;marker-mid:none;marker-end:none;stroke-miterlimit:4;stroke-dasharray:none;stroke-dashoffset:0;stroke-opacity:1;visibility:visible;display:inline;overflow:visible;enable-background:accumulate"
       d="M 1541.8363,386.33226 L 1583.4867,386.33226 C 1585.4584,443.10755 1586.3799,499.88285 1583.4867,556.65814 L 1541.8363,556.65814 C 1538.2627,500.59756 1539.3213,443.61055 1541.8363,386.33226 z"
       id="path3245"
       sodipodi:nodetypes="ccccc" />
    <path
       sodipodi:nodetypes="ccccc"
       id="path3239"
       d="M 1573.5492,386.33226 L 1615.1996,386.33226 C 1617.1713,443.10755 1618.0928,499.88285 1615.1996,556.65814 L 1573.5492,556.65814 C 1569.9756,500.59756 1571.0342,443.61055 1573.5492,386.33226 z"
       style="fill:#a9a373;fill-opacity:1;fill-rule:evenodd;stroke:none;stroke-width:2;stroke-linecap:butt;stroke-linejoin:round;marker:none;marker-start:none;marker-mid:none;marker-end:none;stroke-miterlimit:4;stroke-dashoffset:0;stroke-opacity:1;visibility:visible;display:inline;overflow:visible;enable-background:accumulate" />
    <path
       style="fill:#a69f6e;fill-opacity:1;fill-rule:evenodd;stroke:none;stroke-width:2;stroke-linecap:butt;stroke-linejoin:round;marker:none;marker-start:none;marker-mid:none;marker-end:none;stroke-miterlimit:4;stroke-dashoffset:0;stroke-opacity:1;visibility:visible;display:inline;overflow:visible;enable-background:accumulate"
       d="M 1637.8939,386.33226 L 1679.5443,386.33226 C 1681.516,443.10755 1682.4375,499.88285 1679.5443,556.65814 L 1637.8939,556.65814 C 1634.3203,500.59756 1635.3789,443.61055 1637.8939,386.33226 z"
       id="path3237"
       sodipodi:nodetypes="ccccc" />
    <path
       style="opacity:1;fill:#b2ad82;fill-opacity:1;fill-rule:evenodd;stroke:none;stroke-width:2;stroke-linecap:butt;stroke-linejoin:round;marker:none;marker-start:none;marker-mid:none;marker-end:none;stroke-miterlimit:4;stroke-dasharray:none;stroke-dashoffset:0;stroke-opacity:1;visibility:visible;display:inline;overflow:visible;enable-background:accumulate"
       d="M 1258.6533,385.875 C 1260.6249,442.65029 1261.5464,499.41221 1258.6533,556.1875 L 1275.2188,556.1875 C 1278.1119,499.41221 1277.1904,442.65029 1275.2188,385.875 L 1258.6533,385.875 z"
       id="path3247"
       sodipodi:nodetypes="ccccc" />
    <path
       sodipodi:nodetypes="ccccc"
       id="path3252"
       d="M 1317.9424,385.875 C 1319.914,442.65029 1320.8355,499.41221 1317.9424,556.1875 L 1335.8867,556.1875 C 1338.7798,499.41221 1337.8583,442.65029 1335.8867,385.875 L 1317.9424,385.875 z"
       style="opacity:1;fill:#b2ad82;fill-opacity:1;fill-rule:evenodd;stroke:none;stroke-width:2;stroke-linecap:butt;stroke-linejoin:round;marker:none;marker-start:none;marker-mid:none;marker-end:none;stroke-miterlimit:4;stroke-dasharray:none;stroke-dashoffset:0;stroke-opacity:1;visibility:visible;display:inline;overflow:visible;enable-background:accumulate" />
    <rect
       y="329.28021"
       x="1201.1281"
       height="17.638056"
       width="564.41876"
       id="rect3192"
       style="opacity:1;fill:#b9b48e;fill-opacity:1;fill-rule:evenodd;stroke:none;stroke-width:2;stroke-linecap:butt;stroke-linejoin:round;marker:none;marker-start:none;marker-mid:none;marker-end:none;stroke-miterlimit:4;stroke-dasharray:none;stroke-dashoffset:0;stroke-opacity:1;visibility:visible;display:inline;overflow:visible;enable-background:accumulate" />
    <path
       style="fill:#b9b48e;fill-opacity:1;fill-rule:evenodd;stroke:none;stroke-width:2;stroke-linecap:butt;stroke-linejoin:round;marker:none;marker-start:none;marker-mid:none;marker-end:none;stroke-miterlimit:4;stroke-dashoffset:0;stroke-opacity:1;visibility:visible;display:inline;overflow:visible;enable-background:accumulate"
       d="M 1265.4727,249.50491 L 1298.0094,249.50491 L 1307.7591,255.27823 C 1428.4764,262.72019 1544.9558,261.68638 1658.7481,255.27823 L 1668.4978,249.50491 L 1701.2021,249.50491 L 1758.1931,331.29169 L 1208.4817,331.29169 L 1265.4727,249.50491 z"
       id="rect3194"
       sodipodi:nodetypes="ccccccccc" />
    <path
       style="fill:#b9b48e;fill-opacity:1;fill-rule:evenodd;stroke:none;stroke-width:2;stroke-linecap:butt;stroke-linejoin:round;marker:none;marker-start:none;marker-mid:none;marker-end:none;stroke-miterlimit:4;stroke-dashoffset:0;stroke-opacity:1;visibility:visible;display:inline;overflow:visible;enable-background:accumulate"
       d="M 1364.5922,385.87265 L 1406.2426,385.87265 C 1408.2143,442.64794 1409.1358,499.42324 1406.2426,556.19853 L 1364.5922,556.19853 C 1361.0186,500.13795 1362.0772,443.15094 1364.5922,385.87265 z"
       id="path3208"
       sodipodi:nodetypes="ccccc" />
    <path
       id="path3256"
       d="M 1365.0019,385.875 C 1362.4869,443.15329 1361.4283,500.1269 1365.0019,556.1875 L 1376.7206,556.1875 C 1373.147,500.1269 1374.2056,443.15329 1376.7206,385.875 L 1365.0019,385.875 z"
       style="opacity:1;fill:#c4c0a0;fill-opacity:1;fill-rule:evenodd;stroke:none;stroke-width:2;stroke-linecap:butt;stroke-linejoin:round;marker:none;marker-start:none;marker-mid:none;marker-end:none;stroke-miterlimit:4;stroke-dasharray:none;stroke-dashoffset:0;stroke-opacity:1;visibility:visible;display:inline;overflow:visible;enable-background:accumulate" />
    <path
       style="opacity:1;fill:#b2ad82;fill-opacity:1;fill-rule:evenodd;stroke:none;stroke-width:2;stroke-linecap:butt;stroke-linejoin:round;marker:none;marker-start:none;marker-mid:none;marker-end:none;stroke-miterlimit:4;stroke-dasharray:none;stroke-dashoffset:0;stroke-opacity:1;visibility:visible;display:inline;overflow:visible;enable-background:accumulate"
       d="M 1385.0447,384.95579 C 1387.0163,441.73108 1387.9378,498.493 1385.0447,555.26829 L 1402.989,555.26829 C 1405.8821,498.493 1404.9606,441.73108 1402.989,384.95579 L 1385.0447,384.95579 z"
       id="path3254"
       sodipodi:nodetypes="ccccc" />
    <path
       sodipodi:nodetypes="ccccc"
       id="path3210"
       d="M 1426.4307,385.87265 L 1468.0811,385.87265 C 1470.0528,442.64794 1470.9743,499.42324 1468.0811,556.19853 L 1426.4307,556.19853 C 1422.8571,500.13795 1423.9157,443.15094 1426.4307,385.87265 z"
       style="opacity:1;fill:#b2ad82;fill-opacity:1;fill-rule:evenodd;stroke:none;stroke-width:2;stroke-linecap:butt;stroke-linejoin:round;marker:none;marker-start:none;marker-mid:none;marker-end:none;stroke-miterlimit:4;stroke-dasharray:none;stroke-dashoffset:0;stroke-opacity:1;visibility:visible;display:inline;overflow:visible;enable-background:accumulate" />
    <path
       style="opacity:1;fill:#b2ad82;fill-opacity:1;fill-rule:evenodd;stroke:none;stroke-width:2;stroke-linecap:butt;stroke-linejoin:round;marker:none;marker-start:none;marker-mid:none;marker-end:none;stroke-miterlimit:4;stroke-dasharray:none;stroke-dashoffset:0;stroke-opacity:1;visibility:visible;display:inline;overflow:visible;enable-background:accumulate"
       d="M 1493.1883,385.87265 L 1534.8387,385.87265 C 1536.8104,442.64794 1537.7319,499.42324 1534.8387,556.19853 L 1493.1883,556.19853 C 1489.6147,500.13795 1490.6733,443.15094 1493.1883,385.87265 z"
       id="path3212"
       sodipodi:nodetypes="ccccc" />
    <path
       sodipodi:nodetypes="ccccc"
       id="path3214"
       d="M 1559.9459,385.87265 L 1601.5963,385.87265 C 1603.568,442.64794 1604.4895,499.42324 1601.5963,556.19853 L 1559.9459,556.19853 C 1556.3723,500.13795 1557.4309,443.15094 1559.9459,385.87265 z"
       style="opacity:1;fill:#b2ad82;fill-opacity:1;fill-rule:evenodd;stroke:none;stroke-width:2;stroke-linecap:butt;stroke-linejoin:round;marker:none;marker-start:none;marker-mid:none;marker-end:none;stroke-miterlimit:4;stroke-dasharray:none;stroke-dashoffset:0;stroke-opacity:1;visibility:visible;display:inline;overflow:visible;enable-background:accumulate" />
    <path
       sodipodi:nodetypes="ccccc"
       id="path3218"
       d="M 1696.4917,385.87265 L 1738.1421,385.87265 C 1740.1138,442.64794 1741.0353,499.42324 1738.1421,556.19853 L 1696.4917,556.19853 C 1692.9181,500.13795 1693.9767,443.15094 1696.4917,385.87265 z"
       style="opacity:1;fill:#b9b48e;fill-opacity:1;fill-rule:evenodd;stroke:none;stroke-width:2;stroke-linecap:butt;stroke-linejoin:round;marker:none;marker-start:none;marker-mid:none;marker-end:none;stroke-miterlimit:4;stroke-dasharray:none;stroke-dashoffset:0;stroke-opacity:1;visibility:visible;display:inline;overflow:visible;enable-background:accumulate" />
    <path
       style="opacity:1;fill:#b9b48e;fill-opacity:1;fill-rule:evenodd;stroke:none;stroke-width:2;stroke-linecap:butt;stroke-linejoin:round;marker:none;marker-start:none;marker-mid:none;marker-end:none;stroke-miterlimit:4;stroke-dasharray:none;stroke-dashoffset:0;stroke-opacity:1;visibility:visible;display:inline;overflow:visible;enable-background:accumulate"
       d="M 1628.2188,385.87265 L 1669.8692,385.87265 C 1671.8409,442.64794 1672.7624,499.42324 1669.8692,556.19853 L 1628.2188,556.19853 C 1624.6452,500.13795 1625.7038,443.15094 1628.2188,385.87265 z"
       id="path3216"
       sodipodi:nodetypes="ccccc" />
    <path
       style="opacity:1;fill:#b2ad82;fill-opacity:1;fill-rule:evenodd;stroke:none;stroke-width:2;stroke-linecap:butt;stroke-linejoin:round;marker:none;marker-start:none;marker-mid:none;marker-end:none;stroke-miterlimit:4;stroke-dasharray:none;stroke-dashoffset:0;stroke-opacity:1;visibility:visible;display:inline;overflow:visible;enable-background:accumulate"
       d="M 1702.3385,385.87265 L 1732.1648,385.87265 C 1733.5767,442.64794 1734.2366,499.42324 1732.1648,556.19853 L 1702.3385,556.19853 C 1699.7794,500.13795 1700.5375,443.15094 1702.3385,385.87265 z"
       id="path3287"
       sodipodi:nodetypes="ccccc" />
    <path
       style="fill:#b9b48e;fill-opacity:1;fill-rule:evenodd;stroke:none;stroke-width:2;stroke-linecap:butt;stroke-linejoin:round;marker:none;marker-start:none;marker-mid:none;marker-end:none;stroke-miterlimit:4;stroke-dashoffset:0;stroke-opacity:1;visibility:visible;display:inline;overflow:visible;enable-background:accumulate"
       d="M 1210.1576,549.34257 L 1346.5954,549.34257 L 1756.1921,549.34257 L 1756.3546,604.29706 L 1210.3201,604.29706 L 1210.1576,549.34257 z"
       id="rect3197"
       sodipodi:nodetypes="cccccc" />
    <path
       style="fill:#b9b48e;fill-opacity:1;fill-rule:evenodd;stroke:none;stroke-width:2;stroke-linecap:butt;stroke-linejoin:round;marker:none;marker-start:none;marker-mid:none;marker-end:none;stroke-miterlimit:4;stroke-dashoffset:0;stroke-opacity:1;visibility:visible;display:inline;overflow:visible;enable-background:accumulate"
       d="M 1210.3201,345.82599 L 1756.3546,345.82599 L 1756.3546,396.55561 L 1347.9463,392.64897 L 1210.3201,396.55561 L 1210.3201,345.82599 z"
       id="rect3190"
       sodipodi:nodetypes="cccccc" />
    <path
       style="fill:#c4c0a0;fill-opacity:1;fill-rule:evenodd;stroke:none;stroke-width:2;stroke-linecap:butt;stroke-linejoin:round;marker:none;marker-start:none;marker-mid:none;marker-end:none;stroke-miterlimit:4;stroke-dashoffset:0;stroke-opacity:1;visibility:visible;display:inline;overflow:visible;enable-background:accumulate"
       d="M 1215.5,571.875 C 1138.2863,571.875 988.55736,787.68752 911.34375,787.6875 C 901.20554,787.6875 891.82453,786.34541 882.84375,784.0625 C 905.97816,796.33233 927.98751,806.06249 955.46875,806.0625 C 1032.6824,806.06252 1182.4113,590.24998 1259.625,590.25 C 1270.7032,581.9142 1248.4555,571.875 1215.5,571.875 z M 675.625,715.9375 C 671.53991,715.94222 667.34423,716.02803 663.0625,716.1875 C 523.45081,721.38734 347.68237,826.68752 270.46875,826.6875 C 193.49328,812.23298 112.69993,790.12952 38.125,761.03125 C 124.18605,799.3351 222.15373,827.70402 314.59375,845.0625 C 391.80737,845.06252 567.57582,739.76232 707.1875,734.5625 C 746.35724,733.10362 777.08961,738.33372 802.84375,746.53125 C 771.09553,730.48215 732.7792,715.87143 675.625,715.9375 z M 2085.8125,760.9375 C 2090.7513,763.13812 2095.7361,765.30269 2100.75,767.4375 L 2100.75,766.65625 C 2095.7411,764.78272 2090.7686,762.87332 2085.8125,760.9375 z"
       id="path3220"
       sodipodi:nodetypes="cscscccscccscccccc" />
    <path
       style="fill:#c4c0a0;fill-opacity:1;fill-rule:evenodd;stroke:none;stroke-width:2;stroke-linecap:butt;stroke-linejoin:round;marker:none;marker-start:none;marker-mid:none;marker-end:none;stroke-miterlimit:4;stroke-dashoffset:0;stroke-opacity:1;visibility:visible;display:inline;overflow:visible;enable-background:accumulate"
       d="M 1210.3201,346.31348 L 1212.5371,346.31348 C 1214.9245,348.9134 1216.6336,357.02409 1220.6618,357.52563 L 1347.4844,357.52563 L 1347.4844,390.92884 L 1210.3201,394.60568 L 1210.3201,346.31348 z"
       id="rect3269"
       sodipodi:nodetypes="ccccccc" />
    <path
       style="fill:#b2ad82;fill-opacity:1;fill-rule:evenodd;stroke:none;stroke-width:2;stroke-linecap:butt;stroke-linejoin:round;marker:none;marker-start:none;marker-mid:none;marker-end:none;stroke-miterlimit:4;stroke-dashoffset:0;stroke-opacity:1;visibility:visible;display:inline;overflow:visible;enable-background:accumulate"
       d="M 1350.3906,357.85062 L 1751.7718,357.85062 L 1751.7718,394.60544 L 1350.3906,390.46899 L 1350.3906,357.85062 z"
       id="rect3271"
       sodipodi:nodetypes="ccccc" />
    <path
       style="fill:#b2ad82;fill-opacity:1;fill-rule:evenodd;stroke:none;stroke-width:2;stroke-linecap:butt;stroke-linejoin:round;marker:none;marker-start:none;marker-mid:none;marker-end:none;stroke-miterlimit:4;stroke-dashoffset:0;stroke-opacity:1;visibility:visible;display:inline;overflow:visible;enable-background:accumulate"
       d="M 1374.8417,571.1875 C 1589.2576,620.69728 1702.4415,678.96611 1717.2448,705.2504 C 1824.4969,895.68472 1374.4925,1037.4048 1401.3571,1047.4532 L 2100.75,1046.0625 L 2100.75,766.65625 C 2073.8854,756.60788 2047.7408,745.66088 2022.75,733.84375 C 1984.6992,710.48074 1837.7523,594.36355 1739.1562,571.75 C 1729.5467,571.54307 1383.9033,571.3612 1374.8417,571.1875 z M 698.85671,719.93599 C 755.51927,741.10965 711.84387,956.91248 763.15603,962.37023 C 840.93535,970.64312 1106.3815,916.9066 895.78596,799.40176 C 856.73179,780.0704 775.85094,721.36517 698.85671,719.93599 z M -29.78125,731.6875 L -29.78125,1050.2343 C 267.87705,1181.8664 386.03706,918.50667 197.65625,811.09375 C 197.82849,811.09375 198.01428,811.0948 198.1875,811.09375 C 119.52876,791.91181 40.148379,765.24089 -29.78125,731.6875 z"
       id="path3273"
       sodipodi:nodetypes="cscccccccsccccccc" />
    <path
       style="fill:#928b59;fill-opacity:0.18936875;fill-rule:evenodd;stroke:none;stroke-width:2;stroke-linecap:butt;stroke-linejoin:round;marker:none;marker-start:none;marker-mid:none;marker-end:none;stroke-miterlimit:4;stroke-dashoffset:0;stroke-opacity:1;visibility:visible;display:inline;overflow:visible;enable-background:accumulate"
       d="M 1210.3201,345.82599 L 1755.3892,345.82599 L 1755.3892,358.543 L 1221.0448,357.08055 L 1210.3201,345.82599 z"
       id="rect3281"
       sodipodi:nodetypes="ccccc" />
    <path
       style="opacity:1;fill:#c4c0a0;fill-opacity:1;fill-rule:evenodd;stroke:none;stroke-width:2;stroke-linecap:butt;stroke-linejoin:round;marker:none;marker-start:none;marker-mid:none;marker-end:none;stroke-miterlimit:4;stroke-dasharray:none;stroke-dashoffset:0;stroke-opacity:1;visibility:visible;display:inline;overflow:visible;enable-background:accumulate"
       d="M 1201.125,329.28125 L 1201.125,333.125 L 1201.125,346.46875 L 1353.463,346.46875 L 1353.463,333.125 L 1765.5625,333.125 L 1765.5625,329.28125 L 1353.463,329.28125 L 1201.125,329.28125 z"
       id="rect3279"
       sodipodi:nodetypes="ccccccccc" />
    <path
       sodipodi:nodetypes="ccccc"
       id="path3289"
       d="M 1634.6533,385.87265 L 1669.8692,385.87265 C 1671.8409,442.64794 1672.7624,499.42324 1669.8692,556.19853 L 1634.6533,556.19853 C 1631.0797,500.13795 1632.1383,443.15094 1634.6533,385.87265 z"
       style="opacity:1;fill:#b2ad82;fill-opacity:1;fill-rule:evenodd;stroke:none;stroke-width:2;stroke-linecap:butt;stroke-linejoin:round;marker:none;marker-start:none;marker-mid:none;marker-end:none;stroke-miterlimit:4;stroke-dasharray:none;stroke-dashoffset:0;stroke-opacity:1;visibility:visible;display:inline;overflow:visible;enable-background:accumulate" />
    <rect
       y="336.07629"
       x="1356.2405"
       height="7.8309588"
       width="406.58072"
       id="rect3291"
       style="opacity:1;fill:#b2ad82;fill-opacity:1;fill-rule:evenodd;stroke:none;stroke-width:2;stroke-linecap:butt;stroke-linejoin:round;marker:none;marker-start:none;marker-mid:none;marker-end:none;stroke-miterlimit:4;stroke-dasharray:none;stroke-dashoffset:0;stroke-opacity:1;visibility:visible;display:inline;overflow:visible;enable-background:accumulate" />
    <path
       style="opacity:1;fill:#b9b48e;fill-opacity:1;fill-rule:evenodd;stroke:none;stroke-width:2;stroke-linecap:butt;stroke-linejoin:round;marker:none;marker-start:none;marker-mid:none;marker-end:none;stroke-miterlimit:4;stroke-dasharray:none;stroke-dashoffset:0;stroke-opacity:1;visibility:visible;display:inline;overflow:visible;enable-background:accumulate"
       d="M 1211.0592,328.61759 L 1248.2873,264.27289"
       id="path3293" />
    <path
       style="opacity:1;fill:#c4c0a0;fill-opacity:1;fill-rule:evenodd;stroke:none;stroke-width:2;stroke-linecap:butt;stroke-linejoin:round;marker:none;marker-start:none;marker-mid:none;marker-end:none;stroke-miterlimit:4;stroke-dasharray:none;stroke-dashoffset:0;stroke-opacity:1;visibility:visible;display:inline;overflow:visible;enable-background:accumulate"
       d="M 1265.4688,249.5 L 1250.375,271.15625 L 1208.4688,331.28125 L 1346.6562,331.28125 L 1270.0312,253.21875 L 1294.9375,253.21875 L 1306.875,258.75 C 1427.8535,268.15424 1547.7284,266.52288 1666.9767,258.625 L 1708.5618,323.62924 L 1710.9477,322.86414 L 1671.6187,253.03125 L 1703.625,253 L 1701.1875,249.5 L 1668.5,249.5 L 1658.75,255.28125 C 1540.8833,261.34816 1423.8834,261.34729 1307.75,255.28125 L 1298,249.5 L 1266.375,249.5 L 1265.4688,249.5 z"
       id="path3295"
       sodipodi:nodetypes="ccccccccccccccccccc" />
    <path
       style="fill:#b2ad82;fill-opacity:1;fill-rule:evenodd;stroke:none;stroke-width:2;stroke-linecap:butt;stroke-linejoin:round;marker:none;marker-start:none;marker-mid:none;marker-end:none;stroke-miterlimit:4;stroke-dashoffset:0;stroke-opacity:1;visibility:visible;display:inline;overflow:visible;enable-background:accumulate"
       d="M 1309.0262,256.27791 C 1405.1242,344.97718 1576.3396,303.92829 1710.4073,327.04351 L 1377.7371,327.50312 L 1309.0262,256.27791 z"
       id="rect3306"
       sodipodi:nodetypes="cccc" />
    <path
       style="fill:#c4c0a0;fill-opacity:1;fill-rule:evenodd;stroke:none;stroke-width:2;stroke-linecap:butt;stroke-linejoin:round;marker:none;marker-start:none;marker-mid:none;marker-end:none;stroke-miterlimit:4;stroke-dashoffset:0;stroke-opacity:1;visibility:visible;display:inline;overflow:visible;enable-background:accumulate"
       d="M 1211.1326,549.66756 L 1342.9676,550.31754 C 1288.6342,554.95077 1216.8841,560.01053 1210.3201,576.99792 L 1211.1326,549.66756 z"
       id="rect3309"
       sodipodi:nodetypes="cccc" />
    <path
       sodipodi:nodetypes="cccc"
       id="path3311"
       d="M 1707.2739,261.56337 L 1754.0697,327.04351 L 1714.6276,327.50312 C 1730.857,305.5232 1713.4484,283.54329 1707.2739,261.56337 z"
       style="fill:#b2ad82;fill-opacity:1;fill-rule:evenodd;stroke:none;stroke-width:2;stroke-linecap:butt;stroke-linejoin:round;marker:none;marker-start:none;marker-mid:none;marker-end:none;stroke-miterlimit:4;stroke-dashoffset:0;stroke-opacity:1;visibility:visible;display:inline;overflow:visible;enable-background:accumulate" />
    <path
       sodipodi:nodetypes="ccccc"
       id="path3318"
       d="M 1354.9866,550.2446 L 1754.5294,550.2446 L 1754.5294,575.07675 L 1354.9866,572.28209 L 1354.9866,550.2446 z"
       style="fill:#b2ad82;fill-opacity:1;fill-rule:evenodd;stroke:none;stroke-width:2;stroke-linecap:butt;stroke-linejoin:round;marker:none;marker-start:none;marker-mid:none;marker-end:none;stroke-miterlimit:4;stroke-dashoffset:0;stroke-opacity:1;visibility:visible;display:inline;overflow:visible;enable-background:accumulate" />
  </g>
</svg>
