<?xml version="1.0" encoding="UTF-8"?>
<svg version="1.1" viewBox="0 0 774.7 782.4" xmlns="http://www.w3.org/2000/svg">
	<title>Hedgehog</title>
	<g transform="translate(-8.002 -7.051)">
		<g>
			<path d="m539.8 185-249.8-164c-10.12-6.647-18.53-1.406-18.78 8.935l-6.508 277.2" color="#000000" fill="#2c78d2"/>
			<path d="m480.1 181.8-162.9-107c-12.48-8.198-12.24-8.157-12.24 5.826l-4.243 180.7" color="#000000" fill="#54a2fa"/>
			<path d="m539.8 185-249.8-164c-10.12-6.647-18.53-1.406-18.78 8.935l-6.508 277.2" color="#000000" fill="none" stroke="#9f086e" stroke-linecap="round" stroke-linejoin="round" stroke-width="22"/>
		</g>
		<g>
			<path d="m394.5 176.7-298.1-20.7c-12.08-0.8389-16.85 7.85-11.99 16.98l130.1 244.9" color="#000000" fill="#54a2fa"/>
			<path d="m94.19 156c-10.46 0.2968-14.36 8.468-9.812 17.03l17.69 33.28 257 17.84 35.41-47.41-298.2-20.72c-0.755-0.0524-1.459-0.051-2.156-0.0313z" color="#000000" fill="#2c78d2"/>
			<path d="m394.5 176.7-298.1-20.7c-12.08-0.8389-16.85 7.85-11.99 16.98l130.1 244.9" color="#000000" fill="none" stroke="#9f086e" stroke-linecap="round" stroke-linejoin="round" stroke-width="22"/>
		</g>
		<g>
			<path d="m306 247.4-277.8 110.1c-11.26 4.461-11.8 14.36-3.483 20.5l223.1 164.7" color="#000000" fill="#54a2fa"/>
			<path d="m306 247.4-277.8 110.1c-11.26 4.461-11.79 14.36-3.469 20.5l37.5 27.69 230.6-91.38z" color="#000000" fill="#2c78d2"/>
			<path d="m306 247.4-277.8 110.1c-11.26 4.461-11.8 14.36-3.483 20.5l223.1 164.7" color="#000000" fill="none" stroke="#9f086e" stroke-linecap="round" stroke-linejoin="round" stroke-width="22"/>
		</g>
		<g>
			<path d="m228.8 338.7-175.3 242.1c-7.102 9.808-2.25 18.45 8.068 19.16l276.6 19.15" color="#000000" fill="#54a2fa"/>
			<path d="m228.8 338.7-175.3 242.1c-7.102 9.808-2.256 18.44 8.062 19.16l41.84 2.906 148.4-205z" color="#000000" fill="#2c78d2"/>
			<path d="m228.8 338.7-175.3 242.1c-7.102 9.808-2.25 18.45 8.068 19.16l276.6 19.15" color="#000000" fill="none" stroke="#9f086e" stroke-linecap="round" stroke-linejoin="round" stroke-width="22"/>
		</g>
		<g transform="matrix(.305 0 0 .2842 412.5 556.6)">
			<circle transform="matrix(1.117 0 0 1.117 -112.4 21.53)" cx="501" cy="441.4" r="237.4" color="#000000" fill="#f29ce7"/>
			<path transform="matrix(3.278 0 0 3.518 -1352 -1958)" d="m508.1 637.8c-23.96 13.09-40.06 37.31-40.06 65.06 0 41.63 36.23 75.41 80.91 75.41 42.43 0 77.22-30.44 80.62-69.16-12.12 21.11-36.01 35.47-63.5 35.47-39.75 0-71.97-30.02-71.97-67.06 0-14.87 5.213-28.6 14-39.72z" color="#000000" fill="#d66bcc"/>
			<circle transform="matrix(1.117 0 0 1.117 -112.4 21.53)" cx="501" cy="441.4" r="237.4" color="#000000" fill="none" stroke="#9f086e" stroke-linecap="round" stroke-linejoin="round" stroke-width="66.88"/>
		</g>
		<g transform="matrix(.305 0 0 .3091 272.8 537.3)">
			<circle transform="matrix(1.117 0 0 1.117 -112.4 21.53)" cx="501" cy="441.4" r="237.4" color="#000000" fill="#f29ce7"/>
			<path transform="matrix(3.278 0 0 3.235 -894.4 -1738)" d="m370.4 624.5c-25.06 13.93-42.06 40.92-42.06 71.94 0 45.28 36.23 81.97 80.91 81.97 39.39 0 72.19-28.53 79.41-66.31-13.44 16.96-34.06 27.84-57.19 27.84-40.5 0-73.31-33.27-73.31-74.31 0-15.2 4.519-29.35 12.25-41.12z" color="#000000" fill="#d66bcc"/>
			<circle transform="matrix(1.117 0 0 1.117 -112.4 21.53)" cx="501" cy="441.4" r="237.4" color="#000000" fill="none" stroke="#9f086e" stroke-linecap="round" stroke-linejoin="round" stroke-width="64.12"/>
		</g>
		<g transform="matrix(.3329 0 0 .3108 534.1 330.6)">
			<circle transform="matrix(1.117 0 0 1.117 -112.4 21.53)" cx="501" cy="441.4" r="237.4" color="#000000" fill="#f29ce7"/>
			<path transform="matrix(3.004 0 0 3.218 -1604 -1064)" d="m625.2 428.3c-18.64 15.11-30.44 37.36-30.44 62.22 0 45.52 39.52 82.44 88.28 82.44 43.93 0 80.37-29.96 87.16-69.19-15.5 12.57-35.7 20.19-57.84 20.19-48.76 0-88.31-36.92-88.31-82.44 0-4.505 0.4112-8.91 1.156-13.22z" color="#000000" fill="#d66bcc"/>
			<circle transform="matrix(1.117 0 0 1.117 -112.4 21.53)" cx="501" cy="441.4" r="237.4" color="#000000" fill="none" stroke="#9f086e" stroke-linecap="round" stroke-linejoin="round" stroke-width="61.22"/>
		</g>
		<g transform="translate(5.648 -85.93)">
			<circle transform="matrix(1.117 0 0 1.117 -112.4 21.53)" cx="501" cy="441.4" r="237.4" color="#000000" fill="#f29ce7"/>
			<path transform="translate(-5.648 85.93)" d="m300.8 211.6c-68.32 47.98-113 127.4-113 217.2 0 146.5 118.8 265.2 265.2 265.2 109.8 0 203.9-66.69 244.2-161.8-46.78 53.91-115.8 88-192.8 88-140.9 0-255.1-114.2-255.1-255.1 0-57.65 19.13-110.8 51.38-153.6z" color="#000000" fill="#d66bcc"/>
			<circle transform="matrix(1.117 0 0 1.117 -112.4 21.53)" cx="501" cy="441.4" r="237.4" color="#000000" fill="none" stroke="#9f086e" stroke-linecap="round" stroke-linejoin="round" stroke-width="19.69"/>
			<g>
				<ellipse transform="matrix(1.214 -.3295 .3295 1.214 -228.9 201.8)" cx="533.9" cy="356.1" rx="63.68" ry="82.37" color="#000000" fill="#fff"/>
				<ellipse transform="matrix(1.031 -.2408 .2408 1.031 -13.07 205.7)" cx="533.9" cy="356.1" rx="55.51" ry="82.37" color="#000000" fill="#fff"/>
				<ellipse transform="matrix(.467 -.01512 .01512 .467 296.7 307.7)" cx="533.9" cy="356.1" rx="63.68" ry="82.37" color="#000000"/>
				<ellipse transform="matrix(.4334 -.01404 .01404 .4334 401.5 306.2)" cx="533.9" cy="356.1" rx="63.68" ry="82.37" color="#000000"/>
			</g>
		</g>
		<g transform="matrix(.3372 0 0 .2958 129.8 456.3)">
			<circle transform="matrix(1.117 0 0 1.117 -112.4 21.53)" cx="501" cy="441.4" r="237.4" color="#000000" fill="#f29ce7"/>
			<path transform="matrix(2.965 0 0 3.381 -385 -1543)" d="m234 541.7c-25.64 13.79-42.75 38.56-42.75 66.88 0 43.32 40.04 78.47 89.44 78.47 45.82 0 83.61-30.23 88.84-69.19-13.97 21-39.9 35.12-69.62 35.12-44.5 0-80.59-31.63-80.59-70.66 0-15.13 5.454-29.13 14.69-40.62z" color="#000000" fill="#d66bcc"/>
			<circle transform="matrix(1.117 0 0 1.117 -112.4 21.53)" cx="501" cy="441.4" r="237.4" color="#000000" fill="none" stroke="#9f086e" stroke-linecap="round" stroke-linejoin="round" stroke-width="62.35"/>
		</g>
		<path d="m561.2 498.9c-8.08 4.388-2.824 17.08 9.091 18.56 31.06 3.849 81.39-18.33 94.33-49.03 3.26-7.732-2.86-10.93-5.438-7.79-5.407 6.586-15.69 16.18-30.98 25.24-24.59 14.57-58.4 8.344-67 13.02z" fill="#9f086e"/>
	</g>
</svg>
