<?xml version="1.0" encoding="UTF-8" standalone="no"?>
<!-- Created with Inkscape (http://www.inkscape.org/) -->

<svg
   xmlns:dc="http://purl.org/dc/elements/1.1/"
   xmlns:cc="http://creativecommons.org/ns#"
   xmlns:rdf="http://www.w3.org/1999/02/22-rdf-syntax-ns#"
   xmlns:svg="http://www.w3.org/2000/svg"
   xmlns="http://www.w3.org/2000/svg"
   xmlns:sodipodi="http://sodipodi.sourceforge.net/DTD/sodipodi-0.dtd"
   xmlns:inkscape="http://www.inkscape.org/namespaces/inkscape"
   id="svg2"
   version="1.1"
   inkscape:version="0.48.4 r9939"
   width="80"
   height="80"
   sodipodi:docname="Oreo.svg"
   inkscape:export-filename="/home/randi/.hedgewars/Data/Themes/Candy/Oreo2.png"
   inkscape:export-xdpi="90"
   inkscape:export-ydpi="90">
  <metadata
     id="metadata8">
    <rdf:RDF>
      <cc:Work
         rdf:about="">
        <dc:format>image/svg+xml</dc:format>
        <dc:type
           rdf:resource="http://purl.org/dc/dcmitype/StillImage" />
        <dc:title></dc:title>
      </cc:Work>
    </rdf:RDF>
  </metadata>
  <defs
     id="defs6" />
  <sodipodi:namedview
     pagecolor="#ffffff"
     bordercolor="#666666"
     borderopacity="1"
     objecttolerance="10"
     gridtolerance="10"
     guidetolerance="10"
     inkscape:pageopacity="0"
     inkscape:pageshadow="2"
     inkscape:window-width="1024"
     inkscape:window-height="522"
     id="namedview4"
     showgrid="false"
     inkscape:zoom="4.2870566"
     inkscape:cx="40"
     inkscape:cy="40"
     inkscape:window-x="0"
     inkscape:window-y="26"
     inkscape:window-maximized="1"
     inkscape:current-layer="svg2"
     inkscape:snap-midpoints="true" />
  <g
     id="g3278"
     style="fill:#ffff99;fill-opacity:1"
     transform="matrix(-0.29692414,0,0,0.26827459,135.99375,-6.6751861)">
    <ellipse
       ry="108.5"
       transform="matrix(0.95920549,0.28270979,-0.28270979,0.95920549,59.401377,-112.81822)"
       rx="81.329002"
       cy="203.5"
       cx="342.48001"
       id="imagebot_20-2"
       sodipodi:cx="342.48001"
       sodipodi:cy="203.5"
       sodipodi:rx="81.329002"
       sodipodi:ry="108.5"
       style="fill:#ffff99;fill-opacity:1;stroke:none"
       d="m 423.80901,203.5 c 0,59.9229 -36.41223,108.5 -81.329,108.5 -44.91677,0 -81.329,-48.5771 -81.329,-108.5 0,-59.9229 36.41223,-108.5 81.329,-108.5 44.91677,0 81.329,48.5771 81.329,108.5 z" />
    <ellipse
       ry="110.5"
       transform="matrix(0.93272716,0.36058293,-0.36058293,0.93272716,131.75764,-93.947601)"
       rx="75.445999"
       cy="183.5"
       cx="270.32999"
       id="imagebot_21-3"
       sodipodi:cx="270.32999"
       sodipodi:cy="183.5"
       sodipodi:rx="75.445999"
       sodipodi:ry="110.5"
       style="fill:#ffff99;fill-opacity:1;stroke:none"
       d="m 345.77599,183.5 c 0,61.02746 -33.77833,110.5 -75.446,110.5 -41.66768,0 -75.446,-49.47254 -75.446,-110.5 0,-61.02746 33.77832,-110.5 75.446,-110.5 41.66767,0 75.446,49.47254 75.446,110.5 z" />
    <ellipse
       ry="109.38"
       transform="matrix(0.93763437,0.34762307,-0.34762307,0.93763437,105.68575,-89.454289)"
       rx="70.5"
       cy="171.67"
       cx="276.5"
       id="imagebot_22-0"
       sodipodi:cx="276.5"
       sodipodi:cy="171.67"
       sodipodi:rx="70.5"
       sodipodi:ry="109.38"
       style="fill:#ffff99;fill-opacity:1;stroke:none"
       d="m 347,171.67 c 0,60.4089 -31.56393,109.38 -70.5,109.38 -38.93607,0 -70.5,-48.9711 -70.5,-109.38 0,-60.40891 31.56393,-109.379999 70.5,-109.379999 38.93607,0 70.5,48.971089 70.5,109.379999 z" />
    <ellipse
       ry="91.464996"
       transform="matrix(0.94774614,0.31902548,-0.31902548,0.94774614,214.87797,-24.736951)"
       rx="56.669998"
       cy="151.2"
       cx="143.36"
       id="imagebot_25-3"
       sodipodi:cx="143.36"
       sodipodi:cy="151.2"
       sodipodi:rx="56.669998"
       sodipodi:ry="91.464996"
       style="fill:#ffff99;fill-opacity:1;stroke:none"
       d="m 200.03,151.2 c 0,50.51472 -25.37202,91.46499 -56.67,91.46499 -31.29798,0 -56.669998,-40.95027 -56.669998,-91.46499 0,-50.51473 25.372018,-91.464999 56.669998,-91.464999 31.29798,0 56.67,40.950269 56.67,91.464999 z" />
    <path
       sodipodi:type="arc"
       style="opacity:0.84019997;fill:#ffff99;fill-opacity:1;stroke:none"
       id="path3159-46"
       sodipodi:cx="38.038055"
       sodipodi:cy="53.080761"
       sodipodi:rx="2.7588038"
       sodipodi:ry="2.0064027"
       d="m 40.796859,53.080761 c 0,1.108106 -1.235158,2.006403 -2.758804,2.006403 -1.523645,0 -2.758803,-0.898297 -2.758803,-2.006403 0,-1.108106 1.235158,-2.006403 2.758803,-2.006403 1.523646,0 2.758804,0.898297 2.758804,2.006403 z"
       transform="matrix(3.9493653,0,0,3.999128,131.32354,34.429695)" />
    <path
       sodipodi:type="arc"
       style="opacity:0.84019997;fill:#ffff99;fill-opacity:1;stroke:none"
       id="path3159-3-0"
       sodipodi:cx="38.038055"
       sodipodi:cy="53.080761"
       sodipodi:rx="2.7588038"
       sodipodi:ry="2.0064027"
       d="m 40.796859,53.080761 c 0,1.108106 -1.235158,2.006403 -2.758804,2.006403 -1.523645,0 -2.758803,-0.898297 -2.758803,-2.006403 0,-1.108106 1.235158,-2.006403 2.758803,-2.006403 1.523646,0 2.758804,0.898297 2.758804,2.006403 z"
       transform="matrix(3.9493653,0,0,3.999128,159.59591,24.984303)" />
    <path
       sodipodi:type="arc"
       style="opacity:0.84019997;fill:#ffff99;fill-opacity:1;stroke:none"
       id="path3159-4-8"
       sodipodi:cx="38.038055"
       sodipodi:cy="53.080761"
       sodipodi:rx="2.7588038"
       sodipodi:ry="2.0064027"
       d="m 40.796859,53.080761 c 0,1.108106 -1.235158,2.006403 -2.758804,2.006403 -1.523645,0 -2.758803,-0.898297 -2.758803,-2.006403 0,-1.108106 1.235158,-2.006403 2.758803,-2.006403 1.523646,0 2.758804,0.898297 2.758804,2.006403 z"
       transform="matrix(3.9493653,0,0,3.999128,103.36033,18.32487)" />
    <path
       sodipodi:type="arc"
       style="opacity:0.84019997;fill:#ffff99;fill-opacity:1;stroke:none"
       id="path3159-7-3"
       sodipodi:cx="38.038055"
       sodipodi:cy="53.080761"
       sodipodi:rx="2.7588038"
       sodipodi:ry="2.0064027"
       d="m 40.796859,53.080761 c 0,1.108106 -1.235158,2.006403 -2.758804,2.006403 -1.523645,0 -2.758803,-0.898297 -2.758803,-2.006403 0,-1.108106 1.235158,-2.006403 2.758803,-2.006403 1.523646,0 2.758804,0.898297 2.758804,2.006403 z"
       transform="matrix(3.9493653,0,0,3.999128,130.4491,8.6397186)" />
    <path
       sodipodi:type="arc"
       style="opacity:0.84019997;fill:#ffff99;fill-opacity:1;stroke:none"
       id="path3159-3-4-19"
       sodipodi:cx="38.038055"
       sodipodi:cy="53.080761"
       sodipodi:rx="2.7588038"
       sodipodi:ry="2.0064027"
       d="m 40.796859,53.080761 c 0,1.108106 -1.235158,2.006403 -2.758804,2.006403 -1.523645,0 -2.758803,-0.898297 -2.758803,-2.006403 0,-1.108106 1.235158,-2.006403 2.758803,-2.006403 1.523646,0 2.758804,0.898297 2.758804,2.006403 z"
       transform="matrix(3.9493653,0,0,3.999128,158.72146,-0.80567142)" />
    <path
       sodipodi:type="arc"
       style="opacity:0.84019997;fill:#ffff99;fill-opacity:1;stroke:none"
       id="path3159-4-9-9"
       sodipodi:cx="38.038055"
       sodipodi:cy="53.080761"
       sodipodi:rx="2.7588038"
       sodipodi:ry="2.0064027"
       d="m 40.796859,53.080761 c 0,1.108106 -1.235158,2.006403 -2.758804,2.006403 -1.523645,0 -2.758803,-0.898297 -2.758803,-2.006403 0,-1.108106 1.235158,-2.006403 2.758803,-2.006403 1.523646,0 2.758804,0.898297 2.758804,2.006403 z"
       transform="matrix(3.9493653,0,0,3.999128,102.48588,-7.4651114)" />
    <path
       sodipodi:type="arc"
       style="opacity:0.84019997;fill:#ffff99;fill-opacity:1;stroke:none"
       id="path3159-8-1"
       sodipodi:cx="38.038055"
       sodipodi:cy="53.080761"
       sodipodi:rx="2.7588038"
       sodipodi:ry="2.0064027"
       d="m 40.796859,53.080761 c 0,1.108106 -1.235158,2.006403 -2.758804,2.006403 -1.523645,0 -2.758803,-0.898297 -2.758803,-2.006403 0,-1.108106 1.235158,-2.006403 2.758803,-2.006403 1.523646,0 2.758804,0.898297 2.758804,2.006403 z"
       transform="matrix(3.9493653,0,0,3.999128,131.1005,-17.744916)" />
    <path
       sodipodi:type="arc"
       style="opacity:0.84019997;fill:#ffff99;fill-opacity:1;stroke:none"
       id="path3159-3-1-8"
       sodipodi:cx="38.038055"
       sodipodi:cy="53.080761"
       sodipodi:rx="2.7588038"
       sodipodi:ry="2.0064027"
       d="m 40.796859,53.080761 c 0,1.108106 -1.235158,2.006403 -2.758804,2.006403 -1.523645,0 -2.758803,-0.898297 -2.758803,-2.006403 0,-1.108106 1.235158,-2.006403 2.758803,-2.006403 1.523646,0 2.758804,0.898297 2.758804,2.006403 z"
       transform="matrix(3.9493653,0,0,3.999128,159.37286,-27.190306)" />
    <path
       sodipodi:type="arc"
       style="opacity:0.84019997;fill:#ffff99;fill-opacity:1;stroke:none"
       id="path3159-4-0-5"
       sodipodi:cx="38.038055"
       sodipodi:cy="53.080761"
       sodipodi:rx="2.7588038"
       sodipodi:ry="2.0064027"
       d="m 40.796859,53.080761 c 0,1.108106 -1.235158,2.006403 -2.758804,2.006403 -1.523645,0 -2.758803,-0.898297 -2.758803,-2.006403 0,-1.108106 1.235158,-2.006403 2.758803,-2.006403 1.523646,0 2.758804,0.898297 2.758804,2.006403 z"
       transform="matrix(3.9493653,0,0,3.999128,103.13728,-33.849746)" />
    <path
       sodipodi:type="arc"
       style="opacity:0.84019997;fill:#ffff99;fill-opacity:1;stroke:none"
       id="path3159-5-8"
       sodipodi:cx="38.038055"
       sodipodi:cy="53.080761"
       sodipodi:rx="2.7588038"
       sodipodi:ry="2.0064027"
       d="m 40.796859,53.080761 c 0,1.108106 -1.235158,2.006403 -2.758804,2.006403 -1.523645,0 -2.758803,-0.898297 -2.758803,-2.006403 0,-1.108106 1.235158,-2.006403 2.758803,-2.006403 1.523646,0 2.758804,0.898297 2.758804,2.006403 z"
       transform="matrix(3.9493653,0,0,3.999128,135.00895,-41.491087)" />
    <path
       sodipodi:type="arc"
       style="opacity:0.84019997;fill:#ffff99;fill-opacity:1;stroke:none"
       id="path3159-3-5-4"
       sodipodi:cx="38.038055"
       sodipodi:cy="53.080761"
       sodipodi:rx="2.7588038"
       sodipodi:ry="2.0064027"
       d="m 40.796859,53.080761 c 0,1.108106 -1.235158,2.006403 -2.758804,2.006403 -1.523645,0 -2.758803,-0.898297 -2.758803,-2.006403 0,-1.108106 1.235158,-2.006403 2.758803,-2.006403 1.523646,0 2.758804,0.898297 2.758804,2.006403 z"
       transform="matrix(3.9493653,0,0,3.999128,163.28131,-50.936477)" />
    <path
       sodipodi:type="arc"
       style="opacity:0.84019997;fill:#ffff99;fill-opacity:1;stroke:none"
       id="path3159-4-2-1"
       sodipodi:cx="38.038055"
       sodipodi:cy="53.080761"
       sodipodi:rx="2.7588038"
       sodipodi:ry="2.0064027"
       d="m 40.796859,53.080761 c 0,1.108106 -1.235158,2.006403 -2.758804,2.006403 -1.523645,0 -2.758803,-0.898297 -2.758803,-2.006403 0,-1.108106 1.235158,-2.006403 2.758803,-2.006403 1.523646,0 2.758804,0.898297 2.758804,2.006403 z"
       transform="matrix(3.9493653,0,0,3.999128,107.04573,-57.595917)" />
    <path
       sodipodi:type="arc"
       style="opacity:0.84019997;fill:#ffff99;fill-opacity:1;stroke:none"
       id="path3159-59-2"
       sodipodi:cx="38.038055"
       sodipodi:cy="53.080761"
       sodipodi:rx="2.7588038"
       sodipodi:ry="2.0064027"
       d="m 40.796859,53.080761 c 0,1.108106 -1.235158,2.006403 -2.758804,2.006403 -1.523645,0 -2.758803,-0.898297 -2.758803,-2.006403 0,-1.108106 1.235158,-2.006403 2.758803,-2.006403 1.523646,0 2.758804,0.898297 2.758804,2.006403 z"
       transform="matrix(3.9493653,0,0,3.999128,142.82585,-64.577643)" />
    <path
       sodipodi:type="arc"
       style="opacity:0.84019997;fill:#ffff99;fill-opacity:1;stroke:none"
       id="path3159-3-15-4"
       sodipodi:cx="38.038055"
       sodipodi:cy="53.080761"
       sodipodi:rx="2.7588038"
       sodipodi:ry="2.0064027"
       d="m 40.796859,53.080761 c 0,1.108106 -1.235158,2.006403 -2.758804,2.006403 -1.523645,0 -2.758803,-0.898297 -2.758803,-2.006403 0,-1.108106 1.235158,-2.006403 2.758803,-2.006403 1.523646,0 2.758804,0.898297 2.758804,2.006403 z"
       transform="matrix(3.9493653,0,0,3.999128,173.70384,-72.703801)" />
    <path
       sodipodi:type="arc"
       style="opacity:0.84019997;fill:#ffff99;fill-opacity:1;stroke:none"
       id="path3159-4-7-4"
       sodipodi:cx="38.038055"
       sodipodi:cy="53.080761"
       sodipodi:rx="2.7588038"
       sodipodi:ry="2.0064027"
       d="m 40.796859,53.080761 c 0,1.108106 -1.235158,2.006403 -2.758804,2.006403 -1.523645,0 -2.758803,-0.898297 -2.758803,-2.006403 0,-1.108106 1.235158,-2.006403 2.758803,-2.006403 1.523646,0 2.758804,0.898297 2.758804,2.006403 z"
       transform="matrix(3.9493653,0,0,3.999128,114.86263,-80.682473)" />
    <path
       sodipodi:type="arc"
       style="opacity:0.84019997;fill:#ffff99;fill-opacity:1;stroke:none"
       id="path3159-74-7"
       sodipodi:cx="38.038055"
       sodipodi:cy="53.080761"
       sodipodi:rx="2.7588038"
       sodipodi:ry="2.0064027"
       d="m 40.796859,53.080761 c 0,1.108106 -1.235158,2.006403 -2.758804,2.006403 -1.523645,0 -2.758803,-0.898297 -2.758803,-2.006403 0,-1.108106 1.235158,-2.006403 2.758803,-2.006403 1.523646,0 2.758804,0.898297 2.758804,2.006403 z"
       transform="matrix(3.9493653,0,0,3.999128,149.33992,-85.68535)" />
    <path
       sodipodi:type="arc"
       style="opacity:0.84019997;fill:#ffff99;fill-opacity:1;stroke:none"
       id="path3159-3-55-7"
       sodipodi:cx="38.038055"
       sodipodi:cy="53.080761"
       sodipodi:rx="2.7588038"
       sodipodi:ry="2.0064027"
       d="m 40.796859,53.080761 c 0,1.108106 -1.235158,2.006403 -2.758804,2.006403 -1.523645,0 -2.758803,-0.898297 -2.758803,-2.006403 0,-1.108106 1.235158,-2.006403 2.758803,-2.006403 1.523646,0 2.758804,0.898297 2.758804,2.006403 z"
       transform="matrix(3.9493653,0,0,3.999128,177.61229,-94.471124)" />
    <path
       sodipodi:type="arc"
       style="opacity:0.84019997;fill:#ffff99;fill-opacity:1;stroke:none"
       id="path3159-4-6-8"
       sodipodi:cx="38.038055"
       sodipodi:cy="53.080761"
       sodipodi:rx="2.7588038"
       sodipodi:ry="2.0064027"
       d="m 40.796859,53.080761 c 0,1.108106 -1.235158,2.006403 -2.758804,2.006403 -1.523645,0 -2.758803,-0.898297 -2.758803,-2.006403 0,-1.108106 1.235158,-2.006403 2.758803,-2.006403 1.523646,0 2.758804,0.898297 2.758804,2.006403 z"
       transform="matrix(3.9493653,0,0,3.999128,125.93656,-101.13056)" />
    <path
       sodipodi:type="arc"
       style="opacity:0.84019997;fill:#ffff99;fill-opacity:1;stroke:none"
       id="path3159-3-4-4-1"
       sodipodi:cx="38.038055"
       sodipodi:cy="53.080761"
       sodipodi:rx="2.7588038"
       sodipodi:ry="2.0064027"
       d="m 40.796859,53.080761 c 0,1.108106 -1.235158,2.006403 -2.758804,2.006403 -1.523645,0 -2.758803,-0.898297 -2.758803,-2.006403 0,-1.108106 1.235158,-2.006403 2.758803,-2.006403 1.523646,0 2.758804,0.898297 2.758804,2.006403 z"
       transform="matrix(3.9493653,0,0,3.999128,185.32194,-1.391544)" />
    <path
       sodipodi:type="arc"
       style="opacity:0.84019997;fill:#ffff99;fill-opacity:1;stroke:none"
       id="path3159-3-4-0-7"
       sodipodi:cx="38.038055"
       sodipodi:cy="53.080761"
       sodipodi:rx="2.7588038"
       sodipodi:ry="2.0064027"
       d="m 40.796859,53.080761 c 0,1.108106 -1.235158,2.006403 -2.758804,2.006403 -1.523645,0 -2.758803,-0.898297 -2.758803,-2.006403 0,-1.108106 1.235158,-2.006403 2.758803,-2.006403 1.523646,0 2.758804,0.898297 2.758804,2.006403 z"
       transform="matrix(3.9493653,0,0,3.999128,191.50215,-26.118866)" />
    <path
       sodipodi:type="arc"
       style="opacity:0.84019997;fill:#ffff99;fill-opacity:1;stroke:none"
       id="path3159-3-4-1-6"
       sodipodi:cx="38.038055"
       sodipodi:cy="53.080761"
       sodipodi:rx="2.7588038"
       sodipodi:ry="2.0064027"
       d="m 40.796859,53.080761 c 0,1.108106 -1.235158,2.006403 -2.758804,2.006403 -1.523645,0 -2.758803,-0.898297 -2.758803,-2.006403 0,-1.108106 1.235158,-2.006403 2.758803,-2.006403 1.523646,0 2.758804,0.898297 2.758804,2.006403 z"
       transform="matrix(3.9493653,0,0,3.999128,198.66764,-47.886189)" />
    <path
       sodipodi:type="arc"
       style="opacity:0.84019997;fill:#ffff99;fill-opacity:1;stroke:none"
       id="path3159-3-4-41-4"
       sodipodi:cx="38.038055"
       sodipodi:cy="53.080761"
       sodipodi:rx="2.7588038"
       sodipodi:ry="2.0064027"
       d="m 40.796859,53.080761 c 0,1.108106 -1.235158,2.006403 -2.758804,2.006403 -1.523645,0 -2.758803,-0.898297 -2.758803,-2.006403 0,-1.108106 1.235158,-2.006403 2.758803,-2.006403 1.523646,0 2.758804,0.898297 2.758804,2.006403 z"
       transform="matrix(3.9493653,0,0,3.999128,206.48454,-70.313129)" />
    <path
       sodipodi:type="arc"
       style="opacity:0.84019997;fill:#ffff99;fill-opacity:1;stroke:none"
       id="path3159-3-4-12-5"
       sodipodi:cx="38.038055"
       sodipodi:cy="53.080761"
       sodipodi:rx="2.7588038"
       sodipodi:ry="2.0064027"
       d="m 40.796859,53.080761 c 0,1.108106 -1.235158,2.006403 -2.758804,2.006403 -1.523645,0 -2.758803,-0.898297 -2.758803,-2.006403 0,-1.108106 1.235158,-2.006403 2.758803,-2.006403 1.523646,0 2.758804,0.898297 2.758804,2.006403 z"
       transform="matrix(3.9493653,0,0,3.999128,205.83313,-92.740068)" />
    <path
       sodipodi:type="arc"
       style="opacity:0.84019997;fill:#ffff99;fill-opacity:1;stroke:none"
       id="path3159-3-4-9-0"
       sodipodi:cx="38.038055"
       sodipodi:cy="53.080761"
       sodipodi:rx="2.7588038"
       sodipodi:ry="2.0064027"
       d="m 40.796859,53.080761 c 0,1.108106 -1.235158,2.006403 -2.758804,2.006403 -1.523645,0 -2.758803,-0.898297 -2.758803,-2.006403 0,-1.108106 1.235158,-2.006403 2.758803,-2.006403 1.523646,0 2.758804,0.898297 2.758804,2.006403 z"
       transform="matrix(3.9493653,0,0,3.999128,144.60077,-117.14586)" />
    <path
       sodipodi:type="arc"
       style="opacity:0.84019997;fill:#ffff99;fill-opacity:1;stroke:none"
       id="path3159-3-4-8-7"
       sodipodi:cx="38.038055"
       sodipodi:cy="53.080761"
       sodipodi:rx="2.7588038"
       sodipodi:ry="2.0064027"
       d="m 40.796859,53.080761 c 0,1.108106 -1.235158,2.006403 -2.758804,2.006403 -1.523645,0 -2.758803,-0.898297 -2.758803,-2.006403 0,-1.108106 1.235158,-2.006403 2.758803,-2.006403 1.523646,0 2.758804,0.898297 2.758804,2.006403 z"
       transform="matrix(3.9493653,0,0,3.999128,196.71341,-114.50739)" />
    <path
       sodipodi:type="arc"
       style="opacity:0.84019997;fill:#ffff99;fill-opacity:1;stroke:none"
       id="path3159-3-4-3-9"
       sodipodi:cx="38.038055"
       sodipodi:cy="53.080761"
       sodipodi:rx="2.7588038"
       sodipodi:ry="2.0064027"
       d="m 40.796859,53.080761 c 0,1.108106 -1.235158,2.006403 -2.758804,2.006403 -1.523645,0 -2.758803,-0.898297 -2.758803,-2.006403 0,-1.108106 1.235158,-2.006403 2.758803,-2.006403 1.523646,0 2.758804,0.898297 2.758804,2.006403 z"
       transform="matrix(3.9493653,0,0,3.999128,171.9599,-129.01894)" />
    <path
       sodipodi:type="arc"
       style="opacity:0.84019997;fill:#ffff99;fill-opacity:1;stroke:none"
       id="path3159-3-4-82-4"
       sodipodi:cx="38.038055"
       sodipodi:cy="53.080761"
       sodipodi:rx="2.7588038"
       sodipodi:ry="2.0064027"
       d="m 40.796859,53.080761 c 0,1.108106 -1.235158,2.006403 -2.758804,2.006403 -1.523645,0 -2.758803,-0.898297 -2.758803,-2.006403 0,-1.108106 1.235158,-2.006403 2.758803,-2.006403 1.523646,0 2.758804,0.898297 2.758804,2.006403 z"
       transform="matrix(3.9493653,0,0,3.999128,168.05146,-109.89008)" />
  </g>
  <ellipse
     style="fill:#f7dfc8;stroke:#f7dfc8;stroke-width:10;stroke-linecap:round;stroke-linejoin:round"
     sodipodi:ry="0"
     sodipodi:rx="17.5"
     sodipodi:cy="113"
     sodipodi:cx="246.5"
     id="imagebot_6"
     cx="246.5"
     cy="113"
     rx="17.5"
     ry="0"
     transform="matrix(0.25320524,0,0,0.25005451,-34.076507,-2.8364033)" />
  <g
     id="g3134"
     transform="matrix(-0.23874349,0,0,0.22667487,117.49362,0.74582116)">
    <ellipse
       ry="108.5"
       transform="matrix(0.95920549,0.28270979,-0.28270979,0.95920549,59.401377,-112.81822)"
       rx="81.329002"
       cy="203.5"
       cx="342.48001"
       id="imagebot_20"
       sodipodi:cx="342.48001"
       sodipodi:cy="203.5"
       sodipodi:rx="81.329002"
       sodipodi:ry="108.5"
       style="fill:#191919;stroke:#000000;stroke-width:10;stroke-linecap:round;stroke-linejoin:round;stroke-dasharray:none"
       d="m 423.80901,203.5 c 0,59.9229 -36.41223,108.5 -81.329,108.5 -44.91677,0 -81.329,-48.5771 -81.329,-108.5 0,-59.9229 36.41223,-108.5 81.329,-108.5 44.91677,0 81.329,48.5771 81.329,108.5 z" />
    <ellipse
       ry="110.5"
       transform="matrix(0.93272716,0.36058293,-0.36058293,0.93272716,131.75764,-93.947601)"
       rx="75.445999"
       cy="183.5"
       cx="270.32999"
       id="imagebot_21"
       sodipodi:cx="270.32999"
       sodipodi:cy="183.5"
       sodipodi:rx="75.445999"
       sodipodi:ry="110.5"
       style="fill:#ffffff;stroke:#e5e5e5;stroke-width:10;stroke-linecap:round;stroke-linejoin:round;stroke-dasharray:none"
       d="m 345.77599,183.5 c 0,61.02746 -33.77833,110.5 -75.446,110.5 -41.66768,0 -75.446,-49.47254 -75.446,-110.5 0,-61.02746 33.77832,-110.5 75.446,-110.5 41.66767,0 75.446,49.47254 75.446,110.5 z" />
    <ellipse
       ry="109.38"
       transform="matrix(0.93763437,0.34762307,-0.34762307,0.93763437,105.68575,-89.454289)"
       rx="70.5"
       cy="171.67"
       cx="276.5"
       id="imagebot_22"
       sodipodi:cx="276.5"
       sodipodi:cy="171.67"
       sodipodi:rx="70.5"
       sodipodi:ry="109.38"
       style="fill:#191919;stroke:#000000;stroke-width:10;stroke-linecap:round;stroke-linejoin:round;stroke-dasharray:none"
       d="m 347,171.67 c 0,60.4089 -31.56393,109.38 -70.5,109.38 -38.93607,0 -70.5,-48.9711 -70.5,-109.38 0,-60.40891 31.56393,-109.379999 70.5,-109.379999 38.93607,0 70.5,48.971089 70.5,109.379999 z" />
    <ellipse
       ry="91.464996"
       transform="matrix(0.94774614,0.31902548,-0.31902548,0.94774614,214.87797,-24.736951)"
       rx="56.669998"
       cy="151.2"
       cx="143.36"
       id="imagebot_25"
       sodipodi:cx="143.36"
       sodipodi:cy="151.2"
       sodipodi:rx="56.669998"
       sodipodi:ry="91.464996"
       style="fill:#191919;stroke:#191919;stroke-width:10;stroke-linecap:round;stroke-linejoin:round;stroke-dasharray:none"
       d="m 200.03,151.2 c 0,50.51472 -25.37202,91.46499 -56.67,91.46499 -31.29798,0 -56.669998,-40.95027 -56.669998,-91.46499 0,-50.51473 25.372018,-91.464999 56.669998,-91.464999 31.29798,0 56.67,40.950269 56.67,91.464999 z" />
    <path
       sodipodi:type="arc"
       style="opacity:0.84019997;fill:#000000;fill-opacity:1;stroke:none"
       id="path3159"
       sodipodi:cx="38.038055"
       sodipodi:cy="53.080761"
       sodipodi:rx="2.7588038"
       sodipodi:ry="2.0064027"
       d="m 40.796859,53.080761 c 0,1.108106 -1.235158,2.006403 -2.758804,2.006403 -1.523645,0 -2.758803,-0.898297 -2.758803,-2.006403 0,-1.108106 1.235158,-2.006403 2.758803,-2.006403 1.523646,0 2.758804,0.898297 2.758804,2.006403 z"
       transform="matrix(3.9493653,0,0,3.999128,131.32354,34.429695)" />
    <path
       sodipodi:type="arc"
       style="opacity:0.84019997;fill:#000000;fill-opacity:1;stroke:none"
       id="path3159-3"
       sodipodi:cx="38.038055"
       sodipodi:cy="53.080761"
       sodipodi:rx="2.7588038"
       sodipodi:ry="2.0064027"
       d="m 40.796859,53.080761 c 0,1.108106 -1.235158,2.006403 -2.758804,2.006403 -1.523645,0 -2.758803,-0.898297 -2.758803,-2.006403 0,-1.108106 1.235158,-2.006403 2.758803,-2.006403 1.523646,0 2.758804,0.898297 2.758804,2.006403 z"
       transform="matrix(3.9493653,0,0,3.999128,159.59591,24.984303)" />
    <path
       sodipodi:type="arc"
       style="opacity:0.84019997;fill:#000000;fill-opacity:1;stroke:none"
       id="path3159-4"
       sodipodi:cx="38.038055"
       sodipodi:cy="53.080761"
       sodipodi:rx="2.7588038"
       sodipodi:ry="2.0064027"
       d="m 40.796859,53.080761 c 0,1.108106 -1.235158,2.006403 -2.758804,2.006403 -1.523645,0 -2.758803,-0.898297 -2.758803,-2.006403 0,-1.108106 1.235158,-2.006403 2.758803,-2.006403 1.523646,0 2.758804,0.898297 2.758804,2.006403 z"
       transform="matrix(3.9493653,0,0,3.999128,103.36033,18.32487)" />
    <path
       sodipodi:type="arc"
       style="opacity:0.84019997;fill:#000000;fill-opacity:1;stroke:none"
       id="path3159-7"
       sodipodi:cx="38.038055"
       sodipodi:cy="53.080761"
       sodipodi:rx="2.7588038"
       sodipodi:ry="2.0064027"
       d="m 40.796859,53.080761 c 0,1.108106 -1.235158,2.006403 -2.758804,2.006403 -1.523645,0 -2.758803,-0.898297 -2.758803,-2.006403 0,-1.108106 1.235158,-2.006403 2.758803,-2.006403 1.523646,0 2.758804,0.898297 2.758804,2.006403 z"
       transform="matrix(3.9493653,0,0,3.999128,130.4491,8.6397186)" />
    <path
       sodipodi:type="arc"
       style="opacity:0.84019997;fill:#000000;fill-opacity:1;stroke:none"
       id="path3159-3-4"
       sodipodi:cx="38.038055"
       sodipodi:cy="53.080761"
       sodipodi:rx="2.7588038"
       sodipodi:ry="2.0064027"
       d="m 40.796859,53.080761 c 0,1.108106 -1.235158,2.006403 -2.758804,2.006403 -1.523645,0 -2.758803,-0.898297 -2.758803,-2.006403 0,-1.108106 1.235158,-2.006403 2.758803,-2.006403 1.523646,0 2.758804,0.898297 2.758804,2.006403 z"
       transform="matrix(3.9493653,0,0,3.999128,158.72146,-0.80567142)" />
    <path
       sodipodi:type="arc"
       style="opacity:0.84019997;fill:#000000;fill-opacity:1;stroke:none"
       id="path3159-4-9"
       sodipodi:cx="38.038055"
       sodipodi:cy="53.080761"
       sodipodi:rx="2.7588038"
       sodipodi:ry="2.0064027"
       d="m 40.796859,53.080761 c 0,1.108106 -1.235158,2.006403 -2.758804,2.006403 -1.523645,0 -2.758803,-0.898297 -2.758803,-2.006403 0,-1.108106 1.235158,-2.006403 2.758803,-2.006403 1.523646,0 2.758804,0.898297 2.758804,2.006403 z"
       transform="matrix(3.9493653,0,0,3.999128,102.48588,-7.4651114)" />
    <path
       sodipodi:type="arc"
       style="opacity:0.84019997;fill:#000000;fill-opacity:1;stroke:none"
       id="path3159-8"
       sodipodi:cx="38.038055"
       sodipodi:cy="53.080761"
       sodipodi:rx="2.7588038"
       sodipodi:ry="2.0064027"
       d="m 40.796859,53.080761 c 0,1.108106 -1.235158,2.006403 -2.758804,2.006403 -1.523645,0 -2.758803,-0.898297 -2.758803,-2.006403 0,-1.108106 1.235158,-2.006403 2.758803,-2.006403 1.523646,0 2.758804,0.898297 2.758804,2.006403 z"
       transform="matrix(3.9493653,0,0,3.999128,131.1005,-17.744916)" />
    <path
       sodipodi:type="arc"
       style="opacity:0.84019997;fill:#000000;fill-opacity:1;stroke:none"
       id="path3159-3-1"
       sodipodi:cx="38.038055"
       sodipodi:cy="53.080761"
       sodipodi:rx="2.7588038"
       sodipodi:ry="2.0064027"
       d="m 40.796859,53.080761 c 0,1.108106 -1.235158,2.006403 -2.758804,2.006403 -1.523645,0 -2.758803,-0.898297 -2.758803,-2.006403 0,-1.108106 1.235158,-2.006403 2.758803,-2.006403 1.523646,0 2.758804,0.898297 2.758804,2.006403 z"
       transform="matrix(3.9493653,0,0,3.999128,159.37286,-27.190306)" />
    <path
       sodipodi:type="arc"
       style="opacity:0.84019997;fill:#000000;fill-opacity:1;stroke:none"
       id="path3159-4-0"
       sodipodi:cx="38.038055"
       sodipodi:cy="53.080761"
       sodipodi:rx="2.7588038"
       sodipodi:ry="2.0064027"
       d="m 40.796859,53.080761 c 0,1.108106 -1.235158,2.006403 -2.758804,2.006403 -1.523645,0 -2.758803,-0.898297 -2.758803,-2.006403 0,-1.108106 1.235158,-2.006403 2.758803,-2.006403 1.523646,0 2.758804,0.898297 2.758804,2.006403 z"
       transform="matrix(3.9493653,0,0,3.999128,103.13728,-33.849746)" />
    <path
       sodipodi:type="arc"
       style="opacity:0.84019997;fill:#000000;fill-opacity:1;stroke:none"
       id="path3159-5"
       sodipodi:cx="38.038055"
       sodipodi:cy="53.080761"
       sodipodi:rx="2.7588038"
       sodipodi:ry="2.0064027"
       d="m 40.796859,53.080761 c 0,1.108106 -1.235158,2.006403 -2.758804,2.006403 -1.523645,0 -2.758803,-0.898297 -2.758803,-2.006403 0,-1.108106 1.235158,-2.006403 2.758803,-2.006403 1.523646,0 2.758804,0.898297 2.758804,2.006403 z"
       transform="matrix(3.9493653,0,0,3.999128,135.00895,-41.491087)" />
    <path
       sodipodi:type="arc"
       style="opacity:0.84019997;fill:#000000;fill-opacity:1;stroke:none"
       id="path3159-3-5"
       sodipodi:cx="38.038055"
       sodipodi:cy="53.080761"
       sodipodi:rx="2.7588038"
       sodipodi:ry="2.0064027"
       d="m 40.796859,53.080761 c 0,1.108106 -1.235158,2.006403 -2.758804,2.006403 -1.523645,0 -2.758803,-0.898297 -2.758803,-2.006403 0,-1.108106 1.235158,-2.006403 2.758803,-2.006403 1.523646,0 2.758804,0.898297 2.758804,2.006403 z"
       transform="matrix(3.9493653,0,0,3.999128,163.28131,-50.936477)" />
    <path
       sodipodi:type="arc"
       style="opacity:0.84019997;fill:#000000;fill-opacity:1;stroke:none"
       id="path3159-4-2"
       sodipodi:cx="38.038055"
       sodipodi:cy="53.080761"
       sodipodi:rx="2.7588038"
       sodipodi:ry="2.0064027"
       d="m 40.796859,53.080761 c 0,1.108106 -1.235158,2.006403 -2.758804,2.006403 -1.523645,0 -2.758803,-0.898297 -2.758803,-2.006403 0,-1.108106 1.235158,-2.006403 2.758803,-2.006403 1.523646,0 2.758804,0.898297 2.758804,2.006403 z"
       transform="matrix(3.9493653,0,0,3.999128,107.04573,-57.595917)" />
    <path
       sodipodi:type="arc"
       style="opacity:0.84019997;fill:#000000;fill-opacity:1;stroke:none"
       id="path3159-59"
       sodipodi:cx="38.038055"
       sodipodi:cy="53.080761"
       sodipodi:rx="2.7588038"
       sodipodi:ry="2.0064027"
       d="m 40.796859,53.080761 c 0,1.108106 -1.235158,2.006403 -2.758804,2.006403 -1.523645,0 -2.758803,-0.898297 -2.758803,-2.006403 0,-1.108106 1.235158,-2.006403 2.758803,-2.006403 1.523646,0 2.758804,0.898297 2.758804,2.006403 z"
       transform="matrix(3.9493653,0,0,3.999128,142.82585,-64.577643)" />
    <path
       sodipodi:type="arc"
       style="opacity:0.84019997;fill:#000000;fill-opacity:1;stroke:none"
       id="path3159-3-15"
       sodipodi:cx="38.038055"
       sodipodi:cy="53.080761"
       sodipodi:rx="2.7588038"
       sodipodi:ry="2.0064027"
       d="m 40.796859,53.080761 c 0,1.108106 -1.235158,2.006403 -2.758804,2.006403 -1.523645,0 -2.758803,-0.898297 -2.758803,-2.006403 0,-1.108106 1.235158,-2.006403 2.758803,-2.006403 1.523646,0 2.758804,0.898297 2.758804,2.006403 z"
       transform="matrix(3.9493653,0,0,3.999128,173.70384,-72.703801)" />
    <path
       sodipodi:type="arc"
       style="opacity:0.84019997;fill:#000000;fill-opacity:1;stroke:none"
       id="path3159-4-7"
       sodipodi:cx="38.038055"
       sodipodi:cy="53.080761"
       sodipodi:rx="2.7588038"
       sodipodi:ry="2.0064027"
       d="m 40.796859,53.080761 c 0,1.108106 -1.235158,2.006403 -2.758804,2.006403 -1.523645,0 -2.758803,-0.898297 -2.758803,-2.006403 0,-1.108106 1.235158,-2.006403 2.758803,-2.006403 1.523646,0 2.758804,0.898297 2.758804,2.006403 z"
       transform="matrix(3.9493653,0,0,3.999128,114.86263,-80.682473)" />
    <path
       sodipodi:type="arc"
       style="opacity:0.84019997;fill:#000000;fill-opacity:1;stroke:none"
       id="path3159-74"
       sodipodi:cx="38.038055"
       sodipodi:cy="53.080761"
       sodipodi:rx="2.7588038"
       sodipodi:ry="2.0064027"
       d="m 40.796859,53.080761 c 0,1.108106 -1.235158,2.006403 -2.758804,2.006403 -1.523645,0 -2.758803,-0.898297 -2.758803,-2.006403 0,-1.108106 1.235158,-2.006403 2.758803,-2.006403 1.523646,0 2.758804,0.898297 2.758804,2.006403 z"
       transform="matrix(3.9493653,0,0,3.999128,149.33992,-85.68535)" />
    <path
       sodipodi:type="arc"
       style="opacity:0.84019997;fill:#000000;fill-opacity:1;stroke:none"
       id="path3159-3-55"
       sodipodi:cx="38.038055"
       sodipodi:cy="53.080761"
       sodipodi:rx="2.7588038"
       sodipodi:ry="2.0064027"
       d="m 40.796859,53.080761 c 0,1.108106 -1.235158,2.006403 -2.758804,2.006403 -1.523645,0 -2.758803,-0.898297 -2.758803,-2.006403 0,-1.108106 1.235158,-2.006403 2.758803,-2.006403 1.523646,0 2.758804,0.898297 2.758804,2.006403 z"
       transform="matrix(3.9493653,0,0,3.999128,177.61229,-94.471124)" />
    <path
       sodipodi:type="arc"
       style="opacity:0.84019997;fill:#000000;fill-opacity:1;stroke:none"
       id="path3159-4-6"
       sodipodi:cx="38.038055"
       sodipodi:cy="53.080761"
       sodipodi:rx="2.7588038"
       sodipodi:ry="2.0064027"
       d="m 40.796859,53.080761 c 0,1.108106 -1.235158,2.006403 -2.758804,2.006403 -1.523645,0 -2.758803,-0.898297 -2.758803,-2.006403 0,-1.108106 1.235158,-2.006403 2.758803,-2.006403 1.523646,0 2.758804,0.898297 2.758804,2.006403 z"
       transform="matrix(3.9493653,0,0,3.999128,125.93656,-101.13056)" />
    <path
       sodipodi:type="arc"
       style="opacity:0.84019997;fill:#000000;fill-opacity:1;stroke:none"
       id="path3159-3-4-4"
       sodipodi:cx="38.038055"
       sodipodi:cy="53.080761"
       sodipodi:rx="2.7588038"
       sodipodi:ry="2.0064027"
       d="m 40.796859,53.080761 c 0,1.108106 -1.235158,2.006403 -2.758804,2.006403 -1.523645,0 -2.758803,-0.898297 -2.758803,-2.006403 0,-1.108106 1.235158,-2.006403 2.758803,-2.006403 1.523646,0 2.758804,0.898297 2.758804,2.006403 z"
       transform="matrix(3.9493653,0,0,3.999128,185.32194,-1.391544)" />
    <path
       sodipodi:type="arc"
       style="opacity:0.84019997;fill:#000000;fill-opacity:1;stroke:none"
       id="path3159-3-4-0"
       sodipodi:cx="38.038055"
       sodipodi:cy="53.080761"
       sodipodi:rx="2.7588038"
       sodipodi:ry="2.0064027"
       d="m 40.796859,53.080761 c 0,1.108106 -1.235158,2.006403 -2.758804,2.006403 -1.523645,0 -2.758803,-0.898297 -2.758803,-2.006403 0,-1.108106 1.235158,-2.006403 2.758803,-2.006403 1.523646,0 2.758804,0.898297 2.758804,2.006403 z"
       transform="matrix(3.9493653,0,0,3.999128,191.50215,-26.118866)" />
    <path
       sodipodi:type="arc"
       style="opacity:0.84019997;fill:#000000;fill-opacity:1;stroke:none"
       id="path3159-3-4-1"
       sodipodi:cx="38.038055"
       sodipodi:cy="53.080761"
       sodipodi:rx="2.7588038"
       sodipodi:ry="2.0064027"
       d="m 40.796859,53.080761 c 0,1.108106 -1.235158,2.006403 -2.758804,2.006403 -1.523645,0 -2.758803,-0.898297 -2.758803,-2.006403 0,-1.108106 1.235158,-2.006403 2.758803,-2.006403 1.523646,0 2.758804,0.898297 2.758804,2.006403 z"
       transform="matrix(3.9493653,0,0,3.999128,198.66764,-47.886189)" />
    <path
       sodipodi:type="arc"
       style="opacity:0.84019997;fill:#000000;fill-opacity:1;stroke:none"
       id="path3159-3-4-41"
       sodipodi:cx="38.038055"
       sodipodi:cy="53.080761"
       sodipodi:rx="2.7588038"
       sodipodi:ry="2.0064027"
       d="m 40.796859,53.080761 c 0,1.108106 -1.235158,2.006403 -2.758804,2.006403 -1.523645,0 -2.758803,-0.898297 -2.758803,-2.006403 0,-1.108106 1.235158,-2.006403 2.758803,-2.006403 1.523646,0 2.758804,0.898297 2.758804,2.006403 z"
       transform="matrix(3.9493653,0,0,3.999128,206.48454,-70.313129)" />
    <path
       sodipodi:type="arc"
       style="opacity:0.84019997;fill:#000000;fill-opacity:1;stroke:none"
       id="path3159-3-4-12"
       sodipodi:cx="38.038055"
       sodipodi:cy="53.080761"
       sodipodi:rx="2.7588038"
       sodipodi:ry="2.0064027"
       d="m 40.796859,53.080761 c 0,1.108106 -1.235158,2.006403 -2.758804,2.006403 -1.523645,0 -2.758803,-0.898297 -2.758803,-2.006403 0,-1.108106 1.235158,-2.006403 2.758803,-2.006403 1.523646,0 2.758804,0.898297 2.758804,2.006403 z"
       transform="matrix(3.9493653,0,0,3.999128,205.83313,-92.740068)" />
    <path
       sodipodi:type="arc"
       style="opacity:0.84019997;fill:#000000;fill-opacity:1;stroke:none"
       id="path3159-3-4-9"
       sodipodi:cx="38.038055"
       sodipodi:cy="53.080761"
       sodipodi:rx="2.7588038"
       sodipodi:ry="2.0064027"
       d="m 40.796859,53.080761 c 0,1.108106 -1.235158,2.006403 -2.758804,2.006403 -1.523645,0 -2.758803,-0.898297 -2.758803,-2.006403 0,-1.108106 1.235158,-2.006403 2.758803,-2.006403 1.523646,0 2.758804,0.898297 2.758804,2.006403 z"
       transform="matrix(3.9493653,0,0,3.999128,144.60077,-117.14586)" />
    <path
       sodipodi:type="arc"
       style="opacity:0.84019997;fill:#000000;fill-opacity:1;stroke:none"
       id="path3159-3-4-8"
       sodipodi:cx="38.038055"
       sodipodi:cy="53.080761"
       sodipodi:rx="2.7588038"
       sodipodi:ry="2.0064027"
       d="m 40.796859,53.080761 c 0,1.108106 -1.235158,2.006403 -2.758804,2.006403 -1.523645,0 -2.758803,-0.898297 -2.758803,-2.006403 0,-1.108106 1.235158,-2.006403 2.758803,-2.006403 1.523646,0 2.758804,0.898297 2.758804,2.006403 z"
       transform="matrix(3.9493653,0,0,3.999128,196.71341,-114.50739)" />
    <path
       sodipodi:type="arc"
       style="opacity:0.84019997;fill:#000000;fill-opacity:1;stroke:none"
       id="path3159-3-4-3"
       sodipodi:cx="38.038055"
       sodipodi:cy="53.080761"
       sodipodi:rx="2.7588038"
       sodipodi:ry="2.0064027"
       d="m 40.796859,53.080761 c 0,1.108106 -1.235158,2.006403 -2.758804,2.006403 -1.523645,0 -2.758803,-0.898297 -2.758803,-2.006403 0,-1.108106 1.235158,-2.006403 2.758803,-2.006403 1.523646,0 2.758804,0.898297 2.758804,2.006403 z"
       transform="matrix(3.9493653,0,0,3.999128,171.9599,-129.01894)" />
    <path
       sodipodi:type="arc"
       style="opacity:0.84019997;fill:#000000;fill-opacity:1;stroke:none"
       id="path3159-3-4-82"
       sodipodi:cx="38.038055"
       sodipodi:cy="53.080761"
       sodipodi:rx="2.7588038"
       sodipodi:ry="2.0064027"
       d="m 40.796859,53.080761 c 0,1.108106 -1.235158,2.006403 -2.758804,2.006403 -1.523645,0 -2.758803,-0.898297 -2.758803,-2.006403 0,-1.108106 1.235158,-2.006403 2.758803,-2.006403 1.523646,0 2.758804,0.898297 2.758804,2.006403 z"
       transform="matrix(3.9493653,0,0,3.999128,168.05146,-109.89008)" />
  </g>
</svg>
