<?xml version="1.0" encoding="UTF-8" standalone="no"?>
<!-- Created with Inkscape (http://www.inkscape.org/) -->

<svg
   xmlns:dc="http://purl.org/dc/elements/1.1/"
   xmlns:cc="http://creativecommons.org/ns#"
   xmlns:rdf="http://www.w3.org/1999/02/22-rdf-syntax-ns#"
   xmlns:svg="http://www.w3.org/2000/svg"
   xmlns="http://www.w3.org/2000/svg"
   xmlns:xlink="http://www.w3.org/1999/xlink"
   xmlns:sodipodi="http://sodipodi.sourceforge.net/DTD/sodipodi-0.dtd"
   xmlns:inkscape="http://www.inkscape.org/namespaces/inkscape"
   id="svg2"
   version="1.1"
   inkscape:version="0.48.4 r9939"
   width="160"
   height="500"
   sodipodi:docname="Splash.svg"
   inkscape:export-filename="/home/randi/.hedgewars/Data/Themes/Cake/Splash.png"
   inkscape:export-xdpi="90"
   inkscape:export-ydpi="90">
  <metadata
     id="metadata8">
    <rdf:RDF>
      <cc:Work
         rdf:about="">
        <dc:format>image/svg+xml</dc:format>
        <dc:type
           rdf:resource="http://purl.org/dc/dcmitype/StillImage" />
        <dc:title></dc:title>
      </cc:Work>
    </rdf:RDF>
  </metadata>
  <defs
     id="defs6">
    <inkscape:perspective
       sodipodi:type="inkscape:persp3d"
       inkscape:vp_x="0 : 0.5 : 1"
       inkscape:vp_y="0 : 1000 : 0"
       inkscape:vp_z="1 : 0.5 : 1"
       inkscape:persp3d-origin="0.5 : 0.33333333 : 1"
       id="perspective2848" />
    <inkscape:perspective
       sodipodi:type="inkscape:persp3d"
       inkscape:vp_x="0 : 0.5 : 1"
       inkscape:vp_y="0 : 1000 : 0"
       inkscape:vp_z="1 : 0.5 : 1"
       inkscape:persp3d-origin="0.5 : 0.33333333 : 1"
       id="perspective2851" />
    <inkscape:perspective
       sodipodi:type="inkscape:persp3d"
       inkscape:vp_x="0 : 0.5 : 1"
       inkscape:vp_y="0 : 1000 : 0"
       inkscape:vp_z="1 : 0.5 : 1"
       inkscape:persp3d-origin="0.5 : 0.33333333 : 1"
       id="perspective2837" />
    <linearGradient
       y2="48"
       x2="64"
       y1="39.058487"
       x1="64"
       gradientUnits="userSpaceOnUse"
       id="linearGradient3743"
       xlink:href="#linearGradient3718"
       inkscape:collect="always" />
    <linearGradient
       y2="48"
       x2="64"
       y1="39.058487"
       x1="64"
       gradientUnits="userSpaceOnUse"
       id="linearGradient3738"
       xlink:href="#linearGradient3718"
       inkscape:collect="always" />
    <linearGradient
       y2="48"
       x2="64"
       y1="39.058487"
       x1="64"
       gradientUnits="userSpaceOnUse"
       id="linearGradient3733"
       xlink:href="#linearGradient3718"
       inkscape:collect="always" />
    <linearGradient
       y2="48"
       x2="64"
       y1="39.058487"
       x1="64"
       gradientUnits="userSpaceOnUse"
       id="linearGradient3728"
       xlink:href="#linearGradient3718"
       inkscape:collect="always" />
    <linearGradient
       gradientUnits="userSpaceOnUse"
       y2="48"
       x2="64"
       y1="31.882462"
       x1="64"
       id="linearGradient3724"
       xlink:href="#linearGradient3605"
       inkscape:collect="always" />
    <inkscape:perspective
       id="perspective10"
       inkscape:persp3d-origin="0.5 : 0.33333333 : 1"
       inkscape:vp_z="1 : 0.5 : 1"
       inkscape:vp_y="0 : 1000 : 0"
       inkscape:vp_x="0 : 0.5 : 1"
       sodipodi:type="inkscape:persp3d" />
    <linearGradient
       id="linearGradient3706">
      <stop
         id="stop3708"
         offset="0"
         style="stop-color:#9aa3dc;stop-opacity:1;" />
      <stop
         id="stop3710"
         offset="1"
         style="stop-color:#9aa3dc;stop-opacity:0;" />
    </linearGradient>
    <linearGradient
       id="linearGradient3718">
      <stop
         id="stop3720"
         offset="0"
         style="stop-color:#545c9d;stop-opacity:1;" />
      <stop
         style="stop-color:#545c9d;stop-opacity:0.49803922;"
         offset="0.5"
         id="stop3603" />
      <stop
         id="stop3722"
         offset="1"
         style="stop-color:#545c9d;stop-opacity:0;" />
    </linearGradient>
    <linearGradient
       id="linearGradient3605">
      <stop
         style="stop-color:#545c9d;stop-opacity:1;"
         offset="0"
         id="stop3607" />
      <stop
         style="stop-color:#545c9d;stop-opacity:0.24705882;"
         offset="0.5907774"
         id="stop3613" />
      <stop
         style="stop-color:#545c9d;stop-opacity:0;"
         offset="1"
         id="stop3611" />
    </linearGradient>
    <linearGradient
       id="linearGradient3617">
      <stop
         id="stop3619"
         offset="0"
         style="stop-color:#5c0500;stop-opacity:1;" />
      <stop
         id="stop3621"
         offset="0.77644771"
         style="stop-color:#550502;stop-opacity:0.24705882;" />
      <stop
         id="stop3623"
         offset="1"
         style="stop-color:#4b0602;stop-opacity:0;" />
    </linearGradient>
    <linearGradient
       gradientTransform="matrix(1,0,0,2.7977291,-2.1118922,-84.521709)"
       gradientUnits="userSpaceOnUse"
       y2="53.688095"
       x2="67.920876"
       y1="42.525238"
       x1="67.903694"
       id="linearGradient3780"
       xlink:href="#linearGradient3774"
       inkscape:collect="always" />
    <linearGradient
       id="linearGradient3774">
      <stop
         id="stop3776"
         offset="0"
         style="stop-color:#ff9300;stop-opacity:1;" />
      <stop
         style="stop-color:#ff9300;stop-opacity:0.99607843;"
         offset="0.00048828"
         id="stop3802" />
      <stop
         style="stop-color:#ff9300;stop-opacity:0.99607843;"
         offset="0.00097656"
         id="stop3800" />
      <stop
         style="stop-color:#44ab00;stop-opacity:0.99607843;"
         offset="0.00195312"
         id="stop3798" />
      <stop
         style="stop-color:#ff9300;stop-opacity:0.99607843;"
         offset="0.00390625"
         id="stop3796" />
      <stop
         style="stop-color:#ff9300;stop-opacity:0.99215686;"
         offset="0.0078125"
         id="stop3794" />
      <stop
         style="stop-color:#ff9300;stop-opacity:0.98431373;"
         offset="0.015625"
         id="stop3792" />
      <stop
         style="stop-color:#ff9300;stop-opacity:0.96862745;"
         offset="0.03125"
         id="stop3790" />
      <stop
         style="stop-color:#ff9300;stop-opacity:0.9372549;"
         offset="0.0625"
         id="stop3788" />
      <stop
         style="stop-color:#ff9300;stop-opacity:0.8745098;"
         offset="0.17754041"
         id="stop3786" />
      <stop
         style="stop-color:#ff9300;stop-opacity:0.74901961;"
         offset="0.37418443"
         id="stop3784" />
      <stop
         style="stop-color:#fedbf8;stop-opacity:0"
         offset="0.5"
         id="stop3782" />
      <stop
         id="stop3778"
         offset="1"
         style="stop-color:#ff9300;stop-opacity:0;" />
    </linearGradient>
    <inkscape:perspective
       sodipodi:type="inkscape:persp3d"
       inkscape:vp_x="0 : 0.5 : 1"
       inkscape:vp_y="0 : 1000 : 0"
       inkscape:vp_z="1 : 0.5 : 1"
       inkscape:persp3d-origin="0.5 : 0.33333333 : 1"
       id="perspective2851-3" />
    <inkscape:perspective
       sodipodi:type="inkscape:persp3d"
       inkscape:vp_x="0 : 0.5 : 1"
       inkscape:vp_y="0 : 1000 : 0"
       inkscape:vp_z="1 : 0.5 : 1"
       inkscape:persp3d-origin="0.5 : 0.33333333 : 1"
       id="perspective2837-5" />
    <linearGradient
       y2="48"
       x2="64"
       y1="39.058487"
       x1="64"
       gradientUnits="userSpaceOnUse"
       id="linearGradient3743-7"
       xlink:href="#linearGradient3718-5"
       inkscape:collect="always" />
    <linearGradient
       y2="48"
       x2="64"
       y1="39.058487"
       x1="64"
       gradientUnits="userSpaceOnUse"
       id="linearGradient3738-6"
       xlink:href="#linearGradient3718-5"
       inkscape:collect="always" />
    <linearGradient
       y2="48"
       x2="64"
       y1="39.058487"
       x1="64"
       gradientUnits="userSpaceOnUse"
       id="linearGradient3733-1"
       xlink:href="#linearGradient3718-5"
       inkscape:collect="always" />
    <linearGradient
       y2="48"
       x2="64"
       y1="39.058487"
       x1="64"
       gradientUnits="userSpaceOnUse"
       id="linearGradient3728-0"
       xlink:href="#linearGradient3718-5"
       inkscape:collect="always" />
    <linearGradient
       gradientUnits="userSpaceOnUse"
       y2="48"
       x2="64"
       y1="31.882462"
       x1="64"
       id="linearGradient3724-8"
       xlink:href="#linearGradient3605-9"
       inkscape:collect="always" />
    <inkscape:perspective
       id="perspective10-1"
       inkscape:persp3d-origin="0.5 : 0.33333333 : 1"
       inkscape:vp_z="1 : 0.5 : 1"
       inkscape:vp_y="0 : 1000 : 0"
       inkscape:vp_x="0 : 0.5 : 1"
       sodipodi:type="inkscape:persp3d" />
    <linearGradient
       id="linearGradient3706-9">
      <stop
         id="stop3708-5"
         offset="0"
         style="stop-color:#9aa3dc;stop-opacity:1;" />
      <stop
         id="stop3710-4"
         offset="1"
         style="stop-color:#9aa3dc;stop-opacity:0;" />
    </linearGradient>
    <linearGradient
       id="linearGradient3718-5">
      <stop
         id="stop3720-7"
         offset="0"
         style="stop-color:#545c9d;stop-opacity:1;" />
      <stop
         style="stop-color:#545c9d;stop-opacity:0.49803922;"
         offset="0.5"
         id="stop3603-4" />
      <stop
         id="stop3722-2"
         offset="1"
         style="stop-color:#545c9d;stop-opacity:0;" />
    </linearGradient>
    <linearGradient
       id="linearGradient3605-9">
      <stop
         style="stop-color:#545c9d;stop-opacity:1;"
         offset="0"
         id="stop3607-4" />
      <stop
         style="stop-color:#545c9d;stop-opacity:0.24705882;"
         offset="0.5907774"
         id="stop3613-3" />
      <stop
         style="stop-color:#545c9d;stop-opacity:0;"
         offset="1"
         id="stop3611-3" />
    </linearGradient>
    <linearGradient
       id="linearGradient3617-5">
      <stop
         id="stop3619-3"
         offset="0"
         style="stop-color:#ff6200;stop-opacity:1;" />
      <stop
         id="stop3621-6"
         offset="0.52097768"
         style="stop-color:#ff6200;stop-opacity:0.24705882;" />
      <stop
         id="stop3623-5"
         offset="1"
         style="stop-color:#ff6200;stop-opacity:0;" />
    </linearGradient>
  </defs>
  <sodipodi:namedview
     pagecolor="#ffffff"
     bordercolor="#666666"
     borderopacity="1"
     objecttolerance="10"
     gridtolerance="10"
     guidetolerance="10"
     inkscape:pageopacity="0"
     inkscape:pageshadow="2"
     inkscape:window-width="1024"
     inkscape:window-height="522"
     id="namedview4"
     showgrid="false"
     inkscape:zoom="0.67665627"
     inkscape:cx="55.152765"
     inkscape:cy="461.34956"
     inkscape:window-x="0"
     inkscape:window-y="26"
     inkscape:window-maximized="1"
     inkscape:current-layer="svg2" />
  <g
     id="g4166"
     transform="translate(0,1)">
    <g
       transform="matrix(1.0075215,0,0,1,-1.023657,-1.2477538)"
       id="g3074">
      <path
         style="fill:#bb4b00;fill-opacity:1;fill-rule:evenodd;stroke:none"
         d="m 21.295625,500.21348 c -0.0024,-4.20042 0.05945,-6.39271 -1.292793,-9.4943 -4.619609,-4.06863 -0.306832,-8.84104 4.451392,-8.46278 3.425134,0.32851 1.953043,1.17025 5.998446,2.16699 7.918352,-2.18995 7.247275,-2.51622 12.843321,-0.3418 4.266851,1.65795 4.02667,-3.50847 7.996265,-2.04615 6.110478,2.25098 6.450795,4.01932 13.020656,2.05375 2.038667,-0.52552 4.17023,2.6697 3.509292,3.87722 -3.195314,5.8378 -4.00775,2.08432 -5.521203,7.69564 l -0.393921,4.55143 C 48.519597,500.28218 35.591328,500.26483 24.67274,500 z"
         id="path3834-5-8-2-3"
         inkscape:connector-curvature="0"
         sodipodi:nodetypes="ccccsscscccc" />
      <path
         style="fill:#a23c00;fill-opacity:1;fill-rule:evenodd;stroke:none"
         d="m 23.108743,500.21348 c -0.0021,-3.7632 0.137332,-5.53604 -1.0723,-8.31479 -4.13241,-3.64513 -0.274473,-7.92079 3.981934,-7.5819 3.063909,0.29432 1.747069,1.04844 5.365831,1.94143 7.083257,-1.962 6.482954,-2.25431 11.488824,-0.30622 3.816855,1.48538 3.384797,-2.18208 7.152953,-1.83317 5.051582,2.9051 5.770474,3.60095 11.647457,1.83998 1.823662,-0.47082 3.730424,2.39181 3.139191,3.47364 -2.858327,5.23016 -3.58508,1.86737 -4.93892,6.89462 l -0.352844,3.88641 c -12.449398,0.0615 -23.362267,0 -33.307021,0 z"
         id="path3834-5-8-2-3-1"
         inkscape:connector-curvature="0"
         sodipodi:nodetypes="ccccsccscccc" />
      <path
         style="fill:#6d1300;fill-opacity:1;fill-rule:evenodd;stroke:none"
         d="m 25.032047,500.21348 c -0.0019,-3.23853 0.401689,-6.10129 -0.665331,-8.49264 -3.645212,-3.13694 -1.17843,-4.85022 2.576159,-4.55858 2.702683,0.25329 1.915622,0.52774 5.107744,1.29623 6.248163,-1.68846 5.718633,-1.75276 10.134327,-0.0763 3.366859,1.27829 4.202951,-1.31607 7.526853,-1.0158 4.456016,2.50008 4.153836,2.91165 9.337941,1.39619 1.608657,-0.40518 2.260669,1.49656 1.73914,2.42757 -2.521338,4.50098 -2.13246,1.13886 -3.326687,5.46522 l -0.310832,3.55811 C 46.169708,500.26641 36.543022,500 27.770723,500 z"
         id="path3834-5-8-2-3-1-9"
         inkscape:connector-curvature="0"
         sodipodi:nodetypes="ccccsccscccc" />
    </g>
    <g
       transform="translate(-0.513536,-1.0658767)"
       id="g3813">
      <path
         style="fill:#bb4b00;fill-opacity:1;fill-rule:evenodd;stroke:none"
         d="m 21.154648,450 c -0.0024,-5.51241 -0.312727,-8.10931 -1.654892,-12.17967 -4.102964,-3.35623 -5.690835,-10.9599 1.908999,-10.36885 3.399605,0.43111 3.23956,1.29002 7.25481,2.59809 7.859331,-2.87398 7.56499,-2.07339 13.769863,-0.20281 4.429834,1.33546 4.94936,-4.9435 8.773066,-3.17677 6.135729,2.835 1.540823,4.81329 9.221262,4.59312 1.633702,0.37579 0.659177,-0.34625 5.932755,-2.14364 2.023472,-0.68967 3.674477,2.64344 3.018466,4.22813 -3.171498,7.66122 -6.115356,1.13794 -7.896329,10.9595 L 60.441126,450 c -13.81341,0.0901 -25.271923,0 -36.30627,0 z"
         id="path3834-5-8-2"
         inkscape:connector-curvature="0"
         sodipodi:nodetypes="ccccsscsscccc" />
      <path
         style="fill:#a23c00;fill-opacity:1;fill-rule:evenodd;stroke:none"
         d="m 22.816018,449.91831 c -0.0022,-4.90122 0.09195,-8.43936 -1.120826,-12.05843 -3.707421,-2.98411 -5.516741,-8.43391 1.350437,-7.90839 3.071869,0.38331 2.927253,1.147 6.555416,2.31003 7.101659,-2.55533 6.835694,-1.84351 12.442391,-0.18032 4.00278,1.18739 4.472221,-4.3954 7.927306,-2.82455 5.544219,2.52068 1.392281,4.27962 8.332294,4.08387 1.476207,0.33412 1.344684,0.1603 6.109867,-1.43781 1.828401,-0.6132 3.133133,2.28955 1.97842,3.29118 -6.108369,5.29858 -5.633793,0.96139 -7.135091,9.7444 L 58.315117,450 c -12.48174,0.0801 -22.835605,0 -32.806194,0 z"
         id="path3834-5-8-2-7"
         inkscape:connector-curvature="0"
         sodipodi:nodetypes="ccccsscsscccc" />
      <path
         style="fill:#6d1300;fill-opacity:1;fill-rule:evenodd;stroke:none"
         d="m 26.079362,449.96479 c -0.0018,-4.22456 0.0747,-7.33498 -0.910498,-10.4544 -3.011708,-2.57213 -5.408408,-5.1509 0.170115,-4.69793 2.495419,0.33039 4.231756,0.72382 7.179078,1.72628 5.769003,-2.20255 4.228793,-1.32417 8.783371,0.10941 3.25164,1.02345 4.824727,-4.31824 7.631451,-2.96426 4.503823,2.17268 0.336521,2.0998 5.974211,1.93108 1.19919,0.28799 1.092347,0.98085 4.963324,-0.39662 1.485293,-0.52854 1.61828,1.13077 0.680254,1.99411 -4.962107,4.56706 -3.64968,0.82866 -4.869254,8.3991 l -0.76451,4.42365 c -10.139488,0.069 -18.550407,0 -26.649972,0 z"
         id="path3834-5-8-2-7-3"
         inkscape:connector-curvature="0"
         sodipodi:nodetypes="ccccsscsscccc" />
    </g>
    <g
       transform="translate(-0.513536,-1.1729936)"
       id="g3808">
      <path
         style="fill:#bb4b00;fill-opacity:1;fill-rule:evenodd;stroke:none"
         d="m 22.457296,400 c -0.0023,-6.71319 -0.57052,-9.3962 -1.882478,-14.35322 -2.960564,-3.69012 -4.35086,-6.7694 -4.436949,-7.24019 -0.861248,-4.70991 2.567173,-5.82442 5.282446,-5.39544 3.323094,0.52502 3.056954,1.87399 6.981838,3.467 8.337872,-2.35976 8.602537,-2.50549 14.667764,-0.22743 4.330137,1.62637 6.132538,-4.96688 10.219452,-4.34445 1.462132,0.22269 3.206609,1.54244 3.221552,2.96606 0.02248,2.14219 1.562374,2.42261 2.74387,2.76119 1.596935,0.45765 2.658803,-0.0409 7.813695,-2.2298 1.977932,-0.8399 4.021633,1.83342 4.268031,3.16192 1.588116,8.56263 -8.014904,-0.1857 -10.020626,14.83925 l -0.643555,6.74109 c -13.502527,0.10972 -24.515894,-0.15024 -35.301904,-0.15024 z"
         id="path3834-5-8"
         inkscape:connector-curvature="0"
         sodipodi:nodetypes="ccsscsssssscccc" />
      <path
         style="fill:#a23c00;fill-opacity:1;fill-rule:evenodd;stroke:none"
         d="m 24.399686,400 c -0.0021,-6.2708 -0.42776,-9.91708 -1.626743,-14.54744 -2.705625,-3.44694 -4.069833,-5.48061 -4.148509,-5.92037 -0.787084,-4.39953 1.409793,-4.22339 3.89125,-3.82268 3.036937,0.49042 3.07461,1.28234 6.661516,2.77037 7.619887,-2.20425 6.831811,-2.62127 12.374753,-0.49333 3.957263,1.51919 8.038882,-4.07778 11.773865,-3.49637 1.336227,0.20802 2.368693,1.06627 2.382349,2.39607 0.02054,2.00102 1.240573,1.60754 2.320329,1.92381 1.45942,0.42749 2.429849,0.80449 7.140846,-1.24017 1.80761,-0.78455 4.606311,1.06563 3.900505,2.11087 -5.25011,7.77498 -7.444265,-0.17745 -9.157735,13.86135 L 59.323973,400 c -12.339804,0.10249 -22.404794,-0.30133 -32.262005,-0.30133 z"
         id="path3834-5-8-1"
         inkscape:connector-curvature="0"
         sodipodi:nodetypes="ccsscsssssscccc" />
      <path
         style="fill:#6d1300;fill-opacity:1;fill-rule:evenodd;stroke:none"
         d="m 26.272365,400 c -0.0018,-5.61973 0.09585,-9.60293 -0.947694,-13.75255 -2.354867,-3.08906 -2.576529,-3.62622 -2.645006,-4.02032 -0.685046,-3.94275 0.455255,-1.61805 2.615016,-1.25894 2.643228,0.4395 2.940849,0.75195 6.062748,2.08548 6.632045,-1.97539 6.343382,-2.21669 11.167737,-0.30969 3.444244,1.36147 5.9374,-3.6544 9.18818,-3.13335 1.162999,0.18642 2.061616,0.95555 2.073503,2.14729 0.01788,1.79326 1.079744,1.44064 2.01952,1.72407 1.270221,0.38311 1.187938,-0.7356 5.288201,-2.56798 1.573271,-0.70309 1.99149,1.34933 1.011368,1.89171 -6.964609,3.85408 -3.441814,-0.96415 -4.924976,11.6277 l -0.511892,5.68026 c -10.740074,0.0919 -19.500239,-0.16294 -28.079562,-0.16294 z"
         id="path3834-5-8-1-6"
         inkscape:connector-curvature="0"
         sodipodi:nodetypes="ccsscsssssscccc" />
    </g>
    <g
       transform="matrix(1.0111723,0,0,0.9658163,-1.324153,10.603623)"
       id="g3803">
      <path
         style="fill:#bb4b00;fill-opacity:1;fill-rule:evenodd;stroke:none"
         d="m 23.24255,349.89256 c -0.0023,-7.81704 0.226574,-10.01106 -1.100628,-15.78317 -2.994963,-4.29688 -6.451043,-8.24582 -6.631764,-9.35582 -0.892364,-5.48096 1.659324,-7.0905 4.406147,-6.59098 3.361706,0.61134 3.654161,3.22353 8.000639,3.78366 3.081936,0.39717 3.502609,-1.98322 6.179807,-2.39619 2.907489,-0.4485 4.671951,0.9697 8.658385,2.69315 4.380452,1.8938 6.203793,-5.78358 10.338195,-5.0588 1.47912,0.2593 3.243867,1.79606 3.258984,3.45376 0.02274,2.49444 1.580528,2.82096 2.775751,3.21522 1.61549,0.5329 3.493419,0.33788 8.708206,-2.21098 2.000914,-0.978 4.296551,-0.74386 4.719484,0.75226 3.080062,10.89571 -9.715476,1.55693 -11.744503,19.05242 l -1.320801,8.5089 c -13.659417,0.12776 -25.336566,-0.0633 -36.247902,-0.0634 z"
         id="path3834-5"
         inkscape:connector-curvature="0"
         sodipodi:nodetypes="ccsssssssssscccc" />
      <path
         style="fill:#a23c00;fill-opacity:1;fill-rule:evenodd;stroke:none"
         d="m 24.955277,349.94528 c -0.0021,-7.34396 0.204653,-10.15425 -0.994149,-15.57704 -2.705216,-4.03684 -5.536984,-8.36823 -5.615647,-8.88326 -0.786966,-5.15245 0.749738,-4.50786 3.23082,-4.03857 3.036478,0.57434 3.206212,3.78095 6.945722,2.39711 6.430014,-2.3795 8.515993,-2.36639 14.058095,0.12571 3.956664,1.77919 6.352662,-4.21635 10.087081,-3.53543 1.336023,0.2436 2.649145,1.2192 2.6628,2.77658 0.02054,2.34348 2.457569,2.46298 3.537159,2.83338 1.459201,0.50065 1.750973,0.78559 6.461256,-1.60902 1.807337,-0.91881 4.289218,-1.77483 4.169266,-0.32321 -0.759777,9.19459 -8.996486,1.39772 -10.608282,17.89939 l -1.193021,7.99395 c -12.337937,0.12003 -22.885382,-0.0595 -32.7411,-0.0596 z"
         id="path3834-5-61"
         inkscape:connector-curvature="0"
         sodipodi:nodetypes="ccssssssssscccc" />
      <path
         style="fill:#6d1300;fill-opacity:1;fill-rule:evenodd;stroke:none"
         d="m 27.506919,349.94449 c -0.0019,-6.85654 0.180311,-9.21547 -0.875905,-14.27835 -2.383454,-3.76891 -4.6148,-6.88591 -4.684107,-7.36675 -0.693363,-4.81048 -0.393878,-2.48727 1.792102,-2.04913 2.675316,0.53622 4.933748,4.05967 8.228477,2.76767 5.665224,-2.22157 8.293925,-1.67967 13.176845,0.64703 3.486055,1.6611 2.82916,-3.27444 6.119405,-2.63871 1.177115,0.22743 1.806832,1.00587 1.818863,2.45989 0.0181,2.18794 4.274148,-0.34881 5.225332,-0.003 1.285642,0.46742 3.395241,-2.8654 3.734497,-0.79849 0.490935,2.991 -4.621322,2.35365 -5.823787,13.8522 l -1.051123,7.46338 c -10.870453,0.11206 -18.977128,-0.0555 -27.660599,-0.0556 z"
         id="path3834-5-61-5"
         inkscape:connector-curvature="0"
         sodipodi:nodetypes="ccsssssssscccc" />
    </g>
    <g
       transform="matrix(1,0,0,0.97330928,-0.513536,0.33453616)"
       id="g3255">
      <path
         style="fill:#bb4b00;fill-opacity:1;fill-rule:evenodd;stroke:none"
         d="m 99.273179,49.438245 c 0.634112,-5.388716 -0.662666,-7.418003 -1.217212,-10.674016 0.74095,-3.074463 4.631243,-3.516086 7.807973,-1.803224 4.49421,2.406283 7.56946,-0.148748 10.68758,-0.484549 0.72804,-0.07841 2.25851,-0.01366 3.13337,0.05071 1.93065,0.367669 1.1283,1.524021 3.18348,1.488012 l 3.18348,0 c 0.48272,-1.465119 2.54827,-1.774053 3.41756,-1.776942 2.7853,0.809822 2.83684,2.368791 5.47745,2.71322 3.90076,0.508795 4.04819,-0.979297 6.83512,-1.779003 1.99573,0.276444 3.07673,1.044146 3.55801,2.15353 l -0.46816,2.621688 C 143.79285,45.903276 141.87561,44.807147 141.87561,50 l -21.5353,0 -21.067131,0 0,-0.561791 z"
         id="path4116"
         inkscape:connector-curvature="0"
         sodipodi:nodetypes="cccsccccccccccccc" />
      <path
         style="fill:#a23c00;fill-opacity:1;fill-rule:evenodd;stroke:none"
         d="m 100.3224,49.335893 c 0.59515,-4.702226 -0.621928,-6.472994 -1.142389,-9.314211 0.695407,-2.682794 4.346569,-3.068157 7.328019,-1.573504 4.21796,2.099737 7.10419,-0.129798 10.03065,-0.42282 0.68327,-0.06842 2.11967,-0.01192 2.94075,0.04425 1.81198,0.320829 1.05894,1.329869 2.98781,1.298448 l 2.9878,0 c 0.45303,-1.278471 2.39162,-1.54805 3.20748,-1.55057 2.61409,0.706655 2.66246,2.067021 5.14075,2.367571 3.66098,0.443979 3.79936,-0.85454 6.41498,-1.552368 1.87305,0.241227 2.88761,0.911128 3.33931,1.879183 l -0.43939,2.287701 c -1.01266,3.451684 -2.81205,2.495196 -2.81205,7.02651 l -20.21156,0 -19.77216,0 0,-0.490222 z"
         id="path4116-0"
         inkscape:connector-curvature="0"
         sodipodi:nodetypes="cccsccccccccccccc" />
      <path
         style="fill:#6d1300;fill-opacity:1;fill-rule:evenodd;stroke:none"
         d="m 101.8255,49.495699 c 0.54492,-3.983082 -0.56944,-5.483035 -1.04598,-7.889724 0.63671,-2.272496 3.97974,-2.598923 6.70957,-1.332857 3.86198,1.778609 6.50462,-0.109948 9.1841,-0.358156 0.62561,-0.05795 1.94078,-0.0101 2.69257,0.03748 1.65905,0.271763 0.96957,1.126483 2.73565,1.099868 l 2.73565,0 c 0.41479,-1.082946 2.18977,-1.311297 2.93677,-1.313431 2.39348,0.598582 2.43777,1.750897 4.7069,2.005483 3.35201,0.376077 3.47872,-0.723851 5.87358,-1.314955 1.71498,0.204335 2.64391,0.771784 3.0575,1.591787 l -0.40232,1.937828 c -0.92719,2.923793 -2.57472,2.113588 -2.57472,5.951897 l -18.50579,0 -18.10348,0 0,-0.415249 z"
         id="path4116-0-1"
         inkscape:connector-curvature="0"
         sodipodi:nodetypes="cccsccccccccccccc" />
    </g>
    <g
       transform="matrix(1,0,0,0.96980155,-0.513536,2.0198451)"
       id="g3499">
      <g
         id="g3296">
        <path
           sodipodi:nodetypes="ccccc"
           inkscape:connector-curvature="0"
           id="path3028"
           d="m 112.71253,91.780824 c 0.2152,-4.12484 2.27805,-10.276226 6.67173,-10.383607 3.87594,-0.04782 5.46358,3.337354 8.23078,9.480685 l 1.67517,0.0025 c -14.90487,1.803846 -9.68179,1.257979 -16.57768,0.900392 z"
           style="fill:#bb4b00;fill-opacity:1;fill-rule:evenodd;stroke:none" />
        <path
           sodipodi:nodetypes="ccccc"
           inkscape:connector-curvature="0"
           id="path3028-1"
           d="m 113.065,93.410276 c 0.20661,-4.12484 2.18707,-10.276226 6.40528,-10.383607 3.72114,-0.04782 5.24537,3.337354 7.90206,9.480685 l 1.60826,0.0025 c -14.3096,1.803846 -9.29512,1.257979 -15.9156,0.900392 z"
           style="fill:#a23c00;fill-opacity:1;fill-rule:evenodd;stroke:none" />
        <path
           sodipodi:nodetypes="ccccc"
           inkscape:connector-curvature="0"
           id="path3028-1-4"
           d="m 114.05811,94.204767 c 0.18598,-3.861846 1.96872,-9.621028 5.76579,-9.721563 3.34963,-0.04477 4.72168,3.124569 7.11313,8.87621 l 1.4477,0.0023 c -12.88096,1.688835 -8.36712,1.177772 -14.32662,0.842984 z"
           style="fill:#6d1300;fill-opacity:1;fill-rule:evenodd;stroke:none" />
      </g>
      <path
         style="fill:#bb4b00;fill-opacity:1;fill-rule:evenodd;stroke:none"
         d="m 97.696675,99.399413 c 0.634112,-3.964885 0.835442,-5.832511 0.280896,-8.228205 0.74095,-2.262114 3.133139,-2.212522 6.309869,-0.952241 2.9961,1.395957 7.56946,-0.109445 10.68758,-0.356519 0.72804,-0.05769 2.25851,-0.01005 3.13337,0.03731 1.93065,0.270522 1.1283,1.121337 3.18348,1.094843 l 3.18348,0 c 0.48272,-1.077999 3.20369,-0.930778 4.07298,-0.932903 2.7853,0.595847 2.18141,1.368371 4.82203,1.621793 3.90076,0.374359 4.04818,-0.720543 6.83511,-1.308946 1.99574,0.2034 3.07673,0.768256 3.55802,1.584514 l -0.46816,1.928973 c -1.07898,2.910437 -0.2809,2.291195 -0.2809,6.111968 l -24.25062,-0.187263 -21.067135,0 0,-0.413352 z"
         id="path4116-2"
         inkscape:connector-curvature="0"
         sodipodi:nodetypes="cccsccccccccccccc" />
      <path
         style="fill:#a23c00;fill-opacity:1;fill-rule:evenodd;stroke:none"
         d="m 98.717675,99.489039 c 0.599481,-3.3732 0.789815,-4.962118 0.265555,-7.0003 0.700484,-1.924536 2.96203,-1.882345 5.96526,-0.810137 2.83247,1.187637 7.15606,-0.09311 10.10389,-0.303315 0.68828,-0.04908 2.13517,-0.0086 2.96225,0.03174 1.82521,0.230152 1.06668,0.953999 3.00961,0.931458 l 3.00962,0 c 0.45636,-0.917127 3.02873,-0.791877 3.85054,-0.793684 2.63318,0.506928 2.06227,1.164167 4.55868,1.37977 3.68772,0.318494 3.82709,-0.613016 6.46182,-1.113609 1.88674,0.173046 2.9087,0.653607 3.3637,1.348054 l -0.44259,1.64111 c -1.02005,2.476109 -0.26556,1.949277 -0.26556,5.199872 l -22.9262,-0.159317 -19.916575,0 0,-0.351668 z"
         id="path4116-2-5"
         inkscape:connector-curvature="0"
         sodipodi:nodetypes="cccsccccccccccccc" />
      <path
         style="fill:#6d1300;fill-opacity:1;fill-rule:evenodd;stroke:none"
         d="m 99.710789,99.586135 c 0.563031,-2.732209 0.741781,-4.019193 0.2494,-5.67007 0.657901,-1.558827 2.781911,-1.524654 5.602521,-0.656191 2.66023,0.961956 6.7209,-0.07542 9.48948,-0.245678 0.64642,-0.03975 2.00533,-0.0069 2.78211,0.02571 1.71422,0.186417 1.00182,0.772715 2.8266,0.754458 l 2.82661,0 c 0.42861,-0.742851 2.84455,-0.641401 3.61639,-0.642865 2.47306,0.410599 1.93686,0.942947 4.28147,1.11758 3.46347,0.257972 3.59437,-0.496527 6.06888,-0.901996 1.77201,0.140163 2.73182,0.529406 3.15915,1.091891 l -0.41567,1.329258 c -0.95802,2.005587 -0.24941,1.578867 -0.24941,4.211768 l -21.53207,-0.129043 -18.705461,0 0,-0.284842 z"
         id="path4116-2-5-8"
         inkscape:connector-curvature="0"
         sodipodi:nodetypes="cccsccccccccccccc" />
    </g>
    <g
       transform="matrix(1.0184293,0,0,1,-2.2495165,-0.99999959)"
       id="g3373">
      <g
         id="g3209"
         transform="translate(-0.56179,0.749054)">
        <path
           sodipodi:nodetypes="sscccsssssssscccscsccccs"
           inkscape:connector-curvature="0"
           id="path3028-8"
           d="m 104.533,146.88074 c 0,-0.31712 1.00858,-0.37553 0.54682,-0.37553 l 0.54681,0 0,0.0451 0,-2.62875 0.54682,0 c 0.43039,0 2.88284,1.27337 2.88284,1.0384 0,-0.26797 0.12313,-0.30733 1.20298,-0.38455 1.0866,-0.0777 1.203,-0.11542 1.203,-0.38995 0,-0.29648 0.0429,-0.30394 1.7498,-0.30394 1.6981,0 1.74981,0.009 1.74981,0.29852 0,0.26797 0.12314,0.30733 1.203,0.38454 1.0866,0.0777 1.65046,0.4889 1.20298,0.38996 l -2.33602,-1.03298 6.38245,-1.33693 -7.82855,-0.11794 c 0.0831,-1.01688 0.88043,-3.95119 1.03928,-7.29679 0.1936,-4.07735 2.90157,-8.56077 5.02178,-8.59385 2.24541,-0.0177 4.00409,1.28525 5.37484,5.8126 0.6849,2.26207 0.97487,8.30985 1.77585,9.44491 2.72663,6.41758 -0.23192,5.39291 -9.48672,5.42275 l -12.77777,0 0,-0.37554 z"
           style="opacity:0.98279993;fill:#bb4b00;fill-opacity:1;fill-rule:evenodd;stroke:none" />
        <path
           sodipodi:nodetypes="sscccsssssssscccscscccccs"
           inkscape:connector-curvature="0"
           id="path3028-4-0"
           d="m 106.82686,147.28051 c 0,-0.30135 0.85371,-0.35687 0.46285,-0.35687 l 0.46285,0 0,0.0429 0,-2.49804 0.46285,0 c 0.3643,0 2.44015,1.21005 2.44015,0.98677 0,-0.25465 0.10423,-0.29205 1.01826,-0.36543 0.91974,-0.0738 1.01826,-0.10968 1.01826,-0.37057 0,-0.28172 0.0363,-0.28882 1.48111,-0.28882 1.43735,0 1.48112,0.008 1.48112,0.28368 0,0.25464 0.10422,0.29204 1.01826,0.36542 0.91975,0.0738 1.39701,0.46458 1.01826,0.37057 l -1.9773,-0.98162 5.40237,-1.27045 -6.40226,-0.23791 c 0.0866,-1.19006 1.80554,-12.02253 2.765,-13.15487 0.79303,-0.93592 0.6791,-1.72963 2.14117,-1.75523 1.60535,-0.0142 2.06678,-0.0163 3.06015,1.05378 0.77031,0.82981 2.10372,11.96652 2.99251,13.3805 l 1.23186,0.001 c -1.32448,4.49451 6.65979,5.12444 -9.26182,5.15177 l -10.81565,0 0,-0.35686 z"
           style="opacity:0.98279993;fill:#a23c00;fill-opacity:1;fill-rule:evenodd;stroke:none" />
        <path
           sodipodi:nodetypes="sscccssssssssccccccccccs"
           inkscape:connector-curvature="0"
           id="path3028-4-7-4"
           d="m 109.77781,147.40471 c 0,-0.28427 0.67988,-0.33663 0.36861,-0.33663 l 0.3686,0 0,0.0404 0,-2.35643 0.36861,0 c 0.29013,0 1.9433,1.14146 1.9433,0.93083 0,-0.24021 0.083,-0.27549 0.81093,-0.34471 0.73247,-0.0696 0.81093,-0.10347 0.81093,-0.34956 0,-0.26576 0.029,-0.27245 1.17954,-0.27245 1.14468,0 1.17954,0.008 1.17954,0.2676 0,0.2402 0.083,0.27549 0.81093,0.3447 0.73247,0.0697 1.11256,0.43825 0.81093,0.34956 l -1.5747,-0.92597 4.30238,-1.19843 -5.09867,-0.22442 c 0.069,-1.12259 2.17975,-11.42719 2.94384,-12.49534 0.764,-1.00252 1.60538,-0.50307 2.37047,0.35574 0.61347,0.78277 2.70533,10.35693 3.41314,11.69076 l 0.98104,0.001 c -1.0548,4.23972 5.30377,4.83393 -7.37599,4.85972 l -8.61343,0 0,-0.33663 z"
           style="opacity:0.98279993;fill:#6d1300;fill-opacity:1;fill-rule:evenodd;stroke:none" />
      </g>
      <path
         style="fill:#bb4b00;fill-opacity:1;fill-rule:evenodd;stroke:none"
         d="m 94.196751,149.67888 c 0.826217,-1.66292 2.939123,-2.00809 3.705354,-3.12014 0.612398,-0.88878 0.341288,-2.91439 0.743913,-3.60387 0.977471,-1.67389 2.260062,-1.42967 3.195842,-1.15048 5.5649,3.34485 9.42162,2.01923 10.92453,0.47234 0.54613,-0.56211 2.4273,-0.008 3.36754,0.0289 5.79781,4.02971 5.05722,0.34065 11.22017,0.12569 2.99346,0.46247 2.34444,1.06206 5.1824,1.25876 4.19228,0.29056 1.82267,-1.02741 4.81788,-1.4841 2.14488,0.15787 3.58757,0.68992 4.10482,1.32345 0.55,4.79259 3.9914,4.59914 3.49456,6.3507 -10.44581,0.13291 -28.11543,0.11949 -28.11543,0.11949 l -22.641579,0 0,-0.32083 z"
         id="path4116-2-3"
         inkscape:connector-curvature="0"
         sodipodi:nodetypes="csscscccccccccc" />
      <path
         style="fill:#a23c00;fill-opacity:1;fill-rule:evenodd;stroke:none"
         d="m 95.224556,149.73982 c 0.791204,-1.34764 2.814573,-1.62737 3.548332,-2.52857 0.586452,-0.72027 0.326831,-2.36184 0.712387,-2.92059 0.936045,-1.35653 2.164295,-1.15861 3.060425,-0.93235 5.32907,2.71067 9.02236,1.63639 10.46158,0.38279 0.52299,-0.45554 2.32444,-0.007 3.22484,0.0234 5.55211,3.26568 4.8429,0.27606 10.74469,0.10186 2.86661,0.37478 2.24509,0.86069 4.96278,1.02009 4.01463,0.23548 1.74544,-0.83261 4.61372,-1.20271 2.05399,0.12794 3.43554,0.55911 3.93087,1.07252 0.52669,3.88394 3.82226,3.72717 3.34647,5.14663 -10.00315,0.10771 -26.92399,0.0968 -26.92399,0.0968 l -21.682104,0 0,-0.26 z"
         id="path4116-2-3-6"
         inkscape:connector-curvature="0"
         sodipodi:nodetypes="csscscccccccccc" />
      <path
         style="fill:#6d1300;fill-opacity:1;fill-rule:evenodd;stroke:none"
         d="m 96.581943,149.79365 c 0.753138,-1.06945 2.679161,-1.29143 3.377613,-2.00659 0.558224,-0.57158 0.311104,-1.87429 0.678114,-2.31769 0.89101,-1.0765 2.06016,-0.91943 2.91318,-0.73988 5.07267,2.1511 8.58827,1.29859 9.95825,0.30376 0.49782,-0.3615 2.21261,-0.006 3.06968,0.0185 5.28499,2.59154 4.6099,0.21907 10.22774,0.0808 2.72869,0.29741 2.13707,0.68301 4.72401,0.80951 3.82148,0.18687 1.66147,-0.66073 4.39175,-0.95443 1.95517,0.10152 3.27025,0.44368 3.74175,0.85111 0.50134,3.08217 3.63835,2.95776 3.18546,4.08421 -9.52188,0.0855 -25.62862,0.0768 -25.62862,0.0768 l -20.638927,0 0,-0.20633 z"
         id="path4116-2-3-6-3"
         inkscape:connector-curvature="0"
         sodipodi:nodetypes="csscscccccccccc" />
    </g>
    <g
       id="g4132">
      <g
         id="g3232"
         transform="matrix(1.1040865,0,0,1.0255883,-12.754726,-3.8254288)">
        <path
           sodipodi:nodetypes="sscccsssssscccsscsccccs"
           inkscape:connector-curvature="0"
           id="path3028-8-0"
           d="m 104.04864,196.40367 c 0,-0.32834 1.04235,-0.38882 0.56513,-0.38882 l 0.56511,0 0,0.0467 c -0.54369,-3.4381 1.69961,-1.58113 3.5445,-1.64664 0,-0.27745 0.12725,-0.3182 1.24326,-0.39815 1.12298,-0.0805 1.24328,1.88049 1.24328,1.59624 0,-0.30697 0.0443,-0.31469 1.80839,-0.31469 1.75495,0 1.80839,0.009 1.80839,0.30908 0,0.27746 0.12727,-1.68179 1.24328,-1.60185 1.12299,0.0805 1.70573,0.5062 1.24326,0.40376 l -2.41423,0.93046 6.59615,-1.38424 -8.09067,-0.12211 c 0.0859,-1.05287 0.90989,-6.09103 1.07407,-9.55503 0.10044,-2.11916 0.0606,-5.2399 0.99865,-7.16757 0.93064,-1.91251 2.83517,-2.64028 3.92645,-2.65734 2.32059,-0.0183 4.40299,2.25765 5.81963,6.94523 0.70783,2.34212 1.00751,10.60394 1.83531,11.77917 2.81793,6.6447 -0.23968,3.58377 -9.80436,3.61466 l -13.2056,0 0,-0.38883 z"
           style="opacity:0.98279993;fill:#bb4b00;fill-opacity:1;fill-rule:evenodd;stroke:none" />
        <path
           sodipodi:nodetypes="sscccsssssssscccscscccccs"
           inkscape:connector-curvature="0"
           id="path3028-4-0-8"
           d="m 106.4193,196.81759 c 0,-0.31201 0.8823,-0.3695 0.47835,-0.3695 l 0.47835,0 0,0.0444 0,-2.58645 0.47834,0 c 0.3765,0 2.52186,1.25288 2.52186,1.02169 0,-0.26366 0.10772,-0.30238 1.05235,-0.37836 0.95054,-0.0764 1.05235,-0.11356 1.05235,-0.38368 0,-0.29169 0.0375,1.70096 1.53071,1.70096 1.48547,0 1.53071,-1.992 1.53071,-1.70629 0,0.26366 0.10771,0.30238 1.05235,0.37836 0.95055,0.0764 1.44379,0.48102 1.05236,0.38368 l -2.04351,0.98364 5.58326,-1.31541 -6.61663,-0.24633 c 0.0895,-1.23218 0.76818,-15.67967 1.75976,-16.85208 0.81958,-0.96905 1.46862,-1.55231 2.97964,-1.57881 1.65911,-0.0147 2.46703,0.97621 3.49366,2.08418 0.7961,0.85918 2.17415,14.39003 3.0927,15.85405 l 1.27311,0.001 c -1.36883,4.65357 6.88278,3.30579 -9.57193,3.33409 l -11.17779,0 0,-0.36949 z"
           style="opacity:0.98279993;fill:#a23c00;fill-opacity:1;fill-rule:evenodd;stroke:none" />
        <path
           sodipodi:nodetypes="sscccssssssssccccccccccs"
           inkscape:connector-curvature="0"
           id="path3028-4-7-4-1"
           d="m 109.46906,196.93498 c 0,-0.3038 0.70264,-0.35975 0.38095,-0.35975 l 0.38094,0 0,0.0432 0,-2.51832 0.38095,0 c 0.29985,0 2.00837,1.21988 2.00837,0.99479 0,-0.25672 0.0858,-0.29443 0.83808,-0.3684 0.757,-0.0743 0.83808,-0.11058 0.83808,-0.37358 0,-0.28401 0.03,-0.29116 1.21904,-0.29116 1.18301,0 1.21903,0.008 1.21903,0.28598 0,0.2567 0.0858,0.29442 0.83808,0.36838 0.757,0.0745 1.14982,0.46836 0.83809,0.37358 l -1.62743,-0.98959 4.44644,0.71925 -5.26939,-0.23984 c 0.0713,-1.19972 0.0776,-12.2309 2.03851,-15.5339 0.78958,-1.07139 2.66303,-0.35752 3.45374,0.5603 0.63401,0.83654 2.79591,13.06845 3.52742,14.49392 l 1.01389,0.001 c -1.09012,4.53098 5.48135,3.16602 -7.62296,3.19358 l -8.90183,0 0,-0.35976 z"
           style="opacity:0.98279993;fill:#6d1300;fill-opacity:1;fill-rule:evenodd;stroke:none" />
      </g>
      <path
         style="fill:#bb4b00;fill-opacity:1;fill-rule:evenodd;stroke:none"
         d="m 91.727015,198.79487 c 0.858518,-1.06221 2.866763,-1.28269 3.66295,-1.99302 0.636339,-0.56772 3.06995,-2.21932 3.488316,-2.65973 1.015683,-1.06922 2.535679,-0.46608 3.508039,-0.28774 5.78246,2.13656 7.79037,1.58991 9.75988,0.21228 0.54918,-0.38413 2.14766,-0.18363 3.12466,-0.16042 6.02448,2.57402 3.66319,0.0388 10.06708,-0.0985 3.11049,0.29541 3.27878,1.03612 6.2277,1.16176 2.6708,-0.4404 0.58307,-1.28226 3.69538,-1.57398 1.39617,-0.20965 2.87283,1.81421 4.92014,3.1788 1.90542,1.27004 4.44294,1.8613 4.28718,2.34915 -10.85418,0.0849 -29.21459,0.0763 -29.21459,0.0763 l -23.526735,0 0,-0.20493 z"
         id="path4116-2-3-8"
         inkscape:connector-curvature="0"
         sodipodi:nodetypes="csscsccccsccccc" />
    </g>
    <path
       sodipodi:nodetypes="csscsccccsccccc"
       inkscape:connector-curvature="0"
       id="path4116-2-3-8-0"
       d="m 93.365354,198.85031 c 0.803657,-0.77484 2.68357,-0.93567 3.428878,-1.45382 0.595676,-0.41412 2.873772,-1.61889 3.265398,-1.94015 0.95078,-0.77994 2.37365,-0.33998 3.28387,-0.20989 5.41295,1.55852 7.29255,1.15976 9.1362,0.15486 0.51409,-0.28022 2.01042,-0.13397 2.92499,-0.11703 5.6395,1.87764 3.4291,0.0283 9.42377,-0.0718 2.91172,0.21549 3.06925,0.7558 5.82973,0.84745 2.50013,-0.32125 0.54581,-0.93535 3.45924,-1.14815 1.30695,-0.15294 2.68924,1.32338 4.60573,2.31878 1.78366,0.92644 4.15902,1.35773 4.01321,1.7136 -10.16057,0.062 -27.3477,0.0557 -27.3477,0.0557 l -22.023316,0 0,-0.14948 z"
       style="fill:#a23c00;fill-opacity:1;fill-rule:evenodd;stroke:none" />
    <path
       sodipodi:nodetypes="csscsccccsccccc"
       inkscape:connector-curvature="0"
       id="path4116-2-3-8-0-3"
       d="m 94.488937,198.9025 c 0.764035,-0.50437 2.551264,-0.60906 3.259829,-0.94634 0.56631,-0.26957 2.732074,-1.05379 3.104404,-1.26291 0.9039,-0.50769 2.25662,-0.22131 3.12196,-0.13663 5.14608,1.0145 6.93301,0.75494 8.68577,0.10081 0.48874,-0.18241 1.9113,-0.0872 2.78078,-0.0762 5.36146,1.22221 3.26004,0.0184 8.95915,-0.0467 2.76817,0.14027 2.91793,0.49198 5.54231,0.55164 2.37687,-0.20912 0.5189,-0.60886 3.2887,-0.74738 1.24251,-0.0995 2.55665,0.86144 4.37865,1.50938 1.69572,0.60305 3.95397,0.88379 3.81535,1.11544 -9.65963,0.0404 -25.99939,0.0363 -25.99939,0.0363 l -20.937513,0 0,-0.0973 z"
       style="fill:#6d1300;fill-opacity:1;fill-rule:evenodd;stroke:none" />
    <g
       transform="translate(-0.513536,-0.99999935)"
       id="g3749">
      <g
         id="g4148">
        <g
           transform="matrix(1.0327683,0,0,1.0317587,-3.3982859,-7.6505542)"
           id="g3328">
          <path
             style="opacity:0.98279993;fill:#bb4b00;fill-opacity:1;fill-rule:evenodd;stroke:none"
             d="m 103.15922,296.1299 c 0,-0.30325 0.43537,1.91224 0.56513,1.48809 l 0.56511,0 0,0.0431 c -0.54369,-3.17543 1.69961,-1.46033 3.5445,-1.52084 0,-0.25625 0.12725,-0.29389 1.24326,-0.36773 1.12298,-0.0744 1.24328,1.73682 1.24328,1.47429 0,-0.28352 0.0443,-0.29065 1.80839,-0.29065 1.75495,0 1.80839,0.008 1.80839,0.28547 0,0.25626 0.12727,-1.5533 1.24328,-1.47947 1.12299,0.0744 1.67634,0.55011 1.24326,0.37291 l -2.41423,0.85938 6.59615,-1.27849 -8.09067,-0.11278 c 0.0859,-0.97243 0.90989,-7.47288 1.07407,-10.67223 0.10044,-1.95726 0.0606,-4.83958 0.99865,-6.61997 0.93064,-1.7664 2.83517,-2.43857 3.92645,-2.45432 2.32059,-0.0169 5.06191,0.89735 5.95205,6.24909 0.34529,2.07601 0.91387,10.16834 1.74167,11.25378 2.81793,6.13705 0.93875,3.40536 -8.62593,3.43389 l -14.42281,-0.3044 z"
             id="path3028-8-0-3-9"
             inkscape:connector-curvature="0"
             sodipodi:nodetypes="cscccsssssscccsscscccc" />
          <path
             style="opacity:0.98279993;fill:#a23c00;fill-opacity:1;fill-rule:evenodd;stroke:none"
             d="m 106.96492,295.67028 c 0.3765,0 2.52186,1.15716 2.52186,0.94363 0,-0.24351 0.10772,-0.27927 1.05235,-0.34945 0.95054,-0.0706 1.05235,-0.10488 1.05235,-0.35437 0,-0.2694 0.0375,1.57101 1.53071,1.57101 1.48547,0 1.53071,-1.83981 1.53071,-1.57593 0,0.24352 0.10771,0.27928 1.05235,0.34945 0.95055,0.0706 1.41351,0.52027 1.05236,0.35437 l -2.04351,0.90849 5.58326,-1.21491 -6.61663,-0.22751 c 0.0895,-1.13804 1.27013,-15.49715 2.26171,-16.57999 0.81958,-0.89501 0.96667,-2.26552 2.47769,-2.28999 1.65911,-0.0136 2.46703,0.90163 3.49366,1.92495 0.25643,0.2556 1.27723,1.71577 1.68547,3.62318 0.85916,4.01424 1.25271,10.00937 1.87539,10.926 1.34949,5.61906 1.34159,3.19484 -8.76698,3.17392 12.18105,-4.66738 -10.37944,2.06307 -9.74275,-1.18285 z"
             id="path3028-4-0-8-0-1"
             inkscape:connector-curvature="0"
             sodipodi:nodetypes="cssssssscccscssccc" />
          <path
             style="opacity:0.98279993;fill:#6d1300;fill-opacity:1;fill-rule:evenodd;stroke:none"
             d="m 108.57964,296.62062 c 0,-0.28059 0.70264,-0.33227 0.38095,-0.33227 l 0.38094,0 0,0.0399 0.42134,0.52787 0.33414,0 c 1.15144,-1.20667 2.91339,-0.31184 3.31,-0.77309 0,-0.26231 0.03,-0.26892 1.21904,-0.26892 1.18301,0 1.21903,0.007 1.21903,0.26414 0,0.23708 0.0858,0.27192 0.83808,0.34023 0.757,0.0688 0.29572,-0.36706 -0.0226,-0.42629 l -0.76673,-0.14266 1.0533,0.24056 -1.87625,0.20223 c 0.0713,-1.10806 2.25273,-14.97365 3.04241,-16.02796 0.78958,-0.98954 1.65913,-0.49657 2.44984,0.35113 0.63401,0.77263 2.79591,12.07003 3.52742,13.38659 1.83227,4.33999 -0.089,2.95845 -6.60907,2.95052 l -8.90183,0 0,-0.33228 z"
             id="path3028-4-7-4-1-7-3"
             inkscape:connector-curvature="0"
             sodipodi:nodetypes="sscccccsssscccccccccs" />
        </g>
        <path
           sodipodi:nodetypes="csscsccccsccccc"
           inkscape:connector-curvature="0"
           id="path4116-2-3-8-8-9"
           d="m 89.812846,299.87217 c 0.893001,-0.66158 2.981907,-0.79891 3.810073,-1.24133 0.661898,-0.3536 3.193256,-1.38228 3.628425,-1.65659 1.056479,-0.66595 2.637531,-0.29029 3.648946,-0.17921 6.01471,1.33073 8.10327,0.99026 10.15189,0.13222 0.57124,-0.23926 2.23392,-0.11437 3.25017,-0.0999 6.26645,1.6032 3.81031,0.0242 10.47142,-0.0613 3.23542,0.184 3.41047,0.64534 6.47783,0.72359 2.77808,-0.2743 0.6065,-0.79864 3.84381,-0.98034 1.45225,-0.13058 2.98822,1.12997 5.11775,1.97989 1.98196,0.79103 4.6214,1.15929 4.45938,1.46314 -11.29014,0.0529 -30.38799,0.0475 -30.38799,0.0475 l -24.471704,0 0,-0.12764 z"
           style="fill:#bb4b00;fill-opacity:0.99215686;fill-rule:evenodd;stroke:none" />
        <path
           sodipodi:nodetypes="csscsccccsccccc"
           inkscape:connector-curvature="0"
           id="path4116-2-3-8-8-9-9"
           d="m 90.853304,299.91308 c 0.859475,-0.44919 2.869955,-0.54243 3.667029,-0.84283 0.637048,-0.24008 3.073373,-0.93853 3.492203,-1.12477 1.01682,-0.45217 2.538514,-0.19711 3.511954,-0.12168 5.78889,0.90353 7.79904,0.67235 9.77075,0.0898 0.54979,-0.16245 2.15005,-0.0776 3.12815,-0.0678 6.03118,1.08852 3.66725,0.0165 10.07828,-0.0416 3.11395,0.12492 3.28243,0.43816 6.23463,0.49129 2.67378,-0.18624 0.58373,-0.54225 3.6995,-0.66562 1.39773,-0.0886 2.87603,0.76721 4.92561,1.34428 1.90755,0.53709 4.4479,0.78713 4.29196,0.99344 -10.86627,0.036 -29.24712,0.0323 -29.24712,0.0323 l -23.552946,0 0,-0.0867 z"
           style="fill:#a23c00;fill-opacity:1;fill-rule:evenodd;stroke:none" />
        <path
           sodipodi:nodetypes="csscsccccsccccc"
           inkscape:connector-curvature="0"
           id="path4116-2-3-8-8-9-9-5"
           d="m 93.38136,299.93702 c 0.78785,-0.3253 2.630786,-0.39282 3.361435,-0.61037 0.58396,-0.17386 2.817249,-0.67968 3.201179,-0.81455 0.932076,-0.32746 2.326956,-0.14275 3.219276,-0.0881 5.30647,0.65433 7.1491,0.48691 8.9565,0.065 0.50397,-0.11764 1.97088,-0.0562 2.86746,-0.0491 5.52857,0.7883 3.36164,0.012 9.23841,-0.0301 2.85444,0.0905 3.00888,0.31732 5.71506,0.35579 2.45096,-0.13487 0.53508,-0.39269 3.3912,-0.48203 1.28125,-0.0642 2.63636,0.5556 4.51513,0.97352 1.74859,0.38895 4.07723,0.57003 3.93429,0.71944 -9.96072,0.0261 -26.8098,0.0234 -26.8098,0.0234 l -21.59014,0 0,-0.0628 z"
           style="fill:#6e1400;fill-opacity:1;fill-rule:evenodd;stroke:none" />
      </g>
    </g>
    <g
       transform="translate(-0.513536,-0.99999523)"
       id="g3740">
      <g
         id="g4157">
        <g
           transform="matrix(1,0,0,1.0501642,0.07569744,-16.512303)"
           id="g3333">
          <path
             style="opacity:0.98279993;fill:#bb4b00;fill-opacity:1;fill-rule:evenodd;stroke:none"
             d="m 111.63228,347.34693 c 1.93476,0 1.99367,0.007 1.99367,0.24599 0,0.22081 0.14031,-1.33845 1.37067,-1.27483 1.23805,0.0641 1.8481,0.47402 1.37065,0.32133 l -2.6616,0.74051 7.272,-1.10165 -8.91965,-0.0972 c 0.0947,-0.83792 1.00312,-6.4392 1.18412,-9.19601 0.11074,-1.68652 0.0668,-4.17015 1.10098,-5.70427 1.02599,-1.52206 3.12566,-2.10126 4.32875,-2.11483 1.37867,-0.008 3.57489,0.0842 4.72728,1.15141 0.98606,0.91321 0.96847,2.6557 1.68863,4.37591 0.78034,1.86398 1.11074,8.4391 2.02336,9.37439 3.10666,5.28815 -0.30073,3.53102 -10.84541,3.55561 -0.34657,-1.20967 -12.52529,-0.27414 -4.63345,-0.27638 z"
             id="path3028-8-0-3-9-8"
             inkscape:connector-curvature="0"
             sodipodi:nodetypes="cssscccsscsscccc" />
          <path
             style="opacity:0.98279993;fill:#a23c00;fill-opacity:1;fill-rule:evenodd;stroke:none"
             d="m 112.72735,347.79926 c 1.63767,0 1.68755,-1.58532 1.68755,-1.35794 0,0.20984 0.11874,0.24065 1.16017,0.30111 1.04795,0.0608 1.55834,0.44831 1.16019,0.30536 l -2.25289,0.78282 6.15532,-1.04686 -7.29457,-0.19604 c 0.0987,-0.98062 1.40027,-13.35353 2.49344,-14.28659 0.90356,-0.77121 1.06572,-1.95214 2.73156,-1.97323 1.8291,-0.0117 3.08394,0.44588 4.21576,1.32765 0.87767,0.68377 2.03278,11.78327 3.04544,12.9484 1.48776,4.84181 1.99518,2.67224 -9.14912,2.65422 -1.69116,-0.41712 -5.75991,0.36356 -3.95285,0.5411 z"
             id="path3028-4-0-8-0-1-0"
             inkscape:connector-curvature="0"
             sodipodi:nodetypes="cssscccscsccc" />
          <path
             style="opacity:0.98279993;fill:#6d1300;fill-opacity:1;fill-rule:evenodd;stroke:none"
             d="m 113.04135,346.59458 c 0,-0.22603 0.0331,-0.23172 1.34395,-0.23172 1.30422,0 1.34393,0.006 1.34393,0.2276 0,0.20429 0.0946,0.23431 0.92395,0.29317 0.83456,0.0593 0.32602,-0.31629 -0.0249,-0.36733 l -0.84529,-0.12292 1.16123,0.20728 -2.0685,0.17426 c 0.0786,-0.95479 2.48355,-12.90244 3.35414,-13.81092 0.87048,-0.85266 1.82913,-0.42788 2.70085,0.30256 0.69897,0.66576 3.08238,10.40046 3.88884,11.53491 2.02001,3.73967 -0.0981,2.54923 -7.28624,2.5424 1.27773,-0.97571 -1.94297,-0.88619 -4.49194,-0.74929 z"
             id="path3028-4-7-4-1-7-3-9"
             inkscape:connector-curvature="0"
             sodipodi:nodetypes="csssscccccccc" />
        </g>
        <path
           sodipodi:nodetypes="csscsccccsccccc"
           inkscape:connector-curvature="0"
           id="path4116-2-3-8-8-9-5"
           d="m 89.812846,349.87217 c 0.893001,-0.66158 2.981907,-0.79891 3.810073,-1.24133 0.661898,-0.3536 3.193256,-1.38228 3.628425,-1.65659 1.056479,-0.66595 2.637531,-0.29029 3.648946,-0.17921 6.01471,1.33073 8.10327,0.99026 10.15189,0.13222 0.57124,-0.23926 2.23392,-0.11437 3.25017,-0.0999 6.26645,1.6032 3.81031,0.0242 10.47142,-0.0613 3.23542,0.184 3.41047,0.64534 6.47783,0.72359 2.77808,-0.2743 0.6065,-0.79864 3.84381,-0.98034 1.45225,-0.13058 2.98822,1.12997 5.11775,1.97989 1.98196,0.79103 4.6214,1.15929 4.45938,1.46314 -11.29014,0.0529 -30.38799,0.0475 -30.38799,0.0475 l -24.471704,0 0,-0.12764 z"
           style="fill:#bb4b00;fill-opacity:1;fill-rule:evenodd;stroke:none" />
        <path
           sodipodi:nodetypes="csscsccccsccccc"
           inkscape:connector-curvature="0"
           id="path4116-2-3-8-8-9-5-3"
           d="m 90.317678,349.90979 c 0.868618,-0.46688 2.900488,-0.5638 3.706041,-0.87603 0.643826,-0.24954 3.10607,-0.9755 3.529357,-1.16908 1.027631,-0.46999 2.565514,-0.20487 3.549304,-0.12648 5.85048,0.93913 7.88202,0.69885 9.8747,0.0933 0.55564,-0.16885 2.17293,-0.0807 3.16143,-0.0705 6.09534,1.13141 3.70627,0.0171 10.18551,-0.0433 3.14707,0.12986 3.31734,0.45543 6.30095,0.51065 2.70222,-0.19357 0.58994,-0.56361 3.73885,-0.69185 1.4126,-0.0922 2.90664,0.79745 4.97801,1.39726 1.92786,0.55824 4.49523,0.81814 4.33762,1.03257 -10.98186,0.0374 -29.55826,0.0335 -29.55826,0.0335 l -23.803512,0 0,-0.0901 z"
           style="fill:#a23c00;fill-opacity:1;fill-rule:evenodd;stroke:none" />
        <path
           sodipodi:nodetypes="csscsccccsccccc"
           inkscape:connector-curvature="0"
           id="path4116-2-3-8-8-9-5-3-8"
           d="m 91.066736,349.95424 c 0.81528,-0.23681 2.722383,-0.28601 3.478471,-0.44439 0.604292,-0.12656 2.915343,-0.49485 3.312633,-0.59307 0.96453,-0.23842 2.40798,-0.10388 3.33136,-0.0641 5.49123,0.47639 7.39803,0.35449 9.26835,0.0471 0.52152,-0.0857 2.0395,-0.0411 2.9673,-0.036 5.72105,0.57394 3.47869,0.009 9.56007,-0.0218 2.95382,0.0658 3.11364,0.23102 5.91404,0.25902 2.53629,-0.0982 0.55371,-0.28591 3.50926,-0.35094 1.32586,-0.0467 2.72816,0.40451 4.67234,0.70878 1.80948,0.28322 4.2192,0.41506 4.07126,0.52382 -10.30751,0.0188 -27.74323,0.0173 -27.74323,0.0173 l -22.341854,0 0,-0.0456 z"
           style="fill:#6d1300;fill-opacity:1;fill-rule:evenodd;stroke:none" />
      </g>
    </g>
    <g
       transform="translate(-0.513536,-1.0000036)"
       id="g3733">
      <path
         style="fill:#bb4b00;fill-opacity:1;fill-rule:evenodd;stroke:none"
         d="m 109.15151,399.21681 c 0.37497,-0.72046 1.77906,-1.37088 1.96352,-2.09418 2.51377,-9.85676 3.06493,-14.33506 7.74433,-14.69592 2.59527,-0.0156 5.30251,0.84258 6.88683,4.66076 0.79162,1.90774 2.37664,10.89974 3.30243,11.85701 -9.6137,0.12331 -2.92079,0.35917 -19.89711,0.27233 z"
         id="path3028-8-0-3-9-8-5-7-3-2-4"
         inkscape:connector-curvature="0"
         sodipodi:nodetypes="cscscc" />
      <path
         style="fill:#a23c00;fill-opacity:1;fill-rule:evenodd;stroke:none"
         d="m 109.8163,399.32638 c 0.34752,-0.65228 1.64882,-1.24114 1.81978,-1.896 2.32975,-8.92394 2.84056,-12.97843 7.17741,-13.30514 2.40528,-0.0141 4.91434,0.76284 6.38268,4.21969 0.73367,1.72719 2.20265,9.86822 3.06067,10.73489 -8.90993,0.11164 -2.70697,0.32518 -18.44054,0.24656 z"
         id="path3028-8-0-3-9-8-5-7-3-2-4-0"
         inkscape:connector-curvature="0"
         sodipodi:nodetypes="cscscc" />
      <path
         style="fill:#6d1300;fill-opacity:1;fill-rule:evenodd;stroke:none"
         d="m 110.84544,399.95608 c 0.31399,-0.60809 1.48975,-1.15705 1.64422,-1.76754 2.105,-8.3193 2.56652,-12.09909 6.48499,-12.40366 2.17324,-0.0131 4.44024,0.71115 5.76693,3.9338 0.66289,1.61016 1.99015,9.1996 2.76539,10.00755 -8.05036,0.10407 -2.44581,0.30314 -16.66153,0.22985 z"
         id="path3028-8-0-3-9-8-5-7-3-2-4-0-2"
         inkscape:connector-curvature="0"
         sodipodi:nodetypes="cscscc" />
      <path
         style="fill:#bb4b00;fill-opacity:1;fill-rule:evenodd;stroke:none"
         d="m 89.680431,399.86733 c 0.893001,-0.68661 2.981907,-0.82914 3.810073,-1.28829 0.661898,-0.36698 3.193256,-1.43458 3.628425,-1.71927 1.056479,-0.69115 2.637531,-0.30127 3.648951,-0.18599 6.0147,1.38107 8.10327,1.02773 10.15188,0.13722 0.57125,-0.24831 2.23393,-0.11874 3.25017,-0.1037 6.26645,1.66386 3.81032,0.0251 10.47142,-0.0636 3.23542,0.19097 3.41048,0.66976 6.47784,0.75097 2.77807,-0.28468 0.60649,-0.82886 3.84381,-1.01743 1.45225,-0.13552 2.98822,1.17273 5.11775,2.05479 1.98196,0.82096 4.6214,1.20316 4.45938,1.51851 -11.29014,0.0549 -30.388,0.0493 -30.388,0.0493 l -24.471699,0 0,-0.13246 z"
         id="path4116-2-3-8-8-9-3"
         inkscape:connector-curvature="0"
         sodipodi:nodetypes="csscsccccsccccc" />
      <path
         style="fill:#a23c00;fill-opacity:1;fill-rule:evenodd;stroke:none"
         d="m 91.040566,399.90833 c 0.84576,-0.47422 2.824157,-0.57266 3.608511,-0.88979 0.626882,-0.25346 3.024321,-0.99082 3.436467,-1.18745 1.000587,-0.47736 2.497996,-0.20808 3.455916,-0.12845 5.6965,0.95386 7.67459,0.70982 9.61482,0.0948 0.54103,-0.17151 2.11575,-0.082 3.07823,-0.0716 5.93494,1.14918 3.60875,0.0174 9.91745,-0.0439 3.06427,0.13191 3.23006,0.46259 6.13515,0.51868 2.6311,-0.19662 0.57441,-0.57247 3.64047,-0.70272 1.37542,-0.0936 2.83013,0.80998 4.84701,1.4192 1.8771,0.56701 4.37692,0.83099 4.22347,1.04879 -10.69287,0.0379 -28.78041,0.034 -28.78041,0.034 l -23.177084,0 0,-0.0915 z"
         id="path4116-2-3-8-8-9-3-4"
         inkscape:connector-curvature="0"
         sodipodi:nodetypes="csscsccccsccccc" />
    </g>
    <g
       transform="translate(-0.513536,-0.99999974)"
       id="g3725">
      <path
         style="fill:#bb4b00;fill-opacity:1;fill-rule:evenodd;stroke:none"
         d="m 109.34037,447.7481 c 4.28287,-3.42936 4.17177,-11.49506 9.70786,-11.76394 2.59527,-0.0109 4.77284,1.33256 6.35717,4.00776 0.79162,1.33665 2.9063,6.89466 3.83209,7.56537 -9.6137,0.0864 -2.9208,0.25165 -19.89712,0.19081 z"
         id="path3028-8-0-3-9-8-5-7-3-2"
         inkscape:connector-curvature="0"
         sodipodi:nodetypes="ccscc" />
      <path
         style="fill:#a23c00;fill-opacity:1;fill-rule:evenodd;stroke:none"
         d="m 110.01491,448.43374 c 3.98056,-3.07453 3.8773,-10.30568 9.02261,-10.54673 2.41208,-0.01 4.43594,1.19468 5.90844,3.59308 0.73574,1.19834 2.70115,6.18127 3.56159,6.78258 -8.93509,0.0775 -2.71463,0.22561 -18.49264,0.17107 z"
         id="path3028-8-0-3-9-8-5-7-3-2-2"
         inkscape:connector-curvature="0"
         sodipodi:nodetypes="ccscc" />
      <path
         style="fill:#6d1300;fill-opacity:1;fill-rule:evenodd;stroke:none"
         d="m 110.91578,449.41479 c 3.63853,-2.80432 3.54414,-9.39996 8.24734,-9.61983 2.20482,-0.009 4.05478,1.08969 5.40076,3.2773 0.67252,1.09303 2.46905,5.63803 3.25556,6.18649 -8.16734,0.0707 -2.48138,0.20579 -16.90366,0.15604 z"
         id="path3028-8-0-3-9-8-5-7-3-2-2-6"
         inkscape:connector-curvature="0"
         sodipodi:nodetypes="ccscc" />
      <path
         style="fill:#bb4b00;fill-opacity:1;fill-rule:evenodd;stroke:none"
         d="m 89.680431,449.87217 c 0.88438,-0.66158 2.953121,-0.79891 3.773292,-1.24133 0.655508,-0.3536 3.16243,-1.38228 3.593398,-1.65659 1.04628,-0.66595 2.612069,-0.29029 3.613719,-0.17921 5.95665,1.33073 8.02505,0.99026 10.05389,0.13222 0.56572,-0.23926 2.21236,-0.11437 3.21879,-0.0999 6.20596,1.6032 3.77353,0.0242 10.37033,-0.0613 3.20419,0.184 3.37756,0.64534 6.4153,0.72359 2.75126,-0.2743 0.60064,-0.79864 3.80671,-0.98034 1.43823,-0.13058 2.95937,1.12997 5.06835,1.97989 1.96282,0.79103 4.57678,1.15929 4.41632,1.46314 -11.18115,0.0529 -30.09464,0.0475 -30.09464,0.0475 l -24.235459,0 0,-0.12764 z"
         id="path4116-2-3-8-8-9-1"
         inkscape:connector-curvature="0"
         sodipodi:nodetypes="csscsccccsccccc" />
      <path
         style="fill:#a23c00;fill-opacity:1;fill-rule:evenodd;stroke:none"
         d="m 91.679927,449.90643 c 0.827994,-0.48459 2.764839,-0.58518 3.532718,-0.90924 0.613715,-0.259 2.960799,-1.01248 3.364294,-1.21341 0.979571,-0.48779 2.445531,-0.21263 3.383321,-0.13126 5.57687,0.97472 7.5134,0.72534 9.41289,0.0968 0.52964,-0.17525 2.0713,-0.0838 3.01357,-0.0732 5.81028,1.1743 3.53293,0.0177 9.70914,-0.0449 2.99991,0.13477 3.16222,0.47269 6.00628,0.53001 2.57586,-0.20092 0.56235,-0.58498 3.56401,-0.71807 1.34653,-0.0957 2.77069,0.82767 4.74521,1.45021 1.83767,0.57941 4.28498,0.84916 4.13475,1.07172 -10.46828,0.0387 -28.1759,0.0348 -28.1759,0.0348 l -22.690283,0 0,-0.0935 z"
         id="path4116-2-3-8-8-9-1-5"
         inkscape:connector-curvature="0"
         sodipodi:nodetypes="csscsccccsccccc" />
      <path
         style="fill:#6d1300;fill-opacity:1;fill-rule:evenodd;stroke:none"
         d="m 94.314693,449.93374 c 0.730462,-0.343 2.439162,-0.4142 3.116591,-0.64357 0.541427,-0.18333 2.612036,-0.71665 2.967996,-0.85887 0.8642,-0.34527 2.15748,-0.1505 2.9848,-0.0929 4.91996,0.68992 6.62838,0.51341 8.30412,0.0685 0.46725,-0.12405 1.82732,-0.0593 2.6586,-0.0518 5.12588,0.83119 3.11678,0.0125 8.56547,-0.0318 2.64655,0.0954 2.78974,0.33458 5.29879,0.37515 2.27244,-0.14221 0.49611,-0.41405 3.1442,-0.50826 1.18792,-0.0677 2.44432,0.58584 4.18625,1.02648 1.62121,0.41011 3.78025,0.60105 3.64771,0.75858 -9.23519,0.0274 -24.85699,0.0246 -24.85699,0.0246 l -20.017537,0 0,-0.0662 z"
         id="path4116-2-3-8-8-9-1-5-4"
         inkscape:connector-curvature="0"
         sodipodi:nodetypes="csscsccccsccccc" />
    </g>
    <g
       transform="translate(-0.513536,-1.0475145)"
       id="g3717">
      <path
         style="fill:#bb4b00;fill-opacity:1;fill-rule:evenodd;stroke:none"
         d="m 110.50335,498.21417 c 3.9836,-2.04891 3.88025,-6.86787 9.02949,-7.02852 2.41393,-0.007 4.43933,0.79616 5.91295,2.39449 0.73631,0.7986 2.70322,4.11931 3.56431,4.52003 -8.94191,0.0516 -2.71669,0.15036 -18.50675,0.114 z"
         id="path3028-8-0-3-9-8-5-7-3"
         inkscape:connector-curvature="0"
         sodipodi:nodetypes="ccscc" />
      <path
         style="fill:#a23c00;fill-opacity:1;fill-rule:evenodd;stroke:none"
         d="m 110.71871,499.22991 c 3.82237,-2.04891 3.7232,-6.86787 8.66402,-7.02852 2.31623,-0.007 4.25965,0.79616 5.67363,2.39449 0.70651,0.7986 2.59381,4.11931 3.42005,4.52003 -8.57999,0.0516 -2.60674,0.15036 -17.7577,0.114 z"
         id="path3028-8-0-3-9-8-5-7-3-0"
         inkscape:connector-curvature="0"
         sodipodi:nodetypes="ccscc" />
      <path
         style="fill:#6d1300;fill-opacity:1;fill-rule:evenodd;stroke:none"
         d="m 111.65502,499.5108 c 3.39913,-1.74867 3.31094,-5.86147 7.70467,-5.99858 2.05976,-0.006 3.78799,0.67949 5.04541,2.04361 0.62828,0.68157 2.3066,3.51568 3.04135,3.85768 -7.62995,0.044 -2.3181,0.12832 -15.79143,0.0973 z"
         id="path3028-8-0-3-9-8-5-7-3-0-4"
         inkscape:connector-curvature="0"
         sodipodi:nodetypes="ccscc" />
      <path
         style="fill:#bb4b00;fill-opacity:1;fill-rule:evenodd;stroke:none"
         d="m 89.267296,499.88186 c 0.88438,-0.61152 2.953121,-0.73846 3.773292,-1.1474 0.655508,-0.32684 3.16243,-1.27769 3.593398,-1.53124 1.04628,-0.61556 2.612069,-0.26833 3.613714,-0.16565 5.95665,1.23004 8.02505,0.91533 10.05389,0.12221 0.56572,-0.22115 2.21236,-0.10571 3.21879,-0.0923 6.20596,1.48189 3.77353,0.0224 10.37033,-0.0567 3.20419,0.17008 3.37756,0.59651 6.4153,0.66884 2.75126,-0.25354 0.60064,-0.73821 3.80671,-0.90616 1.43823,-0.1207 2.95937,1.04447 5.06835,1.83008 1.96282,0.73117 4.57678,1.07157 4.41632,1.35242 -11.18115,0.0489 -30.09464,0.0439 -30.09464,0.0439 l -24.235454,0 0,-0.11798 z"
         id="path4116-2-3-8-8-9-1-3"
         inkscape:connector-curvature="0"
         sodipodi:nodetypes="csscsccccsccccc" />
      <path
         style="fill:#a23c00;fill-opacity:1;fill-rule:evenodd;stroke:none"
         d="m 90.994666,499.91943 c 0.827995,-0.41683 2.764839,-0.50336 3.532718,-0.78211 0.613715,-0.22278 2.960803,-0.87091 3.364294,-1.04374 0.979572,-0.41958 2.445532,-0.1829 3.383312,-0.11291 5.57687,0.83843 7.5134,0.62392 9.41289,0.0833 0.52965,-0.15074 2.0713,-0.072 3.01357,-0.0629 5.81028,1.0101 3.53294,0.0153 9.70914,-0.0386 2.9999,0.11593 3.16222,0.4066 6.00628,0.4559 2.57585,-0.17282 0.56235,-0.50318 3.56401,-0.61766 1.34653,-0.0823 2.77069,0.71194 4.74521,1.24744 1.83767,0.49838 4.28497,0.73041 4.13475,0.92185 -10.46828,0.0333 -28.1759,0.0299 -28.1759,0.0299 l -22.690274,0 0,-0.0804 z"
         id="path4116-2-3-8-8-9-1-3-0"
         inkscape:connector-curvature="0"
         sodipodi:nodetypes="csscsccccsccccc" />
      <path
         style="fill:#6d1300;fill-opacity:1;fill-rule:evenodd;stroke:none"
         d="m 93.20294,499.99604 c 0.765495,-0.26665 2.55614,-0.322 3.266057,-0.50032 0.567387,-0.14251 2.737312,-0.55713 3.110351,-0.66769 0.905622,-0.2684 2.260932,-0.117 3.127922,-0.0722 5.15591,0.53635 6.94627,0.39912 8.70237,0.0533 0.48967,-0.0964 1.91496,-0.046 2.7861,-0.0403 5.3717,0.64616 3.26626,0.01 8.97626,-0.0247 2.77346,0.0741 2.92352,0.2601 5.5529,0.29164 2.38142,-0.11056 0.51991,-0.32189 3.295,-0.39512 1.24488,-0.0527 2.56154,0.45543 4.38702,0.79799 1.69896,0.31881 3.96153,0.46724 3.82264,0.58971 -9.67809,0.0213 -26.04909,0.0191 -26.04909,0.0191 l -20.97753,0 0,-0.0514 z"
         id="path4116-2-3-8-8-9-1-3-0-9"
         inkscape:connector-curvature="0"
         sodipodi:nodetypes="csscsccccsccccc" />
    </g>
    <g
       transform="translate(-0.513536,-1.0768751)"
       id="g3794">
      <g
         id="g4139">
        <g
           transform="matrix(1.0077978,0,0,1,60.411961,0)"
           id="g3323">
          <path
             style="opacity:0.98279993;fill:#bb4b00;fill-opacity:1;fill-rule:evenodd;stroke:none"
             d="m 43.794451,249.04844 0.56511,0 0,0.0467 c 0.978381,-0.93199 5.815211,0.105 6.03104,-0.44855 0,-0.30697 0.0443,-0.31469 1.80839,-0.31469 1.75495,0 1.80839,0.009 1.80839,0.30908 0,0.27746 0.12727,-1.68179 1.24328,-1.60185 1.12299,0.0805 1.67634,0.59562 1.24326,0.40376 l -2.41423,0.93046 6.59615,-1.38424 -8.09067,-0.12211 c 0.0859,-1.05287 0.90989,-8.09103 1.07407,-11.55503 0.10044,-2.11916 0.0606,-5.2399 0.99865,-7.16757 0.93064,-1.91251 2.83517,-2.64028 3.92645,-2.65734 2.32059,-0.0183 4.40299,2.25765 5.81963,6.94523 0.70783,2.34212 1.00751,10.60394 1.83531,11.77917 2.81793,6.6447 -0.23968,5.58377 -9.80436,5.61466 -7.093411,0.80644 -12.791782,-4.17269 -12.64047,-0.77768 z"
             id="path3028-8-0-3"
             inkscape:connector-curvature="0"
             sodipodi:nodetypes="ccccsssscccsscsccc" />
          <path
             style="opacity:0.98279993;fill:#a23c00;fill-opacity:1;fill-rule:evenodd;stroke:none"
             d="m 45.412718,249.94481 c 0,0.31201 0.38439,0.0234 0.47835,-0.3695 l 0.47835,0 0,0.0444 c -0.07984,-2.02135 0.57401,-1.72322 3.0002,-1.56476 0,-0.26366 0.10772,-0.30238 1.05235,-0.37836 0.95054,-0.0764 1.05235,-0.11356 1.05235,-0.38368 0,-0.29169 0.0375,1.70096 1.53071,1.70096 1.48547,0 1.53071,-1.992 1.53071,-1.70629 0,0.26366 0.10771,0.30238 1.05235,0.37836 0.95055,0.0764 1.41351,0.5633 1.05236,0.38368 l -2.04351,0.98364 5.58326,-1.31541 -6.61663,-0.24633 c 0.0895,-1.23218 1.27013,-16.77906 2.26171,-17.95147 0.81958,-0.96905 0.96667,-2.45292 2.47769,-2.47942 1.65911,-0.0147 2.46703,0.97621 3.49366,2.08418 0.7961,0.85918 2.17415,14.39003 3.0927,15.85405 1.34949,6.08387 1.80975,3.35774 -8.29882,3.33509 l -11.17779,0 0,1.63051 z"
             id="path3028-4-0-8-0"
             inkscape:connector-curvature="0"
             sodipodi:nodetypes="sscccsssssscccscsccccs" />
          <path
             style="opacity:0.98279993;fill:#6d1300;fill-opacity:1;fill-rule:evenodd;stroke:none"
             d="m 47.900687,247.96857 c 0,-0.3038 0.70264,-0.35975 0.38095,-0.35975 l 0.38094,0 0,0.0432 0.42134,0.57153 0.33414,0 c 1.40524,-1.75629 2.813527,-1.46483 3.31,-0.83704 0,-0.28401 0.03,-0.29116 1.21904,-0.29116 1.18301,0 1.21903,0.008 1.21903,0.28598 0,0.2567 0.0858,0.29442 0.83808,0.36838 1.126931,0.51193 0.407251,-0.20691 -0.78934,-0.61601 4.443693,0.45499 3.234114,0.717 -0.82295,0.47941 0.0713,-1.19972 2.25273,-16.21225 3.04241,-17.35378 0.78958,-1.07139 1.65913,-0.53764 2.44984,0.38018 0.63401,0.83654 2.79591,13.06845 3.52742,14.49392 l 0.177725,1.31184 c -1.09012,4.53098 6.317515,1.85518 -6.786795,1.88274 l -8.90183,0 0,-0.35976 z"
             id="path3028-4-7-4-1-7"
             inkscape:connector-curvature="0"
             sodipodi:nodetypes="sscccccssccccccccccs" />
        </g>
        <path
           sodipodi:nodetypes="csscsccccsccccc"
           inkscape:connector-curvature="0"
           id="path4116-2-3-8-8"
           d="m 90.210092,249.85095 c 0.886166,-0.77207 2.959083,-0.93233 3.78091,-1.44865 0.656831,-0.41264 3.168814,-1.61312 3.600652,-1.93324 1.048392,-0.77717 2.617346,-0.33877 3.621026,-0.20914 5.96867,1.55297 8.04124,1.15563 10.07417,0.15429 0.56688,-0.27921 2.21683,-0.13347 3.22529,-0.1166 6.2185,1.87095 3.78116,0.0282 10.39128,-0.0716 3.21065,0.21472 3.38436,0.75312 6.42824,0.84443 2.75682,-0.3201 0.60185,-0.93202 3.8144,-1.14406 1.44113,-0.15239 2.96534,1.31868 5.07858,2.31054 1.96677,0.92314 4.58601,1.3529 4.42524,1.7075 -11.20373,0.0617 -30.15539,0.0554 -30.15539,0.0554 l -24.284398,0 0,-0.14896 z"
           style="fill:#bb4b00;fill-opacity:1;fill-rule:evenodd;stroke:none" />
        <path
           sodipodi:nodetypes="csscsccccsccccc"
           inkscape:connector-curvature="0"
           id="path4116-2-3-8-8-5"
           d="m 91.625075,249.88853 c 0.85264,-0.57738 2.847132,-0.69723 3.637866,-1.08335 0.631981,-0.30858 3.048924,-1.20634 3.464427,-1.44574 1.008728,-0.58119 2.518332,-0.25334 3.484042,-0.1564 5.74285,1.16136 7.73701,0.86422 9.69303,0.11538 0.54544,-0.2088 2.13296,-0.0998 3.10327,-0.0872 5.98323,1.39916 3.63811,0.0211 9.99814,-0.0535 3.08918,0.16057 3.25632,0.56321 6.18504,0.63149 2.65252,-0.23938 0.57908,-0.69699 3.67009,-0.85556 1.3866,-0.11397 2.85315,0.98615 4.88644,1.72789 1.89236,0.69036 4.41251,1.01175 4.25782,1.27693 -10.77986,0.0461 -29.01452,0.0414 -29.01452,0.0414 l -23.365645,0 0,-0.1114 z"
           style="fill:#a23c00;fill-opacity:1;fill-rule:evenodd;stroke:none" />
        <path
           sodipodi:nodetypes="csscsccccsccccc"
           inkscape:connector-curvature="0"
           id="path4116-2-3-8-8-5-2"
           d="m 93.310443,249.92954 c 0.799303,-0.36498 2.669028,-0.44075 3.410296,-0.68483 0.592447,-0.19507 2.858188,-0.76258 3.247715,-0.91392 0.945626,-0.3674 2.360786,-0.16015 3.266086,-0.0989 5.3836,0.73414 7.25301,0.5463 9.08668,0.0729 0.51132,-0.13198 1.99953,-0.0631 2.90914,-0.0551 5.60895,0.88448 3.41052,0.0134 9.37269,-0.0338 2.89594,0.10151 3.05262,0.35603 5.79813,0.3992 2.48659,-0.15133 0.54286,-0.4406 3.44052,-0.54085 1.29985,-0.072 2.67466,0.62339 4.58075,1.09228 1.77398,0.43641 4.13649,0.63958 3.99147,0.8072 -10.10551,0.0291 -27.19948,0.0262 -27.19948,0.0262 l -21.903997,0 0,-0.0704 z"
           style="fill:#6d1300;fill-opacity:1;fill-rule:evenodd;stroke:none" />
      </g>
    </g>
    <g
       transform="matrix(1.011322,0,0,0.98755459,-1.152843,-0.427648)"
       id="g3256">
      <path
         style="fill:#bb4b00;fill-opacity:1;fill-rule:evenodd;stroke:none"
         d="m 24.309493,40.570783 c -2.498687,-2.496849 0.629161,-3.659397 2.827572,-3.423365 2.690526,0.288873 1.378375,0.633113 5.172116,0.19094 3.686856,-1.799953 3.038119,-1.920903 7.948799,-0.667468 3.505872,0.894858 4.233221,-1.981112 7.542169,-1.638641 1.183807,0.122521 3.958707,0.834825 3.970806,1.618118 2.345006,1.230956 2.03859,-1.575218 3.723508,-0.687526 1.968089,1.02333 2.608466,1.648715 0.971287,4.536374 -2.687676,5.333265 -2.838275,6.17824 -2.856401,9.450237 -4.347409,0.05751 -24.753951,0.101096 -26.909151,0.101096 -0.419234,-6.302446 -0.872445,-6.437845 -2.390705,-9.479765 z"
         id="path3834-5-6-3-7-4-5-8"
         inkscape:connector-curvature="0"
         sodipodi:nodetypes="cscsscccccc" />
      <path
         style="fill:#a23c00;fill-opacity:1;fill-rule:evenodd;stroke:none"
         d="m 25.912889,41.679787 c -2.218982,-2.191438 0.558733,-3.211784 2.511051,-3.004624 2.389348,0.253539 1.224079,0.555672 4.593146,0.167585 3.274148,-1.579785 2.69803,-1.68594 7.059006,-0.585824 3.113422,0.7854 3.75935,-1.738784 6.697893,-1.438205 1.05129,0.107535 3.515565,0.732711 3.52631,1.420192 2.082505,1.080387 1.810389,-1.382539 3.306695,-0.603428 1.74778,0.898157 2.316473,1.447046 0.862561,3.98149 -2.386816,4.680907 -2.520557,5.422526 -2.536654,8.294296 C 48.07214,49.961744 29.949922,50 28.035976,50 27.663673,44.46846 27.261195,44.349622 25.912889,41.679787 z"
         id="path3834-5-6-3-7-4-5-8-4"
         inkscape:connector-curvature="0"
         sodipodi:nodetypes="cscsscccccc" />
      <path
         style="fill:#6d1300;fill-opacity:1;fill-rule:evenodd;stroke:none"
         d="m 27.992848,43.097995 c -1.904633,-1.8179 0.47958,-2.664324 2.155326,-2.492475 2.050864,0.210322 1.050671,0.460955 3.942464,0.139019 2.810319,-1.310505 2.315817,-1.398565 6.059001,-0.485968 2.672362,0.651526 3.226786,-1.442402 5.749044,-1.193057 0.90236,0.0892 3.017537,0.607817 3.026759,1.178115 1.78749,0.896231 1.553924,-1.146881 2.838258,-0.500572 1.500182,0.745063 1.988311,1.200392 0.740366,3.302831 -2.048691,3.883029 -2.163486,4.498236 -2.177302,6.880502 C 47.012936,49.96826 31.457979,50 29.81517,50 29.49561,45.411331 29.150148,45.31275 27.992848,43.097998 z"
         id="path3834-5-6-3-7-4-5-8-4-7"
         inkscape:connector-curvature="0"
         sodipodi:nodetypes="cscsscccccc" />
    </g>
    <g
       transform="matrix(1,0,0,0.98191228,-0.513536,0.80877237)"
       id="g3261">
      <path
         style="fill:#bb4b00;fill-opacity:1;fill-rule:evenodd;stroke:none"
         d="m 24.27716,90.464712 c -1.139418,-2.182153 -1.543144,-3.075305 -2.959905,-4.907838 -2.665636,-3.447914 1.178763,-4.4068 3.524061,-4.080862 2.870291,0.398906 1.47047,0.227786 6.735846,1.03945 6.775557,-1.451193 4.865319,-2.393995 10.104104,-0.663119 3.740116,1.235715 2.891852,-2.994322 6.421887,-2.521402 3.780898,0.544505 3.944194,3.18875 7.186335,3.939763 1.379338,0.347721 0.613071,-0.883893 2.849306,-1.749626 1.693533,-0.655624 5.016038,2.147425 3.066445,4.066265 -4.847303,4.770841 -3.949778,3.39993 -5.910569,8.393615 -1.006211,3.794125 -0.99418,5.879438 -0.99418,5.879438 C 49.662612,99.939816 27.892616,100 25.593417,100 25.474391,94.544006 25.825727,92.808834 24.27716,90.464712 z"
         id="path3834-5-6-3-7-4-5"
         inkscape:connector-curvature="0"
         sodipodi:nodetypes="csscsccsscccc" />
      <path
         style="fill:#a23c00;fill-opacity:1;fill-rule:evenodd;stroke:none"
         d="m 25.533114,90.750488 c -1.03664,-1.945332 -1.029423,-3.209711 -2.318389,-4.843366 -2.425191,-3.073724 0.323382,-2.711334 2.45713,-2.420769 2.611386,0.355614 1.337831,0.203065 6.12826,0.926642 6.164389,-1.2937 4.426458,-2.134183 9.192695,-0.591153 3.402751,1.101607 3.754583,-2.388465 6.966202,-1.966868 3.439854,0.485411 2.371207,2.000001 5.320902,2.669509 1.254918,0.309985 2.055878,0.14835 4.090401,-0.623428 1.540773,-0.584472 2.035525,1.539846 0.261788,3.250441 -4.410066,4.253079 -2.469919,3.030948 -4.253843,7.482687 -0.915449,3.382362 -0.904503,5.241364 -0.904503,5.241364 C 48.254224,99.946347 28.447922,100 26.356115,100 c -0.10829,-4.863875 0.585882,-7.159789 -0.823001,-9.249512 z"
         id="path3834-5-6-3-7-4-5-1"
         inkscape:connector-curvature="0"
         sodipodi:nodetypes="csscsccsscccc" />
      <path
         style="fill:#6d1300;fill-opacity:1;fill-rule:evenodd;stroke:none"
         d="m 27.189003,91.033099 c -0.936234,-1.704467 -1.730966,-2.108073 -2.281101,-3.869148 -0.799936,-2.560731 -0.105186,-1.736269 1.821895,-1.481681 2.358457,0.311584 1.6055,1.965529 5.931946,2.599515 5.567328,-1.133518 4.19635,-1.737519 8.500947,-0.385543 3.073173,0.96521 3.390928,-1.496865 6.291481,-1.127468 3.106683,0.425309 1.413257,0.229592 4.077255,0.816204 1.133371,0.271603 2.187791,-1.127964 3.628012,-0.347615 -1.634114,1.953559 -2.158363,4.081879 -3.009531,7.550373 -0.826781,2.963569 -0.816895,4.989642 -0.816895,4.989642 -3.810845,0.06204 -21.698781,0.109043 -23.587984,0.109043 -0.0978,-4.261646 0.716399,-7.022341 -0.556025,-8.853322 z"
         id="path3834-5-6-3-7-4-5-1-5"
         inkscape:connector-curvature="0"
         sodipodi:nodetypes="csscsccccccc" />
    </g>
    <g
       transform="matrix(1,0,0,0.98007354,-0.513536,1.988969)"
       id="g3266">
      <path
         style="fill:#bb4b00;fill-opacity:1;fill-rule:evenodd;stroke:none"
         d="m 22.736302,135.0422 c -1.204006,-2.95831 -1.468482,-2.77513 -3.528651,-4.49558 -4.092595,-3.41769 0.243174,-6.48197 2.721415,-6.0401 3.032995,0.54079 1.553824,0.68961 7.11767,1.78997 7.159632,-1.96736 5.842797,-2.73776 11.378544,-0.39124 3.952126,1.67524 5.762279,-4.69403 9.492415,-4.0529 3.956539,1.23961 3.400826,4.40069 6.99225,5.46801 1.457526,0.4714 3.655048,-0.94441 6.018044,-2.11807 1.789531,-0.88882 3.796762,3.1651 2.939545,4.24322 -5.132245,6.45481 -8.584268,5.11697 -8.952113,12.39457 -0.662284,1.97026 -1.050534,7.97066 -1.050534,7.97066 C 50.96411,149.91841 27.960073,150 25.530543,150 25.204289,141.71485 25.67578,139.74331 22.736302,135.0422 z"
         id="path3834-5-6-3-7-4"
         inkscape:connector-curvature="0"
         sodipodi:nodetypes="csscsccsscccc" />
      <path
         style="fill:#a23c00;fill-opacity:1;fill-rule:evenodd;stroke:none"
         d="m 25.064022,136.13507 c -1.050052,-2.74216 -0.906183,-3.50869 -2.702922,-5.10343 -3.569282,-3.16799 -0.630607,-4.41664 1.530747,-4.00705 2.645171,0.50128 1.823298,-0.0162 6.675704,1.00376 6.244143,-1.82361 5.09569,-2.53772 9.92359,-0.36265 3.446775,1.55284 5.77452,-3.69565 9.027691,-3.10136 3.450623,1.14904 2.216915,3.42374 5.349109,4.41308 1.271155,0.43696 4.311265,-0.12636 6.372108,-1.21427 1.560707,-0.82388 1.064116,2.37206 0.316509,3.37141 -4.475994,5.98319 -6.363032,4.55584 -6.683841,11.30171 -0.577599,1.82631 -0.916204,7.3883 -0.916204,7.3883 C 49.68239,149.92437 29.619838,150 27.500968,150 c -0.284536,-7.67981 0.126666,-9.5073 -2.436946,-13.86493 z"
         id="path3834-5-6-3-7-4-59"
         inkscape:connector-curvature="0"
         sodipodi:nodetypes="csscsccsscccc" />
      <path
         style="fill:#6d1300;fill-opacity:1;fill-rule:evenodd;stroke:none"
         d="m 25.118008,132.26433 c -3.251031,-2.99338 -2.030946,-2.98538 -0.06231,-2.59836 2.409317,0.47365 3.305638,5.24358 6.838129,3.78011 4.581544,-1.89807 5.995672,-1.73578 10.393098,0.31942 3.139447,1.46725 3.948797,-4.05376 6.911903,-3.49222 3.142952,1.08571 0.521138,2.39235 3.374054,3.32716 1.157814,0.41288 2.803275,-2.92834 4.493102,-2.36455 1.537439,0.51295 -1.133259,2.58655 -1.771609,3.56012 -2.399462,4.49452 -2.380138,6.21592 -2.053547,15.03823 C 49.347805,149.92854 31.635897,150 29.705954,150 c -0.280175,-7.89869 -0.61624,-13.99718 -4.587946,-17.73567 z"
         id="path3834-5-6-3-7-4-59-2"
         inkscape:connector-curvature="0"
         sodipodi:nodetypes="csssccscccc" />
    </g>
    <g
       transform="matrix(1,0,0,0.97812443,-0.3187027,3.3178323)"
       id="g3271">
      <path
         style="fill:#bb4b00;fill-opacity:1;fill-rule:evenodd;stroke:none"
         d="m 21.64439,180.55753 c -2.849057,-4.60893 -3.81898,-3.25148 -5.991183,-5.33761 -4.315154,-4.14416 0.05895,-7.97331 2.671961,-7.43751 3.197932,0.65574 3.217899,1.74446 9.084313,3.0787 7.54898,-2.38553 8.628622,-2.63847 14.465409,0.20682 4.167047,2.03133 5.384573,-6.0324 9.317559,-5.25499 5.696083,0.21635 2.99157,4.97936 7.273771,6.63029 1.536788,0.5716 5.137219,-1.25869 7.628717,-2.68182 1.886848,-1.07775 3.684308,1.04263 4.086637,2.64741 2.930009,11.68698 -9.779402,-1.12565 -11.709581,17.64041 l -2.094898,9.94927 c -5.167286,0.13056 -28.435072,0.003 -30.996722,0.003 -0.582394,-9.05309 -1.339154,-15.51914 -3.735983,-19.44388 z"
         id="path3834-5-6-3-7"
         inkscape:connector-curvature="0"
         sodipodi:nodetypes="csscsccssccccc" />
      <path
         style="fill:#a23c00;fill-opacity:1;fill-rule:evenodd;stroke:none"
         d="m 23.760317,181.63128 c -2.516108,-4.34158 -2.048532,-3.85736 -3.966886,-5.82248 -3.810874,-3.90377 -2.861075,-5.92183 -0.553426,-5.41711 2.824214,0.61771 3.239093,1.37844 8.419945,2.63529 6.666788,-2.24716 8.811997,-3.01508 13.966683,-0.33484 3.680076,1.9135 6.741549,-4.75557 10.214916,-4.02326 5.030425,0.2038 0.655739,3.76362 4.437511,5.31879 1.357196,0.53844 5.728609,0.13847 7.928944,-1.20211 1.666347,-1.01524 3.142442,1.35055 2.946987,2.89109 -0.590365,4.65313 -9.166218,-2.78175 -10.870832,14.89576 l -1.850084,9.37214 c -4.563424,0.12299 -25.11208,0.003 -27.37437,0.003 -0.514334,-8.52795 -1.182657,-14.61893 -3.299388,-18.31601 z"
         id="path3834-5-6-3-7-0"
         inkscape:connector-curvature="0"
         sodipodi:nodetypes="csscsccssccccc" />
      <path
         style="fill:#6d1300;fill-opacity:1;fill-rule:evenodd;stroke:none"
         d="m 25.154482,179.5718 c -3.003337,-3.1029 -3.049296,-4.3097 -1.230645,-3.90852 2.225753,0.49098 2.420303,1.89014 6.503315,2.88914 5.254074,-1.78615 6.944705,-2.39653 11.007097,-0.26615 2.900256,1.52095 5.312993,-3.77996 8.050342,-3.19788 3.964462,0.16199 0.516786,2.99151 3.497188,4.22763 1.069602,0.42798 3.295379,-2.52783 5.189452,-3.27276 1.737078,-0.68318 1.734758,0.25348 1.594227,1.5035 -0.416454,3.70435 -5.43626,0.90068 -6.779661,14.95163 l -1.458045,7.44943 c -3.596419,0.0977 -19.790747,0.003 -21.57365,0.003 -0.679605,-4.87003 -1.91053,-17.23417 -4.79962,-20.37902 z"
         id="path3834-5-6-3-7-0-8"
         inkscape:connector-curvature="0"
         sodipodi:nodetypes="cscsccsscccc" />
    </g>
    <g
       transform="matrix(1,0,0,0.96925179,0.24308763,6.6437531)"
       id="g3276">
      <path
         style="fill:#bb4b00;fill-opacity:1;fill-rule:evenodd;stroke:none"
         d="m 23.743124,249.99998 c -0.0021,-8.38473 -0.674478,-13.21106 -1.947372,-19.40235 -2.872411,-4.60893 -8.660165,-7.98126 -9.00852,-9.36377 -1.45177,-5.76161 3.219163,-6.38157 5.853588,-5.84577 3.224147,0.65574 3.00822,4.48264 8.858827,2.89143 7.800011,-2.12139 7.371568,-2.4512 13.2562,0.39409 4.201205,2.03133 7.439447,-5.93877 11.404672,-5.16136 5.88637,1.47719 3.32255,5.27447 8.482387,7.09844 1.549385,0.5716 3.83884,-1.44595 6.350762,-2.86908 1.902314,-1.07775 5.150747,0.29358 5.556374,1.89836 2.954028,11.68698 -11.678801,1.6833 -13.624802,20.44936 l -2.112071,9.89196 c -5.209643,0.13056 -30.487397,0.019 -33.070045,0.0187 z"
         id="path3834-5-6-3"
         inkscape:connector-curvature="0"
         sodipodi:nodetypes="ccssssccsscccc" />
      <path
         style="fill:#a23c00;fill-opacity:1;fill-rule:evenodd;stroke:none"
         d="m 25.496074,249.95921 c -0.0019,-7.80617 -0.613588,-12.29948 -1.771569,-18.06356 -2.348268,-6.14472 -7.854441,-9.22953 -8.592502,-10.70389 -2.475121,-4.94432 1.736809,-3.55775 4.133405,-3.05892 2.93308,0.61049 4.32563,3.77608 9.64806,2.29467 7.095848,-1.97502 6.706084,-2.28207 12.059468,0.36689 3.821932,1.89117 6.767834,-5.52898 10.37509,-4.80522 5.354965,1.37527 3.022599,4.91053 7.716621,6.60864 1.409511,0.53216 4.816432,-0.81652 7.101585,-2.14145 1.730578,-1.00338 3.411783,-0.26785 3.730608,1.23771 1.098363,5.1867 -10.624472,1.56715 -12.394793,19.03833 l -1.921399,9.2094 c -4.739331,0.12155 -27.735081,0.0176 -30.084574,0.0174 z"
         id="path3834-5-6-3-9"
         inkscape:connector-curvature="0"
         sodipodi:nodetypes="ccssssccssccc" />
      <path
         style="fill:#6d1300;fill-opacity:1;fill-rule:evenodd;stroke:none"
         d="m 27.065792,249.95841 c -0.0017,-6.40851 -0.539507,-10.09732 -1.55768,-14.82937 -1.005428,-5.70662 -4.018476,-8.65907 -4.667428,-9.86945 -2.176288,-4.05906 0.367507,-2.79775 2.474751,-1.45191 2.214151,1.41411 2.168956,4.05903 6.848785,2.84286 6.239133,-1.62141 5.802795,-2.06075 10.509841,0.11393 3.360492,1.55256 6.887038,-4.44541 10.058774,-3.85123 4.708435,1.12903 1.721349,3.18863 5.84864,4.5827 1.239334,0.43688 3.433776,-1.43268 5.443032,-2.52039 1.521637,-0.82373 2.466305,-2.06039 2.746635,-0.8244 0.479655,2.11481 -1.679538,1.87114 -3.976849,4.07261 -2.328176,2.23105 -4.803273,6.94048 -5.586757,14.15986 l -1.68942,7.56051 c -4.16713,0.0998 -24.386496,0.0144 -26.452324,0.0143 z"
         id="path3834-5-6-3-9-0"
         inkscape:connector-curvature="0"
         sodipodi:nodetypes="ccssssccssscccc" />
    </g>
    <g
       transform="matrix(0.96289698,0,0,0.98960187,1.0985144,2.0458593)"
       id="g3281">
      <path
         style="fill:#bb4b00;fill-opacity:1;fill-rule:evenodd;stroke:none"
         d="m 22.29079,299.99998 c -0.0021,-8.38473 0.408741,-12.55759 -0.863963,-18.74888 -2.871983,-4.60893 -8.382106,-8.51092 -8.465619,-9.09894 -0.835479,-5.88265 3.218684,-7.04365 5.852716,-6.50785 3.223667,0.65574 4.943793,4.84775 10.79351,3.25655 7.799166,-2.12148 7.329923,-2.28666 13.213678,0.55863 4.200579,2.03133 5.94905,-6.2036 9.913685,-5.42619 1.418383,0.27813 4.642426,2.30102 4.656922,4.0791 0.02181,2.6756 1.324158,2.46404 2.470304,2.88693 1.549154,0.5716 4.785995,-0.38663 7.297542,-1.80976 1.902031,-1.07775 5.55615,-0.23608 5.961716,1.3687 2.953588,11.68698 -11.135502,0.35914 -13.081213,19.1252 l -1.840976,10.15679 c 11.579461,0.39539 -33.326038,0.16006 -35.908302,0.15976 z"
         id="path3834-5-6"
         inkscape:connector-curvature="0"
         sodipodi:nodetypes="ccssssssssscccc" />
      <path
         style="fill:#a23c00;fill-opacity:1;fill-rule:evenodd;stroke:none"
         d="m 23.511372,299.99999 c -0.002,-7.82741 0.779178,-12.68366 -0.41005,-18.46342 -2.683611,-4.30259 -7.170252,-8.60729 -7.248287,-9.15622 -0.78068,-5.49165 1.418589,-4.85408 3.879856,-4.35389 3.012229,0.61215 3.514653,3.06065 9.040402,4.30621 6.126595,-4.41217 8.423986,-3.53321 13.921828,-0.87704 3.925065,1.89631 5.558855,-5.79126 9.263452,-5.06552 1.325352,0.25964 4.337931,2.14808 4.351477,3.80797 0.02038,2.49776 1.237307,2.30026 2.308278,2.69504 1.447545,0.53361 4.472084,-0.36093 6.8189,-1.68947 1.777277,-1.00611 5.852269,-0.2417 5.57069,1.27773 -1.404478,7.5787 -11.002374,-0.14252 -12.223223,17.85398 l -1.720228,9.48169 c 10.81997,0.36911 -31.1402,0.18326 -33.553095,0.18296 z"
         id="path3834-5-6-36"
         inkscape:connector-curvature="0"
         sodipodi:nodetypes="ccsscsssssscccc" />
      <path
         style="fill:#6d1300;fill-opacity:1;fill-rule:evenodd;stroke:none"
         d="m 25.193947,299.95293 c -0.0018,-6.39776 0.689282,-10.36704 -0.362741,-15.09115 -0.126835,-7.63655 -4.283101,-8.34605 -4.726661,-10.4801 -0.924185,-4.4464 -1.773422,0.7313 -0.125778,-2.43508 1.251523,-2.40513 4.045474,5.49784 8.933702,6.51591 5.419753,-3.60631 9.137458,-2.51336 14.000999,-0.34233 3.472219,1.54996 4.542987,-3.60992 7.820175,-3.01673 1.172441,0.21221 3.462924,1.00667 3.474907,2.36339 0.01802,2.04156 1.094556,2.06741 2.041966,2.39007 1.280537,0.43616 2.832546,-3.47848 4.908603,-4.56437 1.572227,-0.82235 2.876194,-1.77222 2.306295,-0.64101 -2.366019,4.69637 -5.987729,2.69246 -7.067726,17.40198 l -1.52176,7.7499 c 9.571639,0.30169 -27.547467,0.14979 -29.681981,0.14954 z"
         id="path3834-5-6-36-7"
         inkscape:connector-curvature="0"
         sodipodi:nodetypes="ccsscsssssscccc" />
    </g>
  </g>
</svg>
