<?xml version="1.0" encoding="UTF-8" standalone="no"?>
<!-- Created with Inkscape (http://www.inkscape.org/) -->

<svg
   xmlns:dc="http://purl.org/dc/elements/1.1/"
   xmlns:cc="http://creativecommons.org/ns#"
   xmlns:rdf="http://www.w3.org/1999/02/22-rdf-syntax-ns#"
   xmlns:svg="http://www.w3.org/2000/svg"
   xmlns="http://www.w3.org/2000/svg"
   xmlns:sodipodi="http://sodipodi.sourceforge.net/DTD/sodipodi-0.dtd"
   xmlns:inkscape="http://www.inkscape.org/namespaces/inkscape"
   id="svg2"
   sodipodi:version="0.32"
   inkscape:version="0.48.1 r9760"
   width="128"
   height="32"
   version="1.0"
   sodipodi:docname="Border.svg"
   inkscape:output_extension="org.inkscape.output.svg.inkscape"
   inkscape:export-filename="Border.png"
   inkscape:export-xdpi="90"
   inkscape:export-ydpi="90">
  <metadata
     id="metadata7">
    <rdf:RDF>
      <cc:Work
         rdf:about="">
        <dc:format>image/svg+xml</dc:format>
        <dc:type
           rdf:resource="http://purl.org/dc/dcmitype/StillImage" />
        <dc:title />
      </cc:Work>
    </rdf:RDF>
  </metadata>
  <defs
     id="defs5">
    <inkscape:perspective
       sodipodi:type="inkscape:persp3d"
       inkscape:vp_x="0 : 526.18109 : 1"
       inkscape:vp_y="0 : 1000 : 0"
       inkscape:vp_z="744.09448 : 526.18109 : 1"
       inkscape:persp3d-origin="372.04724 : 350.78739 : 1"
       id="perspective9" />
  </defs>
  <sodipodi:namedview
     inkscape:window-height="824"
     inkscape:window-width="1434"
     inkscape:pageshadow="2"
     inkscape:pageopacity="0.0"
     guidetolerance="10.0"
     gridtolerance="10.0"
     objecttolerance="10.0"
     borderopacity="1.0"
     bordercolor="#666666"
     pagecolor="#ffffff"
     id="base"
     showgrid="false"
     inkscape:zoom="4.3515626"
     inkscape:cx="55.91344"
     inkscape:cy="46.958919"
     inkscape:window-x="0"
     inkscape:window-y="25"
     inkscape:current-layer="layer2"
     inkscape:window-maximized="0"
     borderlayer="true" />
  <g
     inkscape:groupmode="layer"
     id="layer2"
     inkscape:label="main">
    <path
       style="fill:#727793;fill-opacity:1;fill-rule:evenodd;stroke:none;stroke-width:0.69999999000000002;stroke-linecap:butt;stroke-linejoin:miter;marker:none;marker-start:none;marker-mid:none;marker-end:none;stroke-miterlimit:4;stroke-dashoffset:0;stroke-opacity:1;visibility:visible;display:inline;overflow:visible;enable-background:accumulate;color:#000000"
       d="M -2.59375,-1.96875 C -2.59375,-1.96875 -3.7460784,4.1342238 -2.59375,6.5 C -1.4414216,8.8657761 1.5584341,11.901014 4.5625,12.09375 C 7.5665658,12.286486 10.837582,4.0363139 13.875,4.0625 C 16.912418,4.0886863 18.928062,11.200773 21.875,11.375 C 24.821937,11.549227 28.399078,6.9222753 31.3125,6.96875 C 34.225922,7.0152249 37.85079,11.035782 41.21875,10.9375 C 44.586709,10.839219 44.047277,4.2333587 47.3125,4.28125 C 50.57772,4.3291416 55.852262,9.8771199 58.1875,9.9375 C 60.522739,9.99788 61.46392,7.8985345 64.3125,8.0625 C 67.161075,8.2264652 70.453946,10.710593 73.5625,10.53125 C 76.671055,10.351907 77.4329,3.0705724 80,2.5625 C 82.567104,2.0544274 88.175909,9.3244251 91.1875,9.0625 C 94.199093,8.8005746 95.328865,5.2437183 98.84375,5.71875 C 102.35863,6.1937815 102.50329,10.095946 105.93129,9.9063008 C 109.35928,9.7166558 108.63365,4.9181377 111.68758,4.4624542 C 114.74151,4.0067709 115.26237,5.5365773 117.90951,6.0203882 C 120.01052,6.6249959 122.26856,2.9387625 124.0016,3.5672695 C 124.77127,3.8744963 125.36087,6.4068273 125.40625,6.5 C 126.55858,8.8657761 129.55844,11.901014 132.5625,12.09375 C 135.19106,12.262394 138.01676,5.9652068 140.71875,4.40625 L 140.71875,-1.96875 L -2.59375,-1.96875 z"
       id="rect2389"
       sodipodi:nodetypes="csssssssssssssssccssccc" />
    <path
       sodipodi:nodetypes="csssssssssssssssccssccc"
       id="path2418"
       d="M 140.2066,33.708898 C 140.2066,33.708898 141.35893,27.605924 140.2066,25.240148 C 139.05428,22.874371 136.05442,19.839134 133.05035,19.646398 C 130.04629,19.453662 126.77527,27.703834 123.73785,27.677648 C 120.70044,27.651461 118.68479,20.539375 115.73785,20.365148 C 112.79092,20.190921 109.21378,24.817872 106.30035,24.771398 C 103.38693,24.724923 99.762064,20.704366 96.394104,20.802648 C 93.026145,20.900929 93.565577,27.506789 90.300354,27.458898 C 87.035134,27.411006 81.760592,21.863028 79.425354,21.802648 C 77.090115,21.742268 76.148934,23.841613 73.300354,23.677648 C 70.451779,23.513682 67.158908,21.029555 64.050354,21.208898 C 60.941799,21.388241 60.179954,28.669575 57.612854,29.177648 C 55.04575,29.68572 49.436945,22.415722 46.425354,22.677648 C 43.413761,22.939573 42.283989,26.496429 38.769104,26.021398 C 35.254224,25.546366 35.109564,21.644202 31.681564,21.833847 C 28.253574,22.023492 28.979204,26.82201 25.925274,27.277693 C 22.871344,27.733377 22.350484,26.20357 19.703344,25.719759 C 17.602334,25.115152 15.344294,28.801385 13.611254,28.172878 C 12.841584,27.865651 12.251984,25.33332 12.206604,25.240148 C 11.054274,22.874371 8.054414,19.839134 5.050354,19.646398 C 2.421794,19.477754 -0.40390596,25.774941 -3.105896,27.333898 L -3.105896,33.708898 L 140.2066,33.708898 z"
       style="fill:#2f3140;fill-opacity:1;fill-rule:nonzero;stroke:none;stroke-width:1.99999988000000006;stroke-linecap:round;stroke-linejoin:miter;marker:none;marker-start:none;marker-mid:none;marker-end:none;stroke-miterlimit:10;stroke-dashoffset:0;stroke-opacity:1;visibility:visible;display:inline;overflow:visible;enable-background:accumulate;color:#000000;stroke-dasharray:none" />
    <path
       style="fill:#626780;fill-opacity:1;fill-rule:evenodd;stroke:none;stroke-width:0.69999999000000002;stroke-linecap:butt;stroke-linejoin:miter;marker:none;marker-start:none;marker-mid:none;marker-end:none;stroke-miterlimit:4;stroke-dashoffset:0;stroke-opacity:1;visibility:visible;display:inline;overflow:visible;enable-background:accumulate;color:#000000"
       d="M 139.90625 -1.96875 L 139.90625 3.9375 C 137.20426 5.4964568 134.37856 11.793644 131.75 11.625 C 130.99899 11.576816 130.25294 11.348622 129.53125 11 C 130.49405 11.602732 131.52212 12.027001 132.5625 12.09375 C 135.19106 12.262394 138.01676 5.9652068 140.71875 4.40625 L 140.71875 -1.96875 L 139.90625 -1.96875 z M 79.1875 2.09375 C 76.6204 2.6018224 75.858555 9.883157 72.75 10.0625 C 69.641446 10.241843 66.348575 7.7577152 63.5 7.59375 C 60.65142 7.4297845 59.710239 9.52913 57.375 9.46875 C 56.983702 9.4586326 56.50182 9.2978257 55.96875 9.03125 C 56.84265 9.5606122 57.60369 9.922405 58.1875 9.9375 C 60.522739 9.99788 61.46392 7.8985345 64.3125 8.0625 C 67.161075 8.2264652 70.453946 10.710593 73.5625 10.53125 C 76.671055 10.351907 77.4329 3.0705724 80 2.5625 C 80.448643 2.4737061 80.989401 2.6328831 81.59375 2.9375 C 80.659869 2.331478 79.829276 1.9667318 79.1875 2.09375 z M 122.875 3.03125 C 121.19125 2.9161437 119.06345 6.1293197 117.09375 5.5625 C 114.44661 5.0786891 113.92893 3.5443167 110.875 4 C 107.82107 4.4556835 108.55299 9.247855 105.125 9.4375 C 104.49456 9.4723773 103.98097 9.3513914 103.53125 9.15625 C 104.1531 9.6429793 104.89625 9.9638547 105.9375 9.90625 C 109.36549 9.716605 108.63357 4.9244335 111.6875 4.46875 C 114.74143 4.0130667 115.25911 5.5474391 117.90625 6.03125 C 119.86295 6.5943283 121.94683 3.4288796 123.625 3.5 C 123.49426 3.3129666 123.33374 3.1521231 123.1875 3.09375 C 123.07918 3.0544683 122.98725 3.0389238 122.875 3.03125 z M 13.0625 3.59375 C 10.025081 3.5675639 6.7540658 11.817736 3.75 11.625 C 2.9989835 11.576816 2.2529384 11.348622 1.53125 11 C 2.4940544 11.602732 3.5221169 12.027001 4.5625 12.09375 C 7.5665658 12.286486 10.837582 4.0363139 13.875 4.0625 C 14.12999 4.0646983 14.383256 4.1249722 14.625 4.21875 C 14.135258 3.839934 13.606587 3.5984407 13.0625 3.59375 z M 46.5 3.8125 C 43.234777 3.7646087 43.774209 10.37047 40.40625 10.46875 C 39.1639 10.505004 37.88866 9.9909291 36.625 9.3125 C 38.150245 10.194382 39.709547 10.981541 41.21875 10.9375 C 44.586709 10.839219 44.047277 4.2333587 47.3125 4.28125 C 48.076042 4.292449 48.954989 4.6215411 49.875 5.09375 C 48.662148 4.3816043 47.483494 3.8269252 46.5 3.8125 z M 97.40625 5.21875 C 94.374925 5.219063 93.198368 8.3481949 90.375 8.59375 C 89.850725 8.6393475 89.245697 8.4551528 88.59375 8.125 C 89.559676 8.739133 90.450179 9.1266265 91.1875 9.0625 C 94.199093 8.8005746 95.328865 5.2437183 98.84375 5.71875 C 99.272126 5.7766445 99.659698 5.8851569 100 6.03125 C 99.469976 5.6554717 98.83304 5.3583612 98.03125 5.25 C 97.81157 5.2203105 97.608338 5.2187291 97.40625 5.21875 z M 30.5 6.5 C 27.586578 6.4535253 24.009437 11.080477 21.0625 10.90625 C 20.888823 10.895982 20.730107 10.868092 20.5625 10.8125 C 20.984936 11.124989 21.414541 11.347777 21.875 11.375 C 24.821937 11.549227 28.399078 6.9222753 31.3125 6.96875 C 32.313154 6.9847124 33.401977 7.4993199 34.53125 8.125 C 33.108388 7.2895369 31.739811 6.5197775 30.5 6.5 z "
       id="path3753" />
    <path
       style="fill:#45495f;fill-opacity:1;fill-rule:nonzero;stroke:none;stroke-width:1.99999988000000006;stroke-linecap:round;stroke-linejoin:miter;marker:none;marker-start:none;marker-mid:none;marker-end:none;stroke-miterlimit:10;stroke-dashoffset:0;stroke-opacity:1;visibility:visible;display:inline;overflow:visible;enable-background:accumulate;color:#000000;stroke-dasharray:none"
       d="M 5.0625 19.65625 C 2.43394 19.487606 -0.39175996 25.784793 -3.09375 27.34375 L -3.09375 33.71875 L -2.28125 33.71875 L -2.28125 27.75 C 0.42074001 26.191043 3.24644 19.893856 5.875 20.0625 C 6.4382613 20.098638 6.980435 20.224649 7.53125 20.4375 C 6.7306193 20.014311 5.9043596 19.710262 5.0625 19.65625 z M 133.0625 19.65625 C 130.05844 19.463514 126.78742 27.713686 123.75 27.6875 C 123.57042 27.685952 123.39159 27.641936 123.21875 27.59375 C 123.64778 27.886143 124.09163 28.08969 124.5625 28.09375 C 127.59992 28.119936 130.87094 19.869764 133.875 20.0625 C 134.43826 20.098638 134.98043 20.224649 135.53125 20.4375 C 134.73062 20.014311 133.90436 19.710262 133.0625 19.65625 z M 115.1875 20.375 C 112.35564 20.739603 109.04384 24.824819 106.3125 24.78125 C 105.67112 24.771019 104.98126 24.559091 104.28125 24.25 C 105.27221 24.772041 106.2385 25.17336 107.125 25.1875 C 110.03843 25.233974 113.61557 20.607023 116.5625 20.78125 C 116.71331 20.790166 116.85381 20.800375 117 20.84375 C 116.59958 20.561171 116.18467 20.400698 115.75 20.375 C 115.56582 20.364111 115.37629 20.350693 115.1875 20.375 z M 96.40625 20.8125 C 93.038291 20.910781 93.577723 27.516641 90.3125 27.46875 C 89.737072 27.46031 89.0794 27.289934 88.40625 27 C 89.382273 27.516494 90.319308 27.863183 91.125 27.875 C 94.390223 27.922891 93.850791 21.31703 97.21875 21.21875 C 98.060741 21.19418 98.891028 21.417417 99.75 21.78125 C 98.623876 21.212565 97.511265 20.780254 96.40625 20.8125 z M 64.0625 21.21875 C 60.953945 21.398093 60.1921 28.679427 57.625 29.1875 C 57.266306 29.258491 56.837081 29.159706 56.375 28.96875 C 57.160939 29.434613 57.880417 29.704006 58.4375 29.59375 C 61.0046 29.085677 61.766445 21.804343 64.875 21.625 C 67.983554 21.445657 71.276425 23.929784 74.125 24.09375 C 76.97358 24.257715 77.914761 22.15837 80.25 22.21875 C 80.53427 22.2261 80.856295 22.318585 81.21875 22.46875 C 80.528177 22.084067 79.920431 21.824987 79.4375 21.8125 C 77.102261 21.75212 76.16108 23.851465 73.3125 23.6875 C 70.463925 23.523534 67.171054 21.039407 64.0625 21.21875 z M 31.6875 21.84375 C 28.25951 22.033395 28.99143 26.825567 25.9375 27.28125 C 24.410535 27.509092 23.499099 27.229718 22.65625 26.84375 C 23.802857 27.400639 24.736549 27.987932 26.75 27.6875 C 29.80393 27.231817 29.07201 22.439645 32.5 22.25 C 33.02152 22.221148 33.450789 22.272166 33.84375 22.40625 C 33.272655 22.021736 32.59592 21.793494 31.6875 21.84375 z M 46.4375 22.6875 C 43.425907 22.949425 42.296135 26.506281 38.78125 26.03125 C 38.428466 25.983572 38.104109 25.890375 37.8125 25.78125 C 38.300042 26.091645 38.888696 26.342213 39.59375 26.4375 C 43.108635 26.912531 44.238407 23.355675 47.25 23.09375 C 47.626449 23.061009 48.022152 23.13977 48.46875 23.3125 C 47.709622 22.890014 47.03582 22.635463 46.4375 22.6875 z M 19.3125 25.65625 C 17.507013 25.569412 15.61176 28.213244 14.0625 28.25 C 14.179089 28.403228 14.309222 28.542545 14.4375 28.59375 C 16.17054 29.222257 18.43024 25.520393 20.53125 26.125 C 21.193035 26.245953 21.718698 26.420665 22.1875 26.625 C 21.496959 26.284378 20.80222 25.916773 19.71875 25.71875 C 19.587437 25.680962 19.444873 25.662617 19.3125 25.65625 z "
       id="path3758" />
  </g>
</svg>
