<?xml version="1.0" encoding="UTF-8" standalone="no"?>
<!-- Created with Inkscape (http://www.inkscape.org/) -->

<svg
   xmlns:dc="http://purl.org/dc/elements/1.1/"
   xmlns:cc="http://creativecommons.org/ns#"
   xmlns:rdf="http://www.w3.org/1999/02/22-rdf-syntax-ns#"
   xmlns:svg="http://www.w3.org/2000/svg"
   xmlns="http://www.w3.org/2000/svg"
   xmlns:sodipodi="http://sodipodi.sourceforge.net/DTD/sodipodi-0.dtd"
   xmlns:inkscape="http://www.inkscape.org/namespaces/inkscape"
   id="svg2"
   sodipodi:version="0.32"
   inkscape:version="0.48.1 r9760"
   width="64"
   height="64"
   version="1.0"
   sodipodi:docname="Chunk.svg"
   inkscape:output_extension="org.inkscape.output.svg.inkscape"
   inkscape:export-filename="Chunk.png"
   inkscape:export-xdpi="90"
   inkscape:export-ydpi="90"
   style="display:inline">
  <metadata
     id="metadata7">
    <rdf:RDF>
      <cc:Work
         rdf:about="">
        <dc:format>image/svg+xml</dc:format>
        <dc:type
           rdf:resource="http://purl.org/dc/dcmitype/StillImage" />
        <dc:title></dc:title>
      </cc:Work>
    </rdf:RDF>
  </metadata>
  <defs
     id="defs5" />
  <sodipodi:namedview
     inkscape:window-height="824"
     inkscape:window-width="1434"
     inkscape:pageshadow="2"
     inkscape:pageopacity="0.0"
     guidetolerance="10.0"
     gridtolerance="10.0"
     objecttolerance="10.0"
     borderopacity="1.0"
     bordercolor="#666666"
     pagecolor="#ffffff"
     id="base"
     showgrid="false"
     inkscape:zoom="3.2821541"
     inkscape:cx="38.186952"
     inkscape:cy="-3.5465054"
     inkscape:window-x="0"
     inkscape:window-y="25"
     inkscape:current-layer="layer2"
     inkscape:window-maximized="0"
     showguides="true"
     inkscape:guide-bbox="true"
     inkscape:snap-global="false"
     borderlayer="true">
    <sodipodi:guide
       orientation="0,1"
       position="792.81865,32"
       id="guide3379" />
    <sodipodi:guide
       orientation="1,0"
       position="32,-130.98743"
       id="guide3519" />
  </sodipodi:namedview>
  <g
     inkscape:groupmode="layer"
     id="layer2"
     inkscape:label="main"
     style="display:inline"
     transform="translate(0,-448)">
    <g
       id="layer3"
       inkscape:label="tmp"
       style="display:inline"
       transform="translate(552.95262,83.18474)" />
    <g
       transform="matrix(0.18941945,0,0,0.18941945,-14.061602,422.8167)"
       id="g5276">
      <path
         sodipodi:nodetypes="ccscc"
         id="path5280"
         d="m 325.45146,194.41382 c -19.22421,-0.85945 -38.90221,18.42832 -31.15446,38.06675 7.53242,12.7733 25.44634,16.11404 38.01432,16.47853 14.71965,0.42689 38.90074,-12.90789 32.10871,-33.6265 -0.73705,-21.138 -23.75144,-20.06379 -38.96857,-20.91878 z"
         style="color:#000000;fill:#4b4e64;fill-opacity:1;fill-rule:evenodd;stroke:none;stroke-width:4.15401936px;marker:none;visibility:visible;display:inline;overflow:visible;enable-background:accumulate"
         inkscape:connector-curvature="0" />
      <path
         sodipodi:nodetypes="ccccssc"
         id="path5282"
         d="m 353.76366,201.14597 c 6.12754,23.5358 -13.97417,27.54922 -33.52454,29.80673 -8.97297,0.34677 -18.4574,1.31547 -27.22468,-2.98113 0.28415,1.49305 0.66972,3.0195 1.26391,4.52561 7.53244,12.7733 25.47163,14.42062 38.03961,14.78511 14.71966,0.42689 37.12199,-10.91907 32.087,-31.94982 -2.06929,-8.64327 -4.61886,-11.36909 -10.6413,-14.1865 z"
         style="color:#000000;fill:#3a3d4e;fill-opacity:1;fill-rule:evenodd;stroke:none;stroke-width:4.15401936px;marker:none;visibility:visible;display:inline;overflow:visible;enable-background:accumulate"
         inkscape:connector-curvature="0" />
      <path
         sodipodi:nodetypes="ccccc"
         id="path5284"
         d="m 323.63368,195.78143 c -18.62456,0.36852 -36.86095,17.69102 -29.35533,36.71575 1.42916,2.42353 3.25429,4.28689 5.34104,5.78952 -2.96661,-32.82788 42.43567,-38.34233 63.92937,-28.5399 -7.24659,-15.65518 -24.83547,-13.70831 -39.91508,-13.96537 z"
         style="color:#000000;fill:#636885;fill-opacity:1;fill-rule:evenodd;stroke:none;stroke-width:4.15401936px;marker:none;visibility:visible;display:inline;overflow:visible;enable-background:accumulate"
         inkscape:connector-curvature="0" />
    </g>
    <g
       transform="matrix(0.17951347,-0.03074518,0.03862245,0.22550696,-53.192472,403.15821)"
       id="g5446">
      <path
         sodipodi:nodetypes="csscs"
         id="path5450"
         d="m 243.63725,475.53826 c 12.9435,21.35883 64.26938,33.94433 84.97334,13.90422 11.50298,-11.13415 12.48793,-41.13512 6.78977,-55.3278 -5.3055,-13.21469 -49.32089,-37.72308 -53.89546,-8.29108 -1.33885,30.88373 -52.06321,26.28971 -37.86765,49.71466 z"
         style="color:#000000;fill:#4b4e64;fill-opacity:1;fill-rule:evenodd;stroke:none;stroke-width:5.16941404px;marker:none;visibility:visible;display:inline;overflow:visible;enable-background:accumulate"
         inkscape:connector-curvature="0" />
      <path
         sodipodi:nodetypes="cscsssc"
         id="path5452"
         d="m 329.27294,428.10418 c 3.97839,15.27871 -3.66772,38.85733 -15.72789,46.88936 -24.66247,16.42512 -54.10128,12.53437 -71.11036,-5.81693 0.26702,1.78905 0.58083,3.88932 1.94412,6.13897 12.9435,21.35884 63.21884,33.19232 83.9228,13.15221 11.50299,-11.13416 12.04853,-39.82718 6.35037,-54.01986 -0.77867,-1.93948 -3.17977,-4.12396 -5.37904,-6.34375 z"
         style="color:#000000;fill:#3a3d4e;fill-opacity:1;fill-rule:evenodd;stroke:none;stroke-width:5.16941404px;marker:none;visibility:visible;display:inline;overflow:visible;enable-background:accumulate"
         inkscape:connector-curvature="0" />
      <path
         sodipodi:nodetypes="ccscccc"
         id="path5454"
         d="m 297.03102,413.12219 c -7.71909,0.0194 -13.09698,2.68055 -14.66949,12.7978 -1.33885,30.88374 -52.93232,26.18608 -38.73676,49.61103 1.70396,2.8118 4.09184,5.48421 6.96875,7.9375 -12.94598,-22.73439 36.89168,-18.51323 38.21875,-49.125 3.62785,-23.34099 32.05306,-12.75253 46.3125,-0.78125 -4.08474,-8.68205 -23.66687,-20.47625 -38.09375,-20.44008 z"
         style="color:#000000;fill:#636885;fill-opacity:1;fill-rule:evenodd;stroke:none;stroke-width:5.16941404px;marker:none;visibility:visible;display:inline;overflow:visible;enable-background:accumulate"
         inkscape:connector-curvature="0" />
    </g>
    <g
       transform="matrix(0.30640534,-0.0509375,0.0509375,0.30640534,-51.923411,330.05156)"
       id="g5656">
      <path
         id="path5660"
         d="m 97.237597,464.03444 c -6.583689,21.92585 29.889873,37.59204 47.670463,30.4465 11.84983,-12.7263 28.84862,-16.95632 42.81079,-26.43948 15.12676,-14.00658 -3.94987,-31.5007 -17.34866,-37.17032 -19.62084,-9.61397 -33.91006,12.78283 -50.94253,18.65341 -7.77355,4.20984 -15.53226,8.63248 -22.190063,14.50989 z"
         style="color:#000000;fill:#4b4e64;fill-opacity:1;fill-rule:evenodd;stroke:none;stroke-width:3.82777691px;marker:none;visibility:visible;display:inline;overflow:visible;enable-background:accumulate"
         inkscape:connector-curvature="0" />
      <path
         sodipodi:nodetypes="cczcccc"
         id="path5662"
         d="m 183.28133,439.09413 c 2.57499,5.87507 -0.99651,12.53148 -7.21763,18.29191 -13.96217,9.48316 -28.32573,13.83891 -39.5809,22.34414 -11.25517,8.50524 -26.19024,4.37815 -36.981264,-4.17061 6.255224,15.43676 30.898314,24.02242 44.219874,18.5864 11.84984,-12.7263 28.85033,-17.38522 42.8125,-26.86838 10.43773,-9.66478 5.77747,-20.2282 -3.25258,-28.18346 z"
         style="color:#000000;fill:#3a3d4e;fill-opacity:1;fill-rule:evenodd;stroke:none;stroke-width:3.82777691px;marker:none;visibility:visible;display:inline;overflow:visible;enable-background:accumulate"
         inkscape:connector-curvature="0" />
      <path
         sodipodi:nodetypes="cccccccccc"
         id="path5664"
         d="m 159.84383,429.60883 c -14.54811,0.5555 -26.24421,16.23015 -40.08309,21 -7.77355,4.20984 -14.56022,7.76083 -21.218024,13.63824 -2.918588,9.71986 1.33231,17.99824 9.957364,23.81581 -2.7158,-4.4121 -3.75617,-9.44267 -2.125,-14.875 6.6578,-5.87741 14.41395,-10.32142 22.1875,-14.53125 17.03247,-5.87058 29.05454,-28.70111 48.67538,-19.08713 3.13796,1.32781 7.457,4.07581 10.70551,6.50404 -4.6172,-6.57778 -11.27636,-11.90596 -17.78383,-14.65956 -3.67891,-1.80262 -6.95855,-1.93334 -10.31581,-1.80515 z"
         style="color:#000000;fill:#636885;fill-opacity:1;fill-rule:evenodd;stroke:none;stroke-width:3.82777691px;marker:none;visibility:visible;display:inline;overflow:visible;enable-background:accumulate"
         inkscape:connector-curvature="0" />
    </g>
    <path
       sodipodi:nodetypes="ccccccc"
       inkscape:connector-curvature="0"
       id="path4608"
       d="m 55.793457,500.9665 c -0.143979,-0.15462 -6.768345,-12.42428 -6.768345,-12.42428 l -11.747013,-2.777 1.047192,12.44515 13.769244,7.52993 3.144342,-0.17798 z"
       style="display:inline;color:#000000;fill:#a6c2df;fill-opacity:0.51263535000000005;fill-rule:evenodd;stroke:none;stroke-width:2;marker:none;visibility:visible;overflow:visible;enable-background:accumulate" />
    <path
       inkscape:connector-curvature="0"
       id="path4610"
       d="m 48.655723,488.65049 -10.858641,-2.50493 6.493917,10.42694 z"
       style="display:inline;color:#000000;fill:#ffffff;fill-opacity:0.27797833999999999;fill-rule:evenodd;stroke:none;stroke-width:2;marker:none;visibility:visible;overflow:visible;enable-background:accumulate"
       sodipodi:nodetypes="cccc" />
    <path
       sodipodi:nodetypes="cccccccccccccc"
       inkscape:connector-curvature="0"
       id="path4612"
       d="m 53.541204,497.89318 -4.506984,-9.14344 -3.296484,5.7159 2.108381,-2.65938 2.362351,8.38628 -5.418836,-3.1258 10.192872,7.43823 0.960956,-2.7135 -1.214269,-2.00261 -0.249768,1.38505 -0.518357,1.7068 -1.52498,-1.30927 -1.361663,-8.48525 z"
       style="display:inline;color:#000000;fill:#ffffff;fill-opacity:0.71480144000000001;fill-rule:evenodd;stroke:none;stroke-width:2;marker:none;visibility:visible;overflow:visible;enable-background:accumulate" />
    <path
       sodipodi:nodetypes="cccccccccc"
       style="display:inline;color:#000000;fill:#ffffff;fill-opacity:0.71480144000000001;fill-rule:evenodd;stroke:none;stroke-width:2;marker:none;visibility:visible;overflow:visible;enable-background:accumulate"
       d="m 48.936328,488.64189 -7.71052,0.9085 -0.967533,-1.69115 1.579939,-0.67653 -3.573981,-0.69996 5.888384,8.69806 -1.670175,-3.73219 4.094398,-1.39608 -0.791368,3.88811 z"
       id="path4615"
       inkscape:connector-curvature="0" />
    <path
       sodipodi:nodetypes="cccc"
       style="display:inline;color:#000000;fill:#98b8da;fill-opacity:0.18411553999999999;fill-rule:evenodd;stroke:none;stroke-width:2;marker:none;visibility:visible;overflow:visible;enable-background:accumulate"
       d="m 43.819569,497.2395 -6.240563,-10.19991 0.982586,11.13138 z"
       id="path4617"
       inkscape:connector-curvature="0" />
    <path
       sodipodi:nodetypes="ccccc"
       inkscape:connector-curvature="0"
       id="path4620"
       d="m 54.38621,505.02933 -2.361496,0.59255 -13.12158,-7.37203 5.449535,-0.85039 z"
       style="display:inline;color:#000000;fill:#6696c8;fill-opacity:0.19494586999999999;fill-rule:evenodd;stroke:none;stroke-width:2;marker:none;visibility:visible;overflow:visible;enable-background:accumulate" />
    <path
       style="display:inline;color:#000000;fill:#ffffff;fill-opacity:0.71480144000000001;fill-rule:evenodd;stroke:none;stroke-width:2;marker:none;visibility:visible;overflow:visible;enable-background:accumulate"
       d="m 50.523396,505.19112 -1.56151,-4.0387 4.025973,2.70678 -8.533896,-6.4313 1.463421,1.42445 1.249192,4.07578 -6.348112,-3.63814 1.088208,-1.40012 -2.898377,0.44133 z"
       id="path4622"
       inkscape:connector-curvature="0"
       sodipodi:nodetypes="cccccccccc" />
    <path
       inkscape:connector-curvature="0"
       id="path4625"
       d="m 43.496901,496.97439 -3.952158,-0.31781 -0.684765,-5.678 1.186539,-0.11908 -2.520855,-4.29956 1.108513,11.26671 z"
       style="display:inline;color:#000000;fill:#ffffff;fill-opacity:0.71480144000000001;fill-rule:evenodd;stroke:none;stroke-width:2;marker:none;visibility:visible;overflow:visible;enable-background:accumulate"
       sodipodi:nodetypes="ccccccc" />
    <path
       sodipodi:nodetypes="ccccccccccccc"
       inkscape:connector-curvature="0"
       d="m 49.000722,488.58212 -4.793997,8.54504 -5.831727,1.05193 m -1.050142,-12.37049 6.890595,11.24957 10.08809,7.95222 m 1.109077,-3.73921 C 55.268639,501.11656 49.02511,488.54221 49.02511,488.54221 l -11.747003,-2.777 1.047192,12.44515 13.509586,7.11369 3.217376,0.0337 z"
       style="display:inline;color:#000000;fill:none;stroke:#a5c3e0;stroke-width:2;stroke-linecap:round;stroke-linejoin:miter;stroke-miterlimit:4;stroke-opacity:1;stroke-dasharray:none;stroke-dashoffset:0;marker:none;visibility:visible;overflow:visible;enable-background:accumulate"
       id="path4627" />
  </g>
</svg>
