<?xml version="1.0" encoding="UTF-8" standalone="no"?>
<!-- Created with Inkscape (http://www.inkscape.org/) -->

<svg
   xmlns:dc="http://purl.org/dc/elements/1.1/"
   xmlns:cc="http://creativecommons.org/ns#"
   xmlns:rdf="http://www.w3.org/1999/02/22-rdf-syntax-ns#"
   xmlns:svg="http://www.w3.org/2000/svg"
   xmlns="http://www.w3.org/2000/svg"
   xmlns:sodipodi="http://sodipodi.sourceforge.net/DTD/sodipodi-0.dtd"
   xmlns:inkscape="http://www.inkscape.org/namespaces/inkscape"
   id="svg2"
   sodipodi:version="0.32"
   inkscape:version="0.48.1 r9760"
   width="28"
   height="28"
   version="1.0"
   sodipodi:docname="CrystalSpray03.svg"
   inkscape:output_extension="org.inkscape.output.svg.inkscape"
   inkscape:export-filename="CrystalSpray03.png"
   inkscape:export-xdpi="90"
   inkscape:export-ydpi="90"
   style="display:inline">
  <sodipodi:namedview
     inkscape:window-height="824"
     inkscape:window-width="1434"
     inkscape:pageshadow="2"
     inkscape:pageopacity="0.0"
     guidetolerance="10.0"
     gridtolerance="10.0"
     objecttolerance="10.0"
     borderopacity="1.0"
     bordercolor="#666666"
     pagecolor="#ffffff"
     id="base"
     showgrid="false"
     inkscape:zoom="3.2821541"
     inkscape:cx="-113.40002"
     inkscape:cy="40.936672"
     inkscape:window-x="0"
     inkscape:window-y="25"
     inkscape:current-layer="layer6"
     inkscape:window-maximized="0"
     showguides="true"
     inkscape:guide-bbox="true"
     inkscape:snap-global="false"
     fit-margin-top="0"
     fit-margin-left="0"
     fit-margin-right="0"
     fit-margin-bottom="0" />
  <metadata
     id="metadata7">
    <rdf:RDF>
      <cc:Work
         rdf:about="">
        <dc:format>image/svg+xml</dc:format>
        <dc:type
           rdf:resource="http://purl.org/dc/dcmitype/StillImage" />
        <dc:title></dc:title>
      </cc:Work>
    </rdf:RDF>
  </metadata>
  <defs
     id="defs5" />
  <g
     inkscape:groupmode="layer"
     id="layer6"
     inkscape:label="main"
     style="display:inline"
     transform="translate(-333.94637,-404.12169)">
    <g
       id="g3243"
       transform="matrix(0.44910431,-0.28922425,0.28922425,0.44910431,71.099064,331.13279)">
      <path
         style="color:#000000;fill:#a6c2df;fill-opacity:0.51263535;fill-rule:evenodd;stroke:none;stroke-width:2;marker:none;visibility:visible;display:inline;overflow:visible;enable-background:accumulate"
         d="m 352.81153,419.17735 c 0.16382,-0.0828 12.72842,-12.70649 12.72842,-12.70649 l 11.09545,3.66629 -4.07906,11.92523 -18.11807,1.52215 z"
         id="path3059"
         inkscape:connector-curvature="0"
         sodipodi:nodetypes="cccccc" />
      <path
         sodipodi:nodetypes="ccccc"
         style="color:#000000;fill:#ffffff;fill-opacity:0.27797834;fill-rule:evenodd;stroke:none;stroke-width:2;marker:none;visibility:visible;display:inline;overflow:visible;enable-background:accumulate"
         d="m 356.0535,414.33829 8.44665,-7.91326 10.25654,4.56804 -17.75253,8.94722 z"
         id="path3061"
         inkscape:connector-curvature="0" />
      <path
         sodipodi:nodetypes="cccccccccc"
         inkscape:connector-curvature="0"
         id="path3063"
         d="m 364.68812,410.13953 1.26052,8.17372 -4.98963,1.23736 2.09757,-1.74346 -7.33735,-2.49924 -2.07275,3.60627 10.12917,-9.95877 -4.92776,6.91454 5.83792,-0.0808 z"
         style="color:#000000;fill:#ffffff;fill-opacity:0.71480144;fill-rule:evenodd;stroke:none;stroke-width:2;marker:none;visibility:visible;display:inline;overflow:visible;enable-background:accumulate" />
      <path
         inkscape:connector-curvature="0"
         id="path3065"
         d="m 365.98305,406.52573 10.24336,2.91114 -9.96143,8.24127 5.74876,-5.65181 -6.34955,-4.30388 0.23991,7.21219 z"
         style="color:#000000;fill:#ffffff;fill-opacity:0.71480144;fill-rule:evenodd;stroke:none;stroke-width:2;marker:none;visibility:visible;display:inline;overflow:visible;enable-background:accumulate"
         sodipodi:nodetypes="ccccccc" />
      <path
         inkscape:connector-curvature="0"
         id="path3067"
         d="m 366.69208,418.27391 7.58919,-5.76002 -3.74408,8.01244 z"
         style="color:#000000;fill:#5388c1;fill-opacity:0.18411554;fill-rule:evenodd;stroke:none;stroke-width:2;marker:none;visibility:visible;display:inline;overflow:visible;enable-background:accumulate"
         sodipodi:nodetypes="cccc" />
      <path
         style="color:#000000;fill:#6696c8;fill-opacity:0.19494587;fill-rule:evenodd;stroke:none;stroke-width:2;marker:none;visibility:visible;display:inline;overflow:visible;enable-background:accumulate"
         d="m 353.98455,421.73483 0.67386,1.71506 15.51961,-2.8095 -4.16331,-2.40287 z"
         id="path3069"
         inkscape:connector-curvature="0"
         sodipodi:nodetypes="ccccc" />
      <path
         sodipodi:nodetypes="cccccccccc"
         inkscape:connector-curvature="0"
         id="path3071"
         d="m 358.63794,422.7439 2.49533,-2.84672 -4.09001,0.978 8.8806,-2.64579 -1.62068,0.71919 -2.25318,2.9748 6.25752,-1.0221 -0.45721,-1.4955 2.21762,1.26893 z"
         style="color:#000000;fill:#ffffff;fill-opacity:0.71480144;fill-rule:evenodd;stroke:none;stroke-width:2;marker:none;visibility:visible;display:inline;overflow:visible;enable-background:accumulate" />
      <path
         sodipodi:nodetypes="ccccccc"
         style="color:#000000;fill:#ffffff;fill-opacity:0.71480144;fill-rule:evenodd;stroke:none;stroke-width:2;marker:none;visibility:visible;display:inline;overflow:visible;enable-background:accumulate"
         d="m 372.45987,420.01153 -6.11061,-3.27932 8.95636,-3.71055 -1.60889,4.06543 -0.27528,-2.42513 -3.79872,2.12706 z"
         id="path3073"
         inkscape:connector-curvature="0" />
      <path
         id="path3075"
         style="color:#000000;fill:none;stroke:#a5c3e0;stroke-width:3.74407482;stroke-linecap:round;stroke-linejoin:miter;stroke-miterlimit:4;stroke-opacity:1;stroke-dasharray:none;stroke-dashoffset:0;marker:none;visibility:visible;display:inline;overflow:visible;enable-background:accumulate"
         d="m 365.01148,405.87515 0.0527,10.42501 7.59074,5.62851 m 4.52799,-11.87455 -12.10928,6.42618 -14.10327,6.51484 m -1.11653,-3.12724 c 0.20932,-0.10494 15.18217,-14.17908 15.18217,-14.17908 l 13.31373,3.84557 -5.65525,12.44708 -20.68799,3.57791 z"
         inkscape:connector-curvature="0"
         sodipodi:nodetypes="cccccccccccc" />
    </g>
    <g
       transform="matrix(0.47149143,-0.0594543,0.0594543,0.47149143,154.12929,243.55622)"
       id="g3077">
      <path
         sodipodi:nodetypes="cccccc"
         inkscape:connector-curvature="0"
         id="path3079"
         d="m 367.78373,414.55337 c 0.0693,0.234 13.67324,19.00317 13.67324,19.00317 l -8.05889,12.42269 -11.76323,-8.3524 0.0972,-21.94068 z"
         style="color:#000000;fill:#a6c2df;fill-opacity:0.51263535;fill-rule:evenodd;stroke:none;stroke-width:2;marker:none;visibility:visible;display:inline;overflow:visible;enable-background:accumulate" />
      <path
         sodipodi:nodetypes="ccccccc"
         inkscape:connector-curvature="0"
         id="path3081"
         d="m 369.38693,429.8141 8.14551,1.20775 -6.06708,-2.54907 -2.1554,-5.14696 3.50347,-1.58955 -5.60701,1.25958 z"
         style="color:#000000;fill:#ffffff;fill-opacity:0.71480144;fill-rule:evenodd;stroke:none;stroke-width:2;marker:none;visibility:visible;display:inline;overflow:visible;enable-background:accumulate" />
      <path
         inkscape:connector-curvature="0"
         id="path3083"
         d="m 369.93252,432.04977 1.30316,11.38298 -8.99934,-5.04973 z"
         style="color:#000000;fill:#ffffff;fill-opacity:0.27797834;fill-rule:evenodd;stroke:none;stroke-width:2;marker:none;visibility:visible;display:inline;overflow:visible;enable-background:accumulate"
         sodipodi:nodetypes="cccc" />
      <path
         sodipodi:nodetypes="ccccccc"
         style="color:#000000;fill:#ffffff;fill-opacity:0.71480144;fill-rule:evenodd;stroke:none;stroke-width:2;marker:none;visibility:visible;display:inline;overflow:visible;enable-background:accumulate"
         d="m 378.08214,434.27515 -5.88211,9.53498 -7.01937,-10.28551 7.84664,5.68437 1.72395,-4.53639 -4.48677,-1.95749 z"
         id="path3085"
         inkscape:connector-curvature="0" />
      <path
         sodipodi:nodetypes="cccc"
         style="color:#000000;fill:#3f6083;fill-opacity:0.18411554;fill-rule:evenodd;stroke:none;stroke-width:2;marker:none;visibility:visible;display:inline;overflow:visible;enable-background:accumulate"
         d="m 379.05193,433.46847 -4.69617,10.56975 -3.53213,-12.36346 z"
         id="path3087"
         inkscape:connector-curvature="0" />
      <path
         sodipodi:nodetypes="ccccc"
         inkscape:connector-curvature="0"
         id="path3089"
         d="m 364.21972,415.51153 -2.36431,0.49441 0.0796,21.02296 5.42417,-6.36522 z"
         style="color:#000000;fill:#6696c8;fill-opacity:0.19494587;fill-rule:evenodd;stroke:none;stroke-width:2;marker:none;visibility:visible;display:inline;overflow:visible;enable-background:accumulate" />
      <path
         style="color:#000000;fill:#ffffff;fill-opacity:0.71480144;fill-rule:evenodd;stroke:none;stroke-width:2;marker:none;visibility:visible;display:inline;overflow:visible;enable-background:accumulate"
         d="m 362.05446,421.42142 3.6592,3.8163 -0.95543,-5.3476 2.0436,11.9086 -1.17793,-2.9938 -3.10716,-2.50905 z"
         id="path3091"
         inkscape:connector-curvature="0"
         sodipodi:nodetypes="ccccccc" />
      <path
         inkscape:connector-curvature="0"
         id="path3093"
         d="m 365.85638,431.55897 -2.23763,5.63054 7.21932,6.02695 -0.72325,-2.79835 2.63824,4.84802 -10.5551,-7.72112 z"
         style="color:#000000;fill:#ffffff;fill-opacity:0.71480144;fill-rule:evenodd;stroke:none;stroke-width:2;marker:none;visibility:visible;display:inline;overflow:visible;enable-background:accumulate"
         sodipodi:nodetypes="ccccccc" />
      <path
         sodipodi:nodetypes="cccccccccccc"
         inkscape:connector-curvature="0"
         d="m 377.48266,432.6647 -9.05953,-2.36208 -6.72797,7.29315 m 11.47862,6.10887 -4.83022,-13.43949 -3.91794,-15.13274 m 3.35811,-0.57904 c 0.0693,0.234 12.97519,18.61641 12.97519,18.61641 l -7.4896,11.01871 -11.63447,-6.56166 0.016,-21.89576 z"
         style="color:#000000;fill:none;stroke:#a5c3e0;stroke-width:4.2085309;stroke-linecap:round;stroke-linejoin:miter;stroke-miterlimit:4;stroke-opacity:1;stroke-dasharray:none;stroke-dashoffset:0;marker:none;visibility:visible;display:inline;overflow:visible;enable-background:accumulate"
         id="path3095" />
    </g>
    <g
       transform="matrix(0.5255211,-0.1014795,0.1014795,0.5255211,122.51804,237.32406)"
       id="g3097">
      <path
         style="color:#000000;fill:#a6c2df;fill-opacity:0.51263535;fill-rule:evenodd;stroke:none;stroke-width:2;marker:none;visibility:visible;display:inline;overflow:visible;enable-background:accumulate"
         d="m 351.66729,415.80052 c -0.1057,0.095 -7.08027,9.66518 -7.08027,9.66518 l -10.01739,1.75622 0.75641,-9.96352 14.22965,-4.35635 z"
         id="path3099"
         inkscape:connector-curvature="0"
         sodipodi:nodetypes="cccccc" />
      <path
         sodipodi:nodetypes="cccc"
         style="color:#000000;fill:#ffffff;fill-opacity:0.27797834;fill-rule:evenodd;stroke:none;stroke-width:2;marker:none;visibility:visible;display:inline;overflow:visible;enable-background:accumulate"
         d="m 335.53366,417.34376 -0.50214,9.67192 6.70219,-7.16874 z"
         id="path3101"
         inkscape:connector-curvature="0" />
      <path
         style="color:#000000;fill:#ffffff;fill-opacity:0.71480144;fill-rule:evenodd;stroke:none;stroke-width:2;marker:none;visibility:visible;display:inline;overflow:visible;enable-background:accumulate"
         d="m 349.66144,418.27352 -5.05592,7.05364 -1.8677,-4.02764 1.6106,1.51931 3.96719,-6.39946 -5.40956,3.06409 7.53715,-5.11774 1.06111,1.43879 -0.93344,1.26955 0.52923,-1.70704 -0.62265,-0.81449 -0.9459,1.43714 -2.8543,6.04717 z"
         id="path3103"
         inkscape:connector-curvature="0"
         sodipodi:nodetypes="cccccccccccccc" />
      <path
         inkscape:connector-curvature="0"
         id="path3105"
         d="m 344.53347,425.39359 -7.72935,1.03906 5.10722,-6.71871 -3.01333,4.4803 4.94295,1.06774 -1.10254,-3.60751 z"
         style="color:#000000;fill:#ffffff;fill-opacity:0.71480144;fill-rule:evenodd;stroke:none;stroke-width:2;marker:none;visibility:visible;display:inline;overflow:visible;enable-background:accumulate"
         sodipodi:nodetypes="ccccccc" />
      <path
         inkscape:connector-curvature="0"
         id="path3107"
         d="m 344.61561,426.77758 -7.83651,-0.75767 5.24251,-6.30126 z"
         style="color:#000000;fill:#98b8da;fill-opacity:0.18411554;fill-rule:evenodd;stroke:none;stroke-width:2;marker:none;visibility:visible;display:inline;overflow:visible;enable-background:accumulate"
         sodipodi:nodetypes="cccc" />
      <path
         style="color:#000000;fill:#6696c8;fill-opacity:0.19494587;fill-rule:evenodd;stroke:none;stroke-width:2;marker:none;visibility:visible;display:inline;overflow:visible;enable-background:accumulate"
         d="m 350.27067,414.16642 -0.85224,-1.11942 -12.14931,4.80407 3.73998,1.4717 0.97578,-0.0722 z"
         id="path3109"
         inkscape:connector-curvature="0"
         sodipodi:nodetypes="cccccc" />
      <path
         sodipodi:nodetypes="cccccccccc"
         inkscape:connector-curvature="0"
         id="path3111"
         d="m 346.58593,414.39748 -1.28781,2.61335 2.85985,-1.57346 -6.3952,3.42749 1.84372,-1.2237 -0.0609,-1.51754 -3.81624,1.6488 1.40728,1.00336 -4.27943,-1.73163 z"
         style="color:#000000;fill:#ffffff;fill-opacity:0.71480144;fill-rule:evenodd;stroke:none;stroke-width:2;marker:none;visibility:visible;display:inline;overflow:visible;enable-background:accumulate" />
      <path
         sodipodi:nodetypes="ccccccc"
         style="color:#000000;fill:#ffffff;fill-opacity:0.71480144;fill-rule:evenodd;stroke:none;stroke-width:2;marker:none;visibility:visible;display:inline;overflow:visible;enable-background:accumulate"
         d="m 340.46699,420.31762 -3.13532,-0.33865 -0.33426,3.91955 2.96771,-2.61283 -4.70835,4.27666 -0.30103,-7.4985 z"
         id="path3113"
         inkscape:connector-curvature="0" />
      <path
         id="path3115"
         style="color:#000000;fill:none;stroke:#a5c3e0;stroke-width:3.73671579;stroke-linecap:round;stroke-linejoin:miter;stroke-miterlimit:4;stroke-opacity:1;stroke-dasharray:none;stroke-dashoffset:0;marker:none;visibility:visible;display:inline;overflow:visible;enable-background:accumulate"
         d="m 344.84334,425.83713 -2.97254,-6.41278 -6.48436,-2.76329 m 1.19598,9.93754 5.29011,-7.1275 8.64907,-5.29138 m 1.14569,1.6208 c -0.1057,0.095 -6.60608,11.4624 -6.60608,11.4624 l -10.53757,0.36074 0.36299,-11.45858 14.62511,-3.29448 z"
         inkscape:connector-curvature="0"
         sodipodi:nodetypes="cccccccccccc" />
    </g>
    <g
       transform="matrix(0.68568669,0.29702713,-0.29900226,0.67858582,241.46724,48.855618)"
       id="g3117"
       inkscape:transform-center-x="-0.2274796"
       inkscape:transform-center-y="-2.2523417">
      <path
         sodipodi:nodetypes="cccccc"
         inkscape:connector-curvature="0"
         id="path3119"
         d="m 330.30465,403.33371 c -0.17595,-0.0474 -15.34922,-0.93249 -15.34922,-0.93249 l -6.82414,-7.73797 10.31003,-5.48349 13.53101,9.94143 z"
         style="color:#000000;fill:#a6c2df;fill-opacity:0.51263535;fill-rule:evenodd;stroke:none;stroke-width:2;marker:none;visibility:visible;display:inline;overflow:visible;enable-background:accumulate" />
      <path
         inkscape:connector-curvature="0"
         id="path3121"
         d="m 315.85198,395.01808 -6.82324,-0.63616 8.81743,-3.58627 z"
         style="color:#000000;fill:#ffffff;fill-opacity:0.27797834;fill-rule:evenodd;stroke:none;stroke-width:2;marker:none;visibility:visible;display:inline;overflow:visible;enable-background:accumulate"
         sodipodi:nodetypes="cccc" />
      <path
         sodipodi:nodetypes="ccccc"
         inkscape:connector-curvature="0"
         id="path3123"
         d="m 330.20481,403.35017 0.81799,-2.18788 -14.49171,-5.7392 -1.28361,6.87206 z"
         style="color:#000000;fill:#6696c8;fill-opacity:0.19494587;fill-rule:evenodd;stroke:none;stroke-width:2;marker:none;visibility:visible;display:inline;overflow:visible;enable-background:accumulate" />
      <path
         sodipodi:nodetypes="cccccccccccccc"
         inkscape:connector-curvature="0"
         id="path3125"
         d="m 326.12519,402.63531 -11.00727,-0.30874 -4.60608,-6.93468 6.17443,4.05385 4.61948,-0.76799 -2.43583,-2.18469 12.1363,4.5657 -0.81887,2.10479 -2.15952,-0.33374 1.95254,-0.64655 0.61281,-0.84567 -3.93391,-2.0081 -8.62058,1.89999 z"
         style="color:#000000;fill:#ffffff;fill-opacity:0.71480144;fill-rule:evenodd;stroke:none;stroke-width:2;marker:none;visibility:visible;display:inline;overflow:visible;enable-background:accumulate" />
      <path
         sodipodi:nodetypes="cccc"
         style="color:#000000;fill:#98b8da;fill-opacity:0.18411554;fill-rule:evenodd;stroke:none;stroke-width:2;marker:none;visibility:visible;display:inline;overflow:visible;enable-background:accumulate"
         d="m 315.02816,402.0319 -6.28282,-6.91588 7.47158,0.46087 z"
         id="path3127"
         inkscape:connector-curvature="0" />
      <path
         sodipodi:nodetypes="ccccccc"
         style="color:#000000;fill:#ffffff;fill-opacity:0.71480144;fill-rule:evenodd;stroke:none;stroke-width:2;marker:none;visibility:visible;display:inline;overflow:visible;enable-background:accumulate"
         d="m 314.99622,402.29535 -6.48007,-7.49178 7.41507,0.61418 -5.6366,0.19886 4.15231,4.95485 0.76002,-3.85541 z"
         id="path3129"
         inkscape:connector-curvature="0" />
      <path
         style="color:#000000;fill:#ffffff;fill-opacity:0.71480144;fill-rule:evenodd;stroke:none;stroke-width:2;marker:none;visibility:visible;display:inline;overflow:visible;enable-background:accumulate"
         d="m 323.08226,393.05018 1.76739,4.57973 1.46473,1.31887 -6.69764,-2.56065 3.54075,0.0501 -2.08898,-3.78187 -1.70426,-1.09442 -2.16453,3.34951 1.03149,-4.95121 z"
         id="path3131"
         inkscape:connector-curvature="0"
         sodipodi:nodetypes="cccccccccc" />
      <path
         inkscape:connector-curvature="0"
         id="path3133"
         d="m 315.67416,394.6119 0.732,-2.4999 -4.32713,1.60353 2.33555,1.03608 -5.57596,-0.21441 9.06727,-3.59164 z"
         style="color:#000000;fill:#ffffff;fill-opacity:0.71480144;fill-rule:evenodd;stroke:none;stroke-width:2;marker:none;visibility:visible;display:inline;overflow:visible;enable-background:accumulate"
         sodipodi:nodetypes="ccccccc" />
      <path
         sodipodi:nodetypes="cccccccccccc"
         inkscape:connector-curvature="0"
         d="m 314.97623,402.36723 1.32156,-7.24452 2.04367,-5.55784 m -8.40178,4.59226 6.5714,1.01548 14.75045,5.84274 m -0.95688,2.31837 c -0.17595,-0.0474 -15.34922,-0.93249 -15.34922,-0.93249 l -6.10059,-8.2993 9.74084,-5.23436 13.38016,10.1856 z"
         style="color:#000000;fill:none;stroke:#a5c3e0;stroke-width:2.68678188;stroke-linecap:round;stroke-linejoin:miter;stroke-miterlimit:4;stroke-opacity:1;stroke-dasharray:none;stroke-dashoffset:0;marker:none;visibility:visible;display:inline;overflow:visible;enable-background:accumulate"
         id="path3135" />
    </g>
    <g
       id="g3209"
       transform="matrix(0.22814986,0.67111436,-0.67111436,0.22814986,558.93711,86.241647)">
      <path
         sodipodi:nodetypes="ccccc"
         inkscape:connector-curvature="0"
         id="path3137"
         d="m 344.47888,424.64584 8.81516,1.95381 0.45962,9.1275 -9.91634,-1.62233 z"
         style="color:#000000;fill:#76869e;fill-opacity:1;fill-rule:evenodd;stroke:none;stroke-width:1px;marker:none;visibility:visible;display:inline;overflow:visible;enable-background:accumulate" />
      <path
         sodipodi:nodetypes="cccc"
         style="color:#000000;fill:#9ca8b9;fill-opacity:1;fill-rule:evenodd;stroke:none;stroke-width:2;marker:none;visibility:visible;display:inline;overflow:visible;enable-background:accumulate"
         d="m 347.85804,430.04592 -3.76551,3.76159 0.67316,-8.49943 z"
         id="path3139"
         inkscape:connector-curvature="0" />
      <path
         inkscape:connector-curvature="0"
         id="path3141"
         d="m 349.60142,431.4559 4.18531,3.11946 -8.80891,-0.40905 z"
         style="color:#000000;fill:#7389a6;fill-opacity:1;fill-rule:evenodd;stroke:none;stroke-width:2;marker:none;visibility:visible;display:inline;overflow:visible;enable-background:accumulate"
         sodipodi:nodetypes="cccc" />
      <path
         sodipodi:nodetypes="cccc"
         style="color:#000000;fill:#5b718f;fill-opacity:1;fill-rule:evenodd;stroke:none;stroke-width:2;marker:none;visibility:visible;display:inline;overflow:visible;enable-background:accumulate"
         d="m 350.17169,430.48972 3.87811,-2.37896 -0.95882,7.9705 z"
         id="path3143"
         inkscape:connector-curvature="0" />
      <path
         sodipodi:nodetypes="ccccccc"
         style="color:#000000;fill:#ffffff;fill-opacity:0.71480144;fill-rule:evenodd;stroke:none;stroke-width:2;marker:none;visibility:visible;display:inline;overflow:visible;enable-background:accumulate"
         d="m 344.72201,433.72858 1.56205,-3.97349 -0.75574,-1.52797 -1.34823,1.95448 0.20229,-5.26485 3.52414,5.49127 z"
         id="path3145"
         inkscape:connector-curvature="0" />
      <path
         inkscape:connector-curvature="0"
         id="path3147"
         d="m 349.85418,426.22212 -2.71087,0.0261 1.28495,1.48926 4.12889,-0.91792 -3.10875,3.32047 -4.60987,-5.33745 z"
         style="color:#000000;fill:#ffffff;fill-opacity:0.71480144;fill-rule:evenodd;stroke:none;stroke-width:2;marker:none;visibility:visible;display:inline;overflow:visible;enable-background:accumulate"
         sodipodi:nodetypes="ccccccc" />
      <path
         sodipodi:nodetypes="ccccc"
         style="color:#000000;fill:#ffffff;fill-opacity:0.71480144;fill-rule:evenodd;stroke:none;stroke-width:2;marker:none;visibility:visible;display:inline;overflow:visible;enable-background:accumulate"
         d="m 348.07525,431.03432 5.05854,5.176 -5.39854,-1.91065 2.16511,-0.2738 z"
         id="path3149"
         inkscape:connector-curvature="0" />
      <path
         sodipodi:nodetypes="ccccccccccc"
         inkscape:connector-curvature="0"
         d="m 344.68934,424.87536 4.89004,6.60288 3.62692,4.37953 m -8.99087,-1.8971 4.36663,-4.01965 5.87384,-3.55775 m -9.97702,-1.73743 9.99494,1.42787 -1.13445,10.26723 -9.50205,-2.23612 z"
         style="color:#000000;fill:none;stroke:#a5c3e0;stroke-width:2.82153177;stroke-linecap:round;stroke-linejoin:miter;stroke-miterlimit:4;stroke-opacity:1;stroke-dasharray:none;stroke-dashoffset:0;marker:none;visibility:visible;display:inline;overflow:visible;enable-background:accumulate"
         id="path3151" />
    </g>
  </g>
</svg>
