<?xml version="1.0" encoding="UTF-8" standalone="no"?>
<!-- Created with Inkscape (http://www.inkscape.org/) -->

<svg
   xmlns:dc="http://purl.org/dc/elements/1.1/"
   xmlns:cc="http://creativecommons.org/ns#"
   xmlns:rdf="http://www.w3.org/1999/02/22-rdf-syntax-ns#"
   xmlns:svg="http://www.w3.org/2000/svg"
   xmlns="http://www.w3.org/2000/svg"
   xmlns:sodipodi="http://sodipodi.sourceforge.net/DTD/sodipodi-0.dtd"
   xmlns:inkscape="http://www.inkscape.org/namespaces/inkscape"
   id="svg2"
   sodipodi:version="0.32"
   inkscape:version="0.48.1 r9760"
   width="165"
   height="260"
   version="1.0"
   sodipodi:docname="Crystal01.svg"
   inkscape:output_extension="org.inkscape.output.svg.inkscape"
   inkscape:export-filename="Crystal01.png"
   inkscape:export-xdpi="90"
   inkscape:export-ydpi="90">
  <metadata
     id="metadata7">
    <rdf:RDF>
      <cc:Work
         rdf:about="">
        <dc:format>image/svg+xml</dc:format>
        <dc:type
           rdf:resource="http://purl.org/dc/dcmitype/StillImage" />
        <dc:title></dc:title>
      </cc:Work>
    </rdf:RDF>
  </metadata>
  <defs
     id="defs5" />
  <sodipodi:namedview
     inkscape:window-height="824"
     inkscape:window-width="1434"
     inkscape:pageshadow="2"
     inkscape:pageopacity="0.0"
     guidetolerance="10.0"
     gridtolerance="10.0"
     objecttolerance="10.0"
     borderopacity="1.0"
     bordercolor="#666666"
     pagecolor="#ffffff"
     id="base"
     showgrid="false"
     inkscape:zoom="2.8284271"
     inkscape:cx="56.597117"
     inkscape:cy="65.615904"
     inkscape:window-x="0"
     inkscape:window-y="25"
     inkscape:current-layer="layer2"
     showguides="true"
     inkscape:guide-bbox="true"
     inkscape:snap-global="false"
     inkscape:window-maximized="0">
    <sodipodi:guide
       orientation="1,0"
       position="134,-0.8125"
       id="guide2693" />
    <sodipodi:guide
       orientation="0,1"
       position="11.75,2"
       id="guide2695" />
    <sodipodi:guide
       orientation="0,1"
       position="173,15"
       id="guide2701" />
    <sodipodi:guide
       orientation="1,0"
       position="21,22.75"
       id="guide3852" />
  </sodipodi:namedview>
  <g
     inkscape:groupmode="layer"
     id="layer2"
     inkscape:label="main"
     style="display:inline">
    <g
       id="g3913"
       transform="matrix(0.99309071,-0.11734926,0.11734926,0.99309071,-25.579298,9.397104)">
      <path
         sodipodi:nodetypes="cccccc"
         inkscape:connector-curvature="0"
         id="path3144"
         d="m 50.999997,264.5 c 0,-2 -34.499998,-164.999989 -34.499998,-164.999989 L 79.999996,4.5000128 152.99999,97.500011 101.18807,269.67873 z"
         style="color:#000000;fill:#a6c2df;fill-opacity:0.51263535;fill-rule:evenodd;stroke:none;stroke-width:2;marker:none;visibility:visible;display:inline;overflow:visible;enable-background:accumulate" />
      <path
         inkscape:connector-curvature="0"
         id="path3808"
         d="M 19.758101,97.868268 78.85608,10.482759 101.09441,124.62132 z"
         style="color:#000000;fill:#ffffff;fill-opacity:0.27797834;fill-rule:evenodd;stroke:none;stroke-width:2;marker:none;visibility:visible;display:inline;overflow:visible;enable-background:accumulate"
         sodipodi:nodetypes="cccc" />
      <path
         sodipodi:nodetypes="cccccccccccccc"
         inkscape:connector-curvature="0"
         id="path3765"
         d="m 43.999999,220.25 -26.224871,-119.25305 59.706232,18.35338 -31.761315,-4.8332 36.21331,116.54881 18.892745,-99.8037 -23.299766,133.9308 -25.034815,-2.43546 -4.499441,-21.70912 12.879079,21.59631 14.378596,1.149 5.631446,-25.40982 -48.17554,-84.75836 z"
         style="color:#000000;fill:#ffffff;fill-opacity:0.71480144;fill-rule:evenodd;stroke:none;stroke-width:2;marker:none;visibility:visible;display:inline;overflow:visible;enable-background:accumulate" />
      <path
         sodipodi:nodetypes="ccccccc"
         style="color:#000000;fill:#ffffff;fill-opacity:0.71480144;fill-rule:evenodd;stroke:none;stroke-width:2;marker:none;visibility:visible;display:inline;overflow:visible;enable-background:accumulate"
         d="M 17.758101,99.618268 79.60608,8.9827591 101.84441,125.62132 83.323607,51.946862 25.650105,93.611728 73.762449,116.01724 z"
         id="path3842"
         inkscape:connector-curvature="0" />
      <path
         sodipodi:nodetypes="cccccccccccc"
         inkscape:connector-curvature="0"
         d="M 16.926368,99.619347 105.25535,127.92179 152.45381,97.603801 M 79.955804,5.1022591 104.75,127.5 78.734507,267.76311 M 50.999997,264.5 c 0,-2 -34.499998,-164.999989 -34.499998,-164.999989 L 79.999996,4.5000128 152.99999,97.500011 101.93059,269.51473 z"
         style="color:#000000;fill:none;stroke:#a5c3e0;stroke-width:2;stroke-linecap:round;stroke-linejoin:miter;stroke-miterlimit:4;stroke-opacity:1;stroke-dasharray:none;stroke-dashoffset:0;marker:none;visibility:visible;display:inline;overflow:visible;enable-background:accumulate"
         id="path3762" />
      <path
         inkscape:connector-curvature="0"
         d="m 17,99.000004 47.75,-18.749999 87,16.499999 M 79.5,4.5000067 65,81.000005 71,266.5"
         style="color:#000000;fill:none;stroke:#a5c3e0;stroke-width:2;stroke-linecap:round;stroke-linejoin:miter;stroke-miterlimit:4;stroke-opacity:0.09025269;stroke-dasharray:none;stroke-dashoffset:0;marker:none;visibility:visible;display:inline;overflow:visible;enable-background:accumulate"
         id="path3803" />
      <path
         sodipodi:nodetypes="cccc"
         style="color:#000000;fill:#98b8da;fill-opacity:0.18411554;fill-rule:evenodd;stroke:none;stroke-width:2;marker:none;visibility:visible;display:inline;overflow:visible;enable-background:accumulate"
         d="M 106.68934,123.53553 84.159381,12.604079 149.13478,96.082738 z"
         id="path3806"
         inkscape:connector-curvature="0" />
      <path
         sodipodi:nodetypes="ccccc"
         inkscape:connector-curvature="0"
         id="path3827"
         d="M 81.234507,265.26311 100.96308,266.87902 149.25,101.5 106,130.75 z"
         style="color:#000000;fill:#6696c8;fill-opacity:0.19494587;fill-rule:evenodd;stroke:none;stroke-width:2;marker:none;visibility:visible;display:inline;overflow:visible;enable-background:accumulate" />
      <path
         style="color:#000000;fill:#ffffff;fill-opacity:0.71480144;fill-rule:evenodd;stroke:none;stroke-width:2;marker:none;visibility:visible;display:inline;overflow:visible;enable-background:accumulate"
         d="m 113.48338,224.5417 -15.223555,-38.05879 -10.444982,44.72126 17.666517,-99.60384 -0.9558,19.30911 17.6271,36.30165 20.53151,-66.15097 -16.57072,-2.68541 22.93224,-15.63272 z"
         id="path3850"
         inkscape:connector-curvature="0"
         sodipodi:nodetypes="cccccccccc" />
      <path
         inkscape:connector-curvature="0"
         id="path3865"
         d="M 109.18934,122.28553 138.83406,94.692743 95.448629,31.511489 89.576819,43.112678 83.409381,11.60408 148.38478,96.832738 z"
         style="color:#000000;fill:#ffffff;fill-opacity:0.71480144;fill-rule:evenodd;stroke:none;stroke-width:2;marker:none;visibility:visible;display:inline;overflow:visible;enable-background:accumulate"
         sodipodi:nodetypes="ccccccc" />
    </g>
    <g
       id="g3925"
       transform="matrix(0.35812573,0.12426305,-0.14951633,0.42540169,123.17437,144.01309)">
      <path
         style="color:#000000;fill:#a6c2df;fill-opacity:0.51263535;fill-rule:evenodd;stroke:none;stroke-width:2;marker:none;visibility:visible;display:inline;overflow:visible;enable-background:accumulate"
         d="m 50.999997,264.5 c 0,-2 -34.499998,-164.999989 -34.499998,-164.999989 L 79.999996,4.5000128 152.99999,97.500011 114.49999,271 z"
         id="path3927"
         inkscape:connector-curvature="0"
         sodipodi:nodetypes="cccccc" />
      <path
         sodipodi:nodetypes="cccc"
         style="color:#000000;fill:#ffffff;fill-opacity:0.27797834;fill-rule:evenodd;stroke:none;stroke-width:2;marker:none;visibility:visible;display:inline;overflow:visible;enable-background:accumulate"
         d="M 19.758101,97.868268 78.85608,10.482759 101.09441,124.62132 z"
         id="path3929"
         inkscape:connector-curvature="0" />
      <path
         style="color:#000000;fill:#ffffff;fill-opacity:0.71480144;fill-rule:evenodd;stroke:none;stroke-width:2;marker:none;visibility:visible;display:inline;overflow:visible;enable-background:accumulate"
         d="M 43.999999,220.25 17.775128,100.99695 77.48136,119.35033 45.720045,114.51713 85.59877,232.00255 103.69021,128.32807 83.703813,266.17475 l -31.212294,-3.41717 -4.499441,-21.70912 12.879079,21.59631 20.556075,2.13071 3.119382,-25.45492 -51.840955,-85.69497 z"
         id="path3931"
         inkscape:connector-curvature="0"
         sodipodi:nodetypes="cccccccccccccc" />
      <path
         inkscape:connector-curvature="0"
         id="path3933"
         d="M 17.758101,99.618268 79.60608,8.9827591 101.84441,125.62132 83.323607,51.946862 25.650105,93.611728 73.762449,116.01724 z"
         style="color:#000000;fill:#ffffff;fill-opacity:0.71480144;fill-rule:evenodd;stroke:none;stroke-width:2;marker:none;visibility:visible;display:inline;overflow:visible;enable-background:accumulate"
         sodipodi:nodetypes="ccccccc" />
      <path
         id="path3935"
         style="color:#000000;fill:none;stroke:#a5c3e0;stroke-width:4.83754587;stroke-linecap:round;stroke-linejoin:miter;stroke-miterlimit:4;stroke-opacity:1;stroke-dasharray:none;stroke-dashoffset:0;marker:none;visibility:visible;display:inline;overflow:visible;enable-background:accumulate"
         d="M 16.926368,99.619347 105.25535,127.92179 152.45381,97.603801 M 79.955804,5.1022591 104.75,127.5 84.999998,268 m -34.000001,-3.5 c 0,-2 -34.499998,-164.999989 -34.499998,-164.999989 L 79.999996,4.5000128 152.99999,97.500011 114.49999,271 z"
         inkscape:connector-curvature="0"
         sodipodi:nodetypes="cccccccccccc" />
      <path
         id="path3937"
         style="color:#000000;fill:none;stroke:#a5c3e0;stroke-width:4.83754587;stroke-linecap:round;stroke-linejoin:miter;stroke-miterlimit:4;stroke-opacity:0.09025269;stroke-dasharray:none;stroke-dashoffset:0;marker:none;visibility:visible;display:inline;overflow:visible;enable-background:accumulate"
         d="m 17,99.000004 47.75,-18.749999 87,16.499999 M 79.5,4.5000067 65,81.000005 71,266.5"
         inkscape:connector-curvature="0" />
      <path
         inkscape:connector-curvature="0"
         id="path3939"
         d="M 106.68934,123.53553 84.159381,12.604079 149.13478,96.082738 z"
         style="color:#000000;fill:#98b8da;fill-opacity:0.18411554;fill-rule:evenodd;stroke:none;stroke-width:2;marker:none;visibility:visible;display:inline;overflow:visible;enable-background:accumulate"
         sodipodi:nodetypes="cccc" />
      <path
         style="color:#000000;fill:#6696c8;fill-opacity:0.19494587;fill-rule:evenodd;stroke:none;stroke-width:2;marker:none;visibility:visible;display:inline;overflow:visible;enable-background:accumulate"
         d="M 87.499998,265.5 111.5,268.25 149.25,101.5 106,130.75 z"
         id="path3941"
         inkscape:connector-curvature="0"
         sodipodi:nodetypes="ccccc" />
      <path
         sodipodi:nodetypes="cccccccccc"
         inkscape:connector-curvature="0"
         id="path3943"
         d="m 122.68414,225.50305 -21.47438,-38.41982 -7.725368,38.74914 11.996968,-94.23204 -0.9558,19.30911 22.59825,40.03581 17.10867,-70.20565 -18.11903,-2.36489 22.93224,-15.63272 z"
         style="color:#000000;fill:#ffffff;fill-opacity:0.71480144;fill-rule:evenodd;stroke:none;stroke-width:2;marker:none;visibility:visible;display:inline;overflow:visible;enable-background:accumulate" />
      <path
         sodipodi:nodetypes="ccccccc"
         style="color:#000000;fill:#ffffff;fill-opacity:0.71480144;fill-rule:evenodd;stroke:none;stroke-width:2;marker:none;visibility:visible;display:inline;overflow:visible;enable-background:accumulate"
         d="M 109.18934,122.28553 138.83406,94.692743 95.448629,31.511489 89.576819,43.112678 83.409381,11.60408 148.38478,96.832738 z"
         id="path3945"
         inkscape:connector-curvature="0" />
    </g>
    <g
       transform="matrix(0.25422969,-0.09121302,0.07834536,0.28778697,-5.9840916,197.55067)"
       id="g3947">
      <path
         sodipodi:nodetypes="cccccc"
         inkscape:connector-curvature="0"
         id="path3949"
         d="m 50.999997,264.5 c 0,-2 -34.499998,-164.999989 -34.499998,-164.999989 L 79.999996,4.5000128 152.99999,97.500011 114.49999,271 z"
         style="color:#000000;fill:#a6c2df;fill-opacity:0.51263535;fill-rule:evenodd;stroke:none;stroke-width:2;marker:none;visibility:visible;display:inline;overflow:visible;enable-background:accumulate" />
      <path
         inkscape:connector-curvature="0"
         id="path3951"
         d="M 19.758101,97.868268 78.85608,10.482759 101.09441,124.62132 z"
         style="color:#000000;fill:#ffffff;fill-opacity:0.27797834;fill-rule:evenodd;stroke:none;stroke-width:2;marker:none;visibility:visible;display:inline;overflow:visible;enable-background:accumulate"
         sodipodi:nodetypes="cccc" />
      <path
         sodipodi:nodetypes="cccccccccccccc"
         inkscape:connector-curvature="0"
         id="path3953"
         d="M 43.999999,220.25 17.775128,100.99695 77.48136,119.35033 45.720045,114.51713 85.59877,232.00255 103.69021,128.32807 83.703813,266.17475 l -31.212294,-3.41717 -4.499441,-21.70912 12.879079,21.59631 20.556075,2.13071 3.119382,-25.45492 -51.840955,-85.69497 z"
         style="color:#000000;fill:#ffffff;fill-opacity:0.71480144;fill-rule:evenodd;stroke:none;stroke-width:2;marker:none;visibility:visible;display:inline;overflow:visible;enable-background:accumulate" />
      <path
         sodipodi:nodetypes="ccccccc"
         style="color:#000000;fill:#ffffff;fill-opacity:0.71480144;fill-rule:evenodd;stroke:none;stroke-width:2;marker:none;visibility:visible;display:inline;overflow:visible;enable-background:accumulate"
         d="M 17.758101,99.618268 79.60608,8.9827591 101.84441,125.62132 83.323607,51.946862 25.650105,93.611728 73.762449,116.01724 z"
         id="path3955"
         inkscape:connector-curvature="0" />
      <path
         sodipodi:nodetypes="cccccccccccc"
         inkscape:connector-curvature="0"
         d="M 16.926368,99.619347 105.25535,127.92179 152.45381,97.603801 M 79.955804,5.1022591 104.75,127.5 84.999998,268 m -34.000001,-3.5 c 0,-2 -34.499998,-164.999989 -34.499998,-164.999989 L 79.999996,4.5000128 152.99999,97.500011 114.49999,271 z"
         style="color:#000000;fill:none;stroke:#a5c3e0;stroke-width:7.05740213;stroke-linecap:round;stroke-linejoin:miter;stroke-miterlimit:4;stroke-opacity:1;stroke-dasharray:none;stroke-dashoffset:0;marker:none;visibility:visible;display:inline;overflow:visible;enable-background:accumulate"
         id="path3957" />
      <path
         inkscape:connector-curvature="0"
         d="m 17,99.000004 47.75,-18.749999 87,16.499999 M 79.5,4.5000067 65,81.000005 71,266.5"
         style="color:#000000;fill:none;stroke:#a5c3e0;stroke-width:7.05740213;stroke-linecap:round;stroke-linejoin:miter;stroke-miterlimit:4;stroke-opacity:0.09025269;stroke-dasharray:none;stroke-dashoffset:0;marker:none;visibility:visible;display:inline;overflow:visible;enable-background:accumulate"
         id="path3959" />
      <path
         sodipodi:nodetypes="cccc"
         style="color:#000000;fill:#98b8da;fill-opacity:0.18411554;fill-rule:evenodd;stroke:none;stroke-width:2;marker:none;visibility:visible;display:inline;overflow:visible;enable-background:accumulate"
         d="M 106.68934,123.53553 84.159381,12.604079 149.13478,96.082738 z"
         id="path3961"
         inkscape:connector-curvature="0" />
      <path
         sodipodi:nodetypes="ccccc"
         inkscape:connector-curvature="0"
         id="path3963"
         d="M 87.499998,265.5 111.5,268.25 149.25,101.5 106,130.75 z"
         style="color:#000000;fill:#6696c8;fill-opacity:0.19494587;fill-rule:evenodd;stroke:none;stroke-width:2;marker:none;visibility:visible;display:inline;overflow:visible;enable-background:accumulate" />
      <path
         style="color:#000000;fill:#ffffff;fill-opacity:0.71480144;fill-rule:evenodd;stroke:none;stroke-width:2;marker:none;visibility:visible;display:inline;overflow:visible;enable-background:accumulate"
         d="m 122.68414,225.50305 -21.47438,-38.41982 -7.725368,38.74914 11.996968,-94.23204 -0.9558,19.30911 22.59825,40.03581 17.10867,-70.20565 -18.11903,-2.36489 22.93224,-15.63272 z"
         id="path3965"
         inkscape:connector-curvature="0"
         sodipodi:nodetypes="cccccccccc" />
      <path
         inkscape:connector-curvature="0"
         id="path3967"
         d="M 109.18934,122.28553 138.83406,94.692743 95.448629,31.511489 89.576819,43.112678 83.409381,11.60408 148.38478,96.832738 z"
         style="color:#000000;fill:#ffffff;fill-opacity:0.71480144;fill-rule:evenodd;stroke:none;stroke-width:2;marker:none;visibility:visible;display:inline;overflow:visible;enable-background:accumulate"
         sodipodi:nodetypes="ccccccc" />
    </g>
    <g
       transform="matrix(0.24846027,0.06454771,-0.05057394,0.20812091,87.927552,211.70647)"
       id="g3991">
      <path
         sodipodi:nodetypes="cccccc"
         inkscape:connector-curvature="0"
         id="path3993"
         d="m 50.999997,264.5 c 0,-2 -34.499998,-164.999989 -34.499998,-164.999989 L 79.999996,4.5000128 152.99999,97.500011 114.49999,271 z"
         style="color:#000000;fill:#a6c2df;fill-opacity:0.51263535;fill-rule:evenodd;stroke:none;stroke-width:2;marker:none;visibility:visible;display:inline;overflow:visible;enable-background:accumulate" />
      <path
         inkscape:connector-curvature="0"
         id="path3995"
         d="M 19.758101,97.868268 78.85608,10.482759 101.09441,124.62132 z"
         style="color:#000000;fill:#ffffff;fill-opacity:0.27797834;fill-rule:evenodd;stroke:none;stroke-width:2;marker:none;visibility:visible;display:inline;overflow:visible;enable-background:accumulate"
         sodipodi:nodetypes="cccc" />
      <path
         sodipodi:nodetypes="cccccccccccccc"
         inkscape:connector-curvature="0"
         id="path3997"
         d="M 43.999999,220.25 17.775128,100.99695 77.48136,119.35033 45.720045,114.51713 85.59877,232.00255 103.69021,128.32807 83.703813,266.17475 l -31.212294,-3.41717 -4.499441,-21.70912 12.879079,21.59631 20.556075,2.13071 3.119382,-25.45492 -51.840955,-85.69497 z"
         style="color:#000000;fill:#ffffff;fill-opacity:0.71480144;fill-rule:evenodd;stroke:none;stroke-width:2;marker:none;visibility:visible;display:inline;overflow:visible;enable-background:accumulate" />
      <path
         sodipodi:nodetypes="ccccccc"
         style="color:#000000;fill:#ffffff;fill-opacity:0.71480144;fill-rule:evenodd;stroke:none;stroke-width:2;marker:none;visibility:visible;display:inline;overflow:visible;enable-background:accumulate"
         d="M 17.758101,99.618268 79.60608,8.9827591 101.84441,125.62132 83.323607,51.946862 25.650105,93.611728 73.762449,116.01724 z"
         id="path3999"
         inkscape:connector-curvature="0" />
      <path
         sodipodi:nodetypes="cccccccccccc"
         inkscape:connector-curvature="0"
         d="M 16.926368,99.619347 105.25535,127.92179 152.45381,97.603801 M 79.955804,5.1022591 104.75,127.5 84.999998,268 m -34.000001,-3.5 c 0,-2 -34.499998,-164.999989 -34.499998,-164.999989 L 79.999996,4.5000128 152.99999,97.500011 114.49999,271 z"
         style="color:#000000;fill:none;stroke:#a5c3e0;stroke-width:8.5300293;stroke-linecap:round;stroke-linejoin:miter;stroke-miterlimit:4;stroke-opacity:1;stroke-dasharray:none;stroke-dashoffset:0;marker:none;visibility:visible;display:inline;overflow:visible;enable-background:accumulate"
         id="path4001" />
      <path
         inkscape:connector-curvature="0"
         d="m 17,99.000004 47.75,-18.749999 87,16.499999 M 79.5,4.5000067 65,81.000005 71,266.5"
         style="color:#000000;fill:none;stroke:#a5c3e0;stroke-width:8.5300293;stroke-linecap:round;stroke-linejoin:miter;stroke-miterlimit:4;stroke-opacity:0.09025269;stroke-dasharray:none;stroke-dashoffset:0;marker:none;visibility:visible;display:inline;overflow:visible;enable-background:accumulate"
         id="path4003" />
      <path
         sodipodi:nodetypes="cccc"
         style="color:#000000;fill:#98b8da;fill-opacity:0.18411554;fill-rule:evenodd;stroke:none;stroke-width:2;marker:none;visibility:visible;display:inline;overflow:visible;enable-background:accumulate"
         d="M 106.68934,123.53553 84.159381,12.604079 149.13478,96.082738 z"
         id="path4005"
         inkscape:connector-curvature="0" />
      <path
         sodipodi:nodetypes="ccccc"
         inkscape:connector-curvature="0"
         id="path4007"
         d="M 87.499998,265.5 111.5,268.25 149.25,101.5 106,130.75 z"
         style="color:#000000;fill:#6696c8;fill-opacity:0.19494587;fill-rule:evenodd;stroke:none;stroke-width:2;marker:none;visibility:visible;display:inline;overflow:visible;enable-background:accumulate" />
      <path
         style="color:#000000;fill:#ffffff;fill-opacity:0.71480144;fill-rule:evenodd;stroke:none;stroke-width:2;marker:none;visibility:visible;display:inline;overflow:visible;enable-background:accumulate"
         d="m 122.68414,225.50305 -21.47438,-38.41982 -7.725368,38.74914 11.996968,-94.23204 -0.9558,19.30911 22.59825,40.03581 17.10867,-70.20565 -18.11903,-2.36489 22.93224,-15.63272 z"
         id="path4009"
         inkscape:connector-curvature="0"
         sodipodi:nodetypes="cccccccccc" />
      <path
         inkscape:connector-curvature="0"
         id="path4011"
         d="M 109.18934,122.28553 138.83406,94.692743 95.448629,31.511489 89.576819,43.112678 83.409381,11.60408 148.38478,96.832738 z"
         style="color:#000000;fill:#ffffff;fill-opacity:0.71480144;fill-rule:evenodd;stroke:none;stroke-width:2;marker:none;visibility:visible;display:inline;overflow:visible;enable-background:accumulate"
         sodipodi:nodetypes="ccccccc" />
    </g>
    <g
       id="g4013"
       transform="matrix(0.23525591,-0.10273057,0.08879905,0.19490194,14.27571,224.50321)">
      <path
         style="color:#000000;fill:#a6c2df;fill-opacity:0.51263535;fill-rule:evenodd;stroke:none;stroke-width:2;marker:none;visibility:visible;display:inline;overflow:visible;enable-background:accumulate"
         d="m 50.999997,264.5 c 0,-2 -34.499998,-164.999989 -34.499998,-164.999989 L 79.999996,4.5000128 152.99999,97.500011 114.49999,271 z"
         id="path4015"
         inkscape:connector-curvature="0"
         sodipodi:nodetypes="cccccc" />
      <path
         sodipodi:nodetypes="cccc"
         style="color:#000000;fill:#ffffff;fill-opacity:0.27797834;fill-rule:evenodd;stroke:none;stroke-width:2;marker:none;visibility:visible;display:inline;overflow:visible;enable-background:accumulate"
         d="M 19.758101,97.868268 78.85608,10.482759 101.09441,124.62132 z"
         id="path4017"
         inkscape:connector-curvature="0" />
      <path
         style="color:#000000;fill:#ffffff;fill-opacity:0.71480144;fill-rule:evenodd;stroke:none;stroke-width:2;marker:none;visibility:visible;display:inline;overflow:visible;enable-background:accumulate"
         d="M 43.999999,220.25 17.775128,100.99695 77.48136,119.35033 45.720045,114.51713 85.59877,232.00255 103.69021,128.32807 83.703813,266.17475 l -31.212294,-3.41717 -4.499441,-21.70912 12.879079,21.59631 20.556075,2.13071 3.119382,-25.45492 -51.840955,-85.69497 z"
         id="path4019"
         inkscape:connector-curvature="0"
         sodipodi:nodetypes="cccccccccccccc" />
      <path
         inkscape:connector-curvature="0"
         id="path4021"
         d="M 17.758101,99.618268 79.60608,8.9827591 101.84441,125.62132 83.323607,51.946862 25.650105,93.611728 73.762449,116.01724 z"
         style="color:#000000;fill:#ffffff;fill-opacity:0.71480144;fill-rule:evenodd;stroke:none;stroke-width:2;marker:none;visibility:visible;display:inline;overflow:visible;enable-background:accumulate"
         sodipodi:nodetypes="ccccccc" />
      <path
         id="path4023"
         style="color:#000000;fill:none;stroke:#a5c3e0;stroke-width:8.5300293;stroke-linecap:round;stroke-linejoin:miter;stroke-miterlimit:4;stroke-opacity:1;stroke-dasharray:none;stroke-dashoffset:0;marker:none;visibility:visible;display:inline;overflow:visible;enable-background:accumulate"
         d="M 16.926368,99.619347 105.25535,127.92179 152.45381,97.603801 M 79.955804,5.1022591 104.75,127.5 84.999998,268 m -34.000001,-3.5 c 0,-2 -34.499998,-164.999989 -34.499998,-164.999989 L 79.999996,4.5000128 152.99999,97.500011 114.49999,271 z"
         inkscape:connector-curvature="0"
         sodipodi:nodetypes="cccccccccccc" />
      <path
         id="path4025"
         style="color:#000000;fill:none;stroke:#a5c3e0;stroke-width:8.5300293;stroke-linecap:round;stroke-linejoin:miter;stroke-miterlimit:4;stroke-opacity:0.09025269;stroke-dasharray:none;stroke-dashoffset:0;marker:none;visibility:visible;display:inline;overflow:visible;enable-background:accumulate"
         d="m 17,99.000004 47.75,-18.749999 87,16.499999 M 79.5,4.5000067 65,81.000005 71,266.5"
         inkscape:connector-curvature="0" />
      <path
         inkscape:connector-curvature="0"
         id="path4027"
         d="M 106.68934,123.53553 84.159381,12.604079 149.13478,96.082738 z"
         style="color:#000000;fill:#98b8da;fill-opacity:0.18411554;fill-rule:evenodd;stroke:none;stroke-width:2;marker:none;visibility:visible;display:inline;overflow:visible;enable-background:accumulate"
         sodipodi:nodetypes="cccc" />
      <path
         style="color:#000000;fill:#6696c8;fill-opacity:0.19494587;fill-rule:evenodd;stroke:none;stroke-width:2;marker:none;visibility:visible;display:inline;overflow:visible;enable-background:accumulate"
         d="M 87.499998,265.5 111.5,268.25 149.25,101.5 106,130.75 z"
         id="path4029"
         inkscape:connector-curvature="0"
         sodipodi:nodetypes="ccccc" />
      <path
         sodipodi:nodetypes="cccccccccc"
         inkscape:connector-curvature="0"
         id="path4031"
         d="m 122.68414,225.50305 -21.47438,-38.41982 -7.725368,38.74914 11.996968,-94.23204 -0.9558,19.30911 22.59825,40.03581 17.10867,-70.20565 -18.11903,-2.36489 22.93224,-15.63272 z"
         style="color:#000000;fill:#ffffff;fill-opacity:0.71480144;fill-rule:evenodd;stroke:none;stroke-width:2;marker:none;visibility:visible;display:inline;overflow:visible;enable-background:accumulate" />
      <path
         sodipodi:nodetypes="ccccccc"
         style="color:#000000;fill:#ffffff;fill-opacity:0.71480144;fill-rule:evenodd;stroke:none;stroke-width:2;marker:none;visibility:visible;display:inline;overflow:visible;enable-background:accumulate"
         d="M 109.18934,122.28553 138.83406,94.692743 95.448629,31.511489 89.576819,43.112678 83.409381,11.60408 148.38478,96.832738 z"
         id="path4033"
         inkscape:connector-curvature="0" />
    </g>
    <g
       id="g3969"
       transform="matrix(0.36224638,4.3552761e-4,0.03288198,0.30216477,40.678026,187.1825)">
      <path
         style="color:#000000;fill:#a6c2df;fill-opacity:0.51263535;fill-rule:evenodd;stroke:none;stroke-width:2;marker:none;visibility:visible;display:inline;overflow:visible;enable-background:accumulate"
         d="m 50.999997,264.5 c 0,-2 -34.499998,-164.999989 -34.499998,-164.999989 L 79.999996,4.5000128 152.99999,97.500011 114.49999,271 z"
         id="path3971"
         inkscape:connector-curvature="0"
         sodipodi:nodetypes="cccccc" />
      <path
         sodipodi:nodetypes="cccc"
         style="color:#000000;fill:#ffffff;fill-opacity:0.27797834;fill-rule:evenodd;stroke:none;stroke-width:2;marker:none;visibility:visible;display:inline;overflow:visible;enable-background:accumulate"
         d="M 19.758101,97.868268 78.85608,10.482759 101.09441,124.62132 z"
         id="path3973"
         inkscape:connector-curvature="0" />
      <path
         style="color:#000000;fill:#ffffff;fill-opacity:0.71480144;fill-rule:evenodd;stroke:none;stroke-width:2;marker:none;visibility:visible;display:inline;overflow:visible;enable-background:accumulate"
         d="M 43.999999,220.25 17.775128,100.99695 77.48136,119.35033 45.720045,114.51713 85.59877,232.00255 103.69021,128.32807 83.703813,266.17475 l -31.212294,-3.41717 -4.499441,-21.70912 12.879079,21.59631 20.556075,2.13071 3.119382,-25.45492 -51.840955,-85.69497 z"
         id="path3975"
         inkscape:connector-curvature="0"
         sodipodi:nodetypes="cccccccccccccc" />
      <path
         inkscape:connector-curvature="0"
         id="path3977"
         d="M 17.758101,99.618268 79.60608,8.9827591 101.84441,125.62132 83.323607,51.946862 25.650105,93.611728 73.762449,116.01724 z"
         style="color:#000000;fill:#ffffff;fill-opacity:0.71480144;fill-rule:evenodd;stroke:none;stroke-width:2;marker:none;visibility:visible;display:inline;overflow:visible;enable-background:accumulate"
         sodipodi:nodetypes="ccccccc" />
      <path
         id="path3979"
         style="color:#000000;fill:none;stroke:#a5c3e0;stroke-width:6.04553127;stroke-linecap:round;stroke-linejoin:miter;stroke-miterlimit:4;stroke-opacity:1;stroke-dasharray:none;stroke-dashoffset:0;marker:none;visibility:visible;display:inline;overflow:visible;enable-background:accumulate"
         d="M 16.926368,99.619347 105.25535,127.92179 152.45381,97.603801 M 79.955804,5.1022591 104.75,127.5 84.999998,268 m -34.000001,-3.5 c 0,-2 -34.499998,-164.999989 -34.499998,-164.999989 L 79.999996,4.5000128 152.99999,97.500011 114.49999,271 z"
         inkscape:connector-curvature="0"
         sodipodi:nodetypes="cccccccccccc" />
      <path
         id="path3981"
         style="color:#000000;fill:none;stroke:#a5c3e0;stroke-width:6.04553127;stroke-linecap:round;stroke-linejoin:miter;stroke-miterlimit:4;stroke-opacity:0.09025269;stroke-dasharray:none;stroke-dashoffset:0;marker:none;visibility:visible;display:inline;overflow:visible;enable-background:accumulate"
         d="m 17,99.000004 47.75,-18.749999 87,16.499999 M 79.5,4.5000067 65,81.000005 71,266.5"
         inkscape:connector-curvature="0" />
      <path
         inkscape:connector-curvature="0"
         id="path3983"
         d="M 106.68934,123.53553 84.159381,12.604079 149.13478,96.082738 z"
         style="color:#000000;fill:#98b8da;fill-opacity:0.18411554;fill-rule:evenodd;stroke:none;stroke-width:2;marker:none;visibility:visible;display:inline;overflow:visible;enable-background:accumulate"
         sodipodi:nodetypes="cccc" />
      <path
         style="color:#000000;fill:#6696c8;fill-opacity:0.19494587;fill-rule:evenodd;stroke:none;stroke-width:2;marker:none;visibility:visible;display:inline;overflow:visible;enable-background:accumulate"
         d="M 87.499998,265.5 111.5,268.25 149.25,101.5 106,130.75 z"
         id="path3985"
         inkscape:connector-curvature="0"
         sodipodi:nodetypes="ccccc" />
      <path
         sodipodi:nodetypes="cccccccccc"
         inkscape:connector-curvature="0"
         id="path3987"
         d="m 122.68414,225.50305 -21.47438,-38.41982 -7.725368,38.74914 11.996968,-94.23204 -0.9558,19.30911 22.59825,40.03581 17.10867,-70.20565 -18.11903,-2.36489 22.93224,-15.63272 z"
         style="color:#000000;fill:#ffffff;fill-opacity:0.71480144;fill-rule:evenodd;stroke:none;stroke-width:2;marker:none;visibility:visible;display:inline;overflow:visible;enable-background:accumulate" />
      <path
         sodipodi:nodetypes="ccccccc"
         style="color:#000000;fill:#ffffff;fill-opacity:0.71480144;fill-rule:evenodd;stroke:none;stroke-width:2;marker:none;visibility:visible;display:inline;overflow:visible;enable-background:accumulate"
         d="M 109.18934,122.28553 138.83406,94.692743 95.448629,31.511489 89.576819,43.112678 83.409381,11.60408 148.38478,96.832738 z"
         id="path3989"
         inkscape:connector-curvature="0" />
    </g>
  </g>
</svg>
