<?xml version="1.0" encoding="UTF-8" standalone="no"?>
<!-- Created with Inkscape (http://www.inkscape.org/) -->

<svg
   xmlns:dc="http://purl.org/dc/elements/1.1/"
   xmlns:cc="http://creativecommons.org/ns#"
   xmlns:rdf="http://www.w3.org/1999/02/22-rdf-syntax-ns#"
   xmlns:svg="http://www.w3.org/2000/svg"
   xmlns="http://www.w3.org/2000/svg"
   xmlns:sodipodi="http://sodipodi.sourceforge.net/DTD/sodipodi-0.dtd"
   xmlns:inkscape="http://www.inkscape.org/namespaces/inkscape"
   id="svg2"
   sodipodi:version="0.32"
   inkscape:version="0.48.1 r9760"
   width="98"
   height="95"
   version="1.0"
   sodipodi:docname="CrystalSpray01.svg"
   inkscape:output_extension="org.inkscape.output.svg.inkscape"
   inkscape:export-filename="CrystalSpray01.png"
   inkscape:export-xdpi="90"
   inkscape:export-ydpi="90"
   style="display:inline">
  <sodipodi:namedview
     inkscape:window-height="824"
     inkscape:window-width="1434"
     inkscape:pageshadow="2"
     inkscape:pageopacity="0.0"
     guidetolerance="10.0"
     gridtolerance="10.0"
     objecttolerance="10.0"
     borderopacity="1.0"
     bordercolor="#666666"
     pagecolor="#ffffff"
     id="base"
     showgrid="false"
     inkscape:zoom="4.6416668"
     inkscape:cx="27.782397"
     inkscape:cy="49.750162"
     inkscape:window-x="0"
     inkscape:window-y="25"
     inkscape:current-layer="layer6"
     inkscape:window-maximized="0"
     showguides="true"
     inkscape:guide-bbox="true"
     inkscape:snap-global="false"
     fit-margin-top="1"
     fit-margin-left="0"
     fit-margin-right="0"
     fit-margin-bottom="0">
    <sodipodi:guide
       orientation="0,1"
       position="593.76172,-263.6875"
       id="guide3377" />
  </sodipodi:namedview>
  <metadata
     id="metadata7">
    <rdf:RDF>
      <cc:Work
         rdf:about="">
        <dc:format>image/svg+xml</dc:format>
        <dc:type
           rdf:resource="http://purl.org/dc/dcmitype/StillImage" />
        <dc:title></dc:title>
      </cc:Work>
    </rdf:RDF>
  </metadata>
  <defs
     id="defs5" />
  <g
     inkscape:groupmode="layer"
     id="layer6"
     inkscape:label="main"
     style="display:inline"
     transform="translate(-30.21875,-25.3125)">
    <g
       id="g4542"
       transform="translate(0.16574703,-0.3615565)">
      <path
         sodipodi:nodetypes="cccccc"
         inkscape:connector-curvature="0"
         id="path3144"
         d="M 79.259775,72.990284 C 79.27692,72.639608 74.625058,43.763781 74.625058,43.763781 L 86.573391,27.651023 98.575828,44.583234 88.015254,74.328543 z"
         style="color:#000000;fill:#a6c2df;fill-opacity:0.51263535;fill-rule:evenodd;stroke:none;stroke-width:2;marker:none;visibility:visible;display:inline;overflow:visible;enable-background:accumulate" />
      <path
         inkscape:connector-curvature="0"
         id="path3808"
         d="M 75.210315,43.505604 86.321533,28.69022 89.242318,48.893674 z"
         style="color:#000000;fill:#ffffff;fill-opacity:0.27797834;fill-rule:evenodd;stroke:none;stroke-width:2;marker:none;visibility:visible;display:inline;overflow:visible;enable-background:accumulate"
         sodipodi:nodetypes="cccc" />
      <path
         sodipodi:nodetypes="cccccccccccccc"
         inkscape:connector-curvature="0"
         id="path3765"
         d="m 78.411737,65.171574 -3.575933,-21.134392 10.311435,3.729868 -5.527531,-1.119713 5.350467,20.745861 4.168169,-17.337419 -5.233437,23.283415 -4.368675,-0.641636 -0.602824,-3.845003 2.07306,3.897056 2.511263,0.324722 1.205229,-4.40703 -7.72042,-15.274334 z"
         style="color:#000000;fill:#ffffff;fill-opacity:0.71480144;fill-rule:evenodd;stroke:none;stroke-width:2;marker:none;visibility:visible;display:inline;overflow:visible;enable-background:accumulate" />
      <path
         sodipodi:nodetypes="cccccccccc"
         style="color:#000000;fill:#ffffff;fill-opacity:0.71480144;fill-rule:evenodd;stroke:none;stroke-width:2;marker:none;visibility:visible;display:inline;overflow:visible;enable-background:accumulate"
         d="m 74.844637,43.795301 11.374945,-7.369165 -0.616918,-4.894657 -3.304278,2.805196 3.790489,-4.718114 3.276374,19.45688 -2.831275,-9.037197 -8.63828,3.256276 6.628051,3.856233 z"
         id="path3842"
         inkscape:connector-curvature="0" />
      <path
         sodipodi:nodetypes="cccc"
         style="color:#000000;fill:#98b8da;fill-opacity:0.18411554;fill-rule:evenodd;stroke:none;stroke-width:2;marker:none;visibility:visible;display:inline;overflow:visible;enable-background:accumulate"
         d="M 90.555788,49.235995 87.556377,29.592368 98.233424,44.786337 z"
         id="path3806"
         inkscape:connector-curvature="0" />
      <path
         sodipodi:nodetypes="ccccc"
         inkscape:connector-curvature="0"
         id="path3827"
         d="m 84.55449,73.383268 3.445315,0.452451 9.884218,-28.583282 -7.834107,4.75788 z"
         style="color:#000000;fill:#6696c8;fill-opacity:0.19494587;fill-rule:evenodd;stroke:none;stroke-width:2;marker:none;visibility:visible;display:inline;overflow:visible;enable-background:accumulate" />
      <path
         style="color:#000000;fill:#ffffff;fill-opacity:0.71480144;fill-rule:evenodd;stroke:none;stroke-width:2;marker:none;visibility:visible;display:inline;overflow:visible;enable-background:accumulate"
         d="m 90.558019,66.519709 -2.343012,-6.803651 -2.214769,7.751795 3.951452,-17.312887 -0.333113,3.377426 2.779508,6.516162 4.167023,-11.422771 -2.882456,-0.612904 4.154901,-2.544425 z"
         id="path3850"
         inkscape:connector-curvature="0"
         sodipodi:nodetypes="cccccccccc" />
      <path
         inkscape:connector-curvature="0"
         id="path3865"
         d="m 90.681689,48.553514 4.68034,-4.637797 -5.1804,-8.595408 -1.6676,1.768353 -1.403742,-8.1628 10.66204,15.50081 z"
         style="color:#000000;fill:#ffffff;fill-opacity:0.71480144;fill-rule:evenodd;stroke:none;stroke-width:2;marker:none;visibility:visible;display:inline;overflow:visible;enable-background:accumulate"
         sodipodi:nodetypes="ccccccc" />
      <path
         sodipodi:nodetypes="cccccccccccc"
         inkscape:connector-curvature="0"
         d="m 74.698793,43.78836 15.244802,5.719681 8.535578,-4.911291 M 86.56048,27.756241 89.858604,49.429753 84.094714,73.800182 M 79.259775,72.990284 C 79.27692,72.639608 74.625058,43.763781 74.625058,43.763781 L 86.573391,27.651023 98.575828,44.583234 88.146852,74.306153 z"
         style="color:#000000;fill:none;stroke:#a5c3e0;stroke-width:2;stroke-linecap:round;stroke-linejoin:miter;stroke-miterlimit:4;stroke-opacity:1;stroke-dasharray:none;stroke-dashoffset:0;marker:none;visibility:visible;display:inline;overflow:visible;enable-background:accumulate"
         id="path3762" />
      <path
         style="color:#000000;fill:#a6c2df;fill-opacity:0.51263535;fill-rule:evenodd;stroke:none;stroke-width:2;marker:none;visibility:visible;display:inline;overflow:visible;enable-background:accumulate"
         d="m 91.489171,69.725153 c 0.275525,0.07545 24.032339,1.472035 24.032339,1.472035 L 126.21332,83.529093 110.6474,90.077199 88.882328,76.443805 z"
         id="path4252"
         inkscape:connector-curvature="0"
         sodipodi:nodetypes="cccccc" />
      <path
         sodipodi:nodetypes="ccccc"
         style="color:#000000;fill:#ffffff;fill-opacity:0.27797834;fill-rule:evenodd;stroke:none;stroke-width:2;marker:none;visibility:visible;display:inline;overflow:visible;enable-background:accumulate"
         d="m 103.33052,70.819695 12.21503,0.691319 9.88672,11.634784 -16.56296,-1.242419 z"
         id="path4254"
         inkscape:connector-curvature="0" />
      <path
         sodipodi:nodetypes="cccccccccc"
         inkscape:connector-curvature="0"
         id="path4256"
         d="m 114.56779,71.72722 -6.88223,10.63865 -7.08052,-3.763189 4.22646,0.185488 -5.491907,-7.215773 -6.608265,-1.281587 16.136312,1.616704 -6.66358,-0.128983 6.58846,6.395897 z"
         style="color:#000000;fill:#ffffff;fill-opacity:0.71480144;fill-rule:evenodd;stroke:none;stroke-width:2;marker:none;visibility:visible;display:inline;overflow:visible;enable-background:accumulate" />
      <path
         inkscape:connector-curvature="0"
         id="path4258"
         d="m 115.45776,71.366046 10.15286,11.939663 -16.90737,-1.336735 10.84829,0.227994 -3.56404,-9.517097 -4.90174,5.782793 z"
         style="color:#000000;fill:#ffffff;fill-opacity:0.71480144;fill-rule:evenodd;stroke:none;stroke-width:2;marker:none;visibility:visible;display:inline;overflow:visible;enable-background:accumulate"
         sodipodi:nodetypes="ccccccc" />
      <path
         inkscape:connector-curvature="0"
         id="path4264"
         d="m 108.59237,83.092132 14.73179,1.296691 -12.55113,5.263224 z"
         style="color:#000000;fill:#5388c1;fill-opacity:0.18411554;fill-rule:evenodd;stroke:none;stroke-width:2;marker:none;visibility:visible;display:inline;overflow:visible;enable-background:accumulate"
         sodipodi:nodetypes="cccc" />
      <path
         style="color:#000000;fill:#6696c8;fill-opacity:0.19494587;fill-rule:evenodd;stroke:none;stroke-width:2;marker:none;visibility:visible;display:inline;overflow:visible;enable-background:accumulate"
         d="m 90.243407,73.86154 -0.966897,2.656893 20.96132,12.891254 -2.39789,-7.061715 z"
         id="path4266"
         inkscape:connector-curvature="0"
         sodipodi:nodetypes="ccccc" />
      <path
         sodipodi:nodetypes="cccccccccc"
         inkscape:connector-curvature="0"
         id="path4268"
         d="m 94.636654,79.840488 5.817396,-0.661416 -5.766855,-3.126092 13.055165,6.191463 -2.62401,-0.860134 -5.666003,1.058824 8.338533,5.324099 0.9951,-2.18151 1.28845,3.748963 z"
         style="color:#000000;fill:#ffffff;fill-opacity:0.71480144;fill-rule:evenodd;stroke:none;stroke-width:2;marker:none;visibility:visible;display:inline;overflow:visible;enable-background:accumulate" />
      <path
         sodipodi:nodetypes="ccccccc"
         style="color:#000000;fill:#ffffff;fill-opacity:0.71480144;fill-rule:evenodd;stroke:none;stroke-width:2;marker:none;visibility:visible;display:inline;overflow:visible;enable-background:accumulate"
         d="m 110.67568,88.933642 -1.43029,-5.843508 13.88265,1.129224 -5.87068,2.295297 2.85956,-1.831768 -9.6605,-0.62435 z"
         id="path4270"
         inkscape:connector-curvature="0" />
      <path
         id="path4260"
         style="color:#000000;fill:none;stroke:#a5c3e0;stroke-width:1.99999988;stroke-linecap:round;stroke-linejoin:miter;stroke-miterlimit:4;stroke-opacity:1;stroke-dasharray:none;stroke-dashoffset:0;marker:none;visibility:visible;display:inline;overflow:visible;enable-background:accumulate"
         d="m 115.48899,71.251424 -7.23134,11.100661 2.39606,7.645955 m 15.47831,-6.497756 -17.7972,-1.201905 -18.341503,-8.87556 m 1.495854,-3.697666 c 0.275525,0.07545 24.032339,1.472035 24.032339,1.472035 L 126.21332,83.529093 110.6474,90.077199 88.876908,76.552283 z"
         inkscape:connector-curvature="0"
         sodipodi:nodetypes="cccccccccccc" />
      <path
         sodipodi:nodetypes="cccccc"
         inkscape:connector-curvature="0"
         id="path4274"
         d="m 87.959931,66.472916 c 0.115145,0.388881 16.207649,30.09646 16.207649,30.09646 l -6.877599,22.127714 -19.548403,-13.8802 0.161599,-36.461481 z"
         style="color:#000000;fill:#a6c2df;fill-opacity:0.51263535;fill-rule:evenodd;stroke:none;stroke-width:2;marker:none;visibility:visible;display:inline;overflow:visible;enable-background:accumulate" />
      <path
         sodipodi:nodetypes="cccccccccc"
         inkscape:connector-curvature="0"
         id="path4278"
         d="m 83.249805,71.284156 1.345327,21.774876 18.769368,2.501445 -13.72829,-3.537484 0.887735,-17.752945 8.25784,14.13069 -11.708081,-22.070129 1.041218,3.808034 -2.798184,13.875118 z"
         style="color:#000000;fill:#ffffff;fill-opacity:0.71480144;fill-rule:evenodd;stroke:none;stroke-width:2;marker:none;visibility:visible;display:inline;overflow:visible;enable-background:accumulate" />
      <path
         inkscape:connector-curvature="0"
         id="path4276"
         d="M 103.62802,97.07423 97.167963,117.46794 85.874293,93.81746 z"
         style="color:#000000;fill:#ffffff;fill-opacity:0.27797834;fill-rule:evenodd;stroke:none;stroke-width:2;marker:none;visibility:visible;display:inline;overflow:visible;enable-background:accumulate"
         sodipodi:nodetypes="cccc" />
      <path
         sodipodi:nodetypes="ccccccc"
         style="color:#000000;fill:#ffffff;fill-opacity:0.71480144;fill-rule:evenodd;stroke:none;stroke-width:2;marker:none;visibility:visible;display:inline;overflow:visible;enable-background:accumulate"
         d="M 103.91615,96.618814 97.108491,117.80278 86.069291,96.403816 93.912105,109.66284 102.72743,98.241092 92.082497,96.654493 z"
         id="path4280"
         inkscape:connector-curvature="0" />
      <path
         sodipodi:nodetypes="cccc"
         style="color:#000000;fill:#3f6083;fill-opacity:0.18411554;fill-rule:evenodd;stroke:none;stroke-width:2;marker:none;visibility:visible;display:inline;overflow:visible;enable-background:accumulate"
         d="M 84.870304,93.748995 96.984136,118.70728 77.982268,105.1931 z"
         id="path4286"
         inkscape:connector-curvature="0" />
      <path
         sodipodi:nodetypes="ccccc"
         inkscape:connector-curvature="0"
         id="path4288"
         d="m 82.037179,68.06521 -3.929069,0.821623 0.132329,34.936407 6.725566,-8.177401 z"
         style="color:#000000;fill:#6696c8;fill-opacity:0.19494587;fill-rule:evenodd;stroke:none;stroke-width:2;marker:none;visibility:visible;display:inline;overflow:visible;enable-background:accumulate" />
      <path
         style="color:#000000;fill:#ffffff;fill-opacity:0.71480144;fill-rule:evenodd;stroke:none;stroke-width:2;marker:none;visibility:visible;display:inline;overflow:visible;enable-background:accumulate"
         d="m 78.22537,77.611246 4.084842,6.752228 0.408338,-9.296975 1.385311,19.660531 -0.925827,-3.314401 -4.184433,-5.700919 -0.602621,13.930232 3.376628,-0.431863 -3.558947,4.359901 z"
         id="path4290"
         inkscape:connector-curvature="0"
         sodipodi:nodetypes="cccccccccc" />
      <path
         inkscape:connector-curvature="0"
         id="path4292"
         d="m 84.757019,94.733192 -3.71854,9.356958 11.997221,10.01571 -1.201919,-4.65036 4.384278,8.05655 -17.54068,-12.83112 z"
         style="color:#000000;fill:#ffffff;fill-opacity:0.71480144;fill-rule:evenodd;stroke:none;stroke-width:2;marker:none;visibility:visible;display:inline;overflow:visible;enable-background:accumulate"
         sodipodi:nodetypes="ccccccc" />
      <path
         sodipodi:nodetypes="cccccccccccc"
         inkscape:connector-curvature="0"
         d="m 104.07781,96.570719 -19.288928,-3.757149 -6.94708,11.9517 M 97.2639,118.57744 84.642126,92.866487 82.379349,67.435178 m 5.580582,-0.962262 c 0.115145,0.388881 16.207649,30.09646 16.207649,30.09646 l -6.877599,22.127714 -19.548403,-13.8802 0.02666,-36.386844 z"
         style="color:#000000;fill:none;stroke:#a5c3e0;stroke-width:2;stroke-linecap:round;stroke-linejoin:miter;stroke-miterlimit:4;stroke-opacity:1;stroke-dasharray:none;stroke-dashoffset:0;marker:none;visibility:visible;display:inline;overflow:visible;enable-background:accumulate"
         id="path4282" />
      <path
         style="color:#000000;fill:#a6c2df;fill-opacity:0.51263535;fill-rule:evenodd;stroke:none;stroke-width:2;marker:none;visibility:visible;display:inline;overflow:visible;enable-background:accumulate"
         d="M 80.801805,75.271306 C 80.626157,75.429268 69.035664,91.333102 69.035664,91.333102 l -13.358588,1.92636 0.463076,-14.348855 21.152567,-8.456047 z"
         id="path4296"
         inkscape:connector-curvature="0"
         sodipodi:nodetypes="cccccc" />
      <path
         sodipodi:nodetypes="cccc"
         style="color:#000000;fill:#ffffff;fill-opacity:0.27797834;fill-rule:evenodd;stroke:none;stroke-width:2;marker:none;visibility:visible;display:inline;overflow:visible;enable-background:accumulate"
         d="M 56.658266,79.243366 56.292853,92.887402 64.293978,81.995733 z"
         id="path4298"
         inkscape:connector-curvature="0" />
      <path
         style="color:#000000;fill:#ffffff;fill-opacity:0.71480144;fill-rule:evenodd;stroke:none;stroke-width:2;marker:none;visibility:visible;display:inline;overflow:visible;enable-background:accumulate"
         d="m 77.468453,79.380984 -8.402033,11.721901 -3.103787,-6.693218 2.676528,2.524822 6.592755,-10.634766 -8.989721,5.091968 12.525399,-8.504775 1.763383,2.391017 -1.551215,2.109767 0.879475,-2.836792 -1.034726,-1.353537 -1.571915,2.388264 -4.743338,10.049327 z"
         id="path4300"
         inkscape:connector-curvature="0"
         sodipodi:nodetypes="cccccccccccccc" />
      <path
         inkscape:connector-curvature="0"
         id="path4302"
         d="M 68.946683,91.21327 56.101881,92.940006 64.58916,81.774714 59.581554,89.22017 67.795846,90.994564 65.96363,84.999528 z"
         style="color:#000000;fill:#ffffff;fill-opacity:0.71480144;fill-rule:evenodd;stroke:none;stroke-width:2;marker:none;visibility:visible;display:inline;overflow:visible;enable-background:accumulate"
         sodipodi:nodetypes="ccccccc" />
      <path
         inkscape:connector-curvature="0"
         id="path4308"
         d="M 68.631573,90.958967 56.060296,92.2541 64.77241,81.782531 z"
         style="color:#000000;fill:#98b8da;fill-opacity:0.18411554;fill-rule:evenodd;stroke:none;stroke-width:2;marker:none;visibility:visible;display:inline;overflow:visible;enable-background:accumulate"
         sodipodi:nodetypes="cccc" />
      <path
         style="color:#000000;fill:#6696c8;fill-opacity:0.19494587;fill-rule:evenodd;stroke:none;stroke-width:2;marker:none;visibility:visible;display:inline;overflow:visible;enable-background:accumulate"
         d="m 78.480873,72.555715 -1.416266,-1.860272 -20.189985,7.983505 4.082169,6.967921 3.754578,-4.642184 z"
         id="path4310"
         inkscape:connector-curvature="0"
         sodipodi:nodetypes="cccccc" />
      <path
         sodipodi:nodetypes="cccccccccc"
         inkscape:connector-curvature="0"
         id="path4312"
         d="m 72.357501,72.939702 -2.140109,4.342917 4.752562,-2.614808 -10.627683,5.695873 3.063936,-2.033569 0.09937,-2.745567 -6.542564,2.963696 2.338637,1.667406 -5.607839,-1.694936 z"
         style="color:#000000;fill:#ffffff;fill-opacity:0.71480144;fill-rule:evenodd;stroke:none;stroke-width:2;marker:none;visibility:visible;display:inline;overflow:visible;enable-background:accumulate" />
      <path
         sodipodi:nodetypes="ccccccc"
         style="color:#000000;fill:#ffffff;fill-opacity:0.71480144;fill-rule:evenodd;stroke:none;stroke-width:2;marker:none;visibility:visible;display:inline;overflow:visible;enable-background:accumulate"
         d="m 63.716087,81.393116 -4.764683,-0.424217 0.543852,4.62626 1.859646,-1.208487 -3.061076,4.457519 -1.012933,-8.990815 z"
         id="path4314"
         inkscape:connector-curvature="0" />
      <path
         id="path4304"
         style="color:#000000;fill:none;stroke:#a5c3e0;stroke-width:2;stroke-linecap:round;stroke-linejoin:miter;stroke-miterlimit:4;stroke-opacity:1;stroke-dasharray:none;stroke-dashoffset:0;marker:none;visibility:visible;display:inline;overflow:visible;enable-background:accumulate"
         d="m 69.012469,91.286231 -4.490672,-9.992773 -6.390433,-1.750621 m -2.397906,13.67294 8.791209,-11.844624 14.373219,-8.79333 m 1.903919,2.693483 C 80.626157,75.429268 69.035664,91.333102 69.035664,91.333102 l -13.358588,1.92636 1.055536,-14.860524 20.487059,-7.996637 z"
         inkscape:connector-curvature="0"
         sodipodi:nodetypes="cccccccccccc" />
      <path
         sodipodi:nodetypes="cccccc"
         inkscape:connector-curvature="0"
         id="path4318"
         d="M 82.721345,74.78197 C 82.318005,74.671247 47.535863,72.604939 47.535863,72.604939 L 31.892686,54.539571 54.689361,44.966293 86.544222,64.947255 z"
         style="color:#000000;fill:#a6c2df;fill-opacity:0.51263535;fill-rule:evenodd;stroke:none;stroke-width:2;marker:none;visibility:visible;display:inline;overflow:visible;enable-background:accumulate" />
      <path
         inkscape:connector-curvature="0"
         id="path4320"
         d="M 49.591049,55.367968 33.949931,53.882765 54.162392,45.510132 z"
         style="color:#000000;fill:#ffffff;fill-opacity:0.27797834;fill-rule:evenodd;stroke:none;stroke-width:2;marker:none;visibility:visible;display:inline;overflow:visible;enable-background:accumulate"
         sodipodi:nodetypes="cccc" />
      <path
         sodipodi:nodetypes="ccccc"
         inkscape:connector-curvature="0"
         id="path4332"
         d="M 82.49249,74.820389 84.367591,69.71248 58.259044,57.369421 48.205332,72.357301 z"
         style="color:#000000;fill:#6696c8;fill-opacity:0.19494587;fill-rule:evenodd;stroke:none;stroke-width:2;marker:none;visibility:visible;display:inline;overflow:visible;enable-background:accumulate" />
      <path
         sodipodi:nodetypes="cccccccccccccc"
         inkscape:connector-curvature="0"
         id="path4322"
         d="m 73.140627,73.151454 -25.232283,-0.720798 2.428648,-15.926129 -0.147785,12.87022 22.546897,-2.897498 -16.226883,-7.665714 27.820425,10.659243 -1.877122,4.913935 -4.950329,-0.779188 4.475868,-1.509438 1.404758,-1.974358 -4.974208,-1.465217 -17.875168,3.138105 z"
         style="color:#000000;fill:#ffffff;fill-opacity:0.71480144;fill-rule:evenodd;stroke:none;stroke-width:2;marker:none;visibility:visible;display:inline;overflow:visible;enable-background:accumulate" />
      <path
         sodipodi:nodetypes="cccc"
         style="color:#000000;fill:#98b8da;fill-opacity:0.18411554;fill-rule:evenodd;stroke:none;stroke-width:2;marker:none;visibility:visible;display:inline;overflow:visible;enable-background:accumulate"
         d="M 47.702588,71.742708 33.300283,55.596621 57.769521,56.711903 z"
         id="path4330"
         inkscape:connector-curvature="0" />
      <path
         sodipodi:nodetypes="ccccccc"
         style="color:#000000;fill:#ffffff;fill-opacity:0.71480144;fill-rule:evenodd;stroke:none;stroke-width:2;marker:none;visibility:visible;display:inline;overflow:visible;enable-background:accumulate"
         d="m 47.629362,72.357764 -14.854449,-17.490581 16.997784,1.433881 -12.920952,0.46426 9.518453,11.567791 1.742227,-9.001003 z"
         id="path4324"
         inkscape:connector-curvature="0" />
      <path
         style="color:#000000;fill:#ffffff;fill-opacity:0.71480144;fill-rule:evenodd;stroke:none;stroke-width:2;marker:none;visibility:visible;display:inline;overflow:visible;enable-background:accumulate"
         d="m 74.890536,58.191432 -9.756885,1.771041 8.440677,4.582271 -21.425018,-8.753857 6.965026,1.315597 11.420686,-0.521802 -11.665398,-8.233678 -6.683361,2.762265 2.479572,-5.32861 z"
         id="path4334"
         inkscape:connector-curvature="0"
         sodipodi:nodetypes="cccccccccc" />
      <path
         inkscape:connector-curvature="0"
         id="path4336"
         d="m 49.183435,54.4197 1.677981,-5.836363 -9.919214,3.743646 5.353855,2.418885 L 33.514111,54.245292 54.299288,45.8601 z"
         style="color:#000000;fill:#ffffff;fill-opacity:0.71480144;fill-rule:evenodd;stroke:none;stroke-width:2;marker:none;visibility:visible;display:inline;overflow:visible;enable-background:accumulate"
         sodipodi:nodetypes="ccccccc" />
      <path
         sodipodi:nodetypes="cccccccccccc"
         inkscape:connector-curvature="0"
         d="m 47.583534,72.52556 2.141753,-17.431341 4.954768,-10.012032 m -22.66836,9.499637 17.654413,0.644817 35.24873,14.142767 M 82.721345,74.78197 C 82.318005,74.671247 47.535863,72.604939 47.535863,72.604939 L 31.892686,54.539571 54.689361,44.966293 86.552256,64.788432 z"
         style="color:#000000;fill:none;stroke:#a5c3e0;stroke-width:2;stroke-linecap:round;stroke-linejoin:miter;stroke-miterlimit:4;stroke-opacity:1;stroke-dasharray:none;stroke-dashoffset:0;marker:none;visibility:visible;display:inline;overflow:visible;enable-background:accumulate"
         id="path4326" />
      <path
         sodipodi:nodetypes="cccccc"
         inkscape:connector-curvature="0"
         id="path4396"
         d="M 90.325434,66.950754 C 90.487391,66.87533 102.38586,57.93455 102.38586,57.93455 l 10.08767,1.559528 -4.77806,9.418635 -15.896722,2.297503 z"
         style="color:#000000;fill:#a6c2df;fill-opacity:0.51263535;fill-rule:evenodd;stroke:none;stroke-width:2;marker:none;visibility:visible;display:inline;overflow:visible;enable-background:accumulate" />
      <path
         inkscape:connector-curvature="0"
         id="path4398"
         d="m 97.766012,62.630851 5.068468,-3.898053 0.31385,6.835487 -10.003696,3.515434 z"
         style="color:#000000;fill:#ffffff;fill-opacity:0.27797834;fill-rule:evenodd;stroke:none;stroke-width:2;marker:none;visibility:visible;display:inline;overflow:visible;enable-background:accumulate"
         sodipodi:nodetypes="ccccc" />
      <path
         sodipodi:nodetypes="cccccccccccccc"
         inkscape:connector-curvature="0"
         id="path4400"
         d="m 93.644758,64.715158 8.667962,-6.620897 0.7654,5.527069 -0.80639,-2.754257 -8.072299,7.327766 8.794449,-2.233864 -11.724213,3.163982 -0.746886,-2.119131 1.588293,-1.183048 -1.263147,1.857365 0.449198,1.207691 2.270025,-0.502223 5.046834,-7.097577 z"
         style="color:#000000;fill:#ffffff;fill-opacity:0.71480144;fill-rule:evenodd;stroke:none;stroke-width:2;marker:none;visibility:visible;display:inline;overflow:visible;enable-background:accumulate" />
      <path
         sodipodi:nodetypes="ccccccc"
         style="color:#000000;fill:#ffffff;fill-opacity:0.71480144;fill-rule:evenodd;stroke:none;stroke-width:2;marker:none;visibility:visible;display:inline;overflow:visible;enable-background:accumulate"
         d="m 102.42373,58.040889 7.40981,2.102012 -6.34446,5.687806 3.35557,-4.305113 -3.23295,-1.941079 -0.40392,3.609966 z"
         id="path4402"
         inkscape:connector-curvature="0" />
      <path
         sodipodi:nodetypes="cccc"
         style="color:#000000;fill:#98b8da;fill-opacity:0.18411554;fill-rule:evenodd;stroke:none;stroke-width:2;marker:none;visibility:visible;display:inline;overflow:visible;enable-background:accumulate"
         d="m 103.84069,66.144384 8.13344,-6.007866 -4.30966,8.409748 z"
         id="path4408"
         inkscape:connector-curvature="0" />
      <path
         sodipodi:nodetypes="ccccc"
         inkscape:connector-curvature="0"
         id="path4410"
         d="m 91.403835,69.427882 0.613145,1.658532 15.21316,-2.326523 -3.99966,-2.399258 z"
         style="color:#000000;fill:#6696c8;fill-opacity:0.19494587;fill-rule:evenodd;stroke:none;stroke-width:2;marker:none;visibility:visible;display:inline;overflow:visible;enable-background:accumulate" />
      <path
         style="color:#000000;fill:#ffffff;fill-opacity:0.71480144;fill-rule:evenodd;stroke:none;stroke-width:2;marker:none;visibility:visible;display:inline;overflow:visible;enable-background:accumulate"
         d="m 95.917562,70.503677 2.507843,-2.668047 -4.015367,0.840696 8.732022,-2.325625 -1.59967,0.650781 -2.274911,2.796418 6.131091,-0.832055 -0.40745,-1.443146 2.13074,1.267485 z"
         id="path4412"
         inkscape:connector-curvature="0"
         sodipodi:nodetypes="cccccccccc" />
      <path
         inkscape:connector-curvature="0"
         id="path4414"
         d="m 104.03619,66.299691 3.35239,1.360017 3.48019,-5.89597 -1.16089,-0.03799 2.31894,-1.687676 -4.45136,8.475744 z"
         style="color:#000000;fill:#ffffff;fill-opacity:0.71480144;fill-rule:evenodd;stroke:none;stroke-width:2;marker:none;visibility:visible;display:inline;overflow:visible;enable-background:accumulate"
         sodipodi:nodetypes="ccccccc" />
      <path
         sodipodi:nodetypes="cccccccccccc"
         inkscape:connector-curvature="0"
         d="m 102.39227,57.973578 1.03915,8.220097 4.23505,2.678723 m 4.75662,-9.359187 -8.97657,6.623635 -12.339411,3.182869 M 90.325434,66.950754 C 90.487391,66.87533 102.38586,57.93455 102.38586,57.93455 l 10.08767,1.559528 -4.77806,9.418635 -15.85544,2.351446 z"
         style="color:#000000;fill:none;stroke:#a5c3e0;stroke-width:1.99999988;stroke-linecap:round;stroke-linejoin:miter;stroke-miterlimit:4;stroke-opacity:1;stroke-dasharray:none;stroke-dashoffset:0;marker:none;visibility:visible;display:inline;overflow:visible;enable-background:accumulate"
         id="path4404" />
      <path
         sodipodi:nodetypes="ccccc"
         inkscape:connector-curvature="0"
         id="rect4478"
         d="M 75.736071,56.883306 94.712734,62.664275 96.615786,81.38959 72.719914,77.493719 z"
         style="color:#000000;fill:#76869e;fill-opacity:1;fill-rule:evenodd;stroke:none;stroke-width:1px;marker:none;visibility:visible;display:inline;overflow:visible;enable-background:accumulate" />
      <path
         sodipodi:nodetypes="cccc"
         style="color:#000000;fill:#9ca8b9;fill-opacity:1;fill-rule:evenodd;stroke:none;stroke-width:2;marker:none;visibility:visible;display:inline;overflow:visible;enable-background:accumulate"
         d="M 85.923896,72.506103 73.329558,76.885951 76.251544,58.382776 z"
         id="path4512"
         inkscape:connector-curvature="0" />
      <path
         inkscape:connector-curvature="0"
         id="path4514"
         d="m 85.797131,72.672954 8.636624,7.545841 -19.22608,-2.396146 z"
         style="color:#000000;fill:#7389a6;fill-opacity:1;fill-rule:evenodd;stroke:none;stroke-width:2;marker:none;visibility:visible;display:inline;overflow:visible;enable-background:accumulate"
         sodipodi:nodetypes="cccc" />
      <path
         sodipodi:nodetypes="cccc"
         style="color:#000000;fill:#5b718f;fill-opacity:1;fill-rule:evenodd;stroke:none;stroke-width:2;marker:none;visibility:visible;display:inline;overflow:visible;enable-background:accumulate"
         d="m 86.374622,72.377497 8.134316,-8.691901 1.053447,16.802349 z"
         id="path4516"
         inkscape:connector-curvature="0" />
      <path
         sodipodi:nodetypes="ccccccc"
         style="color:#000000;fill:#ffffff;fill-opacity:0.71480144;fill-rule:evenodd;stroke:none;stroke-width:2;marker:none;visibility:visible;display:inline;overflow:visible;enable-background:accumulate"
         d="m 74.721867,76.820259 6.749797,-4.815496 -4.3423,-9.674527 -2.745327,7.830794 1.094585,-12.700726 9.91877,14.847026 z"
         id="path4519"
         inkscape:connector-curvature="0" />
      <path
         inkscape:connector-curvature="0"
         id="path4521"
         d="m 87.24211,61.251495 -7.877593,-1.661421 6.95278,8.531596 6.743839,-5.101068 -6.452384,9.683747 -10.111589,-15.416363 z"
         style="color:#000000;fill:#ffffff;fill-opacity:0.71480144;fill-rule:evenodd;stroke:none;stroke-width:2;marker:none;visibility:visible;display:inline;overflow:visible;enable-background:accumulate"
         sodipodi:nodetypes="ccccccc" />
      <path
         sodipodi:nodetypes="ccccc"
         style="color:#000000;fill:#ffffff;fill-opacity:0.71480144;fill-rule:evenodd;stroke:none;stroke-width:2;marker:none;visibility:visible;display:inline;overflow:visible;enable-background:accumulate"
         d="m 84.654589,72.977632 9.779166,7.241163 -13.208691,-1.634451 7.700423,-0.634147 z"
         id="path4523"
         inkscape:connector-curvature="0" />
      <path
         sodipodi:nodetypes="ccccccccccc"
         inkscape:connector-curvature="0"
         d="m 76.157989,57.421906 9.587073,15.296229 9.748653,7.917415 M 73.572711,77.242372 85.960502,72.394975 93.931777,62.915622 M 75.736071,56.883306 94.712734,62.664275 96.292626,81.06643 72.719914,77.493719 z"
         style="color:#000000;fill:none;stroke:#a5c3e0;stroke-width:2;stroke-linecap:round;stroke-linejoin:miter;stroke-miterlimit:4;stroke-opacity:1;stroke-dasharray:none;stroke-dashoffset:0;marker:none;visibility:visible;display:inline;overflow:visible;enable-background:accumulate"
         id="path4509" />
    </g>
  </g>
</svg>
