<?xml version="1.0" encoding="UTF-8" standalone="no"?>
<!-- Created with Inkscape (http://www.inkscape.org/) -->

<svg
   xmlns:dc="http://purl.org/dc/elements/1.1/"
   xmlns:cc="http://creativecommons.org/ns#"
   xmlns:rdf="http://www.w3.org/1999/02/22-rdf-syntax-ns#"
   xmlns:svg="http://www.w3.org/2000/svg"
   xmlns="http://www.w3.org/2000/svg"
   xmlns:sodipodi="http://sodipodi.sourceforge.net/DTD/sodipodi-0.dtd"
   xmlns:inkscape="http://www.inkscape.org/namespaces/inkscape"
   id="svg2"
   sodipodi:version="0.32"
   inkscape:version="0.48.1 r9760"
   width="84"
   height="132"
   version="1.0"
   sodipodi:docname="Crystal02.svg"
   inkscape:output_extension="org.inkscape.output.svg.inkscape"
   inkscape:export-filename="Crystal02.png"
   inkscape:export-xdpi="90"
   inkscape:export-ydpi="90">
  <metadata
     id="metadata7">
    <rdf:RDF>
      <cc:Work
         rdf:about="">
        <dc:format>image/svg+xml</dc:format>
        <dc:type
           rdf:resource="http://purl.org/dc/dcmitype/StillImage" />
        <dc:title></dc:title>
      </cc:Work>
    </rdf:RDF>
  </metadata>
  <defs
     id="defs5" />
  <sodipodi:namedview
     inkscape:window-height="824"
     inkscape:window-width="1434"
     inkscape:pageshadow="2"
     inkscape:pageopacity="0.0"
     guidetolerance="10.0"
     gridtolerance="10.0"
     objecttolerance="10.0"
     borderopacity="1.0"
     bordercolor="#666666"
     pagecolor="#ffffff"
     id="base"
     showgrid="false"
     inkscape:zoom="7.6"
     inkscape:cx="37.699473"
     inkscape:cy="21.181726"
     inkscape:window-x="0"
     inkscape:window-y="25"
     inkscape:current-layer="layer1"
     showguides="true"
     inkscape:guide-bbox="true"
     inkscape:window-maximized="0"
     inkscape:snap-global="false">
    <sodipodi:guide
       orientation="1,0"
       position="16,-3.1168523"
       id="guide2415" />
    <sodipodi:guide
       orientation="1,0"
       position="73,-8.4868421"
       id="guide2417" />
    <sodipodi:guide
       orientation="0,1"
       position="113.02632,3"
       id="guide3059" />
    <sodipodi:guide
       orientation="0,1"
       position="109.47368,8"
       id="guide3061" />
  </sodipodi:namedview>
  <g
     inkscape:groupmode="layer"
     id="layer1"
     inkscape:label="main"
     style="display:inline"
     transform="translate(0,-43)">
    <g
       id="layer3"
       inkscape:label="tmp"
       style="display:inline"
       transform="translate(-6.2794864,-14.44835)" />
    <g
       style="display:inline"
       id="g3969"
       transform="matrix(0.19698415,0.07609454,-0.04538697,0.17127454,56.305723,125.20883)">
      <path
         style="color:#000000;fill:#a6c2df;fill-opacity:0.51263535;fill-rule:evenodd;stroke:none;stroke-width:2;marker:none;visibility:visible;display:inline;overflow:visible;enable-background:accumulate"
         d="m 50.999997,264.5 c 0,-2 -34.499998,-164.999989 -34.499998,-164.999989 L 79.999996,4.5000128 152.99999,97.500011 114.49999,271 z"
         id="path3971"
         inkscape:connector-curvature="0"
         sodipodi:nodetypes="cccccc" />
      <path
         sodipodi:nodetypes="cccc"
         style="color:#000000;fill:#ffffff;fill-opacity:0.27797834;fill-rule:evenodd;stroke:none;stroke-width:2;marker:none;visibility:visible;display:inline;overflow:visible;enable-background:accumulate"
         d="M 19.758101,97.868268 78.85608,10.482759 101.09441,124.62132 z"
         id="path3973"
         inkscape:connector-curvature="0" />
      <path
         style="color:#000000;fill:#ffffff;fill-opacity:0.71480144;fill-rule:evenodd;stroke:none;stroke-width:2;marker:none;visibility:visible;display:inline;overflow:visible;enable-background:accumulate"
         d="m 43.999999,220.25 -26.224871,-119.25305 92.885202,26.27856 -69.805507,5.65917 41.793993,95.48948 22.733764,-84.55128 -21.678767,122.30187 -31.212294,-3.41717 -4.499441,-21.70912 12.879079,21.59631 20.556075,2.13071 2.133481,-12.01209 -49.081455,-76.44488 z"
         id="path3975"
         inkscape:connector-curvature="0"
         sodipodi:nodetypes="cccccccccccccc" />
      <path
         inkscape:connector-curvature="0"
         id="path3977"
         d="M 17.758101,99.618268 80.665954,25.85162 109.19596,122.73926 83.323607,51.946862 30.184737,95.570755 73.762449,116.01724 z"
         style="color:#000000;fill:#ffffff;fill-opacity:0.71480144;fill-rule:evenodd;stroke:none;stroke-width:2;marker:none;visibility:visible;display:inline;overflow:visible;enable-background:accumulate"
         sodipodi:nodetypes="ccccccc" />
      <path
         id="path3981"
         style="color:#000000;fill:none;stroke:#a5c3e0;stroke-width:10.37062359;stroke-linecap:round;stroke-linejoin:miter;stroke-miterlimit:4;stroke-opacity:0.09025269;stroke-dasharray:none;stroke-dashoffset:0;marker:none;visibility:visible;display:inline;overflow:visible;enable-background:accumulate"
         d="m 17,99.000004 47.75,-18.749999 87,16.499999 M 79.5,4.5000067 65,81.000005 71,266.5"
         inkscape:connector-curvature="0" />
      <path
         inkscape:connector-curvature="0"
         id="path3983"
         d="M 106.68934,123.53553 84.159381,12.604079 149.13478,96.082738 z"
         style="color:#000000;fill:#98b8da;fill-opacity:0.18411554;fill-rule:evenodd;stroke:none;stroke-width:2;marker:none;visibility:visible;display:inline;overflow:visible;enable-background:accumulate"
         sodipodi:nodetypes="cccc" />
      <path
         style="color:#000000;fill:#6696c8;fill-opacity:0.19494587;fill-rule:evenodd;stroke:none;stroke-width:2;marker:none;visibility:visible;display:inline;overflow:visible;enable-background:accumulate"
         d="M 87.499998,265.5 111.5,268.25 149.25,101.5 106,130.75 z"
         id="path3985"
         inkscape:connector-curvature="0"
         sodipodi:nodetypes="ccccc" />
      <path
         sodipodi:nodetypes="cccccccccc"
         inkscape:connector-curvature="0"
         id="path3987"
         d="m 122.68414,225.50305 -14.9757,-30.71422 -14.224048,31.04354 25.517658,-97.70493 -8.41578,54.14953 17.0148,6.65002 16.63141,-68.18739 -18.11903,-2.36489 22.93224,-15.63272 z"
         style="color:#000000;fill:#ffffff;fill-opacity:0.71480144;fill-rule:evenodd;stroke:none;stroke-width:2;marker:none;visibility:visible;display:inline;overflow:visible;enable-background:accumulate" />
      <path
         sodipodi:nodetypes="ccccccccc"
         style="color:#000000;fill:#ffffff;fill-opacity:0.71480144;fill-rule:evenodd;stroke:none;stroke-width:2;marker:none;visibility:visible;display:inline;overflow:visible;enable-background:accumulate"
         d="M 115.58522,121.34522 135.59857,98.144776 109.95736,84.325661 117.43646,117.39654 106.76983,80.833268 84.896154,9.857084 106.056,62.667086 151.51042,97.073739 z"
         id="path3989"
         inkscape:connector-curvature="0" />
      <path
         id="path3979"
         style="color:#000000;fill:none;stroke:#a5c3e0;stroke-width:10.37062359;stroke-linecap:round;stroke-linejoin:miter;stroke-miterlimit:4;stroke-opacity:1;stroke-dasharray:none;stroke-dashoffset:0;marker:none;visibility:visible;display:inline;overflow:visible;enable-background:accumulate"
         d="M 16.926368,99.619347 115.33363,123.82829 152.45381,97.603801 M 79.955804,5.1022591 114.52531,123.5411 84.999998,268 m -34.000001,-3.5 c 0,-2 -34.499998,-164.999989 -34.499998,-164.999989 L 79.999996,4.5000128 152.99999,97.500011 114.49999,271 z"
         inkscape:connector-curvature="0"
         sodipodi:nodetypes="cccccccccccc" />
    </g>
    <g
       id="g3048"
       transform="matrix(0.10024758,-0.08722347,0.07408418,0.08247954,4.5769237,161.85289)"
       style="display:inline">
      <path
         style="color:#000000;fill:#a6c2df;fill-opacity:0.51263535;fill-rule:evenodd;stroke:none;stroke-width:2;marker:none;visibility:visible;display:inline;overflow:visible;enable-background:accumulate"
         d="m 50.999997,264.5 c 0,-2 -34.499998,-164.999989 -34.499998,-164.999989 L 79.999996,4.5000128 152.99999,97.500011 114.49999,271 z"
         id="path3050"
         inkscape:connector-curvature="0"
         sodipodi:nodetypes="cccccc" />
      <path
         sodipodi:nodetypes="cccc"
         style="color:#000000;fill:#ffffff;fill-opacity:0.27797834;fill-rule:evenodd;stroke:none;stroke-width:2;marker:none;visibility:visible;display:inline;overflow:visible;enable-background:accumulate"
         d="M 19.758101,97.868268 78.85608,10.482759 101.09441,124.62132 z"
         id="path3052"
         inkscape:connector-curvature="0" />
      <path
         style="color:#000000;fill:#ffffff;fill-opacity:0.71480144;fill-rule:evenodd;stroke:none;stroke-width:2;marker:none;visibility:visible;display:inline;overflow:visible;enable-background:accumulate"
         d="M 43.999999,220.25 17.775128,100.99695 77.48136,119.35033 45.720045,114.51713 85.59877,232.00255 103.69021,128.32807 83.703813,266.17475 l -31.212294,-3.41717 -4.499441,-21.70912 12.879079,21.59631 20.556075,2.13071 3.119382,-25.45492 -51.840955,-85.69497 z"
         id="path3054"
         inkscape:connector-curvature="0"
         sodipodi:nodetypes="cccccccccccccc" />
      <path
         inkscape:connector-curvature="0"
         id="path3056"
         d="M 17.758101,99.618268 79.60608,8.9827591 101.84441,125.62132 83.323607,51.946862 25.650105,93.611728 73.762449,116.01724 z"
         style="color:#000000;fill:#ffffff;fill-opacity:0.71480144;fill-rule:evenodd;stroke:none;stroke-width:2;marker:none;visibility:visible;display:inline;overflow:visible;enable-background:accumulate"
         sodipodi:nodetypes="ccccccc" />
      <path
         id="path3058"
         style="color:#000000;fill:none;stroke:#a5c3e0;stroke-width:16.47877312;stroke-linecap:round;stroke-linejoin:miter;stroke-miterlimit:4;stroke-opacity:1;stroke-dasharray:none;stroke-dashoffset:0;marker:none;visibility:visible;display:inline;overflow:visible;enable-background:accumulate"
         d="M 16.926368,99.619347 105.25535,127.92179 152.45381,97.603801 M 79.955804,5.1022591 104.75,127.5 84.999998,268 m -34.000001,-3.5 c 0,-2 -34.499998,-164.999989 -34.499998,-164.999989 L 79.999996,4.5000128 152.99999,97.500011 114.49999,271 z"
         inkscape:connector-curvature="0"
         sodipodi:nodetypes="cccccccccccc" />
      <path
         id="path3060"
         style="color:#000000;fill:none;stroke:#a5c3e0;stroke-width:16.47877312;stroke-linecap:round;stroke-linejoin:miter;stroke-miterlimit:4;stroke-opacity:0.09025269;stroke-dasharray:none;stroke-dashoffset:0;marker:none;visibility:visible;display:inline;overflow:visible;enable-background:accumulate"
         d="m 17,99.000004 47.75,-18.749999 87,16.499999 M 79.5,4.5000067 65,81.000005 71,266.5"
         inkscape:connector-curvature="0" />
      <path
         inkscape:connector-curvature="0"
         id="path3062"
         d="M 106.68934,123.53553 84.159381,12.604079 149.13478,96.082738 z"
         style="color:#000000;fill:#98b8da;fill-opacity:0.18411554;fill-rule:evenodd;stroke:none;stroke-width:2;marker:none;visibility:visible;display:inline;overflow:visible;enable-background:accumulate"
         sodipodi:nodetypes="cccc" />
      <path
         style="color:#000000;fill:#6696c8;fill-opacity:0.19494587;fill-rule:evenodd;stroke:none;stroke-width:2;marker:none;visibility:visible;display:inline;overflow:visible;enable-background:accumulate"
         d="M 87.499998,265.5 111.5,268.25 149.25,101.5 106,130.75 z"
         id="path3064"
         inkscape:connector-curvature="0"
         sodipodi:nodetypes="ccccc" />
      <path
         sodipodi:nodetypes="cccccccccc"
         inkscape:connector-curvature="0"
         id="path3066"
         d="m 122.68414,225.50305 -21.47438,-38.41982 -7.725368,38.74914 11.996968,-94.23204 -0.9558,19.30911 22.59825,40.03581 17.10867,-70.20565 -18.11903,-2.36489 22.93224,-15.63272 z"
         style="color:#000000;fill:#ffffff;fill-opacity:0.71480144;fill-rule:evenodd;stroke:none;stroke-width:2;marker:none;visibility:visible;display:inline;overflow:visible;enable-background:accumulate" />
      <path
         sodipodi:nodetypes="ccccccc"
         style="color:#000000;fill:#ffffff;fill-opacity:0.71480144;fill-rule:evenodd;stroke:none;stroke-width:2;marker:none;visibility:visible;display:inline;overflow:visible;enable-background:accumulate"
         d="M 109.18934,122.28553 138.83406,94.692743 95.448629,31.511489 89.576819,43.112678 83.409381,11.60408 148.38478,96.832738 z"
         id="path3068"
         inkscape:connector-curvature="0" />
    </g>
    <g
       style="display:inline"
       id="g3913"
       transform="matrix(0.46081107,0.0225293,-0.0225293,0.46081107,14.409333,41.005723)">
      <path
         sodipodi:nodetypes="cccccc"
         inkscape:connector-curvature="0"
         id="path3144"
         d="m 56.672144,289.6628 c 0,-2 -40.172145,-190.162789 -40.172145,-190.162789 L 79.999996,4.5000128 152.99999,97.500011 95.560766,294.99015 z"
         style="color:#000000;fill:#a6c2df;fill-opacity:0.51263535;fill-rule:evenodd;stroke:none;stroke-width:2;marker:none;visibility:visible;display:inline;overflow:visible;enable-background:accumulate" />
      <path
         inkscape:connector-curvature="0"
         id="path3808"
         d="M 19.758101,97.868268 78.85608,10.482759 101.09441,124.62132 z"
         style="color:#000000;fill:#ffffff;fill-opacity:0.27797834;fill-rule:evenodd;stroke:none;stroke-width:2;marker:none;visibility:visible;display:inline;overflow:visible;enable-background:accumulate"
         sodipodi:nodetypes="cccc" />
      <path
         sodipodi:nodetypes="cccccccccccccc"
         inkscape:connector-curvature="0"
         id="path3765"
         d="m 43.999999,220.25 -26.224871,-119.25305 59.706232,18.35338 -31.761315,-4.8332 36.21331,116.54881 18.892745,-99.8037 -23.299766,133.9308 -25.034815,-2.43546 -4.499441,-21.70912 12.879079,21.59631 14.378596,1.149 5.631446,-25.40982 -48.17554,-84.75836 z"
         style="color:#000000;fill:#ffffff;fill-opacity:0.71480144;fill-rule:evenodd;stroke:none;stroke-width:2;marker:none;visibility:visible;display:inline;overflow:visible;enable-background:accumulate" />
      <path
         sodipodi:nodetypes="cccccccc"
         style="color:#000000;fill:#ffffff;fill-opacity:0.71480144;fill-rule:evenodd;stroke:none;stroke-width:2;marker:none;visibility:visible;display:inline;overflow:visible;enable-background:accumulate"
         d="M 17.758101,99.618268 79.60608,8.9827591 101.84441,125.62132 77.691118,118.89877 94.052118,102.86337 83.323607,51.946862 67.461921,36.121651 z"
         id="path3842"
         inkscape:connector-curvature="0" />
      <path
         sodipodi:nodetypes="cccccccccccc"
         inkscape:connector-curvature="0"
         d="M 16.926368,99.619347 105.25535,127.92179 152.45381,97.603801 M 79.955804,5.1022591 104.75,127.5 72.380289,294.72532 m -20.621107,-6.43757 c 0,-2 -35.259183,-188.787739 -35.259183,-188.787739 L 79.999996,4.5000128 152.99999,97.500011 95.114437,295.28809 z"
         style="color:#000000;fill:none;stroke:#a5c3e0;stroke-width:4.33499575;stroke-linecap:round;stroke-linejoin:miter;stroke-miterlimit:4;stroke-opacity:1;stroke-dasharray:none;stroke-dashoffset:0;marker:none;visibility:visible;display:inline;overflow:visible;enable-background:accumulate"
         id="path3762" />
      <path
         inkscape:connector-curvature="0"
         d="m 17,99.000004 47.75,-18.749999 87,16.499999 M 79.7764,4.9912575 65,81.000005 71,266.5"
         style="color:#000000;fill:none;stroke:#a5c3e0;stroke-width:4.33499575;stroke-linecap:round;stroke-linejoin:miter;stroke-miterlimit:4;stroke-opacity:0.09025269;stroke-dasharray:none;stroke-dashoffset:0;marker:none;visibility:visible;display:inline;overflow:visible;enable-background:accumulate"
         id="path3803"
         sodipodi:nodetypes="cccccc" />
      <path
         sodipodi:nodetypes="cccc"
         style="color:#000000;fill:#98b8da;fill-opacity:0.18411554;fill-rule:evenodd;stroke:none;stroke-width:2;marker:none;visibility:visible;display:inline;overflow:visible;enable-background:accumulate"
         d="M 106.68934,123.53553 84.159381,12.604079 149.13478,96.082738 z"
         id="path3806"
         inkscape:connector-curvature="0" />
      <path
         sodipodi:nodetypes="ccccc"
         inkscape:connector-curvature="0"
         id="path3827"
         d="M 81.234507,265.26311 100.96308,266.87902 149.25,101.5 106,130.75 z"
         style="color:#000000;fill:#6696c8;fill-opacity:0.19494587;fill-rule:evenodd;stroke:none;stroke-width:2;marker:none;visibility:visible;display:inline;overflow:visible;enable-background:accumulate" />
      <path
         style="color:#000000;fill:#ffffff;fill-opacity:0.71480144;fill-rule:evenodd;stroke:none;stroke-width:2;marker:none;visibility:visible;display:inline;overflow:visible;enable-background:accumulate"
         d="m 113.48338,224.5417 -15.223555,-38.05879 -10.444982,44.72126 17.666517,-99.60384 -0.9558,19.30911 17.6271,36.30165 20.53151,-66.15097 -16.57072,-2.68541 22.93224,-15.63272 z"
         id="path3850"
         inkscape:connector-curvature="0"
         sodipodi:nodetypes="cccccccccc" />
      <path
         inkscape:connector-curvature="0"
         id="path3865"
         d="M 109.18934,122.28553 138.83406,94.692743 95.448629,31.511489 89.576819,43.112678 83.409381,11.60408 148.38478,96.832738 z"
         style="color:#000000;fill:#ffffff;fill-opacity:0.71480144;fill-rule:evenodd;stroke:none;stroke-width:2;marker:none;visibility:visible;display:inline;overflow:visible;enable-background:accumulate"
         sodipodi:nodetypes="ccccccc" />
    </g>
    <g
       style="display:inline"
       transform="matrix(0.14483936,0.03762794,-0.02948197,0.12132362,41.953914,142.54094)"
       id="g3991">
      <path
         sodipodi:nodetypes="cccccc"
         inkscape:connector-curvature="0"
         id="path3993"
         d="m 50.999997,264.5 c 0,-2 -34.499998,-164.999989 -34.499998,-164.999989 L 79.999996,4.5000128 152.99999,97.500011 114.49999,271 z"
         style="color:#000000;fill:#a6c2df;fill-opacity:0.51263535;fill-rule:evenodd;stroke:none;stroke-width:2;marker:none;visibility:visible;display:inline;overflow:visible;enable-background:accumulate" />
      <path
         inkscape:connector-curvature="0"
         id="path3995"
         d="M 19.758101,97.868268 78.85608,10.482759 101.09441,124.62132 z"
         style="color:#000000;fill:#ffffff;fill-opacity:0.27797834;fill-rule:evenodd;stroke:none;stroke-width:2;marker:none;visibility:visible;display:inline;overflow:visible;enable-background:accumulate"
         sodipodi:nodetypes="cccc" />
      <path
         sodipodi:nodetypes="cccccccccccccc"
         inkscape:connector-curvature="0"
         id="path3997"
         d="M 43.999999,220.25 17.775128,100.99695 77.48136,119.35033 45.720045,114.51713 85.59877,232.00255 103.69021,128.32807 83.703813,266.17475 l -31.212294,-3.41717 -4.499441,-21.70912 12.879079,21.59631 20.556075,2.13071 3.119382,-25.45492 -51.840955,-85.69497 z"
         style="color:#000000;fill:#ffffff;fill-opacity:0.71480144;fill-rule:evenodd;stroke:none;stroke-width:2;marker:none;visibility:visible;display:inline;overflow:visible;enable-background:accumulate" />
      <path
         sodipodi:nodetypes="ccccccc"
         style="color:#000000;fill:#ffffff;fill-opacity:0.71480144;fill-rule:evenodd;stroke:none;stroke-width:2;marker:none;visibility:visible;display:inline;overflow:visible;enable-background:accumulate"
         d="M 17.758101,99.618268 79.60608,8.9827591 101.84441,125.62132 83.323607,51.946862 25.650105,93.611728 73.762449,116.01724 z"
         id="path3999"
         inkscape:connector-curvature="0" />
      <path
         sodipodi:nodetypes="cccccccccccc"
         inkscape:connector-curvature="0"
         d="M 16.926368,99.619347 105.25535,127.92179 152.45381,97.603801 M 79.955804,5.1022591 104.75,127.5 84.999998,268 m -34.000001,-3.5 c 0,-2 -34.499998,-164.999989 -34.499998,-164.999989 L 79.999996,4.5000128 152.99999,97.500011 114.49999,271 z"
         style="color:#000000;fill:none;stroke:#a5c3e0;stroke-width:14.63257885;stroke-linecap:round;stroke-linejoin:miter;stroke-miterlimit:4;stroke-opacity:1;stroke-dasharray:none;stroke-dashoffset:0;marker:none;visibility:visible;display:inline;overflow:visible;enable-background:accumulate"
         id="path4001" />
      <path
         inkscape:connector-curvature="0"
         d="m 17,99.000004 47.75,-18.749999 87,16.499999 M 79.5,4.5000067 65,81.000005 71,266.5"
         style="color:#000000;fill:none;stroke:#a5c3e0;stroke-width:14.63257885;stroke-linecap:round;stroke-linejoin:miter;stroke-miterlimit:4;stroke-opacity:0.09025269;stroke-dasharray:none;stroke-dashoffset:0;marker:none;visibility:visible;display:inline;overflow:visible;enable-background:accumulate"
         id="path4003" />
      <path
         sodipodi:nodetypes="cccc"
         style="color:#000000;fill:#98b8da;fill-opacity:0.18411554;fill-rule:evenodd;stroke:none;stroke-width:2;marker:none;visibility:visible;display:inline;overflow:visible;enable-background:accumulate"
         d="M 106.68934,123.53553 84.159381,12.604079 149.13478,96.082738 z"
         id="path4005"
         inkscape:connector-curvature="0" />
      <path
         sodipodi:nodetypes="ccccc"
         inkscape:connector-curvature="0"
         id="path4007"
         d="M 87.499998,265.5 111.5,268.25 149.25,101.5 106,130.75 z"
         style="color:#000000;fill:#6696c8;fill-opacity:0.19494587;fill-rule:evenodd;stroke:none;stroke-width:2;marker:none;visibility:visible;display:inline;overflow:visible;enable-background:accumulate" />
      <path
         style="color:#000000;fill:#ffffff;fill-opacity:0.71480144;fill-rule:evenodd;stroke:none;stroke-width:2;marker:none;visibility:visible;display:inline;overflow:visible;enable-background:accumulate"
         d="m 122.68414,225.50305 -21.47438,-38.41982 -7.725368,38.74914 11.996968,-94.23204 -0.9558,19.30911 22.59825,40.03581 17.10867,-70.20565 -18.11903,-2.36489 22.93224,-15.63272 z"
         id="path4009"
         inkscape:connector-curvature="0"
         sodipodi:nodetypes="cccccccccc" />
      <path
         inkscape:connector-curvature="0"
         id="path4011"
         d="M 109.18934,122.28553 138.83406,94.692743 95.448629,31.511489 89.576819,43.112678 83.409381,11.60408 148.38478,96.832738 z"
         style="color:#000000;fill:#ffffff;fill-opacity:0.71480144;fill-rule:evenodd;stroke:none;stroke-width:2;marker:none;visibility:visible;display:inline;overflow:visible;enable-background:accumulate"
         sodipodi:nodetypes="ccccccc" />
    </g>
    <g
       style="display:inline"
       id="g3925"
       transform="matrix(0.30855158,-0.07490646,0.08763321,0.36738086,-12.338863,96.004624)">
      <path
         style="color:#000000;fill:#a6c2df;fill-opacity:0.51263535;fill-rule:evenodd;stroke:none;stroke-width:2;marker:none;visibility:visible;display:inline;overflow:visible;enable-background:accumulate"
         d="m 50.999997,264.5 c 0,-2 -34.499998,-164.999989 -34.499998,-164.999989 L 79.999996,4.5000128 152.99999,97.500011 114.49999,271 z"
         id="path3927"
         inkscape:connector-curvature="0"
         sodipodi:nodetypes="cccccc" />
      <path
         sodipodi:nodetypes="cccc"
         style="color:#000000;fill:#ffffff;fill-opacity:0.27797834;fill-rule:evenodd;stroke:none;stroke-width:2;marker:none;visibility:visible;display:inline;overflow:visible;enable-background:accumulate"
         d="M 19.758101,97.868268 78.85608,10.482759 102.06297,137.44984 z"
         id="path3929"
         inkscape:connector-curvature="0" />
      <path
         style="color:#000000;fill:#ffffff;fill-opacity:0.71480144;fill-rule:evenodd;stroke:none;stroke-width:2;marker:none;visibility:visible;display:inline;overflow:visible;enable-background:accumulate"
         d="m 28.173988,156.16756 -9.142836,-54.12407 7.673222,22.23799 62.763703,77.85868 14.222133,-73.81209 -19.986397,137.84668 -2.276581,-1.39927 7.305185,-56.43168 -47.737189,-23.89243 z"
         id="path3931"
         inkscape:connector-curvature="0"
         sodipodi:nodetypes="cccccccccc" />
      <path
         inkscape:connector-curvature="0"
         id="path3933"
         d="M 17.758101,99.618268 39.62789,65.382043 84.522932,58.117123 83.800395,33.752716 101.84441,125.62132 85.490305,69.735262 25.650105,93.611728 74.689301,121.93229 z"
         style="color:#000000;fill:#ffffff;fill-opacity:0.71480144;fill-rule:evenodd;stroke:none;stroke-width:2;marker:none;visibility:visible;display:inline;overflow:visible;enable-background:accumulate"
         sodipodi:nodetypes="ccccccccc" />
      <path
         id="path3937"
         style="color:#000000;fill:none;stroke:#a5c3e0;stroke-width:5.7754221;stroke-linecap:round;stroke-linejoin:miter;stroke-miterlimit:4;stroke-opacity:0.09025269;stroke-dasharray:none;stroke-dashoffset:0;marker:none;visibility:visible;display:inline;overflow:visible;enable-background:accumulate"
         d="M 17,99.000004 64.663074,73.495728 151.75,96.750004 M 79.5,4.5000067 64.913074,74.245728 71,266.5"
         inkscape:connector-curvature="0"
         sodipodi:nodetypes="cccccc" />
      <path
         inkscape:connector-curvature="0"
         id="path3939"
         d="M 106.68934,123.53553 84.159381,12.604079 149.13478,96.082738 z"
         style="color:#000000;fill:#98b8da;fill-opacity:0.18411554;fill-rule:evenodd;stroke:none;stroke-width:2;marker:none;visibility:visible;display:inline;overflow:visible;enable-background:accumulate"
         sodipodi:nodetypes="cccc" />
      <path
         style="color:#000000;fill:#6696c8;fill-opacity:0.19494587;fill-rule:evenodd;stroke:none;stroke-width:2;marker:none;visibility:visible;display:inline;overflow:visible;enable-background:accumulate"
         d="M 87.499998,265.5 111.5,268.25 149.25,101.5 106,130.75 z"
         id="path3941"
         inkscape:connector-curvature="0"
         sodipodi:nodetypes="ccccc" />
      <path
         sodipodi:nodetypes="cccccccccccc"
         inkscape:connector-curvature="0"
         id="path3943"
         d="m 112.72317,270.45954 8.66826,-48.70168 -17.9071,-34.21086 -9.999938,38.28537 12.165628,-88.47158 14.29681,-11.09534 -10.82841,18.8329 18.00539,45.8469 18.00775,-81.13765 -19.54504,15.36464 23.45917,-22.43025 z"
         style="color:#000000;fill:#ffffff;fill-opacity:0.71480144;fill-rule:evenodd;stroke:none;stroke-width:2;marker:none;visibility:visible;display:inline;overflow:visible;enable-background:accumulate" />
      <path
         sodipodi:nodetypes="ccccccc"
         style="color:#000000;fill:#ffffff;fill-opacity:0.71480144;fill-rule:evenodd;stroke:none;stroke-width:2;marker:none;visibility:visible;display:inline;overflow:visible;enable-background:accumulate"
         d="M 150.03088,97.098485 108.58805,124.22952 92.954926,36.055456 109.09328,42.881606 83.409381,11.60408 106.27376,133.54991 z"
         id="path3945"
         inkscape:connector-curvature="0" />
      <path
         id="path3935"
         style="color:#000000;fill:none;stroke:#a5c3e0;stroke-width:5.7754221;stroke-linecap:round;stroke-linejoin:miter;stroke-miterlimit:4;stroke-opacity:1;stroke-dasharray:none;stroke-dashoffset:0;marker:none;visibility:visible;display:inline;overflow:visible;enable-background:accumulate"
         d="M 16.926368,99.619347 105.304,139.04702 152.45381,97.603801 M 79.955804,5.1022591 105.26818,138.38414 84.999998,268 m -34.000001,-3.5 c 0,-2 -34.499998,-164.999989 -34.499998,-164.999989 L 79.999996,4.5000128 152.99999,97.500011 114.49999,271 z"
         inkscape:connector-curvature="0"
         sodipodi:nodetypes="cccccccccccc" />
    </g>
  </g>
</svg>
