<?xml version="1.0" encoding="UTF-8" standalone="no"?>
<!-- Created with Inkscape (http://www.inkscape.org/) -->

<svg
   xmlns:dc="http://purl.org/dc/elements/1.1/"
   xmlns:cc="http://creativecommons.org/ns#"
   xmlns:rdf="http://www.w3.org/1999/02/22-rdf-syntax-ns#"
   xmlns:svg="http://www.w3.org/2000/svg"
   xmlns="http://www.w3.org/2000/svg"
   xmlns:sodipodi="http://sodipodi.sourceforge.net/DTD/sodipodi-0.dtd"
   xmlns:inkscape="http://www.inkscape.org/namespaces/inkscape"
   id="svg2"
   sodipodi:version="0.32"
   inkscape:version="0.48.1 r9760"
   width="62"
   height="58"
   version="1.0"
   sodipodi:docname="CrystalSpray02.svg"
   inkscape:output_extension="org.inkscape.output.svg.inkscape"
   inkscape:export-filename="CrystalSpray02.png"
   inkscape:export-xdpi="90"
   inkscape:export-ydpi="90"
   style="display:inline">
  <sodipodi:namedview
     inkscape:window-height="824"
     inkscape:window-width="1434"
     inkscape:pageshadow="2"
     inkscape:pageopacity="0.0"
     guidetolerance="10.0"
     gridtolerance="10.0"
     objecttolerance="10.0"
     borderopacity="1.0"
     bordercolor="#666666"
     pagecolor="#ffffff"
     id="base"
     showgrid="false"
     inkscape:zoom="6.5643081"
     inkscape:cx="11.165876"
     inkscape:cy="30.192161"
     inkscape:window-x="0"
     inkscape:window-y="25"
     inkscape:current-layer="layer6"
     inkscape:window-maximized="0"
     showguides="true"
     inkscape:guide-bbox="true"
     inkscape:snap-global="false"
     fit-margin-top="0"
     fit-margin-left="0"
     fit-margin-right="0"
     fit-margin-bottom="0" />
  <metadata
     id="metadata7">
    <rdf:RDF>
      <cc:Work
         rdf:about="">
        <dc:format>image/svg+xml</dc:format>
        <dc:type
           rdf:resource="http://purl.org/dc/dcmitype/StillImage" />
        <dc:title></dc:title>
      </cc:Work>
    </rdf:RDF>
  </metadata>
  <defs
     id="defs5" />
  <g
     inkscape:groupmode="layer"
     id="layer6"
     inkscape:label="cristals"
     style="display:inline"
     transform="translate(-334.82014,-375.85521)">
    <g
       id="g3163"
       transform="translate(-1.090948e-7,0.07617069)">
      <path
         style="color:#000000;fill:#a6c2df;fill-opacity:0.51263535;fill-rule:evenodd;stroke:none;stroke-width:2;marker:none;visibility:visible;display:inline;overflow:visible;enable-background:accumulate"
         d="m 360.40846,405.09928 c -0.006,-0.21119 -4.14372,-17.31795 -4.14372,-17.31795 l 6.41674,-10.22396 7.99048,9.59847 -4.94833,18.33793 z"
         id="path4608"
         inkscape:connector-curvature="0"
         sodipodi:nodetypes="cccccc" />
      <path
         sodipodi:nodetypes="cccc"
         style="color:#000000;fill:#ffffff;fill-opacity:0.27797834;fill-rule:evenodd;stroke:none;stroke-width:2;marker:none;visibility:visible;display:inline;overflow:visible;enable-background:accumulate"
         d="m 356.60382,387.59914 5.97504,-9.40658 2.69461,11.98462 z"
         id="path4610"
         inkscape:connector-curvature="0" />
      <path
         style="color:#000000;fill:#ffffff;fill-opacity:0.71480144;fill-rule:evenodd;stroke:none;stroke-width:2;marker:none;visibility:visible;display:inline;overflow:visible;enable-background:accumulate"
         d="m 359.53501,400.44808 -3.13108,-12.51256 6.3602,1.75675 -3.36841,-0.41394 4.17758,12.19669 1.69199,-10.59581 -2.05376,14.21273 -2.65086,-0.18118 -0.541,-2.27865 1.42548,2.2413 1.52175,0.0777 0.51751,-2.70016 -5.3442,-8.80357 z"
         id="path4612"
         inkscape:connector-curvature="0"
         sodipodi:nodetypes="cccccccccccccc" />
      <path
         inkscape:connector-curvature="0"
         id="path4615"
         d="m 356.39794,387.78999 6.48057,-4.9516 -0.59841,-2.90771 -1.85153,1.83706 2.05401,-3.00738 2.87312,11.52013 -2.12011,-5.28971 -5.03056,2.35647 4.15629,2.00436 z"
         style="color:#000000;fill:#ffffff;fill-opacity:0.71480144;fill-rule:evenodd;stroke:none;stroke-width:2;marker:none;visibility:visible;display:inline;overflow:visible;enable-background:accumulate"
         sodipodi:nodetypes="cccccccccc" />
      <path
         inkscape:connector-curvature="0"
         id="path4617"
         d="m 366.07744,390.32128 -2.71568,-11.64508 7.11425,8.61746 z"
         style="color:#000000;fill:#98b8da;fill-opacity:0.18411554;fill-rule:evenodd;stroke:none;stroke-width:2;marker:none;visibility:visible;display:inline;overflow:visible;enable-background:accumulate"
         sodipodi:nodetypes="cccc" />
      <path
         style="color:#000000;fill:#6696c8;fill-opacity:0.19494587;fill-rule:evenodd;stroke:none;stroke-width:2;marker:none;visibility:visible;display:inline;overflow:visible;enable-background:accumulate"
         d="m 363.6033,405.08809 2.08808,0.11075 4.59676,-17.60925 -4.47808,3.21984 z"
         id="path4620"
         inkscape:connector-curvature="0"
         sodipodi:nodetypes="ccccc" />
      <path
         sodipodi:nodetypes="cccccccccc"
         inkscape:connector-curvature="0"
         id="path4622"
         d="m 366.88492,400.69035 -1.723,-3.97249 -0.96716,4.75391 1.56312,-10.57098 -0.0423,2.04178 1.97146,3.77966 1.96718,-7.04733 -1.75788,-0.23325 2.37401,-1.7203 z"
         style="color:#000000;fill:#ffffff;fill-opacity:0.71480144;fill-rule:evenodd;stroke:none;stroke-width:2;marker:none;visibility:visible;display:inline;overflow:visible;enable-background:accumulate" />
      <path
         sodipodi:nodetypes="ccccccc"
         style="color:#000000;fill:#ffffff;fill-opacity:0.71480144;fill-rule:evenodd;stroke:none;stroke-width:2;marker:none;visibility:visible;display:inline;overflow:visible;enable-background:accumulate"
         d="m 366.12114,389.90597 2.5916,-3.0007 -3.50882,-4.9151 -0.91799,1.13869 -1.22288,-4.83171 7.11956,8.80224 z"
         id="path4625"
         inkscape:connector-curvature="0" />
      <path
         id="path4627"
         style="color:#000000;fill:none;stroke:#a5c3e0;stroke-width:2;stroke-linecap:round;stroke-linejoin:miter;stroke-miterlimit:4;stroke-opacity:1;stroke-dasharray:none;stroke-dashoffset:0;marker:none;visibility:visible;display:inline;overflow:visible;enable-background:accumulate"
         d="m 356.31012,387.79263 9.41273,2.72042 4.89176,-3.34459 m -7.93597,-9.54737 2.98957,12.84895 -2.3213,14.88961 m -2.93845,-0.26037 c -0.006,-0.21119 -4.14372,-17.31795 -4.14372,-17.31795 l 6.41674,-10.22396 7.99048,9.59847 -4.87042,18.31837 z"
         inkscape:connector-curvature="0"
         sodipodi:nodetypes="cccccccccccc" />
      <path
         sodipodi:nodetypes="cccccc"
         inkscape:connector-curvature="0"
         id="path4630"
         d="m 365.14177,401.75766 c 0.21659,-0.10951 16.00462,-12.83769 16.00462,-12.83769 l 13.7187,1.81631 -6.12737,13.15101 -21.44524,3.69709 z"
         style="color:#000000;fill:#a6c2df;fill-opacity:0.51263535;fill-rule:evenodd;stroke:none;stroke-width:2;marker:none;visibility:visible;display:inline;overflow:visible;enable-background:accumulate" />
      <path
         inkscape:connector-curvature="0"
         id="path4632"
         d="m 373.23631,395.67024 8.10258,-6.56173 12.8165,1.82874 -11.15907,8.70074 z"
         style="color:#000000;fill:#ffffff;fill-opacity:0.27797834;fill-rule:evenodd;stroke:none;stroke-width:2;marker:none;visibility:visible;display:inline;overflow:visible;enable-background:accumulate"
         sodipodi:nodetypes="ccccc" />
      <path
         style="color:#000000;fill:#ffffff;fill-opacity:0.71480144;fill-rule:evenodd;stroke:none;stroke-width:2;marker:none;visibility:visible;display:inline;overflow:visible;enable-background:accumulate"
         d="m 380.84377,389.80879 1.66653,10.80645 -6.59678,1.63591 2.7732,-2.30503 -7.54476,-1.50117 -4.89631,2.96478 11.10119,-8.21471 -4.27991,3.73957 7.77378,0.34357 z"
         id="path4634"
         inkscape:connector-curvature="0"
         sodipodi:nodetypes="cccccccccc" />
      <path
         sodipodi:nodetypes="ccccccc"
         style="color:#000000;fill:#ffffff;fill-opacity:0.71480144;fill-rule:evenodd;stroke:none;stroke-width:2;marker:none;visibility:visible;display:inline;overflow:visible;enable-background:accumulate"
         d="m 381.20154,389.06541 13.15682,1.87263 -11.42983,8.83752 6.9779,-6.07638 -7.62802,-4.09069 0.173,6.5399 z"
         id="path4636"
         inkscape:connector-curvature="0" />
      <path
         sodipodi:nodetypes="cccc"
         style="color:#000000;fill:#5388c1;fill-opacity:0.18411554;fill-rule:evenodd;stroke:none;stroke-width:2;marker:none;visibility:visible;display:inline;overflow:visible;enable-background:accumulate"
         d="m 383.4932,400.56322 10.03364,-7.61529 -4.95004,10.59321 z"
         id="path4638"
         inkscape:connector-curvature="0" />
      <path
         sodipodi:nodetypes="ccccc"
         inkscape:connector-curvature="0"
         id="path4640"
         d="m 366.69262,405.1389 0.8909,2.26747 20.51842,-3.71443 -5.50429,-3.17682 z"
         style="color:#000000;fill:#6696c8;fill-opacity:0.19494587;fill-rule:evenodd;stroke:none;stroke-width:2;marker:none;visibility:visible;display:inline;overflow:visible;enable-background:accumulate" />
      <path
         style="color:#000000;fill:#ffffff;fill-opacity:0.71480144;fill-rule:evenodd;stroke:none;stroke-width:2;marker:none;visibility:visible;display:inline;overflow:visible;enable-background:accumulate"
         d="m 372.84485,406.47298 3.29906,-3.76364 -5.40738,1.29301 11.74101,-3.49799 -2.1427,0.95084 -2.97892,3.93298 8.27304,-1.35132 -0.60447,-1.97719 2.93191,1.67765 z"
         id="path4642"
         inkscape:connector-curvature="0"
         sodipodi:nodetypes="cccccccccc" />
      <path
         inkscape:connector-curvature="0"
         id="path4645"
         d="m 388.10939,403.13387 -4.20504,-2.94654 9.40291,-7.23612 -2.40944,4.84752 0.77029,-2.82132 -6.45194,5.13945 z"
         style="color:#000000;fill:#ffffff;fill-opacity:0.71480144;fill-rule:evenodd;stroke:none;stroke-width:2;marker:none;visibility:visible;display:inline;overflow:visible;enable-background:accumulate"
         sodipodi:nodetypes="ccccccc" />
      <path
         sodipodi:nodetypes="cccccccccccc"
         inkscape:connector-curvature="0"
         d="m 381.15651,388.97359 1.70719,11.30457 5.83329,3.55447 m 6.10049,-13.06829 -11.91541,9.43492 -16.59524,4.80026 m -1.14505,-3.24186 c 0.21659,-0.10951 16.00461,-12.83769 16.00461,-12.83769 l 13.7187,1.81631 -6.12736,13.15101 -21.38737,3.77012 z"
         style="color:#000000;fill:none;stroke:#a5c3e0;stroke-width:1.99999988;stroke-linecap:round;stroke-linejoin:miter;stroke-miterlimit:4;stroke-opacity:1;stroke-dasharray:none;stroke-dashoffset:0;marker:none;visibility:visible;display:inline;overflow:visible;enable-background:accumulate"
         id="path4647" />
      <g
         transform="matrix(0.58907526,-0.25674163,0.25674163,0.58907526,43.363058,255.73186)"
         id="g4444">
        <path
           sodipodi:nodetypes="cccccc"
           inkscape:connector-curvature="0"
           id="path4649"
           d="m 367.78373,414.55337 c 0.0693,0.234 9.75295,18.11052 9.75295,18.11052 l -4.1386,13.31534 -11.76323,-8.3524 0.0972,-21.94068 z"
           style="color:#000000;fill:#a6c2df;fill-opacity:0.51263535;fill-rule:evenodd;stroke:none;stroke-width:2;marker:none;visibility:visible;display:inline;overflow:visible;enable-background:accumulate" />
        <path
           sodipodi:nodetypes="cccccccccc"
           inkscape:connector-curvature="0"
           id="path4651"
           d="m 364.94942,417.44853 0.80955,13.10301 11.29445,1.50525 -8.26099,-2.12868 0.5342,-10.68283 4.96915,8.50314 -7.04533,-13.28069 0.62655,2.29148 -1.68381,8.34935 z"
           style="color:#000000;fill:#ffffff;fill-opacity:0.71480144;fill-rule:evenodd;stroke:none;stroke-width:2;marker:none;visibility:visible;display:inline;overflow:visible;enable-background:accumulate" />
        <path
           inkscape:connector-curvature="0"
           id="path4653"
           d="m 377.212,432.96769 -3.88734,12.2719 -6.79596,-14.23166 z"
           style="color:#000000;fill:#ffffff;fill-opacity:0.27797834;fill-rule:evenodd;stroke:none;stroke-width:2;marker:none;visibility:visible;display:inline;overflow:visible;enable-background:accumulate"
           sodipodi:nodetypes="cccc" />
        <path
           sodipodi:nodetypes="ccccccc"
           style="color:#000000;fill:#ffffff;fill-opacity:0.71480144;fill-rule:evenodd;stroke:none;stroke-width:2;marker:none;visibility:visible;display:inline;overflow:visible;enable-background:accumulate"
           d="m 377.38538,432.69364 -4.09651,12.74744 -6.64283,-12.87681 4.71941,7.9786 5.30462,-6.87302 -6.40559,-0.95474 z"
           id="path4655"
           inkscape:connector-curvature="0" />
        <path
           sodipodi:nodetypes="cccc"
           style="color:#000000;fill:#3f6083;fill-opacity:0.18411554;fill-rule:evenodd;stroke:none;stroke-width:2;marker:none;visibility:visible;display:inline;overflow:visible;enable-background:accumulate"
           d="m 365.92455,430.96673 7.28949,15.01863 -11.43436,-8.13215 z"
           id="path4657"
           inkscape:connector-curvature="0" />
        <path
           sodipodi:nodetypes="ccccc"
           inkscape:connector-curvature="0"
           id="path4659"
           d="m 364.21972,415.51153 -2.36431,0.49441 0.0796,21.02296 4.04711,-4.92075 z"
           style="color:#000000;fill:#6696c8;fill-opacity:0.19494587;fill-rule:evenodd;stroke:none;stroke-width:2;marker:none;visibility:visible;display:inline;overflow:visible;enable-background:accumulate" />
        <path
           style="color:#000000;fill:#ffffff;fill-opacity:0.71480144;fill-rule:evenodd;stroke:none;stroke-width:2;marker:none;visibility:visible;display:inline;overflow:visible;enable-background:accumulate"
           d="m 361.92597,421.25585 2.45805,4.06315 0.24572,-5.59445 0.83361,11.83071 -0.55712,-1.99444 -2.51798,-3.43052 -0.36263,8.38251 2.03189,-0.25988 -2.1416,2.62357 z"
           id="path4662"
           inkscape:connector-curvature="0"
           sodipodi:nodetypes="cccccccccc" />
        <path
           inkscape:connector-curvature="0"
           id="path4664"
           d="m 365.85638,431.55897 -2.23763,5.63054 7.21932,6.02695 -0.72325,-2.79835 2.63824,4.84802 -10.5551,-7.72112 z"
           style="color:#000000;fill:#ffffff;fill-opacity:0.71480144;fill-rule:evenodd;stroke:none;stroke-width:2;marker:none;visibility:visible;display:inline;overflow:visible;enable-background:accumulate"
           sodipodi:nodetypes="ccccccc" />
        <path
           sodipodi:nodetypes="cccccccccccc"
           inkscape:connector-curvature="0"
           d="m 377.48266,432.6647 -11.6071,-2.26086 -4.1804,7.19193 m 11.68723,8.31146 -7.59514,-15.47155 -1.36163,-15.30327 m 3.35811,-0.57904 c 0.0693,0.234 9.75295,18.11052 9.75295,18.11052 l -4.1386,13.31534 -11.76323,-8.3524 0.016,-21.89576 z"
           style="color:#000000;fill:none;stroke:#a5c3e0;stroke-width:3.11238933;stroke-linecap:round;stroke-linejoin:miter;stroke-miterlimit:4;stroke-opacity:1;stroke-dasharray:none;stroke-dashoffset:0;marker:none;visibility:visible;display:inline;overflow:visible;enable-background:accumulate"
           id="path4667" />
      </g>
      <g
         transform="matrix(1.5592223,-0.6416662,0.6416662,1.5592223,-449.61193,-17.098182)"
         id="g4455">
        <path
           style="color:#000000;fill:#a6c2df;fill-opacity:0.51263535;fill-rule:evenodd;stroke:none;stroke-width:2;marker:none;visibility:visible;display:inline;overflow:visible;enable-background:accumulate"
           d="m 351.66729,415.80052 c -0.1057,0.095 -7.08027,9.66518 -7.08027,9.66518 l -8.03852,1.15918 0.27865,-8.63441 12.72854,-5.08842 z"
           id="path4669"
           inkscape:connector-curvature="0"
           sodipodi:nodetypes="cccccc" />
        <path
           sodipodi:nodetypes="cccc"
           style="color:#000000;fill:#ffffff;fill-opacity:0.27797834;fill-rule:evenodd;stroke:none;stroke-width:2;marker:none;visibility:visible;display:inline;overflow:visible;enable-background:accumulate"
           d="m 337.13893,418.19071 -0.21989,8.21029 4.81467,-6.55406 z"
           id="path4672"
           inkscape:connector-curvature="0" />
        <path
           style="color:#000000;fill:#ffffff;fill-opacity:0.71480144;fill-rule:evenodd;stroke:none;stroke-width:2;marker:none;visibility:visible;display:inline;overflow:visible;enable-background:accumulate"
           d="m 349.66144,418.27352 -5.05592,7.05364 -1.8677,-4.02764 1.6106,1.51931 3.96719,-6.39946 -5.40956,3.06409 7.53715,-5.11774 1.06111,1.43879 -0.93344,1.26955 0.52923,-1.70704 -0.62265,-0.81449 -0.9459,1.43714 -2.8543,6.04717 z"
           id="path4674"
           inkscape:connector-curvature="0"
           sodipodi:nodetypes="cccccccccccccc" />
        <path
           inkscape:connector-curvature="0"
           id="path4677"
           d="m 344.53347,425.39359 -7.72935,1.03906 5.10722,-6.71871 -3.01333,4.4803 4.94295,1.06774 -1.10254,-3.60751 z"
           style="color:#000000;fill:#ffffff;fill-opacity:0.71480144;fill-rule:evenodd;stroke:none;stroke-width:2;marker:none;visibility:visible;display:inline;overflow:visible;enable-background:accumulate"
           sodipodi:nodetypes="ccccccc" />
        <path
           inkscape:connector-curvature="0"
           id="path4679"
           d="m 344.34386,425.24056 -7.56476,0.77935 5.24251,-6.30126 z"
           style="color:#000000;fill:#98b8da;fill-opacity:0.18411554;fill-rule:evenodd;stroke:none;stroke-width:2;marker:none;visibility:visible;display:inline;overflow:visible;enable-background:accumulate"
           sodipodi:nodetypes="cccc" />
        <path
           style="color:#000000;fill:#6696c8;fill-opacity:0.19494587;fill-rule:evenodd;stroke:none;stroke-width:2;marker:none;visibility:visible;display:inline;overflow:visible;enable-background:accumulate"
           d="m 350.27067,414.16642 -0.85224,-1.11942 -12.14931,4.80407 2.45644,4.19294 2.25932,-2.79343 z"
           id="path4682"
           inkscape:connector-curvature="0"
           sodipodi:nodetypes="cccccc" />
        <path
           sodipodi:nodetypes="cccccccccc"
           inkscape:connector-curvature="0"
           id="path4684"
           d="m 346.58593,414.39748 -1.28781,2.61335 2.85985,-1.57346 -6.3952,3.42749 1.84372,-1.2237 0.0598,-1.65215 -3.93699,1.78341 1.40728,1.00336 -3.37452,-1.01993 z"
           style="color:#000000;fill:#ffffff;fill-opacity:0.71480144;fill-rule:evenodd;stroke:none;stroke-width:2;marker:none;visibility:visible;display:inline;overflow:visible;enable-background:accumulate" />
        <path
           sodipodi:nodetypes="ccccccc"
           style="color:#000000;fill:#ffffff;fill-opacity:0.71480144;fill-rule:evenodd;stroke:none;stroke-width:2;marker:none;visibility:visible;display:inline;overflow:visible;enable-background:accumulate"
           d="m 341.38597,419.48432 -2.86715,-0.25528 0.32726,2.78385 1.11904,-0.7272 -1.842,2.68231 -0.60953,-5.41022 z"
           id="path4687"
           inkscape:connector-curvature="0" />
        <path
           id="path4689"
           style="color:#000000;fill:none;stroke:#a5c3e0;stroke-width:1.18617427;stroke-linecap:round;stroke-linejoin:miter;stroke-miterlimit:4;stroke-opacity:1;stroke-dasharray:none;stroke-dashoffset:0;marker:none;visibility:visible;display:inline;overflow:visible;enable-background:accumulate"
           d="m 344.57306,425.43749 -2.70226,-6.01314 -3.84544,-1.05344 m -1.44294,8.22769 5.29011,-7.1275 8.64907,-5.29138 m 1.14569,1.6208 c -0.1057,0.095 -7.08027,9.66518 -7.08027,9.66518 l -8.03852,1.15918 0.63516,-8.94231 12.32808,-4.81197 z"
           inkscape:connector-curvature="0"
           sodipodi:nodetypes="cccccccccccc" />
      </g>
      <g
         transform="matrix(0.98107752,-0.08625524,0.07950857,0.97408876,3.0953978,41.650072)"
         id="g4433">
        <path
           sodipodi:nodetypes="cccccc"
           inkscape:connector-curvature="0"
           id="path4692"
           d="m 330.30465,403.33371 c -0.17595,-0.0474 -15.34922,-0.93249 -15.34922,-0.93249 l -6.82414,-7.73797 9.94476,-4.10054 13.89628,8.55848 z"
           style="color:#000000;fill:#a6c2df;fill-opacity:0.51263535;fill-rule:evenodd;stroke:none;stroke-width:2;marker:none;visibility:visible;display:inline;overflow:visible;enable-background:accumulate" />
        <path
           inkscape:connector-curvature="0"
           id="path4694"
           d="m 315.85198,395.01808 -6.82324,-0.63616 8.81743,-3.58627 z"
           style="color:#000000;fill:#ffffff;fill-opacity:0.27797834;fill-rule:evenodd;stroke:none;stroke-width:2;marker:none;visibility:visible;display:inline;overflow:visible;enable-background:accumulate"
           sodipodi:nodetypes="cccc" />
        <path
           sodipodi:nodetypes="ccccc"
           inkscape:connector-curvature="0"
           id="path4697"
           d="m 330.20481,403.35017 0.81799,-2.18788 -11.38952,-5.28693 -4.3858,6.41979 z"
           style="color:#000000;fill:#6696c8;fill-opacity:0.19494587;fill-rule:evenodd;stroke:none;stroke-width:2;marker:none;visibility:visible;display:inline;overflow:visible;enable-background:accumulate" />
        <path
           sodipodi:nodetypes="cccccccccccccc"
           inkscape:connector-curvature="0"
           id="path4699"
           d="m 326.12519,402.63531 -11.00727,-0.30874 1.05947,-6.82167 -0.0645,5.51273 9.83579,-1.2411 -7.07876,-3.28347 12.1363,4.5657 -0.81887,2.10479 -2.15952,-0.33374 1.95254,-0.64655 0.61281,-0.84567 -2.16994,-0.62761 -7.79781,1.34416 z"
           style="color:#000000;fill:#ffffff;fill-opacity:0.71480144;fill-rule:evenodd;stroke:none;stroke-width:2;marker:none;visibility:visible;display:inline;overflow:visible;enable-background:accumulate" />
        <path
           sodipodi:nodetypes="cccc"
           style="color:#000000;fill:#98b8da;fill-opacity:0.18411554;fill-rule:evenodd;stroke:none;stroke-width:2;marker:none;visibility:visible;display:inline;overflow:visible;enable-background:accumulate"
           d="m 315.02816,402.0319 -6.28282,-6.91588 10.67439,0.47771 z"
           id="path4702"
           inkscape:connector-curvature="0" />
        <path
           sodipodi:nodetypes="ccccccc"
           style="color:#000000;fill:#ffffff;fill-opacity:0.71480144;fill-rule:evenodd;stroke:none;stroke-width:2;marker:none;visibility:visible;display:inline;overflow:visible;enable-background:accumulate"
           d="m 314.99622,402.29535 -6.48007,-7.49178 7.41507,0.61418 -5.6366,0.19886 4.15231,4.95485 0.76002,-3.85541 z"
           id="path4704"
           inkscape:connector-curvature="0" />
        <path
           style="color:#000000;fill:#ffffff;fill-opacity:0.71480144;fill-rule:evenodd;stroke:none;stroke-width:2;marker:none;visibility:visible;display:inline;overflow:visible;enable-background:accumulate"
           d="m 326.88856,396.22746 -4.25632,0.75859 3.68214,1.96273 -9.34639,-3.74955 3.0384,0.56351 4.98213,-0.2235 -5.08888,-3.52675 -2.91553,1.18317 1.08168,-2.28242 z"
           id="path4707"
           inkscape:connector-curvature="0"
           sodipodi:nodetypes="cccccccccc" />
        <path
           inkscape:connector-curvature="0"
           id="path4709"
           d="m 315.67416,394.6119 0.732,-2.4999 -4.32713,1.60353 2.33555,1.03608 -5.57596,-0.21441 9.06727,-3.59164 z"
           style="color:#000000;fill:#ffffff;fill-opacity:0.71480144;fill-rule:evenodd;stroke:none;stroke-width:2;marker:none;visibility:visible;display:inline;overflow:visible;enable-background:accumulate"
           sodipodi:nodetypes="ccccccc" />
        <path
           sodipodi:nodetypes="cccccccccccc"
           inkscape:connector-curvature="0"
           d="m 314.97623,402.36723 0.93431,-7.4664 2.16145,-4.28847 m -9.88878,4.06899 7.70151,0.2762 15.37681,6.0578 m -0.95688,2.31837 c -0.17595,-0.0474 -15.34922,-0.93249 -15.34922,-0.93249 l -6.82414,-7.73798 9.94476,-4.10054 13.89979,8.49046 z"
           style="color:#000000;fill:none;stroke:#a5c3e0;stroke-width:2.03857327;stroke-linecap:round;stroke-linejoin:miter;stroke-miterlimit:4;stroke-opacity:1;stroke-dasharray:none;stroke-dashoffset:0;marker:none;visibility:visible;display:inline;overflow:visible;enable-background:accumulate"
           id="path4712" />
      </g>
      <path
         style="color:#000000;fill:#76869e;fill-opacity:1;fill-rule:evenodd;stroke:none;stroke-width:1px;marker:none;visibility:visible;display:inline;overflow:visible;enable-background:accumulate"
         d="m 357.54319,395.60042 11.65449,2.58313 2.01509,11.14528 -14.51778,-1.22273 z"
         id="path4734"
         inkscape:connector-curvature="0"
         sodipodi:nodetypes="ccccc" />
      <path
         inkscape:connector-curvature="0"
         id="path4736"
         d="m 364.38395,404.49797 -7.35155,3.21506 0.88999,-11.23706 z"
         style="color:#000000;fill:#9ca8b9;fill-opacity:1;fill-rule:evenodd;stroke:none;stroke-width:2;marker:none;visibility:visible;display:inline;overflow:visible;enable-background:accumulate"
         sodipodi:nodetypes="cccc" />
      <path
         sodipodi:nodetypes="cccc"
         style="color:#000000;fill:#7389a6;fill-opacity:1;fill-rule:evenodd;stroke:none;stroke-width:2;marker:none;visibility:visible;display:inline;overflow:visible;enable-background:accumulate"
         d="m 364.31568,404.60398 5.53339,4.12422 -11.64623,-0.5408 z"
         id="path4739"
         inkscape:connector-curvature="0" />
      <path
         inkscape:connector-curvature="0"
         id="path4741"
         d="m 364.64835,404.39979 4.47469,-5.59401 1.41569,10.03125 z"
         style="color:#000000;fill:#5b718f;fill-opacity:1;fill-rule:evenodd;stroke:none;stroke-width:2;marker:none;visibility:visible;display:inline;overflow:visible;enable-background:accumulate"
         sodipodi:nodetypes="cccc" />
      <path
         inkscape:connector-curvature="0"
         id="path4744"
         d="m 357.86464,407.60868 3.82485,-3.20383 -3.05634,-5.60159 -1.28179,4.82605 0.0643,-7.67072 6.64316,8.44468 z"
         style="color:#000000;fill:#ffffff;fill-opacity:0.71480144;fill-rule:evenodd;stroke:none;stroke-width:2;marker:none;visibility:visible;display:inline;overflow:visible;enable-background:accumulate"
         sodipodi:nodetypes="ccccccc" />
      <path
         sodipodi:nodetypes="ccccccc"
         style="color:#000000;fill:#ffffff;fill-opacity:0.71480144;fill-rule:evenodd;stroke:none;stroke-width:2;marker:none;visibility:visible;display:inline;overflow:visible;enable-background:accumulate"
         d="m 364.64986,397.68441 -4.80357,-0.62933 4.56918,4.79415 3.80797,-3.37487 -3.41938,6.11061 -6.78538,-8.77726 z"
         id="path4746"
         inkscape:connector-curvature="0" />
      <path
         inkscape:connector-curvature="0"
         id="path4749"
         d="m 363.64444,404.84006 6.20463,3.88814 -8.00064,-0.36449 4.59021,-0.73962 z"
         style="color:#000000;fill:#ffffff;fill-opacity:0.71480144;fill-rule:evenodd;stroke:none;stroke-width:2;marker:none;visibility:visible;display:inline;overflow:visible;enable-background:accumulate"
         sodipodi:nodetypes="ccccc" />
      <path
         id="path4751"
         style="color:#000000;fill:none;stroke:#a5c3e0;stroke-width:2;stroke-linecap:round;stroke-linejoin:miter;stroke-miterlimit:4;stroke-opacity:1;stroke-dasharray:none;stroke-dashoffset:0;marker:none;visibility:visible;display:inline;overflow:visible;enable-background:accumulate"
         d="m 357.82144,395.90387 6.46511,8.72964 6.21787,4.29528 m -13.30953,-1.01327 7.20584,-3.48593 4.34014,-6.05882 m -11.19768,-2.77035 11.65449,2.58313 1.80614,10.96647 -14.30883,-1.04392 z"
         inkscape:connector-curvature="0"
         sodipodi:nodetypes="ccccccccccc" />
    </g>
  </g>
</svg>
