<?xml version="1.0" encoding="UTF-8" standalone="no"?>
<!-- Created with Inkscape (http://www.inkscape.org/) -->
<svg
   xmlns:dc="http://purl.org/dc/elements/1.1/"
   xmlns:cc="http://creativecommons.org/ns#"
   xmlns:rdf="http://www.w3.org/1999/02/22-rdf-syntax-ns#"
   xmlns:svg="http://www.w3.org/2000/svg"
   xmlns="http://www.w3.org/2000/svg"
   xmlns:sodipodi="http://sodipodi.sourceforge.net/DTD/sodipodi-0.dtd"
   xmlns:inkscape="http://www.inkscape.org/namespaces/inkscape"
   id="svg2440"
   sodipodi:version="0.32"
   inkscape:version="0.46"
   width="64"
   height="64"
   version="1.0"
   sodipodi:docname="Flake.svg"
   inkscape:output_extension="org.inkscape.output.svg.inkscape"
   inkscape:export-filename="/usr/share/games/hedgewars/Data/Themes/Olympics/Flake.png"
   inkscape:export-xdpi="90"
   inkscape:export-ydpi="90">
  <metadata
     id="metadata2445">
    <rdf:RDF>
      <cc:Work
         rdf:about="">
        <dc:format>image/svg+xml</dc:format>
        <dc:type
           rdf:resource="http://purl.org/dc/dcmitype/StillImage" />
      </cc:Work>
    </rdf:RDF>
  </metadata>
  <defs
     id="defs2443">
    <filter
       inkscape:collect="always"
       id="filter3510">
      <feGaussianBlur
         inkscape:collect="always"
         stdDeviation="1.206159"
         id="feGaussianBlur3512" />
    </filter>
  </defs>
  <sodipodi:namedview
     inkscape:window-height="1125"
     inkscape:window-width="1600"
     inkscape:pageshadow="2"
     inkscape:pageopacity="0.0"
     guidetolerance="10.0"
     gridtolerance="10.0"
     objecttolerance="10.0"
     borderopacity="1.0"
     bordercolor="#666666"
     pagecolor="#ffffff"
     id="base"
     showgrid="false"
     inkscape:zoom="2.0703125"
     inkscape:cx="-100.45676"
     inkscape:cy="46.336571"
     inkscape:window-x="0"
     inkscape:window-y="25"
     inkscape:current-layer="layer2" />
  <g
     inkscape:groupmode="layer"
     id="layer2"
     inkscape:label="main"
     style="display:inline">
    <g
       id="g3373"
       style="opacity:0.33000003999999999;filter:url(#filter3510)"
       transform="matrix(0.7488143,0,0,0.7488143,8.0404612,8.2318109)">
      <path
         sodipodi:nodetypes="ccccccccccc"
         id="path2550"
         d="M 19.926737,13.778107 C 14.10704,11.552508 6.6905586,17.551705 7.8353047,23.744995 C -2.0784822,28.138346 1.470417,38.597828 8.5510038,41.211688 C 6.6774867,50.188118 15.189369,52.235434 21.766446,50.467488 C 24.572652,56.727493 34.782679,59.772855 40.342412,52.134579 C 46.656073,54.409568 54.163622,50.348868 52.52462,44.686034 C 57.985673,45.172377 61.705462,40.299948 59.654841,34.807923 C 64.706836,30.993878 61.69305,22.942585 57.204283,20.642723 C 58.862993,16.170682 51.049879,10.914442 45.92901,13.99652 C 44.442865,9.2335917 40.008191,8.898709 35.357902,10.285558 C 33.158207,7.2992492 21.823885,8.0825791 19.926737,13.778107 z"
         style="opacity:0.5427729;fill:#d7d5c5;fill-opacity:1;fill-rule:evenodd;stroke:none;stroke-width:0.78921092px;stroke-linecap:butt;stroke-linejoin:miter;stroke-opacity:1" />
      <path
         sodipodi:nodetypes="ccccccccccccc"
         id="path3339"
         d="M 54.543523,15.714362 C 55.316048,18.559006 55.448566,21.185809 52.849948,23.147658 C 54.305224,28.639682 50.477528,33.523589 45.719667,33.037249 C 46.64214,37.930898 40.084059,44.77591 34.516709,43.302077 C 31.153832,48.451036 18.264516,44.522411 14.958499,38.828756 C 10.650841,39.986673 5.5388676,39.481931 3.0326305,36.491832 C 4.2401919,38.59134 6.1936702,40.328262 8.5538658,41.199548 C 6.6803492,50.175979 15.561944,51.462215 22.139022,49.69427 C 24.945226,55.954274 34.430707,58.730354 39.990441,51.092079 C 46.304101,53.367067 53.076229,49.17298 51.437226,43.510144 C 56.89828,43.99649 60.496214,40.290434 58.445594,34.798409 C 63.49759,30.984363 60.717295,23.464746 56.228527,21.164884 C 56.928295,19.278242 56.301982,17.195184 54.543523,15.714362 z"
         style="opacity:0.5427729;fill:#8b8660;fill-opacity:0.19018405;fill-rule:evenodd;stroke:none;stroke-width:0.78921092px;stroke-linecap:butt;stroke-linejoin:miter;stroke-opacity:1" />
      <path
         style="opacity:1;fill:none;fill-opacity:1;fill-rule:evenodd;stroke:#c3c1a8;stroke-width:0.82532275;stroke-linecap:round;stroke-linejoin:miter;stroke-miterlimit:4;stroke-dasharray:none;stroke-opacity:1"
         d="M 20.303482,47.326539 C 22.655473,57.487302 37.359355,61.65977 41.866333,48.862758 M 40.342412,52.134579 C 46.656073,54.409568 54.895104,50.087123 51.915052,42.91925 M 52.585578,44.816906 C 58.046631,45.303248 61.705462,40.299948 59.654841,34.807923 M 59.654841,34.807923 C 64.706836,30.993878 61.69305,22.942585 57.204283,20.642723 M 56.838542,21.820578 C 59.10682,14.913302 49.708829,10.271013 44.58796,14.716321 M 45.807096,13.669337 C 43.71436,7.7126022 37.642389,9.2485508 33.346327,11.332542 M 35.053118,10.481867 C 32.853422,7.4955584 21.823885,8.0825791 19.926737,13.778107 M 24.010844,15.217709 C 15.287249,10.370682 4.8788608,17.493671 8.2620024,27.605743 M 8.5510038,41.211688 C 6.6774867,50.188118 14.640757,52.169997 21.217835,50.402051 M 7.408607,24.072177 C -1.8956117,28.26922 1.1046762,39.448502 10.196838,41.866052"
         id="path3351"
         sodipodi:nodetypes="cccccccccccccccccccc" />
    </g>
  </g>
</svg>
