<?xml version="1.0" encoding="UTF-8" standalone="no"?>
<!-- Created with Inkscape (http://www.inkscape.org/) -->

<svg
   xmlns:dc="http://purl.org/dc/elements/1.1/"
   xmlns:cc="http://creativecommons.org/ns#"
   xmlns:rdf="http://www.w3.org/1999/02/22-rdf-syntax-ns#"
   xmlns:svg="http://www.w3.org/2000/svg"
   xmlns="http://www.w3.org/2000/svg"
   xmlns:sodipodi="http://sodipodi.sourceforge.net/DTD/sodipodi-0.dtd"
   xmlns:inkscape="http://www.inkscape.org/namespaces/inkscape"
   id="svg4233"
   sodipodi:version="0.32"
   inkscape:version="0.48.1 r9760"
   width="321"
   height="25"
   version="1.0"
   sodipodi:docname="Girder.svg"
   inkscape:output_extension="org.inkscape.output.svg.inkscape"
   inkscape:export-filename="Girder.png"
   inkscape:export-xdpi="90"
   inkscape:export-ydpi="90">
  <metadata
     id="metadata4238">
    <rdf:RDF>
      <cc:Work
         rdf:about="">
        <dc:format>image/svg+xml</dc:format>
        <dc:type
           rdf:resource="http://purl.org/dc/dcmitype/StillImage" />
        <dc:title />
      </cc:Work>
    </rdf:RDF>
  </metadata>
  <defs
     id="defs4236" />
  <sodipodi:namedview
     inkscape:window-height="824"
     inkscape:window-width="1434"
     inkscape:pageshadow="2"
     inkscape:pageopacity="0.0"
     guidetolerance="10.0"
     gridtolerance="10.0"
     objecttolerance="10.0"
     borderopacity="1.0"
     bordercolor="#666666"
     pagecolor="#ffffff"
     id="base"
     showgrid="false"
     inkscape:zoom="1.2269735"
     inkscape:cx="118.16047"
     inkscape:cy="93.99375"
     inkscape:window-x="0"
     inkscape:window-y="25"
     inkscape:current-layer="layer1"
     borderlayer="true"
     inkscape:window-maximized="0" />
  <g
     inkscape:groupmode="layer"
     id="layer1"
     inkscape:label="main">
    <path
       style="color:#000000;fill:#4b4e64;fill-opacity:1;fill-rule:evenodd;stroke:none;stroke-width:0.69999999;marker:none;visibility:visible;display:inline;overflow:visible;enable-background:accumulate"
       d="m 289.28125,1.3760994 c -2.357,0.02612 -4.58418,0.1026466 -6.40625,0.062171 -0.31859,-0.00734 -0.68929,-0.015318 -1.09375,0 -6.06692,0.2297652 -21.18371,2.8447108 -26.96875,2.797678 C 246.82712,4.1710266 228.56542,3.9624009 219.375,3.9872662 197.09922,4.0475341 181.85273,5.1197885 159.21875,5.4482761 150.9881,5.5677278 148.03662,4.5313844 141.40625,4.3913753 116.99827,3.8759679 99.06519,3.0407316 97.25,2.9614506 90.23717,2.6551563 87.43138,4.5627543 78.84375,4.0183514 70.256114,3.4739515 40.257036,6.2426656 29.875,5.4482761 19.250046,4.6353004 7.083165,4.0508353 -2.96875,2.5573415 -8.84196,1.6847077 -18.338826,2.1143403 -24.53125,1.5626113 L -28.0625,23.975126 c 11.965668,0.238419 13.624444,-0.61742 26.40625,-1.025815 6.56891,-0.209886 24.221186,0.07867 30.78125,-0.155427 7.02249,-0.250607 15.78201,-1.387551 22.8125,-1.616436 8.79584,-0.286361 16.083398,-0.525114 24.78125,-1.025816 7.963849,-0.458446 20.56495,0.850532 28.4375,0.248683 4.27551,-0.326861 24.74823,-1.936294 35.0625,-3.295045 14.32262,-1.886788 13.74314,1.544982 47.875,3.512642 20.87852,1.20362 28.83989,-1.361324 51.3125,0.248682 10.49187,0.751669 26.54958,2.143993 35.6875,0.963645 5.43879,-0.70253 10.45519,1.633863 17.84375,2.144887 11.96567,0.238419 13.62444,-0.61742 26.40625,-1.025815 6.56891,-0.209886 24.22118,0.07867 30.78125,-0.155427 0.82747,-0.02953 1.69247,-0.07314 2.5625,-0.124342 l 0,-17.12801 C 352.04,5.5184715 351.42024,5.4899953 350.875,5.4482761 340.25005,4.6353004 328.08317,4.0508353 318.03125,2.5573415 312.15804,1.6847077 302.66577,2.0606246 296.46875,1.5626113 c -2.3437,-0.1883473 -4.8305,-0.2126326 -7.1875,-0.1865119 z"
       id="path3039"
       inkscape:connector-curvature="0" />
    <path
       style="color:#000000;fill:#636885;fill-opacity:1;fill-rule:evenodd;stroke:none;stroke-width:0.69999999;marker:none;visibility:visible;display:inline;overflow:visible;enable-background:accumulate"
       d="M -31.71875 1.375 C -34.07575 1.40112 -36.30293 1.4779756 -38.125 1.4375 C -38.44359 1.43016 -38.81429 1.422182 -39.21875 1.4375 C -40.828795 1.4984753 -43.115046 1.72711 -45.65625 2.03125 L -45.65625 8.40625 C -45.428094 8.6688406 -45.16024 8.9296261 -44.75 9.125 C -42.52672 10.061803 -43.48905 11.194415 -43.125 12.28125 C -43.34974 13.221112 -40.92274 12.981621 -40.28125 12.34375 C -38.69778 11.575679 -37.63058 10.673233 -37.28125 9.71875 C -37.68909 8.737217 -36.04889 7.914415 -35.875 6.96875 C -34.18518 8.198922 -33.38495 9.5613093 -33.3125 10.90625 C -33.05426 11.766089 -33.3553 12.943087 -31.84375 13.59375 C -30.18252 12.55699 -29.60008 11.342526 -28.25 10.25 C -27.00363 9.3858093 -25.96793 8.464958 -25.1875 7.53125 C -24.26511 6.162218 -21.64883 7.694839 -19.5625 7.9375 C -16.61432 7.90604 -14.93312 8.719477 -14.90625 9.71875 C -14.54644 10.955828 -13.8294 12.162811 -12.96875 13.375 C -13.19057 14.127714 -12.02484 13.594726 -11.84375 13.21875 C -10.44563 12.342805 -10.25753 11.379547 -10.125 10.375 C -10.1498 9.4805523 -8.82983 8.711829 -8.0625 7.875 C -5.4489 7.488665 -1.81134 8.737258 -0.6875 9.65625 C 0.24279 10.58805 0.41982 9.419343 0.4375 9.0625 C 1.84786 8.536253 3.68082 10.011718 3.78125 10.5625 C 4.78252 11.484846 4.1145 12.486956 4.5625 13.4375 C 6.12153 13.44792 7.6536 11.905408 7.6875 11.1875 C 8.9649842 10.133214 7.9984158 7.2632434 11.40625 9.46875 C 9.7967357 7.3331983 16.434422 7.3660474 15.9375 8.5 C 16.01349 8.790168 17.03622 10.561659 17.0625 9.5625 C 17.804587 9.976612 17.94737 11.001662 19.125 11.5625 C 21.348281 12.499303 20.385953 13.631915 20.75 14.71875 C 20.525258 15.658612 22.952258 15.419121 23.59375 14.78125 C 25.177218 14.013179 26.213169 13.141983 26.5625 12.1875 C 26.154663 11.205967 27.794865 10.351915 27.96875 9.40625 C 29.658576 10.636422 30.490051 11.998809 30.5625 13.34375 C 30.820745 14.203589 30.5197 15.380587 32.03125 16.03125 C 33.692487 14.99449 34.243666 13.780026 35.59375 12.6875 C 36.840114 11.823309 37.87582 10.933708 38.65625 10 C 39.578647 8.630968 42.226167 10.132339 44.3125 10.375 C 47.260679 10.34354 48.910625 11.156977 48.9375 12.15625 C 49.297308 13.393328 50.045597 14.600311 50.90625 15.8125 C 50.68443 16.565214 51.850163 16.032226 52.03125 15.65625 C 53.42937 14.780305 53.617474 13.848297 53.75 12.84375 C 53.7252 11.949302 55.045176 11.149329 55.8125 10.3125 C 58.4261 9.926165 62.063666 11.174758 63.1875 12.09375 C 64.117795 13.02555 64.294818 11.856843 64.3125 11.5 C 65.722854 10.973753 67.555828 12.480468 67.65625 13.03125 C 68.65752 13.953596 67.958246 14.924456 68.40625 15.875 C 69.965279 15.88542 71.528602 14.342908 71.5625 13.625 C 71.82323 12.771636 72.320576 11.103957 75.75 11.78125 C 77.108225 12.044105 80.50494 10.597708 81 9.375 C 81.9232 9.155515 83.90159 10.11139 84.28125 10.53125 C 85.58686 11.253577 84.2694 12.746918 86.09375 13.1875 C 87.53817 12.200492 88.40415 11.092474 88.5 9.96875 C 89.1784 9.936 90.67247 9.559978 91.78125 9.59375 C 94.29734 10.733274 94.38295 9.4659045 97.09375 10.1875 C 100.07921 10.632165 98.547732 13.03492 101.34375 13.3125 C 103.13588 13.940968 109.93456 9.60255 111.71875 9.75 C 114.70425 10.359279 114.35875 11.678601 115.125 12.6875 C 115.56282 13.510773 115.7707 12.800554 116.375 12.375 C 116.70512 11.403449 118.37905 10.677406 119.9375 11.03125 C 122.16867 11.795427 124.61829 12.135438 127.09375 12.03125 C 127.51544 11.909739 130.21835 12.415221 129.6875 13.28125 C 130.67634 12.1384 130.13671 9.8584807 130.71875 11.28125 C 130.76695 12.249155 130.10479 11.567731 131.75 12.375 C 134.26968 11.188591 134.0464 9.601785 135.21875 8.21875 C 136.4711 7.335642 136.27303 9.476542 136.4375 8.5 C 136.91373 7.414915 137.88316 10.548687 137.90625 9.4375 C 138.63904 8.487468 137.48898 7.329114 139.1875 6.5 C 142.34574 5.754759 144.63689 7.256214 144.125 8.21875 C 144.201 8.508918 145.19247 10.28041 145.21875 9.28125 C 145.96084 9.695362 145.91612 6.532912 147.09375 7.09375 C 149.31703 8.030553 148.3547 9.1631654 148.71875 10.25 C 148.49401 11.189862 150.92101 10.950371 151.5625 10.3125 C 153.14597 9.5444294 154.18192 8.641983 154.53125 7.6875 C 154.12341 6.705967 155.76361 8.6331647 155.9375 7.6875 C 157.62732 8.917672 158.42755 7.498809 158.5 8.84375 C 158.75824 9.703589 158.4572 10.880587 159.96875 11.53125 C 161.62998 10.49449 162.21242 9.280026 163.5625 8.1875 C 164.80887 7.323309 165.84457 9.1837077 166.625 8.25 C 167.54739 6.880968 170.19492 8.413589 172.28125 8.65625 C 175.22943 8.62479 176.87938 6.688227 176.90625 7.6875 C 177.26606 8.924578 178.01435 10.131561 178.875 11.34375 C 178.65318 12.096464 179.78766 11.563476 179.96875 11.1875 C 181.36687 10.311555 181.58622 9.348297 181.71875 8.34375 C 181.69395 7.449302 183.01392 6.680579 183.78125 5.84375 C 186.39485 5.457415 190.00116 6.706008 191.125 7.625 C 192.05529 8.5568 192.26357 7.388093 192.28125 7.03125 C 193.69161 6.505003 195.49332 7.980468 195.59375 8.53125 C 196.59502 9.453596 195.927 10.455706 196.375 11.40625 C 197.93403 11.41667 199.49735 9.874158 199.53125 9.15625 C 199.79198 8.302886 200.28933 6.635207 203.71875 7.3125 C 205.07697 7.575355 208.16119 9.285208 208.65625 8.0625 C 209.57945 7.843015 211.58909 8.79889 211.96875 9.21875 C 213.27436 9.941077 211.92565 11.403168 213.75 11.84375 C 215.19442 10.856742 216.09165 9.748724 216.1875 8.625 C 216.8659 8.59225 218.35997 8.247478 219.46875 8.28125 C 221.98484 9.420774 222.63295 7.309655 225.34375 8.03125 C 228.32921 8.475915 231.23523 8.003673 234.03125 8.28125 C 235.82338 8.909718 237.62206 8.29001 239.40625 8.4375 C 242.39175 9.046779 242.04625 10.366101 242.8125 11.375 C 243.25032 12.198273 243.42695 11.4568 244.03125 11.03125 C 244.36137 10.059699 246.06655 9.364906 247.625 9.71875 C 249.85617 10.482927 252.30579 10.791688 254.78125 10.6875 C 255.23105 10.557888 258.27023 11.152693 257.21875 12.125 C 257.43929 12.10937 257.64392 11.863091 257.84375 11.4375 C 258.88407 12.442411 260.21005 13.476186 260.34375 14.53125 C 260.39195 15.499155 259.01104 16.786481 260.65625 17.59375 C 263.17593 16.407341 262.95265 14.789285 264.125 13.40625 C 265.37735 12.523142 265.46053 11.507792 265.625 10.53125 C 266.10123 9.4461653 266.85191 8.392437 266.875 7.28125 C 267.60779 6.331218 266.45773 5.172864 268.15625 4.34375 C 271.31449 3.598509 273.60564 5.099964 273.09375 6.0625 C 273.16975 6.352668 274.16122 8.124159 274.1875 7.125 C 274.92959 7.539112 275.07237 8.564162 276.25 9.125 C 278.47328 10.061803 277.51095 11.194415 277.875 12.28125 C 277.65026 13.221112 280.07726 12.981621 280.71875 12.34375 C 282.30222 11.575679 283.36942 10.673233 283.71875 9.71875 C 283.31091 8.737217 284.95111 7.914415 285.125 6.96875 C 286.81482 8.198922 287.61505 9.5613093 287.6875 10.90625 C 287.94574 11.766089 287.6447 12.943087 289.15625 13.59375 C 290.81748 12.55699 291.39992 11.342526 292.75 10.25 C 293.99637 9.3858093 295.03207 8.464958 295.8125 7.53125 C 296.73489 6.162218 299.35117 7.694839 301.4375 7.9375 C 304.38568 7.90604 306.06688 8.719477 306.09375 9.71875 C 306.45356 10.955828 307.1706 12.162811 308.03125 13.375 C 307.80943 14.127714 308.97516 13.594726 309.15625 13.21875 C 310.55437 12.342805 310.74247 11.379547 310.875 10.375 C 310.8502 9.4805523 312.17017 8.711829 312.9375 7.875 C 315.5511 7.488665 319.18866 8.737258 320.3125 9.65625 C 321.24279 10.58805 321.41982 9.419343 321.4375 9.0625 C 322.84786 8.536253 324.68082 10.011718 324.78125 10.5625 C 325.78252 11.484846 325.1145 12.486956 325.5625 13.4375 C 327.12153 13.44792 328.6536 11.905408 328.6875 11.1875 C 328.94823 10.334136 329.47683 8.666457 332.90625 9.34375 C 334.26447 9.606605 337.34869 11.316458 337.84375 10.09375 C 338.76695 9.8742653 340.77659 10.83014 341.15625 11.25 C 342.46186 11.972327 341.11315 13.434418 342.9375 13.875 C 344.38192 12.887992 345.27915 11.811224 345.375 10.6875 C 346.0534 10.65475 347.51622 10.278728 348.625 10.3125 C 350.4546 11.141118 351.31299 10.27 352.6875 10 L 352.6875 5.53125 C 352.04 5.5081895 351.42024 5.4792192 350.875 5.4375 C 340.25005 4.6245243 328.08317 4.0559938 318.03125 2.5625 C 312.15804 1.6898662 302.66577 2.0605133 296.46875 1.5625 C 294.12505 1.3741527 291.63825 1.3488793 289.28125 1.375 C 286.92425 1.40112 284.69707 1.4779756 282.875 1.4375 C 282.55641 1.43016 282.18571 1.422182 281.78125 1.4375 C 275.71433 1.6672652 260.59754 4.2970328 254.8125 4.25 C 246.82712 4.1850782 228.56542 3.9751347 219.375 4 C 197.09922 4.0602679 181.85273 5.1090124 159.21875 5.4375 C 150.9881 5.5569517 148.03662 4.5462591 141.40625 4.40625 C 116.99827 3.8908426 99.06519 3.048031 97.25 2.96875 C 90.23717 2.6624557 87.43138 4.5756529 78.84375 4.03125 C 70.256114 3.4868501 40.257036 6.2318895 29.875 5.4375 C 23.836438 4.9754553 17.301121 4.5811446 10.9375 4.0625 C 6.1065099 3.6685558 1.3684897 3.2069182 -2.96875 2.5625 C -8.84196 1.6898662 -18.33423 2.0605133 -24.53125 1.5625 C -26.87495 1.3741527 -29.36175 1.3488793 -31.71875 1.375 z "
       id="path3053" />
    <path
       style="color:#000000;fill:#3a3d4e;fill-opacity:1;stroke:none;stroke-width:1.99999976;marker:none;visibility:visible;display:inline;overflow:visible;enable-background:accumulate"
       d="m 160.8125,9.40625 c -0.0499,0.00355 -0.13541,0.030335 -0.21875,0.15625 -0.65707,1.076268 -1.64892,2.525881 -3.75,3.5 -1.57775,0.668984 -1.66805,1.967823 -5.9375,1.59375 -3.00101,-0.547138 -2.04635,-1.727522 -3.1875,-2.5625 -0.002,0.0055 -0.0296,-0.0058 -0.0312,0 -0.16539,0.581939 -0.81782,2.327784 -2.09375,1.6875 -2.08338,-0.911408 -3.70608,-3.8599571 -7.625,-4.34375 -1.38683,-0.067599 -2.0559,1.777297 -2.84375,1.96875 l -1.40625,4.1875 c -0.4559,0.03567 -0.93372,0.07811 -1.65625,0.1875 -4.49795,0.169374 -3.21903,-1.073591 -4.15625,-1.65625 -0.62529,0.537488 -1.58041,1.31834 -4.5,1.59375 -2.12286,0.08335 -2.76521,-0.793725 -5.3125,-0.75 -5.1554,-0.422268 -10.06119,0.238956 -14.96875,0.5 -4.012699,0.1887 -3.32701,-1.980625 -4,-2.3125 -0.60406,1.006027 -1.55267,1.966129 -2.3125,2.375 -1.20057,0.755992 -3.213956,1.017304 -6.71875,1.125 -3.338788,-0.08279 -5.942834,0.943836 -9.1875,0.46875 -1.831549,-0.537041 0.833254,-1.261199 0.5625,-1.90625 0.187976,-0.623827 1.541803,-1.904554 1.03125,-2.15625 -0.648264,0.656699 -1.459137,2.452156 -4.28125,2.71875 -1.924076,0.730243 -7.151191,0.148339 -9,0.875 -1.47661,0.622627 -4.507036,0.277529 -4.65625,-0.34375 0.737877,-1.258459 0.03693,-3.541148 -0.5,-4.1875 -1.140376,0.700333 -0.979812,2.084314 -2.09375,2.78125 -1.037373,0.80089 -2.409217,1.967751 -6.1875,2.03125 -2.417752,0.01812 -5.590033,-0.776005 -6.15625,0.25 -0.399004,0.656716 -1.823287,2.495852 -4.875,1.28125 C 43.192099,17.682175 44.749284,16.823751 44.625,16 c 0.241148,-0.800105 2.858772,-2.433535 1.15625,-3.21875 -0.835894,0.620667 -3.084181,2.013702 -3.625,2.625 -1.29257,0.843019 -2.17036,1.762564 -5.40625,2.15625 -2.758144,-0.286855 -0.03084,-1.47306 -0.5625,-2.125 0.169274,-1.076275 -0.562502,-2.445495 -0.9375,-3.15625 -0.512928,0.38699 -1.26376,1.368956 -1.96875,1.59375 -1.791015,0.780581 -1.39448,1.025981 -3.125,1.8125 -1.085588,0.799507 -3.093088,1.437205 -5.21875,2.0625 -1.24718,0.52433 -4.709159,0.593388 -3.46875,-0.25 0.450965,-1.426994 0.874783,-2.853865 1.3125,-4.28125 C 21.637907,12.612307 22.456493,11.118038 21,11.03125 c -0.890201,0.993803 -0.864527,1.992684 -1.53125,3 -0.65707,1.076268 -1.680172,2.525881 -3.78125,3.5 C 14.109742,18.200234 14.019453,19.499073 9.75,19.125 6.7304311,18.574478 7.7056658,17.367089 6.53125,16.53125 6.7935756,15.598012 6.7300839,14.649432 5,13.78125 2.9166255,12.869842 1.2939247,9.9212929 -2.625,9.4375 c -0.086677,-0.00423 -0.1686138,-0.00986 -0.25,0 -1.2207933,0.1478925 -1.8551414,1.789263 -2.59375,1.96875 l -4,11.90625 c 2.1336457,-0.133315 4.6311479,-0.273352 7.8125,-0.375 6.56891,-0.209886 24.221186,0.07785 30.78125,-0.15625 7.02249,-0.250607 15.78201,-1.364865 22.8125,-1.59375 8.79584,-0.286361 16.083398,-0.530548 24.78125,-1.03125 7.963849,-0.458446 20.56495,0.851849 28.4375,0.25 4.27551,-0.326861 24.74823,-1.953749 35.0625,-3.3125 14.32262,-1.886788 13.74314,1.56359 47.875,3.53125 20.87852,1.20362 28.83989,-1.360006 51.3125,0.25 10.49187,0.751669 26.54958,2.149098 35.6875,0.96875 5.43879,-0.70253 10.45519,1.613976 17.84375,2.125 8.86477,0.176633 12.31667,-0.283403 18.59375,-0.6875 l 0,0.03125 c 2.13365,-0.133315 4.63115,-0.273352 7.8125,-0.375 6.56891,-0.209886 24.22119,0.07785 30.78125,-0.15625 0.89723,-0.03202 1.83454,-0.06843 2.78125,-0.125 l 0,-8.03125 c -0.43045,0.310529 -0.72312,0.595783 -1.75,1.0625 -1.08559,0.799507 -3.09309,1.437205 -5.21875,2.0625 -1.24718,0.52433 -4.70916,0.593388 -3.46875,-0.25 0.45096,-1.426994 0.87478,-2.853865 1.3125,-4.28125 -1.14334,-0.606443 -0.32476,-2.100712 -1.78125,-2.1875 -0.8902,0.993803 -0.86453,1.992684 -1.53125,3 -0.65707,1.076268 -1.68017,2.525881 -3.78125,3.5 -1.57776,0.668984 -1.66805,1.967823 -5.9375,1.59375 -3.01957,-0.550522 -2.04433,-1.757911 -3.21875,-2.59375 0.26233,-0.933238 0.19883,-1.881818 -1.53125,-2.75 -2.08337,-0.911408 -3.70608,-3.8599571 -7.625,-4.34375 -1.72974,-0.1133508 -2.39348,1.138087 -2.84375,1.96875 l -2.35783,4.16999 c -1.04321,1.845003 -3.70882,0.639468 -4.82967,1.08001 -1.47661,0.622627 -4.50703,0.277529 -4.65625,-0.34375 0.73788,-1.258459 0.0369,-3.541148 -0.5,-4.1875 -1.14037,0.700333 -0.97981,2.084314 -2.09375,2.78125 -1.03738,0.80089 -2.37797,1.967751 -6.15625,2.03125 -2.41775,0.01812 -5.62128,-0.776005 -6.1875,0.25 -0.399,0.656716 -1.82329,2.495852 -4.875,1.28125 -1.5579,-0.786575 -7.2e-4,-1.644999 -0.125,-2.46875 0.24114,-0.800105 2.85877,-2.433535 1.15625,-3.21875 -0.8359,0.620667 -3.05293,2.013702 -3.59375,2.625 -1.131,0.737642 -1.95679,1.547835 -4.3125,2 -0.0993,-0.948333 -0.13313,-1.670549 -0.0312,-1.6875 -0.68893,-0.08841 -1.17328,-0.101606 -1.59375,-0.125 -0.007,-0.05278 -0.0237,-0.10871 -0.0625,-0.15625 0.16928,-1.076275 -0.53125,-2.445495 -0.90625,-3.15625 -0.51293,0.38699 -1.29501,1.368956 -2,1.59375 -1.62846,0.709733 -1.52501,0.961733 -2.78125,1.59375 -0.80436,-0.373764 -0.53924,-0.979588 -1.125,-1.34375 -0.62529,0.537488 -1.58041,1.31834 -4.5,1.59375 -1.16315,0.04567 -1.88961,-0.185768 -2.71875,-0.40625 0.20795,-0.702054 0.40986,-1.392159 0.625,-2.09375 -1.14334,-0.606443 -0.32475,-2.100712 -1.78125,-2.1875 -0.8902,0.993803 -0.86453,1.992684 -1.53125,3 -0.16736,0.274129 -0.3362,0.598284 -0.5625,0.90625 -4.21943,-0.271475 -8.27324,0.153048 -12.3125,0.4375 -0.14035,-0.55167 -0.55329,-1.087311 -1.5625,-1.59375 -2.08338,-0.911408 -3.70608,-3.8599571 -7.625,-4.34375 -1.38683,-0.067599 -2.08715,1.777297 -2.875,1.96875 l -1.75,5.15625 c -0.41143,0.01975 -0.78857,0.07957 -1.25,0.09375 -3.33879,-0.08279 -5.91158,0.943836 -9.15625,0.46875 -1.83155,-0.537041 0.83325,-1.261199 0.5625,-1.90625 0.18802,-0.623827 1.5418,-1.904554 1.03125,-2.15625 -0.64826,0.656699 -1.45913,2.452156 -4.28125,2.71875 -1.92407,0.730243 -7.15119,0.148339 -9,0.875 -1.47661,0.622627 -4.50703,0.277529 -4.65625,-0.34375 0.73788,-1.258459 0.0369,-3.541148 -0.5,-4.1875 -1.14037,0.700333 -1.01106,2.084314 -2.125,2.78125 -1.03738,0.80089 -2.37797,1.967751 -6.15625,2.03125 -2.41775,0.01812 -5.62128,-0.776005 -6.1875,0.25 -0.399,0.656716 -1.79204,2.495852 -4.84375,1.28125 -1.5579,-0.786575 -7.2e-4,-1.644999 -0.125,-2.46875 0.24114,-0.800105 2.85877,-2.433535 1.15625,-3.21875 -0.8359,0.620667 -3.08418,2.013702 -3.625,2.625 -1.29257,0.843019 -2.17036,1.762564 -5.40625,2.15625 -2.75815,-0.286855 -0.0309,-1.47306 -0.5625,-2.125 0.16928,-1.076275 -0.5625,-2.445495 -0.9375,-3.15625 -0.51293,0.38699 -1.26376,1.368956 -1.96875,1.59375 -1.79102,0.780581 -1.39448,1.025981 -3.125,1.8125 -1.08559,0.799507 -2.81184,0.437205 -4.9375,1.0625 -1.24718,0.52433 -4.99041,-3.55e-4 -3.75,-0.84375 0.45096,-1.426994 0.87479,-1.260115 1.3125,-2.6875 -1.14334,-0.606443 -0.32475,-2.100712 -1.78125,-2.1875 -0.77892,0.869578 -0.43167,-1.6498301 -0.78125,-1.625 z"
       id="path3834"
       inkscape:connector-curvature="0"
       sodipodi:nodetypes="sccccccccccccccccccccccccccccccccccccccccccccccsccssssssssscccssccccccccccccccscccccccccccccccccccccccccccccccccccccccccccccccccccccs" />
    <path
       id="path3788"
       d="m 289.28125,1.3760993 c -2.357,0.02612 -4.58418,0.1026467 -6.40625,0.062171 -0.31859,-0.00734 -0.68929,-0.015318 -1.09375,0 -6.06692,0.2297656 -21.18371,2.844711 -26.96875,2.7976782 C 246.82712,4.1710265 228.56542,3.9624008 219.375,3.987266 197.09922,4.0475341 181.85273,5.1197883 159.21875,5.448276 150.9881,5.5677277 148.03662,4.5313843 141.40625,4.3913751 116.99827,3.8759679 99.06519,3.0407315 97.25,2.9614505 90.23717,2.6551562 87.43138,4.5627541 78.84375,4.0183513 70.256114,3.4739514 40.257036,6.2426653 29.875,5.448276 19.250046,4.6353004 7.083165,4.0508353 -2.96875,2.5573414 -8.84196,1.6847076 -18.338826,2.1143402 -24.53125,1.5626112 L -28.0625,23.975125 c 11.965668,0.238419 13.624444,-0.61742 26.40625,-1.025815 6.56891,-0.209885 24.221186,0.07867 30.78125,-0.155427 7.02249,-0.250606 15.78201,-1.38755 22.8125,-1.616436 8.79584,-0.28636 16.083398,-0.525113 24.78125,-1.025816 7.963849,-0.458446 20.56495,0.850532 28.4375,0.248683 4.27551,-0.326861 24.74823,-1.936293 35.0625,-3.295044 14.32262,-1.886789 13.74314,1.544982 47.875,3.512641 20.87852,1.203621 28.83989,-1.361324 51.3125,0.248683 10.49187,0.75167 26.54958,2.143992 35.6875,0.963645 5.43879,-0.702531 10.45519,1.633862 17.84375,2.144886 11.96567,0.238419 13.62444,-0.61742 26.40625,-1.025815 6.56891,-0.209885 24.22118,0.07867 30.78125,-0.155427 0.82747,-0.02954 1.69247,-0.07313 2.5625,-0.124341 l 0,-17.1280101 C 352.04,5.5184713 351.42024,5.4899951 350.875,5.448276 340.25005,4.6353004 328.08317,4.0508353 318.03125,2.5573414 312.15804,1.6847076 302.66577,2.0606245 296.46875,1.5626112 c -2.3437,-0.1883472 -4.8305,-0.2126325 -7.1875,-0.1865119 z"
       style="color:#000000;fill:none;stroke:#2d2f3c;stroke-width:1.99999976;stroke-linecap:butt;stroke-linejoin:miter;stroke-miterlimit:4;stroke-opacity:1;stroke-dasharray:none;stroke-dashoffset:0;marker:none;visibility:visible;display:inline;overflow:visible;enable-background:accumulate"
       inkscape:connector-curvature="0" />
  </g>
</svg>
