<?xml version="1.0" encoding="UTF-8" standalone="no"?>
<!-- Created with Inkscape (http://www.inkscape.org/) -->

<svg
   xmlns:dc="http://purl.org/dc/elements/1.1/"
   xmlns:cc="http://creativecommons.org/ns#"
   xmlns:rdf="http://www.w3.org/1999/02/22-rdf-syntax-ns#"
   xmlns:svg="http://www.w3.org/2000/svg"
   xmlns="http://www.w3.org/2000/svg"
   xmlns:sodipodi="http://sodipodi.sourceforge.net/DTD/sodipodi-0.dtd"
   xmlns:inkscape="http://www.inkscape.org/namespaces/inkscape"
   id="svg2"
   sodipodi:version="0.32"
   inkscape:version="0.48.1 r9760"
   width="55"
   height="140"
   version="1.0"
   sodipodi:docname="Stalactite .svg"
   inkscape:output_extension="org.inkscape.output.svg.inkscape"
   inkscape:export-filename="Stalactite.png"
   inkscape:export-xdpi="90"
   inkscape:export-ydpi="90">
  <metadata
     id="metadata7">
    <rdf:RDF>
      <cc:Work
         rdf:about="">
        <dc:format>image/svg+xml</dc:format>
        <dc:type
           rdf:resource="http://purl.org/dc/dcmitype/StillImage" />
        <dc:title></dc:title>
      </cc:Work>
    </rdf:RDF>
  </metadata>
  <defs
     id="defs5">
    <inkscape:perspective
       sodipodi:type="inkscape:persp3d"
       inkscape:vp_x="0 : 130 : 1"
       inkscape:vp_y="0 : 1000 : 0"
       inkscape:vp_z="240 : 130 : 1"
       inkscape:persp3d-origin="120 : 86.666667 : 1"
       id="perspective45" />
  </defs>
  <sodipodi:namedview
     inkscape:window-height="824"
     inkscape:window-width="1434"
     inkscape:pageshadow="2"
     inkscape:pageopacity="0.0"
     guidetolerance="10.0"
     gridtolerance="10.0"
     objecttolerance="10.0"
     borderopacity="1.0"
     bordercolor="#666666"
     pagecolor="#ffffff"
     id="base"
     showgrid="false"
     inkscape:zoom="5.3740116"
     inkscape:cx="-29.695726"
     inkscape:cy="57.383838"
     inkscape:window-x="0"
     inkscape:window-y="25"
     inkscape:current-layer="layer2"
     showguides="true"
     inkscape:guide-bbox="true"
     inkscape:window-maximized="0"
     inkscape:snap-global="false"
     fit-margin-top="0"
     fit-margin-left="0"
     fit-margin-right="0"
     fit-margin-bottom="0">
    <sodipodi:guide
       orientation="1,0"
       position="12,57.763157"
       id="guide2457" />
    <sodipodi:guide
       orientation="0,1"
       position="139.18839,135.09461"
       id="guide2461" />
    <sodipodi:guide
       orientation="0,1"
       position="9.7924984,140.00249"
       id="guide3045" />
    <sodipodi:guide
       orientation="1,0"
       position="0,136.53674"
       id="guide3047" />
    <sodipodi:guide
       orientation="1,0"
       position="44,58.289473"
       id="guide3049" />
    <sodipodi:guide
       orientation="0,1"
       position="67.105262,79"
       id="guide3010" />
  </sodipodi:namedview>
  <g
     inkscape:groupmode="layer"
     id="layer1"
     inkscape:label="tmp"
     style="display:inline"
     transform="translate(-1.90625,-96.829468)" />
  <g
     inkscape:groupmode="layer"
     id="layer2"
     inkscape:label="main"
     transform="translate(-1.90625,-96.829468)">
    <path
       style="color:#000000;fill:#4b4e64;fill-opacity:1;fill-rule:evenodd;stroke:none;stroke-width:0.69999999;marker:none;visibility:visible;display:inline;overflow:visible;enable-background:accumulate"
       d="m 2.9064941,93.380823 c 0.7299794,6.004013 2.5435758,11.699027 4.0453097,17.469557 2.5701904,9.8762 5.7794152,19.05669 6.7221942,29.3293 0.921223,10.03775 2.546616,21.10561 3.047535,29.38394 0.500919,8.27832 0.26695,13.45839 0.355648,20.18855 0.07922,6.01114 -0.587718,12.08768 0.157674,18.03463 1.101103,8.78497 2.862554,23.39094 6.312031,25.5766 6.109748,3.4565 6.326761,-13.60285 7.462626,-17.59427 2.091476,-7.34944 4.270392,-14.6731 6.037705,-22.1405 1.930207,-8.15564 3.143058,-15.02693 4.585337,-23.32233 1.152809,-6.63048 2.910658,-11.53306 4.113079,-18.15122 1.12324,-6.18235 3.317819,-15.42803 4.385736,-21.62407 2.077956,-12.05625 4.508809,-24.20315 5.015916,-35.624657"
       id="path3039"
       inkscape:connector-curvature="0"
       sodipodi:nodetypes="csszsacsssssc" />
    <path
       style="color:#000000;fill:#636885;fill-opacity:1;fill-rule:evenodd;stroke:none;stroke-width:0.69999999;marker:none;visibility:visible;display:inline;overflow:visible;enable-background:accumulate"
       d="m 23.574861,233.26194 c -3.318224,-4.17231 -5.414372,-18.13144 -6.335753,-25.48251 -0.745393,-5.94696 -0.08482,-12.02131 -0.164042,-18.03244 -0.0887,-6.73016 0.140026,-11.90639 -0.360893,-20.18471 -0.500919,-8.27834 -2.113556,-19.3377 -3.034779,-29.37545 C 12.736616,129.91422 9.5238582,120.72636 6.9536672,110.85017 6.3963648,108.70869 3.990983,96.721593 3.4191027,94.581253 c 1.8941844,1e-5 5.5458695,-1.26753 7.9141683,1.31108 2.14431,2.334717 2.144394,8.539847 3.85943,8.539847 2.909357,0.19304 3.926665,3.55431 6.741755,4.62428 1.074087,0.91803 6.218744,-1.39051 6.244325,2.21269 -5.599418,0.28083 -9.978875,0.90921 -14.020305,2.70905 -0.326902,2.97068 6.736156,0.53473 7.214665,2.17918 -2.25438,0.49065 -3.350511,-0.2337 -5.411731,1.20076 -1.010325,1.39223 -0.64886,2.27245 0.167417,1.9944 0.662011,0.13501 2.640682,-0.89621 5.527452,0.0949 -3.044517,1.11007 -5.432267,1.50535 -4.243998,2.7457 1.962154,2.31531 5.546437,3.9762 8.018984,4.55735 2.815271,0.54171 9.435776,1.13949 7.908888,1.61097 -1.910348,1.33834 -6.490705,1.51264 -8.721394,1.63797 -2.225986,-0.59997 -4.695974,3.53944 -5.640805,4.48681 -0.04827,3.65839 4.535053,5.95776 7.575466,7.11204 1.958767,0.43149 6.529547,0.79538 7.895259,2.3725 -4.575942,-0.29066 -5.91054,-1.19953 -8.547975,-0.15316 -2.102028,0.99722 -3.434192,0.80818 -5.65517,1.34764 -1.70891,0.30628 -1.635636,1.51608 -0.944899,2.8265 3.600034,-0.9711 4.224214,0.22226 5.549269,0.46806 -4.087991,1.03099 -5.187817,3.16405 -5.084548,3.72518 -0.333549,2.79451 0.407044,5.96335 2.70765,6.20518 2.819183,0.60964 7.736435,-0.70977 10.453908,0.37039 1.754389,-0.0478 0.32162,1.40993 -0.56091,1.50061 -2.142548,1.1389 -4.366046,1.11917 -6.69292,1.02767 -2.059203,-0.21714 -3.092883,0.78865 -5.089425,1.33661 -1.125382,2.40198 -1.581167,7.6977 3.877535,6.8751 3.009077,0.45503 -2.563276,1.52293 -3.38724,1.46248 -1.337702,1.2262 -1.263945,2.29017 -0.0035,2.5048 2.391023,0.24452 7.288426,-0.49598 9.439441,0.13546 -0.114048,1.48362 -4.070072,2.10988 -5.727607,1.9867 -1.989801,0.063 -5.814915,1.40592 -4.557644,4.81112 0.233692,0.64855 -0.291343,1.90028 0.273331,2.92253 0.603158,1.09191 3.77708,0.66777 3.78576,1.3193 -0.239582,0.48457 -3.048757,0.50176 -3.567952,1.13466 -1.265225,1.54232 -1.228051,4.89033 -0.562102,5.21376 1.549114,1.39692 7.48138,-0.34441 8.335234,1.48443 -2.590905,0.17345 -9.200802,-0.18646 -8.344464,1.21983 0.05676,0.0932 -0.213804,1.30324 0.280936,1.52335 0.858225,0.38181 2.434387,1.05069 2.774033,1.26071 -0.174875,1.11049 -2.301605,1.56859 -2.321946,2.62945 2.403429,2.63741 -2.38768,0.22224 -0.964682,2.95421 0.760457,2.93299 -0.539597,4.64742 -0.147466,7.36424 1.289718,1.8389 0.163639,3.42452 0.345696,5.15178 1.139834,2.96866 2.544714,2.96438 4.802034,3.91084 1.858594,0.59421 -0.203709,0.86813 -1.327304,1.06732 -2.235816,0.39636 -1.970638,1.51705 -1.293141,3.07446 1.563607,2.28544 2.585831,3.18987 2.126523,5.51947 -1.051622,3.99586 0.291891,3.73 0.241223,5.93288 z"
       id="path3053"
       inkscape:connector-curvature="0"
       sodipodi:nodetypes="cssssscscccccccccccccccccccccccccccccccscsccssccccccscccc" />
    <path
       style="color:#000000;fill:#3a3d4e;fill-opacity:1;stroke:none;stroke-width:1.99999988;marker:none;visibility:visible;display:inline;overflow:visible;enable-background:accumulate"
       d="m 24.72515,230.25659 c -0.19103,-0.62294 1.493474,-1.28924 1.436685,-1.68069 -0.140331,-0.96731 0.0025,-1.59306 0.715589,-2.76871 0.364408,-1.6836 0.786536,-3.0864 0.06638,-3.59743 -1.087257,-0.77153 -3.041449,-0.54495 -4.048433,-1.68777 1.064465,-1.42563 3.908437,-0.0615 5.006475,-2.75684 0.442042,-1.99326 -2.163299,-2.84673 -1.804464,-5.25463 -0.263586,-1.59269 -2.355457,-3.2585 -1.189377,-4.24371 1.525896,-1.28922 3.016523,-3.20937 2.472068,-4.87108 -0.547805,-1.67192 0.747166,-3.58107 1.193228,-5.2447 0.776682,-1.77529 1.703065,-2.19256 1.045323,-2.87708 -1.7294,-1.79982 -8.255962,-1.3479 -9.264456,-1.48401 4.850698,-0.92065 7.1612,-1.10214 10.21545,-0.98475 1.705567,-1.62602 2.418688,-3.15204 3.057303,-6.45141 0.04326,-3.19619 3.473886,-5.3512 2.312993,-8.57027 -1.474873,-1.89405 -3.92351,0.42629 -5.865826,-0.0157 -1.918243,7e-5 -3.607972,0.38721 -4.330009,-0.16997 2.059203,-0.42797 5.819443,-1.02762 6.881973,-3.63286 0.4692,-0.29823 -8.144998,-0.62691 -10.51304,-0.6373 3.477819,-1.94866 11.894821,-2.70236 11.971597,-3.09797 0.36234,-1.8671 -1.286876,-2.64981 0.314454,-3.69236 2.02868,-1.2248 2.507405,-7.43259 0.626789,-7.75224 -3.901457,-0.28978 -9.461044,-0.47555 -12.524385,-0.0672 2.23578,-0.88308 6.143105,-1.96045 8.366188,-2.81937 2.533188,-0.75642 6.151766,1.52983 6.679872,-2.04207 0.269328,-2.29213 -3.267735,-4.41969 -0.09006,-4.66397 1.901492,-0.3473 3.540643,-2.18195 -0.927754,-2.71467 -2.262923,-0.59203 -5.55539,-2.33251 -15.085819,-1.20502 1.749649,-2.25226 12.888963,-2.09578 19.800255,-0.59254 2.684202,-0.98684 -1.52507,-5.7779 -0.03849,-8.73991 -0.630195,-2.70287 -4.707537,-1.99966 -6.647754,-2.69148 -3.295767,-0.14728 -7.323386,-1.2072 -9.456758,-1.767 1.225066,-0.37659 4.240302,-0.82555 4.987962,-1.43107 2.538008,-1.47832 4.787255,0.21667 7.338007,-1.20249 2.533236,-0.80262 2.979327,-1.18305 5.073613,-3.0238 1.708731,-1.03495 2.005503,-1.97712 -0.360547,-2.53769 -4.22078,-0.77582 -8.425685,-1.61673 -13.054587,-1.18242 -2.143372,0.2011 -10.214445,-0.55959 -11.294002,-0.6283 3.108206,-1.31021 10.809101,-2.09423 13.93871,-2.43935 3.338936,-0.31623 6.920977,2.06072 10.076396,0.34317 1.384544,-0.83091 3.400851,-1.95533 4.254753,-3.00503 0.832524,-1.02342 -13.469071,-4.82473 -18.451386,-4.1548 3.743447,-2.324 14.696089,-0.42978 19.711774,1.60573 -1.410772,-3.02677 -4.08241,-5.5179 -6.526286,-6.8731 -2.867992,-0.018 -5.856478,-0.35676 -8.349745,-2.24921 -2.593755,-2.24053 -11.43162,-4.63019 -12.559352,-8.492397 -0.08326,-1.3371 5.60677,-1.45877 6.260136,-2.15257 l 27.968858,0.847951 c -0.507109,11.421566 -3.5575,23.526586 -5.63546,35.582856 -1.067911,6.19604 -2.957158,15.31012 -4.080403,21.49248 -1.202415,6.6182 -2.88286,11.29656 -4.035665,17.92704 -1.44228,8.29539 -2.960172,15.65744 -4.890378,23.81309 -1.767314,7.4674 -3.980145,15.00667 -6.071627,22.35612 -0.858657,3.01733 -1.883798,13.97805 -4.64388,16.514 z"
       id="path3834"
       inkscape:connector-curvature="0"
       sodipodi:nodetypes="cscscccsscsccccccccsccccccccccccccccscccscccccccssssscc" />
    <path
       sodipodi:nodetypes="cc"
       inkscape:connector-curvature="0"
       id="path3799"
       d="m 26.500609,119.60377 c 11.540376,-1.19807 18.98427,1.77075 24.710855,4.619"
       style="color:#000000;fill:none;stroke:#323442;stroke-width:0.99999994;stroke-linecap:round;stroke-linejoin:miter;stroke-miterlimit:4;stroke-opacity:1;stroke-dasharray:none;stroke-dashoffset:0;marker:none;visibility:visible;display:inline;overflow:visible;enable-background:accumulate" />
    <path
       style="color:#000000;fill:none;stroke:#323442;stroke-width:0.99999994;stroke-linecap:round;stroke-linejoin:miter;stroke-miterlimit:4;stroke-opacity:1;stroke-dasharray:none;stroke-dashoffset:0;marker:none;visibility:visible;display:inline;overflow:visible;enable-background:accumulate"
       d="m 9.5081422,115.98645 c 2.2840628,-1.37069 5.0400318,-2.28706 7.6323908,-2.90268 m 27.261987,0.0876 c 2.771691,0.71495 5.447061,1.70867 7.654002,3.10501"
       id="path3029"
       inkscape:connector-curvature="0"
       sodipodi:nodetypes="cccc" />
    <path
       style="color:#000000;fill:none;stroke:#323442;stroke-width:0.99999994;stroke-linecap:round;stroke-linejoin:miter;stroke-miterlimit:4;stroke-opacity:1;stroke-dasharray:none;stroke-dashoffset:0;marker:none;visibility:visible;display:inline;overflow:visible;enable-background:accumulate"
       d="m 17.30579,194.40162 c 9.000772,-3.38543 15.131673,-1.34767 19.290943,1.11588"
       id="path3805"
       inkscape:connector-curvature="0"
       sodipodi:nodetypes="cc" />
    <path
       sodipodi:nodetypes="cccccc"
       inkscape:connector-curvature="0"
       id="path3803"
       d="m 16.952826,175.04707 c 0.877419,-0.47409 1.760875,-0.8288 2.62454,-1.08797 m 7.559719,-0.73474 c 3.67747,0.0385 6.604257,0.54086 9.140306,1.38303 m 2.301678,0.89772 c 0.670069,0.30115 1.317141,0.62728 1.949834,0.97542"
       style="color:#000000;fill:none;stroke:#323442;stroke-width:0.99999994;stroke-linecap:round;stroke-linejoin:miter;stroke-miterlimit:4;stroke-opacity:1;stroke-dasharray:none;stroke-dashoffset:0;marker:none;visibility:visible;display:inline;overflow:visible;enable-background:accumulate" />
    <path
       style="color:#000000;fill:none;stroke:#323442;stroke-width:0.99999994;stroke-linecap:round;stroke-linejoin:miter;stroke-miterlimit:4;stroke-opacity:1;stroke-dasharray:none;stroke-dashoffset:0;marker:none;visibility:visible;display:inline;overflow:visible;enable-background:accumulate"
       d="m 14.518526,147.41453 c 6.157938,-2.65755 11.199543,-3.57256 15.419029,-3.70102"
       id="path3801"
       inkscape:connector-curvature="0"
       sodipodi:nodetypes="cc" />
    <path
       sodipodi:nodetypes="csszsacsssssc"
       inkscape:connector-curvature="0"
       id="path3828"
       d="m 2.9064941,93.380813 c 0.7299794,6.004013 2.5435767,11.699027 4.0453097,17.469557 2.5701914,9.8762 5.7794162,19.05669 6.7221942,29.3293 0.921224,10.03775 2.546616,21.10561 3.047535,29.38395 0.500919,8.27832 0.26695,13.45839 0.355648,20.18855 0.07922,6.01113 -0.69822,12.0841 0.157675,18.03463 1.321543,9.18791 3.513836,24.87959 7.614596,26.78611 3.830258,-2.35851 5.024196,-14.81236 6.160061,-18.80378 2.091476,-7.34945 4.270391,-14.67311 6.037704,-22.1405 1.930207,-8.15565 3.143058,-15.02693 4.585338,-23.32233 1.152809,-6.63049 2.910658,-11.53306 4.113079,-18.15123 1.123239,-6.18235 3.317819,-15.42803 4.385736,-21.62407 2.077956,-12.05625 5.100914,-24.20315 5.608021,-35.624657"
       style="color:#000000;fill:none;stroke:#2d2f3c;stroke-width:1.99999988;stroke-miterlimit:4;stroke-opacity:1;stroke-dasharray:none;marker:none;visibility:visible;display:inline;overflow:visible;enable-background:accumulate" />
    <path
       sodipodi:type="arc"
       style="color:#000000;fill:#2d2f3c;fill-opacity:1;fill-rule:nonzero;stroke:none;stroke-width:1;marker:none;visibility:visible;display:inline;overflow:visible;enable-background:accumulate"
       id="path3809"
       sodipodi:cx="51.513157"
       sodipodi:cy="253.0921"
       sodipodi:rx="1.5131578"
       sodipodi:ry="1.5131578"
       d="m 53.026315,253.0921 a 1.5131578,1.5131578 0 1 1 -3.026316,0 1.5131578,1.5131578 0 1 1 3.026316,0 z"
       transform="matrix(0.55140088,0,0,-0.55255119,19.669911,247.5528)" />
    <path
       transform="matrix(0.36760058,0,0,-0.36836745,27.803075,197.25852)"
       d="m 53.026315,253.0921 a 1.5131578,1.5131578 0 1 1 -3.026316,0 1.5131578,1.5131578 0 1 1 3.026316,0 z"
       sodipodi:ry="1.5131578"
       sodipodi:rx="1.5131578"
       sodipodi:cy="253.0921"
       sodipodi:cx="51.513157"
       id="path3811"
       style="color:#000000;fill:#2d2f3c;fill-opacity:1;fill-rule:nonzero;stroke:none;stroke-width:1;marker:none;visibility:visible;display:inline;overflow:visible;enable-background:accumulate"
       sodipodi:type="arc" />
    <path
       sodipodi:type="arc"
       style="color:#000000;fill:#2d2f3c;fill-opacity:1;fill-rule:nonzero;stroke:none;stroke-width:1;marker:none;visibility:visible;display:inline;overflow:visible;enable-background:accumulate"
       id="path3813"
       sodipodi:cx="51.513157"
       sodipodi:cy="253.0921"
       sodipodi:rx="1.5131578"
       sodipodi:ry="1.5131578"
       d="m 53.026315,253.0921 a 1.5131578,1.5131578 0 1 1 -3.026316,0 1.5131578,1.5131578 0 1 1 3.026316,0 z"
       transform="matrix(0.55140088,0,0,-0.55255119,15.609376,245.49042)" />
    <path
       transform="matrix(0.55140088,0,0,-0.55255119,12.105079,272.41275)"
       d="m 53.026315,253.0921 a 1.5131578,1.5131578 0 1 1 -3.026316,0 1.5131578,1.5131578 0 1 1 3.026316,0 z"
       sodipodi:ry="1.5131578"
       sodipodi:rx="1.5131578"
       sodipodi:cy="253.0921"
       sodipodi:cx="51.513157"
       id="path3815"
       style="color:#000000;fill:#2d2f3c;fill-opacity:1;fill-rule:nonzero;stroke:none;stroke-width:1;marker:none;visibility:visible;display:inline;overflow:visible;enable-background:accumulate"
       sodipodi:type="arc" />
    <path
       sodipodi:type="arc"
       style="color:#000000;fill:#2d2f3c;fill-opacity:1;fill-rule:nonzero;stroke:none;stroke-width:1;marker:none;visibility:visible;display:inline;overflow:visible;enable-background:accumulate"
       id="path3817"
       sodipodi:cx="51.513157"
       sodipodi:cy="253.0921"
       sodipodi:rx="1.5131578"
       sodipodi:ry="1.5131578"
       d="m 53.026315,253.0921 a 1.5131578,1.5131578 0 1 1 -3.026316,0 1.5131578,1.5131578 0 1 1 3.026316,0 z"
       transform="matrix(0.36760058,0,0,-0.36836745,19.848875,223.17753)" />
    <path
       transform="matrix(0.55140088,0,0,-0.55255119,15.275634,268.67818)"
       d="m 53.026315,253.0921 a 1.5131578,1.5131578 0 1 1 -3.026316,0 1.5131578,1.5131578 0 1 1 3.026316,0 z"
       sodipodi:ry="1.5131578"
       sodipodi:rx="1.5131578"
       sodipodi:cy="253.0921"
       sodipodi:cx="51.513157"
       id="path3819"
       style="color:#000000;fill:#2d2f3c;fill-opacity:1;fill-rule:nonzero;stroke:none;stroke-width:1;marker:none;visibility:visible;display:inline;overflow:visible;enable-background:accumulate"
       sodipodi:type="arc" />
    <path
       sodipodi:type="arc"
       style="color:#000000;fill:#2d2f3c;fill-opacity:1;fill-rule:nonzero;stroke:none;stroke-width:1;marker:none;visibility:visible;display:inline;overflow:visible;enable-background:accumulate"
       id="path3821"
       sodipodi:cx="51.513157"
       sodipodi:cy="253.0921"
       sodipodi:rx="1.5131578"
       sodipodi:ry="1.5131578"
       d="m 53.026315,253.0921 a 1.5131578,1.5131578 0 1 1 -3.026316,0 1.5131578,1.5131578 0 1 1 3.026316,0 z"
       transform="matrix(0.40436064,0,0,-0.4052042,16.620278,274.41696)" />
    <path
       transform="matrix(0.55140088,0,0,-0.55255119,7.4883065,308.47641)"
       d="m 53.026315,253.0921 a 1.5131578,1.5131578 0 1 1 -3.026316,0 1.5131578,1.5131578 0 1 1 3.026316,0 z"
       sodipodi:ry="1.5131578"
       sodipodi:rx="1.5131578"
       sodipodi:cy="253.0921"
       sodipodi:cx="51.513157"
       id="path3823"
       style="color:#000000;fill:#2d2f3c;fill-opacity:1;fill-rule:nonzero;stroke:none;stroke-width:1;marker:none;visibility:visible;display:inline;overflow:visible;enable-background:accumulate"
       sodipodi:type="arc" />
    <path
       sodipodi:type="arc"
       style="color:#000000;fill:#2d2f3c;fill-opacity:1;fill-rule:nonzero;stroke:none;stroke-width:1;marker:none;visibility:visible;display:inline;overflow:visible;enable-background:accumulate"
       id="path3825"
       sodipodi:cx="51.513157"
       sodipodi:cy="253.0921"
       sodipodi:rx="1.5131578"
       sodipodi:ry="1.5131578"
       d="m 53.026315,253.0921 a 1.5131578,1.5131578 0 1 1 -3.026316,0 1.5131578,1.5131578 0 1 1 3.026316,0 z"
       transform="matrix(0.34345458,0,0,-0.34417108,10.373531,296.01192)" />
    <path
       transform="matrix(0.34345458,0,0,-0.34417108,12.654783,294.27771)"
       d="m 53.026315,253.0921 a 1.5131578,1.5131578 0 1 1 -3.026316,0 1.5131578,1.5131578 0 1 1 3.026316,0 z"
       sodipodi:ry="1.5131578"
       sodipodi:rx="1.5131578"
       sodipodi:cy="253.0921"
       sodipodi:cx="51.513157"
       id="path3827"
       style="color:#000000;fill:#2d2f3c;fill-opacity:1;fill-rule:nonzero;stroke:none;stroke-width:1;marker:none;visibility:visible;display:inline;overflow:visible;enable-background:accumulate"
       sodipodi:type="arc" />
    <path
       sodipodi:type="arc"
       style="color:#000000;fill:#2d2f3c;fill-opacity:1;fill-rule:nonzero;stroke:none;stroke-width:1;marker:none;visibility:visible;display:inline;overflow:visible;enable-background:accumulate"
       id="path3829"
       sodipodi:cx="51.513157"
       sodipodi:cy="253.0921"
       sodipodi:rx="1.5131578"
       sodipodi:ry="1.5131578"
       d="m 53.026315,253.0921 a 1.5131578,1.5131578 0 1 1 -3.026316,0 1.5131578,1.5131578 0 1 1 3.026316,0 z"
       transform="matrix(0.34345458,0,0,-0.34417108,11.396161,291.00635)" />
  </g>
</svg>
