<?xml version="1.0" encoding="UTF-8" standalone="no"?>
<!-- Created with Inkscape (http://www.inkscape.org/) -->

<svg
   xmlns:dc="http://purl.org/dc/elements/1.1/"
   xmlns:cc="http://creativecommons.org/ns#"
   xmlns:rdf="http://www.w3.org/1999/02/22-rdf-syntax-ns#"
   xmlns:svg="http://www.w3.org/2000/svg"
   xmlns="http://www.w3.org/2000/svg"
   xmlns:sodipodi="http://sodipodi.sourceforge.net/DTD/sodipodi-0.dtd"
   xmlns:inkscape="http://www.inkscape.org/namespaces/inkscape"
   id="svg2"
   sodipodi:version="0.32"
   inkscape:version="0.48.1 r9760"
   width="64"
   height="162"
   version="1.0"
   sodipodi:docname="Stalactite02.svg"
   inkscape:output_extension="org.inkscape.output.svg.inkscape"
   inkscape:export-filename="Stalagmite02.png"
   inkscape:export-xdpi="90"
   inkscape:export-ydpi="90">
  <metadata
     id="metadata7">
    <rdf:RDF>
      <cc:Work
         rdf:about="">
        <dc:format>image/svg+xml</dc:format>
        <dc:type
           rdf:resource="http://purl.org/dc/dcmitype/StillImage" />
        <dc:title></dc:title>
      </cc:Work>
    </rdf:RDF>
  </metadata>
  <defs
     id="defs5">
    <inkscape:perspective
       sodipodi:type="inkscape:persp3d"
       inkscape:vp_x="0 : 130 : 1"
       inkscape:vp_y="0 : 1000 : 0"
       inkscape:vp_z="240 : 130 : 1"
       inkscape:persp3d-origin="120 : 86.666667 : 1"
       id="perspective45" />
  </defs>
  <sodipodi:namedview
     inkscape:window-height="824"
     inkscape:window-width="1434"
     inkscape:pageshadow="2"
     inkscape:pageopacity="0.0"
     guidetolerance="10.0"
     gridtolerance="10.0"
     objecttolerance="10.0"
     borderopacity="1.0"
     bordercolor="#666666"
     pagecolor="#ffffff"
     id="base"
     showgrid="false"
     inkscape:zoom="2.6870058"
     inkscape:cx="-88.785874"
     inkscape:cy="73.963999"
     inkscape:window-x="0"
     inkscape:window-y="25"
     inkscape:current-layer="layer2"
     showguides="true"
     inkscape:guide-bbox="true"
     inkscape:window-maximized="0"
     inkscape:snap-global="false">
    <sodipodi:guide
       orientation="1,0"
       position="1,-6.3157894"
       id="guide2457" />
    <sodipodi:guide
       orientation="1,0"
       position="63,-11.723086"
       id="guide2459" />
    <sodipodi:guide
       orientation="0,1"
       position="13.223684,3.0921052"
       id="guide2461" />
    <sodipodi:guide
       orientation="0,1"
       position="97.631578,43"
       id="guide3045" />
    <sodipodi:guide
       orientation="1,0"
       position="11,41.842105"
       id="guide3047" />
    <sodipodi:guide
       orientation="1,0"
       position="56,23.68421"
       id="guide3049" />
  </sodipodi:namedview>
  <g
     inkscape:groupmode="layer"
     id="layer1"
     inkscape:label="tmp"
     style="display:inline"
     transform="translate(0,-98)" />
  <g
     inkscape:groupmode="layer"
     id="layer2"
     inkscape:label="main"
     transform="translate(0,-98)">
    <path
       style="color:#000000;fill:#4b4e64;fill-opacity:1;fill-rule:evenodd;stroke:none;stroke-width:0.69999999;marker:none;visibility:visible;display:inline;overflow:visible;enable-background:accumulate"
       d="M 0.36574672,265.60261 C 1.2291358,258.51609 3.3741818,251.7943 5.1503698,244.98336 8.1902838,233.32653 11.986021,222.49083 13.1011,210.36611 c 1.089584,-11.84751 3.012031,-24.91086 3.604497,-34.68174 0.592466,-9.77087 0.315737,-15.88489 0.420646,-23.82847 0.0937,-7.09492 -0.695128,-14.26704 0.18649,-21.2862 1.302339,-10.36886 3.385709,-27.60823 7.465607,-30.18795 7.226354,-4.079707 7.483028,16.05538 8.826481,20.76644 2.473711,8.67452 5.050841,17.3186 7.141145,26.13234 2.282968,9.62607 3.717478,17.73623 5.423345,27.52725 1.363495,7.82593 3.442605,13.61243 4.864778,21.42382 1.328521,7.297 3.924178,18.20964 5.187265,25.5228 2.45772,14.22994 5.332831,28.56687 5.932616,42.04764"
       id="path3039"
       inkscape:connector-curvature="0"
       sodipodi:nodetypes="csszsacsssssc" />
    <path
       style="color:#000000;fill:#636885;fill-opacity:1;fill-rule:evenodd;stroke:none;stroke-width:0.69999999;marker:none;visibility:visible;display:inline;overflow:visible;enable-background:accumulate"
       d="m 24.811427,100.5015 c -3.924656,4.92456 -6.403893,21.40046 -7.493664,30.0769 -0.881619,7.01917 -0.10032,14.1887 -0.194022,21.28362 -0.104909,7.94358 0.165617,14.05306 -0.426849,23.82393 -0.592466,9.77089 -2.499825,22.8242 -3.58941,34.67172 -1.115078,12.12472 -4.9149932,22.96911 -7.9549082,34.62594 -0.659154,2.52758 -3.504139,16.67591 -4.18053508,19.20214 2.24036208,-10e-6 6.55942208,1.49606 9.36054728,-1.54746 2.5362,-2.75566 2.5363,-10.07955 4.564773,-10.07955 3.441065,-0.22785 4.333043,-1.86561 7.662613,-3.1285 1.270386,-1.08354 7.936977,1.01209 7.696779,-0.63152 -0.670072,-4.58512 -19.344941,-3.89677 -18.216705,-7.35182 0.22791,-0.69794 21.338924,3.68485 23.002498,3.18111 4.842369,-1.00139 12.657083,0.15319 15.82165,-2.8255 -3.49785,-2.52274 -8.776014,0.47254 -12.668744,-0.48893 -2.538375,-1.1789 -4.364774,-1.77054 -7.043907,-1.70551 -3.00766,-0.25688 -5.990672,-2.38892 -9.022031,-2.13095 -2.666386,-0.57912 -3.885032,1.51825 -6.322957,-0.17484 -2.362165,-3.35157 0.711004,-6.72001 3.388349,-6.39183 0.782999,-0.15936 3.43454,-0.80584 6.848891,-1.97565 -3.600927,-1.31022 -6.269432,-1.93206 -4.863997,-3.39605 2.320753,-2.73275 3.91445,-3.06241 6.838875,-3.74834 3.329785,-0.63938 11.160242,-1.34494 9.354302,-1.90142 -2.259479,-1.57964 -7.676934,-1.78537 -10.3153,-1.9333 -2.632803,0.70815 -5.087323,-0.91623 -7.683277,-0.86965 -0.05709,-4.31798 6.842319,-2.52816 10.438392,-3.89055 2.316748,-0.50929 5.54411,-0.47287 7.159417,-2.33434 -3.000029,-1.59822 -6.368235,-1.9232 -9.487683,-3.15822 -2.48619,-1.17702 -5.734799,-1.22567 -8.361679,-1.86239 -2.021227,-0.36151 -1.934562,-1.01292 -1.117587,-2.5596 4.25797,1.14618 8.381091,2.57217 14.461466,2.90302 -9.503886,-3.15815 -12.283162,-6.99587 -12.16102,-7.65816 -0.394508,-3.29836 0.481435,-9.36805 3.202495,-9.65348 3.334412,-0.71956 9.150332,0.83774 12.364445,-0.43717 2.075018,0.0564 0.380399,-1.66414 -0.663421,-1.77117 -2.534116,-1.34423 -5.163976,-1.32095 -7.916105,-1.21295 -2.43554,0.25629 -3.658133,-0.93084 -6.01956,-1.5776 -1.331054,-2.83504 -1.870138,-9.08556 4.586187,-8.11465 3.55901,-0.53707 -3.031736,-1.7975 -4.006286,-1.72616 -1.582178,-1.44728 -1.494941,-2.70307 -0.0041,-2.9564 2.828002,-0.28861 8.620446,0.5854 11.164576,-0.15988 -0.134891,-1.75111 -4.813911,-2.49029 -6.774373,-2.3449 -2.353454,-0.0744 -6.877639,-1.6594 -5.390591,-5.67854 0.574262,-1.59041 4.917539,-5.50144 1.532775,-5.7443 -0.694971,-0.9793 1.713921,-3.46566 2.818636,-3.99871 1.832227,-1.64879 5.96958,-0.52532 6.979483,-2.68389 -2.841708,-1.36777 -9.371979,-2.45125 -4.583211,-2.08559 -0.206835,-1.3107 -5.873672,-2.78322 -5.897731,-4.03535 2.842676,-3.11292 -2.824048,-2.66948 -1.140985,-5.89401 0.899437,-3.4618 -0.716026,-6.61128 -0.252229,-9.81793 1.525424,-2.17045 -0.351146,-4.00313 -0.135816,-6.0418 1.348147,-3.5039 4.994013,-3.46002 7.663876,-4.57712 2.198267,-0.70135 0.198114,-0.72957 -1.025188,-1.29858 -2.682877,-0.12202 -4.781899,-1.82939 -3.980584,-3.6676 1.849369,-2.69749 3.525291,-3.76499 2.982041,-6.51461 -0.400405,-0.47133 1.101258,-3.70034 3.861743,-2.7695 -0.840871,-3.1148 -4.879696,-3.07506 -4.860349,-3.26241 z"
       id="path3053"
       inkscape:connector-curvature="0"
       sodipodi:nodetypes="cssssscsccssccccccccccccccccccccccccccccccccccccccccccccc" />
    <path
       style="color:#000000;fill:#3a3d4e;fill-opacity:1;stroke:none;stroke-width:1.99999988;marker:none;visibility:visible;display:inline;overflow:visible;enable-background:accumulate"
       d="m 28.700865,104.20401 c -0.784266,2.55211 -0.623383,2.91419 0.561387,4.86334 0.431006,1.98715 0.38559,3.87582 -0.46618,4.47899 -1.285962,0.91063 -3.597299,0.6432 -4.788317,1.99207 1.259005,1.68266 4.622735,0.0726 5.921449,3.25389 0.522829,2.35263 -2.558659,3.35998 -2.134244,6.20201 -0.311759,1.87985 -2.785937,3.846 -1.406746,5.00884 1.804766,1.52166 3.567817,3.78801 2.923859,5.74931 -0.647921,1.97337 1.3895,3.91612 1.917084,5.87969 0.918627,2.09537 1.950317,5.69551 0.925113,6.15244 -2.239995,0.99838 -11.826852,-0.58332 -13.019657,-0.42267 3.98641,4.58094 11.550652,2.95998 13.132884,3.6083 2.824998,1.15755 3.677759,1.00255 4.433086,4.89679 0.05116,3.77245 4.108768,6.316 2.735712,10.11545 -1.744418,2.23554 -4.640564,-0.50315 -6.937854,0.0185 -2.268817,-8e-5 -4.267358,-0.45702 -5.121354,0.20061 2.43554,0.50513 6.882994,1.2129 8.13971,4.28785 0.554951,0.352 -9.633563,0.73994 -12.434384,0.75221 4.113419,2.29999 14.068697,3.18958 14.159504,3.65652 0.428561,2.20373 -1.522063,3.12756 0.371924,4.35807 2.399437,1.44563 2.965653,8.77266 0.74134,9.14994 -4.614481,0.34203 -11.190128,0.56129 -14.81332,0.0793 2.644388,1.0423 7.265808,2.31392 9.895178,3.3277 2.996149,0.8928 7.276052,-1.80566 7.900673,2.41024 0.31855,2.70539 -1.841801,8.08963 1.916623,8.37796 2.409494,0.22559 8.352027,-3.31055 4.292537,0.52238 -2.672737,2.01298 -5.545457,2.72991 -8.502367,3.14764 -2.909929,-9e-5 -13.262604,-0.58595 -16.520055,-1.2955 2.069412,2.65833 12.521071,4.64786 14.781668,5.04783 3.174761,1.16476 6.600019,1.84996 8.358288,5.346 -0.745368,3.19019 -5.256626,4.53443 -7.551433,5.35098 -3.898095,0.17384 -8.661795,1.42485 -11.185058,2.08558 1.448957,0.44449 5.015252,0.9744 5.899553,1.68909 3.001849,1.74486 5.662165,-0.25573 8.679088,1.41929 2.996205,0.94733 3.601636,0.46453 6.078669,2.63717 2.021016,1.22154 2.216399,4.04191 -0.582066,4.70354 -4.992162,0.9157 -9.965547,1.90822 -15.440419,1.39561 -2.535091,-0.23736 -14.41561,-1.35845 -15.692465,-1.27735 3.676257,1.54643 15.118944,4.49074 18.820515,4.89809 3.949154,0.37324 9.586477,-0.18039 13.318575,1.84683 1.637581,0.98072 3.711132,-0.17697 4.721091,1.06199 0.984675,1.20794 -17.331287,3.90864 -23.224161,3.11792 4.427592,2.74301 19.405058,1.90498 24.55927,0.82256 -1.668603,3.57248 -5.9957,2.86315 -8.886214,4.46269 -3.392141,0.0212 -6.926797,0.42108 -9.875729,2.65473 -3.067785,2.64449 -13.520842,5.46499 -14.854677,10.02355 -0.09848,1.57817 6.631453,1.72177 7.404227,2.54066 l 32.302265,-1.07848 c -0.599787,-13.48083 -3.429531,-27.69069 -5.887255,-41.92065 -1.263081,-7.31316 -3.497603,-18.07047 -4.82613,-25.36749 -1.422167,-7.81143 -3.409727,-13.33328 -4.773216,-21.15921 -1.705868,-9.79102 -3.189915,-18.48041 -5.472883,-28.10649 -2.090304,-8.81374 -4.629736,-17.78997 -7.103453,-26.46449 -1.015584,-3.56134 -1.41104,-13.50867 -3.391635,-16.50184 z"
       id="path3834"
       inkscape:connector-curvature="0"
       sodipodi:nodetypes="ccscccsscscsccccccscccccccccccccccccscccscccccccsssssc" />
    <path
       sodipodi:nodetypes="cc"
       inkscape:connector-curvature="0"
       id="path3799"
       d="m 28.271879,234.65177 c 13.649475,1.41408 22.453801,-2.09001 29.226967,-5.45179"
       style="color:#000000;fill:none;stroke:#323442;stroke-width:0.99999994;stroke-linecap:round;stroke-linejoin:miter;stroke-miterlimit:4;stroke-opacity:1;stroke-dasharray:none;stroke-dashoffset:0;marker:none;visibility:visible;display:inline;overflow:visible;enable-background:accumulate" />
    <path
       style="color:#000000;fill:none;stroke:#323442;stroke-width:0.99999994;stroke-linecap:round;stroke-linejoin:miter;stroke-miterlimit:4;stroke-opacity:1;stroke-dasharray:none;stroke-dashoffset:0;marker:none;visibility:visible;display:inline;overflow:visible;enable-background:accumulate"
       d="m 8.1738998,238.92128 c 2.7014942,1.61782 5.9611392,2.69941 9.0272732,3.42602 m 32.244338,-0.1034 c 3.27824,-0.84386 6.442556,-2.01674 9.052834,-3.66484"
       id="path3029"
       inkscape:connector-curvature="0"
       sodipodi:nodetypes="cccc" />
    <path
       style="color:#000000;fill:none;stroke:#323442;stroke-width:0.99999994;stroke-linecap:round;stroke-linejoin:miter;stroke-miterlimit:4;stroke-opacity:1;stroke-dasharray:none;stroke-dashoffset:0;marker:none;visibility:visible;display:inline;overflow:visible;enable-background:accumulate"
       d="m 17.396632,146.36817 c 10.645737,3.99582 17.89711,1.59066 22.816521,-1.31706"
       id="path3805"
       inkscape:connector-curvature="0"
       sodipodi:nodetypes="cc" />
    <path
       sodipodi:nodetypes="cccccc"
       inkscape:connector-curvature="0"
       id="path3803"
       d="m 16.979161,169.21227 c 1.037775,0.55957 2.082689,0.97823 3.104196,1.28413 m 8.94132,0.86721 c 4.349558,-0.0455 7.811239,-0.63838 10.810772,-1.63239 m 2.722328,-1.05957 c 0.79253,-0.35545 1.557859,-0.74038 2.306182,-1.15129"
       style="color:#000000;fill:none;stroke:#323442;stroke-width:0.99999994;stroke-linecap:round;stroke-linejoin:miter;stroke-miterlimit:4;stroke-opacity:1;stroke-dasharray:none;stroke-dashoffset:0;marker:none;visibility:visible;display:inline;overflow:visible;enable-background:accumulate" />
    <path
       style="color:#000000;fill:none;stroke:#323442;stroke-width:0.99999994;stroke-linecap:round;stroke-linejoin:miter;stroke-miterlimit:4;stroke-opacity:1;stroke-dasharray:none;stroke-dashoffset:0;marker:none;visibility:visible;display:inline;overflow:visible;enable-background:accumulate"
       d="m 14.099973,201.82684 c 7.283351,3.1367 13.246351,4.21668 18.236983,4.36831"
       id="path3801"
       inkscape:connector-curvature="0"
       sodipodi:nodetypes="cc" />
    <path
       sodipodi:nodetypes="csszsacsssssc"
       inkscape:connector-curvature="0"
       id="path3828"
       d="M 0.36574672,265.60262 C 1.2291358,258.5161 3.3741828,251.79431 5.1503698,244.98337 8.1902848,233.32654 11.986022,222.49084 13.1011,210.36612 c 1.089585,-11.84752 3.012031,-24.91086 3.604497,-34.68175 0.592466,-9.77087 0.315738,-15.88489 0.420646,-23.82847 0.0937,-7.09491 -0.695127,-14.26703 0.186491,-21.2862 1.302339,-10.36886 3.385708,-27.60823 7.465607,-30.18794 7.226353,-4.079711 7.483028,16.05537 8.826481,20.76643 2.473711,8.67453 5.05084,17.31861 7.141145,26.13234 2.282968,9.62608 3.717477,17.73623 5.423345,27.52725 1.363495,7.82594 3.442605,13.61243 4.864778,21.42382 1.328521,7.29701 3.924178,18.20965 5.187265,25.52281 2.45772,14.22994 5.332831,28.56687 5.932616,42.04764"
       style="color:#000000;fill:none;stroke:#2d2f3c;stroke-width:1.99999988;stroke-miterlimit:4;stroke-opacity:1;stroke-dasharray:none;marker:none;visibility:visible;display:inline;overflow:visible;enable-background:accumulate" />
    <path
       sodipodi:type="arc"
       style="color:#000000;fill:#2d2f3c;fill-opacity:1;fill-rule:nonzero;stroke:none;stroke-width:1;marker:none;visibility:visible;display:inline;overflow:visible;enable-background:accumulate"
       id="path3809"
       sodipodi:cx="51.513157"
       sodipodi:cy="253.0921"
       sodipodi:rx="1.5131578"
       sodipodi:ry="1.5131578"
       d="m 53.026315,253.0921 c 0,0.8357 -0.677464,1.51316 -1.513158,1.51316 -0.835694,0 -1.513158,-0.67746 -1.513158,-1.51316 0,-0.83569 0.677464,-1.51316 1.513158,-1.51316 0.835694,0 1.513158,0.67747 1.513158,1.51316 z"
       transform="matrix(0.65217391,0,0,0.65217391,20.192816,83.634061)" />
    <path
       transform="matrix(0.4347826,0,0,0.4347826,29.812382,142.99619)"
       d="m 53.026315,253.0921 c 0,0.8357 -0.677464,1.51316 -1.513158,1.51316 -0.835694,0 -1.513158,-0.67746 -1.513158,-1.51316 0,-0.83569 0.677464,-1.51316 1.513158,-1.51316 0.835694,0 1.513158,0.67747 1.513158,1.51316 z"
       sodipodi:ry="1.5131578"
       sodipodi:rx="1.5131578"
       sodipodi:cy="253.0921"
       sodipodi:cx="51.513157"
       id="path3811"
       style="color:#000000;fill:#2d2f3c;fill-opacity:1;fill-rule:nonzero;stroke:none;stroke-width:1;marker:none;visibility:visible;display:inline;overflow:visible;enable-background:accumulate"
       sodipodi:type="arc" />
    <path
       sodipodi:type="arc"
       style="color:#000000;fill:#2d2f3c;fill-opacity:1;fill-rule:nonzero;stroke:none;stroke-width:1;marker:none;visibility:visible;display:inline;overflow:visible;enable-background:accumulate"
       id="path3813"
       sodipodi:cx="51.513157"
       sodipodi:cy="253.0921"
       sodipodi:rx="1.5131578"
       sodipodi:ry="1.5131578"
       d="m 53.026315,253.0921 c 0,0.8357 -0.677464,1.51316 -1.513158,1.51316 -0.835694,0 -1.513158,-0.67746 -1.513158,-1.51316 0,-0.83569 0.677464,-1.51316 1.513158,-1.51316 0.835694,0 1.513158,0.67747 1.513158,1.51316 z"
       transform="matrix(0.65217391,0,0,0.65217391,15.390185,86.068271)" />
    <path
       transform="matrix(0.65217391,0,0,0.65217391,11.245448,54.291956)"
       d="m 53.026315,253.0921 c 0,0.8357 -0.677464,1.51316 -1.513158,1.51316 -0.835694,0 -1.513158,-0.67746 -1.513158,-1.51316 0,-0.83569 0.677464,-1.51316 1.513158,-1.51316 0.835694,0 1.513158,0.67747 1.513158,1.51316 z"
       sodipodi:ry="1.5131578"
       sodipodi:rx="1.5131578"
       sodipodi:cy="253.0921"
       sodipodi:cx="51.513157"
       id="path3815"
       style="color:#000000;fill:#2d2f3c;fill-opacity:1;fill-rule:nonzero;stroke:none;stroke-width:1;marker:none;visibility:visible;display:inline;overflow:visible;enable-background:accumulate"
       sodipodi:type="arc" />
    <path
       sodipodi:type="arc"
       style="color:#000000;fill:#2d2f3c;fill-opacity:1;fill-rule:nonzero;stroke:none;stroke-width:1;marker:none;visibility:visible;display:inline;overflow:visible;enable-background:accumulate"
       id="path3817"
       sodipodi:cx="51.513157"
       sodipodi:cy="253.0921"
       sodipodi:rx="1.5131578"
       sodipodi:ry="1.5131578"
       d="m 53.026315,253.0921 c 0,0.8357 -0.677464,1.51316 -1.513158,1.51316 -0.835694,0 -1.513158,-0.67746 -1.513158,-1.51316 0,-0.83569 0.677464,-1.51316 1.513158,-1.51316 0.835694,0 1.513158,0.67747 1.513158,1.51316 z"
       transform="matrix(0.4347826,0,0,0.4347826,20.404487,112.40409)" />
    <path
       transform="matrix(0.65217391,0,0,0.65217391,14.995448,58.69985)"
       d="m 53.026315,253.0921 c 0,0.8357 -0.677464,1.51316 -1.513158,1.51316 -0.835694,0 -1.513158,-0.67746 -1.513158,-1.51316 0,-0.83569 0.677464,-1.51316 1.513158,-1.51316 0.835694,0 1.513158,0.67747 1.513158,1.51316 z"
       sodipodi:ry="1.5131578"
       sodipodi:rx="1.5131578"
       sodipodi:cy="253.0921"
       sodipodi:cx="51.513157"
       id="path3819"
       style="color:#000000;fill:#2d2f3c;fill-opacity:1;fill-rule:nonzero;stroke:none;stroke-width:1;marker:none;visibility:visible;display:inline;overflow:visible;enable-background:accumulate"
       sodipodi:type="arc" />
    <path
       sodipodi:type="arc"
       style="color:#000000;fill:#2d2f3c;fill-opacity:1;fill-rule:nonzero;stroke:none;stroke-width:1;marker:none;visibility:visible;display:inline;overflow:visible;enable-background:accumulate"
       id="path3821"
       sodipodi:cx="51.513157"
       sodipodi:cy="253.0921"
       sodipodi:rx="1.5131578"
       sodipodi:ry="1.5131578"
       d="m 53.026315,253.0921 c 0,0.8357 -0.677464,1.51316 -1.513158,1.51316 -0.835694,0 -1.513158,-0.67746 -1.513158,-1.51316 0,-0.83569 0.677464,-1.51316 1.513158,-1.51316 0.835694,0 1.513158,0.67747 1.513158,1.51316 z"
       transform="matrix(0.47826086,0,0,0.47826086,16.585837,51.926396)" />
    <path
       transform="matrix(0.65217391,0,0,0.65217391,5.7849228,11.726166)"
       d="m 53.026315,253.0921 c 0,0.8357 -0.677464,1.51316 -1.513158,1.51316 -0.835694,0 -1.513158,-0.67746 -1.513158,-1.51316 0,-0.83569 0.677464,-1.51316 1.513158,-1.51316 0.835694,0 1.513158,0.67747 1.513158,1.51316 z"
       sodipodi:ry="1.5131578"
       sodipodi:rx="1.5131578"
       sodipodi:cy="253.0921"
       sodipodi:cx="51.513157"
       id="path3823"
       style="color:#000000;fill:#2d2f3c;fill-opacity:1;fill-rule:nonzero;stroke:none;stroke-width:1;marker:none;visibility:visible;display:inline;overflow:visible;enable-background:accumulate"
       sodipodi:type="arc" />
    <path
       sodipodi:type="arc"
       style="color:#000000;fill:#2d2f3c;fill-opacity:1;fill-rule:nonzero;stroke:none;stroke-width:1;marker:none;visibility:visible;display:inline;overflow:visible;enable-background:accumulate"
       id="path3825"
       sodipodi:cx="51.513157"
       sodipodi:cy="253.0921"
       sodipodi:rx="1.5131578"
       sodipodi:ry="1.5131578"
       d="m 53.026315,253.0921 c 0,0.8357 -0.677464,1.51316 -1.513158,1.51316 -0.835694,0 -1.513158,-0.67746 -1.513158,-1.51316 0,-0.83569 0.677464,-1.51316 1.513158,-1.51316 0.835694,0 1.513158,0.67747 1.513158,1.51316 z"
       transform="matrix(0.40622372,0,0,0.40622372,9.1974458,26.437947)" />
    <path
       transform="matrix(0.40622372,0,0,0.40622372,11.895616,28.484835)"
       d="m 53.026315,253.0921 c 0,0.8357 -0.677464,1.51316 -1.513158,1.51316 -0.835694,0 -1.513158,-0.67746 -1.513158,-1.51316 0,-0.83569 0.677464,-1.51316 1.513158,-1.51316 0.835694,0 1.513158,0.67747 1.513158,1.51316 z"
       sodipodi:ry="1.5131578"
       sodipodi:rx="1.5131578"
       sodipodi:cy="253.0921"
       sodipodi:cx="51.513157"
       id="path3827"
       style="color:#000000;fill:#2d2f3c;fill-opacity:1;fill-rule:nonzero;stroke:none;stroke-width:1;marker:none;visibility:visible;display:inline;overflow:visible;enable-background:accumulate"
       sodipodi:type="arc" />
    <path
       sodipodi:type="arc"
       style="color:#000000;fill:#2d2f3c;fill-opacity:1;fill-rule:nonzero;stroke:none;stroke-width:1;marker:none;visibility:visible;display:inline;overflow:visible;enable-background:accumulate"
       id="path3829"
       sodipodi:cx="51.513157"
       sodipodi:cy="253.0921"
       sodipodi:rx="1.5131578"
       sodipodi:ry="1.5131578"
       d="m 53.026315,253.0921 c 0,0.8357 -0.677464,1.51316 -1.513158,1.51316 -0.835694,0 -1.513158,-0.67746 -1.513158,-1.51316 0,-0.83569 0.677464,-1.51316 1.513158,-1.51316 0.835694,0 1.513158,0.67747 1.513158,1.51316 z"
       transform="matrix(0.40622372,0,0,0.40622372,10.40697,32.34601)" />
  </g>
</svg>
