<?xml version="1.0" encoding="UTF-8" standalone="no"?>
<!-- Created with Inkscape (http://www.inkscape.org/) -->

<svg
   xmlns:dc="http://purl.org/dc/elements/1.1/"
   xmlns:cc="http://creativecommons.org/ns#"
   xmlns:rdf="http://www.w3.org/1999/02/22-rdf-syntax-ns#"
   xmlns:svg="http://www.w3.org/2000/svg"
   xmlns="http://www.w3.org/2000/svg"
   xmlns:sodipodi="http://sodipodi.sourceforge.net/DTD/sodipodi-0.dtd"
   xmlns:inkscape="http://www.inkscape.org/namespaces/inkscape"
   id="svg3962"
   sodipodi:version="0.32"
   inkscape:version="0.48.1 r9760"
   width="110"
   height="260"
   version="1.0"
   sodipodi:docname="Stalagmite01.svg"
   inkscape:output_extension="org.inkscape.output.svg.inkscape"
   inkscape:export-filename="Stalagmite01.png"
   inkscape:export-xdpi="90"
   inkscape:export-ydpi="90">
  <metadata
     id="metadata3967">
    <rdf:RDF>
      <cc:Work
         rdf:about="">
        <dc:format>image/svg+xml</dc:format>
        <dc:type
           rdf:resource="http://purl.org/dc/dcmitype/StillImage" />
        <dc:title></dc:title>
      </cc:Work>
    </rdf:RDF>
  </metadata>
  <defs
     id="defs3965" />
  <sodipodi:namedview
     inkscape:window-height="826"
     inkscape:window-width="1440"
     inkscape:pageshadow="2"
     inkscape:pageopacity="0.0"
     guidetolerance="10.0"
     gridtolerance="10.0"
     objecttolerance="10.0"
     borderopacity="1.0"
     bordercolor="#666666"
     pagecolor="#ffffff"
     id="base"
     showgrid="false"
     inkscape:zoom="2.5600001"
     inkscape:cx="13.103579"
     inkscape:cy="120.1365"
     inkscape:window-x="0"
     inkscape:window-y="25"
     inkscape:current-layer="layer4"
     showguides="true"
     inkscape:guide-bbox="true"
     borderlayer="true"
     inkscape:window-maximized="1"
     inkscape:snap-global="false">
    <sodipodi:guide
       orientation="1,0"
       position="5,-11.60097"
       id="guide2451" />
    <sodipodi:guide
       orientation="1,0"
       position="105,-19.058737"
       id="guide2453" />
    <sodipodi:guide
       orientation="0,1"
       position="10,2"
       id="guide2455" />
    <sodipodi:guide
       orientation="0,1"
       position="25.292968,87"
       id="guide2461" />
    <sodipodi:guide
       orientation="1,0"
       position="19,94.628904"
       id="guide3055" />
    <sodipodi:guide
       orientation="1,0"
       position="86,73.472812"
       id="guide3057" />
  </sodipodi:namedview>
  <g
     inkscape:groupmode="layer"
     id="layer3"
     inkscape:label="tmp"
     style="display:inline" />
  <g
     inkscape:groupmode="layer"
     id="layer4"
     inkscape:label="main"
     style="opacity:1;display:inline">
    <path
       style="color:#000000;fill:#4b4e64;fill-opacity:1;fill-rule:evenodd;stroke:none;stroke-width:0.69999999;marker:none;visibility:visible;display:inline;overflow:visible;enable-background:accumulate"
       d="M 63.03125 1.96875 C 62.625786 1.9763293 62.246074 2.0682472 61.875 2.1875 C 61.85263 2.194689 61.834749 2.2111739 61.8125 2.21875 C 61.599902 2.2911249 61.389229 2.3619819 61.1875 2.46875 C 60.737249 2.7070519 60.305318 3.0424188 59.90625 3.4375 C 59.502805 3.8369141 59.13659 4.3047578 58.78125 4.84375 C 58.512267 5.2517526 58.243547 5.678724 58 6.15625 C 57.954476 6.2455091 57.919673 6.3459986 57.875 6.4375 C 57.810343 6.5696852 57.750406 6.7070249 57.6875 6.84375 C 57.618434 6.9941867 57.535751 7.1255582 57.46875 7.28125 C 57.420633 7.3925298 57.390825 7.5111197 57.34375 7.625 C 57.05527 8.3249999 56.782943 9.0576134 56.53125 9.84375 C 56.282843 10.619623 56.060282 11.472161 55.84375 12.3125 C 55.62383 13.16599 55.409877 14.037584 55.21875 14.9375 C 55.02738 15.838559 54.854135 16.728941 54.6875 17.65625 C 54.521502 18.579132 54.36429 19.508655 54.21875 20.4375 C 54.150491 20.873544 54.095672 21.284646 54.03125 21.71875 C 53.9571 22.217526 53.882164 22.725416 53.8125 23.21875 C 53.638289 24.455511 53.465751 25.739169 53.3125 26.90625 C 53.244191 27.426307 53.159372 28.001139 53.09375 28.5 C 52.916348 29.847975 52.732954 31.214656 52.5625 32.34375 C 52.533313 32.535989 52.498053 32.784476 52.46875 32.96875 C 52.382124 33.512311 52.276721 34.065197 52.1875 34.53125 C 52.062768 35.182794 51.947739 35.745376 51.8125 36.21875 C 50.816434 39.705265 49.814533 43.202077 48.8125 46.6875 C 46.808435 53.658346 44.818432 60.62945 42.96875 67.65625 C 42.043909 71.16965 41.154183 74.707531 40.3125 78.25 C 39.393241 82.118969 38.557871 85.824121 37.78125 89.46875 C 35.451387 100.40264 33.623154 110.6942 31.5625 122.5 C 31.287988 124.07272 30.993713 125.57948 30.6875 127.0625 C 30.074617 130.02824 29.407145 132.86527 28.71875 135.625 C 28.031332 138.38539 27.318325 141.08483 26.625 143.84375 C 25.930698 146.60201 25.255604 149.41365 24.625 152.375 C 24.309926 153.85583 24.005076 155.3677 23.71875 156.9375 C 23.349156 158.96382 22.937997 161.1867 22.46875 163.5 C 22.461869 163.53392 22.444398 163.55978 22.4375 163.59375 C 22.231486 164.60755 22.031695 165.60412 21.8125 166.65625 C 21.517741 168.07358 21.217265 169.44034 20.90625 170.90625 C 20.904134 170.91621 20.908366 170.92754 20.90625 170.9375 C 19.406884 173.57975 17.601465 181.9297 17.40625 187.375 C 12.961981 203.93256 10.011425 223.62992 8.78125 236.15625 C 8.1731344 240.32074 7.6331188 244.71547 7.15625 249.09375 C 7.0351748 250.20538 6.921589 251.29868 6.8125 252.40625 C 6.6329374 254.16744 6.4545652 255.90931 6.3125 257.65625 C 6.2394285 258.56804 6.187097 259.47887 6.125 260.375 C 6.0873366 260.91661 6.0335302 261.45995 6 262 C 5.99873 262.0204 6.0012636 262.04211 6 262.0625 C 5.9274098 263.23723 5.8645168 264.39551 5.8125 265.5625 L 10.25 265.6875 L 105.34375 268.46875 C 103.95314 257.07572 99.517046 240.60622 96.65625 229.65625 C 93.343229 212.49678 88.881036 201.16884 85.625 183.90625 C 85.272552 179.53232 84.083273 171.83392 83.46875 166.46875 C 83.250904 158.88026 82.262624 152.5882 81.09375 146 C 80.112542 138.06524 79.432475 130.51114 79.03125 123.90625 C 78.630025 117.30136 78.512721 98.364671 78.34375 85.59375 C 78.192831 74.18722 79.451216 62.65974 78.03125 51.375 C 75.933648 34.704954 72.602501 6.9911709 66.03125 2.84375 C 64.940089 2.2288485 63.935777 1.9518417 63.03125 1.96875 z "
       id="path3039" />
    <path
       style="color:#000000;fill:#636885;fill-opacity:1;fill-rule:evenodd;stroke:none;stroke-width:0.69999999;marker:none;visibility:visible;display:inline;overflow:visible;enable-background:accumulate"
       d="m 61.875,2.1875 c -7.631069,2.4524148 -8.192471,27.485618 -10.0625,34.03125 -3.984266,13.946059 -8.133267,27.861373 -11.5,42.03125 -3.677036,15.475876 -6.002461,28.50894 -8.75,44.25 -2.196098,12.58178 -5.553141,21.87911 -7.84375,34.4375 -0.750027,4.11207 -1.749443,8.93809 -2.818879,13.97868 -1.501737,2.61961 -3.292514,11.01441 -3.488228,16.47363 -4.444269,16.55756 -7.403652,36.25409 -8.6338274,48.78042 -1.3933467,9.54191 -2.556675,20.22443 -2.9653156,29.39227 l 4.4375,0.125 C 25.787436,260.91938 25.396039,247.5 30.875,247.5 c 5.542318,-0.36632 13.106005,0.28033 18.46875,-1.75 3.80233,-0.24269 18.80862,-1.81039 27.287803,-4.55394 -2.972674,-5.38351 -40.429522,-0.77572 -41.181128,-3.04891 -0.79009,-3.75844 22.037406,-2.8892 25.862075,-6.4284 -5.633785,-4.05581 -12.636459,-2.98549 -18.90625,-4.53125 -8.259178,-4.47263 -10.021785,-2.12697 -14.5625,-5.03125 -3.804605,-5.38834 3.925686,-5.09916 8.237925,-4.57154 2.633674,0.36768 4.08732,-3.52298 -8.122148,-6.71378 1.692925,-1.50811 18.677303,1.55126 19.68665,-1.80946 0.675184,-2.24809 -9.836382,-3.22842 -9.006434,-5.56586 1.144756,-3.22406 20.85376,4.19682 21.266507,0.78564 0.232986,-1.92553 -18.370382,-5.96107 -18.65625,-7.21875 -0.129085,-0.56791 0.69247,-2.63672 2.3125,-2.47555 4.241312,0.42197 12.304364,0.67932 20.25,-0.27445 -3.639213,-2.5396 -10.750542,-3.23092 -15,-3.46875 -4.374651,0.61018 -14.973079,-2.57781 -10.03125,-4.65625 11.096122,-4.28585 0.985178,-4.73874 2.21875,-6.625 1.620932,-2.47856 4.175383,-2.40289 10.567779,-2.08392 3.73145,-0.81878 16.656391,-1.33068 19.258071,-4.32336 -2.151867,-1.89023 -11.866076,1.29588 -16.821845,0.76262 -4.955769,-0.53326 -8.259982,-2.30034 -12.629005,-3.35534 -6.166143,-1.10083 -3.470922,-6.76087 -3.4375,-10.6875 0.04546,-5.34052 -3.564691,-5.66107 0.817961,-6.11996 4.127583,0.43139 10.755257,3.13838 15.932039,1.08871 -0.429099,-2.16517 -11.477175,-4.97722 -15.625,-7.65625 -4.595056,-2.57972 -0.174857,-10.014 3.875,-10.65625 -2.13701,-4.55376 -4.470141,-8.22123 -0.625,-10.625 3.93403,-2.06008 -1.211602,-1.92718 -2.78125,-1.8125 -2.548322,-2.32678 6.161299,-6.78021 8.5625,-7.1875 -1.258831,-4.86256 -8.746359,-3.34494 -7.610862,-7.44606 0.257858,-0.93132 10.624745,0.42888 16.573119,1.00856 -0.217258,-2.81527 -9.502088,-3.95018 -12.806007,-4.3125 -3.769854,-0.41341 -3.398078,-1.88726 -2.591202,-3.92943 0.206201,-0.57003 0.04657,-4.47943 2.125,-3.71875 5.508399,2.016 12.269375,1.92606 19.406493,-0.04284 C 53.409328,98.567929 45.550397,94.539042 44.174939,94.440534 43.651918,88.331623 54.962858,88.35387 55.65625,84.375 c 0.480587,-2.757734 1.177869,-5.117926 1.90625,-5.46875 1.777155,-0.233884 3.339066,1.358935 9.9375,-0.9375 -4.784133,-1.094113 -15.290807,-1.602188 -16.718811,-3.454126 -0.258211,-1.209739 0.03475,-6.782829 -0.004,-8.795874 C 51.419667,63.545293 55.036151,64.250583 58.4375,61 58.29794,59.094278 52.346743,58.124097 53.09375,52.96875 54.115015,51.518295 51.70631,47.506543 54.1875,46 61.93447,41.296152 61.927905,38.849856 56.160801,38.568265 53.9485,38.460245 54.715973,35.900912 54.83216,34.802913 59.485398,34.242905 67.805344,36.680193 69.973847,34.188774 66.071945,33.106579 59.38042,32.489155 57.906493,30.893386 56.063668,28.898224 55.77187,26.36155 57.0625,23.40625 60.04117,19.069489 60.031224,14.295569 59.15625,9.875 58.511341,9.1172267 62.75373,3.5737318 67.199879,5.0702518 66.152319,3.1532732 64.378031,1.446731 61.875,2.1875 z"
       id="path3053"
       inkscape:connector-curvature="0"
       sodipodi:nodetypes="cssssccccccccccccccssssscccscczcscccccccscscsccsccccccssccscccc" />
    <path
       style="color:#000000;fill:#3a3d4e;fill-opacity:1;stroke:none;stroke-width:1.99999988;marker:none;visibility:visible;display:inline;overflow:visible;enable-background:accumulate"
       d="m 65.644903,7.2482403 c -1.981623,1.8946436 -0.395053,4.4929307 0.208749,7.1076567 0.21582,0.934595 -0.928657,1.991752 -0.680776,2.851263 1.007122,3.492129 5.378898,12.496428 4.726092,17.008131 -0.414078,2.861795 -8.291474,0.701038 -12.992961,0.718204 4.789139,3.667457 10.886318,3.527371 13.75933,3.759102 1.211816,14.686235 -10.637395,12.956624 -2.876017,18.561529 -1.582496,9.524798 -4.318963,11.301504 -1.975303,20.008253 -7.618629,0.91777 -9.87978,0.891593 -18.875,-0.0625 5.805734,3.235692 15.341286,3.852108 17.84375,5 4.592512,1.753985 5.370352,1.190356 6.381296,7.487621 0.228136,1.421083 -0.135642,5.604093 -1.38788,7.081288 -0.439894,0.518918 -9.822302,2.603482 -9.985649,3.227207 -0.314607,1.201315 7.907356,0.256755 9.057122,-0.04287 2.682706,-0.69911 1.889158,4.207695 0.722657,7.429685 -3.845427,2.28209 0.697338,0.70426 -3.002777,1.54286 -3.550667,0.89756 -8.887317,1.56978 -12.437985,1.3841 2.472657,5.64584 5.815077,2.62165 7.839199,7.56523 4.565039,3.07249 1.562214,8.84252 6.09375,11.78125 1.166634,0.7016 -7.935167,4.42641 -7.25,7.375 0.49649,2.13662 10.927283,3.18718 11.09375,5.5625 0.364811,5.20549 -0.157591,8.74098 -1.875,9.03174 -7.432265,2.32253 -11.536746,3.59406 -21,3.18701 1.289855,2.78055 10.932872,6.46442 15.375,5.125 17.55536,-3.17094 0.614812,4.90662 7.068507,5.53125 3.880833,0.36267 5.724605,1.44514 -0.813774,7.60734 -12.609353,3.6455 -5.618552,2.2541 -12.804187,3.9554 1.507529,0.47095 4.782565,1.3037 8.432057,1.42177 5.416998,0.17525 7.48773,0.57354 8.4873,1.63849 1.440739,1.48727 0.809876,5.46045 -1.063947,8.605 -6.657309,3.91572 -20.70625,7.28435 -26.983869,6.38844 1.505109,4.09822 5.097371,2.8283 6.521663,3.97731 4.834895,2.80523 11.649861,0.66593 16.509041,3.35886 4.825814,1.52303 2.878294,-0.46075 6.867901,3.03222 3.255126,1.96388 4.16924,8.15334 -0.9375,6.375 -8.347527,-0.068 -11.930812,0.35679 -21.64108,3.03835 26.088001,5.56741 -10.258812,6.81168 -10.517112,9.48495 5.921132,1.06519 12.861698,0.6082 18.823604,1.26311 6.360671,0.60005 13.82158,-4.01529 19.832646,-0.75613 4.150895,2.48134 6.425842,3.33111 4.973786,11.23234 -5.636528,3.05389 -12.216424,7.07523 -23.661286,8.33823 -11.380767,1.25592 -26.977795,0.36664 -35.55091,-2.00856 -0.01502,4.78549 32.946414,6.74659 32.92591,8.11038 -0.09655,6.4217 -20.946749,6.51747 -22.71875,12.5625 -0.1441,2.30499 8.774065,2.70871 11.34375,3.75 L 55.40625,267 l 45.2409,-1.5625 C 99.455582,253.53554 98.036116,242.99559 94.762334,230.90121 90.253792,211.57381 84.638751,194.2439 83.553291,184.2703 81.483752,165.25463 77.361469,139.96018 76.407221,124.25151 75.452973,108.54284 76.233959,98.640885 76.064988,85.869964 75.914069,74.463434 77.241507,62.590687 75.821541,51.305947 74.347907,39.594693 72.934237,23.105779 69.540049,12.493204 68.361052,9.7643765 67.326035,5.6408984 65.644903,7.2482403 z"
       id="path3834"
       inkscape:connector-curvature="0"
       sodipodi:nodetypes="ssssccccccsssscccccssccccccsccccccccccccscscccccsssscs" />
    <path
       sodipodi:nodetypes="cccc"
       inkscape:connector-curvature="0"
       id="path3171"
       d="m 52.42614,33.77387 c 3.331067,0.911292 6.237256,1.408491 8.806854,1.578597 m 8.594721,-0.828846 c 1.832401,-0.538654 3.445408,-1.288935 4.926674,-2.164467"
       style="color:#000000;fill:none;stroke:#323442;stroke-width:0.99999994;stroke-linecap:round;stroke-linejoin:miter;stroke-miterlimit:4;stroke-opacity:1;stroke-dasharray:none;stroke-dashoffset:0;marker:none;visibility:visible;display:inline;overflow:visible;enable-background:accumulate" />
    <path
       style="color:#000000;fill:none;stroke:#323442;stroke-width:0.99999988;stroke-linecap:round;stroke-linejoin:miter;stroke-miterlimit:4;stroke-opacity:1;stroke-dasharray:none;stroke-dashoffset:0;marker:none;visibility:visible;display:inline;overflow:visible;enable-background:accumulate"
       d="m 41.443093,76.164495 c 2.871562,0.761873 5.631599,1.297466 8.271899,1.646348 M 72.955565,76.23331 c 1.967252,-0.558235 3.731689,-1.179264 5.280256,-1.800195"
       id="path3173"
       inkscape:connector-curvature="0"
       sodipodi:nodetypes="cccc" />
    <path
       sodipodi:nodetypes="cc"
       inkscape:connector-curvature="0"
       id="path3175"
       d="m 48.59575,98.539577 c 10.700964,1.535263 20.698198,0.05717 29.845543,-5.868281"
       style="color:#000000;fill:none;stroke:#323442;stroke-width:0.99999988;stroke-linecap:round;stroke-linejoin:miter;stroke-miterlimit:4;stroke-opacity:1;stroke-dasharray:none;stroke-dashoffset:0;marker:none;visibility:visible;display:inline;overflow:visible;enable-background:accumulate" />
    <path
       style="color:#000000;fill:none;stroke:#323442;stroke-width:0.99999988;stroke-linecap:round;stroke-linejoin:miter;stroke-miterlimit:4;stroke-opacity:1;stroke-dasharray:none;stroke-dashoffset:0;marker:none;visibility:visible;display:inline;overflow:visible;enable-background:accumulate"
       d="m 44.447187,154.71909 c 7.482891,0.96752 14.04059,0.30006 19.78499,-1.29577"
       id="path3233"
       inkscape:connector-curvature="0"
       sodipodi:nodetypes="cc" />
    <path
       sodipodi:nodetypes="cc"
       inkscape:connector-curvature="0"
       id="path3243"
       d="m 51.464962,177.48511 c 12.804328,-0.32945 22.632446,-5.15672 30.566491,-10.4624"
       style="color:#000000;fill:none;stroke:#323442;stroke-width:1;stroke-linecap:round;stroke-linejoin:miter;stroke-miterlimit:4;stroke-opacity:1;stroke-dasharray:none;stroke-dashoffset:0;marker:none;visibility:visible;display:inline;overflow:visible;enable-background:accumulate" />
    <path
       style="color:#000000;fill:none;stroke:#323442;stroke-width:0.99999988;stroke-linecap:round;stroke-linejoin:miter;stroke-miterlimit:4;stroke-opacity:1;stroke-dasharray:none;stroke-dashoffset:0;marker:none;visibility:visible;display:inline;overflow:visible;enable-background:accumulate"
       d="m 17.919568,187.98627 c 14.80936,6.33393 27.381392,7.8603 38.047895,6.67818 m 26.979078,-9.80233 c 0.667453,-0.42291 1.32118,-0.85084 1.961452,-1.28207"
       id="path3245"
       inkscape:connector-curvature="0"
       sodipodi:nodetypes="cccc" />
    <path
       sodipodi:nodetypes="cccccc"
       inkscape:connector-curvature="0"
       id="path3247"
       d="m 9.2315288,236.28094 c 2.3202282,1.00856 4.5981102,1.92464 6.8344032,2.75312 m 8.697248,2.85033 c 10.917305,3.10134 20.765639,4.06579 29.647578,3.55287 m 13.329924,-1.96395 c 11.196041,-2.68947 20.553737,-7.65195 28.366647,-12.99998"
       style="color:#000000;fill:none;stroke:#323442;stroke-width:0.99999994;stroke-linecap:round;stroke-linejoin:miter;stroke-miterlimit:4;stroke-opacity:1;stroke-dasharray:none;stroke-dashoffset:0;marker:none;visibility:visible;display:inline;overflow:visible;enable-background:accumulate" />
    <path
       style="color:#000000;fill:none;stroke:#323442;stroke-width:0.99999988;stroke-linecap:round;stroke-linejoin:miter;stroke-miterlimit:4;stroke-opacity:1;stroke-dasharray:none;stroke-dashoffset:0;marker:none;visibility:visible;display:inline;overflow:visible;enable-background:accumulate"
       d="m 35.048045,106.14809 c 9.389307,3.91463 17.367844,4.87418 24.14369,4.16184"
       id="path3249"
       inkscape:connector-curvature="0"
       sodipodi:nodetypes="cc" />
    <path
       id="path4033"
       d="M 63.03125 1.96875 C 62.625786 1.9763293 62.246074 2.0682472 61.875 2.1875 C 61.85263 2.194689 61.834749 2.2111739 61.8125 2.21875 C 61.599902 2.2911249 61.389229 2.3619819 61.1875 2.46875 C 60.737249 2.7070519 60.305318 3.0424188 59.90625 3.4375 C 59.502805 3.8369141 59.13659 4.3047578 58.78125 4.84375 C 58.512267 5.2517526 58.243547 5.678724 58 6.15625 C 57.954476 6.2455091 57.919673 6.3459986 57.875 6.4375 C 57.810343 6.5696852 57.750406 6.7070249 57.6875 6.84375 C 57.618434 6.9941867 57.535751 7.1255582 57.46875 7.28125 C 57.420633 7.3925298 57.390825 7.5111197 57.34375 7.625 C 57.05527 8.3249999 56.782943 9.0576134 56.53125 9.84375 C 56.282843 10.619623 56.060282 11.472161 55.84375 12.3125 C 55.62383 13.16599 55.409877 14.037584 55.21875 14.9375 C 55.02738 15.838559 54.854135 16.728941 54.6875 17.65625 C 54.521502 18.579132 54.36429 19.508655 54.21875 20.4375 C 54.150491 20.873544 54.095672 21.284646 54.03125 21.71875 C 53.9571 22.217526 53.882164 22.725416 53.8125 23.21875 C 53.638289 24.455511 53.465751 25.739169 53.3125 26.90625 C 53.244191 27.426307 53.159372 28.001139 53.09375 28.5 C 52.916348 29.847975 52.732954 31.214656 52.5625 32.34375 C 52.533313 32.535989 52.498053 32.784476 52.46875 32.96875 C 52.382124 33.512311 52.276721 34.065197 52.1875 34.53125 C 52.062768 35.182794 51.947739 35.745376 51.8125 36.21875 C 50.816434 39.705265 49.814533 43.202077 48.8125 46.6875 C 46.808435 53.658346 44.818432 60.62945 42.96875 67.65625 C 42.043909 71.16965 41.154183 74.707531 40.3125 78.25 C 39.393241 82.118969 38.557871 85.824121 37.78125 89.46875 C 35.451387 100.40264 33.623154 110.6942 31.5625 122.5 C 31.287988 124.07272 30.993713 125.57948 30.6875 127.0625 C 30.074617 130.02824 29.407145 132.86527 28.71875 135.625 C 28.031332 138.38539 27.318325 141.08483 26.625 143.84375 C 25.930698 146.60201 25.255604 149.41365 24.625 152.375 C 24.309926 153.85583 24.005076 155.3677 23.71875 156.9375 C 23.349156 158.96382 22.937997 161.1867 22.46875 163.5 C 22.461869 163.53392 22.444398 163.55978 22.4375 163.59375 C 22.231486 164.60755 22.031695 165.60412 21.8125 166.65625 C 21.517741 168.07358 21.217265 169.44034 20.90625 170.90625 C 20.904134 170.91621 20.908366 170.92754 20.90625 170.9375 C 19.406884 173.57975 17.601465 181.9297 17.40625 187.375 C 12.961981 203.93256 10.011425 223.62992 8.78125 236.15625 C 8.1731344 240.32074 7.6331188 244.71547 7.15625 249.09375 C 7.0351748 250.20538 6.921589 251.29868 6.8125 252.40625 C 6.6329374 254.16744 6.4545652 255.90931 6.3125 257.65625 C 6.2394285 258.56804 6.187097 259.47887 6.125 260.375 C 6.0873366 260.91661 6.0335302 261.45995 6 262 C 5.99873 262.0204 6.0012636 262.04211 6 262.0625 C 5.9274098 263.23723 5.8645168 264.39551 5.8125 265.5625 L 10.25 265.6875 L 105.34375 268.46875 C 103.95314 257.07572 99.517046 240.60622 96.65625 229.65625 C 93.343229 212.49678 88.881036 201.16884 85.625 183.90625 C 85.272552 179.53232 84.083273 171.83392 83.46875 166.46875 C 83.250904 158.88026 82.262624 152.5882 81.09375 146 C 80.112542 138.06524 79.432475 130.51114 79.03125 123.90625 C 78.630025 117.30136 78.512721 98.364671 78.34375 85.59375 C 78.192831 74.18722 79.451216 62.65974 78.03125 51.375 C 75.933648 34.704954 72.602501 6.9911709 66.03125 2.84375 C 64.940089 2.2288485 63.935777 1.9518417 63.03125 1.96875 z "
       style="color:#000000;fill:none;fill-opacity:1;fill-rule:evenodd;stroke:#2d2f3c;stroke-width:1.99999988000000006;marker:none;visibility:visible;display:inline;overflow:visible;enable-background:accumulate;stroke-linecap:butt;stroke-linejoin:miter;stroke-miterlimit:4;stroke-opacity:1;stroke-dasharray:none;stroke-dashoffset:0" />
    <path
       transform="matrix(0.65217391,0,0,0.65217391,56.761729,88.004023)"
       d="m 53.026315,253.0921 a 1.5131578,1.5131578 0 1 1 -3.026316,0 1.5131578,1.5131578 0 1 1 3.026316,0 z"
       sodipodi:ry="1.5131578"
       sodipodi:rx="1.5131578"
       sodipodi:cy="253.0921"
       sodipodi:cx="51.513157"
       id="path4052"
       style="color:#000000;fill:#2d2f3c;fill-opacity:1;fill-rule:nonzero;stroke:none;stroke-width:1;marker:none;visibility:visible;display:inline;overflow:visible;enable-background:accumulate"
       sodipodi:type="arc" />
    <path
       sodipodi:type="arc"
       style="color:#000000;fill:#2d2f3c;fill-opacity:1;fill-rule:nonzero;stroke:none;stroke-width:1;marker:none;visibility:visible;display:inline;overflow:visible;enable-background:accumulate"
       id="path4054"
       sodipodi:cx="51.513157"
       sodipodi:cy="253.0921"
       sodipodi:rx="1.5131578"
       sodipodi:ry="1.5131578"
       d="m 53.026315,253.0921 a 1.5131578,1.5131578 0 1 1 -3.026316,0 1.5131578,1.5131578 0 1 1 3.026316,0 z"
       transform="matrix(0.4347826,0,0,0.4347826,47.826602,140.53021)" />
    <path
       transform="matrix(0.65217391,0,0,0.65217391,33.404412,83.602295)"
       d="m 53.026315,253.0921 a 1.5131578,1.5131578 0 1 1 -3.026316,0 1.5131578,1.5131578 0 1 1 3.026316,0 z"
       sodipodi:ry="1.5131578"
       sodipodi:rx="1.5131578"
       sodipodi:cy="253.0921"
       sodipodi:cx="51.513157"
       id="path4056"
       style="color:#000000;fill:#2d2f3c;fill-opacity:1;fill-rule:nonzero;stroke:none;stroke-width:1;marker:none;visibility:visible;display:inline;overflow:visible;enable-background:accumulate"
       sodipodi:type="arc" />
    <path
       sodipodi:type="arc"
       style="color:#000000;fill:#2d2f3c;fill-opacity:1;fill-rule:nonzero;stroke:none;stroke-width:1;marker:none;visibility:visible;display:inline;overflow:visible;enable-background:accumulate"
       id="path4058"
       sodipodi:cx="51.513157"
       sodipodi:cy="253.0921"
       sodipodi:rx="1.5131578"
       sodipodi:ry="1.5131578"
       d="m 53.026315,253.0921 a 1.5131578,1.5131578 0 1 1 -3.026316,0 1.5131578,1.5131578 0 1 1 3.026316,0 z"
       transform="matrix(0.65217391,0,0,0.65217391,60.082041,85.171992)" />
    <path
       transform="matrix(0.58763587,0,0,0.58763587,63.406599,106.19356)"
       d="m 53.026315,253.0921 a 1.5131578,1.5131578 0 1 1 -3.026316,0 1.5131578,1.5131578 0 1 1 3.026316,0 z"
       sodipodi:ry="1.5131578"
       sodipodi:rx="1.5131578"
       sodipodi:cy="253.0921"
       sodipodi:cx="51.513157"
       id="path4060"
       style="color:#000000;fill:#2d2f3c;fill-opacity:1;fill-rule:nonzero;stroke:none;stroke-width:1;marker:none;visibility:visible;display:inline;overflow:visible;enable-background:accumulate"
       sodipodi:type="arc" />
    <path
       sodipodi:type="arc"
       style="color:#000000;fill:#2d2f3c;fill-opacity:1;fill-rule:nonzero;stroke:none;stroke-width:1;marker:none;visibility:visible;display:inline;overflow:visible;enable-background:accumulate"
       id="path4062"
       sodipodi:cx="51.513157"
       sodipodi:cy="253.0921"
       sodipodi:rx="1.5131578"
       sodipodi:ry="1.5131578"
       d="m 53.026315,253.0921 a 1.5131578,1.5131578 0 1 1 -3.026316,0 1.5131578,1.5131578 0 1 1 3.026316,0 z"
       transform="matrix(0.52309782,0,0,0.52309782,64.582721,113.83622)" />
    <path
       sodipodi:type="arc"
       style="color:#000000;fill:#2d2f3c;fill-opacity:1;fill-rule:nonzero;stroke:none;stroke-width:1;marker:none;visibility:visible;display:inline;overflow:visible;enable-background:accumulate"
       id="path4064"
       sodipodi:cx="51.513157"
       sodipodi:cy="253.0921"
       sodipodi:rx="1.5131578"
       sodipodi:ry="1.5131578"
       d="m 53.026315,253.0921 a 1.5131578,1.5131578 0 1 1 -3.026316,0 1.5131578,1.5131578 0 1 1 3.026316,0 z"
       transform="matrix(0.65217391,0,0,0.65217391,42.503917,29.800899)" />
    <path
       transform="matrix(0.46963275,0,0,0.46963275,50.531869,56.181457)"
       d="m 53.026315,253.0921 a 1.5131578,1.5131578 0 1 1 -3.026316,0 1.5131578,1.5131578 0 1 1 3.026316,0 z"
       sodipodi:ry="1.5131578"
       sodipodi:rx="1.5131578"
       sodipodi:cy="253.0921"
       sodipodi:cx="51.513157"
       id="path4066"
       style="color:#000000;fill:#2d2f3c;fill-opacity:1;fill-rule:nonzero;stroke:none;stroke-width:1;marker:none;visibility:visible;display:inline;overflow:visible;enable-background:accumulate"
       sodipodi:type="arc" />
    <path
       sodipodi:type="arc"
       style="color:#000000;fill:#2d2f3c;fill-opacity:1;fill-rule:nonzero;stroke:none;stroke-width:1;marker:none;visibility:visible;display:inline;overflow:visible;enable-background:accumulate"
       id="path4068"
       sodipodi:cx="51.513157"
       sodipodi:cy="253.0921"
       sodipodi:rx="1.5131578"
       sodipodi:ry="1.5131578"
       d="m 53.026315,253.0921 a 1.5131578,1.5131578 0 1 1 -3.026316,0 1.5131578,1.5131578 0 1 1 3.026316,0 z"
       transform="matrix(0.58763587,0,0,0.58763587,49.148787,47.990436)" />
    <path
       sodipodi:type="arc"
       style="color:#000000;fill:#2d2f3c;fill-opacity:1;fill-rule:nonzero;stroke:none;stroke-width:1;marker:none;visibility:visible;display:inline;overflow:visible;enable-background:accumulate"
       id="path4070"
       sodipodi:cx="51.513157"
       sodipodi:cy="253.0921"
       sodipodi:rx="1.5131578"
       sodipodi:ry="1.5131578"
       d="m 53.026315,253.0921 a 1.5131578,1.5131578 0 1 1 -3.026316,0 1.5131578,1.5131578 0 1 1 3.026316,0 z"
       transform="matrix(0.83471506,0,0,0.83471506,35.863434,-35.872725)" />
    <path
       transform="matrix(0.45073,0,0,0.45073,50.815075,83.054549)"
       d="m 53.026315,253.0921 a 1.5131578,1.5131578 0 1 1 -3.026316,0 1.5131578,1.5131578 0 1 1 3.026316,0 z"
       sodipodi:ry="1.5131578"
       sodipodi:rx="1.5131578"
       sodipodi:cy="253.0921"
       sodipodi:cx="51.513157"
       id="path4072"
       style="color:#000000;fill:#2d2f3c;fill-opacity:1;fill-rule:nonzero;stroke:none;stroke-width:1;marker:none;visibility:visible;display:inline;overflow:visible;enable-background:accumulate"
       sodipodi:type="arc" />
    <path
       transform="matrix(0.65217391,0,0,0.65217391,32.836442,-52.682475)"
       d="m 53.026315,253.0921 a 1.5131578,1.5131578 0 1 1 -3.026316,0 1.5131578,1.5131578 0 1 1 3.026316,0 z"
       sodipodi:ry="1.5131578"
       sodipodi:rx="1.5131578"
       sodipodi:cy="253.0921"
       sodipodi:cx="51.513157"
       id="path4074"
       style="color:#000000;fill:#2d2f3c;fill-opacity:1;fill-rule:nonzero;stroke:none;stroke-width:1;marker:none;visibility:visible;display:inline;overflow:visible;enable-background:accumulate"
       sodipodi:type="arc" />
    <path
       sodipodi:type="arc"
       style="color:#000000;fill:#2d2f3c;fill-opacity:1;fill-rule:nonzero;stroke:none;stroke-width:1;marker:none;visibility:visible;display:inline;overflow:visible;enable-background:accumulate"
       id="path4076"
       sodipodi:cx="51.513157"
       sodipodi:cy="253.0921"
       sodipodi:rx="1.5131578"
       sodipodi:ry="1.5131578"
       d="m 53.026315,253.0921 a 1.5131578,1.5131578 0 1 1 -3.026316,0 1.5131578,1.5131578 0 1 1 3.026316,0 z"
       transform="matrix(0.45073,0,0,0.45073,41.1476,0.57117523)" />
    <path
       transform="matrix(0.45073,0,0,0.45073,46.188498,2.0903499)"
       d="m 53.026315,253.0921 a 1.5131578,1.5131578 0 1 1 -3.026316,0 1.5131578,1.5131578 0 1 1 3.026316,0 z"
       sodipodi:ry="1.5131578"
       sodipodi:rx="1.5131578"
       sodipodi:cy="253.0921"
       sodipodi:cx="51.513157"
       id="path4078"
       style="color:#000000;fill:#2d2f3c;fill-opacity:1;fill-rule:nonzero;stroke:none;stroke-width:1;marker:none;visibility:visible;display:inline;overflow:visible;enable-background:accumulate"
       sodipodi:type="arc" />
    <path
       sodipodi:type="arc"
       style="color:#000000;fill:#2d2f3c;fill-opacity:1;fill-rule:nonzero;stroke:none;stroke-width:1;marker:none;visibility:visible;display:inline;overflow:visible;enable-background:accumulate"
       id="path4080"
       sodipodi:cx="51.513157"
       sodipodi:cy="253.0921"
       sodipodi:rx="1.5131578"
       sodipodi:ry="1.5131578"
       d="m 53.026315,253.0921 a 1.5131578,1.5131578 0 1 1 -3.026316,0 1.5131578,1.5131578 0 1 1 3.026316,0 z"
       transform="matrix(0.35945942,0,0,0.35945942,53.583216,27.952348)" />
    <path
       sodipodi:type="arc"
       style="color:#000000;fill:#2d2f3c;fill-opacity:1;fill-rule:nonzero;stroke:none;stroke-width:1;marker:none;visibility:visible;display:inline;overflow:visible;enable-background:accumulate"
       id="path4082"
       sodipodi:cx="51.513157"
       sodipodi:cy="253.0921"
       sodipodi:rx="1.5131578"
       sodipodi:ry="1.5131578"
       d="m 53.026315,253.0921 a 1.5131578,1.5131578 0 1 1 -3.026316,0 1.5131578,1.5131578 0 1 1 3.026316,0 z"
       transform="matrix(0.42399747,0,0,0.42399747,47.628881,-54.871167)" />
    <path
       transform="matrix(0.42399747,0,0,0.42399747,50.66723,-56.252235)"
       d="m 53.026315,253.0921 a 1.5131578,1.5131578 0 1 1 -3.026316,0 1.5131578,1.5131578 0 1 1 3.026316,0 z"
       sodipodi:ry="1.5131578"
       sodipodi:rx="1.5131578"
       sodipodi:cy="253.0921"
       sodipodi:cx="51.513157"
       id="path4084"
       style="color:#000000;fill:#2d2f3c;fill-opacity:1;fill-rule:nonzero;stroke:none;stroke-width:1;marker:none;visibility:visible;display:inline;overflow:visible;enable-background:accumulate"
       sodipodi:type="arc" />
    <path
       sodipodi:type="arc"
       style="color:#000000;fill:#2d2f3c;fill-opacity:1;fill-rule:nonzero;stroke:none;stroke-width:1;marker:none;visibility:visible;display:inline;overflow:visible;enable-background:accumulate"
       id="path4086"
       sodipodi:cx="51.513157"
       sodipodi:cy="253.0921"
       sodipodi:rx="1.5131578"
       sodipodi:ry="1.5131578"
       d="m 53.026315,253.0921 a 1.5131578,1.5131578 0 1 1 -3.026316,0 1.5131578,1.5131578 0 1 1 3.026316,0 z"
       transform="matrix(0.42399747,0,0,0.42399747,50.529123,-52.868619)" />
    <path
       transform="matrix(0.74344449,0,0,0.74344449,31.587476,-132.19896)"
       d="m 53.026315,253.0921 a 1.5131578,1.5131578 0 1 1 -3.026316,0 1.5131578,1.5131578 0 1 1 3.026316,0 z"
       sodipodi:ry="1.5131578"
       sodipodi:rx="1.5131578"
       sodipodi:cy="253.0921"
       sodipodi:cx="51.513157"
       id="path4088"
       style="color:#000000;fill:#2d2f3c;fill-opacity:1;fill-rule:nonzero;stroke:none;stroke-width:1;marker:none;visibility:visible;display:inline;overflow:visible;enable-background:accumulate"
       sodipodi:type="arc" />
  </g>
</svg>
