<?xml version="1.0" encoding="UTF-8" standalone="no"?>
<!-- Created with Inkscape (http://www.inkscape.org/) -->

<svg
   xmlns:dc="http://purl.org/dc/elements/1.1/"
   xmlns:cc="http://creativecommons.org/ns#"
   xmlns:rdf="http://www.w3.org/1999/02/22-rdf-syntax-ns#"
   xmlns:svg="http://www.w3.org/2000/svg"
   xmlns="http://www.w3.org/2000/svg"
   xmlns:sodipodi="http://sodipodi.sourceforge.net/DTD/sodipodi-0.dtd"
   xmlns:inkscape="http://www.inkscape.org/namespaces/inkscape"
   id="svg2"
   version="1.1"
   inkscape:version="0.48.2 r9819"
   width="128"
   height="128"
   sodipodi:docname="amSnowball.svg"
   inkscape:export-filename="/home/alumno/amSnowball.png"
   inkscape:export-xdpi="90"
   inkscape:export-ydpi="90">
  <metadata
     id="metadata8">
    <rdf:RDF>
      <cc:Work
         rdf:about="">
        <dc:format>image/svg+xml</dc:format>
        <dc:type
           rdf:resource="http://purl.org/dc/dcmitype/StillImage" />
        <dc:title></dc:title>
      </cc:Work>
    </rdf:RDF>
  </metadata>
  <defs
     id="defs6" />
  <sodipodi:namedview
     pagecolor="#ffffff"
     bordercolor="#666666"
     borderopacity="1"
     objecttolerance="10"
     gridtolerance="10"
     guidetolerance="10"
     inkscape:pageopacity="0"
     inkscape:pageshadow="2"
     inkscape:window-width="1024"
     inkscape:window-height="576"
     id="namedview4"
     showgrid="false"
     inkscape:zoom="3.6875"
     inkscape:cx="64"
     inkscape:cy="74.847458"
     inkscape:window-x="0"
     inkscape:window-y="24"
     inkscape:window-maximized="1"
     inkscape:current-layer="svg2" />
  <g
     id="g3142"
     transform="matrix(0.97742508,0,0,1,1.4010943,0)">
    <path
       inkscape:connector-curvature="0"
       id="path3042-5-9"
       d="m 72.669985,69.529726 c -3.145615,-0.545235 -6.42249,-2.890076 -7.857041,-5.622279 -2.153306,-4.101119 -1.281836,-8.75168 2.238774,-11.947152 4.341942,-3.940947 11.319436,-3.916319 15.69527,0.05542 2.276723,2.066462 3.362698,4.488259 3.342379,7.453728 -0.04453,6.493099 -6.420873,11.273368 -13.419382,10.060305 z"
       style="opacity:0.98999999;fill:#572503;fill-opacity:1;fill-rule:evenodd;stroke:none" />
    <path
       inkscape:connector-curvature="0"
       id="path3042-5"
       d="m 72.074486,68.809188 c -3.09694,-0.567087 -6.323115,-3.005907 -7.735469,-5.847611 -2.119987,-4.265488 -1.262002,-9.102438 2.204136,-12.425982 4.274754,-4.098893 11.144289,-4.073279 15.452411,0.05764 2.241505,2.14928 3.310668,4.668144 3.290664,7.752461 -0.04387,6.753336 -6.321516,11.725191 -13.211742,10.463512 z"
       style="opacity:0.98999999;fill:#d55703;fill-opacity:1;fill-rule:evenodd;stroke:none" />
    <path
       inkscape:connector-curvature="0"
       id="path3042"
       d="m 72.905865,68.276034 c -2.852123,-0.514902 -5.823256,-2.729293 -7.123962,-5.3095 -1.952396,-3.872965 -1.162237,-8.264804 2.029895,-11.282508 3.936826,-3.721701 10.263302,-3.698445 14.230855,0.05233 2.064304,1.951499 3.048953,4.238569 3.030526,7.039063 -0.04043,6.131874 -5.821789,10.646207 -12.167314,9.50063 z"
       style="opacity:0.98999999;fill:#fe6600;fill-opacity:1;fill-rule:evenodd;stroke:none" />
    <path
       sodipodi:nodetypes="ssssss"
       inkscape:connector-curvature="0"
       id="path3044"
       d="m 68.982076,51.717606 c 0.861953,-1.131965 3.213824,-1.87446 4.576469,-1.991795 2.584283,-0.222525 3.623455,0.924895 3.925261,1.57017 0.477735,1.021442 -1.42965,1.434157 -3.365277,1.63189 -0.912988,0.09327 -1.806892,0.862345 -2.209507,1.308315 -2.821253,3.125022 -5.607197,1.001252 -2.926946,-2.51858 z"
       style="opacity:0.3;fill:#ffffff;fill-opacity:1;fill-rule:evenodd;stroke:none" />
    <path
       transform="matrix(2.6350423,0,0,2.2478717,-126.91421,-91.700602)"
       d="m 75.073167,70.232971 c 0,0.97962 -0.751213,1.77376 -1.67788,1.77376 -0.926668,0 -1.677881,-0.79414 -1.677881,-1.77376 0,-0.97962 0.751213,-1.773759 1.677881,-1.773759 0.926667,0 1.67788,0.794139 1.67788,1.773759 z"
       sodipodi:ry="1.7737594"
       sodipodi:rx="1.6778805"
       sodipodi:cy="70.232971"
       sodipodi:cx="73.395287"
       id="path3100-1"
       style="fill:#a3086a;fill-opacity:1;fill-rule:evenodd;stroke:none"
       sodipodi:type="arc" />
    <path
       transform="matrix(1.5536423,0,0,1.4518088,-47.784407,-35.849202)"
       d="m 75.073167,70.232971 c 0,0.97962 -0.751213,1.77376 -1.67788,1.77376 -0.926668,0 -1.677881,-0.79414 -1.677881,-1.77376 0,-0.97962 0.751213,-1.773759 1.677881,-1.773759 0.926667,0 1.67788,0.794139 1.67788,1.773759 z"
       sodipodi:ry="1.7737594"
       sodipodi:rx="1.6778805"
       sodipodi:cy="70.232971"
       sodipodi:cx="73.395287"
       id="path3100"
       style="fill:#f49ee9;fill-opacity:1;fill-rule:evenodd;stroke:#db2efe;stroke-width:0.40000001;stroke-miterlimit:4;stroke-opacity:1;stroke-dasharray:none"
       sodipodi:type="arc" />
  </g>
</svg>
