<?xml version="1.0" encoding="UTF-8" standalone="no"?>
<!-- Created with Inkscape (http://www.inkscape.org/) -->

<svg
   xmlns:dc="http://purl.org/dc/elements/1.1/"
   xmlns:cc="http://creativecommons.org/ns#"
   xmlns:rdf="http://www.w3.org/1999/02/22-rdf-syntax-ns#"
   xmlns:svg="http://www.w3.org/2000/svg"
   xmlns="http://www.w3.org/2000/svg"
   xmlns:sodipodi="http://sodipodi.sourceforge.net/DTD/sodipodi-0.dtd"
   xmlns:inkscape="http://www.inkscape.org/namespaces/inkscape"
   id="svg4227"
   version="1.1"
   inkscape:version="0.48.2 r9819"
   width="188"
   height="122"
   sodipodi:docname="Banana.svg"
   inkscape:export-filename="/home/alumno/Banana2.png"
   inkscape:export-xdpi="90"
   inkscape:export-ydpi="90">
  <metadata
     id="metadata4233">
    <rdf:RDF>
      <cc:Work
         rdf:about="">
        <dc:format>image/svg+xml</dc:format>
        <dc:type
           rdf:resource="http://purl.org/dc/dcmitype/StillImage" />
        <dc:title></dc:title>
      </cc:Work>
    </rdf:RDF>
  </metadata>
  <defs
     id="defs4231" />
  <sodipodi:namedview
     pagecolor="#ffffff"
     bordercolor="#666666"
     borderopacity="1"
     objecttolerance="10"
     gridtolerance="10"
     guidetolerance="10"
     inkscape:pageopacity="0"
     inkscape:pageshadow="2"
     inkscape:window-width="1024"
     inkscape:window-height="576"
     id="namedview4229"
     showgrid="false"
     inkscape:zoom="1.4142136"
     inkscape:cx="188.27075"
     inkscape:cy="88.86354"
     inkscape:window-x="0"
     inkscape:window-y="24"
     inkscape:window-maximized="1"
     inkscape:current-layer="g3851" />
  <rect
     style="opacity:0;fill:#ba9d00;fill-opacity:1;fill-rule:evenodd;stroke:#ff73e1;stroke-width:0.6600787;stroke-miterlimit:4;stroke-opacity:1;stroke-dasharray:none;stroke-dashoffset:0"
     id="rect2996"
     width="199.33992"
     height="199.33992"
     x="-5.6699605"
     y="-39.66996"
     rx="7.4470072"
     ry="0.11719175" />
  <g
     id="g3851"
     transform="matrix(-1,0,0,1,189.2706,0)">
    <g
       id="g2999"
       transform="matrix(-0.8235295,-0.56727344,-0.56727344,0.8235295,206.82408,64.339957)">
      <rect
         transform="matrix(-1,0,0,1,189.2706,0)"
         ry="0.14342025"
         rx="9.2296047"
         y="-2.4507911"
         x="-1.4142135"
         height="128.69344"
         width="193.04016"
         id="rect3892"
         style="fill:#ba9d00;fill-opacity:0;fill-rule:evenodd;stroke:none" />
      <path
         style="fill:#aeb800;fill-opacity:1;stroke:#c8af00;stroke-width:0.46497238;stroke-miterlimit:4;stroke-opacity:1;stroke-dasharray:none"
         d="m 173.22161,12.368156 c 0.38299,-1.254549 2.88882,-2.136399 5.31113,-2.136399 0.80919,0.197421 8.56261,0.719772 7.31308,4.737604 -2.73447,1.357662 -12.82099,0.135614 -12.62421,-2.601205 z"
         id="path3763"
         inkscape:connector-curvature="0"
         sodipodi:nodetypes="cccc" />
      <path
         style="fill:#f6ee00;fill-opacity:1;stroke:#ba9d00;stroke-width:2.23267698;stroke-miterlimit:4;stroke-opacity:1;stroke-dasharray:none"
         d="m 174.72691,14.430121 c 3.68436,1.59464 6.76084,1.396765 10.53259,0.852596 3.16749,12.573215 -6.38409,38.106194 -11.05639,22.947806 -0.56544,-1.970698 1.04489,-7.745226 1.5155,-13.284104 0.38228,-4.499216 -0.30164,-8.900955 -0.9917,-10.516298 z"
         id="path3759"
         inkscape:connector-curvature="0"
         sodipodi:nodetypes="cccsc" />
      <path
         style="fill:#f6ee00;fill-opacity:1;stroke:#ba9d00;stroke-width:2.86675739;stroke-miterlimit:4;stroke-opacity:1;stroke-dasharray:none"
         d="M 14.118276,98.012947 C 6.5242914,93.166946 2.9983654,84.741923 1.8511903,80.802314 1.5117082,79.636462 1.6496188,78.973436 1.6160582,78.77484 c 0,0 -0.7585206,-2.515724 0.8157026,-3.080172 37.5043142,-13.447416 79.3121062,2.84349 108.7990492,-7.238897 42.1655,-15.932764 67.15724,-40.596497 69.14144,-36.895025 0.87923,1.640186 1.60235,3.283492 2.18586,4.925062 4.87426,13.712407 1.19063,27.947485 -4.97935,37.929279 C 140.38936,134.58 70.667237,128.54467 14.290595,98.119144 c -0.05869,-0.03263 -0.115089,-0.07075 -0.172319,-0.106197 z"
         id="path3755"
         inkscape:connector-curvature="0"
         sodipodi:nodetypes="cssscssscc" />
      <path
         style="fill:#f6d700;fill-opacity:1;stroke:none"
         d="m 126.05682,97.959228 c 30.99402,-10.590639 51.90402,-42.860122 55.76745,-41.990571 4.6666,-1.178675 -5.68246,21.512754 -16.3621,32.394781 -22.4607,21.518362 -41.68714,33.775812 -88.869476,29.914632 -6.714536,-0.54948 -12.127377,-2.52613 -16.24804,-3.51148 -15.230481,-3.64199 -19.540632,-6.44601 -19.2136,-7.60165 21.074895,-6.16755 62.599736,-2.3449 84.925766,-9.205712 z"
         id="path3755-8"
         inkscape:connector-curvature="0"
         sodipodi:nodetypes="cccsscc" />
      <path
         style="fill:#f6ee00;fill-opacity:1;stroke:none"
         d="m 176.69271,18.470917 c 3.28193,1.594639 4.25223,0.117875 7.612,-0.426293 2.8215,12.573216 -7.75472,47.26985 -11.91666,32.11147 -0.50369,-1.970699 2.99871,-16.908889 3.41791,-22.447761 0.34053,-4.499223 1.50144,-7.622073 0.88675,-9.237416 z"
         id="path3759-1"
         inkscape:connector-curvature="0"
         sodipodi:nodetypes="cccsc" />
      <path
         style="fill:#000000;fill-opacity:1;stroke:none"
         d="m 185.22914,16.262035 c 0.3729,6.793985 -0.95213,14.4881 -3.35782,19.872777 0.43982,-2.493879 2.50799,-6.855983 2.99692,-19.508125 0.0193,-0.500018 0.36693,-0.187987 0.36098,-0.364652 z"
         id="path3811"
         inkscape:connector-curvature="0"
         sodipodi:nodetypes="ccscc" />
      <path
         style="fill:#000000;fill-opacity:1;stroke:none"
         d="m 184.04975,16.447571 c 0.3729,6.793979 -0.95213,14.488101 -3.35781,19.87277 0.43981,-2.493879 2.50799,-6.855976 2.99691,-19.508125 0.0193,-0.500018 0.36693,-0.187987 0.36098,-0.364645 z"
         id="path3811-4"
         inkscape:connector-curvature="0"
         sodipodi:nodetypes="ccscc" />
      <path
         style="fill:#ffff00;fill-opacity:1;stroke:none"
         d="m 46.396036,78.059476 c 9.61941,-0.782867 18.50776,0.447762 28.49952,0.400598 C 131.10109,71.001302 127.57596,62.608275 151.79818,50.65543 162.6647,67.30652 120.1764,81.050393 111.67801,82.77471 68.769756,90.815892 20.384966,88.60193 13.808626,86.848176 9.191806,85.616977 2.2070864,78.930403 3.4871764,78.177117 c 2.90155,-1.707452 29.0777996,0.36669 42.9088596,-0.117641 z"
         id="path3938-0"
         inkscape:connector-curvature="0"
         sodipodi:nodetypes="ccccssc" />
      <path
         style="fill:#ebb000;fill-opacity:1;stroke:none"
         d="m 178.34655,69.354915 c -1.03692,3.62674 -4.80002,9.760945 -8.75445,14.805148 -2.07159,2.642479 -4.51976,5.046467 -5.97744,6.482336 -6.73661,6.635803 -11.3907,10.605581 -18.39689,14.945561 -19.68708,12.19516 -40.18229,14.72677 -64.772767,12.90932 -8.039936,-0.30915 -24.115294,-3.44612 -34.95135,-8.30855 -1.57065,-0.92962 -0.49367,-1.64994 2.08257,-1.73924 6.45203,-0.22363 47.8998,6.01939 68.962127,0.53135 23.21067,-6.04783 43.20085,-21.762931 60.04973,-40.131212 0.41027,-0.44727 1.41173,-0.681808 1.75847,0.505287 z"
         id="path3755-8-4"
         inkscape:connector-curvature="0"
         sodipodi:nodetypes="csssccsssc" />
      <path
         style="opacity:0.65591401;fill:#fffff4;fill-opacity:0.50965247;stroke:none"
         d="m 63.141072,72.675461 c 9.34075,0.02053 13.86867,1.433303 22.55808,0.89946 5.39675,-0.331557 10.066969,-0.03862 19.666538,-1.532352 21.56711,-7.693615 34.5254,-14.683402 47.59194,-22.765952 4.44492,5.066169 -3.38161,11.38085 -16.63807,18.19416 -4.76161,2.447286 -9.90984,5.73305 -16.09555,7.385835 -6.81999,1.822262 -14.15651,4.734903 -22.034838,5.739436 C 55.958072,85.980763 0.5346416,79.992728 3.5135516,77.270766 23.441754,69.890694 39.153934,70.772391 63.141072,72.675461 z"
         id="path3938"
         inkscape:connector-curvature="0"
         sodipodi:nodetypes="csccssscc" />
      <path
         style="opacity:0.17204303;fill:#808080;fill-opacity:1;stroke:none"
         d="m 184.92002,19.005236 c 0.59659,6.950201 1.04615,8.860806 -2.99505,15.99138 -0.17966,0.317013 -1.10197,-0.231739 -1.33716,0.07181 0.0362,-1.570984 0.72315,-4.863702 1.22582,-8.631549 0.39707,-2.976307 0.80244,-6.125771 -0.17436,-9.81309 3.46833,-0.09551 3.12785,0.600195 3.28075,2.381442 z"
         id="path3811-4-6-7"
         inkscape:connector-curvature="0"
         sodipodi:nodetypes="sscscs" />
      <path
         style="fill:#ba9d00;fill-opacity:1;fill-rule:evenodd;stroke:none"
         d="m 1.854167,79.082528 0,-3.875 c 2.5833333,0 5.7228328,-1.144256 5.875,-0.75 0,0 2.457974,2.169987 2.40533,4.625 -0.08906,4.153477 -1.9276336,5.758883 -5.8169417,5.758883 l -2.375,-1 z"
         id="path3781"
         inkscape:connector-curvature="0"
         sodipodi:nodetypes="ccssccc" />
      <path
         style="opacity:0.17204303;fill:#808080;fill-opacity:1;stroke:none"
         d="m 176.45515,18.530647 c -0.59659,6.950201 -0.86937,10.982126 0.16662,16.698487 0.065,0.358542 1.10197,-0.231739 1.33716,0.07181 -0.0362,-1.570984 2.10528,-5.570809 1.60261,-9.338656 -0.39707,-2.976307 -0.80244,-6.125771 0.17436,-9.81309 -3.46833,-0.09551 -3.12785,0.600195 -3.28075,2.381449 z"
         id="path3811-4-6-7-0"
         inkscape:connector-curvature="0"
         sodipodi:nodetypes="sscscs" />
      <rect
         style="opacity:0;fill:#ba9d00;fill-opacity:1;fill-rule:evenodd;stroke:none"
         id="rect3835"
         width="188.56349"
         height="122.03048"
         x="-189.2706"
         y="-0.32947311"
         rx="9.0267563"
         ry="0.13948013"
         transform="scale(-1,1)" />
    </g>
  </g>
</svg>
