<?xml version="1.0" encoding="UTF-8" standalone="no"?>
<!-- Created with Inkscape (http://www.inkscape.org/) -->

<svg
   xmlns:dc="http://purl.org/dc/elements/1.1/"
   xmlns:cc="http://creativecommons.org/ns#"
   xmlns:rdf="http://www.w3.org/1999/02/22-rdf-syntax-ns#"
   xmlns:svg="http://www.w3.org/2000/svg"
   xmlns="http://www.w3.org/2000/svg"
   xmlns:sodipodi="http://sodipodi.sourceforge.net/DTD/sodipodi-0.dtd"
   xmlns:inkscape="http://www.inkscape.org/namespaces/inkscape"
   id="svg2"
   version="1.1"
   inkscape:version="0.48.2 r9819"
   width="240"
   height="240"
   sodipodi:docname="LandBackTex.svg"
   inkscape:export-filename="/home/alumno/LandTex.png"
   inkscape:export-xdpi="180"
   inkscape:export-ydpi="180">
  <metadata
     id="metadata8">
    <rdf:RDF>
      <cc:Work
         rdf:about="">
        <dc:format>image/svg+xml</dc:format>
        <dc:type
           rdf:resource="http://purl.org/dc/dcmitype/StillImage" />
        <dc:title></dc:title>
      </cc:Work>
    </rdf:RDF>
  </metadata>
  <defs
     id="defs6" />
  <sodipodi:namedview
     pagecolor="#ffffff"
     bordercolor="#666666"
     borderopacity="1"
     objecttolerance="10"
     gridtolerance="10"
     guidetolerance="10"
     inkscape:pageopacity="0"
     inkscape:pageshadow="2"
     inkscape:window-width="1024"
     inkscape:window-height="576"
     id="namedview4"
     showgrid="false"
     inkscape:zoom="0.98333333"
     inkscape:cx="2.4185786"
     inkscape:cy="89.959001"
     inkscape:window-x="0"
     inkscape:window-y="24"
     inkscape:window-maximized="1"
     inkscape:current-layer="svg2" />
  <rect
     style="fill:#a00000;fill-opacity:1;fill-rule:evenodd;stroke:none"
     id="rect6362-2"
     width="245.06123"
     height="240"
     x="-0.82381439"
     y="0" />
  <path
     style="fill:#a00000;fill-opacity:1;fill-rule:evenodd;stroke:none"
     d="m -0.8238169,45.299127 0,-45.13296469 122.9694569,0 122.96946,0 0,45.13296469 c -32.5153,34.430713 -73.21598,9.738833 -104.79755,9.01344 -40.989815,0 -73.180476,35.557016 -102.164654,7.935503 C 26.990153,51.610128 -0.8238169,45.299127 -0.8238169,45.299127 z"
     id="path8053-2"
     inkscape:connector-curvature="0"
     sodipodi:nodetypes="ccccccsc" />
  <path
     style="fill:#8e0000;fill-opacity:1;fill-rule:evenodd;stroke:none"
     d="m -0.7839639,77.974368 0,-43.103353 1.7255681,0 c 0.9490608,0 5.6802538,1.564059 10.5137498,3.475687 11.928457,4.717653 20.698709,10.134467 27.219686,16.811829 5.25494,5.38095 11.234577,9.419576 16.095131,10.870589 1.743305,0.520428 5.484593,0.820972 9.605155,0.771601 8.522995,-0.102126 13.076477,-1.482101 33.822605,-10.250281 21.033349,-8.889575 30.596649,-11.541829 41.587409,-11.533722 6.32058,0.0048 10.94939,0.857754 30.50628,5.622335 19.50463,4.75185 24.43939,3.199429 35.03832,2.736834 10.58496,-0.461987 14.2368,-4.053646 22.51845,-9.136336 4.75027,-2.915379 5.15199,-2.503138 9.72367,-7.306932 1.94047,-2.038992 6.56319,-2.285711 6.7215,-2.285711 0.15831,0 0.4714,60.184143 0.4714,83.890982 0,0 -11.52851,-11.23072 -19.85007,-1.07116 -29.00312,35.40905 -68.50781,2.83973 -102.64905,3.61099 -36.863209,0.83275 -80.483557,27.25966 -110.589063,1.27434 -4.4934327,-3.87847 -9.7723273,3.15878 -11.5159686,-5.47155 -1.7640732,-8.73149 -0.9447723,-38.906142 -0.9447723,-38.906142 z"
     id="path8825-2"
     inkscape:connector-curvature="0"
     sodipodi:nodetypes="ccsssssssssssscssssc" />
  <path
     style="fill:#7e0000;fill-opacity:1;fill-rule:evenodd;stroke:none"
     d="m -1.0847357,106.17198 c 15.2834687,-5.81848 10.6054128,8.77873 34.7161807,14.75411 25.166073,6.23693 63.820796,-5.31895 84.613955,-5.25031 21.25889,0.0701 86.65679,-2.74298 112.65186,-8.32828 10.47951,-2.25163 12.90054,-1.70704 12.90054,-1.70704 l 0.18355,69.01918 c 0,0 -5.98471,-3.08321 -16.37315,4.67838 -25.76305,19.24849 -52.70289,9.29007 -93.33067,9.59254 -35.958875,0.26771 -67.699114,4.80055 -110.534816,-2.87936 -11.50153,-2.06207 -14.7175712,-12.47698 -24.1394709,-11.39156 0.3760056,-33.36102 -0.4090583,-52.79629 -0.687989,-68.48766 z"
     id="path8829-7"
     inkscape:connector-curvature="0"
     sodipodi:nodetypes="csssccsssccc" />
  <g
     id="g3044"
     style="fill:#000000"
     transform="matrix(1.0210885,0,0,1,-1.0847459,0)">
    <path
       transform="matrix(0.54173473,-0.3954267,0.25709444,0.83322058,38.8411,-83.851215)"
       d="m -74.745762,103.72881 c 0,2.52741 -1.024433,4.57627 -2.288135,4.57627 -1.263703,0 -2.288136,-2.04886 -2.288136,-4.57627 0,-2.5274 1.024433,-4.576268 2.288136,-4.576268 1.263702,0 2.288135,2.048868 2.288135,4.576268 z"
       sodipodi:ry="4.5762715"
       sodipodi:rx="2.2881358"
       sodipodi:cy="103.72881"
       sodipodi:cx="-77.033897"
       id="path7309-0"
       style="opacity:0.50879995;fill:#000000;fill-opacity:1;fill-rule:evenodd;stroke:none"
       sodipodi:type="arc" />
    <path
       transform="matrix(-0.54173473,-0.3954267,-0.25709444,0.83322058,41.55609,-94.925726)"
       d="m -74.745762,103.72881 c 0,2.52741 -1.024433,4.57627 -2.288135,4.57627 -1.263703,0 -2.288136,-2.04886 -2.288136,-4.57627 0,-2.5274 1.024433,-4.576268 2.288136,-4.576268 1.263702,0 2.288135,2.048868 2.288135,4.576268 z"
       sodipodi:ry="4.5762715"
       sodipodi:rx="2.2881358"
       sodipodi:cy="103.72881"
       sodipodi:cx="-77.033897"
       id="path7309-7-3"
       style="opacity:0.50879995;fill:#000000;fill-opacity:1;fill-rule:evenodd;stroke:none"
       sodipodi:type="arc" />
    <path
       transform="matrix(-0.59238187,-0.43174056,-0.28113037,0.90973907,10.08477,24.974226)"
       d="m -74.745762,103.72881 c 0,2.52741 -1.024433,4.57627 -2.288135,4.57627 -1.263703,0 -2.288136,-2.04886 -2.288136,-4.57627 0,-2.5274 1.024433,-4.576268 2.288136,-4.576268 1.263702,0 2.288135,2.048868 2.288135,4.576268 z"
       sodipodi:ry="4.5762715"
       sodipodi:rx="2.2881358"
       sodipodi:cy="103.72881"
       sodipodi:cx="-77.033897"
       id="path7309-7-5-4"
       style="opacity:0.50879995;fill:#000000;fill-opacity:1;fill-rule:evenodd;stroke:none"
       sodipodi:type="arc" />
    <path
       transform="matrix(0.54173473,-0.3954267,0.25709444,0.83322058,112.1639,58.32996)"
       d="m -74.745762,103.72881 c 0,2.52741 -1.024433,4.57627 -2.288135,4.57627 -1.263703,0 -2.288136,-2.04886 -2.288136,-4.57627 0,-2.5274 1.024433,-4.576268 2.288136,-4.576268 1.263702,0 2.288135,2.048868 2.288135,4.576268 z"
       sodipodi:ry="4.5762715"
       sodipodi:rx="2.2881358"
       sodipodi:cy="103.72881"
       sodipodi:cx="-77.033897"
       id="path7309-7-5-9-6"
       style="opacity:0.50879995;fill:#000000;fill-opacity:1;fill-rule:evenodd;stroke:none"
       sodipodi:type="arc" />
    <path
       transform="matrix(-0.54173473,-0.3954267,-0.25709444,0.83322058,87.72489,-63.875755)"
       d="m -74.745762,103.72881 c 0,2.52741 -1.024433,4.57627 -2.288135,4.57627 -1.263703,0 -2.288136,-2.04886 -2.288136,-4.57627 0,-2.5274 1.024433,-4.576268 2.288136,-4.576268 1.263702,0 2.288135,2.048868 2.288135,4.576268 z"
       sodipodi:ry="4.5762715"
       sodipodi:rx="2.2881358"
       sodipodi:cy="103.72881"
       sodipodi:cx="-77.033897"
       id="path7309-7-5-9-5-3"
       style="opacity:0.50879995;fill:#000000;fill-opacity:1;fill-rule:evenodd;stroke:none"
       sodipodi:type="arc" />
    <path
       transform="matrix(0.54173473,-0.3954267,0.25709444,0.83322058,151.98454,79.27951)"
       d="m -74.745762,103.72881 c 0,2.52741 -1.024433,4.57627 -2.288135,4.57627 -1.263703,0 -2.288136,-2.04886 -2.288136,-4.57627 0,-2.5274 1.024433,-4.576268 2.288136,-4.576268 1.263702,0 2.288135,2.048868 2.288135,4.576268 z"
       sodipodi:ry="4.5762715"
       sodipodi:rx="2.2881358"
       sodipodi:cy="103.72881"
       sodipodi:cx="-77.033897"
       id="path7309-7-5-9-5-2-6"
       style="opacity:0.50879995;fill:#000000;fill-opacity:1;fill-rule:evenodd;stroke:none"
       sodipodi:type="arc" />
    <path
       transform="matrix(-0.54173473,-0.3954267,-0.25709444,0.83322058,132.40971,-22.248043)"
       d="m -74.745762,103.72881 c 0,2.52741 -1.024433,4.57627 -2.288135,4.57627 -1.263703,0 -2.288136,-2.04886 -2.288136,-4.57627 0,-2.5274 1.024433,-4.576268 2.288136,-4.576268 1.263702,0 2.288135,2.048868 2.288135,4.576268 z"
       sodipodi:ry="4.5762715"
       sodipodi:rx="2.2881358"
       sodipodi:cy="103.72881"
       sodipodi:cx="-77.033897"
       id="path7309-7-5-9-5-2-3-3"
       style="opacity:0.50879995;fill:#000000;fill-opacity:1;fill-rule:evenodd;stroke:none"
       sodipodi:type="arc" />
    <path
       transform="matrix(0.54173473,-0.3954267,0.25709444,0.83322058,88.97635,16.973638)"
       d="m -74.745762,103.72881 c 0,2.52741 -1.024433,4.57627 -2.288135,4.57627 -1.263703,0 -2.288136,-2.04886 -2.288136,-4.57627 0,-2.5274 1.024433,-4.576268 2.288136,-4.576268 1.263702,0 2.288135,2.048868 2.288135,4.576268 z"
       sodipodi:ry="4.5762715"
       sodipodi:rx="2.2881358"
       sodipodi:cy="103.72881"
       sodipodi:cx="-77.033897"
       id="path7309-7-5-9-5-2-3-5-3"
       style="opacity:0.50879995;fill:#000000;fill-opacity:1;fill-rule:evenodd;stroke:none"
       sodipodi:type="arc" />
    <path
       transform="matrix(-0.54173473,-0.3954267,-0.25709444,0.83322058,176.41453,29.407128)"
       d="m -74.745762,103.72881 c 0,2.52741 -1.024433,4.57627 -2.288135,4.57627 -1.263703,0 -2.288136,-2.04886 -2.288136,-4.57627 0,-2.5274 1.024433,-4.576268 2.288136,-4.576268 1.263702,0 2.288135,2.048868 2.288135,4.576268 z"
       sodipodi:ry="4.5762715"
       sodipodi:rx="2.2881358"
       sodipodi:cy="103.72881"
       sodipodi:cx="-77.033897"
       id="path7309-7-5-9-5-2-3-5-4-4"
       style="opacity:0.50879995;fill:#000000;fill-opacity:1;fill-rule:evenodd;stroke:none"
       sodipodi:type="arc" />
    <path
       transform="matrix(0.54173473,-0.3954267,0.25709444,0.83322058,220.06267,-107.27773)"
       d="m -74.745762,103.72881 c 0,2.52741 -1.024433,4.57627 -2.288135,4.57627 -1.263703,0 -2.288136,-2.04886 -2.288136,-4.57627 0,-2.5274 1.024433,-4.576268 2.288136,-4.576268 1.263702,0 2.288135,2.048868 2.288135,4.576268 z"
       sodipodi:ry="4.5762715"
       sodipodi:rx="2.2881358"
       sodipodi:cy="103.72881"
       sodipodi:cx="-77.033897"
       id="path7309-7-5-9-5-2-3-5-4-3-4"
       style="opacity:0.50879995;fill:#000000;fill-opacity:1;fill-rule:evenodd;stroke:none"
       sodipodi:type="arc" />
    <path
       transform="matrix(-0.54173473,-0.3954267,-0.25709444,0.83322058,131.33797,-105.77486)"
       d="m -74.745762,103.72881 c 0,2.52741 -1.024433,4.57627 -2.288135,4.57627 -1.263703,0 -2.288136,-2.04886 -2.288136,-4.57627 0,-2.5274 1.024433,-4.576268 2.288136,-4.576268 1.263702,0 2.288135,2.048868 2.288135,4.576268 z"
       sodipodi:ry="4.5762715"
       sodipodi:rx="2.2881358"
       sodipodi:cy="103.72881"
       sodipodi:cx="-77.033897"
       id="path7309-7-5-9-5-2-3-5-4-3-1-39"
       style="opacity:0.50879995;fill:#000000;fill-opacity:1;fill-rule:evenodd;stroke:none"
       sodipodi:type="arc" />
    <path
       transform="matrix(-0.54173473,-0.3954267,-0.25709444,0.83322058,214.54084,-1.3396008)"
       d="m -74.745762,103.72881 c 0,2.52741 -1.024433,4.57627 -2.288135,4.57627 -1.263703,0 -2.288136,-2.04886 -2.288136,-4.57627 0,-2.5274 1.024433,-4.576268 2.288136,-4.576268 1.263702,0 2.288135,2.048868 2.288135,4.576268 z"
       sodipodi:ry="4.5762715"
       sodipodi:rx="2.2881358"
       sodipodi:cy="103.72881"
       sodipodi:cx="-77.033897"
       id="path7309-74-7"
       style="opacity:0.50879995;fill:#000000;fill-opacity:1;fill-rule:evenodd;stroke:none"
       sodipodi:type="arc" />
    <path
       transform="matrix(0.54173473,-0.3954267,0.25709444,0.83322058,222.21373,-47.072616)"
       d="m -74.745762,103.72881 c 0,2.52741 -1.024433,4.57627 -2.288135,4.57627 -1.263703,0 -2.288136,-2.04886 -2.288136,-4.57627 0,-2.5274 1.024433,-4.576268 2.288136,-4.576268 1.263702,0 2.288135,2.048868 2.288135,4.576268 z"
       sodipodi:ry="4.5762715"
       sodipodi:rx="2.2881358"
       sodipodi:cy="103.72881"
       sodipodi:cx="-77.033897"
       id="path7309-7-1-2"
       style="opacity:0.50879995;fill:#000000;fill-opacity:1;fill-rule:evenodd;stroke:none"
       sodipodi:type="arc" />
    <path
       transform="matrix(-0.54173473,-0.3954267,-0.25709444,0.83322058,156.05786,93.089866)"
       d="m -74.745762,103.72881 c 0,2.52741 -1.024433,4.57627 -2.288135,4.57627 -1.263703,0 -2.288136,-2.04886 -2.288136,-4.57627 0,-2.5274 1.024433,-4.576268 2.288136,-4.576268 1.263702,0 2.288135,2.048868 2.288135,4.576268 z"
       sodipodi:ry="4.5762715"
       sodipodi:rx="2.2881358"
       sodipodi:cy="103.72881"
       sodipodi:cx="-77.033897"
       id="path7309-7-5-9-8-58"
       style="opacity:0.50879995;fill:#000000;fill-opacity:1;fill-rule:evenodd;stroke:none"
       sodipodi:type="arc" />
    <path
       transform="matrix(0.54173473,-0.3954267,0.25709444,0.83322058,184.94882,-47.600392)"
       d="m -74.745762,103.72881 c 0,2.52741 -1.024433,4.57627 -2.288135,4.57627 -1.263703,0 -2.288136,-2.04886 -2.288136,-4.57627 0,-2.5274 1.024433,-4.576268 2.288136,-4.576268 1.263702,0 2.288135,2.048868 2.288135,4.576268 z"
       sodipodi:ry="4.5762715"
       sodipodi:rx="2.2881358"
       sodipodi:cy="103.72881"
       sodipodi:cx="-77.033897"
       id="path7309-7-5-9-5-5-9"
       style="opacity:0.50879995;fill:#000000;fill-opacity:1;fill-rule:evenodd;stroke:none"
       sodipodi:type="arc" />
    <path
       transform="matrix(-0.54173473,-0.3954267,-0.25709444,0.83322058,113.26926,114.8096)"
       d="m -74.745762,103.72881 c 0,2.52741 -1.024433,4.57627 -2.288135,4.57627 -1.263703,0 -2.288136,-2.04886 -2.288136,-4.57627 0,-2.5274 1.024433,-4.576268 2.288136,-4.576268 1.263702,0 2.288135,2.048868 2.288135,4.576268 z"
       sodipodi:ry="4.5762715"
       sodipodi:rx="2.2881358"
       sodipodi:cy="103.72881"
       sodipodi:cx="-77.033897"
       id="path7309-7-5-9-5-2-9-0"
       style="opacity:0.50879995;fill:#000000;fill-opacity:1;fill-rule:evenodd;stroke:none"
       sodipodi:type="arc" />
    <path
       transform="matrix(0.54173473,-0.3954267,0.25709444,0.83322058,135.81205,14.052233)"
       d="m -74.745762,103.72881 c 0,2.52741 -1.024433,4.57627 -2.288135,4.57627 -1.263703,0 -2.288136,-2.04886 -2.288136,-4.57627 0,-2.5274 1.024433,-4.576268 2.288136,-4.576268 1.263702,0 2.288135,2.048868 2.288135,4.576268 z"
       sodipodi:ry="4.5762715"
       sodipodi:rx="2.2881358"
       sodipodi:cy="103.72881"
       sodipodi:cx="-77.033897"
       id="path7309-7-5-9-5-2-3-7-2"
       style="opacity:0.50879995;fill:#000000;fill-opacity:1;fill-rule:evenodd;stroke:none"
       sodipodi:type="arc" />
    <path
       transform="matrix(-0.54173473,-0.3954267,-0.25709444,0.83322058,201.50517,80.230526)"
       d="m -74.745762,103.72881 c 0,2.52741 -1.024433,4.57627 -2.288135,4.57627 -1.263703,0 -2.288136,-2.04886 -2.288136,-4.57627 0,-2.5274 1.024433,-4.576268 2.288136,-4.576268 1.263702,0 2.288135,2.048868 2.288135,4.576268 z"
       sodipodi:ry="4.5762715"
       sodipodi:rx="2.2881358"
       sodipodi:cy="103.72881"
       sodipodi:cx="-77.033897"
       id="path7309-7-5-9-5-2-3-5-5-4"
       style="opacity:0.50879995;fill:#000000;fill-opacity:1;fill-rule:evenodd;stroke:none"
       sodipodi:type="arc" />
    <path
       transform="matrix(0.54173473,-0.3954267,0.25709444,0.83322058,97.00118,80.340996)"
       d="m -74.745762,103.72881 c 0,2.52741 -1.024433,4.57627 -2.288135,4.57627 -1.263703,0 -2.288136,-2.04886 -2.288136,-4.57627 0,-2.5274 1.024433,-4.576268 2.288136,-4.576268 1.263702,0 2.288135,2.048868 2.288135,4.576268 z"
       sodipodi:ry="4.5762715"
       sodipodi:rx="2.2881358"
       sodipodi:cy="103.72881"
       sodipodi:cx="-77.033897"
       id="path7309-7-5-9-5-2-3-5-4-38-7"
       style="opacity:0.50879995;fill:#000000;fill-opacity:1;fill-rule:evenodd;stroke:none"
       sodipodi:type="arc" />
    <path
       transform="matrix(-0.54173473,-0.3954267,-0.25709444,0.83322058,74.8708,-27.846868)"
       d="m -74.745762,103.72881 c 0,2.52741 -1.024433,4.57627 -2.288135,4.57627 -1.263703,0 -2.288136,-2.04886 -2.288136,-4.57627 0,-2.5274 1.024433,-4.576268 2.288136,-4.576268 1.263702,0 2.288135,2.048868 2.288135,4.576268 z"
       sodipodi:ry="4.5762715"
       sodipodi:rx="2.2881358"
       sodipodi:cy="103.72881"
       sodipodi:cx="-77.033897"
       id="path7309-7-5-9-5-2-3-5-4-3-8-6"
       style="opacity:0.50879995;fill:#000000;fill-opacity:1;fill-rule:evenodd;stroke:none"
       sodipodi:type="arc" />
    <path
       transform="matrix(0.54173473,-0.3954267,0.25709444,0.83322058,125.75391,-93.350442)"
       d="m -74.745762,103.72881 c 0,2.52741 -1.024433,4.57627 -2.288135,4.57627 -1.263703,0 -2.288136,-2.04886 -2.288136,-4.57627 0,-2.5274 1.024433,-4.576268 2.288136,-4.576268 1.263702,0 2.288135,2.048868 2.288135,4.576268 z"
       sodipodi:ry="4.5762715"
       sodipodi:rx="2.2881358"
       sodipodi:cy="103.72881"
       sodipodi:cx="-77.033897"
       id="path7309-7-5-9-5-2-3-5-4-3-1-3-5"
       style="opacity:0.50879995;fill:#000000;fill-opacity:1;fill-rule:evenodd;stroke:none"
       sodipodi:type="arc" />
    <path
       transform="matrix(-0.54173473,-0.3954267,-0.25709444,0.83322058,32.19821,75.374751)"
       d="m -74.745762,103.72881 c 0,2.52741 -1.024433,4.57627 -2.288135,4.57627 -1.263703,0 -2.288136,-2.04886 -2.288136,-4.57627 0,-2.5274 1.024433,-4.576268 2.288136,-4.576268 1.263702,0 2.288135,2.048868 2.288135,4.576268 z"
       sodipodi:ry="4.5762715"
       sodipodi:rx="2.2881358"
       sodipodi:cy="103.72881"
       sodipodi:cx="-77.033897"
       id="path7309-7-5-9-5-2-0-7"
       style="opacity:0.50879995;fill:#000000;fill-opacity:1;fill-rule:evenodd;stroke:none"
       sodipodi:type="arc" />
    <path
       transform="matrix(0.54173473,-0.3954267,0.25709444,0.83322058,31.09286,89.955298)"
       d="m -74.745762,103.72881 c 0,2.52741 -1.024433,4.57627 -2.288135,4.57627 -1.263703,0 -2.288136,-2.04886 -2.288136,-4.57627 0,-2.5274 1.024433,-4.576268 2.288136,-4.576268 1.263702,0 2.288135,2.048868 2.288135,4.576268 z"
       sodipodi:ry="4.5762715"
       sodipodi:rx="2.2881358"
       sodipodi:cy="103.72881"
       sodipodi:cx="-77.033897"
       id="path7309-7-5-9-8-5-1"
       style="opacity:0.50879995;fill:#000000;fill-opacity:1;fill-rule:evenodd;stroke:none"
       sodipodi:type="arc" />
    <path
       transform="matrix(0.54173473,-0.3954267,0.25709444,0.83322058,70.91349,110.90484)"
       d="m -74.745762,103.72881 c 0,2.52741 -1.024433,4.57627 -2.288135,4.57627 -1.263703,0 -2.288136,-2.04886 -2.288136,-4.57627 0,-2.5274 1.024433,-4.576268 2.288136,-4.576268 1.263702,0 2.288135,2.048868 2.288135,4.576268 z"
       sodipodi:ry="4.5762715"
       sodipodi:rx="2.2881358"
       sodipodi:cy="103.72881"
       sodipodi:cx="-77.033897"
       id="path7309-7-5-9-5-2-9-9-3"
       style="opacity:0.50879995;fill:#000000;fill-opacity:1;fill-rule:evenodd;stroke:none"
       sodipodi:type="arc" />
    <path
       transform="matrix(-0.54173473,-0.3954267,-0.25709444,0.83322058,34.17129,-66.115345)"
       d="m -74.745762,103.72881 c 0,2.52741 -1.024433,4.57627 -2.288135,4.57627 -1.263703,0 -2.288136,-2.04886 -2.288136,-4.57627 0,-2.5274 1.024433,-4.576268 2.288136,-4.576268 1.263702,0 2.288135,2.048868 2.288135,4.576268 z"
       sodipodi:ry="4.5762715"
       sodipodi:rx="2.2881358"
       sodipodi:cy="103.72881"
       sodipodi:cx="-77.033897"
       id="path7309-7-5-9-5-2-3-5-4-3-0-3"
       style="opacity:0.50879995;fill:#000000;fill-opacity:1;fill-rule:evenodd;stroke:none"
       sodipodi:type="arc" />
    <path
       transform="matrix(-0.54173473,-0.3954267,-0.25709444,0.83322058,5.30853,-49.040812)"
       d="m -74.745762,103.72881 c 0,2.52741 -1.024433,4.57627 -2.288135,4.57627 -1.263703,0 -2.288136,-2.04886 -2.288136,-4.57627 0,-2.5274 1.024433,-4.576268 2.288136,-4.576268 1.263702,0 2.288135,2.048868 2.288135,4.576268 z"
       sodipodi:ry="4.5762715"
       sodipodi:rx="2.2881358"
       sodipodi:cy="103.72881"
       sodipodi:cx="-77.033897"
       id="path7309-7-1-5-8"
       style="opacity:0.50879995;fill:#000000;fill-opacity:1;fill-rule:evenodd;stroke:none"
       sodipodi:type="arc" />
    <path
       transform="matrix(-0.54173473,-0.3954267,-0.25709444,0.83322058,30.70157,-20.301408)"
       d="m -74.745762,103.72881 c 0,2.52741 -1.024433,4.57627 -2.288135,4.57627 -1.263703,0 -2.288136,-2.04886 -2.288136,-4.57627 0,-2.5274 1.024433,-4.576268 2.288136,-4.576268 1.263702,0 2.288135,2.048868 2.288135,4.576268 z"
       sodipodi:ry="4.5762715"
       sodipodi:rx="2.2881358"
       sodipodi:cy="103.72881"
       sodipodi:cx="-77.033897"
       id="path7309-7-5-9-5-5-0-5"
       style="opacity:0.50879995;fill:#000000;fill-opacity:1;fill-rule:evenodd;stroke:none"
       sodipodi:type="arc" />
  </g>
</svg>
