<?xml version="1.0" encoding="UTF-8" standalone="no"?>
<!-- Created with Inkscape (http://www.inkscape.org/) -->

<svg
   xmlns:dc="http://purl.org/dc/elements/1.1/"
   xmlns:cc="http://creativecommons.org/ns#"
   xmlns:rdf="http://www.w3.org/1999/02/22-rdf-syntax-ns#"
   xmlns:svg="http://www.w3.org/2000/svg"
   xmlns="http://www.w3.org/2000/svg"
   xmlns:sodipodi="http://sodipodi.sourceforge.net/DTD/sodipodi-0.dtd"
   xmlns:inkscape="http://www.inkscape.org/namespaces/inkscape"
   id="svg2"
   version="1.1"
   inkscape:version="0.48.3.1 r9886"
   width="240"
   height="240"
   sodipodi:docname="LandTex.svg"
   inkscape:export-filename="/home/ranitas/LandTex.png"
   inkscape:export-xdpi="180"
   inkscape:export-ydpi="180">
  <metadata
     id="metadata8">
    <rdf:RDF>
      <cc:Work
         rdf:about="">
        <dc:format>image/svg+xml</dc:format>
        <dc:type
           rdf:resource="http://purl.org/dc/dcmitype/StillImage" />
        <dc:title></dc:title>
      </cc:Work>
    </rdf:RDF>
  </metadata>
  <defs
     id="defs6" />
  <sodipodi:namedview
     pagecolor="#ffffff"
     bordercolor="#666666"
     borderopacity="1"
     objecttolerance="10"
     gridtolerance="10"
     guidetolerance="10"
     inkscape:pageopacity="0"
     inkscape:pageshadow="2"
     inkscape:window-width="959"
     inkscape:window-height="744"
     id="namedview4"
     showgrid="false"
     inkscape:zoom="1.4142136"
     inkscape:cx="197.60139"
     inkscape:cy="139.98653"
     inkscape:window-x="65"
     inkscape:window-y="24"
     inkscape:window-maximized="1"
     inkscape:current-layer="svg2" />
  <rect
     style="fill:#007800;fill-opacity:1;fill-rule:evenodd;stroke:none"
     id="rect6362-2"
     width="242.12071"
     height="240"
     x="-2"
     y="1.5258789e-05" />
  <path
     style="fill:#006900;fill-opacity:1;fill-rule:evenodd;stroke:none"
     d="m -2,67.454553 0.1872007,-44.682327 1.7001611,0 c 0.9350872,0 5.5966192,1.621355 10.3589482,3.603012 11.752825,4.89047 20.393945,10.505717 26.818911,17.427682 5.177567,5.578068 11.069161,9.76464 15.85815,11.268806 1.717635,0.539489 5.40384,0.851047 9.463731,0.799867 8.397503,-0.105872 12.883942,-1.536394 33.324608,-10.625775 20.72365,-9.215217 30.14616,-11.964634 40.9751,-11.956226 6.2275,0.0049 10.78816,0.889173 30.0571,5.828293 19.21745,4.925924 24.07955,3.316632 34.52243,2.837087 10.4291,-0.478906 14.02718,-4.202139 22.18689,-9.471017 4.68033,-3.022177 5.07613,-2.594834 9.5805,-7.574602 1.91189,-2.113685 6.93102,-2.36944 7.08698,-2.36944 0.15599,0 0,62.388826 0,86.964117 0,0 -7.90828,-5.1699 -19.55779,-1.11041 -38.85174,13.53861 -67.84012,5.10113 -101.13767,6.66942 C 83.126555,116.77276 40.126713,140.39512 10.464473,113.4579 6.0372003,109.43735 0.1833992,116.73239 -1.5345691,107.78588 -1.8855187,94.859569 -2,67.454553 -2,67.454553 z"
     id="path8825-2"
     inkscape:connector-curvature="0"
     sodipodi:nodetypes="ccsssssssssssccssscc" />
  <path
     style="fill:#005500;fill-opacity:1;fill-rule:evenodd;stroke:none"
     d="m -1.9999898,104.11919 c 15.0997808,-6.400835 10.4779488,9.65741 34.2989348,16.23088 24.863609,6.86114 63.05375,-5.85136 83.596995,-5.77583 21.00341,0.077 85.61529,-3.01755 111.29794,-9.16188 10.35355,-2.47696 12.92683,-1.87786 12.92683,-1.87786 l 0,75.92721 c 0,0 -5.91279,-3.39184 -16.17637,5.1466 -25.45341,21.17505 -52.06946,10.2199 -92.20894,10.55268 -35.526705,0.29447 -66.885465,5.28102 -109.206335,-3.16757 C 11.165768,189.72493 7.3086609,178.26762 -2,179.46171 c 0.3714865,-36.7001 0.2755784,-58.08059 0,-75.34252 z"
     id="path8829-7"
     inkscape:connector-curvature="0"
     sodipodi:nodetypes="csssccsssccc" />
  <g
     id="g4094"
     transform="matrix(1.1298943,0,0,1,-17.696501,11.237427)">
    <path
       transform="matrix(0.07239434,-0.02732889,0.037041,0.1144023,26.89849,170.0357)"
       sodipodi:open="true"
       sodipodi:end="6.2714539"
       sodipodi:start="0"
       d="m 76.223709,211.41611 c 0,15.98502 -9.3365,28.94343 -20.853657,28.94343 -11.517156,0 -20.853656,-12.95841 -20.853656,-28.94343 0,-15.98502 9.3365,-28.94344 20.853656,-28.94344 11.421734,0 20.718232,12.75241 20.852222,28.6039"
       sodipodi:ry="28.943438"
       sodipodi:rx="20.853657"
       sodipodi:cy="211.41611"
       sodipodi:cx="55.370052"
       id="path4642"
       style="opacity:0.1971326;fill:#e6e6e6;fill-opacity:1;fill-rule:evenodd;stroke:#0a190d;stroke-width:5.79517746;stroke-miterlimit:4;stroke-opacity:1;stroke-dasharray:none"
       sodipodi:type="arc" />
    <path
       transform="matrix(-0.07239434,-0.02732889,-0.037041,0.1144023,96.00332,152.69877)"
       sodipodi:open="true"
       sodipodi:end="6.2714539"
       sodipodi:start="0"
       d="m 76.223709,211.41611 c 0,15.98502 -9.3365,28.94343 -20.853657,28.94343 -11.517156,0 -20.853656,-12.95841 -20.853656,-28.94343 0,-15.98502 9.3365,-28.94344 20.853656,-28.94344 11.421734,0 20.718232,12.75241 20.852222,28.6039"
       sodipodi:ry="28.943438"
       sodipodi:rx="20.853657"
       sodipodi:cy="211.41611"
       sodipodi:cx="55.370052"
       id="path4642-2"
       style="opacity:0.1971326;fill:#e6e6e6;fill-opacity:1;fill-rule:evenodd;stroke:#0a190d;stroke-width:5.79517746;stroke-miterlimit:4;stroke-opacity:1;stroke-dasharray:none"
       sodipodi:type="arc" />
    <path
       transform="matrix(0.02694078,-0.07343725,-0.11277764,-0.03757461,177.39469,123.4436)"
       sodipodi:open="true"
       sodipodi:end="6.2714539"
       sodipodi:start="0"
       d="m 76.223709,211.41611 c 0,15.98502 -9.3365,28.94343 -20.853657,28.94343 -11.517156,0 -20.853656,-12.95841 -20.853656,-28.94343 0,-15.98502 9.3365,-28.94344 20.853656,-28.94344 11.421734,0 20.718232,12.75241 20.852222,28.6039"
       sodipodi:ry="28.943438"
       sodipodi:rx="20.853657"
       sodipodi:cy="211.41611"
       sodipodi:cx="55.370052"
       id="path4642-9"
       style="opacity:0.1971326;fill:#e6e6e6;fill-opacity:1;fill-rule:evenodd;stroke:#0a190d;stroke-width:5.79517746;stroke-miterlimit:4;stroke-opacity:1;stroke-dasharray:none"
       sodipodi:type="arc" />
    <path
       transform="matrix(0.02694078,0.07343725,-0.11277764,0.03757461,131.96895,82.086464)"
       sodipodi:open="true"
       sodipodi:end="6.2714539"
       sodipodi:start="0"
       d="m 76.223709,211.41611 c 0,15.98502 -9.3365,28.94343 -20.853657,28.94343 -11.517156,0 -20.853656,-12.95841 -20.853656,-28.94343 0,-15.98502 9.3365,-28.94344 20.853656,-28.94344 11.421734,0 20.718232,12.75241 20.852222,28.6039"
       sodipodi:ry="28.943438"
       sodipodi:rx="20.853657"
       sodipodi:cy="211.41611"
       sodipodi:cx="55.370052"
       id="path4642-2-8"
       style="opacity:0.1971326;fill:#e6e6e6;fill-opacity:1;fill-rule:evenodd;stroke:#0a190d;stroke-width:5.79517746;stroke-miterlimit:4;stroke-opacity:1;stroke-dasharray:none"
       sodipodi:type="arc" />
    <path
       transform="matrix(-0.07239434,-0.02732889,-0.037041,0.1144023,186.20497,154.78254)"
       sodipodi:open="true"
       sodipodi:end="6.2714539"
       sodipodi:start="0"
       d="m 76.223709,211.41611 c 0,15.98502 -9.3365,28.94343 -20.853657,28.94343 -11.517156,0 -20.853656,-12.95841 -20.853656,-28.94343 0,-15.98502 9.3365,-28.94344 20.853656,-28.94344 11.421734,0 20.718232,12.75241 20.852222,28.6039"
       sodipodi:ry="28.943438"
       sodipodi:rx="20.853657"
       sodipodi:cy="211.41611"
       sodipodi:cx="55.370052"
       id="path4642-9-6"
       style="opacity:0.1971326;fill:#e6e6e6;fill-opacity:1;fill-rule:evenodd;stroke:#0a190d;stroke-width:5.79517746;stroke-miterlimit:4;stroke-opacity:1;stroke-dasharray:none"
       sodipodi:type="arc" />
    <path
       transform="matrix(0.07239434,-0.02732889,0.037041,0.1144023,117.10014,137.44561)"
       sodipodi:open="true"
       sodipodi:end="6.2714539"
       sodipodi:start="0"
       d="m 76.223709,211.41611 c 0,15.98502 -9.3365,28.94343 -20.853657,28.94343 -11.517156,0 -20.853656,-12.95841 -20.853656,-28.94343 0,-15.98502 9.3365,-28.94344 20.853656,-28.94344 11.421734,0 20.718232,12.75241 20.852222,28.6039"
       sodipodi:ry="28.943438"
       sodipodi:rx="20.853657"
       sodipodi:cy="211.41611"
       sodipodi:cx="55.370052"
       id="path4642-2-8-8"
       style="opacity:0.1971326;fill:#e6e6e6;fill-opacity:1;fill-rule:evenodd;stroke:#0a190d;stroke-width:5.79517746;stroke-miterlimit:4;stroke-opacity:1;stroke-dasharray:none"
       sodipodi:type="arc" />
    <path
       transform="matrix(0.02694078,-0.07343725,-0.11277764,-0.03757461,208.12515,43.269483)"
       sodipodi:open="true"
       sodipodi:end="6.2714539"
       sodipodi:start="0"
       d="m 76.223709,211.41611 c 0,15.98502 -9.3365,28.94343 -20.853657,28.94343 -11.517156,0 -20.853656,-12.95841 -20.853656,-28.94343 0,-15.98502 9.3365,-28.94344 20.853656,-28.94344 11.421734,0 20.718232,12.75241 20.852222,28.6039"
       sodipodi:ry="28.943438"
       sodipodi:rx="20.853657"
       sodipodi:cy="211.41611"
       sodipodi:cx="55.370052"
       id="path4642-9-63"
       style="opacity:0.1971326;fill:#e6e6e6;fill-opacity:1;fill-rule:evenodd;stroke:#0a190d;stroke-width:5.79517746;stroke-miterlimit:4;stroke-opacity:1;stroke-dasharray:none"
       sodipodi:type="arc" />
    <path
       transform="matrix(0.02694078,0.07343725,-0.11277764,0.03757461,162.69941,1.9123473)"
       sodipodi:open="true"
       sodipodi:end="6.2714539"
       sodipodi:start="0"
       d="m 76.223709,211.41611 c 0,15.98502 -9.3365,28.94343 -20.853657,28.94343 -11.517156,0 -20.853656,-12.95841 -20.853656,-28.94343 0,-15.98502 9.3365,-28.94344 20.853656,-28.94344 11.421734,0 20.718232,12.75241 20.852222,28.6039"
       sodipodi:ry="28.943438"
       sodipodi:rx="20.853657"
       sodipodi:cy="211.41611"
       sodipodi:cx="55.370052"
       id="path4642-2-8-2"
       style="opacity:0.1971326;fill:#e6e6e6;fill-opacity:1;fill-rule:evenodd;stroke:#0a190d;stroke-width:5.79517746;stroke-miterlimit:4;stroke-opacity:1;stroke-dasharray:none"
       sodipodi:type="arc" />
    <path
       transform="matrix(-0.07239434,-0.02732889,-0.037041,0.1144023,216.93543,74.608424)"
       sodipodi:open="true"
       sodipodi:end="6.2714539"
       sodipodi:start="0"
       d="m 76.223709,211.41611 c 0,15.98502 -9.3365,28.94343 -20.853657,28.94343 -11.517156,0 -20.853656,-12.95841 -20.853656,-28.94343 0,-15.98502 9.3365,-28.94344 20.853656,-28.94344 11.421734,0 20.718232,12.75241 20.852222,28.6039"
       sodipodi:ry="28.943438"
       sodipodi:rx="20.853657"
       sodipodi:cy="211.41611"
       sodipodi:cx="55.370052"
       id="path4642-9-6-6"
       style="opacity:0.1971326;fill:#e6e6e6;fill-opacity:1;fill-rule:evenodd;stroke:#0a190d;stroke-width:5.79517746;stroke-miterlimit:4;stroke-opacity:1;stroke-dasharray:none"
       sodipodi:type="arc" />
    <path
       transform="matrix(0.07239434,-0.02732889,0.037041,0.1144023,147.8306,57.2715)"
       sodipodi:open="true"
       sodipodi:end="6.2714539"
       sodipodi:start="0"
       d="m 76.223709,211.41611 c 0,15.98502 -9.3365,28.94343 -20.853657,28.94343 -11.517156,0 -20.853656,-12.95841 -20.853656,-28.94343 0,-15.98502 9.3365,-28.94344 20.853656,-28.94344 11.421734,0 20.718232,12.75241 20.852222,28.6039"
       sodipodi:ry="28.943438"
       sodipodi:rx="20.853657"
       sodipodi:cy="211.41611"
       sodipodi:cx="55.370052"
       id="path4642-2-8-8-3"
       style="opacity:0.1971326;fill:#e6e6e6;fill-opacity:1;fill-rule:evenodd;stroke:#0a190d;stroke-width:5.79517746;stroke-miterlimit:4;stroke-opacity:1;stroke-dasharray:none"
       sodipodi:type="arc" />
    <path
       transform="matrix(0.02694078,-0.07343725,-0.11277764,-0.03757461,93.2099,72.154264)"
       sodipodi:open="true"
       sodipodi:end="6.2714539"
       sodipodi:start="0"
       d="m 76.223709,211.41611 c 0,15.98502 -9.3365,28.94343 -20.853657,28.94343 -11.517156,0 -20.853656,-12.95841 -20.853656,-28.94343 0,-15.98502 9.3365,-28.94344 20.853656,-28.94344 11.421734,0 20.718232,12.75241 20.852222,28.6039"
       sodipodi:ry="28.943438"
       sodipodi:rx="20.853657"
       sodipodi:cy="211.41611"
       sodipodi:cx="55.370052"
       id="path4642-9-63-6"
       style="opacity:0.1971326;fill:#e6e6e6;fill-opacity:1;fill-rule:evenodd;stroke:#0a190d;stroke-width:5.79517746;stroke-miterlimit:4;stroke-opacity:1;stroke-dasharray:none"
       sodipodi:type="arc" />
    <path
       transform="matrix(0.02694078,0.07343725,-0.11277764,0.03757461,47.78416,30.797124)"
       sodipodi:open="true"
       sodipodi:end="6.2714539"
       sodipodi:start="0"
       d="m 76.223709,211.41611 c 0,15.98502 -9.3365,28.94343 -20.853657,28.94343 -11.517156,0 -20.853656,-12.95841 -20.853656,-28.94343 0,-15.98502 9.3365,-28.94344 20.853656,-28.94344 11.421734,0 20.718232,12.75241 20.852222,28.6039"
       sodipodi:ry="28.943438"
       sodipodi:rx="20.853657"
       sodipodi:cy="211.41611"
       sodipodi:cx="55.370052"
       id="path4642-2-8-2-2"
       style="opacity:0.1971326;fill:#e6e6e6;fill-opacity:1;fill-rule:evenodd;stroke:#0a190d;stroke-width:5.79517746;stroke-miterlimit:4;stroke-opacity:1;stroke-dasharray:none"
       sodipodi:type="arc" />
    <path
       transform="matrix(-0.07239434,-0.02732889,-0.037041,0.1144023,102.02018,103.4932)"
       sodipodi:open="true"
       sodipodi:end="6.2714539"
       sodipodi:start="0"
       d="m 76.223709,211.41611 c 0,15.98502 -9.3365,28.94343 -20.853657,28.94343 -11.517156,0 -20.853656,-12.95841 -20.853656,-28.94343 0,-15.98502 9.3365,-28.94344 20.853656,-28.94344 11.421734,0 20.718232,12.75241 20.852222,28.6039"
       sodipodi:ry="28.943438"
       sodipodi:rx="20.853657"
       sodipodi:cy="211.41611"
       sodipodi:cx="55.370052"
       id="path4642-9-6-6-0"
       style="opacity:0.1971326;fill:#e6e6e6;fill-opacity:1;fill-rule:evenodd;stroke:#0a190d;stroke-width:5.79517746;stroke-miterlimit:4;stroke-opacity:1;stroke-dasharray:none"
       sodipodi:type="arc" />
    <path
       transform="matrix(0.07239434,-0.02732889,0.037041,0.1144023,32.91535,86.156274)"
       sodipodi:open="true"
       sodipodi:end="6.2714539"
       sodipodi:start="0"
       d="m 76.223709,211.41611 c 0,15.98502 -9.3365,28.94343 -20.853657,28.94343 -11.517156,0 -20.853656,-12.95841 -20.853656,-28.94343 0,-15.98502 9.3365,-28.94344 20.853656,-28.94344 11.421734,0 20.718232,12.75241 20.852222,28.6039"
       sodipodi:ry="28.943438"
       sodipodi:rx="20.853657"
       sodipodi:cy="211.41611"
       sodipodi:cx="55.370052"
       id="path4642-2-8-8-3-5"
       style="opacity:0.1971326;fill:#e6e6e6;fill-opacity:1;fill-rule:evenodd;stroke:#0a190d;stroke-width:5.79517746;stroke-miterlimit:4;stroke-opacity:1;stroke-dasharray:none"
       sodipodi:type="arc" />
    <path
       transform="matrix(0.02694078,0.07343725,-0.11277764,0.03757461,176.93669,126.73584)"
       sodipodi:open="true"
       sodipodi:end="6.2714539"
       sodipodi:start="0"
       d="m 76.223709,211.41611 c 0,15.98502 -9.3365,28.94343 -20.853657,28.94343 -11.517156,0 -20.853656,-12.95841 -20.853656,-28.94343 0,-15.98502 9.3365,-28.94344 20.853656,-28.94344 11.421734,0 20.718232,12.75241 20.852222,28.6039"
       sodipodi:ry="28.943438"
       sodipodi:rx="20.853657"
       sodipodi:cy="211.41611"
       sodipodi:cx="55.370052"
       id="path4642-2-8-2-2-8"
       style="opacity:0.1971326;fill:#e6e6e6;fill-opacity:1;fill-rule:evenodd;stroke:#0a190d;stroke-width:5.79517746;stroke-miterlimit:4;stroke-opacity:1;stroke-dasharray:none"
       sodipodi:type="arc" />
    <path
       transform="matrix(-0.07239434,-0.02732889,-0.037041,0.1144023,231.17272,199.43192)"
       sodipodi:open="true"
       sodipodi:end="6.2714539"
       sodipodi:start="0"
       d="m 76.223709,211.41611 c 0,15.98502 -9.3365,28.94343 -20.853657,28.94343 -11.517156,0 -20.853656,-12.95841 -20.853656,-28.94343 0,-15.98502 9.3365,-28.94344 20.853656,-28.94344 11.421734,0 20.718232,12.75241 20.852222,28.6039"
       sodipodi:ry="28.943438"
       sodipodi:rx="20.853657"
       sodipodi:cy="211.41611"
       sodipodi:cx="55.370052"
       id="path4642-9-6-6-0-3"
       style="opacity:0.1971326;fill:#e6e6e6;fill-opacity:1;fill-rule:evenodd;stroke:#0a190d;stroke-width:5.79517746;stroke-miterlimit:4;stroke-opacity:1;stroke-dasharray:none"
       sodipodi:type="arc" />
    <path
       transform="matrix(0.07239434,-0.02732889,0.037041,0.1144023,162.06788,182.09499)"
       sodipodi:open="true"
       sodipodi:end="6.2714539"
       sodipodi:start="0"
       d="m 76.223709,211.41611 c 0,15.98502 -9.3365,28.94343 -20.853657,28.94343 -11.517156,0 -20.853656,-12.95841 -20.853656,-28.94343 0,-15.98502 9.3365,-28.94344 20.853656,-28.94344 11.421734,0 20.718232,12.75241 20.852222,28.6039"
       sodipodi:ry="28.943438"
       sodipodi:rx="20.853657"
       sodipodi:cy="211.41611"
       sodipodi:cx="55.370052"
       id="path4642-2-8-8-3-5-5"
       style="opacity:0.1971326;fill:#e6e6e6;fill-opacity:1;fill-rule:evenodd;stroke:#0a190d;stroke-width:5.79517746;stroke-miterlimit:4;stroke-opacity:1;stroke-dasharray:none"
       sodipodi:type="arc" />
    <path
       transform="matrix(0.02694078,0.07343725,-0.11277764,0.03757461,75.24178,124.67265)"
       sodipodi:open="true"
       sodipodi:end="6.2714539"
       sodipodi:start="0"
       d="m 76.223709,211.41611 c 0,15.98502 -9.3365,28.94343 -20.853657,28.94343 -11.517156,0 -20.853656,-12.95841 -20.853656,-28.94343 0,-15.98502 9.3365,-28.94344 20.853656,-28.94344 11.421734,0 20.718232,12.75241 20.852222,28.6039"
       sodipodi:ry="28.943438"
       sodipodi:rx="20.853657"
       sodipodi:cy="211.41611"
       sodipodi:cx="55.370052"
       id="path4642-2-8-2-2-8-0"
       style="opacity:0.1971326;fill:#e6e6e6;fill-opacity:1;fill-rule:evenodd;stroke:#0a190d;stroke-width:5.79517746;stroke-miterlimit:4;stroke-opacity:1;stroke-dasharray:none"
       sodipodi:type="arc" />
    <path
       transform="matrix(-0.07239434,-0.02732889,-0.037041,0.1144023,129.47781,197.36873)"
       sodipodi:open="true"
       sodipodi:end="6.2714539"
       sodipodi:start="0"
       d="m 76.223709,211.41611 c 0,15.98502 -9.3365,28.94343 -20.853657,28.94343 -11.517156,0 -20.853656,-12.95841 -20.853656,-28.94343 0,-15.98502 9.3365,-28.94344 20.853656,-28.94344 11.421734,0 20.718232,12.75241 20.852222,28.6039"
       sodipodi:ry="28.943438"
       sodipodi:rx="20.853657"
       sodipodi:cy="211.41611"
       sodipodi:cx="55.370052"
       id="path4642-9-6-6-0-3-2"
       style="opacity:0.1971326;fill:#e6e6e6;fill-opacity:1;fill-rule:evenodd;stroke:#0a190d;stroke-width:5.79517746;stroke-miterlimit:4;stroke-opacity:1;stroke-dasharray:none"
       sodipodi:type="arc" />
    <path
       transform="matrix(0.07239434,-0.02732889,0.037041,0.1144023,60.37297,180.0318)"
       sodipodi:open="true"
       sodipodi:end="6.2714539"
       sodipodi:start="0"
       d="m 76.223709,211.41611 c 0,15.98502 -9.3365,28.94343 -20.853657,28.94343 -11.517156,0 -20.853656,-12.95841 -20.853656,-28.94343 0,-15.98502 9.3365,-28.94344 20.853656,-28.94344 11.421734,0 20.718232,12.75241 20.852222,28.6039"
       sodipodi:ry="28.943438"
       sodipodi:rx="20.853657"
       sodipodi:cy="211.41611"
       sodipodi:cx="55.370052"
       id="path4642-2-8-8-3-5-5-4"
       style="opacity:0.1971326;fill:#e6e6e6;fill-opacity:1;fill-rule:evenodd;stroke:#0a190d;stroke-width:5.79517746;stroke-miterlimit:4;stroke-opacity:1;stroke-dasharray:none"
       sodipodi:type="arc" />
    <path
       transform="matrix(-0.02694078,0.07343725,0.11277764,0.03757461,70.77317,51.879468)"
       sodipodi:open="true"
       sodipodi:end="6.2714539"
       sodipodi:start="0"
       d="m 76.223709,211.41611 c 0,15.98502 -9.3365,28.94343 -20.853657,28.94343 -11.517156,0 -20.853656,-12.95841 -20.853656,-28.94343 0,-15.98502 9.3365,-28.94344 20.853656,-28.94344 11.421734,0 20.718232,12.75241 20.852222,28.6039"
       sodipodi:ry="28.943438"
       sodipodi:rx="20.853657"
       sodipodi:cy="211.41611"
       sodipodi:cx="55.370052"
       id="path4642-9-63-6-5-1-7"
       style="opacity:0.1971326;fill:#e6e6e6;fill-opacity:1;fill-rule:evenodd;stroke:#0a190d;stroke-width:5.79517746;stroke-miterlimit:4;stroke-opacity:1;stroke-dasharray:none"
       sodipodi:type="arc" />
    <path
       transform="matrix(-0.02694078,-0.07343725,0.11277764,-0.03757461,116.19893,93.236604)"
       sodipodi:open="true"
       sodipodi:end="6.2714539"
       sodipodi:start="0"
       d="m 76.223709,211.41611 c 0,15.98502 -9.3365,28.94343 -20.853657,28.94343 -11.517156,0 -20.853656,-12.95841 -20.853656,-28.94343 0,-15.98502 9.3365,-28.94344 20.853656,-28.94344 11.421734,0 20.718232,12.75241 20.852222,28.6039"
       sodipodi:ry="28.943438"
       sodipodi:rx="20.853657"
       sodipodi:cy="211.41611"
       sodipodi:cx="55.370052"
       id="path4642-2-8-2-2-8-0-9"
       style="opacity:0.1971326;fill:#e6e6e6;fill-opacity:1;fill-rule:evenodd;stroke:#0a190d;stroke-width:5.79517746;stroke-miterlimit:4;stroke-opacity:1;stroke-dasharray:none"
       sodipodi:type="arc" />
    <path
       transform="matrix(0.07239434,0.02732889,0.037041,-0.1144023,61.96289,20.540524)"
       sodipodi:open="true"
       sodipodi:end="6.2714539"
       sodipodi:start="0"
       d="m 76.223709,211.41611 c 0,15.98502 -9.3365,28.94343 -20.853657,28.94343 -11.517156,0 -20.853656,-12.95841 -20.853656,-28.94343 0,-15.98502 9.3365,-28.94344 20.853656,-28.94344 11.421734,0 20.718232,12.75241 20.852222,28.6039"
       sodipodi:ry="28.943438"
       sodipodi:rx="20.853657"
       sodipodi:cy="211.41611"
       sodipodi:cx="55.370052"
       id="path4642-9-6-6-0-3-2-2"
       style="opacity:0.1971326;fill:#e6e6e6;fill-opacity:1;fill-rule:evenodd;stroke:#0a190d;stroke-width:5.79517746;stroke-miterlimit:4;stroke-opacity:1;stroke-dasharray:none"
       sodipodi:type="arc" />
    <path
       transform="matrix(-0.07239434,0.02732889,-0.037041,-0.1144023,131.06773,37.877451)"
       sodipodi:open="true"
       sodipodi:end="6.2714539"
       sodipodi:start="0"
       d="m 76.223709,211.41611 c 0,15.98502 -9.3365,28.94343 -20.853657,28.94343 -11.517156,0 -20.853656,-12.95841 -20.853656,-28.94343 0,-15.98502 9.3365,-28.94344 20.853656,-28.94344 11.421734,0 20.718232,12.75241 20.852222,28.6039"
       sodipodi:ry="28.943438"
       sodipodi:rx="20.853657"
       sodipodi:cy="211.41611"
       sodipodi:cx="55.370052"
       id="path4642-2-8-8-3-5-5-4-7"
       style="opacity:0.1971326;fill:#e6e6e6;fill-opacity:1;fill-rule:evenodd;stroke:#0a190d;stroke-width:5.79517746;stroke-miterlimit:4;stroke-opacity:1;stroke-dasharray:none"
       sodipodi:type="arc" />
  </g>
  <path
     style="fill:#6eab00;fill-opacity:1;stroke:#354b00;stroke-width:1.48919702;stroke-miterlimit:4;stroke-opacity:1;stroke-dasharray:none;stroke-dashoffset:0"
     d="m 26.991263,122.01389 c 0,-11.35826 -7.842673,-23.905005 -9.284214,-35.727881 C 16.040721,72.61953 25.491641,57.149018 25.491641,44.019605 26.393947,30.350894 20.742837,17.139212 20.742837,3.6249996 l 0,-5.3803995 3.225252,0 3.22525,0 0,5.3803995 c -1.837153,13.8043924 5.328349,27.8250894 5.019737,40.1029874 -0.436437,9.065082 -9.8388,32.242107 -8.563751,43.10109 1.616625,11.643683 9.792441,24.062173 9.792441,35.184813 0,26.02756 -13.246664,43.99954 -13.246664,70.0271 -0.519947,14.80744 6.998237,28.71299 6.998237,43.33401 l 0,6.3804 -3.22525,0 -3.225252,0 0,-4.1304 0,-2.625 c 0.220685,-12.40328 -6.665416,-23.80402 -6.998238,-35.91037 0,-28.37711 13.246664,-48.69863 13.246664,-77.07574 z"
     id="path3966"
     inkscape:connector-curvature="0"
     sodipodi:nodetypes="ssccccccccsccccccccs" />
  <path
     style="fill:#6eab00;fill-opacity:1;stroke:#354b00;stroke-width:1.48919702;stroke-miterlimit:4;stroke-opacity:1;stroke-dasharray:none;stroke-dashoffset:0"
     d="m 108.60168,98.486116 c 0,11.358274 -15.657325,38.904994 -14.215795,50.727874 1.666335,13.66648 18.715415,34.63699 18.715415,47.76641 1.77557,13.53693 -9.7512,26.69557 -9.7512,39.26961 l 0,5.50539 -3.22524,0 -3.225261,0 0,-5.50539 c 0.235201,-13.52038 8.820341,-28.06255 9.480261,-38.978 0.43644,-9.06508 -16.661195,-37.7421 -17.936245,-48.60109 -1.61662,-11.64368 13.707555,-39.06216 13.707555,-50.184804 0,-26.02756 -12.253335,-28.99954 -12.253335,-55.0271 -0.40636,-13.6612 7.001764,-26.12426 7.001764,-39.5840099 l 0,-5.6304 3.225261,0 3.22524,0 0,5.5054 c 0.8124,11.7559299 -6.681704,21.2300199 -7.001758,32.6603799 0,28.37711 12.253338,33.69862 12.253338,62.07573 z"
     id="path3966-1"
     inkscape:connector-curvature="0"
     sodipodi:nodetypes="ssccccccccscccccccs" />
  <path
     style="fill:#6eab00;fill-opacity:1;stroke:#354b00;stroke-width:1.48919702;stroke-miterlimit:4;stroke-opacity:1;stroke-dasharray:none;stroke-dashoffset:0"
     d="m 68.97362,127.76389 c 0,-11.35826 -15.592677,-39.655008 -17.034218,-51.477878 -1.666328,-13.66648 10.534588,-33.63699 10.534588,-46.76641 0.90231,-13.66871 -6.4988,-12.38039 -6.4988,-25.8945997 l 0,-5.3804 3.22525,0 3.22525,0 0,5.3804 c -1.83715,13.8043897 7.07835,13.3250897 6.76974,25.6029897 -0.43644,9.06508 -12.588801,36.7421 -11.31375,47.60109 1.61662,11.64368 17.54244,39.812168 17.54244,50.934808 0,15.26111 -14.52986,22.94031 -13.10676,36.47903 1.00397,9.55134 11.3601,19.03162 11.3601,29.79807 -0.51995,14.80744 -11.25177,26.71299 -11.25177,41.33401 l 0,6.3804 -3.22525,0 -3.22525,0 0,-4.1304 0,-2.625 c 0.220685,-12.40328 11.58458,-21.80402 11.25176,-33.91037 0,-13.15442 -10.575141,-24.75757 -11.728646,-36.51589 -1.334871,-13.60708 13.475316,-21.58716 13.475316,-36.80985 z"
     id="path3966-8"
     inkscape:connector-curvature="0"
     sodipodi:nodetypes="ssccccccccssccccccccss" />
  <path
     style="fill:#6eab00;fill-opacity:1;stroke:#354b00;stroke-width:1.48919702;stroke-miterlimit:4;stroke-opacity:1;stroke-dasharray:none;stroke-dashoffset:0"
     d="m 222.92548,122.01389 c 0,-11.35826 -7.84268,-23.905006 -9.28422,-35.727876 -1.66633,-13.66648 7.78459,-29.13699 7.78459,-42.26641 0.90231,-13.66871 -4.7488,-26.88039 -4.7488,-40.3946004 l 0,-5.3804 3.22525,0 3.22525,0 0,5.3804 c -1.83715,13.8043904 5.32835,27.8250904 5.01974,40.1029904 -0.43644,9.06508 -9.8388,32.2421 -8.56375,43.10109 1.61662,11.64368 9.79244,24.062166 9.79244,35.184806 0,26.02756 -13.24667,43.99954 -13.24667,70.0271 -0.51994,14.80744 6.99824,28.71299 6.99824,43.33401 l 0,6.3804 -3.22525,0 -3.22525,0 0,-4.1304 0,-2.625 c 0.22068,-12.40328 -6.66542,-23.80402 -6.99824,-35.91037 0,-28.37711 13.24667,-48.69863 13.24667,-77.07574 z"
     id="path3966-2"
     inkscape:connector-curvature="0"
     sodipodi:nodetypes="ssccccccccsccccccccs" />
  <path
     style="fill:#6eab00;fill-opacity:1;stroke:#354b00;stroke-width:1.48919702;stroke-miterlimit:4;stroke-opacity:1;stroke-dasharray:none;stroke-dashoffset:0"
     d="m 188.11089,98.486114 c 0,11.358266 -15.65733,38.904986 -14.21579,50.727876 1.66633,13.66648 18.71541,34.63699 18.71541,47.76641 1.77557,13.53693 -9.75119,26.69557 -9.75119,39.2696 l 0,5.50539 -3.22525,0 -3.22526,0 0,-5.50539 c 0.2352,-13.52037 8.82034,-28.06254 9.48027,-38.97799 0.43644,-9.06508 -16.66121,-37.7421 -17.93626,-48.60109 -1.61662,-11.64369 13.70757,-39.06217 13.70757,-50.184806 0,-26.02756 -12.25335,-28.99954 -12.25335,-55.027101 -0.40636,-13.6612 7.00177,-26.12426 7.00177,-39.5840094 l 0,-5.6304 3.22526,0 3.22525,0 0,5.5054 c 0.81239,11.7559294 -6.68171,21.2300194 -7.00176,32.6603794 0,28.377111 12.25333,33.698621 12.25333,62.075731 z"
     id="path3966-1-6"
     inkscape:connector-curvature="0"
     sodipodi:nodetypes="ssccccccccscccccccs" />
  <path
     style="fill:#6eab00;fill-opacity:1;stroke:#354b00;stroke-width:1.48919702;stroke-miterlimit:4;stroke-opacity:1;stroke-dasharray:none;stroke-dashoffset:0"
     d="m 134.14695,127.76389 c 0,-11.35826 15.59268,-39.655006 17.03422,-51.477876 1.66633,-13.66648 -10.53459,-33.636991 -10.53459,-46.766411 -0.90231,-13.66871 6.4988,-12.38039 6.4988,-25.8945994 l 0,-5.3804 -3.22525,0 -3.22525,0 0,5.3804 c 1.83715,13.8043894 -7.07835,13.3250894 -6.76974,25.6029894 0.43644,9.06508 12.5888,36.742101 11.31375,47.601091 -1.61662,11.64368 -17.54244,39.812166 -17.54244,50.934806 0,15.26111 14.52986,22.94031 13.10676,36.47903 -1.00397,9.55134 -11.3601,19.03162 -11.3601,29.79807 0.51995,14.80744 11.25177,26.71299 11.25177,41.33401 l 0,6.3804 3.22525,0 3.22525,0 0,-4.1304 0,-2.625 c -0.22068,-12.40328 -11.58458,-21.80402 -11.25176,-33.91037 0,-13.15442 10.57514,-24.75757 11.72865,-36.51589 1.33487,-13.60708 -13.47532,-21.58716 -13.47532,-36.80985 z"
     id="path3966-8-7"
     inkscape:connector-curvature="0"
     sodipodi:nodetypes="ssccccccccssccccccccss" />
  <path
     style="opacity:0.42000002;fill:#000000;fill-opacity:1;stroke:#354b00;stroke-width:1.46265709;stroke-miterlimit:4;stroke-opacity:1;stroke-dasharray:none;stroke-dashoffset:0"
     d="m 30.52332,122.01389 c 0,-11.35826 -7.56563,-23.905009 -8.956247,-35.727883 C 19.959609,72.619528 29.076665,57.149016 29.076665,44.019603 29.947101,30.350892 24.49562,17.13921 24.49562,3.6249985 l 0,-5.380399 3.111316,0 3.111316,0 0,5.380399 C 28.946,17.42939 35.858374,31.450087 35.560666,43.727985 c -0.421022,9.065082 -9.491239,32.242107 -8.26123,43.10109 1.559512,11.643686 9.446516,24.062175 9.446516,35.184815 0,26.02756 -12.778718,43.99954 -12.778718,70.0271 -0.50158,14.80744 6.751018,28.71299 6.751018,43.33401 l 0,6.3804 -3.111316,0 -3.111316,0 0,-4.1304 0,-2.625 c 0.212889,-12.40328 -6.429956,-23.80402 -6.751021,-35.91037 0,-28.37711 12.778721,-48.69863 12.778721,-77.07574 z"
     id="path3966-6"
     inkscape:connector-curvature="0"
     sodipodi:nodetypes="ssccccccccsccccccccs" />
  <path
     style="opacity:0.42000002;fill:#000000;fill-opacity:1;stroke:#354b00;stroke-width:1.44404352;stroke-miterlimit:4;stroke-opacity:1;stroke-dasharray:none;stroke-dashoffset:0"
     d="m 71.178261,127.76389 c 0,-11.35826 -14.661451,-39.655009 -16.0169,-51.477882 -1.566811,-13.66648 9.90544,-33.63699 9.90544,-46.76641 0.848423,-13.66871 -6.110678,-12.38039 -6.110678,-25.8945985 l 0,-5.3804 3.032632,0 3.032631,0 0,5.3804 c -1.727432,13.8043885 6.655617,13.3250885 6.365438,25.6029885 -0.410375,9.06508 -11.836973,36.7421 -10.63807,47.60109 1.520072,11.643683 16.494769,39.812172 16.494769,50.934812 0,15.26111 -13.662107,22.94031 -12.323998,36.47903 0.944012,9.55134 10.681652,19.03162 10.681652,29.79807 -0.488897,14.80744 -10.579791,26.71299 -10.579791,41.33401 l 0,6.3804 -3.032631,0 -3.032632,0 0,-4.1304 0,-2.625 c 0.207505,-12.40328 10.892726,-21.80402 10.579782,-33.91037 0,-13.15442 -9.943572,-24.75757 -11.028187,-36.51589 -1.25515,-13.60708 12.670543,-21.58716 12.670543,-36.80985 z"
     id="path3966-8-4"
     inkscape:connector-curvature="0"
     sodipodi:nodetypes="ssccccccccssccccccccss" />
  <path
     style="opacity:0.42000002;fill:#000000;fill-opacity:1;stroke:#354b00;stroke-width:1.48919702;stroke-miterlimit:4;stroke-opacity:1;stroke-dasharray:none;stroke-dashoffset:0"
     d="m 112.62153,98.486122 c 0,11.358268 -15.657321,38.904988 -14.215791,50.727868 1.666331,13.66648 18.715411,34.63699 18.715411,47.76641 1.77557,13.53693 -9.7512,26.69557 -9.7512,39.26961 l 0,5.50539 -3.22524,0 -3.22526,0 0,-5.50539 c 0.2352,-13.52038 8.82034,-28.06255 9.48026,-38.978 0.43644,-9.06508 -16.661191,-37.7421 -17.936241,-48.60109 -1.61662,-11.64368 13.707551,-39.06216 13.707551,-50.184798 0,-26.027562 -12.253331,-28.999542 -12.253331,-55.027102 -0.40636,-13.6612 7.001761,-26.12426 7.001761,-39.584008 l 0,-5.6304 3.22526,0 3.22524,0 0,5.5054 c 0.8124,11.755928 -6.6817,21.230018 -7.00175,32.660378 0,28.37711 12.25333,33.69862 12.25333,62.075732 z"
     id="path3966-1-2"
     inkscape:connector-curvature="0"
     sodipodi:nodetypes="ssccccccccscccccccs" />
  <path
     style="opacity:0.42000002;fill:#000000;fill-opacity:1;stroke:#354b00;stroke-width:1.44518554;stroke-miterlimit:4;stroke-opacity:1;stroke-dasharray:none;stroke-dashoffset:0"
     d="m 137.4293,127.76389 c 0,-11.35826 14.68465,-39.655003 16.04224,-51.477873 1.5693,-13.66648 -9.92111,-33.636991 -9.92111,-46.76641 -0.84977,-13.668711 6.12035,-12.380391 6.12035,-25.8945995 l 0,-5.3804 -3.03743,0 -3.03743,0 0,5.3804 c 1.73016,13.8043885 -6.66615,13.3250885 -6.37551,25.6029895 0.41102,9.06508 11.8557,36.7421 10.6549,47.60109 -1.52248,11.64368 -16.52087,39.812163 -16.52087,50.934803 0,15.26111 13.68372,22.94031 12.3435,36.47903 -0.94551,9.55134 -10.69856,19.03162 -10.69856,29.79807 0.48968,14.80744 10.59654,26.71299 10.59654,41.33401 l 0,6.3804 3.03743,0 3.03743,0 0,-4.1304 0,-2.625 c -0.20783,-12.40328 -10.90996,-21.80402 -10.59653,-33.91037 0,-13.15442 9.95931,-24.75757 11.04564,-36.51589 1.25714,-13.60708 -12.69059,-21.58716 -12.69059,-36.80985 z"
     id="path3966-8-7-8"
     inkscape:connector-curvature="0"
     sodipodi:nodetypes="ssccccccccssccccccccss" />
  <path
     style="opacity:0.42000002;fill:#000000;fill-opacity:1;stroke:#354b00;stroke-width:1.46899056;stroke-miterlimit:4;stroke-opacity:1;stroke-dasharray:none;stroke-dashoffset:0"
     d="m 191.13477,98.486135 c 0,11.358255 -15.23532,38.904975 -13.83263,50.727865 1.62141,13.66648 18.21097,34.63699 18.21097,47.76641 1.72771,13.53693 -9.48837,26.69557 -9.48837,39.2696 l 0,5.50539 -3.13832,0 -3.13833,0 0,-5.50539 c 0.22886,-13.52037 8.58261,-28.06254 9.22475,-38.97799 0.42468,-9.06508 -16.21214,-37.7421 -17.45282,-48.60109 -1.57305,-11.64369 13.33811,-39.06217 13.33811,-50.184795 0,-26.027561 -11.92309,-28.999541 -11.92309,-55.027102 -0.3954,-13.6612 6.81305,-26.12426 6.81305,-39.5840095 l 0,-5.6303999 3.13833,0 3.13832,0 0,5.5053999 c 0.7905,11.7559295 -6.50161,21.2300195 -6.81304,32.6603795 0,28.377111 11.92307,33.698621 11.92307,62.075732 z"
     id="path3966-1-6-5"
     inkscape:connector-curvature="0"
     sodipodi:nodetypes="ssccccccccscccccccs" />
  <path
     style="opacity:0.42000002;fill:#000000;fill-opacity:1;stroke:#354b00;stroke-width:1.48919702;stroke-miterlimit:4;stroke-opacity:1;stroke-dasharray:none;stroke-dashoffset:0"
     d="m 226.57307,122.01389 c 0,-11.35826 -7.84268,-23.904999 -9.28422,-35.727866 -1.66633,-13.66648 7.78459,-29.13699 7.78459,-42.26641 0.90231,-13.66871 -4.7488,-26.88039 -4.7488,-40.3945995 l 0,-5.3804 3.22525,0 3.22525,0 0,5.3804 c -1.83715,13.8043895 5.32835,27.8250895 5.01974,40.1029895 -0.43644,9.06508 -9.8388,32.2421 -8.56375,43.10109 1.61662,11.643677 9.79244,24.062156 9.79244,35.184796 0,26.02756 -13.24667,43.99954 -13.24667,70.0271 -0.51994,14.80744 6.99824,28.71299 6.99824,43.33401 l 0,6.3804 -3.22525,0 -3.22525,0 0,-4.1304 0,-2.625 c 0.22068,-12.40328 -6.66542,-23.80402 -6.99824,-35.91037 0,-28.37711 13.24667,-48.69863 13.24667,-77.07574 z"
     id="path3966-2-5"
     inkscape:connector-curvature="0"
     sodipodi:nodetypes="ssccccccccsccccccccs" />
</svg>
