<?xml version="1.0" encoding="UTF-8" standalone="no"?>
<svg
   xmlns:dc="http://purl.org/dc/elements/1.1/"
   xmlns:cc="http://creativecommons.org/ns#"
   xmlns:rdf="http://www.w3.org/1999/02/22-rdf-syntax-ns#"
   xmlns:svg="http://www.w3.org/2000/svg"
   xmlns="http://www.w3.org/2000/svg"
   height="64"
   width="16"
   version="1.1"
   id="svg2">
  <metadata
     id="metadata8">
    <rdf:RDF>
      <cc:Work
         rdf:about="">
        <dc:format>image/svg+xml</dc:format>
        <dc:type
           rdf:resource="http://purl.org/dc/dcmitype/StillImage" />
        <dc:title></dc:title>
        <dc:creator>
          <cc:Agent>
            <dc:title>Carlos Vives B.</dc:title>
          </cc:Agent>
        </dc:creator>
      </cc:Work>
    </rdf:RDF>
  </metadata>
  <defs
     id="defs6" />
  <path
     transform="matrix(0.57718597,0,0,0.57718597,3.5174643,51.136881)"
     d="m 12.272497,8.4255676 a 4.5063076,4.5063076 0 1 1 -9.012615,0 4.5063076,4.5063076 0 1 1 9.012615,0 z"
     id="path2884"
     style="color:#000000;fill:#436277;fill-opacity:1;fill-rule:nonzero;stroke:#9ea2ba;stroke-width:1.73254383;stroke-miterlimit:4;stroke-opacity:1;stroke-dasharray:none;marker:none;visibility:visible;display:inline;overflow:visible;enable-background:accumulate" />
  <path
     style="color:#000000;fill:#4e6879;fill-opacity:1;fill-rule:nonzero;stroke:#c7b5c5;stroke-width:2.05238217;stroke-miterlimit:4;stroke-opacity:1;stroke-dasharray:none;marker:none;visibility:visible;display:inline;overflow:visible;enable-background:accumulate"
     id="path3630"
     d="m 12.272497,8.4255676 a 4.5063076,4.5063076 0 1 1 -9.012615,0 4.5063076,4.5063076 0 1 1 9.012615,0 z"
     transform="matrix(0.48723869,0,0,0.48723869,4.2160119,35.894737)" />
  <path
     transform="matrix(0.75708055,0,0,0.75708055,2.1203692,17.621166)"
     d="m 12.272497,8.4255676 a 4.5063076,4.5063076 0 1 1 -9.012615,0 4.5063076,4.5063076 0 1 1 9.012615,0 z"
     id="path3632"
     style="color:#000000;fill:#3b6c8c;fill-opacity:0.9461078;fill-rule:nonzero;stroke:#9ea2ba;stroke-width:1.32086337;stroke-miterlimit:4;stroke-opacity:0.90119761;stroke-dasharray:none;marker:none;visibility:visible;display:inline;overflow:visible;enable-background:accumulate" />
  <path
     style="color:#000000;fill:#3e536e;fill-opacity:1;fill-rule:nonzero;stroke:#c7b5c5;stroke-width:2.28355292;stroke-miterlimit:4;stroke-opacity:0.89221555;stroke-dasharray:none;marker:none;visibility:visible;display:inline;overflow:visible;enable-background:accumulate"
     id="path3634"
     d="m 12.272497,8.4255676 a 4.5063076,4.5063076 0 1 1 -9.012615,0 4.5063076,4.5063076 0 1 1 9.012615,0 z"
     transform="matrix(0.43791409,0,0,0.43791409,4.5990761,4.3103248)" />
</svg>
