<?xml version="1.0" encoding="UTF-8" standalone="no"?>
<svg
   xmlns:dc="http://purl.org/dc/elements/1.1/"
   xmlns:cc="http://creativecommons.org/ns#"
   xmlns:rdf="http://www.w3.org/1999/02/22-rdf-syntax-ns#"
   xmlns:svg="http://www.w3.org/2000/svg"
   xmlns="http://www.w3.org/2000/svg"
   height="64"
   width="16"
   version="1.1"
   id="svg2">
  <metadata
     id="metadata8">
    <rdf:RDF>
      <cc:Work
         rdf:about="">
        <dc:format>image/svg+xml</dc:format>
        <dc:type
           rdf:resource="http://purl.org/dc/dcmitype/StillImage" />
        <dc:title></dc:title>
        <dc:creator>
          <cc:Agent>
            <dc:title>Carlos Vives B.</dc:title>
          </cc:Agent>
        </dc:creator>
      </cc:Work>
    </rdf:RDF>
  </metadata>
  <defs
     id="defs6" />
  <path
     transform="matrix(0.79909714,0,0,0.79909714,1.7940601,49.267153)"
     d="m 12.272497,8.4255676 a 4.5063076,4.5063076 0 1 1 -9.012615,0 4.5063076,4.5063076 0 1 1 9.012615,0 z"
     id="path2884"
     style="color:#000000;fill:#522799;fill-opacity:1;fill-rule:nonzero;stroke:#c3aaa9;stroke-width:1.25141227;stroke-miterlimit:4;stroke-opacity:1;stroke-dasharray:none;marker:none;visibility:visible;display:inline;overflow:visible;enable-background:accumulate" />
  <path
     style="color:#000000;fill:#522799;fill-opacity:1;fill-rule:nonzero;stroke:#c3aaa9;stroke-width:1.46754324;stroke-miterlimit:4;stroke-opacity:1;stroke-dasharray:none;marker:none;visibility:visible;display:inline;overflow:visible;enable-background:accumulate"
     id="path3630"
     d="m 12.272497,8.4255676 a 4.5063076,4.5063076 0 1 1 -9.012615,0 4.5063076,4.5063076 0 1 1 9.012615,0 z"
     transform="matrix(0.68141097,0,0,0.68141097,2.7080332,34.258725)" />
  <path
     transform="matrix(0.92351393,0,0,0.92351393,0.82781602,16.21887)"
     d="m 12.272497,8.4255676 a 4.5063076,4.5063076 0 1 1 -9.012615,0 4.5063076,4.5063076 0 1 1 9.012615,0 z"
     id="path3632"
     style="color:#000000;fill:#522799;fill-opacity:1;fill-rule:nonzero;stroke:#c3aaa9;stroke-width:1.08282065;stroke-miterlimit:4;stroke-opacity:1;stroke-dasharray:none;marker:none;visibility:visible;display:inline;overflow:visible;enable-background:accumulate" />
  <path
     style="color:#000000;fill:#522799;fill-opacity:1;fill-rule:nonzero;stroke:#c3aaa9;stroke-width:1.821926;stroke-miterlimit:4;stroke-opacity:1;stroke-dasharray:none;marker:none;visibility:visible;display:inline;overflow:visible;enable-background:accumulate"
     id="path3634"
     d="m 12.272497,8.4255676 a 4.5063076,4.5063076 0 1 1 -9.012615,0 4.5063076,4.5063076 0 1 1 9.012615,0 z"
     transform="matrix(0.54886968,0,0,0.54886968,3.737374,3.375461)" />
</svg>
