<?xml version="1.0" encoding="UTF-8" standalone="no"?>
<svg
   xmlns:dc="http://purl.org/dc/elements/1.1/"
   xmlns:cc="http://creativecommons.org/ns#"
   xmlns:rdf="http://www.w3.org/1999/02/22-rdf-syntax-ns#"
   xmlns:svg="http://www.w3.org/2000/svg"
   xmlns="http://www.w3.org/2000/svg"
   id="svg2"
   version="1.1"
   width="16"
   height="64">
  <metadata
     id="metadata8">
    <rdf:RDF>
      <cc:Work
         rdf:about="">
        <dc:format>image/svg+xml</dc:format>
        <dc:type
           rdf:resource="http://purl.org/dc/dcmitype/StillImage" />
        <dc:title></dc:title>
        <dc:creator>
          <cc:Agent>
            <dc:title>Carlos Vives B.</dc:title>
          </cc:Agent>
        </dc:creator>
      </cc:Work>
    </rdf:RDF>
  </metadata>
  <defs
     id="defs6" />
  <path
     style="color:#000000;fill:#e84700;fill-opacity:1;fill-rule:nonzero;stroke:#ffb506;stroke-width:1.17017233;stroke-miterlimit:4;stroke-opacity:1;stroke-dasharray:none;marker:none;visibility:visible;display:inline;overflow:visible;enable-background:accumulate"
     id="path2884"
     d="m 12.272497,8.4255676 a 4.5063076,4.5063076 0 1 1 -9.012615,0 4.5063076,4.5063076 0 1 1 9.012615,0 z"
     transform="matrix(0.85457494,0,0,0.85457494,1.363209,48.799721)" />
  <path
     transform="matrix(0.73688876,0,0,0.73688876,2.2771821,33.791293)"
     d="m 12.272497,8.4255676 a 4.5063076,4.5063076 0 1 1 -9.012615,0 4.5063076,4.5063076 0 1 1 9.012615,0 z"
     id="path3630"
     style="color:#000000;fill:#e24600;fill-opacity:1;fill-rule:nonzero;stroke:#ffa918;stroke-width:1.35705698;stroke-miterlimit:4;stroke-opacity:1;stroke-dasharray:none;marker:none;visibility:visible;display:inline;overflow:visible;enable-background:accumulate" />
  <path
     style="color:#000000;fill:#d80500;fill-opacity:1;fill-rule:nonzero;stroke:#f25500;stroke-width:0.99331439;stroke-miterlimit:4;stroke-opacity:1;stroke-dasharray:none;marker:none;visibility:visible;display:inline;overflow:visible;enable-background:accumulate"
     id="path3632"
     d="m 12.272497,8.4255676 a 4.5063076,4.5063076 0 1 1 -9.012615,0 4.5063076,4.5063076 0 1 1 9.012615,0 z"
     transform="matrix(1.0067306,0,0,1.0067306,0.18153949,15.517722)" />
  <path
     transform="matrix(0.79851975,0,0,0.79851975,1.7985442,1.2720175)"
     d="m 12.272497,8.4255676 a 4.5063076,4.5063076 0 1 1 -9.012615,0 4.5063076,4.5063076 0 1 1 9.012615,0 z"
     id="path3634"
     style="color:#000000;fill:#dd3000;fill-opacity:1;fill-rule:nonzero;stroke:#f2a400;stroke-width:1.25231719;stroke-miterlimit:4;stroke-opacity:1;stroke-dasharray:none;marker:none;visibility:visible;display:inline;overflow:visible;enable-background:accumulate" />
</svg>
