<?xml version="1.0" encoding="UTF-8"?>
<!DOCTYPE svg PUBLIC "-//W3C//DTD SVG 1.1//EN" "http://www.w3.org/Graphics/SVG/1.1/DTD/svg11.dtd">
<svg xmlns="http://www.w3.org/2000/svg" xml:space="preserve" width="100%" height="100%" version="1.1" shape-rendering="geometricPrecision" text-rendering="geometricPrecision" image-rendering="optimizeQuality" fill-rule="evenodd" clip-rule="evenodd"
viewBox="0 0 8500 11000"
 xmlns:xlink="http://www.w3.org/1999/xlink">
 <g id="Outline">
  <path fill="none" stroke="#87581D" stroke-width="49.9961" stroke-linejoin="round" d="M2483 5649c-5,1 -58,15 -73,55 -16,40 -1,81 22,95 22,14 97,333 110,368 5,17 18,64 32,112 -119,-33 -218,-49 -329,-64 -135,-19 -381,-6 -381,-6 0,0 -149,60 -276,188 -128,128 -222,333 -230,449 -8,116 55,408 219,563 164,155 400,88 353,87 -4,0 -9,-2 -15,-5l1117 -209 36 -5c0,0 22,-27 73,-94 51,-66 106,-214 108,-329 3,-115 -90,-356 -142,-408 -49,-49 -266,-89 -424,-135 -12,-67 -26,-144 -29,-163 -5,-36 -35,-203 -40,-231 -5,-28 -33,-151 -33,-151 0,0 14,-73 -20,-99 -35,-25 -71,-19 -78,-18z"/>
 </g>
 <g id="StarboardPaddle">
  <path fill="#C89C73" d="M2483 5649c-5,1 -58,15 -73,55 -16,40 -1,81 22,95 22,14 97,333 110,368 12,35 54,203 72,228 18,25 88,24 88,24 0,0 -42,-235 -48,-271 -5,-36 -35,-203 -40,-231 -5,-28 -33,-151 -33,-151 0,0 14,-73 -20,-99 -35,-25 -71,-19 -78,-18z"/>
  <path fill="#B1AF76" d="M2471 5905c6,20 11,41 17,62 26,15 60,14 77,9 17,-5 39,-24 53,-38l-4 -21c-2,-9 -5,-22 -10,-46 -12,21 -26,30 -45,40 -19,10 -40,13 -66,8 -8,-2 -15,-7 -22,-14z"/>
  <path fill="#5B5A50" fill-opacity="0.411765" d="M2570 6265c15,50 31,104 41,124 29,12 61,18 89,18 -9,-48 -41,-228 -46,-259 -5,-36 -35,-203 -40,-231 -5,-28 -33,-151 -33,-151 0,0 14,-73 -20,-99 -18,-13 -37,-18 -51,-19 12,7 26,16 35,24 22,18 23,54 3,83 -20,29 -12,31 -35,44 -22,12 -29,7 -29,7 0,0 47,10 69,25 23,14 62,207 67,244 5,38 34,180 29,191 -5,10 -45,9 -79,-1z"/>
  <path fill="#FFF7B2" fill-opacity="0.549020" d="M2466 5654c-19,8 -46,23 -56,50 -15,37 -3,75 17,91 8,-7 15,-12 9,-18 -5,-6 -18,-62 -10,-76 7,-13 14,-33 40,-47z"/>
  <path fill="#FFF7B2" fill-opacity="0.349020" d="M2459 5864c31,99 74,278 83,303 3,11 10,33 17,60 2,-21 -2,-41 -2,-48 0,-11 -52,-215 -70,-259 -9,-21 -19,-41 -28,-56z"/>
 </g>
 <g id="Inside">
  <path fill="#7D7568" stroke="#AF9778" stroke-width="3" d="M1536 6840c0,0 -73,-188 -15,-279 57,-91 367,-307 406,-307 39,0 376,-18 572,52 196,70 399,211 415,247 16,37 -1343,343 -1378,287z"/>
  <path fill="#5B5A50" fill-opacity="0.388235" d="M1536 6840c0,0 -73,-188 -15,-279 57,-91 367,-307 406,-307 39,0 376,-18 572,52 196,70 399,211 415,247 4,10 -99,42 -252,81 -152,-152 -406,-229 -438,-246 -38,-21 -305,-28 -305,-28 0,0 -188,132 -209,209 -21,76 -7,142 -30,221 -3,11 -9,29 -17,49 -74,9 -121,11 -127,1z"/>
 </g>
 <g id="Bench">
  <path fill="#BF996D" d="M1613 6565c-25,23 -49,95 -47,108 3,13 8,60 16,62 8,3 471,-88 513,-102 42,-15 424,-102 437,-115 13,-13 17,-66 11,-85 -7,-18 -163,-73 -163,-73 0,0 -210,69 -241,80 -31,10 -422,107 -526,125z"/>
  <path fill="#5B5A50" fill-opacity="0.411765" d="M1567 6663c-1,5 -1,8 -1,10 3,13 8,60 16,62 8,3 471,-88 513,-102 42,-15 424,-102 437,-115 13,-13 17,-66 11,-85 -1,-1 -2,-2 -3,-4 -100,35 -297,94 -335,101 -47,9 -368,80 -448,101 -56,14 -143,26 -190,32z"/>
  <path fill="#5B5A50" fill-opacity="0.411765" d="M1567 6663l0 1 0 0 0 0 0 0 0 0 0 0 0 0 0 1 0 0 0 0 0 0 0 0 0 1 0 0 -1 0 0 0 0 0 0 0 0 1 0 0 0 0 0 0 0 0 0 0 0 0 0 1 0 0 0 0 0 0 0 0 0 0 0 0 0 1 0 0 0 0 0 0 0 0 0 0 0 1 0 0 0 0 0 0 0 0 0 0 0 0 0 0 0 1 0 0 0 0 0 0 0 0 0 0 0 0 0 0 0 0 0 1 0 0 0 0 0 0 0 0 0 0 0 0 0 1c3,13 8,60 16,62 0,0 0,0 1,0l0 0 0 0c0,0 0,0 1,0l0 0 0 0 2 0 0 0 2 0 0 0 1 0 1 0 1 -1 1 0 0 0 3 0 0 0 1 0 2 -1 1 0 1 0 1 0 1 0 2 -1 0 0 2 0 2 0 2 -1 0 0 1 0 2 0 3 -1 0 0 2 0 2 0 2 -1 0 0 2 0 3 -1 2 0 0 0 2 0 3 -1 2 0 0 0 3 -1 3 0 1 -1 1 0 6 -1 1 0 1 0 3 -1 3 0 1 -1 5 0 3 -1 1 0 2 -1 3 0 3 -1 1 0 3 0 3 -1 3 0 0 -1 3 0 3 -1 4 0 0 0 3 -1 4 -1 6 -1 4 -1 3 0 0 0c143,-28 352,-70 379,-79 42,-15 424,-102 437,-115 13,-13 17,-66 11,-85 -1,-1 -2,-2 -3,-4 -100,35 -297,94 -335,101 -47,9 -397,88 -448,101 -50,13 -35,9 -62,13 -14,-20 -26,-26 -25,-41 2,-15 8,-39 16,-53 -30,7 -56,12 -73,15 -21,20 -42,74 -46,98z"/>
  <path fill="#FFF7B2" fill-opacity="0.200000" d="M2532 6423c-38,-23 -152,-63 -152,-63 0,0 -145,48 -212,70 52,-8 109,-16 138,-20 59,-7 142,14 163,18 10,1 37,1 63,-5z"/>
 </g>
 <g id="StarboardPlanks">
  <path fill="#947354" d="M1864 6209c0,0 246,-13 381,6 136,18 253,39 412,88 159,50 398,91 450,143 52,52 145,293 142,408 -2,115 -57,263 -108,329 -51,67 -73,94 -73,94l-71 11c0,0 171,-218 180,-339 9,-121 -13,-268 -59,-337 -45,-69 -83,-119 -83,-119l-178 33c0,0 -162,-149 -394,-197 -231,-48 -290,-51 -405,-49 -114,1 -179,21 -179,21l-15 -92z"/>
  <path fill="#5B5A50" fill-opacity="0.439216" d="M3088 6432c8,5 14,10 19,14 52,52 145,293 142,408 -2,115 -57,263 -108,329 -51,67 -73,94 -73,94l-71 11c0,0 171,-218 180,-339 9,-121 -13,-268 -59,-337 -45,-69 -83,-119 -83,-119l-30 6c8,-32 50,-50 50,-50l33 -17z"/>
  <path fill="#FFF7B2" fill-opacity="0.650980" d="M1864 6209c0,0 246,-13 381,6 112,15 211,31 330,64 5,6 7,11 4,12 -5,1 -26,-3 -52,-6 -129,-32 -298,-62 -339,-66 -56,-5 -270,-5 -285,-5 -16,-1 -24,0 -38,1l-1 -6zm857 113c118,32 256,61 334,94 -98,9 -138,-4 -166,-9 -24,-4 -112,-36 -202,-71 -1,-6 0,-10 8,-10 5,0 15,-2 26,-4z"/>
 </g>
 <g id="Back">
  <path fill="#875233" d="M1563 6817c0,0 820,-188 882,-214 63,-26 526,-123 568,-128 42,-5 143,161 151,195 8,34 42,243 23,315 -18,73 -155,297 -155,297l-1151 215c0,0 -259,-238 -277,-332 -18,-94 -41,-348 -41,-348z"/>
  <path fill="#C89C73" d="M1563 6817c0,0 820,-188 882,-214 63,-26 526,-123 568,-128 41,-5 139,154 150,193 -66,17 -204,23 -239,34 -40,13 -262,44 -371,59 -108,14 -398,106 -475,123 -63,13 -386,93 -496,120 -11,-94 -19,-187 -19,-187z"/>
  <path fill="#C89C73" d="M3169 6694c10,62 31,206 21,277 -72,9 -147,23 -168,38 -44,31 -283,62 -333,79 -50,17 -554,135 -607,129 -42,-5 -304,49 -404,69 -38,-47 -68,-91 -74,-121 -6,-33 -13,-86 -20,-141 87,-20 223,-50 261,-61 56,-17 429,-104 502,-121 73,-17 285,-65 340,-73 40,-6 336,-52 482,-75z"/>
  <path fill="#C89C73" d="M3181 7006c-33,87 -149,276 -149,276l-1151 215c0,0 -103,-94 -183,-188 87,-24 279,-60 320,-63 52,-4 402,-77 427,-79 25,-2 260,-56 321,-79 60,-23 212,-38 256,-50 21,-6 92,-20 159,-32z"/>
  <path fill="#C7A277" d="M1926 7489l-45 8c0,0 -103,-94 -183,-188 67,-18 199,-44 273,-56 21,11 40,20 47,24 19,11 96,3 123,-6 27,-8 64,6 52,27 -13,21 -50,36 -102,52 -52,17 -109,65 -150,117 -6,8 -11,15 -15,22z"/>
  <path fill="#947354" d="M3181 7006c-14,36 -41,89 -69,139 -30,0 -53,0 -63,3 -33,13 -42,19 -79,17 -38,-2 -4,29 -13,46 -6,12 -47,62 -76,100l-615 114c21,-19 39,-37 46,-48 20,-33 20,-85 20,-85 0,0 128,-104 186,-115 25,-4 66,-24 106,-49 59,-15 116,-30 142,-40 15,-6 36,-11 60,-16 11,10 23,17 36,18 52,4 106,35 133,-8 7,-12 12,-26 17,-42 4,0 7,-1 10,-2 21,-6 92,-20 159,-32z"/>
  <path fill="#947354" d="M3169 6694c10,62 31,206 21,277 -72,9 -147,23 -168,38 -32,22 -166,45 -256,62 -40,-35 -80,-71 -100,-73 -40,-4 -273,54 -334,59 -60,4 19,73 -22,56 -42,-17 -175,-29 -200,-29 -25,0 -80,46 -121,37 -42,-8 -63,-25 -50,-66 12,-42 108,-59 162,-55 54,5 184,-37 279,-95 43,-27 83,-61 122,-98 77,-17 155,-33 185,-38 40,-6 336,-52 482,-75z"/>
  <path fill="#D6AB7C" d="M3169 6694c10,62 31,206 21,277 -72,9 -147,23 -168,38 -9,6 -25,12 -45,18 -63,-41 -153,-37 -174,-56 -29,-27 -75,-8 -121,-39 -45,-32 -14,-73 7,-57 21,17 60,5 73,9 12,4 48,-50 70,-40 23,11 80,6 117,-21 17,-12 40,-58 59,-104l161 -25z"/>
  <path fill="#D2AA84" d="M1563 6817c0,0 344,-79 603,-142 34,15 65,26 81,26 52,2 94,-16 117,4 23,19 -29,34 -44,34 -9,0 75,14 148,39 -132,31 -328,92 -390,106 -63,13 -386,93 -496,120 -11,-94 -19,-187 -19,-187z"/>
  <path fill="#9B745F" d="M1563 6817c0,0 31,-7 81,-19 19,5 46,9 82,10 129,1 215,37 263,18 48,-18 83,7 79,21 -1,4 -10,21 -23,44 -104,25 -366,89 -463,113 -11,-94 -19,-187 -19,-187z"/>
  <path fill="#947354" d="M2522 6581c151,-39 457,-102 491,-106 29,-4 87,76 122,136 -122,-7 -249,5 -271,-1 -36,-11 -67,-11 -115,-11 -48,0 -79,36 -121,23 -15,-5 -59,-22 -106,-41z"/>
  <path fill="#36454D" fill-opacity="0.549020" d="M3079 6529c40,50 80,121 85,141 8,34 42,243 23,315 -18,73 -155,297 -155,297l-1151 215c0,0 -259,-238 -277,-332 -10,-54 -23,-161 -31,-243 27,27 58,59 77,87 41,59 77,179 90,233 12,54 123,147 268,163 145,17 357,-28 430,-73 72,-45 312,-90 368,-80 55,11 158,-29 223,-96 65,-67 117,-268 110,-338 -7,-69 -59,-148 -66,-195 -2,-13 1,-49 6,-94z"/>
  <path fill="#FFF7B2" fill-opacity="0.701961" d="M1600 6808c161,-37 791,-183 845,-205 57,-24 446,-106 547,-124 -28,27 -55,50 -70,64 -42,39 -233,71 -260,80 -27,9 -217,-20 -301,26 -84,47 -332,103 -422,117 -90,14 -219,83 -281,73 -22,-4 -42,-16 -58,-31z"/>
 </g>
 <g id="PortPlanks">
  <path fill="#C89C73" d="M1883 6299c0,0 -161,63 -302,227 -140,164 -34,281 0,286 6,48 -9,214 70,349 80,136 232,334 279,335 47,1 -189,68 -353,-87 -164,-155 -227,-447 -219,-563 8,-116 102,-321 230,-449 127,-128 276,-188 276,-188l19 90z"/>
  <path fill="#C7A277" d="M1883 6299c0,0 -161,63 -302,227 -140,164 -34,281 0,286 3,25 1,80 8,146 -70,-24 -149,-59 -182,-101 -20,-25 -28,-63 -29,-106 34,-114 112,-257 210,-354 127,-128 276,-188 276,-188l19 90z"/>
  <path fill="#D6AB7C" d="M1687 7219c83,128 203,276 243,277 47,1 -189,68 -353,-87 -94,-90 -155,-224 -188,-345 30,36 15,33 85,82 71,48 123,75 213,73z"/>
  <path fill="#405359" fill-opacity="0.219608" d="M1529 6762c16,30 39,48 52,50 6,48 -9,214 70,349 80,136 232,334 279,335 46,1 -175,64 -338,-74 -75,-124 -156,-252 -166,-312 -5,-32 -11,-98 -8,-161 3,-49 15,-94 38,-131 19,-31 47,-47 73,-56z"/>
  <path fill="#947354" d="M1887 6299c0,0 -165,63 -306,227 -140,164 -34,281 0,286 6,48 -9,214 70,349 80,136 232,334 279,335 22,1 -16,15 -79,15 -22,-24 -43,-50 -59,-66 -38,-38 -222,-272 -248,-383 -26,-112 -13,-235 -13,-235 0,0 -13,-3 -60,-64 -47,-61 -5,-172 87,-302 68,-97 229,-201 307,-247l22 85z"/>
  <path fill="#5B5A50" fill-opacity="0.439216" d="M1579 6812c1,0 2,0 2,0 6,48 -9,214 70,349 80,136 232,334 279,335 22,1 -16,15 -79,15 -22,-24 -43,-50 -59,-66 -38,-38 -222,-272 -248,-383 -26,-112 -13,-235 -13,-235 0,0 0,0 -3,-1l51 -14z"/>
  <path fill="#FFF7B2" fill-opacity="0.650980" d="M1359 6837c12,-117 103,-314 229,-440 126,-126 276,-188 276,-188l1 6c-107,50 -250,167 -277,196 -30,32 -128,196 -141,228 -13,31 -13,42 -46,132 -5,14 -34,58 -42,66z"/>
 </g>
</svg>
