<?xml version="1.0" encoding="UTF-8" standalone="no"?>
<!-- Creator: CorelDRAW X7 -->

<svg
   xmlns:dc="http://purl.org/dc/elements/1.1/"
   xmlns:cc="http://creativecommons.org/ns#"
   xmlns:rdf="http://www.w3.org/1999/02/22-rdf-syntax-ns#"
   xmlns:svg="http://www.w3.org/2000/svg"
   xmlns="http://www.w3.org/2000/svg"
   xmlns:sodipodi="http://sodipodi.sourceforge.net/DTD/sodipodi-0.dtd"
   xmlns:inkscape="http://www.inkscape.org/namespaces/inkscape"
   xml:space="preserve"
   width="2550px"
   height="3300px"
   version="1.1"
   style="shape-rendering:geometricPrecision; text-rendering:geometricPrecision; image-rendering:optimizeQuality; fill-rule:evenodd; clip-rule:evenodd"
   viewBox="0 0 2550 3300"
   id="svg2"
   inkscape:version="0.91 r13725"
   sodipodi:docname="Hedgecastle.svg"
   inkscape:export-filename="E:\New folder (5)\Hedgewars\Data\Themes\Beach\LandObject3.png"
   inkscape:export-xdpi="8.2625294"
   inkscape:export-ydpi="8.2625294"><metadata
     id="metadata50"><rdf:RDF><cc:Work
         rdf:about=""><dc:format>image/svg+xml</dc:format><dc:type
           rdf:resource="http://purl.org/dc/dcmitype/StillImage" /></cc:Work></rdf:RDF></metadata><sodipodi:namedview
     pagecolor="#ffffff"
     bordercolor="#666666"
     borderopacity="1"
     objecttolerance="10"
     gridtolerance="10"
     guidetolerance="10"
     inkscape:pageopacity="0"
     inkscape:pageshadow="2"
     inkscape:window-width="1920"
     inkscape:window-height="1027"
     id="namedview48"
     showgrid="false"
     inkscape:zoom="0.25"
     inkscape:cx="1022.8512"
     inkscape:cy="1710.5547"
     inkscape:window-x="-8"
     inkscape:window-y="-8"
     inkscape:window-maximized="1"
     inkscape:current-layer="svg2" /><defs
     id="defs4"><style
       type="text/css"
       id="style6"><![CDATA[
    .str0 {stroke:#663333;stroke-width:33.3331}
    .fil0 {fill:none}
    .fil12 {fill:#F8EADD}
    .fil9 {fill:#D09961}
    .fil10 {fill:#83521D}
    .fil11 {fill:#A96F31}
    .fil3 {fill:#966128}
    .fil13 {fill:#5A371C}
    .fil18 {fill:#202B5E}
    .fil17 {fill:#212C5E}
    .fil15 {fill:#27547D}
    .fil16 {fill:#5A80A1}
    .fil20 {fill:#8C6A05}
    .fil23 {fill:#9BB8D4}
    .fil21 {fill:#C99A0E}
    .fil14 {fill:#D69B61}
    .fil19 {fill:#EDC976}
    .fil8 {fill:#EDE0A5}
    .fil22 {fill:#F0F0E7}
    .fil1 {fill:#F2C27E}
    .fil7 {fill:#F2E4AC}
    .fil2 {fill:#F5D487}
    .fil5 {fill:#F8DB95}
    .fil6 {fill:#FCDF9A}
    .fil4 {fill:#CB8D4E}
   ]]></style></defs><g
     id="Outline"
     inkscape:export-filename="E:\New folder (5)\Hedgewars\Data\Themes\Beach\LandObject3.png"
     inkscape:export-xdpi="138.96457"
     inkscape:export-ydpi="138.96457"><metadata
       id="CorelCorpID_0Corel-Layer" /><path
       id="Outline_0"
       class="fil0 str0"
       d="m 1262,977 c 8,-6 8,-9 22,-14 72,-23 69,-14 127,-17 13,-21 32,-63 71,-130 38,-64 58,-100 87,-137 96,-98 220,-18 272,18 117,83 47,197 26,270 -11,40 -43,141 -51,163 0,1 0,1 -1,2 l 3,2 c 86,74 153,185 192,256 65,116 85,260 123,382 37,118 188,230 126,301 -84,1 -504,4 -596,1 -225,-8 -437,4 -1010,-1 -62,0 -94,3 -130,6 -42,-78 67,-121 96,-155 21,-24 26,-45 37,-67 -28,-34 -62,-72 -117,-109 -73,-49 -165,-107 -203,-162 -4,-4 -16,-16 -20,-39 -27,-20 -20,-43 -15,-56 31,-10 85,-24 120,-33 15,-4 69,-19 127,-37 61,-19 128,-37 126,-40 -15,-39 -64,-118 -85,-170 -25,-60 -67,-107 -76,-122 -39,-65 -48,-66 -23,-94 54.58839,-60.54349 66.81798,-42.2799 87.53001,-57.64661 0.15618,-0.11587 0.31283,-0.23365 0.46999,-0.35339 18.23086,-13.67314 57.23447,-1.188 97.53012,15.50716 C 714.80525,968.7795 755.30781,989.0513 779,993 c 36,9 100,42 120,44 6,-11 12,-22 19,-58 17,-81 -16,-190 -9,-240 10,-10 16,-7 32,-6 22,14 54,48 85,79 16,16 60,56 105,92 52,40 106,74 110,75 7,-1 14,-2 21,-2 z"
       inkscape:connector-curvature="0"
       style="fill:none;stroke:#663333;stroke-width:45;stroke-miterlimit:4;stroke-dasharray:none"
       sodipodi:nodetypes="ccccccccccccccccccccccccccscscscccccsccc" /></g><g
     id="Body"
     inkscape:export-filename="E:\New folder (5)\Hedgewars\Data\Themes\Beach\LandObject3.png"
     inkscape:export-xdpi="138.96457"
     inkscape:export-ydpi="138.96457"><metadata
       id="CorelCorpID_1Corel-Layer" /><path
       id="Base"
       class="fil1"
       d="M1241 979c-4,-1 -58,-35 -110,-75 -45,-36 -89,-76 -105,-92 -31,-31 -63,-65 -85,-79 -16,-1 -22,-4 -32,6 -7,50 26,159 9,240 -7,36 -13,47 -19,58 -20,-2 -84,-35 -120,-44 -48,-8 -165,-83 -201,-56 -21,16 -33,-3 -88,58 -25,28 -16,29 23,94 9,15 51,62 76,122 21,52 70,131 85,170 2,3 -65,21 -126,40 -58,18 -112,33 -127,37 -35,9 -89,23 -120,33 -5,13 -12,36 15,56 4,23 16,35 20,39 38,55 130,113 203,162 55,37 89,75 117,109 -11,22 -16,43 -37,67 -29,34 -138,77 -96,155 36,-3 68,-6 130,-6 573,5 785,-7 1010,1 92,3 512,0 596,-1 62,-71 -89,-183 -126,-301 -38,-122 -58,-266 -123,-382 -39,-71 -106,-182 -192,-256 -106,-90 -176,-140 -417,-160 -62,-5 -96,-1 -160,5z" /><path
       id="Midtone1"
       class="fil2"
       d="M383 1563c0,0 178,-28 234,-9 56,19 141,47 141,175 0,128 22,169 128,215 106,47 211,66 278,-25 67,-90 31,-397 125,-583 56,-111 124,-164 248,-178 57,-6 77,-56 61,-73 -38,-43 -78,-109 -187,-106 -110,3 -263,34 -306,-6 -44,-41 -152,-142 -152,-142 0,0 70,132 67,144 -3,12 -33,30 -47,5 -15,-25 -38,-92 -52,-93 8,17 -4,143 -10,156 -6,13 113,40 108,56 -4,16 -78,38 -121,26 -42,-13 -190,-114 -217,-124 -26,-9 -70,-39 -81,-25 -11,14 66,85 98,111 33,27 149,157 155,200 -38,89 -102,69 -146,92 -75,15 -360,107 -379,104 -13,-2 27,59 36,61 22,5 -6,19 19,19z" /><path
       id="Shadow2"
       class="fil3"
       d="M2020 2075c20,-43 48,-87 83,-94 45,-9 92,-26 139,-26 29,45 45,86 17,118 -36,0 -132,1 -239,2z"
       style="fill:#ef8b46;fill-opacity:1" /><path
       id="Shadow1"
       class="fil4"
       d="M341 1593c35,-23 63,-31 187,-10 125,22 130,34 164,75 35,40 38,137 38,175 0,37 50,200 237,203 188,3 210,19 297,-35 88,-53 156,-109 181,-181 25,-72 53,-22 41,31 -13,54 -44,166 41,213 6,3 11,6 17,7 -191,-1 -419,6 -891,2 -62,0 -94,3 -130,6 -1,-1 -1,-2 -2,-3 -1,-1 -1,-3 -2,-4 0,-1 -1,-2 -1,-3 0,-2 -1,-3 -1,-4 -1,-1 -1,-2 -1,-3l0 0c-1,-1 -1,-3 -1,-4 0,-1 0,-2 -1,-3 0,-1 0,-2 0,-3 0,-2 0,-3 0,-4 0,-1 0,-2 0,-3 0,-1 0,-2 0,-3 0,-1 0,-2 0,-3 0,-1 0,-2 0,-3 0,-1 1,-2 1,-3l0 0c0,-1 0,-2 0,-3 1,-1 1,-2 1,-3 1,-1 1,-2 1,-3 1,-1 1,-2 1,-3l0 0c1,-1 1,-2 2,-3l0 0c0,-1 1,-2 1,-3l0 0c0,0 1,-1 1,-2l0 0c1,-1 1,-2 2,-3 1,-1 1,-2 2,-3l0 0c0,-1 1,-1 1,-2 1,-1 2,-2 2,-3 1,-1 2,-2 2,-2l0 0c1,-1 2,-2 2,-3l0 0c1,-1 2,-2 2,-2l0 0c1,-1 2,-2 3,-3 0,-1 1,-1 2,-2l0 0c1,-1 1,-2 2,-3 1,0 2,-1 3,-2l0 0c0,-1 1,-1 2,-2 1,-1 2,-2 3,-2 0,-1 1,-2 2,-3 1,0 2,-1 3,-2l0 0c1,-1 1,-1 2,-2 1,-1 2,-2 3,-2 1,-1 2,-2 2,-2l0 0c1,-1 2,-2 3,-2 1,-1 2,-2 3,-2 1,-1 2,-2 2,-3l0 0 3 -2 0 0 3 -2 2 -1 3 -2 3 -2 0 0 2 -2 3 -2 2 -2 3 -2 2 -2 2 -1c1,-1 2,-1 3,-2 1,-1 1,-1 2,-2 1,0 1,-1 2,-2 1,0 2,-1 2,-1 1,-1 2,-1 2,-2 1,0 2,-1 2,-2 1,0 1,-1 2,-1 1,-1 1,-1 2,-2l0 0c0,0 1,-1 1,-2 1,0 1,-1 2,-1 0,-1 1,-1 1,-2 21,-24 26,-45 37,-67l-1 -2 -1 -1 -2 -2 -1 -1 -1 -2 -2 -2 -1 -1 -2 -2 0 0 -1 -2 -1 -1 -2 -2 0 0 -1 -2 -2 -1 -1 -2 -2 -2 0 0 -1 -1 0 0 -2 -2 -1 -2 0 0 -2 -1 -1 -2 0 0 -2 -2 0 0 -1 -1 0 0 -2 -2 0 0 -2 -2 0 0 -1 -1 0 0 -2 -2 0 0 -2 -2 0 0 -1 -2 0 0 -2 -1 0 0 -2 -2 0 0 -1 -2 0 0 -2 -1 0 0 -2 -2 0 0 -2 -2 0 0 -2 -1 0 0 -1 -2 0 0 -2 -2 0 0 -2 -2 0 0 -2 -1 0 0 -2 -2 0 0 -2 -2 0 0 -2 -1 0 0 -2 -2 0 0 -2 -2 0 0 -2 -2 0 0 -2 -1 0 0 -2 -2 0 0 -2 -2 0 0 -2 -2 0 0 -3 -1 0 0 -2 -2 0 0 -2 -2 0 0 -2 -1 0 0 -2 -2 0 0c-1,-1 -2,-1 -3,-2l0 0 -2 -2 0 0 -2 -1 0 0 -3 -2 0 0c-1,-1 -1,-1 -2,-2l0 0c-1,0 -2,-1 -3,-2l0 0c0,0 -1,-1 -2,-1l-3 -2 -2 -2 -3 -2 -3 -2 0 0 -3 -2 -1 0c-35,-24 -75,-51 -111,-78 -33,-24 -61,-49 -80,-73zm1237 479c46,-15 62,-91 44,-100 -24,-13 -85,17 -83,-64 2,-82 2,-149 73,-214 72,-66 96,-121 199,-107 103,14 181,131 207,220 27,89 -45,47 -62,34 -17,-12 -74,-17 -91,-33 -17,-15 -34,-57 -64,-89 -30,-31 -50,-59 -94,-7 -43,51 -92,120 -98,151 -6,31 -56,91 36,77 92,-14 122,9 45,67 -46,35 -63,53 -72,66 -13,-1 -26,-1 -40,-1zm183 3c134,-73 195,-19 315,-135 55,-53 -8,-434 -35,-504 15,41 43,188 100,345 31,84 71,127 75,131 8,11 15,26 27,42 -4,5 -13,11 -22,16 -61,39 -116,26 -159,105 -55,0 -244,0 -301,0z"
       style="fill:#f3ac71;fill-opacity:1" /><path
       id="MouthHighlight"
       class="fil5"
       d="M1820 1858c-26,12 -79,7 -95,11 -35,10 -62,38 -47,43 15,5 148,8 158,-7 10,-15 72,-34 79,-41 12,-14 -21,-30 -33,-31 -24,-3 -38,15 -62,25z" /><path
       id="Highlight"
       class="fil6"
       d="M1051 1157c0,0 -22,59 -73,112 -38,40 -102,64 -127,119 -25,58 3,104 0,149 -4,55 -30,104 29,145 106,73 256,-19 281,-94 25,-75 84,-253 56,-337 -28,-85 -53,-138 -166,-94z" /><path
       id="SpikeHighlight"
       class="fil7"
       d="M476 1015c20,3 38,4 47,0 9,-5 3,-22 12,-30 18,-15 51,-22 54,-30 1,-3 3,-12 5,-24 -6,1 -12,3 -16,6 -21,16 -33,-3 -88,58 -8,8 -12,14 -14,20z" /><path
       id="Shadow2_1"
       class="fil4"
       d="M525 1105c3,-24 11,-45 29,-54 53,-28 153,84 187,131 34,47 53,88 65,143 -40,19 -84,41 -131,56 -17,-40 -65,-119 -86,-170 -19,-45 -48,-83 -64,-106z"
       style="fill:#f3ac71;fill-opacity:1" /><path
       id="Highlight2"
       class="fil8"
       d="M654 1406c-14,2 -40,9 -99,20 -60,12 -119,28 -134,32 -32,9 -81,21 -113,31 19,9 28,25 50,37 32,-2 242,-52 348,-89 5,-7 28,-13 24,-20 -3,-5 -9,-7 -12,-10 -19,-13 -40,-5 -64,-1z" /><path
       id="SpikeShadow1"
       class="fil9"
       d="M987 769c-102,-95 82,121 115,146 33,26 98,67 125,65 19,-1 -16,-21 -21,-25 -6,-3 -15,-8 -58,-41 -4,-2 -10,-9 -14,-12 -60,-47 -123,-106 -147,-133z" /><path
       id="BackMidtone"
       class="fil2"
       d="M2048 1476c-25,-54 -122,-182 -163,-220 -42,-37 -65,-64 -133,-97 -68,-33 -218,-101 -297,-180 198,24 272,65 363,155 81,81 81,81 127,144 44,59 84,126 103,198z" /><path
       id="MouthShadow"
       class="fil10"
       d="M2018 1812c-26,-7 -118,-16 -167,-77 -49,-61 -96,-108 -172,-59 -77,49 -70,67 -120,112 -4,3 -7,5 -9,6 9,-35 27,-68 62,-100 72,-66 95,-117 199,-107 85,9 192,128 207,225z"
       style="fill:#ef8b46;fill-opacity:1" /><path
       id="BottomShadow1"
       class="fil3"
       d="M382 1635c75,-11 167,-10 231,42 64,52 87,173 82,205 -3,16 -37,72 -18,106 21,36 81,54 108,77 3,2 5,5 7,9 -44,0 -91,0 -139,-1 -62,0 -94,3 -130,6 -1,-1 -1,-2 -2,-3 -1,-1 -1,-3 -2,-4 0,-1 -1,-2 -1,-3 0,-2 -1,-3 -1,-4 -1,-1 -1,-2 -1,-3l0 0c-1,-1 -1,-3 -1,-4 0,-1 0,-2 -1,-3 0,-1 0,-2 0,-3 0,-2 0,-3 0,-4 0,-1 0,-2 0,-3 0,-1 0,-2 0,-3 0,-1 0,-2 0,-3 0,-1 0,-2 0,-3 0,-1 1,-2 1,-3l0 0c0,-1 0,-2 0,-3 1,-1 1,-2 1,-3 1,-1 1,-2 1,-3 1,-1 1,-2 1,-3l0 0c1,-1 1,-2 2,-3l0 0c0,-1 1,-2 1,-3l0 0c0,0 1,-1 1,-2l0 0c1,-1 1,-2 2,-3 1,-1 1,-2 2,-3l0 0c0,-1 1,-1 1,-2 1,-1 2,-2 2,-3 1,-1 2,-2 2,-2l0 0c1,-1 2,-2 2,-3l0 0c1,-1 2,-2 2,-2l0 0c1,-1 2,-2 3,-3 0,-1 1,-1 2,-2l0 0c1,-1 1,-2 2,-3 1,0 2,-1 3,-2l0 0c0,-1 1,-1 2,-2 1,-1 2,-2 3,-2 0,-1 1,-2 2,-3 1,0 2,-1 3,-2l0 0c1,-1 1,-1 2,-2 1,-1 2,-2 3,-2 1,-1 2,-2 2,-2l0 0c1,-1 2,-2 3,-2 1,-1 2,-2 3,-2 1,-1 2,-2 2,-3l0 0 3 -2 0 0 3 -2 2 -1 3 -2 3 -2 0 0 2 -2 3 -2 2 -2 3 -2 2 -2 2 -1c1,-1 2,-1 3,-2 1,-1 1,-1 2,-2 1,0 1,-1 2,-2 1,0 2,-1 2,-1 1,-1 2,-1 2,-2 1,0 2,-1 2,-2 1,0 1,-1 2,-1 1,-1 1,-1 2,-2l0 0c0,0 1,-1 1,-2 1,0 1,-1 2,-1 0,-1 1,-1 1,-2 21,-24 26,-45 37,-67l-1 -2 -1 -1 -2 -2 -1 -1 -1 -2 -2 -2 -1 -1 -2 -2 0 0 -1 -2 -1 -1 -2 -2 0 0 -1 -2 -2 -1 -1 -2 -2 -2 0 0 -1 -1 0 0 -2 -2 -1 -2 0 0 -2 -1 -1 -2 0 0 -2 -2 0 0 -1 -1 0 0 -2 -2 0 0 -2 -2 0 0 -1 -1 0 0 -2 -2 0 0 -2 -2 0 0 -1 -2 0 0 -2 -1 0 0 -2 -2 0 0 -1 -2 0 0 -2 -1 0 0 -2 -2 0 0 -2 -2 0 0 -2 -1 0 0 -1 -2 0 0 -2 -2 0 0 -2 -2 0 0 -2 -1 0 0 -2 -2 0 0 -2 -2 0 0 -2 -1 0 0 -2 -2 0 0 -2 -2 0 0 -2 -2 0 0 -2 -1 0 0 -2 -2 0 0 -2 -2 0 0 -2 -2 0 0 -3 -1 0 0 -2 -2 0 0 -2 -2 0 0 -2 -1 0 0 -2 -2 0 0c-1,-1 -2,-1 -3,-2l0 0 -2 -2 0 0 -2 -1 0 0 -3 -2 0 0c-1,-1 -1,-1 -2,-2l0 0c-1,0 -2,-1 -3,-2l0 0c0,0 -1,-1 -2,-1l-3 -2 -2 -2 -3 -2 -3 -2 0 0 -3 -2 -1 0c-35,-24 -75,-51 -111,-78 -14,-10 -27,-20 -39,-31z"
       style="fill:#ef8b46;fill-opacity:1" /><path
       id="BottomShadow2"
       class="fil3"
       d="M1264 2072c47,-36 116,-92 126,-112 14,-32 76,-116 60,-24 -7,33 5,83 21,135 -61,0 -129,1 -207,1z"
       style="fill:#ef8b46;fill-opacity:1" /><path
       id="SpikeShadow2"
       class="fil11"
       d="M756 1347c-5,-51 -100,-171 -121,-185 -21,-13 -54,-44 -67,10 26,55 53,104 108,209 28,-10 54,-21 80,-34z"
       style="fill:#eb8d57;fill-opacity:1" /><path
       id="SpikeBase1"
       class="fil1"
       d="M837 1304c0,0 15,-58 39,-80 24,-23 55,-30 55,-30l-94 110z" /><path
       id="SpikeBase2"
       class="fil1"
       d="M756 1693c0,0 8,-143 20,-188 13,-45 -42,65 -42,105 0,40 22,83 22,83z" /></g><g
     id="Eyes"
     inkscape:export-filename="E:\New folder (5)\Hedgewars\Data\Themes\Beach\LandObject3.png"
     inkscape:export-xdpi="138.96457"
     inkscape:export-ydpi="138.96457"><metadata
       id="CorelCorpID_2Corel-Layer" /><path
       id="EyeBase"
       class="fil12"
       d="M1433 1260c0,0 -138,64 -60,236 78,172 228,131 275,102 47,-30 47,-118 47,-118 0,0 61,77 144,49 83,-28 15,-175 -11,-202 -27,-26 -66,-72 -114,-53 -49,19 -50,91 -50,91 0,0 -105,-131 -231,-105z" /><path
       id="RightPupil"
       class="fil13"
       d="M1600 1368c0,0 -53,28 -20,105 32,76 109,4 96,-41 -12,-45 -42,-78 -76,-64z"
       style="fill:#eb8d57;fill-opacity:1" /><path
       id="Left_x0020_Pupil"
       class="fil13"
       d="M1715 1357c0,0 -46,9 -14,84 33,75 91,21 82,-20 -4,-17 -10,-35 -18,-48 -10,-18 -27,-30 -50,-16z"
       style="fill:#eb8d57;fill-opacity:1" /></g><g
     id="Bucket"
     inkscape:export-filename="E:\New folder (5)\Hedgewars\Data\Themes\Beach\LandObject3.png"
     inkscape:export-xdpi="138.96457"
     inkscape:export-ydpi="138.96457"><metadata
       id="CorelCorpID_3Corel-Layer" /><path
       id="DropShadow"
       class="fil14"
       d="M1247 1001c0,0 -38,30 -33,68 2,18 14,45 36,65 25,23 61,41 95,47 64,13 136,11 136,11 0,0 47,29 82,42 35,12 117,27 152,26 35,-1 86,6 117,26 31,20 66,75 99,67 10,-2 25,-22 27,-31 4,-20 -17,-50 -28,-66 -19,-26 -109,-136 -163,-167 -54,-32 -217,-109 -285,-118 -67,-9 -102,-5 -107,8 -12,6 -34,22 -39,37 -5,15 -4,34 15,61 20,28 -43,-3 -43,-3 0,0 -23,-34 -21,-48 3,-14 -1,-26 19,-32 20,-7 59,-9 67,-14 9,-5 2,-26 -13,-23 -15,4 -88,33 -88,33l-25 11z"
       style="fill:#eb8e57;fill-opacity:1" /><path
       id="BucketBase"
       class="fil15"
       d="M1816 1130c8,-22 40,-123 51,-163 21,-73 91,-187 -26,-270 -52,-36 -176,-116 -272,-18 -29,37 -49,73 -87,137 -18,31 -67,152 -85,154 -29,5 -77,54 -45,88 33,35 118,125 216,157 99,32 163,42 218,7 56,-35 20,-69 30,-92z" /><path
       id="BucketMidtone"
       class="fil16"
       d="M1370 1077c21,1 71,32 81,15 9,-17 2,-50 18,-78 15,-28 63,-137 89,-171 27,-33 39,-45 65,-64 27,-20 36,-28 73,-15 8,3 10,2 22,7 54,25 93,36 136,44 27,-8 41,-27 30,-57 -5,-14 -10,-26 -15,-37 -8,-8 -17,-16 -28,-24 -32,-23 -93,-62 -156,-65l0 0c-2,0 -5,0 -7,0l0 0c-37,0 -75,12 -109,47 -29,37 -49,73 -87,137 -18,31 -67,152 -85,154 -29,5 -77,54 -45,88 5,5 11,12 18,19z" /><path
       id="BucketMidtone2"
       class="fil15"
       d="M1375 980c-8,13 -14,27 -14,39 -1,32 53,67 61,67 8,0 29,16 37,4 5,-8 25,50 16,78 -56,-39 -101,-87 -123,-110 -24,-26 -2,-61 23,-78z" /><path
       id="BucketShadow2"
       class="fil17"
       d="M1348 1009c1,11 3,26 12,41 19,31 89,57 90,66 1,3 -6,11 -16,20 -37,-30 -66,-61 -82,-78 -14,-15 -12,-33 -4,-49z" /><path
       id="BucketShadow1"
       class="fil18"
       d="M1904 848c3,-26 7,-61 -13,-97 5,15 4,44 3,57 -1,9 -28,81 -39,101 -28,51 -86,205 -84,226 1,22 -4,43 -44,53 -39,11 -69,2 -89,-1 -20,-3 -127,-28 -145,-24 -3,1 -6,5 -8,11 26,17 54,32 83,41 99,32 163,42 218,7 56,-35 20,-69 30,-92 8,-22 40,-123 51,-163 9,-34 29,-75 37,-119z" /><path
       id="Handle"
       class="fil19"
       d="M1472 1102c0,0 86,15 106,16 21,1 38,15 36,34 -1,18 -8,36 -61,31 -53,-6 -180,-8 -215,-21 -35,-13 -103,-35 -115,-96 -13,-61 40,-92 61,-103 20,-11 72,-19 131,-13 -3,6 -8,15 -16,20 -6,1 -13,4 -17,6 0,0 -85,2 -98,24 -13,21 15,55 86,75 72,20 102,27 102,27z" /><path
       id="HandleShadow2"
       class="fil20"
       d="M1227 1025c-4,53 56,103 106,117 49,13 220,29 243,26 23,-3 43,-9 17,-47 12,6 23,14 21,31 -1,16 -8,36 -61,31 -53,-6 -180,-8 -215,-21 -35,-13 -103,-35 -115,-96 -3,-14 -2,-27 1,-39 2,-1 3,-2 3,-2z" /><path
       id="HandleShadow"
       class="fil21"
       d="M1402 967c-22,0 -56,2 -69,4 -13,2 -34,7 -42,15 -9,9 -13,18 -11,26 1,1 1,3 2,4 -1,-6 -1,-11 2,-16 13,-22 98,-24 98,-24 4,-2 11,-5 17,-6 1,-1 2,-2 3,-3z" /><path
       id="HandleHighlight"
       class="fil22"
       d="M1274 988c1,3 -13,24 -6,41 3,8 28,36 41,45 18,13 51,25 54,27 -1,3 -38,-7 -64,-24 -20,-13 -39,-30 -45,-43 -13,-28 17,-47 20,-46z" /><path
       id="BucketHighlight"
       class="fil23"
       d="M1598 761c-4,-3 -39,3 -80,63 -12,18 -30,47 -44,77 -10,19 -29,54 -34,70 -35,119 68,-100 93,-131 25,-31 34,-50 65,-79z" /></g></svg>