<?xml version="1.0" encoding="UTF-8"?>
<!DOCTYPE svg PUBLIC "-//W3C//DTD SVG 1.1//EN" "http://www.w3.org/Graphics/SVG/1.1/DTD/svg11.dtd">
<svg xmlns="http://www.w3.org/2000/svg" xml:space="preserve" width="100%" height="100%" version="1.1" shape-rendering="geometricPrecision" text-rendering="geometricPrecision" image-rendering="optimizeQuality" fill-rule="evenodd" clip-rule="evenodd"
viewBox="0 0 8500 11000"
 xmlns:xlink="http://www.w3.org/1999/xlink">
 <g id="Overlay">
  <path fill="none" stroke="#663333" stroke-width="66.6654" d="M4112 7053c-18,-9 -41,-29 -33,-75 12,-71 59,-131 59,-131 -70,-474 -232,-1598 -321,-2013 -115,-531 -441,-1243 -441,-1243 -1,-2 -1,-3 -2,-5 -63,-12 -122,-29 -136,-54 -30,-50 10,-141 114,-136 9,0 37,1 82,3 168,-136 529,-412 704,-596 208,-218 395,-604 507,-778l3 -1c0,-3 0,-5 1,-7 48,-206 186,-137 192,-50 2,32 -7,62 -14,97l-1 7c1,2 2,4 3,6 0,0 22,232 333,580 311,348 947,877 947,877l-1 1c56,4 104,9 143,14 62,7 80,31 89,37 48,39 19,145 -21,165 -41,19 -146,16 -146,16l-121 -7c-172,164 -584,571 -953,1123 -313,470 -576,1306 -712,1787 49,-39 88,-73 94,-92 20,-56 111,-181 111,-181 0,0 -17,41 -16,92 2,50 7,100 51,99 44,-2 57,-14 57,-14 0,0 -70,30 -106,62 -37,31 -188,160 -214,187 -5,5 -14,15 -26,28 -12,46 -23,85 -30,115 90,-35 177,-68 177,-68 0,0 -39,41 -64,76 -25,35 -16,91 -32,125 -16,34 -96,50 -96,50 0,0 16,6 63,50 47,44 64,181 56,314 -8,133 -104,369 -190,505 -86,135 -224,198 -410,228 -186,30 -440,-60 -440,-60 0,0 12,45 26,79 14,34 104,50 124,125 19,76 -16,151 -16,151 0,0 -62,42 -122,76 -60,34 -347,151 -539,185 -193,34 -461,-34 -615,-99 -154,-65 -266,-201 -310,-289 -44,-89 -44,-378 -5,-472 39,-93 122,-175 256,-235 135,-60 335,-77 335,-77 0,0 -26,-30 -42,-46 -15,-15 -28,-143 11,-165 39,-22 204,-4 281,13 77,17 482,-13 615,-64 132,-51 143,-157 117,-215 -26,-57 -104,-85 -125,-118 -22,-33 -11,-106 -11,-106l146 -5c0,0 -7,87 4,146 10,59 114,113 139,152 25,40 6,78 -27,145 -34,68 -230,204 -297,250 -68,47 -401,84 -401,84 0,0 -25,94 -62,127 -36,34 -270,37 -317,37 -47,0 -486,87 -486,87 0,0 2,51 72,121 71,71 157,84 352,89 195,5 492,-39 492,-39 0,0 -23,-55 -36,-102 -13,-47 2,-172 62,-200 60,-29 102,-32 175,-26 73,5 328,41 565,15 237,-26 435,-198 492,-263 57,-65 91,-252 58,-294 -4,-6 -10,-11 -18,-15 -14,42 -47,61 -74,55 -26,-5 -34,-60 -36,-85 -17,-1 -29,-2 -29,-2 0,0 -27,-15 -39,-24 -12,-9 -20,-96 25,-129z"/>
 </g>
 <g id="Band2">
  <path fill="#CE5120" d="M4131 7059c0,0 -64,-9 -52,-81 12,-71 59,-131 59,-131 0,0 324,-213 343,-269 20,-56 111,-181 111,-181 0,0 -17,41 -16,92 2,50 7,100 51,99 44,-2 57,-14 57,-14 0,0 -70,30 -106,62 -37,31 -188,160 -214,187 -26,28 -208,219 -233,236z"/>
  <path fill="#2B2A29" fill-opacity="0.549020" d="M4584 6553c7,21 19,35 43,35 44,-2 57,-14 57,-14 0,0 -70,30 -106,62 -37,31 -188,160 -214,187 -17,18 -103,108 -166,172 -13,2 -22,3 -25,1 -25,-15 -39,-58 -33,-80 6,-22 215,-131 244,-145 28,-14 129,-112 162,-144 16,-16 29,-47 38,-74z"/>
  <path fill="#FEFEFE" fill-opacity="0.301961" d="M4487 6564c27,-60 105,-167 105,-167 0,0 -8,13 -12,45 -33,35 -62,98 -70,106 -8,8 -14,11 -23,16z"/>
  <path fill="#FEFEFE" fill-opacity="0.301961" d="M4088 7032c-8,-12 -13,-29 -9,-54 12,-71 59,-131 59,-131 0,0 15,-10 40,-27 -36,52 -71,117 -85,140 -15,25 -10,55 -5,72z"/>
 </g>
 <g id="Sticks">
  <path fill="#D6A249" d="M6173 3767c0,0 105,3 146,-16 40,-20 69,-126 21,-165 -9,-6 -27,-30 -89,-37 -547,-65 -2806,-149 -2899,-153 -104,-5 -144,86 -114,136 30,51 244,69 301,77 58,8 2634,158 2634,158z"/>
  <path fill="#D6A249" d="M4841 1967c-6,-87 -144,-156 -192,50 -32,138 -495,5180 -495,5180 0,0 4,90 37,96 32,7 74,-22 80,-86 7,-63 42,-419 42,-419 0,0 455,-4318 475,-4463 14,-97 26,-192 39,-261 7,-35 16,-65 14,-97z"/>
  <path fill="#253757" fill-opacity="0.200000" d="M6173 3767c0,0 105,3 146,-16 29,-14 52,-75 44,-122 -10,38 -3,65 -139,64 -21,0 -2921,-174 -2948,-185 -28,-11 -40,-27 -40,-50 -11,25 -11,53 2,74 30,51 244,69 301,77 58,8 2634,158 2634,158z"/>
  <path fill="#D9DADA" fill-opacity="0.450980" d="M6318 3569c-14,-8 -34,-16 -67,-20 -547,-65 -2806,-149 -2899,-153 -52,-3 -88,19 -108,47 28,-18 50,-25 92,-30 42,-4 2877,195 2918,190 32,-4 75,-7 64,-34z"/>
  <path fill="#253757" fill-opacity="0.301961" d="M6173 3767c0,0 105,3 146,-16 15,-7 28,-27 37,-51 -25,36 -77,39 -125,41 -54,3 -2653,-153 -2734,-160 -51,-4 -126,-22 -191,-33 -35,-6 -62,-28 -69,-35 -7,-7 -8,-19 -8,-31 -3,18 0,36 9,50 30,51 244,69 301,77 58,8 2634,158 2634,158z"/>
  <path fill="#D9DADA" fill-opacity="0.541176" d="M6278 3553c-8,-2 -17,-3 -27,-4 -547,-65 -2806,-149 -2899,-153 -30,-2 -55,5 -74,16 17,-3 36,-8 54,-8 17,0 79,3 79,3 0,0 2794,170 2815,170 18,0 75,9 52,-24z"/>
  <path fill="#253757" fill-opacity="0.200000" d="M4841 1967c-3,-36 -23,-58 -40,-70 -24,3 -32,18 -47,51 -15,33 -35,96 -52,161 -17,64 -508,5087 -506,5121 1,34 5,49 13,63 28,-5 57,-33 62,-86 7,-63 42,-419 42,-419 0,0 455,-4318 475,-4463 14,-97 26,-192 39,-261 7,-35 17,-65 14,-97z"/>
  <path fill="#253757" fill-opacity="0.200000" d="M4841 1967c-1,-9 -3,-18 -6,-26 -7,-27 -17,-18 -32,6 -16,25 -31,130 -48,172 -18,43 -530,5063 -530,5093 1,30 8,70 45,6 1,-4 1,-7 1,-11 7,-63 42,-419 42,-419 0,0 455,-4318 475,-4463 14,-97 26,-192 39,-261 7,-35 16,-65 14,-97z"/>
  <path fill="#D9DADA" fill-opacity="0.450980" d="M4792 1891c-46,-25 -113,-5 -143,126 -32,138 -495,5180 -495,5180 0,0 4,90 37,96 1,1 2,1 3,1 -6,-11 -7,-16 -17,-38 -9,-21 493,-5157 503,-5204 10,-48 38,-139 64,-151 27,-13 33,-9 48,-10z"/>
 </g>
 <g id="Wing">
  <path fill="#4BACE8" d="M4829 2077c-10,-35 -87,-79 -184,-52 -112,174 -299,560 -507,778 -181,190 -561,479 -721,610 -44,36 -60,123 -41,178 0,0 326,712 441,1243 114,531 347,2224 354,2229 7,5 16,17 34,18 27,2 60,-23 85,-41 0,0 351,-1469 809,-2157 369,-553 781,-959 954,-1123 -25,-57 -30,-191 56,-226 0,0 -636,-529 -947,-877 -311,-348 -333,-580 -333,-580z"/>
  <path fill="#FA800F" d="M4829 2077c-10,-35 -87,-79 -184,-52 -112,174 -299,560 -507,778 -181,190 -561,479 -721,610 -22,18 -38,50 -45,84 104,-27 526,-135 749,-158 255,-26 502,-34 760,13 136,25 684,139 1171,241 11,-26 30,-48 57,-59 0,0 -636,-529 -947,-877 -311,-348 -333,-580 -333,-580z"/>
  <path fill="#E85A47" d="M4690 2017c-15,1 -30,4 -45,8 -112,174 -299,560 -507,778 -181,190 -561,479 -721,610 -44,36 -60,123 -41,178 0,0 326,712 441,1243 114,531 347,2224 354,2229 4,3 7,7 12,10 -1,-383 0,-940 17,-1481 21,-647 56,-1260 98,-1543 92,-616 315,-1770 392,-2032z"/>
  <path fill="#FADE52" d="M4688 2017l0 0 -1 0 -1 0 0 0 -2 1 -1 0 -1 0 0 0 -1 0 -1 0 -1 0 -1 0 0 0 -1 0 0 0 -2 1 0 0 -2 0 0 0 -1 0 -1 0 0 0 -3 1 -1 0 0 0 -3 0 -1 1 0 0 -1 0 -3 0 0 0c-2,1 -3,1 -5,1l0 0c-3,1 -6,2 -9,3 -112,174 -299,560 -507,778 -181,190 -561,479 -721,610l-2 2 0 0 0 0 0 0 -2 1 0 1 0 0 0 0 -2 1 0 0 0 1 -1 1 -1 1 -1 1 -1 0 0 1 -1 1 -1 1 -1 1 0 1 -1 0 -1 2 0 0 -1 2 -1 0 -1 2 0 0 -2 2 0 1 -2 2 0 0 -1 3 0 0 -1 2 -1 0 0 0 -1 2 0 1 0 0c-1,1 -2,3 -3,5l0 0 0 0 -1 2 0 1 0 0 -1 2 0 0 0 0 -1 1 -1 2 0 0 0 0 -1 2 0 1 0 0 0 0 -1 2 0 1 0 0 -1 1 0 1 0 1 -1 1 0 0 0 2 -1 1 0 1 0 1 -1 1 0 1 0 1 -1 1 0 1 0 1 -1 1 0 2 -1 1 0 2 0 0 0 2 0 0 -1 1 0 0 0 2 0 0 -1 1 0 2 0 2 -1 1c104,-27 526,-135 749,-158 101,-10 201,-17 300,-20 100,-547 217,-1126 269,-1302l-2 0z"/>
 </g>
 <g id="Face">
  <path fill="#E0DACE" d="M4134 3095c-52,-7 -162,23 -242,92 -72,61 -116,157 -159,251 -91,201 -44,331 8,386 52,54 224,101 312,34 89,-68 172,-245 198,-373 26,-127 60,-362 -117,-390z"/>
  <path fill="#E0DACE" d="M5120 3065c-150,-27 -284,59 -371,180 -87,122 -116,443 -69,541 46,98 94,203 241,205 147,3 251,-40 340,-227 90,-187 133,-648 -141,-699z"/>
  <path fill="#2B2A29" d="M4030 3330c-36,-13 -98,18 -120,55 -23,36 -33,107 -10,122 24,15 97,15 135,-28 37,-43 61,-106 -5,-149z"/>
  <path fill="#2B2A29" d="M5002 3345c78,5 103,52 89,115 -15,64 -51,112 -105,114 -53,1 -81,-77 -76,-112 5,-35 12,-119 92,-117z"/>
  <path fill="#E74723" d="M4008 4509c0,0 -5,184 93,265 98,80 223,104 346,67 124,-36 207,-96 242,-136 36,-41 90,-189 90,-189 0,0 -315,51 -393,51 -78,0 -216,-8 -378,-58z"/>
 </g>
 <g id="Shading">
  <path fill="#434242" fill-opacity="0.780392" d="M3372 3577c1,5 2,9 4,14 0,0 366,898 441,1243 74,345 94,517 140,806 27,-126 6,-277 6,-338 0,-61 -175,-893 -284,-1177 -110,-284 -93,-445 -140,-516 -47,-70 -90,-59 -167,-32z"/>
  <path fill="#434242" fill-opacity="0.780392" d="M4225 7078c24,-8 43,-22 65,-38 0,0 351,-1469 809,-2157 369,-553 781,-959 954,-1123 -6,-12 -10,-28 -13,-46 -89,15 -107,-26 -364,59 -258,86 -472,311 -692,677 -220,365 -610,1710 -657,1998 -48,288 -91,451 -102,630z"/>
  <path fill="#FEFEFE" fill-opacity="0.729412" d="M4648 2024l-3 1c-112,174 -299,560 -507,778 -181,190 -561,479 -721,610l-2 2 0 0 0 0 0 0 -2 1 0 1 0 0 0 0 -2 1 0 0 0 1 -1 1 -1 1 -1 1 -1 0 0 1 -1 1 -1 1 -1 1 0 1 -1 0 -1 2 0 0 -1 2 -1 0 -1 2 0 0 -2 2 0 1 -2 2 0 0 -1 3 0 0 -1 2 -1 0 0 0 -1 2 0 1 0 0c-1,1 -2,3 -3,5l0 0 0 0 0 1c136,-46 348,-116 462,-184 114,-68 469,-318 596,-566 126,-247 174,-508 202,-678z"/>
  <path fill="#EBECEC" d="M4165 3539c-92,7 -150,101 -81,139 69,38 213,11 198,-44 -16,-55 -109,-96 -117,-95z"/>
  <path fill="#EBECEC" d="M4669 3809c-44,50 -26,128 28,112 55,-15 115,-102 79,-122 -35,-20 -103,5 -107,10z"/>
  <path fill="#434242" fill-opacity="0.611765" d="M4829 2077c-5,-16 -23,-34 -52,-46 -6,54 35,53 7,216 -29,164 -14,392 108,588 121,195 776,678 1172,735 11,-15 26,-28 45,-36 0,0 -636,-529 -947,-877 -311,-348 -333,-580 -333,-580z"/>
  <path fill="#FEFEFE" fill-opacity="0.701961" d="M3746 4143c35,130 214,651 261,990 47,339 99,1130 114,1307 16,177 37,203 120,-172 83,-375 224,-1276 287,-1349 62,-72 529,-731 510,-833 -19,-102 -109,-898 -193,-944 -83,-45 -327,-658 -399,-440 -33,99 -180,268 -354,393 -210,152 -448,256 -417,314 58,105 37,605 71,734z"/>
 </g>
 <g id="Band">
  <path fill="#CE5120" d="M3352 6929c0,0 -11,73 11,106 21,33 99,61 125,118 26,58 15,164 -117,215 -133,51 -538,81 -615,64 -77,-17 -242,-35 -281,-13 -39,22 -26,150 -11,165 16,16 42,46 42,46 0,0 -200,17 -335,77 -134,60 -217,142 -256,235 -39,94 -39,383 5,472 44,88 156,224 310,289 154,65 422,133 615,99 192,-34 479,-151 539,-185 60,-34 122,-76 122,-76 0,0 35,-75 16,-151 -20,-75 -110,-91 -124,-125 -14,-34 -26,-79 -26,-79 0,0 254,90 440,60 186,-30 324,-93 410,-228 86,-136 182,-372 190,-505 8,-133 -9,-270 -56,-314 -47,-44 -63,-50 -63,-50 0,0 80,-16 96,-50 16,-34 7,-90 32,-125 25,-35 64,-76 64,-76 0,0 -323,121 -371,153 -47,32 -39,122 -27,131 12,9 39,24 39,24 0,0 125,5 157,47 33,42 -1,229 -58,294 -57,65 -255,237 -492,263 -237,26 -492,-10 -565,-15 -73,-6 -115,-3 -175,26 -60,28 -75,153 -62,200 13,47 36,102 36,102 0,0 -297,44 -492,39 -195,-5 -281,-18 -352,-89 -70,-70 -72,-121 -72,-121 0,0 439,-87 486,-87 47,0 281,-3 317,-37 37,-33 62,-127 62,-127 0,0 333,-37 401,-84 67,-46 263,-182 297,-250 33,-67 52,-105 27,-145 -25,-39 -129,-93 -139,-152 -11,-59 -4,-146 -4,-146l-146 5z"/>
  <path fill="#FEFEFE" fill-opacity="0.380392" d="M2462 7433c-23,41 -11,138 2,151 16,16 42,46 42,46 0,0 -5,0 -14,1 112,5 272,0 312,-16 60,-25 12,-57 -5,-72 -17,-14 -90,-32 -120,-43 -30,-10 -105,-18 -143,-26 -22,-4 -52,-24 -74,-41z"/>
  <path fill="#FEFEFE" fill-opacity="0.501961" d="M3003 7816c-3,2 -7,3 -10,5 -60,28 -75,153 -62,200 13,47 36,102 36,102 0,0 -7,1 -20,3 78,-10 183,-41 210,-50 38,-13 172,-52 160,-64 -12,-12 -130,-25 -163,-33 -32,-7 -147,-37 -159,-104 -3,-22 1,-42 8,-59z"/>
  <path fill="#FEFEFE" fill-opacity="0.290196" d="M2173 7706l-2 1c-134,60 -222,153 -256,235 -34,83 -50,346 5,472 -19,-141 -7,-266 5,-349 16,-122 51,-162 67,-188 78,-123 125,-131 181,-171z"/>
  <path fill="#FEFEFE" fill-opacity="0.521569" d="M4291 7270c18,62 -16,220 -66,277 -50,57 -231,196 -421,251 117,-17 283,-98 349,-150 116,-91 154,-143 169,-243 10,-67 7,-120 -15,-138 -4,-3 -15,-14 -16,3z"/>
  <path fill="#2B2A29" fill-opacity="0.741176" d="M2170 7723c-53,25 -101,90 -122,123 -21,33 3,101 3,101 0,0 1,2 3,4 40,-7 438,-86 483,-86 47,0 281,-3 317,-37 36,-32 60,-121 62,-127 -15,-73 -56,-107 -56,-107 0,0 8,-5 21,31 13,36 17,55 17,83 0,29 -9,64 -56,97 -47,34 -259,39 -289,18 -31,-21 -19,-66 -19,-66 0,0 -17,54 -45,69 -28,16 -234,38 -292,3 -106,-64 -9,-109 -27,-106z"/>
  <path fill="#2B2A29" fill-opacity="0.611765" d="M2916 7701l0 0c0,0 333,-37 401,-84 33,-23 97,-67 158,-114 -36,0 -65,0 -121,38 -55,38 -135,52 -197,72 -61,19 -197,18 -217,29 -20,10 -36,3 -45,-2 8,16 16,37 21,61z"/>
  <path fill="#FEFEFE" fill-opacity="0.301961" d="M3487 7152l1 1c26,58 15,164 -117,215 -5,2 -9,3 -13,5 43,-6 96,-18 126,-40 43,-32 72,-88 54,-128 -8,-17 -28,-36 -51,-53z"/>
  <path fill="#2B2A29" fill-opacity="0.701961" d="M3384 8226c-7,-22 -12,-40 -12,-40 0,0 254,90 440,60 186,-30 324,-93 410,-228 83,-130 175,-354 189,-489 -88,293 -109,341 -214,455 -104,113 -359,143 -437,148 -78,5 -296,-48 -341,-80 -45,-33 -189,-172 -247,-202 -58,-30 -144,-4 -144,-4 0,0 -10,17 -4,54 6,36 93,62 93,62 0,0 195,29 211,40 17,10 15,45 18,88 2,43 37,133 38,136z"/>
  <path fill="#2B2A29" fill-opacity="0.800000" d="M1940 8449c53,86 156,197 290,254 154,65 422,133 615,99 192,-34 479,-151 539,-185 60,-34 122,-76 122,-76 0,0 29,-61 20,-129 -9,15 19,-4 -34,47 -53,51 -321,108 -358,104 -36,-3 59,-82 128,-107 69,-25 101,-92 162,-165 -12,-8 -21,-13 -26,-26 -5,-12 -5,-12 -10,-27 -33,30 -93,51 -124,59 -30,8 -310,201 -468,243 -159,41 -251,84 -405,78 -154,-7 -330,-61 -451,-169z"/>
  <path fill="#FEFEFE" fill-opacity="0.301961" d="M4166 7025c-24,11 -43,20 -52,26 -41,28 -40,101 -31,124 0,-19 2,-41 9,-57 11,-22 43,-65 74,-93z"/>
  <path fill="#2B2A29" fill-opacity="0.631373" d="M4409 6999c3,-9 7,-17 12,-25 6,-9 14,-19 21,-28 -32,14 -105,48 -140,72 -45,31 -77,80 -77,80 0,0 109,-76 184,-99z"/>
  <path fill="#2B2A29" fill-opacity="0.521569" d="M4369 7214c-18,-24 -66,-61 -76,-65 -25,1 -68,9 -81,13 -21,7 -60,26 -89,42l3 2c0,0 38,2 77,10 1,-8 -2,-8 7,-18 8,-9 112,-13 159,16z"/>
  <path fill="#FEFEFE" fill-opacity="0.321569" d="M3346 8097c-36,26 -140,100 -196,127 -69,32 -173,78 -173,78 0,0 251,-66 390,-125 -9,-26 -18,-58 -21,-80z"/>
  <path fill="#FEFEFE" fill-opacity="0.321569" d="M3509 8360c-12,-19 -30,-33 -47,-45 -2,29 -10,67 -35,90 -45,41 -70,58 -70,58 0,0 124,-34 152,-103z"/>
 </g>
</svg>
