<?xml version="1.0" encoding="UTF-8"?>
<!DOCTYPE svg PUBLIC "-//W3C//DTD SVG 1.1//EN" "http://www.w3.org/Graphics/SVG/1.1/DTD/svg11.dtd">
<svg xmlns="http://www.w3.org/2000/svg" xml:space="preserve" width="100%" height="100%" version="1.1" shape-rendering="geometricPrecision" text-rendering="geometricPrecision" image-rendering="optimizeQuality" fill-rule="evenodd" clip-rule="evenodd"
viewBox="0 0 8500 11000"
 xmlns:xlink="http://www.w3.org/1999/xlink">
 <g id="Outline">
  <path fill="none" stroke="#8F7D3E" stroke-width="49.9961" stroke-linejoin="round" d="M3952 7302c0,0 -6,-291 -8,-585 -123,64 -231,122 -231,122 0,0 -65,-63 -78,-91 -1,-2 -1,-3 -2,-5 -36,12 -61,19 -69,19 -35,0 -64,-40 -78,-54 -14,-13 -116,-141 -150,-164 -33,-22 -170,-234 -221,-270 -51,-37 -151,-149 -151,-149 0,0 -7,-15 -13,-45 -7,-30 14,-98 14,-98 215,-86 520,-76 520,-52 0,5 5,11 15,19 31,-10 63,-20 95,-30 -18,-48 -80,-210 -116,-272 -41,-73 -75,-109 -82,-143 -6,-34 -15,-60 -15,-60 0,0 -8,-103 91,-150 99,-47 93,-45 148,-46 55,-1 82,28 82,28 9,18 19,72 20,123 0,34 47,180 87,290 98,-20 196,-37 196,-37 0,0 12,7 32,19 31,-9 69,-16 113,-18 84,-5 122,20 139,44 142,-12 307,-19 307,-19 10,-4 53,23 110,65 0,0 132,-34 171,-63 29,-21 85,22 132,47 15,-4 30,-7 45,-10 -12,-9 -19,-14 -19,-14 0,0 44,-118 62,-118 19,0 204,-69 259,-74 55,-5 90,-6 113,1 9,3 29,26 52,57 23,-17 55,-38 81,-47 36,-12 81,-9 127,-7 -3,-57 -9,-148 -25,-191 -23,-67 -23,-73 -23,-73 0,0 4,-74 131,-103 128,-29 217,13 215,78 -1,53 -17,198 -17,264 37,6 72,19 94,65l13 2c1,-16 2,-28 2,-28 0,0 26,-15 86,-24 60,-9 267,-18 267,-18 0,0 1,61 5,203l0 0 0 0c0,3 1,32 3,70 0,10 1,16 1,18 1,2 0,4 -1,6 2,51 3,37 3,64 0,2 0,46 0,48 -28,-5 -202,55 -256,73 -53,18 -82,24 -155,43 -11,132 -57,366 -91,596 -40,275 -66,546 -65,651 -8,1 -333,5 -333,5 0,0 65,-669 107,-1156 -55,13 -95,22 -109,25 -54,10 -187,29 -244,49 -58,21 -336,141 -422,162 -86,21 -563,172 -623,195 -5,3 -16,7 -30,14 -3,258 -14,495 -19,748l-292 1zm-268 -1192c18,15 40,32 64,50 -9,-17 -20,-37 -31,-57l-33 7z"/>
 </g>
 <g id="Pillar4">
  <path fill="#D7B56D" d="M3600 5932c0,0 -79,-212 -121,-285 -41,-73 -75,-109 -82,-143 -6,-34 -15,-60 -15,-60 0,0 -8,-103 91,-150 99,-47 93,-45 148,-46 55,-1 82,28 82,28 9,18 19,72 20,123 0,53 110,369 140,414 30,44 -263,119 -263,119z"/>
  <path fill="#C59B6F" d="M3507 5278c64,-31 66,-30 114,-30 55,-1 82,28 82,28 5,10 10,30 14,54 -31,43 -14,72 -14,106 0,39 33,174 56,196 18,17 57,155 74,219 -28,16 -70,32 -111,45 -33,-85 -102,-268 -97,-286 7,-24 -2,-88 -25,-109 -22,-20 -45,-62 -48,-75 -2,-13 -77,-29 -92,-35 -16,-7 -28,-43 0,-64 11,-8 29,-28 47,-49z"/>
  <path fill="#AF9778" d="M3495 5677c-6,-11 -11,-21 -16,-30 -23,-41 -44,-71 -59,-95 21,22 47,41 75,48 83,24 102,125 96,165 -5,39 -29,-60 -63,-74 -6,-3 -18,-8 -33,-14z"/>
  <path fill="#FFF7B2" fill-opacity="0.368627" d="M3382 5444c-1,-5 -6,-104 91,-150 99,-47 93,-45 148,-46 55,-1 82,28 82,28 0,1 1,1 1,2 -21,96 -177,158 -242,180 -31,10 -59,0 -80,-14z"/>
  <path fill="#FFFBDB" fill-opacity="0.258824" d="M3600 5932c0,0 -45,-120 -85,-211 3,4 7,7 10,9 30,22 90,133 112,192 -22,7 -37,10 -37,10zm-148 -329c-28,-45 -50,-73 -55,-99 -6,-34 -15,-60 -15,-60l0 0c8,6 18,10 28,14 12,18 22,35 22,40 0,12 -1,19 2,44 0,9 8,33 18,61z"/>
  <path fill="#748187" fill-opacity="0.490196" d="M3717 5330c3,19 6,49 6,69 0,53 110,369 140,414 13,18 -29,41 -83,62 -12,-24 -15,-60 -13,-85 2,-46 -37,-150 -46,-171 -9,-21 -27,-73 -19,-92 8,-20 -10,-120 -13,-145 -3,-25 17,-34 28,-52z"/>
 </g>
 <g id="Pillar3">
  <path fill="#D7B56D" d="M5731 5566c0,0 -2,-176 -26,-242 -23,-67 -23,-73 -23,-73 0,0 4,-74 131,-103 128,-29 217,13 215,78 -1,65 -25,270 -15,294 9,25 -282,46 -282,46z"/>
  <path fill="#AF9778" d="M5731 5566c0,0 -2,-140 -19,-217 23,-20 5,-64 5,-64 0,0 3,-64 29,-82 26,-19 67,-19 73,-34 6,-14 5,-13 9,-24 47,-9 88,-8 120,0 -34,19 -92,39 -94,63 -2,24 -94,74 -94,74 0,0 62,100 61,160 0,29 -31,81 -70,122 -12,1 -20,2 -20,2z"/>
  <path fill="#FFF7B2" fill-opacity="0.278431" d="M5683 5254c-1,-3 -1,-3 -1,-3 0,0 4,-74 131,-103 119,-27 204,8 214,65 -49,67 -138,78 -235,83 -45,2 -82,-18 -109,-42z"/>
  <path fill="#FFFBDB" fill-opacity="0.521569" d="M5731 5566c0,0 -2,-176 -26,-242 -4,-14 -8,-25 -11,-34 21,16 51,39 65,55 23,26 23,108 9,151 -4,14 -8,39 -13,68 -14,1 -24,2 -24,2z"/>
  <path fill="#748187" fill-opacity="0.411765" d="M6004 5173c1,1 2,1 2,2 0,-1 -1,-1 -2,-2l0 0zm2 2c1,1 2,1 2,2m1 0c0,1 1,2 1,2 9,10 15,22 17,34 -16,22 -36,38 -59,49 -7,20 -13,37 -15,49 -6,36 -38,168 -37,236 55,-7 100,-17 97,-27 -10,-24 14,-229 15,-294 1,-18 -6,-34 -18,-47 0,0 -1,-1 -1,-2z"/>
 </g>
 <g id="PlankBase1">
  <path fill="#7A683E" d="M3713 6490c0,0 -91,229 -78,258 13,28 78,91 78,91 0,0 520,-276 580,-300 60,-23 537,-174 623,-195 86,-21 364,-141 422,-162 57,-20 190,-39 244,-49 55,-10 563,-135 646,-164 84,-29 228,-78 256,-73 1,-45 -6,-206 -6,-206l-2765 800z"/>
  <path fill="#615442" d="M3688 6554c-26,70 -62,175 -53,194 13,28 78,91 78,91l5 -3c21,-61 52,-159 40,-193 -7,-22 -38,-57 -70,-89z"/>
  <path fill="#615442" fill-opacity="0.670588" d="M3688 6554l-1 3 -1 2 -1 5 -1 0 -3 10 0 0 -2 4 0 2 -2 5 0 0 -2 4 0 2 -2 4 0 1 0 1 -1 3 -1 2 -1 2 -1 3 0 1 -2 6 -1 1 -1 4 -1 3 -1 3c-1,4 -3,8 -4,11l0 1 0 0c-1,4 -3,7 -4,11l0 0c-1,4 -2,7 -3,11l0 0 0 0 -1 4 -1 1 0 1 -2 5 0 0 0 0 -1 5 0 0 -2 5 0 0 0 0 -1 4 0 1 -1 2 0 3 0 0 -1 1 -1 3 0 1 0 2 -1 3 0 0 0 0 -1 4 0 1c-1,2 -1,5 -2,8l0 0c-1,3 -1,5 -2,8l0 0 0 3 0 1 -1 3 0 0 0 3 0 1c0,1 0,2 -1,2l0 1c0,1 0,1 0,2l0 1c0,0 0,1 0,2l0 0 0 0c0,1 0,1 0,2l0 1c0,0 1,1 1,1l0 0 0 0c0,1 0,1 0,2l0 0c0,1 0,1 1,2l0 0 0 0 0 1 0 0 0 0 1 1 0 0 0 0 0 1 0 0 0 0 1 1 0 0 0 0 0 0 0 1 0 0 0 0 0 0 1 0 0 0 0 1 0 0 0 1 0 0 0 0 1 0 0 0 0 0 0 1 0 0 0 0 0 0 0 0 1 1 0 0 0 0 0 0 0 1 0 0 0 0 1 0 0 0 0 0 0 1 0 0 0 0 0 0 1 1 0 0 0 0 0 0 0 0 0 1 0 0 1 0 0 0 0 0 0 1 0 0c22,31 70,77 70,77l5 -3c10,-29 22,-65 31,-99 58,-15 105,-27 124,-34 71,-25 427,-217 488,-267 61,-49 682,-175 731,-260 49,-86 1001,-216 1031,-224 21,-5 232,-61 360,-99 -1,-71 -5,-163 -5,-163l-2765 800c0,0 -11,27 -25,64z"/>
 </g>
 <g id="PlankBase2">
  <path fill="#7A683E" d="M3284 6020c0,0 479,-164 594,-174 115,-11 865,-50 926,-70 61,-21 548,-122 548,-122l8 101c0,0 -2008,425 -2037,431 -28,5 -39,-166 -39,-166z"/>
  <path fill="#615442" d="M3936 6056c-337,72 -602,128 -613,130 0,0 0,0 -1,0l-16 -21c-5,-15 -9,-36 -13,-58l589 -172 54 121z"/>
 </g>
 <g id="Plank7">
  <path fill="#AD8D77" d="M6474 5487c0,0 -214,5 -268,18 -55,12 -86,24 -86,24 0,0 -9,99 -2,114 6,14 169,254 188,250 20,-4 65,-23 81,-28 16,-5 100,-67 95,-87 -5,-20 -8,-291 -8,-291z"/>
  <path fill="#A28370" d="M6353 5492c-45,-2 -78,6 -112,7 2,29 1,13 0,24 -1,23 25,26 42,61 17,35 64,77 64,77 0,0 -12,78 18,117 15,20 33,49 46,73 17,-12 38,-28 53,-43 -29,-28 -62,-62 -59,-72 6,-18 -14,-166 -19,-177 -5,-10 -33,26 -31,-18 1,-44 2,-14 -1,-31 -3,-18 3,-4 -1,-18z"/>
  <path fill="#646C70" fill-opacity="0.411765" d="M6121 5528l-1 1c0,0 -9,99 -2,114 6,14 169,254 188,250 20,-4 65,-23 81,-28 16,-5 100,-67 95,-87 -1,-6 -3,-48 -4,-105 -39,30 -88,70 -97,83 -16,22 -85,62 -85,62 0,0 -39,-18 -39,-40 0,-17 -91,-180 -136,-250z"/>
  <path fill="#646C70" fill-opacity="0.239216" d="M6305 5892c0,1 1,1 1,1 20,-4 65,-23 81,-28 16,-5 100,-67 95,-87 -1,-6 -3,-48 -4,-105 -39,30 -88,70 -97,83 -16,22 -85,62 -85,62l-1 0c2,23 6,49 10,74z"/>
 </g>
 <g id="Plank6">
  <path fill="#AD8D77" d="M6145 5561c0,0 -313,-45 -373,-45 -59,0 -122,-9 -169,6 -47,15 -109,70 -109,70l234 375c0,0 245,0 331,-37 86,-36 216,-83 216,-83 0,0 -47,-70 -34,-99 13,-29 -96,-187 -96,-187z"/>
  <path fill="#A28370" d="M6194 5877c46,-17 81,-30 81,-30 0,0 -47,-70 -34,-99 7,-15 -21,-68 -48,-113 0,13 1,29 4,41 6,28 -5,13 -12,23 -7,9 -27,60 -25,82 2,22 34,64 34,95 0,1 0,1 0,1z"/>
  <path fill="#646C70" fill-opacity="0.701961" d="M5704 5926l24 39c0,0 245,4 331,-33 86,-36 216,-83 216,-83 0,0 -41,-88 -34,-103 7,-15 1,-3 1,-5 -134,63 -377,172 -467,165 -24,-2 -48,6 -71,20z"/>
  <path fill="#646C70" fill-opacity="0.368627" d="M6145 5561c0,0 -126,-18 -233,-31 64,55 159,120 247,118 13,-1 26,-3 38,-5 -25,-43 -52,-82 -52,-82z"/>
 </g>
 <g id="Plank5">
  <path fill="#A28370" d="M5036 5703c0,0 72,50 125,113 54,64 184,275 184,275 0,0 164,-60 227,-55 62,5 214,-47 214,-47l-16 -122c0,0 -117,-76 -141,-131 -23,-54 -135,-216 -159,-224 -23,-7 -58,-6 -113,-1 -55,5 -240,74 -259,74 -18,0 -62,118 -62,118z"/>
  <path fill="#947649" d="M5332 6070c9,13 13,21 13,21 0,0 164,-60 227,-55 13,1 29,0 46,-3 -7,-31 -14,-62 -16,-73 -4,-22 -33,-76 -33,-76 0,0 19,-27 21,-58 3,-31 -26,-148 -38,-169 -11,-21 -88,-29 -104,-78 -6,-21 -17,-48 -30,-72 -13,0 -28,1 -45,3 5,10 8,19 6,23 -6,22 -39,67 -27,121 12,55 60,112 60,112 0,0 -33,41 -24,58 9,17 30,119 30,119 0,0 -54,51 -79,109 -3,6 -5,12 -7,18z"/>
  <path fill="#947649" d="M5192 5557c-46,15 -86,28 -94,28 -12,0 -35,51 -50,86 28,19 57,40 66,51 19,24 76,86 76,86 0,0 -5,-82 -18,-100 -13,-18 -28,-34 -30,-48 -1,-15 5,-28 5,-28 0,0 38,-8 46,-32 5,-15 1,-26 -1,-43z"/>
  <path fill="#646C70" fill-opacity="0.411765" d="M5036 5703c0,0 72,50 125,113 54,64 184,275 184,275 0,0 164,-60 227,-55 62,5 214,-47 214,-47l-15 -111c-76,-2 -178,-3 -213,9 -60,21 -203,66 -203,66 0,0 -120,-227 -146,-258 -15,-18 -66,-65 -109,-111 -1,1 -1,1 -2,1 -18,0 -62,118 -62,118z"/>
  <path fill="#646C70" fill-opacity="0.239216" d="M5310 6034c21,33 35,57 35,57 0,0 164,-60 227,-55 62,5 214,-47 214,-47l-15 -111c-76,-2 -178,-3 -213,9 -60,21 -203,66 -203,66 0,0 -6,-11 -15,-28 -10,33 -20,70 -30,109z"/>
 </g>
 <g id="Plank4">
  <path fill="#AD8D77" d="M5373 6074c0,0 -99,-13 -143,0 -44,13 -194,31 -194,31l-329 -362c0,0 132,-34 171,-63 39,-28 125,58 177,63 52,5 167,36 235,65 67,29 114,64 114,64 0,0 -25,44 -22,69 2,25 -9,133 -9,133z"/>
  <path fill="#A28370" d="M5280 6068c-21,0 -35,1 -50,6 -15,4 -43,9 -73,14 6,-24 8,-38 0,-50 -8,-12 5,-8 -19,-35 -25,-28 -13,-54 -13,-54 0,0 -60,-46 -99,-65 -39,-20 -45,-50 -31,-53 14,-2 -26,-32 3,-22 28,11 110,26 130,33 20,6 70,53 103,59 32,5 33,26 33,26 0,0 11,15 16,32 6,17 1,33 -2,50 -3,16 1,43 2,59z"/>
  <path fill="#A28370" d="M4864 5689c6,-3 10,-6 14,-9 39,-28 125,58 177,63 8,1 17,2 27,4 -49,1 -103,0 -118,-8 -29,-16 -81,-3 -85,-17 -1,-5 -7,-18 -15,-33z"/>
  <path fill="#646C70" fill-opacity="0.411765" d="M5373 6074c0,0 -99,-13 -143,0 -44,13 -194,31 -194,31l-312 -343c31,3 62,8 80,14 44,14 268,184 268,184 0,0 116,-27 164,-28 31,-1 112,-33 165,-55 -6,13 -21,44 -19,64 2,25 -9,133 -9,133z"/>
  <path fill="#646C70" fill-opacity="0.239216" d="M5373 6074c0,0 -99,-13 -143,0 -36,10 -143,24 -181,29 7,-53 17,-103 25,-143 17,-4 118,-27 162,-28 31,-1 112,-33 165,-55 -6,13 -21,44 -19,64 2,25 -9,133 -9,133z"/>
 </g>
 <g id="Plank3">
  <path fill="#AD8D77" d="M4597 5678c0,0 -482,21 -508,49 -26,29 610,594 628,594 18,0 354,-125 354,-125 0,0 13,-88 -5,-138 -19,-49 -435,-393 -469,-380z"/>
  <path fill="#A28370" d="M4597 5678c0,0 -144,6 -279,16 26,37 53,68 68,70 39,5 109,-13 109,-13 0,0 8,83 45,114 36,32 135,102 229,97 94,-6 83,70 68,109 -16,39 13,87 13,87 0,0 8,62 8,116 35,-13 73,-26 106,-39 9,-24 16,-52 13,-68 -5,-33 -2,-71 -2,-71 0,0 -58,-59 -71,-74 -13,-16 -44,-39 -8,-52 10,-4 21,-23 29,-52 -130,-112 -307,-248 -328,-240z"/>
  <path fill="#947649" d="M4597 5678c0,0 -37,1 -90,4 29,23 95,47 73,88 -22,41 214,134 250,150 52,22 17,-10 -1,-47 -18,-36 -125,-65 -125,-65 0,0 -45,-52 -72,-116 -18,-11 -30,-16 -35,-14z"/>
  <path fill="#646C70" fill-opacity="0.568627" d="M4095 5724c-3,1 -5,2 -6,3 -26,29 610,594 628,594 18,0 354,-125 354,-125 0,0 13,-88 -5,-138 -1,-2 -3,-5 -6,-9 -74,42 -248,138 -315,143 -70,5 -504,-314 -650,-468z"/>
 </g>
 <g id="Plank2">
  <path fill="#A28370" d="M3587 5878c0,0 158,263 190,342 31,78 130,294 130,294 0,0 557,-128 612,-159 55,-31 211,-76 211,-76l-5 -67c0,0 -21,-55 -63,-68 -42,-13 -276,-242 -315,-276 -39,-34 -341,-216 -341,-216 0,0 -388,70 -393,86 -6,15 -10,168 -26,140z"/>
  <path fill="#947649" d="M3587 5878c0,0 158,263 190,342 9,23 24,57 41,95 14,-5 23,-10 24,-15 11,-44 70,-97 70,-97 0,0 3,-23 0,-72 -3,-49 -86,-172 -120,-250 -17,-41 -4,-122 13,-191 -96,19 -190,40 -192,48 -6,15 -10,168 -26,140z"/>
  <path fill="#947649" d="M4538 6345c65,-30 192,-66 192,-66l-5 -67c0,0 -21,-55 -63,-68 -42,-13 -276,-242 -315,-276 -18,-15 -88,-60 -161,-105 64,77 145,152 184,178 84,55 71,161 71,161 0,0 -37,-18 -37,21 0,39 51,105 51,105 0,0 38,18 56,46 6,10 16,39 27,71z"/>
  <path fill="#646C70" fill-opacity="0.411765" d="M3587 5878c0,0 158,263 190,342 31,78 130,294 130,294 0,0 557,-128 612,-159 55,-31 211,-76 211,-76l-5 -67c0,0 -19,-49 -56,-66 -81,33 -212,85 -267,97 -84,18 -404,60 -404,60 0,0 -286,-331 -318,-391 -18,-36 -49,-106 -69,-167 -5,33 -10,158 -24,133z"/>
  <path fill="#646C70" fill-opacity="0.239216" d="M4105 6467c166,-39 381,-93 414,-112 55,-31 211,-76 211,-76l-5 -67c0,0 -19,-49 -56,-66 -81,33 -212,85 -267,97 -51,11 -188,31 -288,44 -8,31 -13,64 -15,101 -1,26 1,53 6,79z"/>
  <path fill="#646C70" fill-opacity="0.290196" d="M4227 5788c-99,-63 -221,-136 -221,-136 0,0 -146,26 -260,50 27,15 60,32 85,40 32,10 230,30 396,46z"/>
 </g>
 <g id="Plank1">
  <path fill="#AD8D77" d="M2965 5982c0,0 -21,68 -14,98 6,30 13,45 13,45 0,0 100,112 151,149 51,36 188,248 221,270 34,23 136,151 150,164 14,14 43,54 78,54 35,0 504,-171 504,-171 0,0 3,-83 -13,-159 -15,-75 -390,-317 -422,-372 -31,-55 -148,-107 -148,-130 0,-24 -305,-34 -520,52z"/>
  <path fill="#A28370" d="M2955 6095c5,20 9,30 9,30 0,0 100,112 151,149 51,36 188,248 221,270 34,23 136,151 150,164 14,14 43,54 78,54 9,0 47,-12 99,-28 -13,-28 -26,-50 -39,-59 -43,-30 -87,-13 -87,-13 0,0 -142,-101 -160,-155 -18,-55 -129,-216 -168,-240 -39,-23 -25,-1 -25,-1 0,0 -129,-103 -152,-151 -10,-20 -42,-23 -77,-20z"/>
  <path fill="#A28370" d="M3751 6704c47,-16 97,-34 143,-50 -12,-65 -18,-220 -18,-220 0,0 -17,-60 -79,-75 -61,-16 -168,-99 -190,-152 -22,-54 -9,-109 -27,-106 -18,3 -138,-26 -162,-70 -23,-45 -114,-95 -106,-81 8,14 88,167 66,221 -22,55 96,134 119,164 24,29 40,-31 45,-40 5,-8 -1,96 33,106 34,11 117,97 117,97 0,0 -21,78 10,138 13,23 31,47 49,68z"/>
  <path fill="#646C70" fill-opacity="0.411765" d="M2965 5982c0,0 -21,68 -14,98 6,30 13,45 13,45 0,0 100,112 151,149 51,36 188,248 221,270 34,23 136,151 150,164 14,14 43,54 78,54 35,0 504,-171 504,-171 1,-41 -2,-125 -14,-162 -94,-11 -170,-2 -241,19 -96,28 -185,78 -303,128 0,0 -222,-286 -269,-356 -32,-49 -184,-170 -273,-239l-3 1z"/>
  <path fill="#646C70" fill-opacity="0.239216" d="M3554 6761c4,1 7,1 10,1 35,0 504,-171 504,-171 1,-41 -2,-125 -14,-162 -94,-11 -170,-2 -241,19 -96,28 -185,78 -303,128l-4 -4c14,65 33,136 48,189z"/>
 </g>
 <g id="Pillar2">
  <path fill="#D7B56D" d="M5584 7264c0,0 149,-1526 141,-1648 -7,-123 183,-139 245,-132 63,8 126,10 150,114 0,117 -31,123 -46,390 -6,125 -56,375 -92,620 -40,275 -66,546 -65,651 -8,1 -333,5 -333,5z"/>
  <path fill="#C59B6F" d="M5924 7116c-5,61 -7,110 -7,143 -4,0 -98,2 -185,3 18,-55 40,-122 53,-178 29,-116 -15,-265 -16,-401 -2,-137 62,-366 104,-472 41,-105 -15,-353 5,-410 19,-57 65,-120 65,-120 0,0 3,-12 -14,-44 -17,-33 -59,-22 -90,-66 -14,-20 -18,-45 -19,-68 25,-9 53,-15 78,-18 16,29 47,64 70,78 33,19 56,105 56,105 0,0 -9,31 -11,63 -1,33 12,141 -12,235 -24,94 21,7 16,60 -5,53 -9,149 -58,232 -50,83 -24,211 -24,302 0,91 -47,310 -57,404 -4,38 18,96 46,152z"/>
  <path fill="#AF9778" d="M5681 6223c26,-300 47,-560 44,-607 -1,-32 10,-57 29,-76 13,12 24,25 30,36 20,39 15,84 15,84 0,0 -44,78 -57,153 -13,76 26,177 13,217 -5,15 -35,96 -74,193z"/>
  <path fill="#AF9778" d="M5595 7144c13,-129 33,-345 55,-576 22,-52 44,-106 55,-148 32,-112 60,-191 55,-138 -5,53 35,16 12,99 -24,83 -77,422 -59,484 18,63 -5,196 -44,235 -12,12 -40,27 -74,44z"/>
  <path fill="#FFF7B2" fill-opacity="0.278431" d="M5727 5591c18,-100 185,-114 243,-107 60,8 121,10 147,101 -24,57 -43,64 -108,86 -65,22 -181,4 -229,-19 -48,-22 -53,-33 -53,-61z"/>
  <path fill="#748187" fill-opacity="0.411765" d="M6047 5499c32,13 59,39 73,99 0,117 -31,123 -46,390 -6,125 -56,375 -92,620 -40,275 -66,546 -65,651 -3,0 -57,1 -120,2 58,-272 164,-847 160,-870 -5,-32 86,-579 86,-610 0,-11 0,-61 1,-122 38,-15 54,-29 73,-74 -15,-51 -40,-74 -70,-86l0 0z"/>
  <path fill="#FFFBDB" fill-opacity="0.490196" d="M5584 7264c0,0 50,-511 92,-998 11,-5 18,-4 25,-1 7,3 14,22 20,26 -6,134 6,97 0,144 -6,47 -56,600 -100,828l-37 1zm128 -1405c10,-133 16,-198 13,-243 -2,-46 46,-99 103,-117l0 0c-49,16 -92,44 -101,92 0,28 10,39 33,51 23,13 19,9 31,15 10,17 -11,161 -30,215 -18,4 -25,3 -30,0 -5,-2 -14,-8 -19,-13z"/>
  <path fill="#748187" fill-opacity="0.231373" d="M5678 6216c6,-65 26,-266 31,-322 26,11 60,30 63,44 1,7 7,72 0,136 -7,62 -27,122 -40,130 -25,16 -46,10 -54,12z"/>
 </g>
 <g id="Pillar1">
  <path fill="#D7B56D" d="M3952 7302c0,0 -18,-908 -2,-1138 14,-205 -13,-362 -15,-382 -6,-65 63,-120 216,-129 154,-9 154,83 154,83 -14,185 -46,338 -42,556 6,366 -13,673 -19,1009l-292 1z"/>
  <path fill="#C59B6F" d="M4165 5652c74,-1 109,22 125,44 -16,11 -38,30 -42,54 -7,36 -59,72 -59,72 0,0 4,18 26,100 22,82 -12,302 -21,331 -9,29 -47,138 -71,253 -25,114 -55,-76 -55,-102 0,-26 -52,63 -35,20 17,-43 26,-292 14,-357 -12,-65 -41,-33 -43,-238 58,-101 51,-64 108,-99 27,-17 43,-48 53,-78z"/>
  <path fill="#AF9778" d="M4263 6614c-3,167 -9,326 -14,488 -46,-125 -47,-258 -32,-371 6,-50 25,-89 46,-117z"/>
  <path fill="#AF9778" d="M3952 7302c0,0 -9,-467 -8,-816 42,45 86,104 98,161 24,115 26,261 44,274 19,13 24,-71 24,-71 0,0 64,257 80,451l-238 1z"/>
  <path fill="#FFF7B2" fill-opacity="0.278431" d="M3935 5779c-4,-64 64,-117 216,-126 153,-9 154,83 154,83l-12 24c-23,44 -92,70 -203,76 -111,7 -134,-23 -155,-57z"/>
  <path fill="#748187" fill-opacity="0.411765" d="M4242 5663c60,21 63,68 63,73 0,-5 -3,-51 -63,-73l0 0zm63 73c-14,185 -46,338 -42,556 6,366 -13,673 -19,1009l-84 1c1,-154 25,-447 23,-477 -3,-39 44,-487 49,-524 5,-36 11,-354 5,-401 -1,-13 -1,-49 0,-93 27,-12 46,-28 56,-47l12 -24z"/>
  <path fill="#FFFBDB" fill-opacity="0.521569" d="M3952 7302c0,0 -6,-165 -9,-451 12,-5 24,-4 31,-2 7,2 16,18 29,40 4,141 10,147 3,175 -7,29 4,159 -31,238l-23 0zm-8 -904c0,-115 2,-177 6,-234 14,-205 -13,-362 -15,-382 0,-4 0,-8 0,-12 0,3 0,6 0,9 13,21 27,41 64,51 -3,72 -6,139 -10,164 -9,60 -5,368 -2,383 3,15 1,-4 3,31 -14,5 -28,5 -33,3 -6,-2 -7,-8 -13,-13z"/>
  <path fill="#748187" fill-opacity="0.329412" d="M3943 6780c0,-58 0,-284 1,-337 10,-2 32,30 48,37 15,6 24,32 26,57 3,25 7,179 -18,205 -19,19 -44,33 -57,38z"/>
 </g>
</svg>
