<?xml version="1.0" encoding="UTF-8"?>
<!DOCTYPE svg PUBLIC "-//W3C//DTD SVG 1.1//EN" "http://www.w3.org/Graphics/SVG/1.1/DTD/svg11.dtd">
<svg xmlns="http://www.w3.org/2000/svg" xml:space="preserve" width="2550px" height="3300px" version="1.1" style="shape-rendering:geometricPrecision; text-rendering:geometricPrecision; image-rendering:optimizeQuality; fill-rule:evenodd; clip-rule:evenodd"
viewBox="0 0 2550 3300"
 xmlns:xlink="http://www.w3.org/1999/xlink">
 <defs>
  <style type="text/css">
   <![CDATA[
    .str0 {stroke:#7B6D6C;stroke-width:12.4996}
    .fil6 {fill:#E6D2BF}
    .fil7 {fill:#EBD9C5}
    .fil8 {fill:#F0E6DD}
    .fil9 {fill:#F0F0F0}
    .fil5 {fill:#D1A5A1}
    .fil3 {fill:#BD8F8B}
    .fil10 {fill:#A57E69}
    .fil0 {fill:#CFB59F}
    .fil4 {fill:#AD6461}
    .fil1 {fill:#BC9986}
    .fil2 {fill:#DEC5B1}
    .fil12 {fill:#D07688;fill-rule:nonzero}
    .fil15 {fill:#C56679;fill-rule:nonzero}
    .fil16 {fill:#B36474;fill-rule:nonzero}
    .fil18 {fill:#AE717E;fill-rule:nonzero}
    .fil17 {fill:#AB9C61;fill-rule:nonzero}
    .fil14 {fill:#B5AA7E;fill-rule:nonzero}
    .fil13 {fill:#BFB385;fill-rule:nonzero}
    .fil11 {fill:#D1C7A1;fill-rule:nonzero}
   ]]>
  </style>
 </defs>
 <g id="Surfboard">
  <path class="fil0 str0" d="M1484 1544c61,93 102,176 130,250 38,102 51,184 55,244 2,27 1,49 1,66 -1,80 -45,80 -73,87 -28,7 -80,25 -160,-37 -80,-62 -261,-218 -371,-515 -8,-22 -39,-134 -46,-244 -6,-103 39,-210 56,-220 12,0 49,18 94,48 40,27 87,64 129,103 96,90 171,196 185,218z"/>
  <path class="fil1" d="M1042 1390c19,-44 15,-140 55,-158 44,7 176,110 211,145 34,35 186,243 215,294 28,51 107,282 106,303 -1,21 21,135 0,148 -22,12 -68,28 -126,3 -57,-25 -207,-162 -216,-180 -5,-10 -43,-44 -84,-84 6,13 -28,-18 -24,-4 1,5 36,55 39,59 60,106 157,176 212,224 63,54 139,58 167,51 28,-7 72,-7 73,-87 0,-56 -3,-170 -67,-328 -27,-69 -67,-146 -122,-231 -14,-21 -78,-119 -174,-209 -88,-83 -209,-157 -231,-159 -18,13 -37,119 -34,213z"/>
  <path class="fil2" d="M1171 1782c71,44 146,117 173,155 27,38 110,114 156,104 47,-11 25,-222 -13,-334 -38,-112 -231,-330 -265,-358 -35,-27 -83,-53 -108,-49 -46,7 -71,185 -71,186 7,109 29,121 37,143 23,66 35,100 91,153z"/>
  <path class="fil3" d="M1121 1539c10,-13 31,-29 41,-34 9,-4 22,-8 31,-2 8,5 -11,78 -13,99 -2,22 1,72 3,85 1,13 -4,15 -19,13 -14,-3 -55,-38 -59,-73 -4,-36 2,-69 16,-88zm61 306l22 -24c0,0 -4,-11 -3,-20 1,-9 5,-16 5,-16 0,0 11,18 14,18 3,0 1,-12 7,-24 6,-13 21,-11 26,-8 13,12 9,37 15,38 17,-34 9,-33 25,7 36,-8 29,-14 19,25 46,-8 11,-1 8,21 17,12 41,-11 20,17 -19,25 43,12 0,28 -17,7 -2,16 10,32 -29,2 -26,0 -18,29 -29,-15 -25,-12 -37,19 -64,-70 -73,-77 -113,-142zm346 93c-8,11 -28,26 -36,30 -8,4 -20,7 -27,2 -8,-5 10,-70 12,-89 2,-19 0,-64 -1,-75 -2,-12 3,-14 16,-11 13,2 49,34 52,65 3,32 -3,61 -16,78zm-116 -459l-20 -25 -6 19 -27 -25 -4 37 -24 -13 7 41 -29 -9 46 58c0,0 7,27 31,34 23,8 27,14 27,14 0,0 -1,28 11,29 7,0 30,2 30,-8 -1,-9 -3,-20 -3,-20 0,0 38,-1 38,-10 1,-9 -56,-114 -77,-122zm-124 -106c5,9 11,26 12,32 1,7 1,17 -3,21 -4,4 -41,-20 -52,-25 -12,-5 -39,-12 -46,-13 -7,-1 -8,-5 -5,-14 4,-9 28,-30 48,-26 20,4 37,13 46,25z"/>
  <path class="fil4" d="M1379 1466c34,45 73,99 102,141 5,-1 8,-3 8,-6 1,-9 -56,-114 -77,-122l-20 -25 -6 19 -7 -7zm-75 498c-10,-9 -14,-13 -17,-19 -3,-7 -67,-77 -73,-75 -2,1 -22,-14 -18,-5 10,18 56,71 70,90 8,9 18,20 29,32 4,-11 6,-18 9,-23z"/>
  <path class="fil5" d="M1121 1539c10,-13 31,-29 41,-34 9,-4 22,-8 31,-2 8,5 -11,78 -13,99 -2,22 1,72 3,85 1,13 -4,15 -19,13 -14,-3 -55,-38 -59,-73 -4,-36 2,-69 16,-88zm223 398c1,1 1,2 2,2 1,0 3,0 4,0 -12,-16 -27,-25 -10,-32 43,-16 -19,-3 0,-28 21,-28 -3,-5 -20,-17 3,-22 38,-29 -8,-21 10,-39 17,-33 -19,-25 -16,-40 -8,-41 -25,-7 -6,-1 -2,-26 -15,-38 -5,-3 -20,-5 -26,8 -6,12 -4,24 -7,24 -3,0 -14,-18 -14,-18 0,0 -4,7 -5,16 21,31 103,79 143,136zm182 4c0,-41 -6,-89 -14,-135 -8,-6 -15,-10 -20,-11 -13,-3 -18,-1 -16,11 1,11 3,56 1,75 -2,19 -20,84 -12,89 7,5 19,2 27,-2 8,-4 25,-16 34,-27zm-74 -305c-32,-52 -76,-111 -118,-163l-3 -1 7 41 -29 -9 46 58c0,0 7,27 31,34 23,8 27,14 27,14 0,0 -1,28 11,29 6,0 21,2 28,-3zm-158 -210c-32,-37 -59,-65 -71,-75 -14,5 -26,17 -29,23 -3,9 -2,13 5,14 7,1 34,8 46,13 10,4 39,24 49,25z"/>
  <path class="fil6" d="M1039 1332c7,-33 15,-65 20,-82 4,-14 8,-39 11,-46 4,-10 6,-17 8,-22 1,-2 -1,-4 -2,-5 -10,7 -24,37 -34,77 -4,14 -11,44 -13,62 -1,10 6,9 10,16z"/>
  <path class="fil6" d="M1072 1181c7,1 10,1 16,4 6,3 51,30 70,42 19,12 52,40 85,55 -30,-30 -83,-64 -123,-85 -7,-5 -30,-19 -42,-20 -4,-1 -4,2 -6,4z"/>
  <path class="fil7" d="M1045 1260c-6,67 -7,136 -3,172 4,36 12,109 18,127 6,18 9,45 13,64 3,15 1,22 7,32 -9,-18 -21,-48 -32,-110 -3,-17 -11,-38 -21,-149 -2,-22 -3,-44 0,-65 4,-25 12,-49 18,-71z"/>
  <path class="fil8" d="M1044 1246c-4,15 -10,48 -12,54 -2,6 -2,30 1,32 2,1 24,-92 27,-106 3,-13 13,-47 13,-47 0,0 -20,31 -29,67z"/>
  <path class="fil9" d="M1062 1203c-2,14 -4,29 -6,33 -2,5 -11,59 -14,61 -2,3 -2,2 -3,3 4,-39 10,-74 23,-97z"/>
  <path class="fil10" d="M1481 2146c2,-4 90,21 111,14 20,-6 90,-8 58,-155 -32,-146 -79,-304 -102,-340 -13,-20 -67,-95 -88,-150 10,14 17,25 21,30 183,280 188,483 188,558 -1,74 -33,79 -60,84 -25,0 -47,-2 -67,-6 -20,-5 -65,-30 -61,-35z"/>
  <path class="fil11" d="M1106 1196c19,58 48,131 73,172 40,66 188,314 192,321l0 0 74 128 83 144c19,34 70,116 115,184 -5,10 -14,13 -23,17 -46,-67 -94,-142 -117,-182l-85 -149 -75 -125 0 0c-1,-1 -149,-249 -192,-320 -28,-46 -57,-126 -78,-186 3,-5 3,-15 6,-16 5,0 13,6 27,12z"/>
  <path class="fil12" d="M1113 1200c8,25 17,46 28,74 14,35 29,69 43,91 13,22 39,65 68,113 48,80 104,174 120,200l0 0 78 136 0 0 83 144c12,21 41,66 72,113 19,28 25,41 42,66 -3,6 -5,10 -9,15 -18,-26 -27,-41 -47,-71 -31,-48 -60,-93 -73,-115l-83 -144 0 0 -73 -127 0 -1c-3,-5 -69,-115 -124,-208 -29,-47 -55,-90 -68,-112 -14,-23 -30,-58 -44,-94 -14,-34 -21,-61 -31,-89 6,3 10,5 18,9zm498 965c-6,-10 -7,-11 -14,-21 -43,-63 -84,-124 -104,-159l-85 -149 -75 -125 0 0c-3,-5 -67,-113 -123,-205 -28,-47 -54,-91 -69,-115 -14,-24 -31,-60 -46,-98 -14,-33 -17,-47 -27,-75 3,-9 5,-17 7,-21 10,29 20,52 35,90 15,37 31,72 45,95 15,24 41,67 70,115 57,95 122,205 123,206l0 0c55,92 107,181 159,274 20,34 61,95 103,157 8,11 11,15 18,25 -6,3 -12,4 -17,6z"/>
  <path class="fil13" d="M1106 1196c19,58 48,131 73,172 40,66 188,314 192,321l0 0 74 128 83 144c19,34 70,116 115,184 -5,10 -14,13 -23,17 -46,-67 -94,-142 -117,-182l-85 -149 -75 -125 0 0c-1,-1 -149,-249 -192,-320 -28,-46 -57,-126 -78,-186 3,-5 3,-15 6,-16 5,0 13,6 27,12z"/>
  <path class="fil14" d="M1106 1196c4,14 10,29 16,45 -10,-5 -19,-8 -25,-9 -4,2 -7,4 -11,7 -4,-13 -9,-26 -13,-39 3,-5 3,-15 6,-16 5,0 13,6 27,12zm522 926c5,8 10,15 15,23 -5,10 -14,13 -23,17 -6,-9 -13,-19 -19,-29 11,-3 20,-7 27,-11z"/>
  <path class="fil15" d="M1113 1200c8,25 17,46 28,74 14,35 29,69 43,91 13,22 39,65 68,113 48,80 104,174 120,200l0 0 78 136 0 0 83 144c12,21 41,66 72,113 19,28 25,41 42,66 -3,6 -5,10 -9,15 -18,-26 -27,-41 -47,-71 -31,-48 -60,-93 -73,-115l-83 -144 0 0 -73 -127 0 -1c-3,-5 -69,-115 -124,-208 -29,-47 -55,-90 -68,-112 -14,-23 -30,-58 -44,-94 -14,-34 -21,-61 -31,-89 6,3 10,5 18,9zm498 965c-6,-10 -7,-11 -14,-21 -15,-22 -30,-44 -44,-65 -25,-38 -47,-71 -60,-94l-85 -149 -75 -125 0 0c-3,-5 -67,-113 -123,-205 -28,-47 -54,-91 -69,-115 -14,-24 -31,-60 -46,-98 -14,-33 -17,-47 -27,-75 3,-9 5,-17 7,-21 10,29 20,52 35,90 15,37 31,72 45,95 15,24 41,67 70,115 57,95 122,205 123,206l0 0c55,92 107,181 159,274 20,34 61,95 103,157 8,11 11,15 18,25 -6,3 -12,4 -17,6z"/>
  <path class="fil16" d="M1113 1200c5,16 11,30 17,45 -7,-4 -14,-7 -20,-9 -5,-16 -10,-30 -15,-45 6,3 10,5 18,9zm520 916c4,6 9,13 14,21 -3,6 -5,10 -9,15 -7,-10 -12,-18 -17,-26 3,-2 5,-3 8,-4 2,-2 3,-4 4,-6zm-554 -867c3,-5 6,-9 11,-13 -6,-13 -11,-25 -15,-39 -2,4 -4,12 -7,21 5,12 8,21 11,31zm529 882c-5,2 -11,3 -17,5l6 8c7,10 8,11 14,21 5,-2 11,-3 17,-6 -7,-10 -10,-14 -18,-25l-2 -3z"/>
  <path class="fil17" d="M1615 2154c8,-3 16,-8 24,-16 1,2 3,5 4,7 -5,10 -14,13 -23,17 -2,-2 -3,-5 -5,-8z"/>
  <path class="fil18" d="M1606 2157c5,-2 10,-4 16,-6l6 8c-6,3 -12,4 -17,6 -2,-4 -4,-6 -5,-8zm27 -13c3,-4 7,-8 11,-13 1,2 2,4 3,6 -3,6 -5,10 -9,15 -2,-3 -4,-6 -5,-8z"/>
  <path class="fil11" d="M1148 1306c10,24 21,46 31,62 40,66 188,314 192,321l0 0 74 128 81 142c0,20 -2,38 -5,52 -7,-12 -13,-22 -18,-31l-85 -149 -75 -125 0 0c-1,-1 -149,-249 -192,-320 -14,-23 -28,-53 -41,-85 1,0 2,-1 4,-1 9,-1 21,1 34,6z"/>
  <path class="fil12" d="M1156 1309c9,22 19,42 28,56 13,22 39,65 68,113 48,80 104,174 120,200l0 0 78 136 0 0 77 133c0,11 -1,22 -1,32 -3,-5 -6,-9 -8,-13l-83 -144 0 0 -73 -127 0 -1c-3,-5 -69,-115 -124,-208 -29,-47 -55,-90 -68,-112 -12,-18 -24,-44 -35,-72 6,2 14,4 21,7zm361 715c2,-6 4,-13 6,-22 -6,-9 -11,-18 -16,-25 -52,-93 -104,-182 -159,-274l0 0c-1,-1 -66,-111 -123,-206 -29,-48 -55,-91 -70,-115 -12,-20 -26,-50 -39,-82 -1,0 -2,0 -2,0 -5,1 -9,3 -13,7 13,33 27,63 40,84 15,24 41,68 69,115 56,92 120,200 123,205l0 0 75 125 85 149c6,11 14,24 24,39z"/>
 </g>
</svg>
