<?xml version="1.0" encoding="UTF-8" standalone="no"?>
<svg
   xmlns:dc="http://purl.org/dc/elements/1.1/"
   xmlns:cc="http://creativecommons.org/ns#"
   xmlns:rdf="http://www.w3.org/1999/02/22-rdf-syntax-ns#"
   xmlns:svg="http://www.w3.org/2000/svg"
   xmlns="http://www.w3.org/2000/svg"
   version="1.1"
   id="svg2"
   height="1092.2667"
   width="1092.2667">
  <title
     id="title3626">Snail</title>
  <defs
     id="defs4" />
  <metadata
     id="metadata7">
    <rdf:RDF>
      <cc:Work
         rdf:about="">
        <dc:format>image/svg+xml</dc:format>
        <dc:type
           rdf:resource="http://purl.org/dc/dcmitype/StillImage" />
        <dc:title>Snail</dc:title>
        <dc:creator>
          <cc:Agent>
            <dc:title>Carlos Vives B.</dc:title>
          </cc:Agent>
        </dc:creator>
        <cc:license
           rdf:resource="http://creativecommons.org/licenses/by/4.0/" />
      </cc:Work>
      <cc:License
         rdf:about="http://creativecommons.org/licenses/by/4.0/">
        <cc:permits
           rdf:resource="http://creativecommons.org/ns#Reproduction" />
        <cc:permits
           rdf:resource="http://creativecommons.org/ns#Distribution" />
        <cc:requires
           rdf:resource="http://creativecommons.org/ns#Notice" />
        <cc:requires
           rdf:resource="http://creativecommons.org/ns#Attribution" />
        <cc:permits
           rdf:resource="http://creativecommons.org/ns#DerivativeWorks" />
      </cc:License>
    </rdf:RDF>
  </metadata>
  <g
     id="layer1"
     transform="translate(-233.88998,424.20763)">
    <g
       transform="matrix(7.6637946,0,0,7.6637946,-1541.3668,-4442.6343)"
       id="g4266">
      <path
         id="path2872"
         d="m 348.68494,610.36134 c 0.68085,-1.90285 2.06189,-5.15207 3.22288,-7.11368 1.16099,-1.96161 3.92812,-4.37345 4.11906,-6.32635 0.19093,-1.95289 -0.24729,-1.77007 0.38586,-3.34364 0.63314,-1.57355 1.15185,0.49032 3.50777,2.38646 2.17634,1.7516 5.16694,2.49166 4.01327,3.64553 -1.15367,1.15388 -2.81784,0.464 -3.99348,1.57098 -1.17563,1.10699 -2.18492,3.7959 -3.67212,6.07018 -1.4872,2.27427 -3.08976,5.71517 -0.86884,7.51509 0.94529,0.7661 2.18756,2.52244 2.54891,4.27483 0.36134,1.75238 3.9384,34.76008 -8.20594,44.39583 -9.31075,7.38747 -27.81348,1.70595 -38.52456,3.06043 -4.93041,0.62349 -9.20184,-0.7081 -13.788,-0.38255 -2.31278,0.16418 -4.53123,1.28048 -6.85564,1.27519 -2.28453,-0.005 -4.44789,-1.25697 -6.73228,-1.28397 -2.09017,-0.0246 -4.09681,0.95961 -6.18598,1.02893 -3.67459,0.12192 -7.30594,-0.87175 -10.97639,-1.08453 -3.94289,-0.22858 -7.80678,0.49844 -11.84675,-0.20528 -5.87937,-1.02413 -14.87927,-7.88896 -12.76113,-9.2232 2.11814,-1.33424 13.10665,6.07419 17.42564,0.90207 6.78636,-8.12688 20.95048,-8.82667 32.08699,-9.57152 10.82074,-0.72373 21.97328,8.83657 32.138,5.06539 6.15648,-2.28411 10.69842,-8.77627 12.71813,-15.00819 2.44594,-7.54709 -3.58285,-15.99068 -1.82275,-23.72435 0.37835,-1.6624 1.008,-3.2797 2.56019,-4.42787 2.34863,-1.73731 2.12485,-5.2005 2.93829,-8.31284 1.03516,-3.96069 4.57256,-7.20779 4.39989,-8.4373 -0.17269,-1.22951 -0.92031,-3.02727 -0.27205,-4.36113 0.66057,-1.35918 1.91093,1.1196 4.8107,2.64162 2.88453,1.51401 5.56151,1.64871 4.56345,3.1902 -0.99806,1.5415 -1.85739,0.21936 -3.05726,1.4148 -1.19987,1.19543 -2.9283,2.74163 -4.02053,6.90022 l -1.65895,6.31631"
         style="fill:#83a92f;fill-opacity:1;stroke:none;stroke-width:1.06666672" />
      <path
         style="opacity:0.5;fill:#58661c;fill-opacity:1;stroke:none;stroke-width:1.06666672"
         d="m 352.47931,594.07922 c -1.70357,0.0493 -3.36689,1.37056 -4.5081,2.69919 -1.74151,2.02753 -2.62097,4.78157 -3.03373,7.42229 -0.57566,3.68297 -1.73032,8.73513 0.87041,11.14911 -6.45088,-2.14709 -1.39403,-13.91987 0.82427,-18.23333 0.87421,-1.69989 2.19407,-4.38258 5.84715,-3.03726 z m 4.92119,1.26773 c 1.00667,1.33248 3.16297,2.71755 4.85113,3.66536 -2.83241,0.46688 -3.40375,0.97719 -4.55668,3.10955 -0.88456,1.63601 -1.65939,3.00508 -2.64072,4.56631 -1.03835,1.65192 -2.40166,4.47074 -2.00189,6.64497 0.41219,2.24173 3.41493,3.35529 3.81667,5.66667 0.73112,6.75496 1.12683,13.32319 0.76667,20.11667 -0.78307,9.20602 -3.72833,18.46628 -9.17712,22.78955 -4.13858,3.28369 -10.74698,3.79626 -17.76667,3.46666 -7.01969,-0.3296 -14.31738,-1.45615 -20.03333,-0.73333 -4.5689,0.57777 -8.76934,-0.71668 -13.7,-0.36667 -2.73787,0.19436 -4.92811,1.31623 -6.73333,1.26667 -1.68668,-0.0463 -3.75994,-1.43684 -6.6,-1.5 -2.7546,-0.0612 -4.76988,1.25202 -6.33334,1.26667 -3.09307,0.0289 -6.47513,-1.62871 -10.43333,-1.9 -4.5469,-0.31167 -8.65949,1.27909 -12.13333,0.63333 -3.57818,-0.68827 -7.67384,-3.40389 -10.45148,-5.63612 2.5148,0.46584 11.11982,4.69803 15.29521,1.21319 1.66531,-0.22208 4.65922,-1.71199 6.3,-2.23334 5.87173,-1.86569 15.96713,-7.23079 24.4,-9.46666 6.75263,1.30964 13.22219,3.81956 22.54384,6.86655 -5.52757,-0.59889 -9.70834,-1.15902 -14.8353,-0.66748 -3.28851,0.31528 -10.57413,2.45741 -13.87515,3.86765 3.75286,0.55971 7.30783,-0.77723 10.96666,-1.26667 4.93066,-0.35002 9.13111,0.94444 13.7,0.36667 5.71595,-0.72282 13.01365,0.40373 20.03334,0.73333 7.01969,0.3296 13.62808,-0.18298 17.76666,-3.46667 5.44879,-4.32326 8.01693,-13.96065 8.8,-23.16666 0.39153,-4.60301 0.39207,-9.05428 0.16667,-12.63334 -0.14061,-0.79839 -1.29606,-2.51079 -2.32613,-3.82364 -0.51504,-0.65643 -0.3654,-1.48797 -0.60856,-1.98459 -0.24316,-0.49662 -0.8791,-0.65833 -0.96531,-1.17509 -0.24639,-1.47687 1.86707,-4.12604 2.36667,-5.91668 0.53614,-1.92162 -0.70896,-2.24382 0.16666,-3.8 0.3942,-0.70058 1.27266,-1.51032 1.8468,-2.53466 0.76502,-1.3649 1.44702,-2.56267 1.38469,-3.9682 z"
         id="path3727" />
      <path
         style="opacity:0.65;fill:#dde1a2;fill-opacity:1;stroke:none;stroke-width:1.06666672"
         d="m 357.23568,638.34981 c 0.92532,2.02914 -1.47155,18.29857 -8.66667,23.9 -4.689,3.65041 -10.49886,3.72834 -17.5,3.4 -7.00114,-0.32834 -14.28884,-1.46819 -20.1,-0.73333 -4.47466,0.56586 -8.64586,-0.75642 -13.66666,-0.4 -2.84989,0.20231 -4.99809,1.31247 -6.66667,1.26667 -1.5346,-0.0421 -3.63939,-1.43342 -6.63333,-1.5 -2.91649,-0.0649 -4.95702,1.25346 -6.36667,1.26666 -2.96812,0.0277 -6.30326,-1.62149 -10.36667,-1.9 -4.6674,-0.31993 -8.77307,1.25178 -12.1,0.63334 -3.64908,-0.34527 -11.05093,-5.65515 -10.77111,-5.82474 0.27983,-0.16958 2.49486,1.59117 5.83778,3.0914 5.38325,2.00441 10.47434,-0.20134 15.93309,-0.54346 2.32238,0.003 7.54469,1.65589 9.62786,1.63635 2.88448,-0.0271 5.93253,-0.36836 7.29665,-0.33807 1.51836,0.0337 4.48646,0.68263 7.47933,0.76471 2.97895,0.0818 4.961,-0.71636 6.73667,-0.84241 4.15153,-0.2947 6.80691,0.18407 12.19307,-0.49705 4.89992,-0.61963 10.93992,-0.64046 18.2,-0.29995 7.26007,0.3405 13.85214,-0.49418 20.8,-3.96667 6.94787,-3.47249 7.80801,-21.14253 8.73333,-19.11339 z"
         id="path3636" />
      <path
         style="color:#000000;display:inline;overflow:visible;visibility:visible;opacity:0.5;fill:#e5ff80;fill-opacity:1;fill-rule:nonzero;stroke:none;stroke-width:1.06666672px;stroke-linecap:butt;stroke-linejoin:miter;stroke-opacity:1;marker:none;enable-background:accumulate"
         d="m 346.48132,610.909 c 1.94951,0.48064 3.79967,1.50406 5.33334,2.8 0.89623,0.75733 2.76571,1.81163 2.13333,2.8 -0.88336,1.38061 -3.22881,-0.59999 -4.8,-1.06666 -1.45606,-0.43248 -3.51711,-0.27891 -4.26667,-1.6 -0.49043,-0.86438 -0.22966,-2.29656 0.53334,-2.93334 0.27297,-0.22782 0.72145,-0.0851 1.06666,0 z"
         id="path3648" />
      <path
         style="fill:none;fill-opacity:1;stroke:#143200;stroke-width:1.33333337;stroke-linecap:round;stroke-linejoin:round;stroke-miterlimit:4;stroke-dasharray:none;stroke-opacity:1"
         d="m 348.68494,610.36134 c 0.68085,-1.90285 2.06189,-5.15207 3.22288,-7.11368 1.16099,-1.96161 3.92812,-4.37345 4.11906,-6.32635 0.19093,-1.95289 -0.24729,-1.77007 0.38586,-3.34364 0.63314,-1.57355 1.15185,0.49032 3.50777,2.38646 2.17634,1.7516 5.16694,2.49166 4.01327,3.64553 -1.15367,1.15388 -2.81784,0.464 -3.99348,1.57098 -1.17563,1.10699 -2.18492,3.7959 -3.67212,6.07018 -1.4872,2.27427 -3.08976,5.71517 -0.86884,7.51509 0.94529,0.7661 2.18756,2.52244 2.54891,4.27483 0.36134,1.75238 3.9384,34.76008 -8.20594,44.39583 -9.31075,7.38747 -27.81348,1.70595 -38.52456,3.06043 -4.93041,0.62349 -9.20184,-0.7081 -13.788,-0.38255 -2.31278,0.16418 -4.53123,1.28048 -6.85564,1.27519 -2.28453,-0.005 -4.44789,-1.25697 -6.73228,-1.28397 -2.09017,-0.0246 -4.09681,0.95961 -6.18598,1.02893 -3.67459,0.12192 -7.30594,-0.87175 -10.97639,-1.08453 -3.94288,-0.22858 -7.80678,0.49844 -11.84675,-0.20528 -5.87937,-1.02413 -14.87927,-7.88896 -12.76113,-9.2232 2.11814,-1.33424 13.10665,6.07419 17.42564,0.90207 6.78636,-8.12688 20.95048,-8.82667 32.08699,-9.57152 10.82074,-0.72373 21.97328,8.83657 32.138,5.06539 6.15648,-2.28411 10.69842,-8.77627 12.71813,-15.00819 2.44594,-7.54709 -3.58285,-15.99068 -1.82275,-23.72435 0.37835,-1.6624 1.008,-3.2797 2.56019,-4.42787 2.34863,-1.73731 2.12485,-5.2005 2.93829,-8.31284 1.03516,-3.96069 4.57256,-7.20779 4.39989,-8.4373 -0.17269,-1.22951 -0.92031,-3.02727 -0.27205,-4.36113 0.66057,-1.35918 1.91093,1.1196 4.8107,2.64162 2.88453,1.51401 5.56151,1.64871 4.56345,3.1902 -0.99806,1.5415 -1.85739,0.21936 -3.05726,1.4148 -1.19987,1.19543 -2.9283,2.74163 -4.02053,6.90022 l -1.65895,6.31631 c -0.65286,2.93065 0.45762,4.33127 1.73334,5.33334 m -1.03433,-4.55044 c 2.24477,0.63167 4.73533,1.51461 5.82185,2.4945"
         id="path2835" />
      <path
         style="fill:#a9683d;fill-opacity:1;stroke:none;stroke-width:2.13333344;stroke-linecap:round;stroke-linejoin:round;stroke-miterlimit:4;stroke-dasharray:none;stroke-opacity:1"
         d="m 258.00365,634.95481 c -4.14364,-2.00893 -2.92899,-7.83067 -0.26649,-10.47469 5.11535,-5.07984 13.52869,-2.92797 17.62953,2.28382 6.19474,7.87291 2.21866,20.15142 -4.84301,24.71586 -9.16066,5.92116 -25.15889,3.02775 -31.89843,-7.38339 -8.56601,-13.23267 -3.10067,-30.95146 9.95252,-38.95703 15.91821,-9.76269 36.87459,-3.16662 46.16733,12.48297 4.11569,6.9311 5.80692,15.15131 4.91263,23.14779 0.67392,1.96792 4.19065,-3.03967 7.70739,-0.84179 2.54039,1.58767 1.19307,6.52248 -3.23884,8.68007 -4.43191,2.15759 -10.39892,0.95791 -15.42176,2.28965 -6.54272,1.73472 -14.36635,5.91311 -18.92199,7.36062 -4.55564,1.4475 -10.09835,1.76399 -10.43572,-1.59658 -0.41735,-4.15718 2.49656,-3.44565 5.97301,-3.02217"
         id="path3626" />
      <path
         style="fill:#784421;stroke:none;stroke-width:1.06666672"
         d="m 265.46049,616.70537 c 3.81441,-0.0842 7.75018,1.45006 10.7,4.84791 2.94981,3.39786 4.90106,8.6162 4.95208,15.84375 -0.0148,1.14938 -2.2225,1.36596 -2.30131,0.21918 -0.5703,-11.86426 -7.21189,-16.51298 -13.66535,-16.43585 -3.22674,0.0386 -6.26564,1.27218 -8.2,3.36042 -1.93437,2.08823 -2.46329,4.82759 -1.41933,8.58706 0.28515,1.02706 -1.51915,1.77611 -2.03276,0.8421 -2.39067,-4.34795 -1.54698,-8.75704 0.98333,-11.93333 2.53033,-3.17628 6.66808,-5.23601 10.98334,-5.33124 z m 11.35625,17.60209 c 0.46397,0.0189 1.09084,0.4306 1.11419,0.89437 0.28252,5.71544 -1.71236,10.14986 -4.65378,13.2827 -2.49105,2.65318 -5.82431,4.28298 -9.42708,5.06875 2.44419,0.0757 5.89362,-0.0122 7.65834,-0.57291 4.63241,-1.4719 9.40419,-5.32963 15.87707,-7.04583 l 0.0208,-0.004 c 3.39881,-0.81059 7.14976,-0.64913 10.5,-1.0375 3.35025,-0.38838 6.18881,-1.24982 8.11042,-3.94376 0.38851,-0.54581 1.2586,-0.65852 1.56938,-0.0651 -0.0392,-0.0749 0.16765,0.22079 0.25157,0.35814 0.084,0.13736 0.15858,0.095 0.24553,0.48176 l 0.0846,0.19247 c 0.13066,0.58156 -0.104,1.25159 -0.36774,2.03895 -0.51996,1.55186 -1.85208,3.18043 -3.925,4.18958 -2.08451,1.01482 -4.58137,1.25739 -7.25,1.3875 -2.66694,0.13005 -5.46316,0.14544 -8.08125,0.83959 -6.66637,1.76751 -14.514,5.97602 -18.95625,7.38749 -2.22881,0.70819 -4.66502,1.12445 -6.54583,0.97292 -0.95565,-0.077 -1.67932,-0.28885 -2.22084,-0.64583 -0.19391,-0.12783 -0.42603,-0.29027 -0.60417,-0.57083 -0.17812,-0.28056 -0.23503,-0.58266 -0.26249,-0.85626 -0.003,-0.0347 -0.005,-0.0694 -0.004,-0.10421 0.0108,-0.68755 -0.11778,-1.26435 0.20209,-1.98958 0.10229,-0.23202 0.36364,-0.3819 0.5875,-0.55625 -8.42186,0.64258 -17.62825,-2.68948 -21.87438,-10.59162 -0.48088,-0.89148 0.6098,-2.19583 1.35563,-1.51046 7.766,7.09323 16.38061,7.71286 23.27084,5.4 6.89031,-2.31293 11.90448,-7.68698 12.398,-12.20215 0.0521,-0.46786 0.45667,-0.81607 0.92708,-0.79791 z"
         id="path2854" />
      <path
         style="opacity:0.3;fill:#e79448;fill-opacity:1;stroke:none;stroke-width:1.06666672"
         d="m 265.48132,602.67567 c 0.76273,0.002 1.54079,0.0381 2.3,0.1 10.12615,0.82633 19.87321,7.31855 23.73334,18.93333 0.5482,1.77531 -0.41031,3.88578 -2.10785,4.64115 -1.69754,0.75536 -3.907,0.0545 -4.85882,-1.54115 -3.28383,-5.78061 -7.39574,-9.19567 -12.1,-10.53333 -4.70425,-1.33767 -10.31973,-0.66982 -16.86667,2.83333 -2.75355,1.47338 -5.14794,5.20604 -6,8.8 -0.42602,1.79698 -0.46114,3.50588 -0.23333,4.6 0.22781,1.09412 0.53536,1.37685 0.7,1.46667 1.62469,0.94288 2.34509,3.18297 1.57457,4.89613 -0.77052,1.71318 -2.92448,2.66048 -4.7079,2.07053 -3.18251,-1.14414 -5.3913,-3.80771 -6.43334,-6.66666 -1.04203,-2.85896 -1.17375,-5.95417 -0.7,-9.06667 0.9475,-6.22501 4.27671,-12.71514 10.23334,-16.26667 4.76509,-2.8411 10.12758,-4.28341 15.46666,-4.26666 z m -0.93333,20.5 c 0.69535,-0.0218 1.38881,0.0456 2.1,0.16667 2.84475,0.48452 5.64555,2.16122 7.43333,4.43333 1.48207,1.88357 2.33564,4.05973 2.63334,6.33333 -1.68302,1.04 -4.15143,0.48972 -5.23334,-1.16666 -0.90681,-1.37221 -3.98558,-2.44156 -6.3,-2.16667 -2.41134,0.31749 -1.31462,2.54042 -2.44162,4.48254 -0.96887,1.03071 -2.53573,1.45378 -3.89171,1.05079 0.9537,-0.61525 0.85328,-2.30223 -0.16667,-2.8 -1.47065,-0.71301 -1.85957,-1.87044 -1.76666,-3.46666 0.0929,-1.59623 0.93238,-3.43933 1.93333,-4.43334 1.62474,-1.61346 3.61394,-2.36818 5.7,-2.43333 z"
         id="path3701" />
      <path
         style="fill:#e79448;fill-opacity:1;stroke:none;stroke-width:1.06666672"
         d="m 287.86727,622.89919 c -7.31762,-12.88139 -19.68533,-16.88658 -34.07746,-9.18562 -8.20801,4.39196 -11.14434,18.59369 -5.5737,21.63235 -8.0903,-2.90852 -5.49269,-19.57409 3.7737,-25.09902 12.66535,-7.55149 30.43346,-3.72822 35.87746,12.65229 z m -23.4688,2.04413 c 3.79573,-0.11393 7.74544,1.43905 10.28285,5.86568 -4.09832,-6.20159 -17.52434,-4.6904 -14.73333,1.83334 -2.35072,-3.23215 0.14867,-7.5699 4.45048,-7.69902 z m 40.01619,16.09902 c 0,0 -2.10397,2.09353 -3.46667,2.56666 -3.05359,1.06019 -6.05828,-0.67938 -9.7,0.26667 -2.71617,0.70561 -9.07848,3.54784 -11.45014,3.9154 4.39881,-1.78822 7.17981,-4.4443 10.35014,-5.18207 3.54919,-0.82594 7.51855,0.34285 10.2,0.26667 1.48322,-0.0421 4.06667,-1.83333 4.06667,-1.83333 z"
         id="path3650" />
      <path
         style="color:#000000;display:inline;overflow:visible;visibility:visible;opacity:0.75;fill:#784421;fill-opacity:1;fill-rule:nonzero;stroke:none;stroke-width:1.06666672px;marker:none;enable-background:accumulate"
         d="m 298.20441,633.66734 c 0.4579,0.0157 0.96536,0.45609 1.05907,0.89671 0.33192,1.57946 0.37225,2.66431 -0.088,5.92935 -0.0715,0.50825 -0.68752,1.25942 -1.20863,1.22534 -3.12811,-0.20243 -5.91078,-0.0691 -9.53392,1.16711 -3.62316,1.23621 -8.07505,3.72498 -14.8423,8.77675 -1.00561,0.75737 -2.06182,-0.0805 -1.13131,-0.92549 4.53886,-4.16976 6.18276,-10.58174 6.15482,-13.25102 -0.009,-0.80565 0.92313,-1.27486 1.5841,-0.79792 3.15193,2.2716 7.76388,3.2115 11.36436,2.76042 1.80024,-0.22555 3.32853,-0.79744 4.3006,-1.59375 0.97207,-0.79631 1.44783,-1.73838 1.31478,-3.12083 -0.055,-0.5868 0.42695,-1.08768 1.02638,-1.06667 z"
         id="path2856" />
      <g
         id="g5128"
         transform="matrix(-1,0,0,1,605.60042,1.9541876)">
        <ellipse
           style="color:#000000;display:inline;overflow:visible;visibility:visible;fill:#ffffff;fill-opacity:1;fill-rule:evenodd;stroke:#162616;stroke-width:1.27999997;stroke-linecap:round;stroke-linejoin:round;stroke-miterlimit:4;stroke-dasharray:none;stroke-dashoffset:0;stroke-opacity:1;marker:none;enable-background:accumulate"
           id="path3616"
           cx="241.66664"
           cy="589.28955"
           rx="8.4978476"
           ry="8.3659105" />
        <ellipse
           id="path3624"
           style="color:#000000;display:inline;overflow:visible;visibility:visible;fill:#000000;fill-opacity:1;fill-rule:evenodd;stroke:none;stroke-width:6.81076813;marker:none;enable-background:accumulate"
           cx="238.99467"
           cy="589.11682"
           rx="1.9363416"
           ry="2.4908457" />
      </g>
      <g
         id="g5132"
         transform="matrix(-1,0,0,1,606.84812,2.2313259)">
        <ellipse
           id="path3614"
           style="color:#000000;display:inline;overflow:visible;visibility:visible;fill:#ffffff;fill-opacity:1;fill-rule:evenodd;stroke:#162616;stroke-width:1.27999997;stroke-linecap:round;stroke-linejoin:round;stroke-miterlimit:4;stroke-dasharray:none;stroke-dashoffset:0;stroke-opacity:1;marker:none;enable-background:accumulate"
           cx="253.23006"
           cy="582.55292"
           rx="9.944912"
           ry="9.7934322" />
        <ellipse
           id="path3622"
           style="color:#000000;display:inline;overflow:visible;visibility:visible;fill:#000000;fill-opacity:1;fill-rule:evenodd;stroke:none;stroke-width:4.91585445;marker:none;enable-background:accumulate"
           cx="249.08447"
           cy="582.64618"
           rx="2.5150213"
           ry="3.0559578" />
      </g>
      <path
         style="color:#000000;display:inline;overflow:visible;visibility:visible;opacity:0.5;fill:#e5ff80;fill-opacity:1;fill-rule:nonzero;stroke:none;stroke-width:1.06666672px;stroke-linecap:butt;stroke-linejoin:miter;stroke-opacity:1;marker:none;enable-background:accumulate"
         d="m 344.9201,597.18803 c 0.2948,0.0315 0.68052,0.18424 0.75424,0.4714 0.30438,1.1856 -1.29024,2.08878 -1.79133,3.20556 -0.66728,1.48713 -1.34864,3.00973 -1.60279,4.61977 -0.23525,1.49037 0.39448,3.04682 0.0943,4.52548 -0.19871,0.97879 -1.13766,1.73926 -1.22566,2.73414 -0.0913,1.03259 0.38965,2.04662 0.75425,3.017 0.48448,1.2894 1.73208,2.30811 1.88563,3.67695 0.15548,1.38618 -0.89885,2.66606 -1.03709,4.05408 -0.24016,2.41121 0.55105,4.84274 0.37712,7.25962 -0.24376,3.38726 -1.49778,6.63217 -1.97991,9.99378 -0.30011,2.09262 0.29177,4.38448 -0.56568,6.31682 -1.37107,3.08987 -3.91874,5.82238 -6.8825,7.4482 -2.01593,1.10586 -4.56275,0.64759 -6.78823,1.22565 -1.22163,0.31731 -2.32113,1.18566 -3.58267,1.22565 -1.07443,0.034 -3.21188,0.22172 -3.11127,-0.84853 0.11212,-1.19268 2.40415,-0.068 3.58267,-0.28284 1.22311,-0.22292 2.37438,-0.74435 3.58268,-1.0371 1.58737,-0.38457 3.52194,0.0636 4.80832,-0.9428 1.22915,-0.96164 0.74267,-3.29143 1.97991,-4.24265 0.70864,-0.54482 2.03726,0.18882 2.63986,-0.4714 1.48847,-1.6308 -0.18751,-4.52415 0.56568,-6.59966 0.52345,-1.44242 1.95008,-2.40055 2.63986,-3.77124 0.84882,-1.68669 1.48889,-3.51016 1.79134,-5.37401 0.39266,-2.41964 0.36911,-4.93056 0,-7.35391 -0.20117,-1.32084 -0.5134,-2.67633 -1.1933,-3.82646 -0.60803,-1.02856 -2.2221,-1.41877 -2.48365,-2.58464 -0.16603,-0.74011 0.87895,-1.41438 0.72467,-2.15702 -0.14693,-0.7073 -0.8753,-0.9502 -1.4513,-1.60948 -0.84934,-1.19553 -0.16598,-1.68227 0.10645,-2.40483 0.27246,-0.72255 0.13402,-1.68091 1.37439,-2.21967 0.65394,-0.3143 1.08916,-0.61692 1.40752,-1.12663 0.79633,-1.275 0.60803,-2.94574 0.98769,-4.40026 0.33384,-1.27895 0.85898,-2.50698 1.13333,-3.8 0.14418,-0.67947 0.0296,-1.4138 0.26667,-2.06666 0.32412,-0.89229 0.79166,-1.80742 1.53333,-2.4 0.19528,-0.15604 0.45689,-0.28083 0.70544,-0.25431 z"
         id="path3679" />
      <path
         style="color:#000000;font-style:normal;font-variant:normal;font-weight:normal;font-stretch:normal;font-size:medium;line-height:normal;font-family:'Bitstream Vera Sans';-inkscape-font-specification:'Bitstream Vera Sans';text-indent:0;text-align:start;text-decoration:none;text-decoration-line:none;letter-spacing:normal;word-spacing:normal;text-transform:none;writing-mode:lr-tb;direction:ltr;text-anchor:start;display:inline;overflow:visible;visibility:visible;fill:#321400;fill-opacity:1;fill-rule:nonzero;stroke:none;stroke-width:1;stroke-miterlimit:4;stroke-dasharray:none;stroke-opacity:1;marker:none;enable-background:accumulate"
         id="path5126"
         d="m 322.67578,562.50977 c -1.55824,-0.10361 -3.11771,-0.0864 -4.66992,0.0449 -10.34856,0.87539 -20.24874,6.83244 -25.79102,16.16601 -3.7704,6.34962 -5.35747,13.84301 -4.72265,21.17969 a 0.43156618,0.43156618 0 0 1 -0.61719,0.42578 c -0.30311,-0.14654 -0.62059,-0.29938 -1.13672,-0.56836 -0.68513,-0.35705 -1.44927,-0.72559 -2.33594,-0.86328 -0.87648,-0.13611 -1.89542,-0.0197 -2.83007,0.56445 -0.7195,0.44966 -1.19133,1.18712 -1.36915,1.97852 -0.17983,0.80041 -0.0923,1.66604 0.20508,2.54883 0.5929,1.7601 2.03798,3.51686 4.25,4.59375 4.42446,2.15396 10.04306,0.98704 14.57813,2.18945 6.02544,1.59757 13.30875,5.48335 17.70703,6.88086 2.19172,0.69639 4.58833,1.1423 6.58398,0.98242 1.00088,-0.0802 1.8881,-0.30043 2.60938,-0.77539 0.69692,-0.45892 1.21551,-1.25446 1.30859,-2.18164 0.0325,-0.32346 -0.11893,-0.55209 -0.15625,-1.04883 a 0.43156618,0.43156618 0 0 1 0.41602,-0.46484 c 1.54761,-0.0474 3.10753,-0.22337 4.64258,-0.55273 5.7369,-1.23092 11.18865,-4.43491 14.44726,-9.46876 8.21687,-12.69332 2.97458,-29.64081 -9.52148,-37.30468 -4.27834,-2.62392 -8.92293,-4.01539 -13.59766,-4.32617 z m -0.10937,1.13476 c 4.51568,0.28941 9.01193,1.61959 13.1289,4.14453 11.97962,7.34715 16.98027,23.63817 9.13477,35.75782 -3.06144,4.72927 -8.25245,7.76003 -13.74024,8.9375 a 0.43156618,0.43156618 0 0 1 -0.041,0.008 c -5.14025,0.58176 -9.81478,0.10941 -13.63086,-1.81836 -3.81608,-1.92777 -6.74491,-5.32315 -8.36133,-10.45117 a 0.43156618,0.43156618 0 0 1 -0.008,-0.0293 c -1.00137,-4.20056 -0.51075,-8.71121 2.26758,-12.24219 1.82906,-2.32457 4.63833,-4.00623 7.54882,-4.50195 2.90336,-0.49451 5.8705,0.15958 8.12696,2.40039 1.14078,1.13287 1.99323,3.01996 2.0957,4.78125 0.0503,0.86467 -0.0467,1.68075 -0.38867,2.39844 -0.342,0.71768 -0.93614,1.31896 -1.79297,1.73437 a 0.43156618,0.43156618 0 0 1 -0.0469,0.0195 c -0.26321,0.0906 -0.44889,0.53925 -0.32618,0.78907 0.12272,0.24981 0.5916,0.37564 0.82422,0.22265 a 0.43156618,0.43156618 0 0 1 0.0488,-0.0273 c 2.14686,-1.04084 2.93783,-3.15749 2.81836,-5.21094 -0.12062,-2.07318 -1.06426,-4.13824 -2.43555,-5.5 -2.53701,-2.51939 -5.89842,-3.26852 -9.09179,-2.72461 -3.19915,0.54489 -6.24698,2.34127 -8.26368,4.9043 -3.02969,3.85046 -3.57832,8.76054 -2.51367,13.22656 1.06532,4.4688 3.72202,8.52635 7.18946,10.76758 2.94475,1.84564 6.27594,2.52706 9.74218,2.83984 a 0.43156618,0.43156618 0 0 1 0.38282,0.3418 c 0.0471,0.22558 0.1633,0.54764 0.10156,1.16211 -0.0605,0.60294 -0.37933,1.03055 -0.81641,1.31836 -0.48687,0.3206 -1.19506,0.52886 -2.07812,0.59961 -1.75831,0.14086 -4.08067,-0.26124 -6.16602,-0.92383 -4.15408,-1.31992 -11.51553,-5.24429 -17.76172,-6.90039 -2.4564,-0.65129 -5.0682,-0.72818 -7.55273,-0.85938 -2.48453,-0.1312 -4.84804,-0.31016 -6.80664,-1.26367 -1.94576,-0.94725 -3.20219,-2.49676 -3.6875,-3.9375 -0.24086,-0.71502 -0.29406,-1.36744 -0.16992,-1.91992 0.12187,-0.54244 0.43003,-0.98972 0.88085,-1.27148 0.69603,-0.435 1.38164,-0.50731 2.04493,-0.4043 0.67893,0.1054 1.3631,0.39449 2.00781,0.73047 0.64999,0.33873 1.16705,0.68696 1.74805,0.8789 0.30825,0.10184 0.59936,0.17818 0.94726,0.0625 0.28701,-0.0954 0.59032,-0.48067 0.69727,-0.79297 a 0.43156618,0.43156618 0 0 1 0.004,-0.0117 c 0.0273,-0.0725 0.0394,-0.15292 0.0352,-0.23047 -0.81844,-7.36743 0.74073,-14.95768 4.5293,-21.33789 5.34762,-9.00575 14.88375,-14.75712 24.86523,-15.61524 1.49707,-0.1287 3.00451,-0.14725 4.50977,-0.0508 z"
         transform="matrix(-1.0666667,0,0,1.0666667,606.96254,0)" />
    </g>
  </g>
</svg>
